<svg viewBox="0 0 321.12 274.349" xmlns="http://www.w3.org/2000/svg" xmlns:xlink="http://www.w3.org/1999/xlink" width="321.119995" height="274.348633" fill="none" customFrame="#000000">
	<mask id="mask_5" width="171.016602" height="152.848831" x="150.103394" y="0.000000" maskUnits="userSpaceOnUse">
		<g filter="url(#pixso_custom_mask_type_outline)">
			<g>
				<rect id="Rectangle 216" width="171.016602" height="152.848831" x="150.103394" y="0.000000" fill="rgb(255,255,255)" />
			</g>
		</g>
	</mask>
	<defs>
		<filter id="pixso_custom_mask_type_outline">
			<feColorMatrix type="matrix" values="0 0 0 0 1 0 0 0 0 1 0 0 0 0 1 0 0 0 1 0 " />
		</filter>
	</defs>
	<mask id="mask_4" width="243.584320" height="225.000061" x="0.000000" y="49.348633" maskUnits="userSpaceOnUse">
		<g filter="url(#pixso_custom_mask_type_outline)">
			<g>
				<rect id="Rectangle 214" width="243.584320" height="225.000061" x="0.000000" y="49.348633" fill="rgb(255,255,255)" />
			</g>
		</g>
	</mask>
	<rect id="Frame 4" width="321.119995" height="274.348633" x="0.000000" y="0.000000" />
	<g id="Group 483">
		<g id="Group 482" mask="url(#mask_4)">
			<g style="mix-blend-mode:normal">
				<path id="Path 5427" d="M55.6108 49.9805C55.8735 50.985 55.8984 51.7783 56.0638 53.0741C56.1242 53.9539 55.9154 54.7745 55.9092 55.4923C55.8827 56.471 55.4251 57.2421 55.2191 58.1486C55.0726 59.4192 54.7588 60.8046 54.8844 62.1436C54.9737 63.5324 55.5271 66.4449 57.2845 66.161C58.1892 66.0122 58.8732 65.3086 59.619 64.7133C60.541 63.8748 61.9153 63.391 63.0341 63.2441C64.9205 62.8993 67.5685 64.0433 65.2103 65.8059C63.8369 66.9056 61.6865 66.4914 60.2617 66.9287C58.3453 67.7669 60.3454 69.6207 61.1803 70.5534C61.8038 71.2325 62.2996 72.1846 62.9075 73.2039C64.3619 76.2848 66.9846 78.2483 68.9182 80.9923C70.6026 83.3077 72.0857 86.0857 73.8145 88.2952C75.4207 90.4782 77.0762 92.315 79.9302 91.3345C80.4614 91.2329 80.9938 91.4214 81.5204 91.5227C82.709 91.7475 83.9858 92.073 85.1855 92.3058C87.6906 92.4034 92.7553 96.1763 87.8221 96.9243C85.9655 97.1605 84.2186 96.3854 82.6124 95.5823C81.6026 95.2509 80.6351 95.3242 79.6632 95.3547C79.399 95.3778 79.2324 95.4052 79.2164 95.5321C79.181 95.8105 79.5311 96.3309 79.7796 96.6003C80.4623 97.3083 80.955 98.1219 81.7855 98.5481C82.6204 98.9395 83.7674 99.0371 84.7048 99.2764C87.5936 100.268 90.6509 101.422 92.3418 104.159C94.121 107.43 95.7279 106.035 96.9753 108.128C97.5441 109.264 96.5196 110.458 96.887 111.592C97.1848 112.4 98.6933 113.194 98.9262 113.965C99.1731 115.319 97.2248 115.54 95.9071 115.376C94.8059 115.246 93.3561 114.759 92.7301 113.98C92.1496 113.384 91.8198 112.741 91.0641 112.294C89.4838 111.424 88.7632 112.259 89.5201 113.908C90.8427 116.926 92.5946 118.598 95.9767 118.27C97.5213 118.379 99.1694 118.506 100.733 118.626C101.551 118.714 102.56 118.899 102.823 119.736C103.084 120.756 102.096 121.789 101.135 121.983C99.8173 122.329 97.4046 121.142 96.6338 122.777C96.7188 124.43 98.4319 126.022 99.9103 126.596C101.047 126.946 102.318 127.353 103.488 127.712C104.941 128.001 106.679 127.913 108.056 128.211C110.208 128.574 112.357 129.023 114.548 129.008C116.273 129.041 117.686 127.916 119.229 127.303C120.752 126.74 122.198 126.662 123.774 126.489C125.276 126.328 126.725 125.747 128.219 125.665C130.874 125.633 133.666 125.473 136.178 124.596C136.991 124.331 137.606 123.792 138.427 123.492C139.345 123.256 140.173 123.208 141.174 122.952C142.499 122.723 143.838 122.739 145.132 122.459C145.928 122.296 146.762 122.389 147.483 122.278C148.533 122.125 149.538 121.768 150.602 121.5C152.093 121.058 153.75 120.29 155.328 120.237C156.522 120.146 157.664 120.472 158.823 120.336C159.629 120.155 160.299 119.779 161.075 119.445C162.222 118.981 164.016 118.94 165.401 118.744C168.61 118.287 171.868 117.769 175.013 116.956C176.385 116.524 177.978 116.45 179.287 116.253C180.048 116.055 180.639 115.904 181.403 115.765C183.867 115.493 186.722 116.932 189.104 117.571C190.813 117.984 192.509 117.537 194.122 118.326C195.303 118.962 196.13 120.207 197.262 120.959C198.843 122.13 200.843 122.442 202.708 122.964C207.758 124.613 212.717 126.664 216.5 130.376C220.049 134.253 222.865 138.763 225.065 143.487C225.568 144.484 226.399 145.566 227.06 146.56C227.541 147.38 228.037 148.33 228.523 149.164C230.649 153.553 232.785 157.981 234.103 162.718C235.026 165.689 236.647 168.634 237.207 171.753C237.769 174.531 237.43 177.284 238.32 179.948C238.857 181.422 239.576 182.832 240.185 184.255C240.884 186.134 241.569 188.303 242.061 190.288C242.463 191.85 242.811 193.493 242.821 195.063C242.859 196.767 242.397 197.65 240.683 197.827C239.359 197.972 238.024 199.64 236.671 198.796C235.731 198.11 235.226 196.865 234.75 195.848C234.238 194.578 233.133 192.912 232.728 194.996C232.421 197.199 233.084 199.61 233.669 201.707C233.92 203.154 234.823 203.644 234.81 205.145C234.938 206.937 233.694 209.468 231.967 207.188C229.955 204.411 228.803 201.318 227.953 198.003C227.547 195.887 227.548 193.199 227.269 190.835C227.025 187.999 226.628 185.321 226.421 182.49C226.415 181.265 226.628 180.007 226.499 178.81C226.451 176.805 226.557 174.973 225.983 173.094C225.788 172.286 225.728 171.477 225.631 170.661C225.379 169.371 225.022 168.217 224.741 166.887C224.109 164.346 224.955 161.564 224.03 159.121C223.64 157.901 222.913 156.796 222.552 155.579C221.942 153.737 221.488 151.666 220.364 150.013C219.829 149.256 218.537 147.482 218.661 149.451C218.877 150.814 219.559 152.536 219.986 153.945C220.589 155.863 221.225 157.287 221.55 159.236C221.738 160.394 221.755 161.934 221.952 163.178C222.173 164.604 222.507 166.037 222.648 167.487C222.799 168.593 222.94 169.727 223.108 170.737C223.281 171.783 223.834 173.2 223.902 174.39C224.215 176.639 224.238 178.59 224.277 180.806C224.336 182.12 224.679 183.493 224.689 184.827C224.686 185.95 224.841 186.815 224.916 187.81C224.998 188.397 225.133 188.867 225.322 189.521C225.575 190.344 225.486 191.227 225.552 192.105C225.579 192.885 225.515 193.726 225.228 194.429C224.532 195.912 222.538 195.214 221.96 194.114C221.668 193.465 221.604 192.864 221.452 192.097C221.402 191.267 220.981 190.483 220.857 189.663C220.66 188.393 220.795 187.233 220.695 185.976C220.408 184.107 219.745 182.287 219.107 180.455C218.674 178.327 218.078 176.25 217.277 174.25C216.38 171.765 217.205 168.713 216.744 166.092C216.454 164.119 215.726 162.47 215.681 160.576C215.554 159.153 215.967 157.988 215.587 156.715C214.691 154.22 213.927 151.686 213.606 149.013C213.024 145.986 213.341 142.384 211.424 139.756C209.497 137.226 208.351 134.052 206.278 131.632C205.175 130.138 201.092 128.195 202.134 131.487C203.546 135.08 203.064 139.516 202.403 143.202C202.301 144.025 202.339 144.868 202.114 145.666C201.868 146.422 201.953 147.035 201.91 147.753C201.663 149.138 201.456 150.922 201.078 152.433C200.832 153.492 200.632 154.552 200.211 155.555C199.596 157.103 199.383 158.598 199.08 160.187C198.515 162.944 196.731 165.454 195.972 168.115C195.852 168.434 195.658 168.775 195.519 169.07C194.984 170.3 195.154 171.371 195.223 172.637C195.268 173.889 195.023 175.422 195.194 176.812C195.273 178.043 195.776 179.015 195.965 180.122C196.095 180.796 196.256 181.454 196.227 182.151C196.163 184.167 196.718 186.106 197.057 188.07C197.679 190.869 197.737 193.817 197.863 196.642C197.876 197.405 198.146 198.126 198.33 198.861C198.691 200.6 198.985 202.391 199.42 204.18C199.661 205.496 200.336 206.648 200.921 207.83C201.483 209.056 202.015 210.37 202.286 211.662C202.548 213.372 202.515 215.011 202.435 216.813C202.232 219.112 202.942 221.34 203.795 223.371C204.225 224.777 203.582 226.152 203.934 227.593C204.307 228.772 204.649 229.8 205.053 230.956C205.709 232.802 205.829 234.794 205.936 236.741C206.148 239.483 207.424 242.159 207.65 244.839C207.799 246.078 207.604 247.324 208.196 248.466C209.178 249.847 210.563 251.094 210.803 252.846C210.877 253.531 211.027 254.283 210.65 254.88C209.703 256.152 207.758 255.854 206.534 256.844C205.144 257.732 204.429 259.774 202.863 260.314C201.009 260.391 200.242 257.847 199.764 256.319C199.449 254.708 199.233 252.933 199.143 251.275C199.134 249.599 199.102 247.986 198.999 246.422C198.802 245.494 198.859 244.556 198.851 243.607C198.805 241.943 198.24 240.38 197.894 238.752C197.643 237.396 197.632 235.802 197.273 234.476C196.981 233.238 196.905 232.075 196.61 230.831C196.247 228.985 195.476 227.262 194.803 225.545C194.228 224.225 194.293 222.551 194.159 221.233C194.056 219.422 192.705 218.6 191.569 217.232C190.891 216.366 190.366 215.363 189.836 214.415C189.389 213.381 188.93 212.578 188.427 211.645C187.996 210.464 187.762 209.299 187.432 208.02C186.88 205.653 185.465 203.281 184.916 200.9C184.426 198.958 184.683 196.973 184.49 194.988C184.205 192.55 183.588 190.127 182.982 187.771C182.684 186.284 182.103 184.868 181.879 183.396C181.737 182.359 181.395 180.833 180.543 180.673C179.836 180.522 179.028 180.813 178.342 181.062C177.278 181.479 176.186 181.548 175.344 182.203C174.309 183.019 173.919 184.312 173.9 185.635C173.902 187.783 174.785 189.819 174.934 191.93C175.052 194.051 175.062 195.843 175.219 197.974C175.39 199.799 175.491 201.946 175.337 203.819C175.309 206.221 176 208.731 176.118 211.171C176.472 214.016 177.436 216.401 177.318 219.273C177.318 221.239 176.042 222.966 175.36 224.719C174.556 226.535 174.383 228.449 173.694 230.353C172.365 233.997 171.408 237.819 170.396 241.58C169.676 243.767 168.345 245.845 167.379 247.899C167.009 248.824 166.788 249.44 166.272 250.132C165.641 251.076 164.908 251.933 164.185 252.817C163.604 253.854 163.232 255.068 162.719 256.152C161.704 259.967 162.956 262.383 157.772 263.028C155.467 263.041 148.957 263.038 149.446 259.533C149.641 258.31 150.664 257.181 151.204 256.21C152.121 254.627 152.952 253.247 153.515 251.442C153.856 250.127 154.578 248.924 154.892 247.681C155.089 247.076 154.932 246.239 155.018 245.116C155.255 243.23 156.12 241.381 156.972 239.713C158.347 237.427 158.684 234.799 159.669 232.317C160.799 229.338 162.388 226.918 162.983 223.668C163.842 221.208 163.732 218.613 163.524 216.072C163.469 214.961 163.82 213.681 163.933 212.648C164.011 211.599 164.084 210.643 163.95 209.624C163.659 208.143 163.363 206.65 163.307 205.12C163.107 202.77 163.305 200.293 162.718 197.973C162.348 196.323 161.973 194.64 162.347 193.066C162.201 191.746 162.193 190.326 162.674 189.051C163.208 187.506 165.166 187.468 166.058 186.059C166.578 185.473 166.956 184.777 166.005 184.425C164.762 184.01 163.321 184.507 162.046 184.329C160.687 184.185 159.282 184.399 157.936 184.217C156.938 184.181 156.03 183.737 155.015 183.835C154.14 183.772 153.202 184.009 152.297 184.112C151.657 184.163 151.059 184.126 150.4 184.221C148.37 184.611 146.317 185.436 144.401 186.157C142.72 186.528 140.97 186.021 139.254 186.085C138.235 186.098 137.171 186.242 136.197 186.232C135.175 186.252 134.077 186.124 133.139 186.212C131.419 186.274 129.792 186.772 128.07 186.925C125.548 186.998 122.978 186.892 120.404 186.951C118.204 187.049 115.935 187.294 113.777 187.489C112.356 187.591 110.913 187.637 109.496 187.813C108.457 187.843 107.53 187.834 106.449 187.812C104.836 187.759 101.747 187.468 101.816 189.824C101.796 191.241 102.261 192.836 102.577 194.251C102.886 196.44 103.471 198.343 103.784 200.459C103.983 201.968 103.935 203.573 104.115 205.002C104.466 206.325 104.99 207.814 104.985 209.25C104.947 210.76 104.702 212.249 104.945 213.757C105.139 215.484 104.752 217.008 104.473 218.652C104.229 219.836 104.612 220.887 104.849 222.089C105.258 223.609 104.94 225.26 104.878 226.823C105.083 229.517 105.851 231.932 106.247 234.665C106.521 235.892 106.234 237.158 106.363 238.449C106.591 240.24 107.325 241.895 107.639 243.651C107.854 245.222 107.649 246.589 108.02 248.182C108.422 251.132 109.794 254.927 107.828 257.561C106.003 260.047 100.706 263.722 99.28 259.037C99.0573 257.294 98.876 255.478 99.0429 253.716C99.3252 251.801 99.5876 249.879 99.0435 247.989C98.8461 246.886 98.5834 245.783 98.5305 244.626C98.4969 243.813 98.6352 243.006 98.5791 242.203C98.3552 240.853 98.3531 239.587 98.4978 238.264C98.5502 237.361 97.9056 236.716 97.7421 235.729C97.6294 234.703 97.2503 233.659 97.412 232.661C97.4696 232.262 97.5925 231.813 97.5869 231.413C97.5155 230.479 97.004 229.842 96.5855 228.989C96.1744 227.949 96.8512 226.928 96.5335 225.844C95.8199 223.213 95.4205 220.142 95.1862 217.413C95.1677 216.169 94.7545 214.969 94.6174 213.714C94.5657 211.924 94.8755 209.845 95.0218 208.023C95.2518 205.42 94.2725 202.6 94.8478 199.984C94.9996 199.283 95.0313 198.314 95.3285 197.724C95.5625 197.235 95.8899 196.817 95.9145 196.279C95.8187 195.529 95.5665 194.856 95.3633 194.08C94.8478 192.587 95.1295 190.934 94.9971 189.385C94.8382 187.492 93.9751 187.017 92.262 186.598C90.7851 186.229 89.4182 185.472 87.9499 184.87C86.3391 184.184 85.0827 183.848 83.2781 183.429C82.1079 183.243 80.7924 182.893 79.6102 183.107C77.9215 183.428 76.8933 184.926 76.0008 186.247C75.5078 186.941 75.1285 187.683 74.8612 188.494C74.2265 190.837 73.0369 193.014 71.9835 195.176C71.5585 196.216 71.2296 197.261 70.8188 198.289C70.2168 199.828 69.4047 201.266 68.585 202.714C68.0495 203.922 67.4231 205.176 66.7195 206.226C65.6051 207.65 64.9787 209.343 64.6067 211.103C64.2387 212.074 63.6586 212.632 63.1129 213.549C62.5284 214.687 62.6337 216.151 62.7378 217.42C63.0202 220.501 63.3482 223.546 63.9502 226.594C64.1636 227.753 64.5873 228.913 64.9618 230.053C65.4314 231.11 65.9407 232.22 66.1209 233.284C66.3648 234.987 66.7521 236.882 67.3261 238.424C67.6966 239.508 68.1915 240.47 68.3799 241.613C68.8036 243.662 68.8609 245.898 69.378 247.917C69.5316 248.635 69.6874 249.354 69.7558 250.083C69.9058 251.095 69.366 251.859 68.8526 252.688C68.3199 253.417 67.611 254.276 67.134 255.123C66.8575 255.587 66.4605 255.976 66.0399 256.373C65.2371 257.09 64.4771 257.995 63.4815 258.473C62.8447 258.787 62.1028 258.88 61.4251 258.668C60.7695 258.408 60.2826 257.762 59.9297 257.141C59.1177 255.848 58.4771 254.55 57.9872 253.21C57.5065 252.104 57.832 250.733 57.6787 249.449C57.4908 245.628 58.2622 241.675 57.3116 237.916C56.6406 235.216 56.3422 232.512 55.8249 229.8C55.1732 227.291 54.1706 224.877 53.8183 222.335C53.3579 219.158 52.4738 215.853 52.7827 212.65C53.0204 211.209 53.6606 210.206 54.2851 208.712C55.415 205.286 56.6477 202.093 58.2745 198.845C59.5848 195.844 61.3773 192.915 62.6658 189.941C64.4755 186.447 65.739 182.725 67.4884 179.152C67.9168 177.94 68.8428 176.744 68.8609 175.427C68.9084 174.458 68.6401 173.43 68.072 172.553C67.5368 171.741 66.7943 171.06 66.3509 170.29C65.8219 169.421 65.2509 168.594 64.9461 167.614C64.3613 165.944 63.2872 164.535 62.6011 162.901C61.7124 160.74 60.7959 158.589 59.8961 156.44C59.393 155.275 59.1512 154.008 58.7799 152.804C58.3192 151.259 57.4388 150.079 56.8611 148.617C56.179 146.321 55.596 143.851 54.4099 141.693C53.6348 140.128 53.5119 138.251 53.1553 136.665C52.6133 134.319 51.8995 132.183 51.3074 129.755C50.8421 128.18 50.3832 126.553 49.9509 124.954C49.2897 123.001 48.7268 121.263 48.4512 119.278C48.3129 117.353 47.6438 115.866 47.2102 114.006C46.9617 112.63 46.6322 111.136 46.4219 109.691C46.166 108.458 45.7804 107.113 45.4278 105.961C45.2 105.189 44.6413 104.355 43.9654 104.081C42.9871 103.632 41.4425 104.057 40.356 104.376C39.1929 104.639 38.1031 104.993 36.9009 105.435C33.3501 106.788 29.5963 108.429 26.5212 110.664C24.817 111.742 22.8172 112.425 21.0426 113.482C19.2599 114.328 18.2489 115.491 16.5337 116.309C14.0967 117.439 11.5346 118.911 8.69106 118.612C6.26971 118.541 4.2296 117.775 3.35905 115.538C3.03079 114.933 2.72654 114.382 2.21782 113.832C1.60902 113.325 0.976512 112.707 0.706755 111.976C0.507517 111.562 0.567258 111.155 0.481034 110.67C0.319981 110.01 0.0933363 109.56 0.089333 108.788C0.0569992 107.761 -0.101898 106.486 0.102574 105.498C0.25439 104.833 0.449932 104.136 0.836091 103.684C1.00299 103.509 1.12402 103.339 1.24103 103.115C1.6044 102.2 2.3216 101.159 3.08837 100.419C4.99237 98.2112 7.41279 96.083 9.81504 94.4143C11.1854 93.5182 12.2887 92.3394 13.5916 91.3262C14.8545 90.2355 16.1525 89.3748 17.3648 88.2099C18.4223 87.4314 19.4819 86.6665 20.649 86.0703C21.6391 85.3208 22.5918 84.6257 23.6487 83.7339C25.2611 82.0658 26.9781 80.6533 28.7805 79.1903C29.6871 78.3062 30.6408 77.4021 31.6866 76.7384C33.1524 75.5907 34.1449 74.068 35.4037 72.6641C36.5961 71.4104 37.5907 69.9148 38.9238 68.9417C43.2612 65.7871 40.7025 63.4988 39.6816 59.5338C39.1517 57.8607 39.2471 56.1603 39.7996 54.498C40.166 53.2755 40.5346 52.4336 41.6636 52.1019C45.0635 51.2138 44.6041 55.6343 45.107 57.7058C45.3604 58.2915 45.8088 58.7648 46.0804 59.3043C46.1638 59.7342 45.98 60.2916 45.972 60.7738C45.9766 60.95 46.0757 60.9765 46.267 60.8524C47.6173 59.7395 48.082 57.3024 48.7074 55.7082C49.4591 53.9166 50.1692 52.2297 51.4964 50.7168C52.322 49.7532 54.8391 48.6431 55.6108 49.9805ZM50.4125 76.5426C49.2066 75.2773 43.7597 74.8856 45.3401 77.7901C45.6397 78.3936 46.2587 78.8143 46.675 79.3335C47.4202 80.1828 47.5554 81.4657 46.8324 82.4295C46.2774 83.4469 45.1202 83.5479 44.1822 83.9421C43.5149 84.2888 42.9009 84.4801 42.2437 84.5832C41.8659 84.6966 41.1274 84.7908 41.3572 85.1077C41.5271 85.2835 42.0008 85.6515 42.6597 85.8412C45.5091 86.482 48.1676 87.0483 49.8837 84.1284C50.2613 83.3367 50.7903 82.6611 50.9123 81.7745C50.9726 81.3853 50.992 80.9779 51.0407 80.5859C51.1469 79.8643 51.1756 79.2368 51.1491 78.5023C51.1598 77.7617 51.0373 77.0513 50.4125 76.5426ZM85.2964 102.89C84.0341 102.432 83.0995 103.05 83.7077 104.386C84.7575 105.943 86.0394 107.918 88.0586 108.166C89.0954 108.202 90.2093 107.719 90.3121 106.534C90.4184 105.02 89.0132 104.23 87.6512 103.844C86.7603 103.575 86.0296 103.119 85.2964 102.89ZM64.5011 107.416C64.9661 107.822 65.1484 109.123 65.8354 109.531C66.0876 109.712 66.4507 109.968 66.7155 109.726C66.9997 109.435 66.7971 108.377 66.273 107.651C65.901 107.11 65.347 106.7 64.7197 106.516C64.0056 106.3 63.2752 106.618 63.3442 106.811C63.5708 107.092 64.2064 107.178 64.5011 107.416ZM72.1076 123.68C71.4698 123.561 71.0279 124.746 70.8428 125.23C70.485 126.127 71.4692 126.192 72.0509 126.494C72.8186 126.768 73.5829 127.488 74.047 127.173C74.5776 126.456 72.8574 123.824 72.1076 123.68ZM57.1512 125.659C56.8512 125.414 56.5741 125.705 56.4327 125.991C55.9785 126.829 56.1085 127.89 56.166 128.844C56.2012 129.281 56.2323 129.726 56.2677 130.156C56.2929 130.459 56.3733 130.917 56.6163 131.073C57.2716 131.283 57.6916 129.386 57.6922 128.845C57.7372 127.889 57.8896 126.276 57.1512 125.659ZM79.0322 145.894C79.5773 146.064 80.4737 146.291 80.6628 145.47C80.8395 144.873 80.7145 143.942 80.0324 143.74C79.625 143.634 79.4538 143.939 79.2533 144.261C79.0544 144.555 78.89 144.895 78.703 145.23C78.4394 145.611 78.6119 145.734 79.0322 145.894ZM85.5618 146.75C85.2856 146.483 85.054 146.234 84.7378 146.106C84.2648 145.902 83.5756 146.288 83.7043 146.843C83.8001 147.264 84.1804 147.54 84.3547 147.936C84.6482 148.5 84.6534 149.116 85.0164 149.135C85.5908 149.055 86.0973 148.404 86.1789 147.849C86.2032 147.427 85.8987 147.104 85.5618 146.75ZM66.3346 150.328C65.222 150.57 66.7451 153.205 66.7035 154.231C66.7247 155.213 66.7608 156.341 66.5403 157.185C66.422 157.603 66.2219 158.011 66.0984 158.416C65.6777 160.079 67.8616 160.378 68.8951 161.116C69.6157 161.599 70.2106 162.379 71.0039 162.715C71.3937 162.895 71.6355 163.005 71.8717 162.888C72.2584 162.459 72.0764 161.744 71.8584 161.232C71.6961 160.84 71.5105 160.43 71.443 160.004C71.3115 158.808 71.6145 157.458 71.1462 156.388C71.0504 155.735 70.3929 155.206 70.129 154.593C69.8288 153.66 69.733 152.374 69.0663 151.637C68.4911 150.817 67.304 150.254 66.3346 150.328ZM89.6895 151.342C89.3643 151.201 89.0191 151.589 88.7746 151.863C88.3844 152.306 88.0435 152.976 88.1922 153.397C88.3884 154.016 89.1031 154.421 89.509 155.02C89.8037 155.371 89.8995 155.893 90.2527 156.18C90.7984 156.518 91.4518 155.884 91.5534 155.299C91.7262 154.387 90.9345 153.504 90.5575 152.696C90.3069 152.222 89.9229 151.456 89.6895 151.342ZM185.514 153.285C185.049 152.984 184.336 153.82 183.787 153.803C183.378 153.876 182.955 153.771 182.858 153.945C182.805 154.045 182.851 154.204 182.875 154.279C183.016 154.81 183.577 155.281 184.161 155.122C184.827 154.923 185.839 154.883 185.817 153.994C185.807 153.759 185.69 153.442 185.514 153.285ZM142.123 160.617C141.046 159.643 137.392 160.82 136.275 161.407C135.686 161.775 135.084 162.136 134.484 162.496C133.991 162.748 133.441 163.276 133.54 163.543C133.566 163.618 133.615 163.695 133.667 163.728C134.059 164.004 134.611 164.006 135.104 163.971C136.536 163.894 137.792 162.717 138.999 162.254C139.673 161.851 142.643 161.737 142.123 160.617ZM86.9753 161.151C86.7656 161.108 86.7255 161.307 86.6307 161.699C86.3388 163.317 87.2287 165.041 88.3145 166.242C88.9599 166.97 89.7203 167.567 90.693 167.629C91.1842 167.664 91.882 167.6 92.0843 167.12C92.1782 166.825 91.8355 166.4 91.6295 166.112C91.2095 165.551 90.7226 165.138 90.2074 164.594C89.1783 163.665 88.1855 161.679 86.9753 161.151ZM87.1372 169.649C86.259 169.634 86.5084 171.159 86.6464 171.815C86.7745 172.326 87.5591 172.066 87.7879 171.648C87.9179 171.337 87.7734 171.008 87.6946 170.689C87.6032 170.356 87.4073 169.761 87.1372 169.649ZM168.02 175.289C167.558 174.477 166.32 174.415 165.456 174.618C163.421 174.883 161.747 175.597 159.805 176.078C159.205 176.316 158.441 176.417 157.933 176.8C157.463 177.264 157.823 177.804 158.453 177.878C159.604 177.971 160.926 177.879 162.011 177.577C162.694 177.431 163.368 177.583 164.076 177.412C164.421 177.301 164.758 177.172 165.103 177.065C165.563 176.913 165.89 176.393 166.341 176.231C166.827 176.098 167.562 176.377 167.966 176.13C168.26 175.974 168.231 175.678 168.02 175.289ZM169.684 185.256C169.314 184.972 168.706 185.167 168.499 185.563C168.364 185.818 168.513 186.3 168.687 186.702C169.033 187.44 168.893 188.226 168.914 189.019C168.927 189.664 169.445 190.356 170.148 190.268C170.887 190.171 170.768 189.371 170.685 188.762C170.61 188.039 170.178 187.314 170.041 186.646C169.917 186.115 170.031 185.569 169.684 185.256ZM170.223 190.732C169.893 190.481 169.38 190.756 169.212 191.083C169.028 191.648 168.817 192.258 169.137 192.832C169.547 193.405 170.962 193.638 171.428 193.077C171.519 192.882 171.39 192.668 171.295 192.484C170.965 191.959 170.659 191.208 170.223 190.732ZM191.659 190.85C191.276 190.704 190.901 191.082 190.612 191.376C190.194 191.816 190.034 192.509 189.775 192.979C189.343 193.709 189.015 194.107 188.87 195.136C188.739 196.14 189.235 197.118 189.26 198.155C189.429 200.334 189.356 202.844 190.271 204.9C190.563 205.492 190.915 206.051 191.56 206.186C192.25 206.319 193.244 205.911 193.685 205.341C193.975 204.961 194.179 204.538 194.507 204.183C194.878 203.771 195.51 203.112 195.763 202.786C195.856 202.661 195.963 202.502 195.915 202.358C195.487 201.709 194.389 201.348 194.044 200.501C193.412 198.581 192.955 196.418 192.457 194.413C192.151 193.345 192.705 191.508 191.659 190.85ZM170.468 196.83C170.584 195.879 170.318 194.181 169.328 194.081C169.168 194.062 168.996 194.1 168.895 194.228C168.615 194.611 169.073 195.369 168.92 195.853C168.832 196.164 168.869 196.589 168.679 197.152C168.533 197.6 168.39 198.033 168.348 198.516C168.262 199.262 168.436 200.216 168.426 201.039C168.294 202.948 168.238 204.694 168.427 206.705C168.558 208.106 168.491 209.968 169.54 210.977C170.169 211.565 170.893 211.091 171.324 210.548C171.767 209.986 171.337 209.192 171.082 208.8C170.927 208.571 170.776 208.261 171.084 208.087C171.379 207.895 171.858 207.635 172.11 207.376C172.698 206.724 171.598 206.264 171.174 205.885C169.828 204.947 169.896 203.382 169.954 201.908C169.943 201.59 169.9 201.266 169.876 200.944C169.763 199.57 170.381 198.193 170.468 196.83ZM192.671 206.705C191.156 206.128 191.546 207.578 191.782 208.405C192.252 210.287 192.759 212.223 193.794 213.938C194.006 214.274 194.28 214.723 194.554 214.873C194.962 215.156 194.782 213.658 194.851 212.914C194.94 211.808 195.667 210.745 195.539 209.617C195.352 208.358 193.886 207.229 192.671 206.705ZM171.202 224.419C171.513 223.48 171.185 222.237 170.078 222.487C169.425 222.592 168.698 223.334 168.273 223.958C167.404 225.278 166.67 226.789 165.988 228.169C165.534 229.192 165.352 230.36 164.472 231.128C163.849 231.866 163.674 232.685 163.659 233.641C163.63 235.128 163.108 236.764 162.173 237.971C161.515 238.91 160.974 240.01 160.861 241.134C160.815 241.728 160.54 242.261 160.219 242.753C159.892 243.244 159.881 243.636 159.844 244.164C159.648 245.05 159.658 245.674 159.315 246.754C158.944 247.786 158.339 249.572 159.208 250.392C160.122 250.858 161.372 249.155 161.939 248.498C162.998 247.154 163.579 245.443 164.193 243.794C164.705 242.409 165.391 241.489 166.109 240.261C166.8 239.237 166.781 237.676 167.206 236.494C167.823 234.654 168.755 232.795 169.055 230.912C169.169 229.778 169.64 228.755 169.986 227.63C170.265 226.594 170.943 225.552 171.202 224.419ZM64.7786 250.644C66.1495 249.954 65.2288 246.081 64.098 245.519C62.9759 245.052 63.4566 246.811 63.4655 247.392C63.5594 248.354 63.1699 249.413 63.7226 250.253C63.94 250.588 64.3958 250.796 64.7786 250.644Z" fill="rgb(255,255,255)" fill-rule="nonzero" />
			</g>
			<g style="mix-blend-mode:normal">
				<path id="Path 5428" d="M35.9655 259.708C36.7868 259.55 37.6355 259.878 38.4891 259.895C39.6368 259.822 41.0004 259.898 42.0052 260.382C43.6339 261.214 42.6922 263.377 41.5282 264.215C40.9844 264.685 40.2909 264.758 39.6032 264.933C38.9002 265.078 38.204 265.096 37.5194 264.899C35.8531 264.523 34.2118 265.01 32.5046 264.691C32.1403 264.652 31.8604 264.649 31.5062 264.672C29.3941 264.837 27.3666 265.973 25.2338 266.134C24.2499 266.217 23.2537 266.286 22.3225 266.233C21.8945 266.198 21.4615 266.156 21.0378 266.274C19.6831 266.616 18.3045 266.908 16.9243 267.28C16.1932 267.422 15.4366 267.359 14.7499 267.5C14.3893 267.568 14.0709 267.673 13.7195 267.816C12.8262 268.203 11.8651 268.218 10.9216 268.513C9.8906 268.745 8.87748 268.39 7.87205 268.456C7.40121 268.456 6.95992 268.245 6.52727 268.038C6.30925 267.932 6.09092 267.8 5.97451 267.585C5.48858 266.633 6.53497 265.878 7.41506 265.641C8.50795 265.222 10.0707 265.529 11.0943 265.186C11.6172 265.084 11.9569 265.006 12.4243 264.642C12.6393 264.474 12.9294 264.274 13.1696 264.176C14.2809 263.844 15.4172 263.41 16.4685 262.914C17.0339 262.696 17.6689 262.411 18.0902 262C19.0543 261.069 20.2183 261.432 21.5052 261.443C22.7995 261.352 24.1015 261.159 25.372 261.166C26.4822 261.073 27.3407 261.417 28.3797 261.22C29.3463 261.1 30.1297 260.577 30.9898 260.249C31.529 260.058 32.1449 260.168 32.7312 260.121C33.793 260.005 34.9191 259.911 35.9655 259.708Z" fill="rgb(255,255,255)" fill-rule="nonzero" />
			</g>
			<g style="mix-blend-mode:normal">
				<path id="Path 5429" d="M243.506 268.021C243.585 268.779 243.661 269.736 243.433 270.328C243.355 270.54 242.676 270.806 242.283 270.852C240.05 271.013 237.242 270.902 235.112 271.673C234.243 271.871 233.638 272.246 232.915 272.815C232.135 273.398 230.983 273.583 229.938 273.642C226.703 273.604 223.356 274.286 220.173 274.348C217.218 274.284 216.951 271.799 219.405 270.479C220.392 269.876 221.658 270.659 222.543 269.956C223.071 269.595 223.447 268.855 224.198 268.771C224.363 268.748 224.449 268.748 224.595 268.738C225.29 268.737 225.891 268.378 226.565 268.253C227.509 268.126 228.453 267.742 229.554 267.761C231.105 267.855 232.727 267.499 234.197 267.238C234.898 267.174 235.577 267.426 236.223 267.45C236.682 267.463 237.313 267.242 237.807 267.089C238.616 266.817 239.495 266.732 240.313 266.549C241.711 266.159 243.512 266.182 243.506 268.021Z" fill="rgb(255,255,255)" fill-rule="nonzero" />
			</g>
			<g style="mix-blend-mode:normal">
				<path id="Path 5430" d="M119.042 263.119C119.51 263.084 119.971 263.102 120.421 263.245C121.29 263.468 122.224 263.512 123.14 263.474C123.844 263.436 124.565 263.391 125.255 263.371C125.706 263.397 126.137 263.474 126.596 263.412C127.648 263.265 128.566 263.447 129.466 263.492C130.248 263.426 131.306 263.384 132.141 263.169C133.024 262.97 133.931 263.119 134.758 263.098C135.829 263.075 136.958 262.805 137.882 263.523C139.173 264.345 142.009 268.198 138.873 268.289C137.082 268.107 135.155 267.676 133.313 267.843C131.758 267.992 130.458 267.817 128.867 267.998C127.004 268.229 125.215 268.458 123.263 268.245C121.82 268.064 120.39 267.764 119.11 267.653C118.043 267.594 116.964 268.147 115.9 267.869C114.245 267.528 114.603 265.761 115.599 264.766C116.526 263.764 117.745 263.202 119.042 263.119Z" fill="rgb(255,255,255)" fill-rule="nonzero" />
			</g>
			<g style="mix-blend-mode:normal">
				<path id="Path 5431" d="M80.2373 265.193C81.3329 265.917 81.611 267.782 81.1863 268.948C81.0228 269.319 80.7743 269.385 80.3851 269.482C79.7547 269.703 78.9886 269.721 78.4004 269.908C77.9918 270.056 77.601 270.292 77.1877 270.421C76.1315 270.795 75.0343 270.461 73.9392 270.464C73.2017 270.604 72.5119 270.849 71.7661 270.883C71.3116 270.952 70.8324 271.119 70.3517 271.033C69.8787 270.953 69.4208 270.77 68.934 270.776C67.5079 270.784 65.8712 271.318 64.3989 271.148C62.708 270.856 61.9714 268.657 63.198 267.406C63.9441 266.612 65.089 266.639 66.0674 266.545C67.8977 266.526 69.6108 265.678 71.3245 265.214C72.2881 264.995 73.3061 265.081 74.2811 265.144C75.1021 265.202 75.8368 265.2 76.5956 264.925C77.4442 264.678 78.2172 264.714 79.1201 264.759C79.5096 264.787 79.9155 264.97 80.2373 265.193Z" fill="rgb(255,255,255)" fill-rule="nonzero" />
			</g>
			<g style="mix-blend-mode:normal">
				<path id="Path 5432" d="M188.945 264.656C189.673 264.551 190.242 264.623 190.868 264.755C191.854 264.89 192.685 265.1 193.46 265.757C194.91 266.79 194.865 268.849 193.13 269.627C192.25 270.099 191.341 270.24 190.401 270.114C189.791 270.045 188.972 269.819 188.476 269.845C187.829 269.841 187.532 270.405 186.633 270.47C185.823 270.517 184.972 270.376 184.179 270.313C183.432 270.214 182.758 270.07 182.033 270.127C181.148 270.238 180.242 270.252 179.412 270.068C177.474 269.854 176.588 267.773 178.39 266.605C179.042 266.123 179.801 265.91 180.592 265.918C181.46 265.857 182.13 265.737 182.993 265.667C184.853 265.234 186.951 264.803 188.945 264.656Z" fill="rgb(255,255,255)" fill-rule="nonzero" />
			</g>
			<g style="mix-blend-mode:normal">
				<path id="Path 5433" d="M73.0187 68.6784C74.7268 70.5509 71.2926 71.6675 70.068 72.5076C68.7423 73.2938 67.3889 74.0267 65.9462 74.6607C64.8933 75.2341 63.4211 75.615 62.945 74.1298C62.0538 71.6666 63.785 70.2168 65.9955 69.4128C68.2425 68.7033 70.8735 67.3327 73.0187 68.6784Z" fill="rgb(255,255,255)" fill-rule="nonzero" />
			</g>
			<g style="mix-blend-mode:normal">
				<path id="Path 5434" d="M81.6229 86.4408C82.5741 86.5255 83.477 86.6129 84.3288 87.0222C85.2079 87.4028 86.044 87.7502 86.5161 88.5717C86.9931 89.2437 86.8989 90.1672 86.1681 90.5198C85.0977 91.1621 83.5817 90.8912 82.3992 90.8711C81.7048 90.8853 81.1478 91.1902 80.4875 91.2154C79.7587 91.3694 78.4271 91.1203 77.5846 90.8367C76.909 90.6734 76.1594 90.6436 75.7535 90.2023C75.4619 89.8922 75.2488 89.3943 75.2996 88.9791C75.3985 88.3599 76.2786 87.8786 76.7103 87.4034C78.6075 85.4588 79.2487 86.0476 81.6229 86.4408Z" fill="rgb(255,255,255)" fill-rule="nonzero" />
			</g>
			<g style="mix-blend-mode:normal">
				<path id="Path 5435" d="M78.1098 79.6177C78.7525 79.6435 79.4312 79.7609 80.2149 79.8803C80.8345 79.9943 81.4667 80.1396 81.8892 80.6773C82.3847 81.2833 82.5728 82.1459 82.5571 82.9237C82.6052 84.2091 81.2712 84.6781 80.1389 84.8108C79.086 84.966 77.923 84.6676 76.8892 84.65C76.0174 84.63 75.3064 84.6642 74.656 84.6196C72.5749 84.6451 72.0101 82.6925 73.544 81.4869C73.948 81.2005 74.3092 80.8842 74.725 80.6376C75.3929 80.2465 75.9081 80.2191 76.5332 80.0759C76.6579 80.0359 76.7106 80.0103 76.811 79.9607C77.2239 79.7227 77.6279 79.6608 78.1098 79.6177Z" fill="rgb(255,255,255)" fill-rule="nonzero" />
			</g>
			<g style="mix-blend-mode:normal">
				<path id="Path 5436" d="M77.0275 77.5674C76.7663 79.0631 75.073 79.452 73.767 79.67C72.13 79.7741 70.4523 80.2579 68.7993 79.9567C66.8592 79.7137 67.4219 78.0324 68.5834 76.9903C69.6806 75.8478 71.4636 75.5036 72.9808 75.1463C73.7528 74.9468 74.5984 74.7553 75.2799 74.9468C76.3943 75.231 77.2479 76.3726 77.0275 77.5674Z" fill="rgb(255,255,255)" fill-rule="nonzero" />
			</g>
		</g>
	</g>
	<g id="Group 488">
		<g id="Group 484" mask="url(#mask_5)">
			<g style="mix-blend-mode:normal">
				<path id="Path 5437" d="M265.992 101.123C266.229 100.921 266.537 100.803 266.793 100.634C267.103 100.439 267.326 100.086 267.514 100.057C267.732 100.022 267.748 100.193 267.703 100.488C267.679 100.652 267.656 100.818 267.669 100.983C267.679 101.18 267.766 101.394 267.708 101.55C267.543 101.793 267.258 102.001 267.053 102.202C266.896 102.335 266.819 102.429 266.736 102.328C266.575 102.079 266.401 101.829 266.125 101.698C265.795 101.533 265.705 101.363 265.992 101.123Z" fill="rgb(255,255,255)" fill-rule="nonzero" />
			</g>
			<g style="mix-blend-mode:normal">
				<path id="Path 5438" d="M265.853 101.083C265.954 101.257 265.945 101.49 266.201 101.514C266.988 101.593 266.829 101.742 266.375 102.217C266.208 102.393 266.283 102.731 266.14 102.87C265.804 102.915 265.186 101.489 265.277 101.145C265.338 100.949 265.724 100.932 265.853 101.083Z" fill="rgb(255,255,255)" fill-rule="nonzero" />
			</g>
			<g style="mix-blend-mode:normal">
				<path id="Path 5439" d="M266.735 100.753C266.739 100.652 266.745 100.483 266.779 100.384C267.352 99.1104 264.859 99.2055 266.63 97.6246C266.674 97.5709 266.705 97.5154 266.734 97.4549C266.807 97.2472 267.032 96.9975 266.841 96.6729C266.691 96.3964 266.384 96.1187 266.211 95.869C265.861 95.2629 265.752 94.5147 265.852 93.7738C265.997 92.3408 264.583 93.6106 264.536 94.4305C264.383 95.3112 264.418 96.3079 264.174 97.1208C264.079 97.4796 263.93 97.8573 263.878 98.2177C263.71 98.9729 264.152 99.468 263.763 100.13C263.337 100.863 263.196 101.777 262.91 102.637C262.765 103.077 262.433 103.398 262.352 103.78C262.25 104.485 262.572 105.037 262.426 105.845C262.321 106.466 262.141 107.069 262.067 107.697C261.969 108.947 261.212 109.902 261.042 111.113C260.933 111.607 260.689 111.997 260.71 112.412C260.712 112.762 260.745 113.122 260.677 113.463C260.601 113.809 260.436 113.983 260.335 114.227C260.217 114.518 260.255 114.77 260.254 115.064C260.22 115.489 259.88 115.812 259.653 116.154C259.427 116.395 259.36 116.812 259.259 117.107C258.805 117.86 258.872 118.81 258.838 119.685C258.819 120.745 258.281 121.591 257.927 122.555C257.406 123.175 256.779 123.735 256.89 124.611C256.873 125.151 256.665 125.685 256.958 126.187C257.033 126.424 257.306 126.716 257.028 126.894C256.976 126.915 256.854 126.965 256.799 126.98C256.03 127.039 256.285 127.922 256.287 128.509C256.282 129.068 256.231 129.618 256.375 130.167C256.631 131.214 256.679 132.293 256.358 133.313C256.294 133.717 256.35 134.057 256.233 134.438C256.111 134.875 255.89 135.208 255.695 135.747C255.236 136.707 255.241 137.957 254.42 138.715C253.3 139.758 251.041 139.37 250.9 137.686C250.748 136.826 251.061 135.96 251.212 135.116C251.288 134.391 251.347 133.752 251.385 132.965C251.46 131.772 251.422 130.373 251.473 129.193C251.491 128.497 251.544 128.011 251.669 127.466C251.763 127.063 251.741 126.586 251.738 126.125C251.766 125.442 251.82 124.746 251.862 124.052C251.904 123.199 252.309 122.422 252.305 121.597C252.324 121.061 252.186 120.454 252.246 119.894C252.279 119.481 252.312 119.051 252.281 118.641C252.139 117.727 252.392 117.122 252.524 116.044C252.564 115.503 252.478 114.935 252.566 114.484C252.658 113.961 252.935 113.627 253.182 113.301C253.266 113.203 253.318 113.109 253.316 112.988C253.32 112.767 252.987 112.389 253.033 111.811C253.056 111.199 253.461 110.399 253.688 109.749C253.855 109.107 254.36 108.35 254.559 107.961C255.065 107.151 254.631 106.502 254.571 105.611C254.395 104.312 255.159 103.21 255.506 102C255.93 101.013 255.225 100.126 255.475 99.1471C255.564 98.8137 255.87 98.5136 256.033 98.278C256.334 97.8883 256.14 97.4089 256.196 96.9386C256.256 95.6963 256.898 94.5305 257.575 93.4703C258.141 92.731 257.86 91.791 257.64 90.9683C257.531 90.4187 257.646 89.8884 257.699 89.3502C257.754 88.8132 258.145 88.1338 258.085 87.5618C257.973 86.4667 256.848 86.4015 255.98 86.5658C255.281 86.7427 254.758 87.2404 253.991 87.2415C253.349 87.3855 252.448 87.178 251.77 87.3606C250.792 87.8596 250.268 87.2763 249.289 87.4245C248.811 87.5201 248.377 87.8322 247.927 88.0302C246.788 88.5536 245.489 88.2991 244.309 88.56C243.568 88.6175 243.049 88.8514 242.413 88.8554C241.993 88.8415 241.553 88.7544 241.06 88.6281C240.069 88.3811 238.65 88.3634 237.769 88.583C236.507 88.9037 235.343 89.4252 234.181 90.0353C233.569 90.3097 232.959 90.6902 232.291 90.7918C231.601 90.8496 231.072 90.8772 230.45 91.0487C230.005 91.1379 229.546 91.28 229.083 91.3869C228.322 91.6761 227.395 92.1615 226.494 92.2575C224.679 92.5829 222.919 92.1675 221.123 92.2358C220.258 92.2976 219.209 92.2788 218.548 92.8366C217.932 93.3938 217.99 94.37 217.925 95.1573C217.769 96.6297 218.085 97.9836 217.965 99.4027C217.908 100.169 217.789 100.978 217.701 101.719C217.683 102.213 217.947 102.598 218.147 103.012C218.219 103.136 218.363 103.301 218.222 103.391C218.112 103.482 217.982 103.537 217.871 103.642C217.65 103.771 217.706 104.299 217.818 104.587C217.961 105.081 218.04 105.556 218.298 106.028C218.426 106.29 218.527 106.526 218.548 106.721C218.607 107.817 217.85 108.95 218.553 109.965C218.712 110.242 218.789 110.577 218.84 110.885C218.943 111.503 219.171 111.949 219.29 112.595C219.445 113.446 219.053 114.579 219.193 115.463C219.56 116.826 219.661 118.352 219.837 119.693C220.041 120.275 219.972 120.893 220.041 121.486C220.085 121.821 219.991 122.154 220.086 122.488C220.54 123.707 220.091 125.088 220.075 126.325C220.105 126.638 220.217 126.929 220.252 127.239C220.267 127.481 220.392 127.758 220.278 127.926C220.077 128.148 219.89 128.354 219.938 128.707C219.921 129.331 220.546 129.716 220.733 130.283C221.071 130.841 220.989 131.57 221.237 132.145C221.822 133.317 222.247 134.971 221.258 136.183C220.488 137.159 218.899 138.334 217.788 137.414C217.408 136.973 217.428 136.315 217.221 135.789C216.967 134.983 216.549 134.465 216.308 133.594C216.086 132.834 215.708 132.062 215.523 131.299C215.364 130.583 215.485 129.751 215.422 129.057C215.413 128.481 215.021 128.036 214.895 127.494C214.591 126.585 214.444 125.343 214.316 124.418C214.297 123.686 214.33 122.863 214.438 122.162C214.414 121.579 214.512 121.06 214.105 120.666C213.845 120.245 213.685 119.733 213.539 119.227C213.27 117.355 213.005 115.616 212.652 113.727C212.529 113.021 212.307 112.307 212.49 111.599C212.575 111.281 212.649 110.865 212.744 110.5C212.82 110.025 213.038 109.657 212.965 109.221C212.821 108.795 212.715 108.395 212.583 107.977C212.561 107.828 212.449 107.733 212.32 107.672C212.162 107.597 211.906 107.402 211.918 107.252C211.97 106.977 212.209 106.733 212.298 106.463C212.508 106.079 212.291 105.728 212.199 105.348C212.046 104.713 212.139 103.984 212.111 103.28C212.137 102.7 212.058 102.06 212.2 101.481C212.444 100.612 212.775 99.8742 213.003 99.0391C213.132 98.4098 213.128 97.7501 213.119 97.1086C212.972 96.3992 212.849 95.8445 212.583 95.0516C212.232 94.3255 212.18 93.3326 211.919 92.6287C211.79 92.3138 211.723 92.1533 211.572 92.1145C211.013 92.0359 210.391 92.2594 209.785 92.2314C208.764 92.2383 207.867 92.3956 206.814 92.4224C205.981 92.4638 205.064 92.3665 204.217 92.4425C203.183 92.5462 202.297 92.433 201.304 92.4768C200.498 92.5074 199.316 92.9897 198.555 93.2723C198.178 93.418 197.828 93.6215 197.438 93.7019C196.821 93.7922 196.197 93.673 195.574 93.7656C194.388 93.8082 193.742 94.769 193.637 95.8998C193.561 96.3509 193.363 96.7739 193.288 97.2166C193.133 97.7898 194.23 98.216 194.084 98.8927C193.939 99.5239 193.263 99.6743 193.48 100.286C193.54 100.569 193.637 100.877 193.598 101.169C193.564 101.631 193.146 102.142 193.126 102.568C193.12 102.749 193.25 103.019 193.332 103.348C193.594 104.07 192.919 104.836 192.7 105.501C192.612 105.782 192.64 106.106 192.759 106.382C192.841 106.62 192.955 106.901 192.807 107.135C192.567 107.5 192.079 107.597 191.927 107.958C191.806 108.438 191.949 108.964 191.836 109.486C191.692 110.381 191.52 111.236 191.264 112.091C191.15 112.5 190.985 112.921 190.877 113.344C190.824 113.628 190.651 114.103 190.482 114.157C190.329 114.232 190.16 114.173 189.973 114.331C189.926 114.374 189.887 114.437 189.851 114.519C189.623 115.096 189.557 115.901 189.334 116.45C189.112 117.537 187.847 119.155 188.76 120.17C188.907 120.366 189.045 120.539 189.009 120.789C188.95 121.111 188.61 121.388 188.403 121.637C188.107 121.976 188.027 122.269 187.883 122.654C187.707 123.127 187.813 123.676 187.6 124.137C187.455 124.457 187.26 124.749 187.08 125.013C186.894 125.272 186.659 125.551 186.669 125.874C186.675 126.03 186.712 126.19 186.74 126.351C186.845 126.866 186.84 127.516 186.642 128.187C186.545 128.517 186.431 128.854 186.208 129.105C185.844 129.482 185.41 129.657 185.111 130.14C184.8 130.552 184.898 131.126 184.818 131.607C184.636 132.748 183.586 133.538 183.159 134.544C182.964 134.996 182.939 135.428 183.007 135.906C183.075 136.456 182.966 137.098 182.641 137.681C182.42 138.091 182.07 138.467 181.924 138.902C181.694 139.331 182.126 139.863 182.054 140.283C181.803 141.155 180.683 140.526 180.211 141.239C179.913 141.524 179.79 141.7 179.522 141.891C179.183 142.023 178.897 142.024 178.458 142.059C177.34 142.17 176.74 140.844 176.611 139.899C176.45 139.05 177.084 138.169 177.062 137.339C177.16 136.715 177.024 136.058 177.187 135.44C177.465 134.644 178.233 134.075 177.825 133.244C177.713 132.958 178.052 132.698 178.178 132.443C178.733 131.303 179.799 130.269 180.044 128.972C180.163 128.473 180.172 127.83 180.412 127.32C180.722 126.733 180.946 126.056 181.352 125.568C181.694 125.168 182.665 124.429 182.32 123.863C181.186 122.895 181.759 122.755 182.237 121.612C182.614 120.772 182.531 119.796 182.653 118.909C182.822 118.041 183.079 117.179 183.444 116.392C183.681 115.709 183.697 114.902 183.843 114.172C184.21 113.023 184.384 111.751 184.301 110.522C184.278 109.74 184.355 109.288 184.304 108.641C184.494 107.579 184.547 106.328 184.555 105.248C184.6 104.935 184.679 104.621 184.58 104.31C184.306 103.537 183.817 102.65 183.687 101.843C183.6 101.225 183.544 100.95 182.956 100.686C182.396 100.197 181.857 99.3027 181.602 98.6049C181.367 98.0966 181.386 97.5454 181.027 97.0776C180.541 96.3393 180.116 95.6096 179.805 94.8183C179.542 94.3949 179.094 94.2749 178.74 93.9516C177.974 93.2312 177.508 92.0262 177.123 91.0489C176.823 90.1984 176.67 89.2791 176.246 88.4688C175.815 87.5458 175.855 86.6961 175.193 86.0244C175.069 85.835 175.164 85.6676 175.242 85.3793C175.399 84.9189 175.299 84.594 174.94 84.3289C174.418 83.9261 174.31 83.2299 174.378 82.5804C174.414 81.8452 174.348 81.1681 174.221 80.5396C174.114 79.8652 173.914 79.2743 173.919 78.5865C173.871 77.9625 173.925 77.3008 173.762 76.6963C173.573 76.0118 173.194 75.5339 172.756 75.032C172.453 74.5417 171.997 74.1018 171.846 73.498C171.715 72.4271 172.266 71.0702 171.917 70.0472C171.696 69.1907 171.222 68.4448 171.014 67.6232C170.84 66.9448 170.969 66.0508 170.834 65.4804C170.559 64.5073 169.167 65.633 168.781 66.1021C168.214 66.7269 167.907 67.6365 168.05 68.4729C168.626 70.105 168.081 71.0959 167.44 72.5747C167.188 73.4552 166.865 74.1981 166.63 74.9805C166.455 75.384 166.159 75.7136 166.187 76.152C166.194 76.4802 166.213 76.7111 166.299 76.9568C166.464 77.7354 165.733 78.4132 165.758 79.2091C165.723 79.6146 165.87 79.9569 165.984 80.3226C166.049 80.5799 166.185 80.8703 166.057 81.19C165.994 81.3618 165.894 81.5249 165.814 81.6885C165.529 82.221 165.635 82.9699 165.528 83.5186C165.563 84.3784 164.683 84.8253 164.536 85.6265C164.362 86.6434 164.186 87.7259 164.247 88.7778C164.287 89.7169 164.054 90.505 164.076 91.3926C164.028 92.0219 164.468 92.5772 164.499 93.1993C164.508 94.1656 163.866 96.0054 162.673 95.7973C161.508 95.2038 161.858 93.577 161.588 92.4572C161.433 91.0685 161.013 89.583 161.203 88.2025C161.469 85.9827 161.733 83.7728 161.755 81.501C161.892 80.8369 162.052 80.1566 162.135 79.549C162.197 79.2787 162.248 79.1216 162.242 78.8698C162.34 78.3136 162.433 77.632 162.665 77.0646C163.029 76.4913 163.473 76.0426 163.619 75.4061C163.933 74.7074 163.943 73.6966 164.344 73.0062C164.569 72.6061 164.934 72.417 165.147 72.0795C165.267 71.9043 165.215 71.7145 165.189 71.5015C165.136 71.1868 165.056 70.7442 165.082 70.268C165.111 68.9653 165.351 67.6485 165.631 66.3825C165.765 65.6425 165.586 65.5592 165.3 66.1598C164.889 67.1012 164.77 68.1599 164.306 69.1106C163.806 70.1041 163.424 70.8804 163.335 71.8868C163.002 72.9539 162.401 74.0393 162.136 75.1689C161.631 76.6759 161.161 78.0387 160.8 79.5701C160.688 80.3722 160.938 81.2341 160.803 82.0247C160.716 82.5118 160.417 82.929 160.341 83.3868C160.236 84.3894 160.338 85.373 160.156 86.3589C160.219 87.5224 160.324 89.0931 160.249 90.3013C160.172 90.9905 160.38 91.5097 160.166 92.159C159.547 93.162 160.083 94.478 159.477 95.5427C157.76 98.5695 155.335 97.8866 154.901 94.5476C154.822 94.2224 154.986 93.9735 154.944 93.5115C154.933 93.2318 154.948 92.9492 154.978 92.6664C155.073 91.9836 154.878 91.3068 154.855 90.7214C154.842 89.3677 154.824 87.9111 155.286 86.6257C155.562 86.0282 156.16 85.7332 156.357 85.1305C156.504 84.5914 156.161 84.0092 156.201 83.4501C156.169 82.539 156.695 81.5544 156.843 80.6263C156.914 79.9816 156.76 79.0273 156.804 78.503C156.848 77.8569 157.412 77.5036 157.704 76.9285C157.95 76.4979 158.18 76.0187 158.426 75.5839C158.823 74.815 158.912 74.0035 159.1 73.1804C159.275 72.3381 159.767 71.7324 159.903 70.9344C159.924 70.7338 159.888 70.5092 159.878 70.3049C159.857 69.9441 159.96 69.7342 159.974 69.4356C159.975 69.0975 160.271 68.8848 160.464 68.6644C160.814 68.0161 160.928 66.9941 161.156 66.26C161.417 65.4382 161.864 64.9525 162.298 64.2825C162.638 63.77 162.876 63.2576 163.206 62.7738C163.539 62.213 164.013 61.8921 164.444 61.4306C164.783 61.0713 165.092 60.6352 165.224 60.2397C165.343 59.8287 165.421 59.3829 165.687 59.0423C165.722 58.9919 165.755 58.9356 165.789 58.8852C165.86 58.6612 166.22 58.4391 166.105 58.1994C166.061 58.1334 165.992 58.1078 165.9 58.0988C165.64 58.0745 165.189 58.2795 164.793 58.5227C164.238 58.866 163.857 59.42 163.387 59.8941C162.551 60.7393 161.961 61.8014 161.321 62.7782C160.574 63.893 160.208 65.141 160.098 66.4509C159.914 67.692 159.47 68.9986 158.673 70.0012C158.315 70.559 158.258 71.0386 157.983 71.7202C157.404 72.9037 156.52 73.8645 156.043 75.1185C155.229 76.4665 154.864 77.8284 154.547 79.3668C154.267 80.1442 154.075 80.9403 153.865 81.724C153.593 82.6031 153.519 83.573 153.392 84.4655C153.35 85.1733 153.298 85.8469 152.96 86.462C152.757 86.8714 152.636 87.2602 152.571 87.6953C152.536 88.4313 152.548 89.2251 152.334 89.9291C151.924 91.0771 150.803 91.2127 150.28 89.8034C149.992 88.9491 150.094 88.2023 150.318 87.2803C150.51 86.574 150.741 85.6611 150.77 84.8544C150.837 83.5062 150.499 82.4254 150.458 81.1539C150.508 80.1672 150.796 79.3654 150.982 78.4381C151.042 77.859 151.142 77.3024 151.292 76.8148C151.502 76.3195 151.583 75.7693 151.687 75.2463C152.231 73.5391 153.118 71.7855 154.115 70.2857C154.643 69.6165 155.107 69.2914 155.563 68.7753C155.663 68.6637 155.702 68.5241 155.729 68.3725C155.811 67.607 156.254 66.6616 156.565 65.8572C156.886 65.0885 157.32 64.2024 157.768 63.5463C158.018 63.1909 158.051 62.8592 158.369 62.6426C158.994 61.8689 159.561 60.8519 160.2 60.0284C161.256 58.6743 162.47 57.6036 163.732 56.4266C164.518 55.7446 165.672 55.6868 166.641 55.5303C167.196 55.5166 167.294 56.2077 167.889 55.9401C168.852 55.5335 169.573 55.2946 170.486 54.6872C171.219 54.1625 172.159 54.1661 173.024 54.1172C174.288 54.0887 175.152 53.1194 176.109 52.4155C176.973 51.7961 177.635 51.6183 178.477 51.2773C179.074 51.0666 179.776 50.7689 180.422 50.6894C180.926 50.6236 181.448 50.7058 181.942 50.5818C182.443 50.4498 182.943 50.2556 183.457 50.0942C184.115 49.8977 184.763 50.0894 185.422 49.9029C186.377 49.6041 187.57 49.3675 188.629 49.4343C189.152 49.4428 189.581 49.6189 190.068 49.6921C191.193 49.8418 192.107 49.3044 193.317 49.2684C193.796 49.2663 194.212 49.3905 194.663 49.462C195.543 49.6235 196.745 49.4295 197.741 49.1899C198.739 48.9689 199.779 48.3225 200.814 48.7369C201.431 48.9248 201.665 49.2405 202.228 49.1165C203.126 48.8441 204.176 48.2228 205.14 48.5117C205.566 48.6051 205.888 48.6889 206.265 48.6779C207.008 48.6439 207.617 48.3371 208.418 48.2759C209.419 48.1762 210.391 48.114 211.411 48.0617C212.959 48.06 214.306 47.9891 215.78 47.6237C216.738 47.436 217.767 47.4208 218.734 47.6234C220.585 47.9809 222 47.6827 223.766 47.9197C225.664 47.883 226.948 47.471 228.574 48.7878C228.939 49.0431 229.325 49.2479 229.776 49.2355C230.196 49.2104 230.669 49.0904 231.093 48.983C232.493 48.6218 234.19 49.2521 235.51 49.5176C235.946 49.5853 236.359 49.5257 236.783 49.4356C237.438 49.2473 238.051 49.4968 238.705 49.7492C238.929 49.8099 239.116 49.8753 239.33 49.8232C239.743 49.7045 239.867 49.382 240.329 49.3985C241.218 49.3877 242.324 50.0137 243.247 49.8074C243.678 49.676 244.407 49.2844 244.952 49.1075C246.28 48.6351 247.151 47.665 248.367 47.0646C249.09 46.6247 249.127 45.8444 249.885 45.5095C250.411 45.2313 251.031 45.0215 251.344 44.5695C251.444 43.9413 250.751 43.2399 250.275 42.7139C249.787 42.1626 249.296 41.5981 248.743 41.124C247.986 40.4559 246.845 39.8216 247.006 38.6501C247.224 37.5433 248.729 37.0391 249.633 37.615C250.043 37.8729 250.378 38.3101 250.725 38.6688C251.382 39.2933 252.016 40.0346 252.5 40.8106C252.602 40.9781 252.688 41.1286 252.751 41.3018C252.9 41.6818 252.792 42.0604 252.784 42.2788C252.72 42.7112 253.073 42.542 253.378 42.4836C254.145 42.1977 255.015 41.6645 255.449 40.981C255.724 40.5618 255.925 40.1138 256.157 39.6609C256.391 39.2121 256.731 38.7561 256.515 38.258C256.257 37.6081 255.666 37.1974 255.202 36.6344C254.464 35.7678 253.61 34.9306 253.321 33.7825C252.994 32.7342 254.317 31.6048 255.211 31.7004C256.11 31.7949 256.532 32.734 256.956 33.4044C257.309 33.8903 257.702 34.3308 257.914 34.9867C258.237 35.6436 257.998 37.2529 259.157 36.9705C260.632 36.3663 261.673 35.2661 262.87 34.1788C263.92 33.2498 265.035 32.4754 265.802 31.3891C266.085 30.9051 266.552 30.5175 266.77 30.0171C267.619 28.6657 266.009 27.4834 265.514 26.3463C264.958 25.1811 264.788 23.4563 264.068 22.3649C263.768 21.9229 263.485 21.4724 263.17 21.0413C262.649 20.3009 262.208 19.2798 262.602 18.4191C262.8 18.0256 263.219 17.7076 263.679 17.9109C264.027 18.06 264.321 18.4362 264.535 18.7667C264.862 19.2557 265.184 19.6868 265.34 20.2201C265.488 20.728 265.563 21.2276 265.678 21.7653C265.844 22.7447 266.506 23.5231 267.023 24.3437C267.414 24.946 267.718 25.4182 267.959 25.9268C268.217 26.5374 268.488 27.0842 269.181 27.0334C269.782 26.9558 270.652 26.5553 270.764 25.899C270.826 24.7703 270.403 23.4668 269.8 22.5153C269.216 21.7489 268.348 21.1826 268.147 20.1881C268.027 19.3956 267.931 18.3879 268.473 17.7378C268.836 17.3619 269.311 17.3727 269.657 17.7293C270.12 18.1302 270.354 18.7511 270.705 19.226C271.185 19.7142 271.876 20.3935 272.069 21.1599C272.398 22.6348 272.171 22.9427 273.405 23.8472C274.177 24.4959 274.799 22.8466 274.909 22.2867C274.984 21.6799 274.412 21.3071 274.05 20.8773C273.206 19.9726 273.101 18.4755 272.869 17.3913C272.66 16.2666 271.845 15.2364 272.27 14.0681C272.454 13.4 273.326 12.862 273.875 13.4968C274.321 14.0204 274.487 14.7395 274.756 15.3625C275.243 16.7864 275.956 18.2106 276.503 19.6235C276.915 20.8802 277.995 19.7064 278.429 19.0906C278.702 18.737 279.009 18.4115 279.114 18.0503C279.229 17.4649 279.104 16.9347 278.89 16.3345C278.312 15.1423 277.366 14.1035 276.458 13.1479C276.084 12.6903 275.603 12.266 275.58 11.6458C275.605 10.8646 276.392 10.2927 277.117 10.2318C278.63 10.1316 278.749 12.3291 279.345 13.3339C279.788 14.0117 280.156 14.8743 280.373 15.5728C280.549 15.8669 280.58 16.4526 280.885 16.6274C281.003 16.6951 281.215 16.6105 281.297 16.4028C281.416 15.9372 281.497 15.2073 281.574 14.6946C281.634 14.2686 281.729 13.9031 282.09 13.6383C282.408 13.3687 282.86 13.0921 282.85 12.6222C282.848 12.5629 282.841 12.5203 282.82 12.4737C282.714 12.3883 282.389 12.5201 282.265 12.4813C282.196 12.4659 282.181 12.3683 282.231 12.1977C282.284 12.0207 282.39 11.7685 282.535 11.5047C282.867 10.9732 283.384 10.4776 283.61 9.94852C283.936 9.01386 283.916 7.96215 284.144 7.03001C284.356 6.22758 284.48 5.05608 284.769 4.16444C285.127 3.05431 285.453 1.7934 285.922 0.781969C286.121 0.41966 286.328 0.235131 286.447 0.291017C286.562 0.345004 286.651 0.473647 286.741 0.570657C286.97 0.822249 287.249 1.19995 287.569 1.44817C288.266 2.00598 288.383 3.06211 288.42 3.85865C288.382 4.50081 288.436 5.24862 288.408 5.93275C288.432 6.65822 288.786 7.30396 288.838 7.98914C288.864 8.27469 288.757 8.63552 288.898 9.156C288.968 9.43754 289.05 9.72055 289.083 10.0124C289.119 10.6031 289.167 11.2754 289.338 11.7421C289.5 12.394 290.111 13.1446 290.749 13.1929C291.168 13.164 291.372 12.6648 291.527 12.3061C291.797 11.4302 291.861 10.5664 291.992 9.66614C292.075 8.0754 293.512 6.25077 293.565 4.56977C293.675 3.99362 293.412 3.31919 293.454 2.86388C293.49 2.62768 293.462 2.37546 293.509 2.15001C293.596 1.87248 293.854 1.64451 293.822 1.33345C293.494 -0.488012 295.47 -0.237896 296.407 0.857468C297.274 1.86679 297.42 3.92466 297.581 5.2482C297.63 7.87885 297.38 10.3937 297.764 12.9963C297.767 13.8591 297.555 14.6398 297.218 15.395C297.125 15.7233 296.748 16.2942 297 16.5513C297.242 16.7957 298.403 16.8495 298.93 17.1662C299.73 17.6728 300.461 18.3308 301.21 18.913C301.868 19.458 302.034 20.1244 302.576 20.6719C303.3 21.3857 304.598 21.5331 305.212 22.4199C306.088 23.3542 307.594 23.5459 308.473 24.4841C308.981 24.9146 309.384 25.5508 309.844 26.0205C310.148 26.3478 310.577 26.5194 310.876 26.8299C311.173 27.0834 310.801 27.5667 311.064 27.8322C311.597 28.2239 312.326 28.4141 312.784 28.9198C313.247 29.4943 313.339 30.2663 313.792 30.8503C314.543 31.855 316.026 32.7877 316.861 33.7639C317.166 34.2505 317.276 34.7233 317.606 35.16C317.917 35.6493 318.28 35.9766 318.699 36.526C319.537 37.9065 320.298 39.3359 320.64 40.8714C320.821 42.0258 320.799 43.2856 321.068 44.4116C321.483 46.5785 319.316 48.0212 317.835 49.2188C316.902 49.9548 315.764 50.9327 314.451 50.873C313.118 50.8201 311.755 50.2068 310.675 49.4093C310.049 48.9655 309.706 48.2941 309.211 47.7472C308.423 46.9024 307.39 46.3389 306.469 45.6472C305.752 45.1655 305.547 44.3104 304.855 43.7806C303.734 43.0699 302.512 42.7126 301.295 42.0865C300.102 41.5608 298.643 41.3494 297.321 41.2902C296.108 41.1729 294.882 41.4353 293.781 40.9237C293.582 40.8488 293.4 40.7661 293.2 40.69C292.988 40.6229 292.784 40.5253 292.557 40.547C292.272 40.5409 291.859 40.7218 291.541 40.6824C291.087 40.5896 290.659 40.2292 290.178 40.2805C289.491 40.419 289.15 41.1761 288.791 41.7234C288.286 42.7805 287.654 43.4295 287.215 44.3445C287.145 44.4987 287.119 44.6651 287.114 44.8334C287.097 45.4044 286.905 45.8224 286.951 46.4287C286.963 46.705 286.977 47.9533 286.611 47.9518C286.39 47.9282 286.135 47.5433 286.018 47.685C285.777 48.0207 285.989 48.3455 286.248 48.6876C286.619 49.2332 287.02 49.3831 286.292 49.7924C285.78 50.1307 285.044 50.3928 284.863 50.8593C284.786 51.0966 284.938 51.3644 284.97 51.6584C285.033 52.061 284.824 52.4743 284.744 52.87C284.58 53.5206 285.038 54.2289 284.372 54.6309C283.898 54.9439 283.048 55.0149 282.779 55.5696C282.729 55.713 282.776 55.8699 282.869 56.0487C283.503 56.9555 283.407 57.2204 282.789 58.1321C282.28 59.0452 281.725 60.1054 280.689 60.5567C280.231 60.8283 279.842 61.3235 279.512 61.7404C279.388 61.9106 279.339 61.9855 279.49 62.092C281.561 63.0534 280.585 64.0838 279.417 65.4489C279.178 65.7621 279.027 66.1335 278.835 66.4776C278.332 67.4127 277.566 68.3202 277.689 69.4251C277.797 69.8757 277.478 70.5107 276.954 70.4101C276.488 70.1959 275.972 70.1048 275.66 70.6037C275.124 71.3872 276.588 70.9639 276.04 71.8718C275.823 72.3149 274.955 72.3026 274.734 72.4024C274.624 72.4604 274.621 72.5412 274.635 72.7031C274.672 73.0927 274.746 73.564 274.66 73.9718C274.53 74.6813 274.299 75.1967 274.417 75.6246C274.509 75.9593 274.69 76.2921 274.513 76.6339C273.704 77.8526 272.86 78.8552 272.353 80.2895C272.028 81.2961 272.05 82.4616 271.457 83.3035C270.577 84.7475 269.932 86.0147 267.992 85.5128C267.665 85.4375 267.869 85.7859 268.012 85.8665C268.398 86.1737 269.15 86.3024 269.36 86.8473C269.626 87.3311 269.57 87.7984 269.677 88.452C269.848 89.3628 270.265 90.264 270.373 91.1961C270.691 92.4802 270.158 93.6922 270.643 94.8915C270.9 95.4097 271.122 96.0033 271.298 96.5211C271.361 96.7689 271.362 96.9766 271.424 97.2307C271.89 99.2072 272.392 101.224 273.24 103.096C273.647 103.997 274.068 104.881 274.534 105.775C275.054 106.87 275.944 107.883 276.26 109.093C276.507 109.916 276.861 110.585 277.136 111.364C277.433 112.331 277.663 113.311 277.967 114.232C278.147 114.708 278.185 115.26 278.517 115.743C278.86 116.213 279.21 116.69 279.409 117.24C279.592 117.858 279.837 118.602 280.244 119.191C280.762 120.14 280.561 121.264 281.037 122.246C281.28 122.812 281.568 123.366 281.656 123.98C281.72 124.482 281.741 124.973 281.881 125.46C282.211 126.517 282.897 127.688 283.099 128.851C283.275 129.323 283.343 129.751 283.577 130.178C283.857 130.517 284.067 130.857 284.315 131.242C284.688 131.737 284.807 132.452 285.113 133.015C285.263 133.322 285.375 133.544 285.331 133.825C285.282 134.34 284.81 134.628 284.346 134.912C283.806 135.169 283.236 135.428 282.626 135.441C281.772 135.455 280.788 134.936 280.312 134.164C279.893 133.431 279.309 132.513 278.901 131.911C278.678 131.527 278.391 131.12 278.22 130.721C277.957 129.92 277.672 129.102 277.395 128.292C276.912 126.899 276.419 125.671 276.072 124.238C276.021 123.689 276.016 123.234 275.778 122.816C275.653 122.46 275.197 122.244 275.155 121.902C275.232 121.541 275.312 121.464 275.017 120.989C274.919 120.817 274.765 120.624 274.636 120.45C274.375 120.118 274.325 119.786 274.223 119.453C273.917 118.564 273.469 117.594 273.316 116.611C273.089 115.312 272.462 114.441 272.141 113.276C272.042 112.704 271.723 112.213 271.431 111.738C271.345 111.549 271.235 111.356 271.065 111.242C270.655 110.967 270.294 110.651 269.93 110.229C269.433 109.723 269.216 108.952 268.913 108.309C268.556 107.583 268.245 106.776 268.008 105.976C267.919 105.591 267.778 105.074 267.941 104.772C268.031 104.524 268.475 104.524 268.458 104.215C268.439 103.884 268.282 103.184 267.855 103.037C267.738 102.994 267.657 103.007 267.543 103.021C267.367 103.041 266.878 103.259 266.886 102.966C266.835 102.408 267.658 101.782 267.673 101.17C267.754 100.658 267.051 100.777 266.735 100.753ZM297.114 25.04C296.809 24.8808 296.37 25.4093 296.152 25.7815C295.719 26.3845 295.53 27.1633 295.375 27.7886C295.267 28.2401 294.784 28.6863 294.674 29.0381C294.632 29.2857 294.876 29.4341 295.049 29.5704C295.348 29.7678 295.556 30.0875 295.736 30.3872C295.966 30.7872 296.512 30.6219 296.917 30.6738C297.351 30.6902 297.844 30.9129 298.308 30.7864C298.59 30.7048 298.769 30.4956 298.962 30.2986C299.163 30.0953 299.4 29.9116 299.541 29.7336C299.816 29.4883 300.088 29.287 300.255 28.9421C300.856 28.2021 300.971 27.2124 300.202 26.5148C299.806 26.1675 299.457 25.7756 298.973 25.6314C298.753 25.5723 298.503 25.6147 298.264 25.6204C297.839 25.6733 297.477 25.2155 297.114 25.04ZM277.253 31.4205C277.064 31.6458 277.559 31.9878 277.77 32.054C278.461 32.3033 278.574 31.2976 278.764 30.7368C278.916 30.2505 278.797 29.9407 278.463 29.9983C278.118 30.0466 277.743 30.3283 277.837 30.7181C277.892 30.9836 278.154 31.2398 278.079 31.3495C277.973 31.4931 277.389 31.3144 277.253 31.4205ZM259.286 44.633C259.092 44.4177 258.743 44.4329 258.468 44.4662C257.631 44.5944 257.318 45.3947 256.883 46.1721C256.84 46.3476 255.64 47.715 256.344 47.3191C257.097 46.8448 257.617 46.0976 258.164 45.4732C258.426 45.1978 258.89 45.1088 259.178 44.8654C259.275 44.7863 259.312 44.699 259.286 44.633ZM218.121 52.2702C218.536 52.08 218.524 51.3488 218.172 51.1558C217.753 50.9705 217.33 51.3908 216.944 51.5175C216.499 51.7069 215.954 51.488 215.564 51.5184C215.248 51.5291 214.985 51.6826 214.694 51.7782C214.418 51.8684 213.991 51.8891 213.632 52.0774C213.45 52.1717 212.926 52.4918 213.192 52.6745C213.337 52.7481 213.69 52.7751 214.034 52.8929C214.482 53.0385 214.911 53.2837 215.389 53.2462C215.845 53.2287 216.222 52.9079 216.593 52.6964C217.087 52.4132 217.634 52.5167 218.121 52.2702ZM231.032 51.55C230.965 51.4947 230.925 51.4943 230.87 51.4907C230.645 51.5032 230.302 51.7942 229.988 51.8615C229.736 51.9532 229.4 51.8606 229.181 52.0116C229.057 52.1259 229.194 52.403 229.157 52.6829C229.148 52.8714 229.018 53.0372 228.916 53.1762C229.162 53.2532 229.991 53.037 230.228 52.693C230.311 52.607 230.398 52.5195 230.504 52.4792C230.712 52.3891 230.992 52.5285 231.118 52.414C231.323 52.1993 231.202 51.7569 231.032 51.55ZM207.203 53.1279C206.637 52.7896 205.931 53.0882 205.284 53.049C204.261 53.1232 203.669 53.3122 204.793 53.9565C205.121 54.156 205.148 54.3329 205.208 54.4961C205.232 54.5683 205.245 54.6419 205.242 54.7205C205.201 55.0253 205.024 55.3753 205.258 55.6487C205.382 55.7887 205.507 55.6955 205.686 55.5997C205.899 55.4818 206.151 55.3395 206.353 55.187C206.66 54.9616 206.779 54.7372 206.902 54.547C207.128 54.2629 207.242 53.893 207.319 53.5379C207.357 53.3706 207.358 53.2399 207.203 53.1279ZM262.285 56.1523C262.048 55.962 261.65 55.8665 261.391 56.0611C261.165 56.2404 261.261 56.5359 261.101 56.8062C261.049 56.8975 260.969 56.9851 260.902 57.0589C260.839 57.1297 260.796 57.2008 260.886 57.2664C261.18 57.4195 261.808 57.5401 261.875 57.0692C261.965 56.5821 262.064 56.7963 262.367 56.9068C262.84 57.0017 262.483 56.2897 262.285 56.1523ZM249.781 64.125C249.763 64.0834 249.709 64.0773 249.667 64.0857C249.37 64.1667 249.198 64.5039 249.039 64.7543C248.62 65.3593 248.025 65.9698 247.708 66.6679C247.678 66.7446 247.673 66.8033 247.701 66.8381C247.897 66.9591 248.286 66.7514 248.508 66.6679C248.982 66.4774 249.174 66.1698 249.26 65.636C249.337 65.2958 249.442 64.9386 249.61 64.6324C249.686 64.4753 249.808 64.2654 249.781 64.125ZM218.387 65.6986C218.339 65.6429 218.236 65.6522 218.161 65.6693C217.722 65.7686 217.529 66.0664 217.227 66.4131C217.082 66.6217 216.774 66.8402 216.735 67.077C216.812 67.1841 217.062 67.1101 217.192 67.0972C217.808 66.9882 218.073 66.748 218.306 66.1744C218.355 66.0365 218.438 65.8338 218.387 65.6986ZM263.949 67.4235C263.974 67.399 263.913 67.2921 263.812 67.1415C263.63 66.9049 263.475 66.5434 263.162 66.476C262.849 66.4574 262.226 66.651 262.068 66.9397C261.971 67.2466 262.368 67.4513 262.437 67.7489C262.481 67.8491 262.477 68.0161 262.526 68.0977C262.645 68.0705 262.743 67.8286 262.854 67.6915C262.975 67.5165 263.121 67.2752 263.32 67.2421C263.548 67.193 263.874 67.4547 263.949 67.4235ZM246.333 68.1142C246.116 67.8191 245.84 67.5076 245.582 67.2316C245.361 66.9429 245.01 66.7189 244.767 67.108C244.593 67.3739 244.618 67.8048 244.559 68.0954C244.5 68.5456 244.104 68.8162 243.831 69.1473C243.409 69.649 243.447 71.1807 244.123 70.5128C244.686 70.0052 245.25 68.994 245.936 68.7135C246.363 68.579 246.66 68.4887 246.333 68.1142ZM263.285 77.0886C263.646 75.9915 261.158 76.0702 261.421 77.0319C261.504 77.2864 261.77 77.2607 261.986 77.1322C262.177 77.0458 262.405 76.7543 262.599 76.8009C262.747 76.8511 262.694 77.3077 262.788 77.5983C262.985 78.2495 263.2 77.3271 263.285 77.0886ZM272.756 76.6008C272.548 76.449 272.246 76.5626 271.956 76.7514C271.403 77.1027 271.164 77.7274 270.606 78.0802C270.264 78.3364 269.899 78.8928 269.915 79.1266C269.927 79.3371 270.155 79.4404 270.316 79.5412C270.634 79.6718 271.116 79.978 271.445 79.8757C271.957 79.6018 271.424 79.0385 271.441 78.5996C271.493 78.0602 272.02 77.7027 272.376 77.3387C272.573 77.1339 272.936 76.8381 272.756 76.6008ZM252.487 79.9658C252.328 79.8369 252.181 80.0189 252.161 80.1815C252.056 80.6628 252.592 81.1265 252.521 81.5312C252.504 81.7539 251.641 82.062 251.947 82.2406C252.388 82.326 253.029 82.0703 253.427 81.8414C253.695 81.6394 253.482 81.4289 253.487 81.1507C253.477 81.009 253.517 80.8692 253.512 80.7336C253.488 80.5075 253.132 80.5056 252.874 80.307C252.737 80.2176 252.607 80.0668 252.487 79.9658ZM249.564 81.6609C249.254 81.5008 249.016 82.0757 248.81 82.2444C248.562 82.5222 248.055 82.6418 248.114 82.8564C248.187 83.0479 248.401 83.1479 248.574 83.2573C248.771 83.3558 249.032 83.5355 249.215 83.5382C249.22 83.4444 249.183 83.236 249.223 83.1253C249.288 82.8689 249.796 82.8518 249.944 82.7033C250.082 82.5652 249.942 82.379 249.887 82.2248C249.806 82.0527 249.692 81.7756 249.564 81.6609ZM194.564 88.0045C194.518 87.9511 194.419 87.9372 194.284 87.9501C193.973 87.9853 193.607 88.0962 193.341 88.2753C192.829 88.6089 193.298 89.474 193.658 89.7781C193.894 89.9664 194.185 89.8561 194.421 89.7186C194.889 89.42 195.423 89.3059 195.656 88.9261C195.667 88.7824 195.42 88.7523 195.113 88.8299C194.863 88.8955 194.545 89.0982 194.341 89.2148C193.671 89.6077 194.777 88.1799 194.564 88.0045Z" fill="rgb(255,255,255)" fill-rule="nonzero" />
			</g>
			<g style="mix-blend-mode:normal">
				<path id="Path 5440" d="M244.597 142.475C245.016 142.622 245.302 142.77 245.802 142.795C246.056 142.787 246.319 142.765 246.569 142.8C247.235 142.989 247.838 142.952 248.499 143.081C249.577 143.229 249.784 144.311 249.131 145.081C248.613 145.552 247.872 145.522 247.205 145.731C246.596 145.904 246.062 146.066 245.379 146.057C244.218 146.014 243.035 146.342 242.001 146.7C241.305 146.926 240.605 147.133 239.95 147.473C238.874 147.96 238.014 148.06 236.955 148.418C236.467 148.63 235.99 148.862 235.472 148.973C235.166 149.045 234.853 149.045 234.546 149.029C233.968 148.997 233.817 149.138 233.312 149.33C232.738 149.539 231.917 149.508 231.352 149.271C231.034 149.123 230.887 148.813 230.744 148.578C230.654 148.433 230.54 148.306 230.357 148.314C229.794 148.393 229.152 148.948 228.664 148.944C228.124 149.001 227.775 148.575 227.391 148.263C226.818 147.852 226.097 147.492 225.39 147.635C224.055 147.951 222.633 147.788 221.276 148.018C220.855 148.105 220.437 148.244 220.021 148.365C219.231 148.593 218.545 148.93 217.807 148.537C217.303 148.26 216.673 147.549 216.564 146.949C216.442 146.176 216.935 146.157 217.477 146.164C217.912 146.165 218.405 145.917 218.994 145.796C219.55 145.677 220.15 145.823 220.709 145.853C221.89 146.014 222.824 145.357 224 145.316C224.767 145.236 225.539 145.431 226.297 145.442C227.372 145.387 228.219 145.42 229.36 145.55C230.036 145.587 230.581 145.592 231.117 145.789C231.489 145.923 231.859 146.088 232.26 146.087C232.927 146.068 233.531 145.855 234.317 145.927C234.678 145.948 235.07 146.073 235.416 146.07C235.851 146.063 236.026 145.745 236.585 145.483C237.383 145.171 238.567 144.827 239.459 145.128C239.748 145.198 239.849 145.08 240.136 144.887C240.434 144.703 240.65 144.4 240.931 144.212C241.638 143.953 241.921 143.169 242.462 142.675C243.001 142.251 243.959 142.212 244.597 142.475ZM235.054 146.615C234.982 146.525 234.611 146.374 234.428 146.285C234.117 146.15 233.791 145.98 233.45 145.99C233.043 146.005 232.869 146.425 232.588 146.798C232.43 147.077 232.058 147.321 232.079 147.654C232.153 147.876 232.395 148.027 232.619 148.083C232.918 148.148 233.159 148.002 233.365 147.861C233.717 147.58 234.024 147.458 233.82 147.123C233.743 146.946 233.487 146.653 233.73 146.515C234.095 146.335 234.857 146.64 235.054 146.615Z" fill="rgb(255,255,255)" fill-rule="nonzero" />
			</g>
			<g style="mix-blend-mode:normal">
				<path id="Path 5441" d="M278.594 136.233C279.038 136.391 280.453 136.365 280.238 137.072C280.073 137.514 279.639 138.081 279.142 138.208C278.831 138.291 278.542 138.308 278.215 138.367C277.378 138.415 276.643 139.027 275.952 139.393C275.157 139.825 274.315 139.86 273.456 140.168C272.411 140.585 271.328 140.797 270.292 140.797C269.06 140.836 267.456 140.885 266.434 141.787C265.769 142.303 264.889 142.623 264.096 142.843C263.261 143.155 262.448 143.536 261.543 143.812C260.116 144.245 256.13 144.893 255.96 142.726C255.972 141.826 256.732 141.437 257.381 141.133C257.562 141.008 257.663 140.783 257.807 140.627C258.141 140.281 258.736 140.18 259.206 140.268C259.823 140.407 260.113 140.961 260.551 141.129C261.035 141.303 261.573 141.06 262.035 140.895C263.443 140.378 264.375 139.473 265.836 139.111C267.264 138.751 268.317 137.919 269.624 137.404C270.235 137.194 271.013 137.346 271.586 137.284C272.177 137.239 272.76 137.14 273.327 136.985C273.839 136.894 274.208 136.651 274.691 136.65C275.147 136.65 275.773 136.862 276.261 136.825C276.572 136.799 276.781 136.563 277.015 136.385C277.528 135.903 277.988 136.051 278.594 136.233Z" fill="rgb(255,255,255)" fill-rule="nonzero" />
			</g>
			<g style="mix-blend-mode:normal">
				<path id="Path 5442" d="M281.347 140.546C281.581 140.591 281.809 140.66 282.041 140.715C282.496 140.836 282.998 140.803 283.306 140.919C283.631 141.051 283.754 141.355 283.918 141.62C284.078 141.932 284.471 141.816 284.743 141.714C285.106 141.588 285.472 141.552 285.818 141.386C286.314 141.14 286.737 141.049 287.338 140.872C287.693 140.754 288.065 140.673 288.44 140.701C289.284 140.689 290.204 141.254 290.022 142.174C289.816 142.965 289.075 143.38 288.361 143.912C288.105 144.091 287.835 144.262 287.552 144.393C286.302 144.972 284.968 144.314 283.661 144.751C281.995 145.232 281.235 145.333 279.874 144.165C279.009 143.383 277.857 143.967 276.855 144.071C276.444 144.117 276.043 144.144 275.636 144.204C275.079 144.292 274.459 144.46 274.057 144.206C273.648 143.976 273.66 143.484 273.889 143.072C274.044 142.768 274.317 142.602 274.619 142.508C275.165 142.332 275.728 142.051 276.254 141.762C277.028 141.405 277.768 141.305 278.57 140.917C279.405 140.528 280.455 140.367 281.347 140.546Z" fill="rgb(255,255,255)" fill-rule="nonzero" />
			</g>
			<g style="mix-blend-mode:normal">
				<path id="Path 5443" d="M219.176 139.217C219.435 139.213 219.631 139.195 219.77 139.254C220.057 139.386 220.031 139.828 219.823 140.026C219.593 140.238 219.22 140.46 219.17 140.737C219.056 141.067 219.239 141.455 219.254 141.781C219.144 142.193 218.74 142.41 218.24 142.297C217.583 142.193 216.778 141.947 216.179 142.343C215.798 142.641 215.531 142.841 214.991 143.092C214.3 143.414 213.263 143.242 212.654 143.511C212.296 143.634 211.98 143.883 211.631 144.051C211.115 144.257 210.59 144.424 210.091 144.545C209.566 144.639 209.452 144.946 209.067 145.171C208.834 145.331 208.412 145.54 208.07 145.61C207.41 145.775 206.649 146.081 205.936 146.082C204.849 146.03 202.987 145.877 202.485 144.766C202.362 144.431 202.374 143.994 202.661 143.754C203.222 143.377 204.046 143.25 204.707 143.219C205.294 143.262 205.578 143.717 206.096 143.577C206.276 143.509 206.486 143.246 206.667 143.173C207.04 143.093 207.312 143.21 207.792 143.233C208.12 143.281 208.439 143.2 208.755 143.117C209.302 142.987 209.731 143.009 210.163 142.755C211.495 142.149 209.817 140.724 211.293 140.549C211.998 140.567 212.835 140.602 213.49 140.572C213.763 140.547 214.231 140.639 214.339 140.336C214.405 139.211 214.535 139.305 215.575 139.16C215.951 139.088 216.31 138.924 216.704 138.941C217.543 138.986 218.354 139.291 219.176 139.217Z" fill="rgb(255,255,255)" fill-rule="nonzero" />
			</g>
			<g style="mix-blend-mode:normal">
				<path id="Path 5444" d="M168.678 141.725C169.033 141.673 169.384 141.647 169.737 141.738C170.261 141.907 170.778 142.357 171.031 142.749C171.129 143.299 170.451 143.904 170.002 144.207C169.482 144.562 168.778 144.642 168.179 144.962C167.857 145.127 167.555 145.352 167.231 145.504C166.893 145.656 166.616 145.718 166.314 145.765C165.853 145.781 165.401 145.756 164.981 145.998C164.129 146.398 163.117 146.38 162.211 146.657C161.451 146.887 160.655 147.177 159.861 147.174C159.343 147.157 158.931 147.248 158.7 146.907C158.423 146.32 158.188 145.377 158.483 144.704C159.307 143.635 161.054 143.826 162.176 143.484C162.603 143.379 163.03 143.564 163.451 143.68C163.617 143.726 163.805 143.8 163.943 143.699C164.18 143.524 164.409 143.095 164.686 142.878C165.114 142.627 165.575 142.512 166.036 142.295C166.273 142.211 166.496 142.088 166.722 141.978C167.275 141.722 168.057 141.851 168.678 141.725Z" fill="rgb(255,255,255)" fill-rule="nonzero" />
			</g>
			<g style="mix-blend-mode:normal">
				<path id="Path 5445" d="M242.122 134.471C242.341 134.935 241.868 135.561 241.975 136.089C242.001 136.198 242.005 136.338 242.128 136.343C242.201 136.333 242.276 136.288 242.35 136.268C242.548 136.198 242.74 136.256 242.657 136.469C242.449 136.989 241.721 137.339 241.133 137.541C240.496 137.867 239.725 138.099 239.074 138.258C238.756 138.362 238.608 138.643 238.307 138.764C237.879 138.938 237.267 138.697 237.029 139.169C236.971 139.272 236.916 139.369 236.818 139.451C236.226 139.844 235.323 139.789 234.603 139.861C233.671 139.898 233.174 140.315 232.705 140.308C232.442 140.272 232.212 140.138 231.924 140.062C231.448 140.023 230.976 140.428 230.48 140.29C229.348 140.036 230.549 138.344 231.122 138.009C231.749 137.582 232.384 137.61 233.139 137.218C233.635 136.958 234.149 136.62 234.7 136.518C235.224 136.369 235.731 136.375 236.243 136.215C236.815 136.019 237.527 135.457 238.194 135.229C238.745 135.036 239.322 135.045 239.815 134.953C240.476 134.88 241.126 134.461 241.794 134.399C241.961 134.388 242.066 134.41 242.122 134.471Z" fill="rgb(255,255,255)" fill-rule="nonzero" />
			</g>
			<g style="mix-blend-mode:normal">
				<path id="Path 5446" d="M200.479 136.421C200.786 136.579 201.024 136.778 201.352 136.783C201.803 136.762 202.378 136.574 202.782 136.787C203.206 136.928 203.924 137.409 203.754 137.95C203.373 138.564 202.558 138.986 201.929 139.28C201.281 139.626 200.722 139.8 199.939 140.107C199.45 140.315 198.892 140.466 198.381 140.317C198.11 140.277 197.777 140.063 197.516 140.109C197.401 140.155 197.331 140.361 197.25 140.559C197.168 140.975 196.698 141.336 196.236 141.465C195.689 141.671 195.092 141.819 194.54 141.561C193.826 141.261 193.415 141.3 192.854 141.652C192.454 141.867 191.944 141.99 191.617 141.818C191.346 141.585 191.367 141.183 191.539 140.857C191.815 140.361 192.154 139.899 192.706 139.452C194.053 138.279 196.042 138.785 197.479 137.771C198.43 137.294 199.308 135.701 200.479 136.421Z" fill="rgb(255,255,255)" fill-rule="nonzero" />
			</g>
			<g style="mix-blend-mode:normal">
				<path id="Path 5447" d="M258.156 22.3209C258.802 22.4487 259.177 23.0694 259.632 23.5329C259.785 23.7041 259.883 23.9159 259.971 24.127C260.118 24.476 260.331 24.7596 260.488 25.0929C260.945 25.8105 261.574 26.2243 261.996 27.0478C262.689 28.431 263.378 29.608 264.088 30.9535C264.264 31.3751 264.493 32.2315 264.124 32.517C263.817 32.7246 263.369 32.6324 263.061 32.4453C262.645 32.2484 262.316 32.2425 262.088 31.8723C261.954 31.6402 261.798 31.4748 261.685 31.1686C261.592 30.8966 261.52 30.6038 261.39 30.3423C261.126 29.7744 260.666 29.2826 261.123 28.764C261.207 28.6217 261.06 28.6168 260.932 28.6244C260.519 28.6341 260.061 28.8482 259.706 29.0802C259.446 29.24 259.147 29.3689 258.87 29.2088C258.569 29.0491 258.508 28.5179 258.388 28.1953C258.306 27.8684 258.049 27.8034 257.776 27.6351C257.421 27.4333 256.993 26.9546 256.743 26.362C256.403 25.607 256.393 24.8898 256.604 24.0821C256.67 23.2695 257.236 22.1838 258.156 22.3209Z" fill="rgb(255,255,255)" fill-rule="nonzero" />
			</g>
			<g style="mix-blend-mode:normal">
				<path id="Path 5448" d="M300.021 132.65C300.356 133.197 300.023 133.957 299.955 134.527C299.906 134.803 299.928 135.073 299.81 135.329C299.473 135.834 298.816 135.783 298.295 136.041C297.815 136.376 297.422 136.848 296.923 137.17C296.603 137.456 296.214 137.045 295.885 137.172C295.558 137.288 295.293 137.507 294.94 137.571C294.636 137.634 294.291 137.535 293.993 137.63C293.449 137.863 293.143 138.445 292.486 138.321C291.704 138.216 291.239 138.722 290.425 138.812C289.853 138.896 289.134 138.646 288.946 138.137C288.773 137.726 289.097 137.308 289.338 137.029C289.614 136.7 289.92 136.55 290.339 136.306C290.794 135.998 291.432 136.07 291.937 136.011C292.372 135.95 292.56 135.665 292.903 135.485C293.205 135.285 293.722 135.17 294.097 135.014C295.058 134.451 296.14 134.015 297.134 133.625C297.854 133.28 299.222 132.132 300.021 132.65Z" fill="rgb(255,255,255)" fill-rule="nonzero" />
			</g>
			<g style="mix-blend-mode:normal">
				<path id="Path 5449" d="M172.419 147.543C173.214 148.745 170.525 149.345 169.777 149.631C169.062 149.91 168.405 150.413 167.657 150.54C166.98 150.641 166.303 150.614 165.663 150.865C165.344 150.974 164.999 151.075 164.663 150.972C164.04 150.799 163.619 150.206 163.004 150.075C162.474 149.949 161.995 150.49 161.771 150.069C161.531 149.497 161.472 147.77 162.303 147.586C162.638 147.559 162.925 147.801 163.258 147.847C163.693 147.94 164.198 147.757 164.65 147.74C165.292 147.659 165.792 147.986 166.435 147.818C166.93 147.673 167.449 147.439 167.953 147.636C168.925 148.16 169.685 147.892 170.592 147.417C171.175 147.09 171.925 146.939 172.419 147.543Z" fill="rgb(255,255,255)" fill-rule="nonzero" />
			</g>
			<g style="mix-blend-mode:normal">
				<path id="Path 5450" d="M180.014 149.483C182.524 150.472 181.734 150.885 179.803 151.877C178.034 153.121 177.03 152.963 174.977 152.543C174.158 152.418 173.343 152.375 172.603 152.051C171.45 151.384 171.92 150.644 172.928 150.159C173.836 149.641 174.745 149.423 175.748 149.373C176.551 149.223 176.961 149.232 177.88 149.292C178.598 149.361 179.372 149.247 180.014 149.483Z" fill="rgb(255,255,255)" fill-rule="nonzero" />
			</g>
			<g style="mix-blend-mode:normal">
				<path id="Path 5451" d="M246.35 68.1375C246.676 68.512 246.365 68.5785 245.936 68.7139C245.373 68.9225 244.846 69.7516 244.408 70.212C244.247 70.3898 244.12 70.5429 243.947 70.6486C243.869 70.692 243.797 70.7051 243.727 70.6553C243.5 70.4988 243.474 69.5838 243.831 69.1477C244.103 68.8166 244.5 68.546 244.559 68.0958C244.618 67.8049 244.593 67.3743 244.767 67.1084C245.01 66.7203 245.361 66.942 245.582 67.2319C245.84 67.508 246.134 67.8424 246.35 68.1375Z" fill="rgb(255,255,255)" fill-rule="nonzero" />
			</g>
			<g style="mix-blend-mode:normal">
				<path id="Path 5452" d="M207.225 53.1429C207.38 53.2553 207.357 53.3707 207.319 53.5379C207.242 53.8932 207.128 54.2625 206.902 54.547C206.779 54.737 206.66 54.9616 206.353 55.1869C206.151 55.3395 205.899 55.4821 205.686 55.5995C205.502 55.7006 205.368 55.7923 205.246 55.635C205.03 55.3621 205.202 55.0204 205.242 54.7206C205.245 54.6417 205.232 54.5681 205.208 54.496C205.148 54.3332 205.121 54.156 204.793 53.9563C203.671 53.3137 204.258 53.1229 205.284 53.049C205.93 53.0881 206.66 52.8046 207.225 53.1429Z" fill="rgb(255,255,255)" fill-rule="nonzero" />
			</g>
			<g style="mix-blend-mode:normal">
				<path id="Path 5453" d="M272.77 76.6141C272.996 76.9406 272.253 77.3957 272.042 77.6544C271.772 77.9307 271.466 78.2095 271.441 78.5997C271.423 79.0381 271.957 79.602 271.445 79.8755C271.134 79.9831 270.592 79.6577 270.293 79.5282C270.139 79.4316 269.924 79.3274 269.915 79.1265C269.91 78.9194 270.161 78.4742 270.487 78.1844C270.921 77.8681 271.255 77.4754 271.578 77.058C271.85 76.7879 272.446 76.3766 272.77 76.6141Z" fill="rgb(255,255,255)" fill-rule="nonzero" />
			</g>
			<g style="mix-blend-mode:normal">
				<path id="Path 5454" d="M218.09 52.2871C217.603 52.5338 217.087 52.4134 216.592 52.6964C216.178 52.9412 215.739 53.2991 215.218 53.2472C214.806 53.2299 214.428 53.0191 214.034 52.893C213.639 52.7407 213.296 52.7917 213.124 52.6131C213.074 52.3948 213.442 52.1812 213.632 52.0774C213.99 51.8893 214.418 51.8684 214.693 51.7784C214.985 51.6829 215.247 51.5293 215.563 51.5186C215.953 51.4882 216.499 51.7073 216.943 51.5175C217.33 51.3908 217.753 50.9705 218.172 51.1559C218.524 51.3492 218.506 52.0971 218.09 52.2871Z" fill="rgb(255,255,255)" fill-rule="nonzero" />
			</g>
			<g style="mix-blend-mode:normal">
				<path id="Path 5455" d="M194.575 88.0198C194.686 88.2999 194.175 88.9231 194.129 89.1873C194.052 89.4745 194.591 89.0391 194.737 88.9878C194.949 88.8372 195.592 88.688 195.654 88.8862C195.672 88.9673 195.589 89.0355 195.527 89.0912C195.285 89.2953 194.818 89.4898 194.421 89.7185C194.185 89.856 193.894 89.9666 193.658 89.778C193.321 89.4861 193.025 88.921 193.15 88.4908C193.245 88.2054 194.241 87.8155 194.575 88.0198Z" fill="rgb(255,255,255)" fill-rule="nonzero" />
			</g>
			<g style="mix-blend-mode:normal">
				<path id="Path 5456" d="M259.293 44.6479C259.319 44.7139 259.275 44.7863 259.178 44.8654C258.87 45.1206 258.357 45.2214 258.115 45.5242C257.599 46.1366 257.071 46.8585 256.344 47.3189C256.227 47.3893 256.149 47.4144 256.125 47.3861C256.102 47.3606 256.124 47.2891 256.187 47.182C256.389 46.8501 256.689 46.5219 256.883 46.1718C257.279 45.4702 257.567 44.739 258.248 44.5206C258.566 44.4221 259.055 44.396 259.293 44.6479Z" fill="rgb(255,255,255)" fill-rule="nonzero" />
			</g>
			<g style="mix-blend-mode:normal">
				<path id="Path 5457" d="M231.052 51.5689C231.223 51.7758 231.322 52.1993 231.118 52.414C230.992 52.5285 230.711 52.3891 230.504 52.4791C230.398 52.5194 230.311 52.6069 230.228 52.693C229.992 53.0363 229.191 53.3029 228.946 53.2248C229.048 53.0856 229.148 52.8716 229.157 52.6828C229.193 52.403 229.057 52.1261 229.181 52.0116C229.437 51.8494 229.817 51.9614 230.1 51.8266C230.468 51.7277 230.759 51.3785 231.052 51.5689Z" fill="rgb(255,255,255)" fill-rule="nonzero" />
			</g>
			<g style="mix-blend-mode:normal">
				<path id="Path 5458" d="M252.505 79.9789C252.625 80.0799 252.737 80.2176 252.874 80.3071C253.133 80.5057 253.487 80.5076 253.512 80.7334C253.517 80.8693 253.477 81.0091 253.487 81.1508C253.482 81.4287 253.695 81.6394 253.427 81.8413C253.03 82.0703 252.387 82.3261 251.947 82.2405C251.639 82.0642 252.505 81.7521 252.521 81.531C252.593 81.127 252.056 80.6621 252.161 80.1814C252.181 80.0191 252.345 79.8497 252.505 79.9789Z" fill="rgb(255,255,255)" fill-rule="nonzero" />
			</g>
			<g style="mix-blend-mode:normal">
				<path id="Path 5459" d="M277.272 31.4087C277.451 31.2986 277.961 31.4968 278.079 31.3494C278.154 31.2395 277.891 30.9835 277.836 30.718C277.742 30.3285 278.118 30.0461 278.463 29.998C278.796 29.9407 278.916 30.2505 278.764 30.7368C278.574 31.2975 278.461 32.3031 277.77 32.054C277.559 31.9884 277.083 31.6333 277.272 31.4087Z" fill="rgb(255,255,255)" fill-rule="nonzero" />
			</g>
			<g style="mix-blend-mode:normal">
				<path id="Path 5460" d="M249.786 64.14C249.813 64.2813 249.686 64.4751 249.61 64.6324C249.442 64.9389 249.337 65.2956 249.26 65.636C249.174 66.1693 248.982 66.4779 248.508 66.6679C248.286 66.752 247.896 66.9591 247.701 66.8381C247.641 66.7373 247.749 66.5844 247.809 66.4699C248.132 65.8503 248.661 65.3043 249.039 64.7543C249.2 64.5015 249.478 64.2041 249.786 64.14Z" fill="rgb(255,255,255)" fill-rule="nonzero" />
			</g>
			<g style="mix-blend-mode:normal">
				<path id="Path 5461" d="M263.275 77.1201C263.111 77.68 262.889 78.3089 262.732 77.3029C262.71 77.0629 262.701 76.8397 262.599 76.8008C262.404 76.7544 262.177 77.0457 261.985 77.1321C261.769 77.265 261.493 77.2808 261.421 77.0317C261.158 76.0701 263.636 76.0231 263.275 77.1201Z" fill="rgb(255,255,255)" fill-rule="nonzero" />
			</g>
			<g style="mix-blend-mode:normal">
				<path id="Path 5462" d="M249.586 81.6769C249.768 81.8779 249.9 82.2462 249.996 82.5093C250.038 82.7246 249.857 82.767 249.635 82.8459C249.439 82.9147 249.275 82.9623 249.223 83.1251C249.183 83.2356 249.249 83.406 249.244 83.4996C249.06 83.4971 248.772 83.3554 248.574 83.2571C248.401 83.1479 248.187 83.0477 248.114 82.8564C248.055 82.6415 248.562 82.522 248.81 82.2445C249.017 82.0749 249.274 81.5177 249.586 81.6769Z" fill="rgb(255,255,255)" fill-rule="nonzero" />
			</g>
			<g style="mix-blend-mode:normal">
				<path id="Path 5463" d="M262.316 56.1791C262.52 56.3221 262.835 56.9956 262.367 56.9066C262.248 56.8822 262.122 56.7504 262.007 56.7626C261.869 56.7903 261.928 57.2614 261.676 57.3613C261.437 57.4463 261.097 57.3801 260.886 57.2662C260.728 57.1319 260.999 56.9967 261.059 56.8719C261.266 56.6169 261.142 56.2746 261.391 56.061C261.65 55.8663 262.079 55.989 262.316 56.1791Z" fill="rgb(255,255,255)" fill-rule="nonzero" />
			</g>
			<g style="mix-blend-mode:normal">
				<path id="Path 5464" d="M263.941 67.4291C263.866 67.4603 263.548 67.1931 263.32 67.2422C263.121 67.2754 262.975 67.5164 262.854 67.6917C262.695 67.9144 262.599 68.1077 262.526 68.0978C262.458 67.8901 262.441 67.6318 262.271 67.4487C262.156 67.2838 261.993 67.1364 262.068 66.9398C262.18 66.6907 262.81 66.4552 263.162 66.4759C263.475 66.5434 263.63 66.905 263.812 67.1416C263.913 67.2922 263.966 67.4044 263.941 67.4291Z" fill="rgb(255,255,255)" fill-rule="nonzero" />
			</g>
			<g style="mix-blend-mode:normal">
				<path id="Path 5465" d="M218.4 65.7182C218.451 65.8534 218.355 66.0364 218.306 66.1744C218.072 66.7477 217.808 66.9882 217.192 67.0972C217.062 67.1105 216.811 67.1837 216.735 67.0769C216.774 66.8399 217.082 66.6216 217.227 66.4131C217.551 66.0446 217.706 65.7804 218.161 65.6693C218.236 65.6519 218.352 65.6625 218.4 65.7182Z" fill="rgb(255,255,255)" fill-rule="nonzero" />
			</g>
			<g style="mix-blend-mode:normal">
				<path id="Path 5466" d="M235.051 146.618C234.855 146.644 234.094 146.335 233.73 146.515C233.487 146.653 233.743 146.947 233.82 147.123C234.024 147.458 233.717 147.58 233.365 147.861C233.159 148.002 232.918 148.148 232.619 148.083C232.395 148.028 232.153 147.876 232.079 147.655C232.058 147.321 232.43 147.078 232.588 146.798C232.869 146.425 233.043 146.006 233.45 145.991C233.921 145.987 234.408 146.29 234.819 146.47C234.975 146.546 235.059 146.601 235.051 146.618Z" fill="rgb(255,255,255)" fill-rule="nonzero" />
			</g>
		</g>
	</g>
</svg>
