<svg id="Group_7" data-name="Group 7" xmlns="http://www.w3.org/2000/svg" xmlns:xlink="http://www.w3.org/1999/xlink" width="292" height="62.606" viewBox="0 0 292 62.606">
  <defs>
    <clipPath id="clip-path">
      <rect id="Rectangle_3" data-name="Rectangle 3" width="292" height="62.606" fill="none"/>
    </clipPath>
  </defs>
  <g id="Group_6" data-name="Group 6" clip-path="url(#clip-path)">
    <g id="Group_5" data-name="Group 5" transform="translate(0 0)">
      <g id="Group_4" data-name="Group 4" clip-path="url(#clip-path)">
        <g id="Group_3" data-name="Group 3" transform="translate(0 0)" style="mix-blend-mode: multiply;isolation: isolate">
          <g id="Group_2" data-name="Group 2" transform="translate(0 0)">
            <g id="Group_1" data-name="Group 1" clip-path="url(#clip-path)">
              <path id="Path_1" data-name="Path 1" d="M104.183,51.544a1.2,1.2,0,0,0-.053-.162,1.567,1.567,0,0,0,.008-.178,10.359,10.359,0,0,1-.411-2.077c.014-.733-.049-1.462-.089-2.192-.11-2.052.1-4.114-.011-6.162-.056-1.01-.235-1.881-.239-2.9,0-1.255.023-2.509.009-3.764-.023-1.782-.153-3.526-.25-5.3-.115-2.139-.135-4.309-.1-6.455.044-2.517-.522-5.145-.239-7.649.223-1.961.758-3.891.177-5.86a7.376,7.376,0,0,0-3.265-4.15c-.009,0-.012-.013-.021-.017-.311-.136-.616-.266-.936-.378-.011,0-.023,0-.033,0a5.976,5.976,0,0,0-3.5.177,29.913,29.913,0,0,0-4.91-.227c-2.728.121-4.787,1.341-5.667,4.051a.164.164,0,0,0,0,.023,8.585,8.585,0,0,0-.131,2.879c.043.323.074.4.093.375,0,.059-.007.125-.008.206-.021.512-.087,1.025-.1,1.538-.035,1.868.165,3.681.251,5.544.045.976.079,1.958.092,2.936a31.182,31.182,0,0,1,.3,3.761,36.913,36.913,0,0,0,.118,5.544c.074,1.753.506,3.444.2,5.2-.012.066-.023.134-.035.2-.314-.856-.627-1.712-.917-2.572-.343-1.013-.811-2.012-1.211-3.007-.688-1.705-1.408-3.451-2.168-5.132-.658-1.455-1.049-2.983-1.681-4.439-.683-1.572-1.437-3.919-2.123-5.771-.835-2.252-1.844-4.509-2.778-6.733C73.383,6.029,71.134,5.356,68.3,5.4c-1.426.022-3.382.055-4.509.066a13.727,13.727,0,0,0-3.933.164,6.372,6.372,0,0,0-3.638,2.319,5.3,5.3,0,0,0-.881,2.373,5.8,5.8,0,0,0-.055.886c.011.147.032.291.051.437a1.344,1.344,0,0,0-.082.12c-1.131.983-1.05,3.309-1.7,4.558a15.978,15.978,0,0,0-1.624,3.6c-.373,1.583-1.154,2.986-1.566,4.562a9.708,9.708,0,0,1-.533,1.858c-.375.817-.423,1.735-.724,2.561-.579,1.585-1.106,3.172-1.649,4.77-.227.672-.391,1.142-.533,1.569-1.377-.751-2.883-.606-4.5-.661-.92-.032-2.428-.141-3.044-.163-.824-.03-1.593.021-2.073-.018-3.151-.251-5.251,1.415-6.062,4.4-.421,1.548-.688,3.145-1.752,4.4-1.248,1.472-2.659,1.41-4.491,1.458-.267.007-.545.069-.806.052-.568-.038.4.01.04-.105-.384-.122-.784-.178-1.157-.334a8.086,8.086,0,0,1-3.661-3.167,14.249,14.249,0,0,1-1.3-4.527,6.9,6.9,0,0,1-.042-1.14,24.1,24.1,0,0,0-.211-2.449,10.183,10.183,0,0,1,.295-3.495,16.227,16.227,0,0,1,1.021-3.475A6.2,6.2,0,0,1,23.425,22.9c.754-.154,1.55-.056,2.5-.144,2.019-.187,3.272.884,4.26,2.477.365,1.031.663,2.137,1.113,3.122a5.164,5.164,0,0,0,4.54,3.012,42.1,42.1,0,0,0,4.424.018c1.445-.107,2.356-.288,3.537-.409.019,0,.037-.011.055-.014A5.218,5.218,0,0,0,48.8,26.347c.2-2.081-.8-4.6-1.6-6.492-1.777-4.22-4.921-8.492-8.895-10.826A25.392,25.392,0,0,0,14.379,7.961,23.832,23.832,0,0,0,6.4,14.056a33.964,33.964,0,0,0-4.077,6.733A1.637,1.637,0,0,0,2.2,21.1,29.784,29.784,0,0,0,.068,32.442a35.112,35.112,0,0,0,.08,5.441,36.827,36.827,0,0,0,2.268,8.7,25.308,25.308,0,0,0,11.322,12.53A31.246,31.246,0,0,0,18,60.948a24.823,24.823,0,0,0,4.107.825,22.422,22.422,0,0,0,2.871.381,9.313,9.313,0,0,0,4.011-.694c1.3-.482,2.643-.134,3.956-.507a20.723,20.723,0,0,0,3.937-1.545c.729-.384,1.415-.834,2.125-1.249.543-.318,1.165-.494,1.711-.83a4.111,4.111,0,0,0,.394-.3,5.289,5.289,0,0,0,4.966,3.458c2.363.051,4.731-.185,7.085-.06a5.5,5.5,0,0,0,5.8-3.792c.576-1.491.651-3.139,1.2-4.649.358-.99.536-2.127.87-3.14.623,0,1.247,0,1.864.035a29.143,29.143,0,0,0,3.293-.29c1.551-.078,3.153-.223,4.725-.238.828,2.19,1.849,4.319,2.663,6.512s1.993,4.183,4.5,4.622a35.424,35.424,0,0,0,6.1.015,11.1,11.1,0,0,0,4.956-.773c1.418.7,2.981.592,4.575.657.919.037,1.8.237,2.722.217.574-.012,1.65-.157,1.9-.175,1.91-.135,3.579-.558,4.7-2.3a6.371,6.371,0,0,0,.823-2.669,17.275,17.275,0,0,0,.38-2.428l0-.007-.052-.483m-21.009-.068a7.471,7.471,0,0,0-1.793.063,1.092,1.092,0,0,0-.136-.021l-1.19.013a2.513,2.513,0,0,0-.8-.116,18.425,18.425,0,0,0-1.069-2.826,11.827,11.827,0,0,0-.419-1.195,7.9,7.9,0,0,0-.568-1.668c-.028-.048-.076-.071-.11-.113-.107-.306-.228-.607-.361-.907s-.209-.783-.314-.774a1.447,1.447,0,0,0-.01-.555,1.853,1.853,0,0,0-.369-.7,11.876,11.876,0,0,0-.225-1.655,1.181,1.181,0,0,0-.611-.73,1.586,1.586,0,0,0-.711-.248,3.942,3.942,0,0,0-1.842-.011.845.845,0,0,0-.079.038c-.485-.019-.969-.028-1.454-.054A1,1,0,0,0,70.99,40a5.461,5.461,0,0,0-1.58.087c-1.19.021-2.058.06-3.055.06a1.252,1.252,0,0,0-.42-.217,4.432,4.432,0,0,0-.76-.141H64.96c-.023,0-.045.008-.066.009s-.043-.008-.065-.009h-.515l-.341.047a1.275,1.275,0,0,0-.564.329l-.087.113a1.619,1.619,0,0,0-.547-.007,7.386,7.386,0,0,1-1.384.034,2.118,2.118,0,0,0-1.013-.007c.251-.061-.743-.146-.981-.094-.014,0-.025.011-.04.014q-1.1-.053-2.2-.068a1.316,1.316,0,0,0-1.236.94c-.362,1.014-.8,2-1.132,3.024a1.02,1.02,0,0,0-.234.464c-.031.161-.071.318-.105.477-.081.061-.159.122-.239.184a1.269,1.269,0,0,0-.329.565l-.186.529-.028.078a1.288,1.288,0,0,0,0,.68c.01.041.043.07.056.107a3.111,3.111,0,0,0-.335.819,1.331,1.331,0,0,0-.159.343c-.016.113-.031.227-.045.34,0,.039.012.074.014.112-.013.055-.023.111-.039.164-.225.906-.7,1.743-.876,2.646-.017,0-.027-.01-.043-.012-.1-.008-.21,0-.316-.007a1.046,1.046,0,0,0-.072-.1,1.328,1.328,0,0,0-.9-.375H49.926c-.12,0-.237,0-.355,0a3.57,3.57,0,0,0-.907.208c-.162.049-.322.1-.482.156-.039.013-.069.038-.1.053-.017.008-.034,0-.05.011s-.037.029-.058.038c-.149,0-.3-.008-.444-.012.018-.05.035-.1.054-.149.03-.083.063-.165.089-.249l0-.007c0-.009,0-.018,0-.027.012-.032.03-.062.04-.1l.312-.867.047-.34-.047-.341c-.042-.1-.084-.2-.128-.306a.882.882,0,0,0-.154-.167c.056-.143.111-.285.166-.427a1.256,1.256,0,0,0,.426-.145l.259-.2a1.273,1.273,0,0,0,.331-.565c.074-.208.149-.416.224-.623.01-.03.022-.061.033-.091.015-.113.029-.226.044-.34a.954.954,0,0,0-.11-.493.648.648,0,0,0-.164-.283l-.012-.009A5.843,5.843,0,0,0,49.6,44.21a1.348,1.348,0,0,0,.9-.88q.615-1.7,1.227-3.4c.008-.022,0-.045.008-.068a5.034,5.034,0,0,0,.193-.679c0-.014,0-.029,0-.043A8.124,8.124,0,0,0,52.3,38.2a1.2,1.2,0,0,0-.1-.888,2.622,2.622,0,0,0,.221-.433,1.393,1.393,0,0,0,.281-.189,1.884,1.884,0,0,0,.485-.9,12,12,0,0,0,.877-2.327c.131-.369.261-.722.382-1.073,0-.007.007-.01.009-.017s0-.007,0-.011A11.4,11.4,0,0,0,54.8,31.18a1.28,1.28,0,0,0,.249-.46l.014-.042.008-.022v0l.006-.039c.019-.049.047-.094.062-.147q.144-.405.292-.812c.014-.039.027-.078.041-.116,0-.011,0-.022,0-.034s.022-.031.029-.049q.138-.379.275-.757a.892.892,0,0,0,.033-.162c.017-.038.045-.061.061-.1q3.292-9.135,6.587-18.27h.534a1.163,1.163,0,0,0,.962-.452c.479.037.964.128,1.459.177a.977.977,0,0,0,.665-.2c1.1.082,2.191.115,3.287.125.3.8.6,1.594.887,2.4a12.088,12.088,0,0,0,1.055,2.94c.012.016.027.023.039.038.05.123.105.244.157.384.176.463.069.009.121.216a2.7,2.7,0,0,0,.347,1.179c.039.05.081.087.12.132.248.7.486,1.412.72,2.122a15.154,15.154,0,0,1,.652,1.672,2.252,2.252,0,0,0,.051.742,1.108,1.108,0,0,0,.383.6,3.808,3.808,0,0,0,.385.874,6.24,6.24,0,0,1,.189.73,1.068,1.068,0,0,0-.012.732,3.248,3.248,0,0,0,.365.787,1.555,1.555,0,0,0,.152.167,23.585,23.585,0,0,1,1.9,5.285,1.374,1.374,0,0,0,.314.7c.06.135.114.273.163.386a1.106,1.106,0,0,0,.124.173,1.082,1.082,0,0,0,.035.234l.012.034c.045.117.1.235.147.349.019.048.041.094.062.141s.053.05.074.081c.012.014.012.034.024.049h0a4.531,4.531,0,0,0,.213.7,3.44,3.44,0,0,0,.316.9,4.943,4.943,0,0,0,.314,1.2,1.222,1.222,0,0,0,.324.474c.578,1.671,1.132,3.351,1.714,5.02.207.6.577,1.281.757,2.006a.15.15,0,0,1-.017.029,2.525,2.525,0,0,0,.211,1.6,1.188,1.188,0,0,0,.311.466.231.231,0,0,1,.053.042,1.317,1.317,0,0,0,.177.138,1.139,1.139,0,0,1-.1-.065c.033.033.066.068.112.118a1.109,1.109,0,0,0,.159.111c.107.192.215.382.316.578.477.939.638,2.068,1.029,3.058a1.766,1.766,0,0,0,.071.291,16.853,16.853,0,0,1,.613,1.778c-.434.039-.851.071-1.232.075m-34.253-5.4c-.01-.02-.031-.029-.042-.048l0-.006.04.053m3.264-8.747c.042.073.079.144.03.114L52.2,37.4l-.028-.062.011-.015m-18.25,7.54c.007-.022.006-.043.01-.064,0,.226-.05.244-.01.064M21.356,47.4l.008,0-.071.055c.025-.014.04-.041.063-.058m16.8-24.451,0,0Zm-2.793-11.5-.009.018-.228-.032a1.334,1.334,0,0,0,.237.014M27.52,8.8l-.125.014a1.114,1.114,0,0,0,.123-.033l0,.019m-6.7.679L20.8,9.439l.029-.009c.042,0,.048.011,0,.053m-1.773.483a1.023,1.023,0,0,0,.281.011,13.439,13.439,0,0,0,1.593-.293,1.081,1.081,0,0,0,.7-.5l.011-.01a8.347,8.347,0,0,1,2.035-.414c1.1-.059,2.19,0,3.284.043a1.286,1.286,0,0,0,.227.047,11.918,11.918,0,0,1,2.574.379,9.973,9.973,0,0,0,1.293.391l.2.018c1.076.512,2.191.874,3.248,1.485.578.473,1.276.764,1.885,1.219a.949.949,0,0,0,.076.091c.487.416.947.853,1.4,1.309.489,1.071,1.643,1.985,2.155,2.992.421.829.91,1.7,1.349,2.523.162.664.478,1.29.638,1.969.063.277.116.568.173.859h-.016a9.259,9.259,0,0,0-1.189.151,2.938,2.938,0,0,0-.534.047,1.812,1.812,0,0,0-1.434-.049c-.045.017-.084.041-.128.059-.018,0-.034-.011-.053-.012-.565-.033-1.116-.134-1.671-.183a5.022,5.022,0,0,0-.613-1.815,1.412,1.412,0,0,0-.223-.262c-.249-.6-.531-1.178-.84-1.751a1.006,1.006,0,0,0-.168-.362,7.06,7.06,0,0,0-1.6-1.779c-.02-.013-.041-.013-.06-.025a10.676,10.676,0,0,0-4.157-2.429c-.042-.054-.084-.107-.125-.162a1.275,1.275,0,0,0-.564-.329l-.455-.176a1.492,1.492,0,0,0-.29-.075c-.069-.012-.138-.014-.207-.023-.017-.006-.031-.016-.047-.02-.115-.018-.229-.028-.342-.043v0l-.011,0c-.229-.031-.457-.064-.689-.086l-.34.045a.957.957,0,0,0-.434.229.635.635,0,0,0-.23.229l-.006.009c-.053-.01-.109-.01-.163-.016a1.6,1.6,0,0,0-.791-.071c-.8.131-1.586.183-2.374.328a4.121,4.121,0,0,0-2.456.7,12.536,12.536,0,0,0-6.486,6.2,1.283,1.283,0,0,0-.351.537c-.092.285-.179.568-.265.853-.014.008-.03.006-.045.014-.085.066-.173.133-.258.2a1.281,1.281,0,0,0-.33.565c-.094.282-.184.568-.266.855a1.257,1.257,0,0,0,.1.909c-.01.085-.018.176-.024.264a3.836,3.836,0,0,0-.373,1.381,1.307,1.307,0,0,0-.051.123c-.016.114-.031.227-.045.341a1.226,1.226,0,0,0,.042.32c0,.144-.012.293-.013.429a30.439,30.439,0,0,0-.156,3.844,1.222,1.222,0,0,0,.058.207c-.008.064-.017.127-.027.192a.436.436,0,0,0,.007.065c.006.081.012.163.019.245.023.283.047.566.068.849,0,.027.017.048.018.073s-.012.044-.012.071c.006.309.051.606.081.907a1.073,1.073,0,0,0-.2.228l-.127.306a1.292,1.292,0,0,0,0,.681,17.237,17.237,0,0,0,.322,1.794,5.229,5.229,0,0,0,.45,1.007c.112.223.236.44.363.653a1.241,1.241,0,0,0,.215.246,15.163,15.163,0,0,0,1.294,3.066.132.132,0,0,1-.01.017,1.285,1.285,0,0,0,.131.987c.148.225.3.446.462.662.134.179.272.357.411.533.008.009.019.011.027.02a1.365,1.365,0,0,0,.135.175,12.209,12.209,0,0,0,.849.925,1.363,1.363,0,0,0,.565.33l.34.045a.953.953,0,0,0,.465-.1,12.691,12.691,0,0,0,1.229.878.993.993,0,0,0,.016.352l.131.306a1.267,1.267,0,0,0,.458.46c.307.147.626.275.941.4l0,0h0c.1.041.2.091.307.13a.975.975,0,0,0,.51.023.955.955,0,0,0,.475-.152l.187-.144c.084.027.166.058.251.083-.27-.081-.363-.122.11.049a8.151,8.151,0,0,0,2.55.406l.065,0h0a.072.072,0,0,0,.016,0c.1,0,.207.007.312.012a1.2,1.2,0,0,0,1.025.56,13.934,13.934,0,0,0,1.968-.227l.066-.009.056-.008.008,0,.017,0c.062-.011.123-.027.184-.04a12.87,12.87,0,0,0,2.588-.827c.021-.009.042-.015.064-.025h0c.1-.045.2-.08.3-.127.042-.02.065-.058.1-.082a5.623,5.623,0,0,0,.861-.533c.023-.013.048-.022.071-.035l-.008-.01c.085-.066.185-.115.266-.19l0-.007a8.714,8.714,0,0,0,1.138-.842,1.2,1.2,0,0,0,.357-.993c0-.012,0-.024,0-.038a4.34,4.34,0,0,0,.916-.873c.012-.012.025-.017.038-.03l.033-.045a1.286,1.286,0,0,0,.556-.308,2.2,2.2,0,0,0,.412-.593,1.039,1.039,0,0,0,.19-.256,17.959,17.959,0,0,0,1.441-3.89q.442.017.88-.008a1.238,1.238,0,0,0,.414.078l.1.006.029,0a.9.9,0,0,0,.239.018l1.174.062.169.009c.018,0,.032-.011.049-.011s.045.016.071.017l1.1.058a1.213,1.213,0,0,0,.2-.027c.028.006.049.016.075.019a17.719,17.719,0,0,1-5.616,9.745c-3.574,2.974-8.307,3.8-12.831,3.469a1.082,1.082,0,0,0-.9.32,16.477,16.477,0,0,1-2.1-.548,1.249,1.249,0,0,0-.7.007,21.049,21.049,0,0,1-6.289-3.423c-1.7-1.414-2.711-3.138-4.065-4.821a.757.757,0,0,0-.091-.079,5.56,5.56,0,0,1-.389-.6,8.6,8.6,0,0,0-.585-1.422,1.43,1.43,0,0,0-.165-.172,20.55,20.55,0,0,1-1-2.974,12.833,12.833,0,0,1-.577-2.537,2.216,2.216,0,0,0,.045-.63,1.218,1.218,0,0,0-.28-.663c-.087-.367-.084-.855-.133-1.233.018-.564-.029-1.143.022-1.7a1.147,1.147,0,0,0,.18-.619,3.323,3.323,0,0,0-.133-1.15c.061-2.56.156-5.4,1.339-7.689a1.306,1.306,0,0,0,.14-.719c.034-.1.07-.208.1-.307a1.319,1.319,0,0,0,.041-.423,1.753,1.753,0,0,0,.177-.23.334.334,0,0,0,.02-.04c.087-.2.169-.4.247-.608,0-.018,0-.034,0-.052a2.012,2.012,0,0,0,.195-.265,8.91,8.91,0,0,0,.4-.921,3.707,3.707,0,0,0,.714-1.152,8.845,8.845,0,0,0,.977-1.345,1.065,1.065,0,0,0,.188-.466,16.351,16.351,0,0,1,8.075-5.6m77.572,28.5v.009h0l0-.009M92.2,21.066l-.013.019.019-.03-.006.011m.072,4.178,0,0v-.007l0,0m.413,26.374c-.188-.011-.38-.027-.569-.033,0-.231,0-.463-.018-.692a.992.992,0,0,0-.058-.176.686.686,0,0,0,0-.142v-.025a1.285,1.285,0,0,0,.228-.434q.02-.063.043-.126a.718.718,0,0,1,.029-.076.936.936,0,0,0,.068-.4v-.138c0-.019-.008-.034-.008-.052s.008-.023.008-.037v-.328a.972.972,0,0,0-.111-.494.962.962,0,0,0-.264-.412l-.1-.073a1.274,1.274,0,0,0-.009-.128,2.195,2.195,0,0,1-.037-.554A2.06,2.06,0,0,0,92,46.378c-.013-.876.009.816.05-.336A1.08,1.08,0,0,0,92,45.7a20.952,20.952,0,0,0,.112-3.75,1.351,1.351,0,0,0,.034-.437.9.9,0,0,0,.149-.233.968.968,0,0,0,.111-.493v-.411a1.3,1.3,0,0,0-.174-.647c-.027-.048-.075-.073-.106-.114.006-.076.01-.153.01-.234.008-.034.009-.07.014-.1h0a1.3,1.3,0,0,0-.023-.509c-.016-.035-.03-.071-.045-.107-.031-.289-.11-1.064-.13-.618a4.848,4.848,0,0,0-.008-1.421,1.072,1.072,0,0,0-.081-.216.727.727,0,0,0,.033-.112l.135-.1a.962.962,0,0,0,.264-.412.972.972,0,0,0,.111-.494V34.41a1.352,1.352,0,0,0-.174-.656c-.086-.2-.177-.391-.277-.58.016-.231.019-.463.028-.693.014-.013.035-.017.049-.031a1.327,1.327,0,0,0,.374-.906v-.576c0-.017-.006-.032-.006-.05s.006-.021.006-.032V30.3a1.287,1.287,0,0,0-.329-.845l.155-.2a1.291,1.291,0,0,0,.174-.646V28.12l-.047-.34a.938.938,0,0,0-.228-.436.649.649,0,0,0-.229-.229c-.007,0-.014-.006-.02-.01.006-.142,0-.289,0-.44.05-.04.1-.079.153-.118a1.435,1.435,0,0,0,.374-.9v-.6a.968.968,0,0,0-.111-.493c0-.018-.021-.028-.029-.044a1.215,1.215,0,0,0,.14-.547v-.624a1.071,1.071,0,0,0-.027-.126,3,3,0,0,0-.045-.419,3.221,3.221,0,0,0,.022-.62,1.543,1.543,0,0,0-.175-.646l-.043-.055a.7.7,0,0,0,.058-.081l.008-.014c.021-.051.064-.155.064-.156l.064-.153,0,0c.039-.121.084.327.048-.348l0-.063-.007-.086a.81.81,0,0,0,.033-.145v-.112a1.291,1.291,0,0,0-.174-.646c-.02-.035-.055-.053-.078-.085.022-.032.058-.05.078-.084a1.3,1.3,0,0,0,.174-.647V18.56a1.131,1.131,0,0,0-.26-.727c.028-.037.058-.073.086-.111a1.291,1.291,0,0,0,.174-.646v-.044h0c0-.017-.01-.031-.01-.048s.01-.053.01-.081v-.623c0-.009,0-.016,0-.023s0-.024,0-.038V15.7c0-.023-.014-.042-.016-.065s.014-.073.016-.112v-.333l-.043-.321,0-.01c0-.018-.008-.034-.008-.053a1.321,1.321,0,0,0,.049-.345v-.539l-.047-.34-.081-.2a1.26,1.26,0,0,0,.127-.533v-.923l-.047-.34a.949.949,0,0,0-.2-.375,1.215,1.215,0,0,0,.244-.76v-.079h.5a1.033,1.033,0,0,0,.13-.027,1.057,1.057,0,0,0,.138.027h3.351a1.191,1.191,0,0,0,.4.579,1.513,1.513,0,0,0,.065.231c-.017.044-.041.085-.053.131l0,.007v0a1.358,1.358,0,0,0-.045.338c0,.028,0,.055,0,.083v.009c.012.092.025.188.038.281a33.771,33.771,0,0,0-.107,3.877,12.3,12.3,0,0,0,.037,2.692,2.607,2.607,0,0,0,.009.343l0,0a1.258,1.258,0,0,0,.031,1.1c-.01.386-.019.772-.033,1.16,0,.1-.062.916.035.993a1.041,1.041,0,0,0-.116.258c-.012.061-.027.123-.041.184a1.257,1.257,0,0,0,.081.791c-.069,0-.009.264.053.495-.014.1-.038.2-.052.3a1.119,1.119,0,0,0-.231.719,2.6,2.6,0,0,0,.174.819,10.324,10.324,0,0,1-.047,3.328,1.149,1.149,0,0,0,.138,1.009c-.006.05-.018.1-.02.151v.029a.923.923,0,0,0,.012.124c0,.023.012.041.014.063a2.7,2.7,0,0,0,.012.807,2.921,2.921,0,0,0,0,.311,3.4,3.4,0,0,0-.116,1,1.093,1.093,0,0,0,.164.581,29.057,29.057,0,0,1-.128,4.225,1.311,1.311,0,0,0-.186.394,4.286,4.286,0,0,0-.134.936,1.08,1.08,0,0,0,.361.892c.04.633.031,1.251.052,1.907a1.088,1.088,0,0,0-.037.3c.049.61-.035,1.21-.044,1.814a1.345,1.345,0,0,0-.06.8,4.4,4.4,0,0,1,.074,1.122,4.562,4.562,0,0,0,.045,1.208.919.919,0,0,0-.02.144l.012.721a2.734,2.734,0,0,0-.091.827,20.767,20.767,0,0,0,.06,2.1,1.747,1.747,0,0,0,.122.446,1.5,1.5,0,0,0-.031.644,1.122,1.122,0,0,1,.011.28,3.774,3.774,0,0,1-.469.021,1.288,1.288,0,0,0-1.016-.175l-.107.027c-.207-.069-.423-.123-.628-.176h0l-.2-.059,0,.02a2.4,2.4,0,0,0-.338-.066,1.182,1.182,0,0,0-.273.037,3.526,3.526,0,0,0-1.228.056M41.977,56.225c.021-.023.044-.043.064-.066-.289.322-.189.2-.064.066" transform="translate(0 0.442)" fill="#f5f"/>
              <path id="Path_2" data-name="Path 2" d="M74.165,41.471l-.075-.074c-.018-.014-.038-.025-.054-.041-.008,0,.039.051.13.115" transform="translate(7.942 4.436)" fill="#f5f"/>
              <path id="Path_3" data-name="Path 3" d="M68.056,33.172a1.347,1.347,0,0,0-.55-.688,1.56,1.56,0,0,0-.355-.63,12.783,12.783,0,0,0-.482-1.622,8.484,8.484,0,0,0-.587-1.669,1.248,1.248,0,0,0-.336-.784c-.074-.258-.147-.514-.23-.767.006-.04.021-.075.023-.117s0-.073.006-.111a1.1,1.1,0,0,0-.3-.826,1.46,1.46,0,0,0-.128-.886l-.076-.145a1.082,1.082,0,0,0-.257-.309c-.04-.093-.082-.2-.117-.291-.058-.145-.109-.3-.157-.446-.059-.18-.065-.647-.147-.149a1.369,1.369,0,0,0-.348-1.164l0-.009a1.77,1.77,0,0,0-.1-.276,1.7,1.7,0,0,0-.1-.438,3.521,3.521,0,0,0-.1-.416,1.26,1.26,0,0,0-.3-.493c-.168-.585-.334-1.169-.522-1.748,0-.017.012-.029.016-.048a2.6,2.6,0,0,0-.023-1.021,1.153,1.153,0,0,0-.765-.832c-.011-.059-.021-.117-.033-.176-.024-.1-.07-.18-.1-.271a1.267,1.267,0,0,0-.145-.529.5.5,0,0,1-.04-.189,1.272,1.272,0,0,0-.237-.92,1.121,1.121,0,0,0-.481-.815,1.248,1.248,0,0,0-1.5-.118,1.261,1.261,0,0,0-.77.84s0,.031-.009.069a1.156,1.156,0,0,0-.26.789c0,.106,0,.211,0,.316a.786.786,0,0,0-.072.1c-.054.109-.1.219-.148.331a1.435,1.435,0,0,0-.07.664l0,.012a1.138,1.138,0,0,0-.306.56,1.23,1.23,0,0,0-.345.427,1.422,1.422,0,0,0-.117.421,2.415,2.415,0,0,0-.27.838c-.007.013-.013.032-.02.045l.015,0v0a1.9,1.9,0,0,0-.158.293,1.793,1.793,0,0,0-.146.671c-.022.06-.047.12-.064.18a.618.618,0,0,0-.059.256l-.007.006-.106.082c-.006.006-.012.007-.017.011l-.032.028-.1.08a1.271,1.271,0,0,0-.33.565v0l-.006.014-.014.044,0,.013c0,.01,0,.007,0,.006v.021c0,.007-.009.011-.011.019-.019.058-.039.115-.059.172a.965.965,0,0,0-.022.51.947.947,0,0,0,.128.405,1.206,1.206,0,0,0-.163.468c-.043.085-.092.167-.131.26a1,1,0,0,0-.074.375c-.123.32-.238.641-.381.954q-.047.091.01.037.169-.133-.173.238a2.142,2.142,0,0,0-.084.235,1.256,1.256,0,0,0-.089.114l-.162.124a1.335,1.335,0,0,0-.2.258h0a1.361,1.361,0,0,0-.128.306c-.024.071-.049.143-.074.215a.965.965,0,0,0-.022.51.879.879,0,0,0,.053.166,1.191,1.191,0,0,0-.033.733,2.378,2.378,0,0,0-.21.454.632.632,0,0,0-.242.142.643.643,0,0,0-.23.229.973.973,0,0,0-.229.435c-.042.126-.085.251-.128.376a1.277,1.277,0,0,0,0,.849v0l-.215.166a1.279,1.279,0,0,0-.329.565c-.034.1-.07.2-.1.3v.012c0,.011-.01.02-.013.032l-.106.308a1.33,1.33,0,0,0-.035.416c-.01.016-.029.021-.039.037a.951.951,0,0,0-.229.435l-.076.223-.011.032a.965.965,0,0,0-.008.169.975.975,0,0,0-.038.171c0,.041.022.074.025.114,0,.019-.007.038,0,.056a1.014,1.014,0,0,0,.051.158,1.044,1.044,0,0,0,.037.165c.007.019.024.03.032.049s.012.072.033.1c.027.051.078.078.112.122a.993.993,0,0,0,.087.137l.259.2a1.035,1.035,0,0,0,.121.051,1.515,1.515,0,0,0,.189.326,1.305,1.305,0,0,0,.906.374h1.279c.034,0,.071-.018.105-.021.091-.009.187-.018.283-.033.032,0,.064.011.1.013a2.616,2.616,0,0,0,.5-.055l.013-.007a.915.915,0,0,0,.453.08l.017,0a1.107,1.107,0,0,0,.147.025,13.409,13.409,0,0,0,1.61-.031,1.345,1.345,0,0,0,.242.031h.024l.035,0c.012,0,.023,0,.035,0h.347s.008,0,.012,0l.018,0h.289c.017,0,.032-.009.049-.01s.031.01.05.01h5.969c.25,0,.555.021.845,0h.42a1.291,1.291,0,0,0,1.235-1.62c-.055-.159-.11-.319-.164-.479M56.963,24.127l-.017.01-.156-.122a1.243,1.243,0,0,0,.173.112m2.076-8.763,0,.033-.013,0v-.03h.011M56.864,20.83a.508.508,0,0,1-.04.18c.013-.056.024-.1.04-.18m-.084.257,0,.016a.879.879,0,0,0-.1.061l.1-.076" transform="translate(5.61 1.51)" fill="#f5f"/>
              <path id="Path_4" data-name="Path 4" d="M55.781,21.175c0-.011,0,0,0,0" transform="translate(5.984 2.271)" fill="#f5f"/>
              <path id="Path_5" data-name="Path 5" d="M200.539,29.7a1.274,1.274,0,0,0,.853-.386,1.323,1.323,0,0,0,.7-.176,6.741,6.741,0,0,0,2.242-.434,6.332,6.332,0,0,0,1.532-.691,1.316,1.316,0,0,0,.287-.187,1.268,1.268,0,0,0,.789-.644,6.081,6.081,0,0,0,.773-.7.851.851,0,0,0,.1-.044l.092-.065a1.326,1.326,0,0,0,.576-.916h0a1.29,1.29,0,0,0,.665-.8c.012-.058.025-.115.038-.172a1.518,1.518,0,0,0,.013-.561c.045-.187.083-.35.085-.371s.013-.037.02-.062c.094-.327.127-.992.189-1.122a1.3,1.3,0,0,0,.028-1.155l0-.04a1.666,1.666,0,0,0-.006-.426,1.446,1.446,0,0,0,0-.589c0-.09-.008-.18-.018-.272a1.47,1.47,0,0,0-.287-.739,7.28,7.28,0,0,0-.431-1.546,3.421,3.421,0,0,0-.2-.445q-.131-.334-.064.115a1.259,1.259,0,0,0-.1-.479,1.63,1.63,0,0,0-.313-.912,1.354,1.354,0,0,0-1.216-.58,2.321,2.321,0,0,0-.907-.7,1.277,1.277,0,0,0-.272-.163,3.025,3.025,0,0,1-.478-.257,1.221,1.221,0,0,0-.978-.5,1.333,1.333,0,0,1-.312-.031,1.3,1.3,0,0,0-.89-.2c-.027-.007-.05-.02-.077-.024l-.328-.044a1.474,1.474,0,0,0-.262-.125,1.365,1.365,0,0,0-.447-.091c-.338,0-.464-.1-.089.239a1.269,1.269,0,0,0-1.246-.329,1.609,1.609,0,0,1-.258.08,1.159,1.159,0,0,0-.509.027c-.08.024-.436-.09-.554-.087a1.312,1.312,0,0,0-.564.155h-.006c-.041,0-.08.016-.12.021a1.239,1.239,0,0,0-.662-.09,2.2,2.2,0,0,0-.8-.244,1.035,1.035,0,0,0-.365.037,1.768,1.768,0,0,0-.73.024c-.113-.008-.244-.021-.261-.019-.042-.007-.084-.019-.125-.022a2.085,2.085,0,0,0-.822.076c-.083,0-.167-.006-.25,0-.144.014-.228.025-.28.034-.011,0-.022,0-.033,0s-.03-.034-.051-.045-.049-.027-.072-.04l-.048-.03-.025-.017-.013-.008-.306-.13a1.348,1.348,0,0,0-.424-.045c-.018,0-.025,0-.041,0l-.013,0h-.2a1.428,1.428,0,0,0-.906.375l-.055.071a1.384,1.384,0,0,0-.5-.063l-.079-.008a2.19,2.19,0,0,0-.564.032c-.014,0-.025.016-.04.019-.29-.024-.578-.064-.873-.072a1.313,1.313,0,0,0-1.28,1.28c.085-.737-.043.027-.079.27a1.03,1.03,0,0,0-.051.229c-.017.021-.033.043-.051.064a1.276,1.276,0,0,0-.174.647v.248a1.269,1.269,0,0,0,.174.646c.023.042.065.063.092.1,0,.016,0,.03,0,.045v0h0a1.334,1.334,0,0,0,.135.543,1.119,1.119,0,0,0,.05.111c-.041-.076-.042-.08.011.149a1.393,1.393,0,0,0-.059.571.657.657,0,0,0-.133.133.641.641,0,0,0-.165.282.971.971,0,0,0-.11.494v.426a1.338,1.338,0,0,0,.217.811c.039.054.084.1.124.158l-.167.216a1.273,1.273,0,0,0-.174.647v.348l0,.024a.2.2,0,0,0,0,.025v.355a1.267,1.267,0,0,0,.117.512,1.3,1.3,0,0,0-.072.172v0a1.262,1.262,0,0,0-.045.338v.291c.014.113.03.227.045.34.043.1.086.2.128.306l.083.107a1.251,1.251,0,0,0-.257.745v1.394c0,.032.017.068.02.1v0c.01.109.023.225.044.34a1.2,1.2,0,0,0-.014.26,1.318,1.318,0,0,0,.07.4,1.034,1.034,0,0,0-.1.481c0,.04.008.081.012.121a4.7,4.7,0,0,0-.035.6,1.3,1.3,0,0,0,1.28,1.28c.34,0,.681.012,1.021,0a1.736,1.736,0,0,0,.228-.03,1.31,1.31,0,0,0,.23.03h.027c.014,0,.027,0,.04,0s.025,0,.039,0h.376s.009,0,.013,0l.02,0h.314c.018,0,.035-.01.053-.011s.034.011.054.011c2.811,0,5.629.061,8.441-.009m-9.183-15.58c.029-.061.058-.122.085-.183a1.345,1.345,0,0,0-.061.207.252.252,0,0,0-.024-.024M208.407,25.58c-.034.113-.059.132,0,0m-1.248-10.231c-.07-.009-.137,0-.206-.008a.21.21,0,0,1,.022-.022l.184.03m-4.224-1.891h0c-.017,0-.032,0-.05,0l.05,0m-6.985-.438-.007,0-.016-.006.022,0" transform="translate(20.21 1.367)" fill="#f5f"/>
              <path id="Path_6" data-name="Path 6" d="M280.774,42.931c-.11-2.246.041-4.5-.075-6.744-.053-1-.23-1.891-.239-2.9-.013-1.441-.023-2.886,0-4.326.03-1.913-.186-3.811-.258-5.723-.09-2.4-.066-4.808-.089-7.228-.011-1.266-.138-2.528-.188-3.8-.056-1.374.087-2.753.031-4.116-.074-1.858.051-3.485-1.009-5.154A5.529,5.529,0,0,0,274.166,0,12.472,12.472,0,0,0,272.5.339a11.625,11.625,0,0,1-1.435.017,15.328,15.328,0,0,1-2.138-.207,6.759,6.759,0,0,0-5.216,1.289,5.619,5.619,0,0,0-3.441-.98c-1.209.024-1.782.069-2.775.048-1.444-.03-2.867.059-4.3.055-1.877,0-3.741,0-5.619.06-1.6.048-3.183.348-4.776.392-2.139.059-4.3.08-6.44.1a13.365,13.365,0,0,1-1.514-.093,14.812,14.812,0,0,0-2.734.217,10.4,10.4,0,0,0-3.943.641,5.175,5.175,0,0,0-2.858,4.4,19.131,19.131,0,0,0,.042,1.949,11.956,11.956,0,0,0-2.16-2.4A13.507,13.507,0,0,0,221,4.3c-.64-.313-1.385-.316-2-.577-.556-.238-1.063-.68-1.644-.92a6.009,6.009,0,0,0-1.084-.35c-.2-.042-.4-.073-.6-.1q-.854.086-.391-.09a16.206,16.206,0,0,0-4.73-.777c-1.281.017-2.383.286-3.6.287-.818,0-1.611.07-2.419.1.817-.027-.25-.092-.358-.092-.357,0-.7.109-1.051.125-1.063.049-2.217-.042-3.307-.008-2.207.069-4.443.078-6.65.234-2.475.175-5.05.252-6.406,2.415a5.236,5.236,0,0,0-4.656-2.169,4.4,4.4,0,0,0-1.81.447c-.282.166-.268.208-.258.216a1.053,1.053,0,0,0-.327,0,20.8,20.8,0,0,1-2.7-.269c-2.165-.086-4.455.343-6.825-.045-.929-.152-1.81.034-2.722-.049a6.7,6.7,0,0,0-3.01.438,26.458,26.458,0,0,0-3.534-.2,14.826,14.826,0,0,0-2.2-.061c-.19.025-.384.075-.575.091-.543.045-.332-.063-.13-.033a12.122,12.122,0,0,0-6.729.929c-1.48-.6-2.929-.4-4.565-.37-1.594.03-3.177.176-4.772.159a5.785,5.785,0,0,0-4.468,1.639c-1.079,1.137-1.27,2.651-1.816,4.043-1.231,3.145-2.052,6.45-3.179,9.634a44.759,44.759,0,0,0-2.306,7.246,17.7,17.7,0,0,1-.8,2.888c-1.327-3.593-2.931-7.124-4.325-10.659-.935-2.371-1.663-4.832-2.7-7.15-.713-1.6-.886-3.2-2-4.653A5.6,5.6,0,0,0,116,4.064a6.039,6.039,0,0,0-2.568.56c-.283.123-.216.134-.125.124a1.587,1.587,0,0,1-.4.01c-.462-.048-.9-.239-1.386-.281-.751-.066-1.569.043-1.97.017a8.674,8.674,0,0,0-2.233.121,5.16,5.16,0,0,0-4.067,4.276c-.272,1.86.706,3.1,1.191,4.772.278.952.4,1.879.751,2.825a11.225,11.225,0,0,0,1.418,2.975A8.415,8.415,0,0,0,107,21.232c.3.844.554,1.757.93,2.569.311.668.365,1.169.706,1.973s.793,1.531,1.149,2.319c.724,1.6,1.277,3.27,1.945,4.878.611,1.473.712,2.144,1.384,3.712,1.107,2.577,2.12,5.289,3.189,7.848.326.78.586,1.56.857,2.361a11.04,11.04,0,0,0,.576,1.474c.085.168.219.354.334.535a1.017,1.017,0,0,0,.043.447,36.757,36.757,0,0,0,1.8,4.921,8.413,8.413,0,0,0,1.838,3.243,6.1,6.1,0,0,0,5.023,1.315c2.584-.311,5.157-.117,7.743-.365a5.265,5.265,0,0,0,4.441-2.97c.492-1.053.7-2.229,1.171-3.292a41.7,41.7,0,0,0,1.625-5.43c.5-1.731,1.153-3.464,1.694-5.2,1.4-4.491,3.654-8.861,4.59-13.463a26.035,26.035,0,0,1,.968-3.3q.118,2.729.184,5.462c.084,3.338.184,6.654.138,9.99-.045,3.436.561,6.863.466,10.278-.082,2.917.143,6.052,3.365,7.177,2.053.716,4.7.1,6.826.094a27.091,27.091,0,0,0,3.038.1c1.6-.184,3.192-.4,4.825-.488,1.457-.079,2.882.081,4.347-.056a36,36,0,0,1,3.706-.111c2.243.025,4.489-.1,6.734-.1,2.222.007,4.472-.4,5.831-1.892a6.7,6.7,0,0,0,5.242,1.814c.781-.034,1.525-.257,2.293-.328.845-.079,1.71.019,2.559-.055a7.76,7.76,0,0,0,4.057-1.07c2.527-1.806,2.129-4.687,2-7.388-.069-1.425-.149-2.977-.09-4.395.064-1.485.229-2.87.195-4.323,1.308-.039,2.637-.01,3.932-.06a12.3,12.3,0,0,1,3.369.206,81.554,81.554,0,0,1,1.022,8.229c.2,2.186.052,4.874,1.576,6.613,1.878,2.143,4.571,1.735,7.119,1.753,2.3.017,4.979.149,7.032-.99a12.957,12.957,0,0,0,4.466.537c2.4.056,4.818-.074,7.214-.1,2.878-.032,5.707-.058,8.55-.182,2.9-.126,5.813-.312,8.722-.416,2.814-.1,5.712.451,7.839-1.382a7.588,7.588,0,0,0,4.285,1.061,41.192,41.192,0,0,0,5.2.093c1.333-.123,3.051-.2,4.335-1.46,1.453-1.429,1.417-3.055,1.538-4.949,0-1.835-.066-3.7-.155-5.54M253.589,10s.011,0,.017,0c-.034.044-.068.089-.1.132a.864.864,0,0,0,.085-.132M236.576,39.1c-.009.078-.017.156-.027.235a1.077,1.077,0,0,0,.024-.237l0,0m-4.935,6.957-.05.114a.988.988,0,0,0,.034-.121l.016.007M192.829,15.7l-.007-.028c.062.047.124.094.184.142a.911.911,0,0,0-.177-.114m-.044-.058,0,.025,0-.025m28.438,18.932h0a1.6,1.6,0,0,0-.033.2l.033-.2m-21.79.414a1.188,1.188,0,0,0-.861.168,1.364,1.364,0,0,0-.588,1.446c.13.835-.145,1.7,0,2.551a.816.816,0,0,0,.046.142c0,.419.019.835.052,1.257a6.1,6.1,0,0,0,.058.682.853.853,0,0,1-.009.322,1.873,1.873,0,0,0-.048,1.276,14.525,14.525,0,0,0-.35,2.246,1.108,1.108,0,0,0,.043.214,6.122,6.122,0,0,0,.058,2.344c-.024.611-.028,1.22-.06,1.833a1.069,1.069,0,0,0-.021.116,7.66,7.66,0,0,0,.079,1.747c0,.179,0,.358,0,.536-.454.014-.908.012-1.362.023a1.284,1.284,0,0,0-.382-.189,6.211,6.211,0,0,0-.834-.14h-.254c-.027,0-.052.009-.077.011s-.052-.011-.079-.011h-.6l-.341.047a1.269,1.269,0,0,0-.565.329c-.042.053-.082.107-.124.161a1.063,1.063,0,0,0-.228-.076c0-.207,0-.414,0-.621a1.385,1.385,0,0,0,.1-.3,4.514,4.514,0,0,0-.03-.774c.03-.158.066-.424.068-.479a1.666,1.666,0,0,0-.052-.692h0c.131-2.377.221-4.833.122-7.209a.937.937,0,0,0,.069-.473c-.033-.266-.055-.533-.081-.8l.136-.176a1.293,1.293,0,0,0,.176-.646V39.1a1.287,1.287,0,0,0-.334-.85,3.445,3.445,0,0,0,.086-1.373c0-.037.014-.071.014-.109-.009-.056-.017-.113-.023-.171l-.023-.169a.783.783,0,0,0-.032-.076c-.034-.251-.07-.495-.089-.72-.1-1.107.141-1.56-.023-2.873a1.356,1.356,0,0,0-.051-.174v-.006a.806.806,0,0,0,.021-.215l-.013-.216q-.018-.379-.023-.758c0-.019-.011-.034-.011-.054s.017-.044.018-.072c.011-.187.008-.375.013-.564a1.238,1.238,0,0,0,.471-.954V28.542c0-.138,0-.278,0-.416a4.773,4.773,0,0,0-.208-1.005c-.05-.19-.1-.379-.157-.566a1.274,1.274,0,0,0-.1-.2c.023-.85.069-1.7.048-2.551a1.286,1.286,0,0,0,.42-.927V21.816a.854.854,0,0,0-.013-.093c0-.021.013-.038.013-.059V20.583a1.339,1.339,0,0,0-.176-.647,1.237,1.237,0,0,0-.5-.456c0-.307.007-.61.01-.916a.946.946,0,0,0,.291-.188l.2-.259a1.3,1.3,0,0,0,.176-.646V16.58a.969.969,0,0,0-.112-.493.941.941,0,0,0-.265-.412l-.258-.2c-.013-.009-.029-.006-.042-.013a12,12,0,0,0,.125-2.158c.008-.091.008-.183.014-.273a1.248,1.248,0,0,0,.537-1.007V10.609h.267c.033,0,.063-.018.1-.02a6.179,6.179,0,0,0,.812-.044c.034-.006.068-.012.1-.017a10.222,10.222,0,0,0,1.136.03,1.412,1.412,0,0,0,.954-.45,4.016,4.016,0,0,0,.8.08c.011,0,.024.007.038.011a1.376,1.376,0,0,0,.446.3,1.85,1.85,0,0,0,.763.072,12.935,12.935,0,0,0,3.249.034,21.871,21.871,0,0,0,2.747-.055,1.266,1.266,0,0,0,.36.055h.083l.115-.016c.039,0,.076.016.117.016h1.159c.016,0,.029-.01.045-.01s.037.01.058.01h.947a1.22,1.22,0,0,0,.171-.031,1.181,1.181,0,0,0,.156.031c3.821,0,7.692.337,10.886,2.659,3.446,2.5,4.729,6.722,4.239,10.839a1.053,1.053,0,0,0,.235.861,10.714,10.714,0,0,1-.57,1.345,1.469,1.469,0,0,0-.147.72l0,.006a10.439,10.439,0,0,1-4.772,4.317c-1,.42-1.41,2.239,0,2.469a7.259,7.259,0,0,1,1.067.254l.056.017.053.024c.376.173.731.384,1.126.522a1.1,1.1,0,0,0,.134.024,2.011,2.011,0,0,1,.384.227c.3.272.432.674.763.931a1.5,1.5,0,0,0,.162.1,6.7,6.7,0,0,1,.9,2.025,8.079,8.079,0,0,1,.443,2.209,2.213,2.213,0,0,0-.136.76,1.121,1.121,0,0,0,.194.609,3.605,3.605,0,0,0,.111.853c.016.075.034.143.053.211,0,.388.07.868.056,1.246a.969.969,0,0,0-.187.694,4.109,4.109,0,0,0,.162.958,1.545,1.545,0,0,0,.1.211A55.272,55.272,0,0,1,224.036,52c-.012,0-.014-.007-.027-.009h0c-.024-.006-.317-.044-.343-.047h-.027c-.093,0-.186.007-.279.013-.025,0-.045.014-.073.015a5.046,5.046,0,0,0-.553-.052,5.514,5.514,0,0,0-.764.054,3.774,3.774,0,0,0-1.218,0,5.57,5.57,0,0,0-1.393-.1,1.132,1.132,0,0,0-.215.039c-.12-1.761-.226-3.522-.36-5.283-.022-.279-.043-.557-.066-.836-.208.1-.251.065-.127-.11,0-.22.1-.486.117-.727a7.4,7.4,0,0,0-.043-.8,3.491,3.491,0,0,0,.12-1.566,1.341,1.341,0,0,0-.329-.8.684.684,0,0,0-.042-.083.616.616,0,0,0-.043-.051,8.246,8.246,0,0,0-1.871-4.624,1.147,1.147,0,0,0-.4-.441,9.608,9.608,0,0,0-3.787-1.405,8.778,8.778,0,0,0-3.3-.236l-.009,0a10.455,10.455,0,0,0-2.211.056,1.217,1.217,0,0,0-.161-.024L205.114,35a3.577,3.577,0,0,0-1.071-.106c-.84.008-1.869.038-2.444,0a7.928,7.928,0,0,0-2.167.105m8.326.285.045-.027c-.017.013-.023.032-.04.048l-.006-.021m23.8,16.634a.989.989,0,0,0-.1-.044,1.154,1.154,0,0,0-.246-.465,1.142,1.142,0,0,0-.084-.148c-.2-1.675-.4-3.492.35-4.852.011-.016.027-.023.038-.041.783-1.208,1.779-2.271,2.567-3.469a15.366,15.366,0,0,0,2.009-2.806A1.293,1.293,0,0,0,236.2,40a13.488,13.488,0,0,0,1.365-2.044,1.424,1.424,0,0,0,.106-.11c.3-.419.595-.837.891-1.257a9.217,9.217,0,0,0,1.823-2.471c.694-.982,1.442-1.953,2.068-2.96a9.406,9.406,0,0,0,1.122-1.524,10.136,10.136,0,0,0,1.175-1.582,1.4,1.4,0,0,0,.113-.3c.24-.326.472-.659.691-1A8.187,8.187,0,0,1,246.2,25.6a1.736,1.736,0,0,0,1.024-1.142c.009-.027.01-.05.018-.075.512-.553,1.07-1.023,1.545-1.6l.047-.048-.006,0c.07-.085.143-.164.206-.255a1.19,1.19,0,0,0,.066-.152,5.308,5.308,0,0,0,1.469-2.124.248.248,0,0,0,0-.03c.4-.527.792-1.062,1.209-1.578l-.021-.009a1.382,1.382,0,0,0,.22-.22,6.664,6.664,0,0,0,.947-1.446c.141-.2.28-.393.424-.587.609-.815-.221-1.91-1.1-1.927a6.877,6.877,0,0,0-.943,0c-.068.01-.415.051-.565.073-.411.023-.822.029-1.236.017a1.246,1.246,0,0,0-.447-.238c-.1-.013-.2-.031-.293-.049a3.881,3.881,0,0,0-.6-.091c-.1,0-.19,0-.287,0l-.1.01c-.025,0-.05-.01-.079-.01h-.678l-.341.045a1.285,1.285,0,0,0-.565.329l-.148.193a.944.944,0,0,0-.111-.025h-.019a1.72,1.72,0,0,0-.737-.062,13.282,13.282,0,0,1-2.058.028,1.559,1.559,0,0,0-.638-.148,1.254,1.254,0,0,0-.365.056.133.133,0,0,0-.021,0,4.017,4.017,0,0,0-1.372.012c-2.65-.125-5.334-.161-7.986-.117a1.358,1.358,0,0,0,.039-.293v-.848a1.285,1.285,0,0,0-.33-.844c-.007-.041-.013-.082-.021-.123a4.348,4.348,0,0,0,.113-1.624c0-.01,0-.018,0-.028l-.014-.105c-.01-.117-.02-.233-.032-.349a14.26,14.26,0,0,0,2.16-.029,1.323,1.323,0,0,0,.2-.052l.195.025c.021,0,.043,0,.064,0l.243-.012c.278-.012.558-.021.838-.022.021,0,.04-.013.062-.014s.049.018.081.02c.25.014.5.011.751.016a1.24,1.24,0,0,0,.953.467h1.355c.157,0,.312,0,.468,0a5.818,5.818,0,0,0,1.087-.208c.211-.049.425-.1.636-.156a1.157,1.157,0,0,0,.21-.1c1.011.021,2.024.083,3.035.05a1.285,1.285,0,0,0,.926.417h.8c.123,0,.246,0,.37,0,.031,0,.062-.016.092-.018s.066.018.1.018h1.215a1.3,1.3,0,0,0,.9-.375,1.541,1.541,0,0,0,.2-.3c.435,0,.866.01,1.3.013a.906.906,0,0,0,.184.287l.26.2a1.273,1.273,0,0,0,.646.175h1a1.428,1.428,0,0,0,.9-.375l.2-.259c.006-.008,0-.019.009-.027.066-.02.053-.029.025-.033a14.794,14.794,0,0,0,2.539.144c.146.011.291.013.437.022a1.246,1.246,0,0,0,1,.528h1.633v.577c0,.037.018.07.019.106a8.218,8.218,0,0,0,.044.906c0,.029.014.052.018.081-.024.434-.048.869-.031,1.305a1.4,1.4,0,0,0,.465.969c-.013.074-.023.148-.035.221-.054.075-.117.147-.167.228a1.007,1.007,0,0,0-.382.168,3,3,0,0,0-.631.67c-.958.688-1.844,2.47-2.364,3.187a20.97,20.97,0,0,0-1.751,2.5,1.248,1.248,0,0,0-.229.229l-.033.047-.019.024v0c-.019.032-.028.066-.043.1-.032.042-.084.064-.112.111l-.669.922c-.031.044-.064.087-.1.131-.009.013-.007.03-.014.043s-.039.03-.054.052c-.208.286-.415.572-.625.859-.023.034-.028.072-.048.107a1.494,1.494,0,0,0-.168.19q-7.732,10.648-15.467,21.3c-.019.027-.023.056-.039.083-.105.123-.209.259-.318.41a1.289,1.289,0,0,0,1.105,1.926h1.886a1.164,1.164,0,0,0,.951-.471c.741.025,1.487.14,2.242.2a1.181,1.181,0,0,0,.686-.2l.048-.009c2.324.141,4.648.153,6.976.134a54.9,54.9,0,0,0,6.75-.027c.014,0,.025-.01.04-.012.185-.008.366-.024.571-.045.139-.014.167-.033.148-.051l.111.023a3.966,3.966,0,0,0,1.68.062,1.1,1.1,0,0,0,.128-.05h.334c-.028,1.2-.051,2.4,0,3.6a2.584,2.584,0,0,0-.125.471l0,.013h0c-.017.105-.035.211-.044.313-.524-.039-1.051-.045-1.567-.114a1.144,1.144,0,0,0-.639-.194,3.138,3.138,0,0,0-1.08.156c-2.564.039-5.345.422-7.842-.029a1.324,1.324,0,0,0-.732.082,2.379,2.379,0,0,0-.293.008,1.255,1.255,0,0,0-.386.1l-.218-.009c-.01,0-.017-.01-.025-.011a2,2,0,0,0-.382-.049c-.1,0-.208.007-.31.013-.024,0-.043.013-.068.014a13.371,13.371,0,0,0-1.4.025l-.006,0a2.95,2.95,0,0,0-1.479-.042,6.947,6.947,0,0,0-1.545-.083,1.092,1.092,0,0,0-.527.147c-1.851-.017-3.7-.049-5.554-.074-1.5-.021-3.109.087-4.636-.032m42.057.275a1.291,1.291,0,0,0-1.018-.175l-.107.027c-.207-.069-.422-.123-.627-.176h0l-.2-.059,0,.02a2.383,2.383,0,0,0-.337-.066,1.209,1.209,0,0,0-.275.037,3.516,3.516,0,0,0-1.226.056c-.189-.011-.379-.027-.569-.033,0-.231,0-.463-.019-.692a.985.985,0,0,0-.056-.176.686.686,0,0,0,0-.142.2.2,0,0,1,0-.025,1.3,1.3,0,0,0,.228-.434c.011-.042.027-.084.041-.125s.019-.052.029-.078a.9.9,0,0,0,.07-.4V49.6c0-.019-.008-.033-.009-.052s.009-.023.009-.037v-.328a1.428,1.428,0,0,0-.375-.906l-.094-.073c-.007-.043,0-.084-.012-.128a2.358,2.358,0,0,1-.035-.553,2.052,2.052,0,0,0,.111-.919c-.014-.876.01.816.05-.336a1.051,1.051,0,0,0-.051-.345,20.853,20.853,0,0,0,.113-3.75,1.384,1.384,0,0,0,.035-.437.988.988,0,0,0,.148-.233.968.968,0,0,0,.111-.493V40.6a1.256,1.256,0,0,0-.176-.647c-.024-.048-.073-.073-.105-.114a2.29,2.29,0,0,0,.012-.234c.007-.034.008-.07.012-.1a1.3,1.3,0,0,0-.021-.51c-.017-.035-.031-.071-.047-.106-.03-.29-.111-1.065-.131-.619a5.422,5.422,0,0,0,0-1.392l0-.007c-.011-.123-.017-.246-.021-.37.034-.028.072-.055.107-.083a1.428,1.428,0,0,0,.375-.906v-.873a1.354,1.354,0,0,0-.176-.656c-.083-.2-.174-.391-.276-.58.017-.231.019-.463.028-.693.014-.013.034-.017.049-.031a1.333,1.333,0,0,0,.375-.9V31.2a.424.424,0,0,0-.008-.05.171.171,0,0,0,.008-.032V30.53a1.277,1.277,0,0,0-.33-.846c.052-.068.1-.134.154-.2a1.256,1.256,0,0,0,.176-.647v-.485c-.014-.113-.03-.227-.047-.34a.971.971,0,0,0-.229-.436.623.623,0,0,0-.229-.229c-.007-.006-.016-.007-.023-.012a3.982,3.982,0,0,0,0-.445,1.269,1.269,0,0,0,.53-1.015v-2.31a1.16,1.16,0,0,0-.029-.134,3.229,3.229,0,0,0-.044-.407,3.167,3.167,0,0,0,.022-.623,1.533,1.533,0,0,0-.226-.7,1.2,1.2,0,0,0,.252-.753c0-.028,0-.054,0-.082a1.182,1.182,0,0,0,.029-.213,16.385,16.385,0,0,0-.019-3.207,1.051,1.051,0,0,0,.019-.134v-.044h0c0-.017-.01-.031-.01-.048s.01-.053.01-.081V16.51c0-.01-.006-.018-.006-.027s.006-.022.006-.034v-.515c0-.04-.01-.074-.013-.112a.646.646,0,0,0,.013-.066V10.609h4.12a1.163,1.163,0,0,0,.32.519c-.021.107-.045.217-.062.321a1.487,1.487,0,0,0,.136.956,34.255,34.255,0,0,0-.1,3.741A12.3,12.3,0,0,0,274,18.839a2.616,2.616,0,0,0,.011.343v0a1.262,1.262,0,0,0,.03,1.1c-.008.386-.018.772-.032,1.16,0,.1-.06.916.037.993a.931.931,0,0,0-.115.258c-.014.061-.028.123-.042.184a1.257,1.257,0,0,0,.081.791c-.07,0-.009.264.053.495-.014.1-.039.2-.053.3a1.132,1.132,0,0,0-.231.719,2.548,2.548,0,0,0,.175.82,10.255,10.255,0,0,1-.048,3.327A1.152,1.152,0,0,0,274,30.341c-.006.05-.018.1-.02.151v.029c0,.042.009.083.014.125,0,.022.013.041.013.063a2.81,2.81,0,0,0,.012.806c0,.1,0,.207,0,.311a3.557,3.557,0,0,0-.117,1,1.142,1.142,0,0,0,.165.582,28.734,28.734,0,0,1-.128,4.224,1.365,1.365,0,0,0-.185.394,4.155,4.155,0,0,0-.134.936,1.083,1.083,0,0,0,.36.892c.041.633.032,1.251.052,1.907a1.048,1.048,0,0,0-.035.3c.049.61-.035,1.211-.045,1.814a1.345,1.345,0,0,0-.059.8,4.451,4.451,0,0,1,.073,1.123A4.474,4.474,0,0,0,274.016,47a1.028,1.028,0,0,0-.019.143l.013.745a6.717,6.717,0,0,0-.038,1.392,10.763,10.763,0,0,0,.035,1.982,5.967,5.967,0,0,0-.058.913,2.931,2.931,0,0,1-.34.008m.148-13.492V38.7h0v-.009M187.015,39.72c.024.422.02.847.03,1.27a5.746,5.746,0,0,0-2.716-.859,62.077,62.077,0,0,0-6.223.136c-1.582.059-3.161.113-4.741.136-.988.014-1.971.03-2.954.107a16.6,16.6,0,0,1-3.088-.166c-.033-.564-.08-1.128-.115-1.693,2.088-.014,4.183-.06,6.269-.115,2.4-.063,4.875.121,7.257-.155,1.826-.21,3.806-.279,5.252-1.557a4.782,4.782,0,0,0,.894-1.063c.064,1.317.055,2.636.136,3.958M173.422,51.869a1.075,1.075,0,0,0-.512-.073c-.394.041-.787.069-1.183.1l-.194-.151a1.288,1.288,0,0,0-.647-.175h-.94a1.286,1.286,0,0,0-.847.33l-.241.031a4.558,4.558,0,0,0-1.741-.116l-.081-.011a1.3,1.3,0,0,0-.355.052c-.432.048-.854.1-1.243.124-1.289.065-1.87-.115-3.4.014a1.075,1.075,0,0,0-.213.056l-.224-.03c-.024,0-.048,0-.072,0l-.267.012c-.312.012-.621.021-.933.023a.143.143,0,0,0-.021,0c-.039,0-.074,0-.107,0-.01,0-.017-.007-.029-.008-.316-.016-.631-.017-.946-.021a1.24,1.24,0,0,0-.949-.462h-1.867a3.61,3.61,0,0,0-.713.089c.033-1.019.083-2.038.043-3.055a1.292,1.292,0,0,0,.413-.925v-.885c0-.136,0-.273,0-.411,0-.035-.017-.068-.02-.1a1.045,1.045,0,0,0,.02-.115v-1.35a1.244,1.244,0,0,0-.033-.165,1.432,1.432,0,0,0-.012-.175c-.008-.028-.031-.054-.041-.082a1.28,1.28,0,0,0-.1-.195,1.342,1.342,0,0,0-.144-.217c-.017-.021-.027-.051-.045-.071a1.221,1.221,0,0,0-.134-.089c-.044-.034-.079-.087-.126-.112-.014-.008-.031-.009-.045-.015,0-.558.012-1.113.014-1.67a.946.946,0,0,0,.291-.186l.2-.259a1.259,1.259,0,0,0,.175-.646V39.821c0-.04-.022-.074-.025-.113a.33.33,0,0,0,0-.058.909.909,0,0,0-.051-.158.921.921,0,0,0-.037-.164c-.006-.019-.024-.031-.032-.049a.6.6,0,0,0-.033-.1c-.027-.051-.076-.079-.112-.123s-.045-.1-.086-.136-.064-.035-.093-.06-.022-.03-.038-.041a.959.959,0,0,0-.13-.068c-.022-.3-.062-.589-.106-.125a20.274,20.274,0,0,0,.189-2.89c.014-.2.018-.4.028-.6a1.245,1.245,0,0,0,.523-1V28.842c0-.034-.018-.065-.02-.1a9.71,9.71,0,0,0-.044-1.032c0-.024-.016-.047-.018-.071.024-.489.049-.978.033-1.47a1.25,1.25,0,0,0-.477-.953l-.021-.022a3.72,3.72,0,0,0,.138-.6,3.425,3.425,0,0,0,.052-.5,3.3,3.3,0,0,1,.021-.352,1.2,1.2,0,0,0,.237-.463,3.445,3.445,0,0,0,.062-.993,16.218,16.218,0,0,0,.037-4,26.081,26.081,0,0,0-.04-3.486,1.286,1.286,0,0,0,.04-.307v-.106l-.022-.174a.97.97,0,0,0,.022-.113V12.653c0-.021-.012-.039-.012-.06s.012-.044.012-.07V11.344a1.232,1.232,0,0,0-.037-.2v-.017a1.483,1.483,0,0,0,.037-.195v-.326h25.757v.814a1.17,1.17,0,0,0,.461.937c-.023.57-.087,1.135-.118,1.62-.012.183-.037.383-.055.585-2.192-.072-4.381-.117-6.576-.1-1.26.009-2.52.023-3.778.023a33.25,33.25,0,0,0-3.914-.039,1.389,1.389,0,0,0-.3.081c-.344.025-.71.079-.729.08.05,0-.684-.082-.921-.11a3.074,3.074,0,0,0-1.341.062c-.912,0-1.824,0-2.735-.037a1.3,1.3,0,0,0-1.281,1.28c-.017.448-.024.9-.027,1.345,0,.244-.2,1.515.327,1h0a1.439,1.439,0,0,0-.372.557,2.994,2.994,0,0,0-.1.775,1.1,1.1,0,0,0,.124.561c.008.226.019.471.024.581a5.689,5.689,0,0,0,.062.875c-.034.308-.079.616-.094.93-.011.229-.03.465-.023.694a1.119,1.119,0,0,1-.043.281,1.17,1.17,0,0,0-.153.591,3.191,3.191,0,0,0,.163,1.25,23.858,23.858,0,0,1,.05,2.491,1.3,1.3,0,0,0,1.281,1.28,45.8,45.8,0,0,1,5.515.085,1.356,1.356,0,0,0,.673-.08,3.415,3.415,0,0,0,.426-.01,1.252,1.252,0,0,0,.467-.116l.176,0a.674.674,0,0,0,.1.041,2.108,2.108,0,0,0,.386.049c.114,0,.229-.007.345-.012.024,0,.048-.017.072-.017.223.025.446.05.669.053a7.432,7.432,0,0,0,.973-.063,4.955,4.955,0,0,0,1.587.012,7.755,7.755,0,0,0,1.69.1,1.291,1.291,0,0,0,.606-.147c2.01.014,4.019.042,6.03.069.021,1.216.041,2.455-.052,3.656a1.32,1.32,0,0,0-.072.149,1.145,1.145,0,0,0-.257.131l-.008,0a1.2,1.2,0,0,0-.37.182c-.285.032-.566.064-.853.093-1.6.156-3.244-.058-4.863-.059a1.317,1.317,0,0,0-.381-.05c-1.036.049-2.069.038-3.108,0-.405-.013-.827-.069-1.233-.047-.453.023-.74.007-.189.1a28,28,0,0,0-4.269-.089h0a16.69,16.69,0,0,0-2.717.059,1.206,1.206,0,0,0-.156-.025l-1.126.012a1.3,1.3,0,0,0-1.281,1.28c0,.035,0,.07,0,.105-.437,1.19.029,2.969-.039,4.1a22,22,0,0,0,.081,3.18,13.435,13.435,0,0,0-.013,1.779,13.638,13.638,0,0,0-.04,2.329,1.48,1.48,0,0,0,.081.324c0,.04,0,.078,0,.118a1.287,1.287,0,0,0,1.279,1.281,10.734,10.734,0,0,1,2.014-.158l.007.006a1.633,1.633,0,0,0,1.7.069l.014,0c.043.008.074.029.12.034a22.49,22.49,0,0,0,2.577.332,1.394,1.394,0,0,0,.215-.041,7.59,7.59,0,0,0,2.877-.061c.8.027,1.606.027,2.412.061a1.036,1.036,0,0,0,.12.021,9.8,9.8,0,0,0,2.2-.093c1.146-.017,2.281-.051,3.4-.159-.461.044-.042.074.169.1.27.028.558-.006.832,0,.18,0,.36.007.538.009l.12.093a1.272,1.272,0,0,0,.41.143,6.19,6.19,0,0,0,1.175.125c.037,0,.072-.008.11-.011h.008l0,.007a.944.944,0,0,0-.14.6,20.867,20.867,0,0,1,.07,2.709,2.012,2.012,0,0,0-.118.62l-.042.012c-3.089-.112-6.235-.233-9.322-.127m-8.51-18.692.2-.083a1.3,1.3,0,0,0-.2.1l0-.018m7.631-4.3c-.228.146-.215-.01,0,0M164,46.172h0c-.006.021-.006.019,0,0m22.442-23.2-.009-.012c-2.136-2.232-5.647-1.569-8.435-1.535-2.288.027-4.647-.083-6.922.164-.835.091-1.69.021-2.542.038-.6.011-1.2.07-1.8.125.014-.564.006-1.132-.018-1.7.5,0,1.032.013,1.442-.016,1.7-.123,3.407-.1,5.109-.153,1.514-.049,3.028-.106,4.541-.14,2.605-.055,6.031.426,8.3-.9.1,1.375.267,2.747.337,4.12M144.417,19.33a8.916,8.916,0,0,0-.465,1.536c-.51,1.466-.873,2.6-1.35,3.906a1.272,1.272,0,0,0-.406.406c-.041.078-.087.154-.133.229l-.09.151a2.16,2.16,0,0,0-.169.374c-.03.083-.059.166-.09.25,0,.011,0,.022-.006.033-.016.04-.038.075-.05.117l-.186.516-.027.075c-.017.113-.031.226-.045.34a1.265,1.265,0,0,0,.174.647l.044.058a1.092,1.092,0,0,0-.262.479,14.432,14.432,0,0,1-.667,2.043,4.7,4.7,0,0,0-.379.807,4.567,4.567,0,0,0-.45,1.255c-.973,2.3-1.934,4.677-2.69,7.054a1.148,1.148,0,0,0-.252.494c-.055.247-.124.492-.188.737l-.012,0-.258.2a1.263,1.263,0,0,0-.331.565c-.077.215-.155.431-.234.646l-.032.092a1.27,1.27,0,0,0,0,.681,1.532,1.532,0,0,0,.06.145c0,.031-.01.061-.014.092a3.646,3.646,0,0,0-.475,1.083c-.013.021-.035.031-.048.053-.044.1-.085.2-.128.306a1.116,1.116,0,0,0-.024.169,1.306,1.306,0,0,0-.012.246c-.019.07-.035.14-.054.208-.306,1.148-.886,2.215-1.148,3.359a1.046,1.046,0,0,0-.011.143c-.008.02-.014.034-.024.055a1.6,1.6,0,0,0-.076.195l-.066.219c-.076.25-.158.5-.246.747,0,.006,0,.011,0,.017-.014.035-.028.072-.042.107l-.008,0c-.007.027-.016.052-.021.079-.055.13-.105.261-.157.392a.987.987,0,0,0-.224.083l-.259.2a1.259,1.259,0,0,0-.329.565c-.014.041-.029.082-.045.123-.014,0-.029,0-.043,0-.426.1-.851.195-1.272.318a1.436,1.436,0,0,0-.2.1c-.9-.022-1.807-.072-2.709-.048a1.284,1.284,0,0,0-.926-.419h-.75c-.112,0-.225,0-.337,0-.028,0-.054.014-.081.017a.87.87,0,0,0-.091-.017h-.444a1.178,1.178,0,0,0-.394-.128c-.114-.321-.224-.643-.337-.964a.964.964,0,0,0,.167-.182c.043-.1.085-.2.13-.306a1.315,1.315,0,0,0,0-.681c-.093-.254-.184-.507-.276-.762-.014-.037-.027-.073-.04-.109a1.429,1.429,0,0,0-.589-.766l-.306-.128a.918.918,0,0,0-.2-.009,10.89,10.89,0,0,0-.585-2.113c-.035-.137-.082-.27-.124-.406a1.126,1.126,0,0,0,.189-1.032q-.751-2.073-1.5-4.147c-.016-.043-.049-.078-.068-.118a8.556,8.556,0,0,0-.409-.973,9.9,9.9,0,0,0-.331-.985,1.512,1.512,0,0,0-.8-.865,3.4,3.4,0,0,0-.188-.807l0-.037a1.208,1.208,0,0,0,.109-.472,2.264,2.264,0,0,0-.229-.908,12.828,12.828,0,0,0-1.054-3.029,22.782,22.782,0,0,0-1.071-2.8,1.335,1.335,0,0,0-.032-.246c-.006-.017-.013-.034-.019-.051l-.01-.027c-.022-.062-.051-.121-.075-.18,0-.016,0-.032-.008-.047v0l-.359-.99c-.017-.048-.034-.1-.051-.143-.006-.022-.024-.037-.031-.058s0-.03-.006-.044l-.335-.923a.992.992,0,0,0-.091-.156,1.291,1.291,0,0,0-.024-.165q-2.669-7.374-5.339-14.749c.008-.182.013-.327.018-.446h4.149c.085.235.167.468.251.7a1.291,1.291,0,0,0,.756.762c.2.62.318,1.268.495,1.932a1.184,1.184,0,0,0,.427.633c.011.022.018.048.031.07s.009.01.014.018c.587,2.037,1.283,4.036,2.013,6.027a47.451,47.451,0,0,0,2.085,5.852.976.976,0,0,0,.116.153c.1.242.214.481.295.731a4.478,4.478,0,0,0,.405,1.333,1.624,1.624,0,0,0,.125.147q.415,1.178.8,2.363a16.9,16.9,0,0,1,.917,2.466,2.351,2.351,0,0,0,.066.788,1.107,1.107,0,0,0,.348.546.775.775,0,0,1,.027.085,3.453,3.453,0,0,0,.291.724c.033.066.071.123.106.185.1.407.312.9.4,1.318a1.031,1.031,0,0,0,0,.72,3.225,3.225,0,0,0,.558,1.1c.688,1.876,1.474,3.717,2.011,5.646a1.29,1.29,0,0,0,2.14.565l.135-.166a1.634,1.634,0,0,0,.358-.991c.021-.081.043-.162.064-.242a1.091,1.091,0,0,0,.033-.238,1.666,1.666,0,0,0,.134-.321c.006-.022.012-.044.017-.066a4.124,4.124,0,0,0,.456-1.322,3.611,3.611,0,0,0,.38-1.185,5.831,5.831,0,0,0,.653-1.463,1.082,1.082,0,0,0,.041-.56c.963-2.647,1.973-5.279,2.909-7.938l-.068.089a8.36,8.36,0,0,0,.311-.838,3.632,3.632,0,0,0,.978-1.714,1.061,1.061,0,0,0-.079-.937c.062-.3.124-.606.2-.9.324-1.22.91-2.372,1.335-3.568a1.154,1.154,0,0,0,.156-.3c.379-1.283.992-2.489,1.379-3.762a12.334,12.334,0,0,0,1.067-3.033c.013-.02.03-.032.042-.053a11.423,11.423,0,0,0,.683-2.186,1.165,1.165,0,0,0,.074-.137q.252-.734.5-1.469a5.4,5.4,0,0,0,.777-1.9,8.053,8.053,0,0,0,1.235,0c.441-.041.885-.039,1.327-.073l.2-.022a16.518,16.518,0,0,0,2.219.047l.343.021a5.849,5.849,0,0,1-.292,1.155,1.754,1.754,0,0,0-.592.844,2.136,2.136,0,0,0-.091.57c-.322.608-.7,1.158-.977,1.785l-.007.012h0c-.044.1-.093.2-.131.306a1.115,1.115,0,0,0-.022.167,5.048,5.048,0,0,0-.773,2.284.257.257,0,0,0,.008.042c-.213.548-.417,1.1-.651,1.639l.017,0a1.425,1.425,0,0,0-.154.277M123.9,47.711c-.014,0-.031,0-.048,0l0-.009.052.007,0,0m-12.684-37.1h.155c-.008.117-.017.241-.027.355-.042-.118-.085-.237-.128-.355M122.461,27.53a1.5,1.5,0,0,0-.1.182c.023-.061.049-.122.071-.182Zm3.363,10.539a1.488,1.488,0,0,0-.017.484c0-.158,0-.318,0-.476l.018-.008m-1.267-3.213c-.032-.032-.027-.033,0,0m16.292-19.879c.01.081.022.161.031.241a1.347,1.347,0,0,0-.044-.242h.013M113.325,4.746h-.012l.012,0" transform="translate(11.071 0)" fill="#f5f"/>
            </g>
          </g>
        </g>
      </g>
    </g>
  </g>
</svg>
