<svg id="Group_566" data-name="Group 566" xmlns="http://www.w3.org/2000/svg" xmlns:xlink="http://www.w3.org/1999/xlink" width="303.399" height="45.851" viewBox="0 0 303.399 45.851">
  <defs>
    <clipPath id="clip-path">
      <rect id="Rectangle_275" data-name="Rectangle 275" width="303.399" height="45.85" fill="none"/>
    </clipPath>
  </defs>
  <g id="Group_565" data-name="Group 565" transform="translate(0 0)" clip-path="url(#clip-path)">
    <path id="Path_5681" data-name="Path 5681" d="M45.912,0H0V13.5H45.721l.191-.192Zm51.14,0H51.141V4.394l.191.191h45.72Zm51.269,0H102.409V2.8h45.72l.192-.191Zm51.268,0H153.677V1.911h45.912Zm17.089,0H206.22V1.911H210.3v11.4l.192.192h2.1V2.038h4.081Zm4.464,0h-2.3V13.5h2.1l.192-.192V7.642h6.121V13.5h2.3V0h-2.3V5.6h-6.121Zm20.15,0h-8.928V13.5h8.992a2.348,2.348,0,0,0,0-2.039h-6.7V7.642h5.484V5.731H234.66V1.911h6.632Zm-41.7,3.82H153.677V5.667l.191.191h45.721ZM148.321,5.349H102.6l-.191.191V8.151h45.72l.192-.191Zm51.268,2.293H153.868a2.342,2.342,0,0,0,0,2.038h45.721ZM97.052,8.916H51.141v4.393l.191.192h45.72ZM148.321,10.7H102.6l-.191.191V13.5h45.72l.192-.192Zm51.268.764H153.868a2.344,2.344,0,0,0,0,2.039h45.721Zm-170,4.713H16.07V45.851H29.588Zm42.341,0H67.465V45.851h4.464Zm9.054,0H76.392V45.851h4.591Zm40.428,0h-2.678V45.851h2.678Zm5.484,29.675V16.366l-.191-.191h-2.615V45.85Zm5.229-29.675h-2.678V45.851h2.678Zm39.79,0H170V45.851h1.913Zm3.826,0h-1.913V45.851h1.913Zm3.826,0h-1.913V45.851h1.913ZM183.52,45.85V16.366l-.192-.191h-1.849V45.85ZM210.429,29.8h2.1l.191-.191V16.366l-.191-.191h-2.1Zm7.142-13.628H215.53v13.5H217.7V20.251l6.7,9.552h1.849V16.175h-2.168V25.6Zm21.17,4.2c0-5.525-10.059-5.666-9.87-.111a3.24,3.24,0,0,0,2.28,3.171c1.2.467,5.1.77,5.492,2.028,1.058,3.422-6.164,3.394-5.808-.121l-2.3-.126c.21,3.779,4,5.3,7.325,4.321,3.761-1.109,4.465-5.924.382-7.244-1.165-.377-4.833-.587-5.13-1.881-.635-2.777,3.856-3.07,5.053-1.1.224.368.215.743.468,1.061ZM252.386,29.8h2.1l.192-.191V16.366l-.192-.191h-2.1Zm19-13.628h-2.295c.381,4.905-1.963,14.074,5.809,13.633a4.673,4.673,0,0,0,4.58-3.195c.588-1.793.691-8.027.459-10-.022-.185-.016-.328-.2-.439h-2.1v8.6a9.423,9.423,0,0,1-.447,1.465,3.108,3.108,0,0,1-5.4.04,6.075,6.075,0,0,1-.406-1.25Zm-20.915.127H239.889v1.911H244.1V29.8h2.169V18.213h4.208Zm16.707,0H256.6v1.911H260.8V29.8h2.105l.191-.191v-11.4h4.081Zm25,0H281.719v1.911H285.8V29.8h2.1l.191-.191v-11.4h4.081Zm10.968,0h-8.8V29.8H303.4V27.765H296.64V23.817H302V21.906H296.64V18.213h6.5Z" transform="translate(0 0)"/>
    <path id="Path_5682" data-name="Path 5682" d="M45.912,0V13.31l-.191.191H0V0Z" transform="translate(0 0)"/>
    <rect id="Rectangle_266" data-name="Rectangle 266" width="13.518" height="29.676" transform="translate(16.07 16.174)"/>
    <path id="Path_5683" data-name="Path 5683" d="M90.636,0V4.585H44.916l-.192-.191V0Z" transform="translate(6.416 0)"/>
    <path id="Path_5684" data-name="Path 5684" d="M90.636,7.8v4.585H44.916l-.192-.191V7.8Z" transform="translate(6.416 1.118)"/>
    <rect id="Rectangle_267" data-name="Rectangle 267" width="4.591" height="29.676" transform="translate(76.392 16.174)"/>
    <rect id="Rectangle_268" data-name="Rectangle 268" width="4.464" height="29.676" transform="translate(67.464 16.174)"/>
    <path id="Path_5685" data-name="Path 5685" d="M135.472,0V2.611l-.191.191H89.56V0Z" transform="translate(12.848 0)"/>
    <path id="Path_5686" data-name="Path 5686" d="M135.472,4.678V7.289l-.191.191H89.56V4.869l.192-.191Z" transform="translate(12.848 0.671)"/>
    <path id="Path_5687" data-name="Path 5687" d="M135.472,9.356v2.611l-.191.191H89.56V9.547l.192-.191Z" transform="translate(12.848 1.342)"/>
    <path id="Path_5688" data-name="Path 5688" d="M180.308,3.342V5.379h-45.72l-.192-.191V3.342Z" transform="translate(19.28 0.479)"/>
    <path id="Path_5689" data-name="Path 5689" d="M180.313,6.683V8.721h-45.72a2.338,2.338,0,0,1,0-2.038Z" transform="translate(19.274 0.958)"/>
    <path id="Path_5690" data-name="Path 5690" d="M180.313,10.025v2.038h-45.72a2.338,2.338,0,0,1,0-2.038Z" transform="translate(19.274 1.438)"/>
    <rect id="Rectangle_269" data-name="Rectangle 269" width="45.912" height="1.911" transform="translate(153.676 -0.001)"/>
    <path id="Path_5691" data-name="Path 5691" d="M111.327,43.821h-2.806V14.145h2.615l.191.191Z" transform="translate(15.568 2.029)"/>
    <path id="Path_5692" data-name="Path 5692" d="M190.531,14.146l6.5,9.424V14.146H199.2V27.773h-1.849l-6.695-9.552v9.425H188.49v-13.5Z" transform="translate(27.039 2.029)"/>
    <rect id="Rectangle_270" data-name="Rectangle 270" width="2.678" height="29.676" transform="translate(129.446 16.174)"/>
    <rect id="Rectangle_271" data-name="Rectangle 271" width="2.678" height="29.676" transform="translate(118.733 16.174)"/>
    <path id="Path_5693" data-name="Path 5693" d="M193.685,0V5.6h6.122V0H202.1V13.5h-2.295V7.642h-6.122V13.31l-.191.191h-2.105V0Z" transform="translate(27.455 0)"/>
    <path id="Path_5694" data-name="Path 5694" d="M210.069,18.35h-2.1c-.254-.318-.244-.693-.468-1.061-1.2-1.971-5.689-1.679-5.053,1.1.3,1.294,3.963,1.5,5.13,1.881,4.083,1.32,3.379,6.133-.382,7.244-3.324.981-7.115-.542-7.325-4.322l2.3.126c-.357,3.516,6.865,3.545,5.808.121-.388-1.258-4.295-1.561-5.492-2.028a3.237,3.237,0,0,1-2.28-3.17c-.189-5.555,9.867-5.414,9.87.111" transform="translate(28.672 2.028)"/>
    <path id="Path_5695" data-name="Path 5695" d="M212.14,0V1.911h-6.633v3.82h5.485V7.642h-5.485v3.821h6.7a2.342,2.342,0,0,1,0,2.038h-8.992V0Z" transform="translate(29.151 0)"/>
    <path id="Path_5696" data-name="Path 5696" d="M237.635,14.146V23a6.015,6.015,0,0,0,.406,1.251,3.106,3.106,0,0,0,5.4-.041,9.263,9.263,0,0,0,.447-1.465v-8.6h2.1c.183.112.176.254.2.439.232,1.974.13,8.208-.457,10a4.673,4.673,0,0,1-4.581,3.195c-7.771.441-5.427-8.728-5.809-13.633Z" transform="translate(33.753 2.029)"/>
    <path id="Path_5697" data-name="Path 5697" d="M266.217,14.257v1.911h-6.5v3.693h5.356v1.911h-5.356V25.72h6.759v2.038h-9.055v-13.5Z" transform="translate(36.927 2.045)"/>
    <path id="Path_5698" data-name="Path 5698" d="M160.751,43.821H158.71V14.145h1.85l.191.191Z" transform="translate(22.768 2.029)"/>
    <rect id="Rectangle_272" data-name="Rectangle 272" width="1.913" height="29.676" transform="translate(170.001 16.174)"/>
    <rect id="Rectangle_273" data-name="Rectangle 273" width="1.913" height="29.676" transform="translate(173.827 16.174)"/>
    <rect id="Rectangle_274" data-name="Rectangle 274" width="1.913" height="29.676" transform="translate(177.653 16.174)"/>
    <path id="Path_5699" data-name="Path 5699" d="M190.806,0V2.038h-4.081V13.5h-2.1l-.192-.191V1.911h-4.081V0Z" transform="translate(25.872 0)"/>
    <path id="Path_5700" data-name="Path 5700" d="M234.989,14.257v1.911h-4.081v11.4l-.191.191h-2.105V16.168H224.4V14.257Z" transform="translate(32.191 2.045)"/>
    <path id="Path_5701" data-name="Path 5701" d="M256.833,14.257v1.911h-4.081v11.4l-.191.191h-2.105V16.168h-4.081V14.257Z" transform="translate(35.343 2.045)"/>
    <path id="Path_5702" data-name="Path 5702" d="M220.378,14.257v1.911h-4.209v11.59H214V16.168h-4.208V14.257Z" transform="translate(30.096 2.045)"/>
    <path id="Path_5703" data-name="Path 5703" d="M184.029,27.774V14.146h2.1l.192.191V27.583l-.192.191Z" transform="translate(26.4 2.029)"/>
    <path id="Path_5704" data-name="Path 5704" d="M220.723,27.774V14.146h2.1l.192.191V27.583l-.192.191Z" transform="translate(31.663 2.029)"/>
  </g>
</svg>
