<svg viewBox="0 0 85.1304 23.3652" xmlns="http://www.w3.org/2000/svg" xmlns:xlink="http://www.w3.org/1999/xlink" width="85.130371" height="23.365234" fill="none" customFrame="#000000">
	<g id="Logo">
		<g style="mix-blend-mode:normal">
			<path id="Path 5565" d="M17.8442 20.2259L19.1679 20.2259C19.0241 21.5788 19.7578 22.2858 21.0255 22.2858C22.1054 22.2858 22.8976 21.435 22.8976 20.4867C22.8976 19.6091 22.2199 19.0314 21.2985 18.8169L20.0309 18.5146C18.7633 18.2123 17.8418 17.1909 17.8418 15.8502C17.8418 14.1072 19.3093 12.998 20.9962 12.998C22.5515 12.998 24.136 13.9195 24.0775 16.0208L22.7538 16.0208C22.8123 14.6094 21.9469 14.0048 20.984 14.0048C20.0211 14.0048 19.068 14.7093 19.068 15.7771C19.068 16.4547 19.4434 17.03 20.5087 17.2884L21.7763 17.5907C23.2023 17.9369 24.1238 18.9729 24.1238 20.399C24.1238 22.0396 23.1171 23.3657 21.0279 23.3657C18.9388 23.3657 17.5834 22.042 17.8442 20.2259Z" fill="rgb(25,25,24)" fill-rule="nonzero" />
			<path id="Path 5565" d="M19.1679 20.2259C19.0241 21.5788 19.7578 22.2858 21.0255 22.2858C22.1054 22.2858 22.8976 21.435 22.8976 20.4867C22.8976 19.6091 22.2199 19.0314 21.2985 18.8169L20.0309 18.5146C18.7633 18.2123 17.8418 17.1909 17.8418 15.8502C17.8418 14.1072 19.3093 12.998 20.9962 12.998C22.5515 12.998 24.136 13.9195 24.0775 16.0208L22.7538 16.0208C22.8123 14.6094 21.9469 14.0048 20.984 14.0048C20.0211 14.0048 19.068 14.7093 19.068 15.7771C19.068 16.4547 19.4434 17.03 20.5087 17.2884L21.7763 17.5907C23.2023 17.9369 24.1238 18.9729 24.1238 20.399C24.1238 22.0396 23.1171 23.3657 21.0279 23.3657C18.9388 23.3657 17.5834 22.042 17.8442 20.2259L19.1679 20.2259Z" fill-rule="nonzero" stroke="rgb(112,112,112)" stroke-opacity="0" stroke-width="1" />
		</g>
		<g style="mix-blend-mode:normal">
			<path id="Path 5566" d="M31.5369 19.3332L32.8606 19.3332C32.8606 22.1268 31.8246 23.3652 29.7647 23.3652C27.7048 23.3652 26.3811 21.9976 26.3811 18.1826C26.3811 14.3676 27.6195 13 29.7647 13C31.9099 13 32.8313 14.2384 32.8313 16.4274L31.5077 16.4274C31.5077 14.9721 31.1201 14.0092 29.7647 14.0092C28.324 14.0092 27.7048 15.0891 27.7048 18.185C27.7048 21.2809 28.324 22.2877 29.7647 22.2877C31.1176 22.2877 31.5369 21.3931 31.5369 19.3332Z" fill="rgb(25,25,24)" fill-rule="nonzero" />
			<path id="Path 5566" d="M32.8606 19.3332C32.8606 22.1268 31.8246 23.3652 29.7647 23.3652C27.7048 23.3652 26.3811 21.9976 26.3811 18.1826C26.3811 14.3676 27.6195 13 29.7647 13C31.9099 13 32.8313 14.2384 32.8313 16.4274L31.5077 16.4274C31.5077 14.9721 31.1201 14.0092 29.7647 14.0092C28.324 14.0092 27.7048 15.0891 27.7048 18.185C27.7048 21.2809 28.324 22.2877 29.7647 22.2877C31.1176 22.2877 31.5369 21.3931 31.5369 19.3332L32.8606 19.3332Z" fill-rule="nonzero" stroke="rgb(112,112,112)" stroke-opacity="0" stroke-width="1" />
		</g>
		<g style="mix-blend-mode:normal">
			<path id="Path 5567" d="M37.1827 13.1418L39.2548 13.1418L41.9339 23.2218L40.537 23.2218L40.1763 21.6372L39.9593 20.4135L36.488 20.4135L36.271 21.6372L35.9103 23.2218L34.5865 23.2218L37.1827 13.1418ZM37.6581 10.0459L38.8672 10.0459L40.5224 12.2789L39.0817 12.2789L38.3334 10.6943L38.1895 10.6943L37.4411 12.2789L36.0004 12.2789L37.6581 10.0459ZM39.7448 19.4043L39.3694 18.1806L38.4333 14.1486L38.0018 14.1486L37.0804 18.1806L36.705 19.4043L39.7448 19.4043Z" fill="rgb(25,25,24)" fill-rule="nonzero" />
			<path id="Path 5567" d="M39.2548 13.1418L41.9339 23.2218L40.537 23.2218L40.1763 21.6372L39.9593 20.4135L36.488 20.4135L36.271 21.6372L35.9103 23.2218L34.5865 23.2218L37.1827 13.1418L39.2548 13.1418ZM38.8672 10.0459L40.5224 12.2789L39.0817 12.2789L38.3334 10.6943L38.1895 10.6943L37.4411 12.2789L36.0004 12.2789L37.6581 10.0459L38.8672 10.0459ZM39.3694 18.1806L38.4333 14.1486L38.0018 14.1486L37.0804 18.1806L36.705 19.4043L39.7448 19.4043L39.3694 18.1806Z" fill-rule="nonzero" stroke="rgb(112,112,112)" stroke-opacity="0" stroke-width="1" />
		</g>
		<g style="mix-blend-mode:normal">
			<path id="Path 5568" d="M43.8036 13.1416L46.0365 13.1416L48.6132 22.2124L49.0447 22.2124L48.6985 17.0005L48.6985 13.1416L49.9954 13.1416L49.9954 23.2216L47.7624 23.2216L45.1857 14.1508L44.7543 14.1508L45.1004 19.3627L45.1004 23.2216L43.8036 23.2216L43.8036 13.1416Z" fill="rgb(25,25,24)" fill-rule="nonzero" />
			<path id="Path 5568" d="M46.0365 13.1416L48.6132 22.2124L49.0447 22.2124L48.6985 17.0005L48.6985 13.1416L49.9954 13.1416L49.9954 23.2216L47.7624 23.2216L45.1857 14.1508L44.7543 14.1508L45.1004 19.3627L45.1004 23.2216L43.8036 23.2216L43.8036 13.1416L46.0365 13.1416Z" fill-rule="nonzero" stroke="rgb(112,112,112)" stroke-opacity="0" stroke-width="1" />
		</g>
		<g style="mix-blend-mode:normal">
			<path id="Path 5569" d="M54.8904 15.6773L54.9757 14.1659L52.226 14.1513L52.226 13.1445L58.8492 13.1445L58.8492 14.1513L56.0995 14.1513L56.1848 15.6773L56.1848 23.2221L54.8879 23.2221L54.8904 15.6773Z" fill="rgb(25,25,24)" fill-rule="nonzero" />
			<path id="Path 5569" d="M54.9757 14.1659L52.226 14.1513L52.226 13.1445L58.8492 13.1445L58.8492 14.1513L56.0995 14.1513L56.1848 15.6773L56.1848 23.2221L54.8879 23.2221L54.8904 15.6773L54.9757 14.1659Z" fill-rule="nonzero" stroke="rgb(112,112,112)" stroke-opacity="0" stroke-width="1" />
		</g>
		<g style="mix-blend-mode:normal">
			<path id="Path 5570" d="M61.1553 13.1421L67.2739 13.1421L67.2739 14.1489L62.3644 14.1489L62.4498 15.5164L62.4498 16.1649L62.3644 17.5324L66.2672 17.5324L66.2672 18.5392L62.3644 18.5392L62.4498 19.9068L62.4498 20.8428L62.3644 22.1397L67.2739 22.1397L67.2739 23.2196L61.1553 23.2196L61.1553 13.1421Z" fill="rgb(25,25,24)" fill-rule="nonzero" />
			<path id="Path 5570" d="M67.2739 13.1421L67.2739 14.1489L62.3644 14.1489L62.4498 15.5164L62.4498 16.1649L62.3644 17.5324L66.2672 17.5324L66.2672 18.5392L62.3644 18.5392L62.4498 19.9068L62.4498 20.8428L62.3644 22.1397L67.2739 22.1397L67.2739 23.2196L61.1553 23.2196L61.1553 13.1421L67.2739 13.1421Z" fill-rule="nonzero" stroke="rgb(112,112,112)" stroke-opacity="0" stroke-width="1" />
		</g>
		<g style="mix-blend-mode:normal">
			<path id="Path 5571" d="M69.9384 22.1417L72.2567 22.1417L72.1713 20.6863L72.1713 15.6744L72.2567 14.163L69.9384 14.1484L69.9384 13.1416L75.6987 13.1416L75.6987 14.1484L73.3804 14.1484L73.4657 15.6744L73.4657 20.6863L73.3804 22.1417L75.6987 22.1417L75.6987 23.2216L69.9384 23.2216L69.9384 22.1417Z" fill="rgb(25,25,24)" fill-rule="nonzero" />
			<path id="Path 5571" d="M72.2567 22.1417L72.1713 20.6863L72.1713 15.6744L72.2567 14.163L69.9384 14.1484L69.9384 13.1416L75.6987 13.1416L75.6987 14.1484L73.3804 14.1484L73.4657 15.6744L73.4657 20.6863L73.3804 22.1417L75.6987 22.1417L75.6987 23.2216L69.9384 23.2216L69.9384 22.1417L72.2567 22.1417Z" fill-rule="nonzero" stroke="rgb(112,112,112)" stroke-opacity="0" stroke-width="1" />
		</g>
		<g style="mix-blend-mode:normal">
			<path id="Path 5572" d="M80.3768 13.1416L82.4514 13.1416L85.1304 23.2216L83.7335 23.2216L83.3727 21.6371L83.1558 20.4133L79.6845 20.4133L79.4675 21.6371L79.1068 23.2216L77.7831 23.2216L80.3768 13.1416ZM82.9389 19.4041L82.5634 18.1804L81.6274 14.1484L81.196 14.1484L80.2744 18.1804L79.899 19.4041L82.9389 19.4041Z" fill="rgb(25,25,24)" fill-rule="nonzero" />
			<path id="Path 5572" d="M82.4514 13.1416L85.1304 23.2216L83.7335 23.2216L83.3727 21.6371L83.1558 20.4133L79.6845 20.4133L79.4675 21.6371L79.1068 23.2216L77.7831 23.2216L80.3768 13.1416L82.4514 13.1416ZM82.5634 18.1804L81.6274 14.1484L81.196 14.1484L80.2744 18.1804L79.899 19.4041L82.9389 19.4041L82.5634 18.1804Z" fill-rule="nonzero" stroke="rgb(112,112,112)" stroke-opacity="0" stroke-width="1" />
		</g>
		<g style="mix-blend-mode:normal">
			<path id="Path 5573" d="M2.59375 0.00195312L4.66826 0.00195312L7.34732 10.0819L5.9505 10.0819L5.58972 8.4974L5.37276 7.27367L1.90143 7.27367L1.68447 8.4974L1.32368 10.0819L0 10.0819L2.59375 0.00195312ZM5.1558 6.26445L4.78039 5.04072L3.84431 1.00873L3.41283 1.00873L2.49137 5.04072L2.11595 6.26445L5.1558 6.26445Z" fill="rgb(25,25,24)" fill-rule="nonzero" />
			<path id="Path 5573" d="M4.66826 0.00195312L7.34732 10.0819L5.9505 10.0819L5.58972 8.4974L5.37276 7.27367L1.90143 7.27367L1.68447 8.4974L1.32368 10.0819L0 10.0819L2.59375 0.00195312L4.66826 0.00195312ZM4.78039 5.04072L3.84431 1.00873L3.41283 1.00873L2.49137 5.04072L2.11595 6.26445L5.1558 6.26445L4.78039 5.04072Z" fill-rule="nonzero" stroke="rgb(112,112,112)" stroke-opacity="0" stroke-width="1" />
		</g>
		<g style="mix-blend-mode:normal">
			<path id="Path 5574" d="M11.6646 2.53768L11.7499 1.02629L9.00012 1.01166L9.00012 0.00488281L15.6234 0.00488281L15.6234 1.01166L12.8737 1.01166L12.959 2.53768L12.959 10.0824L11.6621 10.0824L11.6646 2.53768Z" fill="rgb(25,25,24)" fill-rule="nonzero" />
			<path id="Path 5574" d="M11.7499 1.02629L9.00012 1.01166L9.00012 0.00488281L15.6234 0.00488281L15.6234 1.01166L12.8737 1.01166L12.959 2.53768L12.959 10.0824L11.6621 10.0824L11.6646 2.53768L11.7499 1.02629Z" fill-rule="nonzero" stroke="rgb(112,112,112)" stroke-opacity="0" stroke-width="1" />
		</g>
		<g style="mix-blend-mode:normal">
			<path id="Path 5575" d="M17.927 0.00243652L24.0457 0.00243652L24.0457 1.00922L19.1361 1.00922L19.2214 2.37678L19.2214 3.02521L19.1361 4.39277L23.0389 4.39277L23.0389 5.39955L19.1361 5.39955L19.2214 6.76711L19.2214 7.70319L19.1361 9.00006L24.0457 9.00006L24.0457 10.08L17.927 10.08L17.927 0.00243652Z" fill="rgb(25,25,24)" fill-rule="nonzero" />
			<path id="Path 5575" d="M24.0457 0.00243652L24.0457 1.00922L19.1361 1.00922L19.2214 2.37678L19.2214 3.02521L19.1361 4.39277L23.0389 4.39277L23.0389 5.39955L19.1361 5.39955L19.2214 6.76711L19.2214 7.70319L19.1361 9.00006L24.0457 9.00006L24.0457 10.08L17.927 10.08L17.927 0.00243652L24.0457 0.00243652Z" fill-rule="nonzero" stroke="rgb(112,112,112)" stroke-opacity="0" stroke-width="1" />
		</g>
		<g style="mix-blend-mode:normal">
			<path id="Path 5576" d="M26.5664 0.00243652L27.8633 0.00243652L27.8633 7.48867L27.7779 9.00006L31.3492 9.00006L31.3199 8.35163L31.3199 7.77632L32.6168 7.77632L32.6168 10.08L26.5688 10.08L26.5664 0.00243652Z" fill="rgb(25,25,24)" fill-rule="nonzero" />
			<path id="Path 5576" d="M27.8633 0.00243652L27.8633 7.48867L27.7779 9.00006L31.3492 9.00006L31.3199 8.35163L31.3199 7.77632L32.6168 7.77632L32.6168 10.08L26.5688 10.08L26.5664 0.00243652L27.8633 0.00243652Z" fill-rule="nonzero" stroke="rgb(112,112,112)" stroke-opacity="0" stroke-width="1" />
		</g>
		<g style="mix-blend-mode:normal">
			<path id="Path 5577" d="M35.3494 9.00201L37.6677 9.00201L37.5823 7.54669L37.5823 2.53474L37.6677 1.02336L35.3494 1.00873L35.3494 0.00195312L41.1097 0.00195312L41.1097 1.00873L38.7915 1.00873L38.8767 2.53474L38.8767 7.54669L38.7915 9.00201L41.1097 9.00201L41.1097 10.0819L35.3494 10.0819L35.3494 9.00201Z" fill="rgb(25,25,24)" fill-rule="nonzero" />
			<path id="Path 5577" d="M37.6677 9.00201L37.5823 7.54669L37.5823 2.53474L37.6677 1.02336L35.3494 1.00873L35.3494 0.00195312L41.1097 0.00195312L41.1097 1.00873L38.7915 1.00873L38.8767 2.53474L38.8767 7.54669L38.7915 9.00201L41.1097 9.00201L41.1097 10.0819L35.3494 10.0819L35.3494 9.00201L37.6677 9.00201Z" fill-rule="nonzero" stroke="rgb(112,112,112)" stroke-opacity="0" stroke-width="1" />
		</g>
		<g style="mix-blend-mode:normal">
			<path id="Path 5578" d="M43.8448 0.00243652L49.9635 0.00243652L49.9635 1.00922L45.054 1.00922L45.1393 2.37678L45.1393 3.02521L45.054 4.39277L48.9568 4.39277L48.9568 5.39955L45.054 5.39955L45.1393 6.76711L45.1393 7.70319L45.054 9.00006L49.9635 9.00006L49.9635 10.08L43.8448 10.08L43.8448 0.00243652Z" fill="rgb(25,25,24)" fill-rule="nonzero" />
			<path id="Path 5578" d="M49.9635 0.00243652L49.9635 1.00922L45.054 1.00922L45.1393 2.37678L45.1393 3.02521L45.054 4.39277L48.9568 4.39277L48.9568 5.39955L45.054 5.39955L45.1393 6.76711L45.1393 7.70319L45.054 9.00006L49.9635 9.00006L49.9635 10.08L43.8448 10.08L43.8448 0.00243652L49.9635 0.00243652Z" fill-rule="nonzero" stroke="rgb(112,112,112)" stroke-opacity="0" stroke-width="1" />
		</g>
		<g style="mix-blend-mode:normal">
			<path id="Path 5579" d="M54.9586 6.12306L53.6911 6.12306L53.7764 7.63445L53.7764 10.0819L52.4795 10.0819L52.4795 0.00195312L55.317 0.00195312C57.5207 0.00195312 58.5567 1.24032 58.5567 2.8809C58.5567 4.42154 57.6499 5.4015 56.2823 5.4015L56.2823 5.83297C56.9162 5.83297 57.3184 6.24982 57.5646 6.76906L59.1052 10.0795L57.6645 10.0795L56.4847 7.07134C56.2823 6.56673 55.7363 6.12306 54.9586 6.12306ZM54.9586 5.11629C56.3408 5.11629 57.2623 4.22408 57.2623 2.88333C57.2623 1.74492 56.5993 1.0258 54.9586 1.0258L53.6911 1.0258L53.7764 2.53718L53.7764 3.89011L53.6911 5.11385L54.9586 5.11629Z" fill="rgb(25,25,24)" fill-rule="nonzero" />
			<path id="Path 5579" d="M53.6911 6.12306L53.7764 7.63445L53.7764 10.0819L52.4795 10.0819L52.4795 0.00195312L55.317 0.00195312C57.5207 0.00195312 58.5567 1.24032 58.5567 2.8809C58.5567 4.42154 57.6499 5.4015 56.2823 5.4015L56.2823 5.83297C56.9162 5.83297 57.3184 6.24982 57.5646 6.76906L59.1052 10.0795L57.6645 10.0795L56.4847 7.07134C56.2823 6.56673 55.7363 6.12306 54.9586 6.12306L53.6911 6.12306ZM57.2623 2.88333C57.2623 1.74492 56.5993 1.0258 54.9586 1.0258L53.6911 1.0258L53.7764 2.53718L53.7764 3.89011L53.6911 5.11385L54.9586 5.11629C56.3408 5.11629 57.2623 4.22408 57.2623 2.88333Z" fill-rule="nonzero" stroke="rgb(112,112,112)" stroke-opacity="0" stroke-width="1" />
		</g>
		<g style="mix-blend-mode:normal">
			<path id="Path 5580" d="M61.1212 0.00243652L67.2399 0.00243652L67.2399 1.00922L62.3303 1.00922L62.4157 2.37678L62.4157 3.02521L62.3303 4.39277L66.2332 4.39277L66.2332 5.39955L62.3303 5.39955L62.4157 6.76711L62.4157 7.70319L62.3303 9.00006L67.2399 9.00006L67.2399 10.08L61.1212 10.08L61.1212 0.00243652Z" fill="rgb(25,25,24)" fill-rule="nonzero" />
			<path id="Path 5580" d="M67.2399 0.00243652L67.2399 1.00922L62.3303 1.00922L62.4157 2.37678L62.4157 3.02521L62.3303 4.39277L66.2332 4.39277L66.2332 5.39955L62.3303 5.39955L62.4157 6.76711L62.4157 7.70319L62.3303 9.00006L67.2399 9.00006L67.2399 10.08L61.1212 10.08L61.1212 0.00243652L67.2399 0.00243652Z" fill-rule="nonzero" stroke="rgb(112,112,112)" stroke-opacity="0" stroke-width="1" />
		</g>
		<g style="mix-blend-mode:normal">
			<path id="Path 5581" d="M69.7604 0.00243652L71.0572 0.00243652L71.0572 7.48867L70.9719 9.00006L74.5432 9.00006L74.5139 8.35163L74.5139 7.77632L75.8107 7.77632L75.8107 10.08L69.7628 10.08L69.7604 0.00243652Z" fill="rgb(25,25,24)" fill-rule="nonzero" />
			<path id="Path 5581" d="M71.0572 0.00243652L71.0572 7.48867L70.9719 9.00006L74.5432 9.00006L74.5139 8.35163L74.5139 7.77632L75.8107 7.77632L75.8107 10.08L69.7628 10.08L69.7604 0.00243652L71.0572 0.00243652Z" fill-rule="nonzero" stroke="rgb(112,112,112)" stroke-opacity="0" stroke-width="1" />
		</g>
		<g style="mix-blend-mode:normal">
			<path id="Path 5582" d="M78.3997 0.00243652L84.5183 0.00243652L84.5183 1.00922L79.6089 1.00922L79.6941 2.37678L79.6941 3.02521L79.6089 4.39277L83.5116 4.39277L83.5116 5.39955L79.6089 5.39955L79.6941 6.76711L79.6941 7.70319L79.6089 9.00006L84.5183 9.00006L84.5183 10.08L78.3997 10.08L78.3997 0.00243652Z" fill="rgb(25,25,24)" fill-rule="nonzero" />
			<path id="Path 5582" d="M84.5183 0.00243652L84.5183 1.00922L79.6089 1.00922L79.6941 2.37678L79.6941 3.02521L79.6089 4.39277L83.5116 4.39277L83.5116 5.39955L79.6089 5.39955L79.6941 6.76711L79.6941 7.70319L79.6089 9.00006L84.5183 9.00006L84.5183 10.08L78.3997 10.08L78.3997 0.00243652L84.5183 0.00243652Z" fill-rule="nonzero" stroke="rgb(112,112,112)" stroke-opacity="0" stroke-width="1" />
		</g>
	</g>
</svg>
