<svg xmlns="http://www.w3.org/2000/svg" width="99.402" height="16.512" viewBox="0 0 99.402 16.512">
  <g id="Group_545" transform="translate(-35.04 -13.05)">
    <path id="Path_5555" d="M40.767,84.818c-1.607-.305-2.591-.537-2.591-1.378s.8-1.332,2.138-1.332c1.484,0,2.239.674,2.239,2V84.4h2.813l-.017-.305c-.162-2.783-2.028-4.377-5.115-4.377-2.239,0-4.849,1.032-4.849,3.945s2.517,3.387,4.54,3.785c1.714.337,2.764.593,2.764,1.591,0,1.425-1.956,1.556-2.331,1.567a2.239,2.239,0,0,1-2.5-1.95,2.3,2.3,0,0,1-.016-.238v-.3H35.04l.006.3C35.1,91.327,36.981,93,40.23,93s5.252-1.66,5.252-4.228c0-3.049-2.614-3.549-4.712-3.95h0Z" transform="translate(0 -63.44)"/>
    <path id="Path_5556" d="M280.857,87.891h-2.772l-.058.214c-.482,1.749-1.247,2.433-2.733,2.433-1.774,0-3.664-1.488-3.664-4.248s1.784-4.231,3.461-4.248a2.681,2.681,0,0,1,2.684,2.043l.066.2h2.85l-.09-.363a5.467,5.467,0,0,0-5.325-4.275A6.432,6.432,0,0,0,268.766,86q0,.145,0,.289a6.43,6.43,0,0,0,6.213,6.641q.15.005.3,0a5.514,5.514,0,0,0,5.532-4.706l.049-.335,0,0Z" transform="translate(-222.4 -63.373)"/>
    <path id="Path_5557" d="M514.006,87.24,508.98,99.784h2.978l1.038-2.7h4.42l.987,2.7h2.975L516.545,87.24h-2.539Zm2.552,7.521h-2.672L515.255,91l1.3,3.757Z" transform="translate(-450.976 -70.595)"/>
    <path id="Path_5558" d="M786.773,95.363l-5.685-8.123H778.43V99.784h2.7V91.732l5.738,8.052h2.6V87.24h-2.7v8.123Z" transform="translate(-707.371 -70.595)"/>
    <path id="Path_5559" d="M1025.59,89.632h3.316V99.784h2.691V89.632h3.333V87.24h-9.339v2.392Z" transform="translate(-942.555 -70.595)"/>
    <path id="Path_5560" d="M1240.536,94.407h4.807V92.08h-4.807V89.566h5.6V87.24h-8.295V99.784h8.406V97.458h-5.711V94.406Z" transform="translate(-1144.521 -70.595)"/>
    <rect id="Rectangle_263" width="2.695" height="12.544" transform="translate(103.314 16.645)"/>
    <path id="Path_5561" d="M1519.166,87.24l-5.026,12.544h2.978l1.038-2.7h4.42l.988,2.7h2.974l-4.833-12.544h-2.539Zm2.552,7.521h-2.672L1520.416,91l1.3,3.757Z" transform="translate(-1407.434 -70.595)"/>
    <path id="Path_5562" d="M577.241,15.41l.361-.772.36.772,1.6.962,1.077-1.077L578.5,13.157l-.885-.107h-.034l-.881.113L574.56,15.3l1.077,1.077,1.6-.962.007-.006Z" transform="translate(-513.379 0)"/>
    <path id="Path_5563" d="M2039.45,190.521l-2.39-.121v2.545l2.4-.141Z" transform="translate(-1905.017 -168.757)"/>
    <path id="Path_5564" d="M1823.223,84.894l-5.273.251.01,2.262,5.275.214.251,5.273,2.138-.01V79.61l-2.189.01-.215,5.275Z" transform="translate(-1696.524 -63.335)"/>
  </g>
</svg>
