<svg viewBox="0 0 100.585 16.7031" xmlns="http://www.w3.org/2000/svg" xmlns:xlink="http://www.w3.org/1999/xlink" width="100.585327" height="16.703125" fill="none" customFrame="#000000">
	<g id="Layer_1">
		<g id="Group 545">
			<g style="mix-blend-mode:normal">
				<path id="Path 5555" d="M5.7948 8.4248C4.16871 8.11337 3.17335 7.8808 3.17335 7.0313C3.17335 6.18178 3.98146 5.68312 5.33556 5.68312C6.83747 5.68312 7.60026 6.3651 7.60026 7.70932L7.60026 8.00497L10.4464 8.00497L10.4287 7.69158C10.2651 4.87501 8.37684 3.26074 5.25277 3.26074C2.99004 3.26074 0.346899 4.30537 0.346899 7.25205C0.346899 10.1987 2.89346 10.6796 4.94135 11.0817C6.67585 11.4227 7.73823 11.6809 7.73823 12.692C7.73823 14.1348 5.75932 14.2669 5.37892 14.2787C4.61416 14.2629 2.8363 14.0126 2.8363 12.0653L2.8363 11.7696L0 11.7696L0.00591307 12.0692C0.0551886 15.0119 1.96708 16.6991 5.2508 16.6991C8.53452 16.6991 10.5647 15.0198 10.5647 12.42C10.5647 9.33541 7.9176 8.83082 5.7948 8.4248Z" fill="rgb(0,0,0)" fill-rule="nonzero" />
				<path id="Path 5555" d="M3.17335 7.0313C3.17335 6.18178 3.98146 5.68312 5.33556 5.68312C6.83747 5.68312 7.60026 6.3651 7.60026 7.70932L7.60026 8.00497L10.4464 8.00497L10.4287 7.69158C10.2651 4.87501 8.37684 3.26074 5.25277 3.26074C2.99004 3.26074 0.346899 4.30537 0.346899 7.25205C0.346899 10.1987 2.89346 10.6796 4.94135 11.0817C6.67585 11.4227 7.73823 11.6809 7.73823 12.692C7.73823 14.1348 5.75932 14.2669 5.37892 14.2787C4.61416 14.2629 2.8363 14.0126 2.8363 12.0653L2.8363 11.7696L0 11.7696L0.00591307 12.0692C0.0551886 15.0119 1.96708 16.6991 5.2508 16.6991C8.53452 16.6991 10.5647 15.0198 10.5647 12.42C10.5647 9.33541 7.9176 8.83082 5.7948 8.4248C4.16871 8.11337 3.17335 7.8808 3.17335 7.0313Z" fill-rule="nonzero" stroke="rgb(112,112,112)" stroke-opacity="0" stroke-width="1" />
			</g>
			<g style="mix-blend-mode:normal">
				<path id="Path 5556" d="M23.6956 11.6021L20.8909 11.6021L20.8317 11.8189C20.3449 13.5888 19.5703 14.2807 18.0664 14.2807C16.2708 14.2807 14.3629 12.7748 14.3629 9.98188C14.3629 7.18896 16.1683 5.70084 17.8673 5.6831C19.1702 5.66537 20.1439 6.40252 20.5834 7.75069L20.6504 7.95568L23.532 7.95568L23.4414 7.58907C22.7988 5.00113 20.6327 3.2627 18.0526 3.2627C14.2998 3.2627 11.4674 6.1522 11.4674 9.98188C11.4674 13.8116 14.2978 16.7011 18.0526 16.7011C20.8948 16.7011 23.2482 14.6985 23.6503 11.9391L23.6956 11.6021Z" fill="rgb(0,0,0)" fill-rule="nonzero" />
				<path id="Path 5556" d="M20.8909 11.6021L20.8317 11.8189C20.3449 13.5888 19.5703 14.2807 18.0664 14.2807C16.2708 14.2807 14.3629 12.7748 14.3629 9.98188C14.3629 7.18896 16.1683 5.70084 17.8673 5.6831C19.1702 5.66537 20.1439 6.40252 20.5834 7.75069L20.6504 7.95568L23.532 7.95568L23.4414 7.58907C22.7988 5.00113 20.6327 3.2627 18.0526 3.2627C14.2998 3.2627 11.4674 6.1522 11.4674 9.98188C11.4674 13.8116 14.2978 16.7011 18.0526 16.7011C20.8948 16.7011 23.2482 14.6985 23.6503 11.9391L23.6956 11.6021L20.8909 11.6021Z" fill-rule="nonzero" stroke="rgb(112,112,112)" stroke-opacity="0" stroke-width="1" />
			</g>
			<g style="mix-blend-mode:normal">
				<path id="Path 5557" d="M28.3216 3.63672L23.2363 16.3301L26.25 16.3301L27.3006 13.6002L31.7728 13.6002L32.7721 16.3301L35.7819 16.3301L30.8918 3.63672L28.3216 3.63672ZM30.9036 11.2468L28.1993 11.2468L29.585 7.44472L30.9036 11.2468Z" fill="rgb(0,0,0)" fill-rule="nonzero" />
				<path id="Path 5557" d="M23.2363 16.3301L26.25 16.3301L27.3006 13.6002L31.7728 13.6002L32.7721 16.3301L35.7819 16.3301L30.8918 3.63672L28.3216 3.63672L23.2363 16.3301ZM28.1993 11.2468L29.585 7.44472L30.9036 11.2468L28.1993 11.2468Z" fill-rule="nonzero" stroke="rgb(112,112,112)" stroke-opacity="0" stroke-width="1" />
			</g>
			<g style="mix-blend-mode:normal">
				<path id="Path 5558" d="M44.8899 11.8558L39.1365 3.63672L36.448 3.63672L36.448 16.3301L39.1759 16.3301L39.1759 8.18188L44.9825 16.3301L47.6178 16.3301L47.6178 3.63672L44.8899 3.63672L44.8899 11.8558Z" fill="rgb(0,0,0)" fill-rule="nonzero" />
				<path id="Path 5558" d="M39.1365 3.63672L36.448 3.63672L36.448 16.3301L39.1759 16.3301L39.1759 8.18188L44.9825 16.3301L47.6178 16.3301L47.6178 3.63672L44.8899 3.63672L44.8899 11.8558L39.1365 3.63672Z" fill-rule="nonzero" stroke="rgb(112,112,112)" stroke-opacity="0" stroke-width="1" />
			</g>
			<g style="mix-blend-mode:normal">
				<path id="Path 5559" d="M48.5659 6.05713L51.9206 6.05713L51.9206 16.3301L54.6485 16.3301L54.6485 6.05713L58.0209 6.05713L58.0209 3.63672L48.5659 3.63672L48.5659 6.05713Z" fill="rgb(0,0,0)" fill-rule="nonzero" />
				<path id="Path 5559" d="M51.9206 6.05713L51.9206 16.3301L54.6485 16.3301L54.6485 6.05713L58.0209 6.05713L58.0209 3.63672L48.5659 3.63672L48.5659 6.05713L51.9206 6.05713Z" fill-rule="nonzero" stroke="rgb(112,112,112)" stroke-opacity="0" stroke-width="1" />
			</g>
			<g style="mix-blend-mode:normal">
				<path id="Path 5560" d="M61.7011 10.8881L66.5655 10.8881L66.5655 8.53469L61.7011 8.53469L61.7011 5.99011L67.3618 5.99011L67.3618 3.63672L58.9731 3.63672L58.9731 16.3301L67.4801 16.3301L67.4801 13.9767L61.7011 13.9767L61.7011 10.8881Z" fill="rgb(0,0,0)" fill-rule="nonzero" />
				<path id="Path 5560" d="M66.5655 10.8881L66.5655 8.53469L61.7011 8.53469L61.7011 5.99011L67.3618 5.99011L67.3618 3.63672L58.9731 3.63672L58.9731 16.3301L67.4801 16.3301L67.4801 13.9767L61.7011 13.9767L61.7011 10.8881L66.5655 10.8881Z" fill-rule="nonzero" stroke="rgb(112,112,112)" stroke-opacity="0" stroke-width="1" />
			</g>
			<g style="mix-blend-mode:normal">
				<rect id="Rectangle 263" width="2.727894" height="12.693329" x="69.086182" y="3.636719" fill="rgb(0,0,0)" />
				<rect id="Rectangle 263" width="2.727894" height="12.693329" x="69.086182" y="3.636719" stroke="rgb(112,112,112)" stroke-opacity="0" stroke-width="1" />
			</g>
			<g style="mix-blend-mode:normal">
				<path id="Path 5561" d="M77.605 3.63672L72.5198 16.3301L75.5335 16.3301L76.584 13.6002L81.0562 13.6002L82.0555 16.3301L85.0653 16.3301L80.1752 3.63672L77.605 3.63672ZM80.187 11.2468L77.4828 11.2468L78.8684 7.44472L80.187 11.2468Z" fill="rgb(0,0,0)" fill-rule="nonzero" />
				<path id="Path 5561" d="M72.5198 16.3301L75.5335 16.3301L76.584 13.6002L81.0562 13.6002L82.0555 16.3301L85.0653 16.3301L80.1752 3.63672L77.605 3.63672L72.5198 16.3301ZM77.4828 11.2468L78.8684 7.44472L80.187 11.2468L77.4828 11.2468Z" fill-rule="nonzero" stroke="rgb(112,112,112)" stroke-opacity="0" stroke-width="1" />
			</g>
			<g style="mix-blend-mode:normal">
				<path id="Path 5562" d="M29.1652 2.3869L29.5299 1.60638L29.8945 2.3869L31.5107 3.36058L32.6007 2.27061L30.4405 0.112348L29.5457 0.00394203L28.6154 0.112348L26.4551 2.27061L27.5451 3.36058L29.1652 2.3869Z" fill="rgb(0,0,0)" fill-rule="nonzero" />
				<path id="Path 5562" d="M29.5299 1.60638L29.8945 2.3869L31.5107 3.36058L32.6007 2.27061L30.4405 0.112348L29.5457 0.00394203L28.6154 0.112348L26.4551 2.27061L27.5451 3.36058L29.1652 2.3869L29.5299 1.60638Z" fill-rule="nonzero" stroke="rgb(112,112,112)" stroke-opacity="0" stroke-width="1" />
			</g>
			<g style="mix-blend-mode:normal">
				<path id="Path 5563" d="M100.575 8.81655L98.157 8.69434L98.157 11.2724L100.585 11.1305L100.575 8.81655Z" fill="rgb(0,0,0)" fill-rule="nonzero" />
				<path id="Path 5563" d="M98.157 8.69434L98.157 11.2724L100.585 11.1305L100.575 8.81655L98.157 8.69434Z" fill-rule="nonzero" stroke="rgb(112,112,112)" stroke-opacity="0" stroke-width="1" />
			</g>
			<g style="mix-blend-mode:normal">
				<path id="Path 5564" d="M92.7503 8.6081L87.4148 8.86237L87.4246 11.1507L92.7621 11.3675L93.0164 16.7031L95.1806 16.6932L95.1806 3.30016L92.9652 3.2706L92.7503 8.6081Z" fill="rgb(0,0,0)" fill-rule="nonzero" />
				<path id="Path 5564" d="M87.4148 8.86237L87.4246 11.1507L92.7621 11.3675L93.0164 16.7031L95.1806 16.6932L95.1806 3.30016L92.9652 3.2706L92.7503 8.6081L87.4148 8.86237Z" fill-rule="nonzero" stroke="rgb(112,112,112)" stroke-opacity="0" stroke-width="1" />
			</g>
		</g>
	</g>
</svg>
