<svg xmlns="http://www.w3.org/2000/svg" width="69.798" height="26.304" viewBox="0 0 69.798 26.304">
  <g id="Logo_MARe" data-name="Logo MARe" transform="translate(-8.57 -5.627)">
    <path id="Path_6456" data-name="Path 6456" d="M8.57,5.675l5.622-.019L21.063,19.77,27.878,5.683l.1-.056c.037,0,.064.024.078.024h5.411V21.323L41.281,5.659l3.8-.011,7.835,15.676V5.651h9.971c3.726.5,5.761,3.148,5.9,6.815.041,1.105-.035,2.22,0,3.326H64.37c-.03-.992.041-1.994,0-2.985a2.8,2.8,0,0,0-.73-2.23,3.052,3.052,0,0,0-1-.509H57.332V25.012H49.763l-6.6-13.245L36.589,25.012H29.044v-11.5l-5.651,11.5L18.62,25,13.077,13.541l-.091-.08c.03.065,0,.122,0,.17V25.01H8.57Z" transform="translate(0 0)"/>
    <path id="Path_6457" data-name="Path 6457" d="M328.792,73.2l9.529,12.891-.045.135-3.442,2.53L325.28,75.883Z" transform="translate(-266.338 -56.826)"/>
    <path id="Path_6458" data-name="Path 6458" d="M400.361,72.863h-6.672c-.046,0-.1.035-.17,0a2.618,2.618,0,0,0,3.7,1.5,8.7,8.7,0,0,0,.784-.574l1.528.9a4.438,4.438,0,1,1,.825-1.819Zm-1.893-1.746a2.61,2.61,0,0,0-4.95,0Z" transform="translate(-322.066 -52.074)"/>
    <path id="Path_6459" data-name="Path 6459" d="M8.57,140.92l.53.006.636,2.033.732-2.033.53-.006v2.475h-.34v-1.94l-.684,1.936-.388-.024-.674-1.912v1.94H8.57Z" transform="translate(0 -113.775)"/>
    <path id="Path_6460" data-name="Path 6460" d="M93.08,140.912l.479.006.711,2.031.679-1.991.511-.048v2.475h-.34v-1.722c0-.032.134-.251,0-.267l-.655,1.942c-.065.08-.356.089-.406-.033l-.687-1.909v1.99H93.08V140.91Z" transform="translate(-71.069 -113.767)"/>
    <path id="Path_6461" data-name="Path 6461" d="M231.89,140.92l.46.049,1.19,1.893V140.92h.339v2.475l-.426-.01-1.223-1.931v1.94h-.339Z" transform="translate(-187.802 -113.775)"/>
    <path id="Path_6462" data-name="Path 6462" d="M123.6,140.362c2.023-.154,1.711,3.175-.293,2.594C122.15,142.623,122.27,140.463,123.6,140.362Zm-.051.339c-.854.146-.892,1.7-.134,1.953C124.876,143.141,125.086,140.437,123.545,140.7Z" transform="translate(-95.821 -113.302)"/>
    <path id="Path_6463" data-name="Path 6463" d="M168.641,140.8a.693.693,0,0,1,.219,1.239v.072c.361.1.2.6.253.887.025.135.119.2.134.326l-.412-.048c-.175-.224.1-1.069-.388-1.069h-.9v1.067h-.34V140.8C167.644,140.856,168.228,140.737,168.641,140.8Zm-1.091,1.117h.994c.318,0,.374-.825-.049-.825h-.946v.825Z" transform="translate(-133.409 -113.66)"/>
    <path id="Path_6464" data-name="Path 6464" d="M289.451,140.8a.687.687,0,0,1,.218,1.237v.072c.46.159.081.821.388,1.164l-.433,0c-.064-.28.052-1.064-.367-1.064h-.9v1.067h-.34v-2.475c.434.051,1.018-.068,1.431,0Zm-1.093,1.117h.994c.344,0,.344-.825,0-.825h-.994Z" transform="translate(-235.004 -113.652)"/>
    <path id="Path_6465" data-name="Path 6465" d="M46.106,141.318l-.294-.021c-.03-.62-1.169-.633-1.156-.051.013.522,1.366.24,1.527.942.283,1.237-1.985,1.322-1.92.1H44.6c-.089.811,1.486.727,1.242,0-.14-.423-1.4-.218-1.485-.845-.1-.741.444-.975,1.094-.9a.685.685,0,0,1,.655.776Z" transform="translate(-30.015 -113.445)"/>
    <path id="Path_6466" data-name="Path 6466" d="M62.536,140.92v.291H61.08v.778h1.358v.291H61.08v.824h1.5v.291H60.74V140.92Z" transform="translate(-43.873 -113.775)"/>
    <path id="Path_6467" data-name="Path 6467" d="M185.786,140.92v.291H184.33v.778h1.358v.291H184.33v.824h1.5v.291H183.99V140.92Z" transform="translate(-147.52 -113.775)"/>
    <path id="Path_6468" data-name="Path 6468" d="M218.426,140.92v.291h-1.431a.892.892,0,0,0,0,.776h1.334v.291h-1.408v.825h1.552v.291H216.63V140.92Z" transform="translate(-174.969 -113.775)"/>
    <path id="Path_6469" data-name="Path 6469" d="M200.9,141.22c-.441.089-.307-.126-.5-.323a.849.849,0,0,0-.93-.065c-.639.414-.546,2.182.657,1.87.393-.1.4-.612.515-.65l.261-.006a1.068,1.068,0,0,1-2.072.3,1.774,1.774,0,0,1,.159-1.513c.485-.678,1.826-.541,1.913.385Z" transform="translate(-159.916 -113.347)"/>
    <path id="Path_6470" data-name="Path 6470" d="M273.122,143.412l-.383,0-.247-.7-.977,0-.245.69-.331.008.878-2.47.456.043.848,2.427Zm-.727-1.018-.364-1.019-.364,1.019Z" transform="translate(-220.641 -113.792)"/>
    <path id="Path_6471" data-name="Path 6471" d="M28.43,140.912v1.673a1.4,1.4,0,0,0,.208.445.711.711,0,0,0,1.015-.192c.014-.03.086-.286.086-.3V140.91h.34v1.625a2.754,2.754,0,0,1-.121.461,1.034,1.034,0,0,1-1.783-.062c-.016-.041-.086-.285-.086-.3V140.91h.34Z" transform="translate(-16.415 -113.767)"/>
    <path id="Path_6472" data-name="Path 6472" d="M76.649,140.92v1.673a1.2,1.2,0,0,0,.231.463.909.909,0,0,0,.759.041.778.778,0,0,0,.321-.552V140.92h.34v1.625a2.753,2.753,0,0,1-.121.461,1.035,1.035,0,0,1-1.783-.062c-.016-.043-.086-.283-.086-.3V140.92h.34Z" transform="translate(-56.966 -113.775)"/>
    <path id="Path_6473" data-name="Path 6473" d="M143.328,140.92v.291H141.92v.778h1.214l.048.291H141.92v1.115h-.34V140.92Z" transform="translate(-111.855 -113.775)"/>
    <path id="Path_6474" data-name="Path 6474" d="M249.479,140.92v.291h-.825v2.184h-.34l0-2.184h-.875v-.291Z" transform="translate(-200.878 -113.775)"/>
    <path id="Path_6475" data-name="Path 6475" d="M305.007,140.92v.291h-.873v2.063c0,.013.04.029.038.049l-.067.067-.31.006v-2.184h-.825v-.291h2.037Z" transform="translate(-247.577 -113.775)"/>
  </g>
</svg>
