<svg width="457" height="55" viewBox="0 0 457 55" fill="none" xmlns="http://www.w3.org/2000/svg">
<path d="M0 0L27.5738 9.20267L55.1455 0V55H50.7159V6.2049L27.5738 13.9154L4.52542 6.2049V50.4877H43.1743V16.735L27.2907 21.7706L11.9712 16.735V43.0624H30.2155C31.776 42.8931 34.1346 42.7439 34.4511 40.8107C35.0374 37.314 29.0117 37.5813 26.8582 37.5145V33.2829C28.3273 33.2472 31.2454 33.2984 32.1773 31.9599C32.3373 31.7716 32.448 31.5466 32.4993 31.305C32.5507 31.0633 32.5411 30.8128 32.4715 30.5758C32.4018 30.3388 32.2743 30.1228 32.1004 29.9473C31.9264 29.7717 31.7116 29.6421 31.4751 29.5702C31.0007 29.4115 30.5115 29.301 30.0149 29.2405H23.0908V37.5122H18.5654V24.7283C22.8456 24.9866 27.6808 24.2094 31.8563 25.1514C36.0317 26.0935 38.1673 28.922 36.7807 33.2628C36.5284 33.7889 36.3117 34.3313 36.132 34.8864C36.2033 35.3318 37.1842 35.8441 37.5454 36.2094C38.199 36.9311 38.6794 37.7923 38.9498 38.7274C39.2202 39.6625 39.2736 40.647 39.1059 41.6058C38.5797 46.3608 34.6317 47.3697 30.4853 47.5813H7.44799V10.7171L27.3063 17.0824L47.7064 10.8107V55H0V0Z" fill="black"/>
<path d="M457 27.3565V44.0915H454.171V27.499C454.254 27.3654 454.361 27.3699 454.497 27.3543C455.268 27.263 456.211 27.4278 457 27.3565Z" fill="black"/>
<path d="M185.892 27.3584V44.0934H183.063V34.0332L178.335 44.0778L175.754 44.1023L170.526 33.7504V44.0934H167.793V27.3584H170.573L176.982 40.2381L183.11 27.3584H185.892Z" fill="black"/>
<path d="M65.0904 26.9822L71.5553 39.9599L77.6346 26.9822H80.4145V43.7171H77.5811V33.657L72.8528 43.7016L70.2713 43.7261L65.0436 33.3742V43.7171H62.3105V26.9822H65.0904Z" fill="black"/>
<path d="M217.189 39.2048V27.3585H219.922V44.0935H217.142L208.8 32.3407V44.0935H205.971V27.4921L206.112 27.3518H208.751L217.189 39.2048Z" fill="black"/>
<path d="M338.132 27.3588C341.173 27.5815 346.035 26.5503 348.266 29.1405C348.637 29.5752 348.916 30.0798 349.088 30.6244C349.259 31.169 349.32 31.7424 349.265 32.3108C349.211 32.8791 349.042 33.4308 348.771 33.9329C348.499 34.4351 348.128 34.8775 347.682 35.2341C347.305 35.3859 346.946 35.581 346.614 35.8154C347.242 35.97 347.821 36.2785 348.299 36.713C348.777 37.1474 349.14 37.694 349.354 38.3035C349.567 38.9129 349.626 39.566 349.523 40.2037C349.421 40.8413 349.161 41.4435 348.768 41.9557C346.761 45.0047 341.237 43.8621 338.132 44.0871V27.3588ZM340.865 34.3165H344.305C344.807 34.2185 345.287 34.0266 345.718 33.7508C345.964 33.556 346.159 33.3047 346.286 33.0182C346.414 32.7317 346.47 32.4186 346.45 32.1058C346.43 31.7929 346.334 31.4896 346.171 31.2218C346.007 30.954 345.782 30.7297 345.513 30.5681C345.188 30.4008 344.845 30.2693 344.492 30.1761H340.869V34.312L340.865 34.3165ZM340.865 41.2741H344.588C345.137 41.1791 345.655 40.9547 346.099 40.6194C346.47 40.2675 346.687 39.7843 346.704 39.2739C346.721 38.7635 346.537 38.2669 346.191 37.8911C345.688 37.5179 345.108 37.2608 344.494 37.1383H340.869L340.865 41.2741Z" fill="black"/>
<path d="M413.826 44.0935H410.573L406.141 37.1358H404.581V44.0935H401.752V34.4565L401.893 34.3162H404.392L401.752 30.1335V27.4921L401.893 27.3518H407.738C408.817 27.4802 409.865 27.8047 410.827 28.3095C411.684 28.8466 412.341 29.6486 412.699 30.5934C413.058 31.5383 413.097 32.5741 412.811 33.5433C412.562 34.3554 412.106 35.0894 411.49 35.6746C410.873 36.2598 410.116 36.6763 409.292 36.8841L413.817 44.0779L413.826 44.0935ZM405.154 30.1781C405.965 31.6111 406.862 32.9937 407.84 34.3184C408.246 34.2559 408.642 34.1437 409.019 33.9843C409.368 33.8402 409.665 33.5938 409.87 33.2777C410.075 32.9615 410.18 32.5906 410.17 32.2138C410.16 31.8371 410.035 31.4723 409.813 31.1677C409.591 30.863 409.282 30.6329 408.926 30.5077C408.575 30.367 408.212 30.2568 407.842 30.1781H405.154Z" fill="black"/>
<path d="M427.59 30.1803H419.201V34.3162H426.036L426.176 34.4565V36.9955L426.036 37.1358H419.201V41.2716H427.59V44.0935H416.372V27.4921L416.512 27.3518H427.447L427.587 27.4921L427.59 30.1803Z" fill="black"/>
<path d="M125.657 29.804H117.268V34.0356H124.244V36.7639H117.268V40.8998H125.517L125.657 41.0401V43.7127H114.439V26.9822H125.517L125.657 27.1225V29.804Z" fill="black"/>
<path d="M112.177 26.9822L103.692 40.8975H112.177V43.7194H98.6963L107.181 29.804H99.3562V26.9822H112.177Z" fill="black"/>
<path d="M397.99 27.3585V39.5344C397.914 40.013 397.784 40.4815 397.602 40.9309C395.834 45.3451 388.163 45.4231 386.039 41.3028C385.773 40.7388 385.577 40.1441 385.457 39.5322V27.3585H388.143L388.284 27.4988V39.2516C388.411 39.5792 388.568 39.8945 388.752 40.1937C389.132 40.7438 389.656 41.1785 390.268 41.4496C390.879 41.7207 391.553 41.8177 392.217 41.7299C392.88 41.6421 393.506 41.3729 394.025 40.9521C394.545 40.5312 394.938 39.9751 395.161 39.3451V27.4921L395.302 27.3518L397.99 27.3585Z" fill="black"/>
<path d="M87.0059 26.9822V38.7862C87.1095 39.1527 87.2673 39.5018 87.474 39.8218C88.9699 42.1091 93.9813 41.3296 93.9813 38.5033V26.9822H96.7144V39.3474C96.6172 39.7893 96.483 40.2221 96.3131 40.6414C94.4428 45.2205 86.1588 45.0245 84.498 40.3319C84.3523 39.8873 84.2405 39.4324 84.1636 38.971V26.9822H86.9925H87.0059Z" fill="black"/>
<path d="M131.312 26.9822V38.6882C131.4 39.0195 131.52 39.3417 131.669 39.6503C132.039 40.119 132.51 40.4987 133.046 40.7616C133.582 41.0245 134.171 41.1639 134.768 41.1695C135.366 41.175 135.957 41.0466 136.498 40.7937C137.039 40.5408 137.517 40.1699 137.895 39.7082C138.063 39.3835 138.195 39.0415 138.288 38.6882V26.9822H141.021V39.441C141.021 39.5033 140.769 40.3163 140.718 40.4543C138.687 45.9644 128.483 44.5835 128.483 38.8775V27.1225L128.624 26.9822H131.312Z" fill="black"/>
<path d="M306.269 27.3585V39.0734C306.36 39.4258 306.492 39.7665 306.661 40.089C308.055 42.5144 313.244 41.6948 313.244 38.9754V27.3585H315.977V39.7237C315.896 40.1225 315.786 40.5148 315.647 40.8975C313.592 46.2894 303.44 44.9554 303.44 39.2538V27.4921L303.58 27.3518L306.269 27.3585Z" fill="black"/>
<path d="M278.463 27.3585V39.0734C278.556 39.4267 278.688 39.7687 278.855 40.0935C279.232 40.5494 279.704 40.9165 280.239 41.1685C280.775 41.4205 281.359 41.5512 281.95 41.5512C282.542 41.5512 283.126 41.4205 283.661 41.1685C284.197 40.9165 284.669 40.5494 285.046 40.0935C285.213 39.7687 285.345 39.4267 285.438 39.0734V27.3585H288.171V39.8173C288.091 40.1859 287.981 40.5472 287.841 40.8975C285.728 46.3162 275.634 44.9598 275.634 39.158V27.4921L275.774 27.3518L278.463 27.3585Z" fill="black"/>
<path d="M355.288 27.3585V38.7816C355.288 41.6903 360.076 42.3919 361.737 40.3228C361.965 39.9942 362.143 39.633 362.263 39.2515V27.3585H365.092V39.3473C365.092 44.9152 355.237 46.2293 352.983 40.9865C352.791 40.5499 352.647 40.0935 352.555 39.6257V27.354H355.288V27.3585Z" fill="black"/>
<path d="M257.346 37.1379V44.0956H254.518V34.3161H257.063L254.518 30.227V27.3584C258.753 27.3161 266.286 26.5032 265.628 32.9419C265.411 34.1177 264.79 35.1806 263.871 35.9465C262.952 36.7125 261.793 37.1331 260.597 37.1357H257.344L257.346 37.1379ZM260.505 30.1802C259.696 30.0889 258.738 30.247 257.913 30.1802L260.505 34.3272C263.615 34.0288 263.747 30.5455 260.505 30.1802Z" fill="black"/>
<path d="M440.211 31.9664H437.478C437.454 30.345 435.824 29.7103 434.427 30.0043C433.932 30.0983 433.484 30.3597 433.159 30.7446C432.835 31.1294 432.652 31.6141 432.643 32.1174C432.634 32.6206 432.799 33.1116 433.109 33.508C433.42 33.9043 433.857 34.1818 434.348 34.2938C434.865 34.3684 435.386 34.4115 435.909 34.423C436.553 34.4846 437.179 34.6736 437.75 34.9788C438.321 35.2841 438.826 35.6995 439.235 36.2011C439.644 36.7027 439.949 37.2805 440.133 37.9008C440.316 38.5212 440.375 39.1718 440.305 39.8149C439.859 46.0154 429.787 45.6902 429.841 39.4898H432.667C432.875 42.4564 437.904 42.1223 437.467 38.9798C437.338 38.4856 437.063 38.0415 436.679 37.7045C436.295 37.3676 435.819 37.1532 435.311 37.0889C434.398 37.0483 433.497 36.8711 432.636 36.5633C431.787 36.1635 431.07 35.5284 430.571 34.7335C430.072 33.9386 429.812 33.0172 429.822 32.0789C429.831 31.1406 430.111 30.2249 430.626 29.4406C431.142 28.6563 431.872 28.0364 432.73 27.6546C433.493 27.2495 434.346 27.0449 435.21 27.0601C436.074 27.0753 436.92 27.3097 437.668 27.7414C438.416 28.173 439.042 28.7877 439.487 29.5276C439.932 30.2674 440.181 31.1082 440.211 31.9708V31.9664Z" fill="black"/>
<path d="M237.248 27.1979C238.502 27.051 239.773 27.1888 240.967 27.601C242.16 28.0133 243.245 28.6893 244.141 29.5788L242.217 31.5832C241.477 30.817 240.53 30.2813 239.492 30.0408C238.453 29.8004 237.368 29.8654 236.366 30.2281C235.363 30.5909 234.488 31.2357 233.844 32.0848C233.201 32.9339 232.818 33.951 232.74 35.0131C232.534 36.1849 232.707 37.3921 233.233 38.4593C233.76 39.5266 234.613 40.3984 235.669 40.9485C236.725 41.4985 237.93 41.6981 239.107 41.5183C240.284 41.3385 241.374 40.7886 242.217 39.9485L244.15 41.8794C243.135 42.8932 241.878 43.6299 240.497 44.0188C239.116 44.4077 237.658 44.4359 236.263 44.1006C234.868 43.7653 233.583 43.0778 232.53 42.104C231.477 41.1301 230.692 39.9025 230.25 38.5387C228.772 33.3427 231.53 27.7012 237.252 27.1801L237.248 27.1979Z" fill="black"/>
<path d="M375.536 27.198C376.808 27.0239 378.102 27.1493 379.317 27.5642C380.531 27.9792 381.631 28.6721 382.53 29.5877L380.606 31.5922C379.962 30.9301 379.162 30.44 378.28 30.1668C377.398 29.8936 376.461 29.8461 375.555 30.0285C374.65 30.2109 373.804 30.6174 373.097 31.2109C372.389 31.8043 371.842 32.5657 371.506 33.4251C369.404 39.4385 375.704 44.1334 380.606 39.9597L382.543 41.8906C382.543 42.1579 380.893 43.2269 380.563 43.3984C379.5 43.9551 378.329 44.2779 377.131 44.3452C375.932 44.4125 374.733 44.2226 373.613 43.7884C372.494 43.3543 371.481 42.6858 370.642 41.8279C369.803 40.9701 369.157 39.9427 368.748 38.8149C367.094 33.6634 369.816 27.7525 375.543 27.2047L375.536 27.198Z" fill="black"/>
<path d="M192.491 27.3584V34.08C192.61 34.4689 192.774 34.8426 192.979 35.1936C193.374 35.6237 193.858 35.9626 194.397 36.1865C194.937 36.4104 195.518 36.514 196.102 36.4901C196.686 36.4661 197.257 36.3151 197.776 36.0478C198.295 35.7804 198.75 35.403 199.108 34.9419C199.277 34.6434 199.399 34.3203 199.469 33.9842V27.3584H202.191V34.7393C202.059 35.3173 201.864 35.879 201.609 36.4141C199.076 41.1847 189.653 39.6702 189.653 34.2671V27.3629L192.491 27.3584Z" fill="black"/>
<path d="M451.817 27.3584V29.8974H448.33V44.0956H445.502V29.8974H442.013V27.3584H451.817Z" fill="black"/>
<path d="M147.62 26.9822V40.8975H153.842V43.7194H144.792V27.1225L144.932 26.9822H147.62Z" fill="black"/>
<path d="M294.767 27.3584V41.2738H300.989V44.0956H292.034V27.3584H294.767Z" fill="black"/>
<path d="M271.864 27.3584H269.035V44.0934H271.864V27.3584Z" fill="black"/>
<path d="M322.674 27.3584H319.845V44.0934H322.674V27.3584Z" fill="black"/>
<path d="M249.899 27.3585V44.0935H247.07V27.4921L247.211 27.3518L249.899 27.3585Z" fill="black"/>
<path d="M226.617 27.3585V44.0935H223.788V27.4921L223.929 27.3518L226.617 27.3585Z" fill="black"/>
<path d="M201.919 41.1782V44.0001H189.901L189.76 43.8597V41.1871L201.919 41.1782Z" fill="black"/>
</svg>
