<svg xmlns="http://www.w3.org/2000/svg" width="88.947" height="30.888" viewBox="0 0 88.947 30.888">
  <g id="logo_MNAR" transform="translate(-9.134 -8.1)">
    <path id="Path_6191" data-name="Path 6191" d="M23.705,8.349a15.337,15.337,0,1,1-11.68,24.243A15.361,15.361,0,0,1,23.705,8.349ZM12.916,20.538H10.5s-.007.223,0,.233c.049.051.725-.167.813.381-.1,1.473.146,3.144.007,4.593a.565.565,0,0,1-.41.577c-.182.07-.473-.012-.408.262h2.1c.049-.332-.415-.165-.662-.357a1.094,1.094,0,0,1-.211-.313V21.351l2.266,5.2.15.036,2.3-5.35v4.447a3.114,3.114,0,0,1-.112.468c-.146.255-.73.226-.762.257-.012.012.007.126,0,.175h3.144c-.007-.046.012-.163,0-.175-.073-.078-.73.073-.813-.439.1-1.514-.143-3.215-.007-4.707.066-.728.74-.408.818-.493a.935.935,0,0,0,0-.233H16.293l-1.6,3.894-1.776-3.894Zm8.21,0H19s.007.192,0,.233a.841.841,0,0,1,.878.665c-.133,1.342.17,3-.01,4.3a.644.644,0,0,1-.456.59c-.175.053-.466-.046-.412.257h2.154c.07-.247-.206-.175-.42-.25a.679.679,0,0,1-.512-.594V21.756L24.1,26.524c.1.1.16.2.32.175V21.5c0-.019.07-.342.085-.381a.523.523,0,0,1,.391-.306c.252-.075.393.063.34-.272H23.281c-.041,0-.146.133-.032.206.095.058.34.017.522.119a.808.808,0,0,1,.3.4V24.2l-2.941-3.661Zm11.034,6.046H35.3c.075-.286-.315-.184-.526-.26a.608.608,0,0,1-.347-.526V23.85c.16.007.352-.051.468.085l1.89,2.647h1.892c.051-.277-.206-.206-.371-.3a1.4,1.4,0,0,1-.267-.257c-.585-.643-1.034-1.606-1.633-2.266a1.569,1.569,0,0,0,.25-3.038,17.4,17.4,0,0,0-4.241-.189c-.323.027-.371.2-.056.238.568.075.616.114.67.725a31.691,31.691,0,0,1,0,4.129c-.022.277-.051.594-.349.7-.211.073-.6-.027-.526.26Zm-2.213-5.117c-.092-1.068-1.041-1.019-1.808-.611A5.678,5.678,0,0,0,25.7,24.644c-.112.789.032,2.094,1.07,2.118.949.024,1.652-1.152,2.154-1.808a5.238,5.238,0,0,1-.2.907c-.114,1.121,1.014,1.021,1.723.616a3.015,3.015,0,0,0,.915-.946c.1-.155.366-.5.007-.461-.209.022-.781,1.22-1.019.5l1.4-4.92c-.272.095-1.422.007-1.565.124-.019.017-.09.393-.124.488-.022.066-.032.211-.116.2Z" transform="translate(0 -0.172)" fill="#cb3231"/>
    <path id="Path_6192" data-name="Path 6192" d="M284.28,117.938c.007-.2.257-.184.41-.318a1.625,1.625,0,0,0,.26-.381c.75-1.315,1.356-3.084,2.021-4.5.07-.153-.017-.264.214-.209l2.193,4.988a.718.718,0,0,0,1.305-.374c.131-1.172-.095-2.579,0-3.775a.975.975,0,0,0-.342-.471c-.165-.112-.432-.07-.41-.257h1.922c.776,1.092,1.65,2.152,2.5,3.2v-2.528a1.349,1.349,0,0,0-.2-.381,1.036,1.036,0,0,0-.42-.165c-.092-.032-.165.051-.136-.124h1.747c-.032.286-.383.092-.551.352a2.535,2.535,0,0,0-.148.723c-.107,1.4.078,2.919,0,4.331l-.2-.061c-1.135-1.283-2.074-2.778-3.237-4.037-.066-.07-.116-.165-.23-.148v3.343a2.352,2.352,0,0,0,.192.476,1,1,0,0,0,.48.192c.095.027.172-.063.143.116h-4.484c-.027-.175.044-.092.141-.119.417-.1.539-.027.4-.57a5.194,5.194,0,0,0-.366-.8,11.677,11.677,0,0,0-1.8-.019c-.114.332-.587,1.019-.16,1.274.17.1.519,0,.5.228H284.28Zm1.572-1.858h1.456l-.514-1.317-.214-.369Z" transform="translate(-208.389 -79.085)" fill="#040404"/>
    <path id="Path_6193" data-name="Path 6193" d="M158.08,8.1l1.4,3.372L160.963,8.1h2.125c.027.177-.044.092-.141.119-.255.063-.459.019-.543.332a21.22,21.22,0,0,0-.073,3.826c.044.672-.015.74.619.9.1.024.17-.058.141.119h-2.737c-.029-.18.049-.092.143-.116.148-.039.556-.109.556-.32V8.741l-1.922,4.651-.2-.061-1.953-4.474v3.981a1.605,1.605,0,0,0,.158.264,1.206,1.206,0,0,0,.463.165c.1.029.163-.046.136.124H155.87c-.029-.175.046-.092.136-.124.332-.112.556-.136.616-.551-.058-1.271.095-2.632.007-3.892-.024-.362-.032-.483-.408-.582-.143-.039-.4.041-.352-.143h2.213Z" transform="translate(-111.13)" fill="#040404"/>
    <path id="Path_6194" data-name="Path 6194" d="M256.48,113.05l1.4,3.372,1.485-3.372h2.125c.027.177-.044.092-.141.119-.255.063-.459.019-.543.332a21.222,21.222,0,0,0-.073,3.826c.044.672-.015.74.619.9.1.024.17-.058.141.119h-2.737c-.029-.18.048-.092.143-.116.148-.039.556-.109.556-.32v-4.214l-1.922,4.651-.2-.061-1.953-4.474v3.981a1.606,1.606,0,0,0,.158.264,1.207,1.207,0,0,0,.463.165c.1.029.163-.046.136.124H254.27c-.029-.175.046-.092.136-.124.332-.112.556-.136.616-.551-.058-1.271.095-2.632.007-3.892-.024-.361-.032-.483-.408-.582-.143-.039-.4.041-.352-.143h2.213Z" transform="translate(-185.656 -79.487)" fill="#040404"/>
    <path id="Path_6195" data-name="Path 6195" d="M209.6,112.937a1.97,1.97,0,0,1,1.138.493,1.466,1.466,0,0,1,0,1.98c-.146.141-.711.352-.7.456.454.446,1.053,1.764,1.546,2.062.172.1.432.049.369.3h-1.747l-1.6-2.324c-.1-.1-.25-.053-.378-.058v1.715a.536.536,0,0,0,.616.551c.1.024.17-.058.141.119h-2.737c-.027-.177.044-.092.141-.119.529-.131.575-.129.619-.723a26.482,26.482,0,0,0-.01-3.775c-.061-.493-.2-.456-.609-.558-.1-.024-.17.058-.141-.119,1.072.08,2.293-.107,3.348,0Zm-1.368,2.615c1.034.053,1.657-.16,1.575-1.31-.07-.975-.738-1.058-1.575-1.014Z" transform="translate(-149.286 -79.373)" fill="#040404"/>
    <path id="Path_6196" data-name="Path 6196" d="M232.64,77.957a1.969,1.969,0,0,1,1.138.493,1.465,1.465,0,0,1,0,1.98c-.146.141-.711.352-.7.456.454.446,1.053,1.764,1.546,2.062.172.1.432.049.369.3h-1.747l-1.6-2.324c-.1-.1-.25-.053-.379-.058v1.715a.536.536,0,0,0,.616.551c.1.024.17-.058.141.119h-2.737c-.027-.177.044-.092.141-.119.529-.131.575-.129.619-.723a26.482,26.482,0,0,0-.01-3.775c-.061-.493-.2-.456-.609-.558-.1-.024-.17.058-.141-.119,1.072.08,2.293-.107,3.348,0Zm-1.368,2.615c1.034.053,1.657-.16,1.575-1.31-.07-.975-.738-1.058-1.575-1.014Z" transform="translate(-166.736 -52.88)" fill="#040404"/>
    <path id="Path_6197" data-name="Path 6197" d="M155.86,83.359c-.046-.2.172-.087.306-.129.184-.058.369-.155.388-.369-.087-1.347.129-2.858.007-4.185-.039-.432-.2-.393-.558-.49-.095-.027-.172.063-.143-.116h3.057a5.6,5.6,0,0,1,.643.172,2.726,2.726,0,0,1,.311,4.792,5.175,5.175,0,0,1-.954.328H155.86Zm1.98-5v4.331c0,.543.767.4,1.089.216,1.046-.592.978-3.232.279-4.083a1.607,1.607,0,0,0-1.371-.463Z" transform="translate(-111.122 -52.994)" fill="#040404"/>
    <path id="Path_6198" data-name="Path 6198" d="M238.375,42.541c2.1-.284,3.651.907,3.448,3.093-.323,3.462-5.922,3.229-5.588-.7a2.722,2.722,0,0,1,2.14-2.4Zm.524.291c-1.266.155-1.283,2.15-1.211,3.1.058.786.417,1.832,1.371,1.834,1.533,0,1.478-2.766,1.223-3.782-.17-.679-.619-1.242-1.383-1.148Z" transform="translate(-171.99 -26.053)" fill="#040404"/>
    <path id="Path_6199" data-name="Path 6199" d="M232.135,112.5c2.1-.284,3.651.907,3.448,3.093-.323,3.462-5.922,3.229-5.588-.7a2.722,2.722,0,0,1,2.14-2.4Zm.524.291c-1.266.155-1.283,2.15-1.211,3.1.058.786.417,1.832,1.371,1.834,1.533,0,1.478-2.766,1.223-3.782-.17-.679-.619-1.242-1.383-1.148Z" transform="translate(-167.264 -79.039)" fill="#040404"/>
    <path id="Path_6200" data-name="Path 6200" d="M214.291,8.11l-3.028,4.942h1.427a1.81,1.81,0,0,0,1.677-1.291c.068-.189-.036-.328.214-.279L214.4,13.4H209.63l2.97-4.942h-1.194a1.477,1.477,0,0,0-1.041.7c-.116.218-.112.621-.386.575l.175-1.628h4.134Z" transform="translate(-151.851 -0.008)" fill="#040404"/>
    <path id="Path_6201" data-name="Path 6201" d="M347.511,113.05v1.57c-.243.07-.2-.264-.3-.485a1.009,1.009,0,0,0-.7-.636c-.058-.017-.4-.1-.427-.1h-.961V115.5a.9.9,0,0,0,.978-.624c.049-.126.107-.577.131-.6s.126.007.175,0v2.732c-.257.073-.2-.281-.279-.5a1.038,1.038,0,0,0-.476-.628c-.087-.034-.524-.138-.524,0v1.744c0,.682,1.305.425,1.706.25a1.636,1.636,0,0,0,.752-.762c.036-.068.155-.619.34-.446.063.058-.279,1.458-.233,1.686h-4.6c-.012-.15-.01-.1.087-.114.277-.049.609-.022.665-.383-.087-1.347.129-2.858.007-4.185-.029-.328-.1-.374-.408-.466-.146-.044-.4.046-.352-.143h4.425Z" transform="translate(-252.928 -79.487)" fill="#040404"/>
    <path id="Path_6202" data-name="Path 6202" d="M235.191,8.11V9.68c-.243.07-.2-.264-.3-.485a1.009,1.009,0,0,0-.7-.636c-.058-.017-.4-.1-.427-.1H232.8v2.094a.9.9,0,0,0,.978-.624c.049-.126.107-.577.131-.6s.126.007.175,0v2.732c-.257.073-.2-.281-.279-.5a1.038,1.038,0,0,0-.476-.628c-.087-.034-.524-.138-.524,0v1.744c0,.682,1.305.425,1.706.25a1.636,1.636,0,0,0,.752-.762c.036-.068.155-.619.34-.446.063.058-.279,1.458-.233,1.686h-4.6c-.046-.189.206-.1.352-.143.308-.092.376-.138.408-.466.121-1.325-.092-2.839-.007-4.185-.056-.362-.391-.335-.665-.383-.1-.017-.1.036-.087-.114H235.2Z" transform="translate(-167.86 -0.008)" fill="#040404"/>
    <path id="Path_6203" data-name="Path 6203" d="M183.351,78.07v1.57c-.243.07-.2-.264-.3-.485a1.009,1.009,0,0,0-.7-.636c-.058-.017-.4-.1-.427-.1h-.961v2.094a.9.9,0,0,0,.978-.624c.049-.126.107-.577.131-.6s.126.007.175,0v2.732c-.257.073-.2-.281-.279-.5a1.038,1.038,0,0,0-.476-.628c-.087-.034-.524-.138-.524,0v1.744c0,.682,1.305.425,1.706.25a1.636,1.636,0,0,0,.752-.762c.036-.068.155-.619.34-.446.063.058-.279,1.458-.233,1.686h-4.6c-.046-.189.206-.1.352-.143.308-.092.376-.138.408-.466.121-1.325-.092-2.839-.007-4.185-.056-.362-.391-.335-.665-.383-.1-.017-.1.036-.087-.114h4.425Z" transform="translate(-128.597 -52.994)" fill="#040404"/>
    <path id="Path_6204" data-name="Path 6204" d="M157.781,43.082c.776,1.092,1.65,2.152,2.5,3.2V43.752a1.349,1.349,0,0,0-.2-.381,1.036,1.036,0,0,0-.42-.165c-.092-.032-.165.051-.136-.124h1.747c-.032.286-.383.092-.551.352a2.535,2.535,0,0,0-.148.723c-.107,1.4.078,2.919,0,4.331l-.2-.061c-1.135-1.283-2.074-2.778-3.237-4.037-.066-.07-.116-.165-.23-.148v3.343a2.352,2.352,0,0,0,.192.476,1,1,0,0,0,.48.192c.095.027.172-.063.143.116H155.86c-.027-.163.032-.1.129-.131.374-.131.558-.112.624-.6a25.333,25.333,0,0,0,.007-3.717.86.86,0,0,0-.415-.633c-.126-.07-.386-.019-.345-.209h1.922Z" transform="translate(-111.122 -26.493)" fill="#040404"/>
    <path id="Path_6205" data-name="Path 6205" d="M262.421,43.082c.776,1.092,1.65,2.152,2.5,3.2V43.752a1.349,1.349,0,0,0-.2-.381,1.036,1.036,0,0,0-.42-.165c-.092-.032-.165.051-.136-.124h1.747c-.032.286-.383.092-.551.352a2.534,2.534,0,0,0-.148.723c-.107,1.4.078,2.919,0,4.331l-.2-.061c-1.135-1.283-2.074-2.778-3.237-4.037-.065-.07-.116-.165-.23-.148v3.343a2.351,2.351,0,0,0,.192.476,1,1,0,0,0,.48.192c.095.027.172-.063.143.116H260.5c-.027-.163.032-.1.129-.131.374-.131.558-.112.624-.6a25.328,25.328,0,0,0,.007-3.717.86.86,0,0,0-.415-.633c-.126-.07-.386-.019-.345-.209h1.922Z" transform="translate(-190.374 -26.493)" fill="#040404"/>
    <path id="Path_6206" data-name="Path 6206" d="M254.847,8.11c.012.15.01.1-.087.114-.294.053-.6-.007-.665.383.078,1.152-.119,2.467,0,3.6.141,1.385,2.179,1.281,2.327-.349a20.782,20.782,0,0,0-.012-3.183c-.07-.393-.306-.352-.607-.442-.1-.029-.163.046-.136-.124h1.863c.029.175-.046.092-.136.124-.565.189-.577.274-.624.893-.119,1.638.674,4.226-1.713,4.394-3.093.216-2.089-2.487-2.242-4.51-.041-.553-.032-.641-.558-.781-.095-.027-.17.061-.143-.116h2.737Z" transform="translate(-184.023 -0.008)" fill="#040404"/>
    <path id="Path_6207" data-name="Path 6207" d="M189.327,8.11c.012.15.01.1-.087.114-.294.053-.6-.007-.665.383.078,1.152-.119,2.467,0,3.6.141,1.385,2.179,1.281,2.327-.349a20.776,20.776,0,0,0-.012-3.183c-.07-.393-.306-.352-.607-.442-.1-.029-.163.046-.136-.124h1.863c.029.175-.046.092-.136.124-.565.189-.577.274-.624.893-.119,1.638.674,4.226-1.713,4.394-3.093.216-2.089-2.487-2.242-4.51-.041-.553-.032-.641-.558-.781-.095-.027-.17.061-.143-.116h2.737Z" transform="translate(-134.399 -0.008)" fill="#040404"/>
    <path id="Path_6208" data-name="Path 6208" d="M207.637,43.082v1.453c-.24.049-.158-.085-.23-.264-.311-.764-.7-.9-1.516-.842V47.76a.54.54,0,0,0,.4.468c.143.039.4-.046.354.141h-2.795c-.046-.2.221-.095.366-.129.114-.027.391-.187.391-.306V43.429a1.987,1.987,0,0,0-1.068.184c-.381.245-.408.886-.446.92-.012.012-.126-.007-.175,0V43.08h4.717Z" transform="translate(-146.769 -26.493)" fill="#040404"/>
    <path id="Path_6209" data-name="Path 6209" d="M256.6,78.062v1.453c-.24.049-.158-.085-.23-.264-.311-.764-.7-.9-1.516-.842V82.74a.54.54,0,0,0,.4.468c.143.039.4-.046.354.141H252.87c-.046-.2.172-.087.306-.129.114-.036.393-.18.393-.306V78.409c-.648-.012-1.128,0-1.41.658-.1.223-.046.517-.279.446V78.06H256.6Z" transform="translate(-183.85 -52.986)" fill="#040404"/>
    <path id="Path_6210" data-name="Path 6210" d="M178.665,48c.007-.2.257-.184.41-.318a1.759,1.759,0,0,0,.26-.381l2.06-4.675.15-.036,2.152,4.886a.8.8,0,0,0,.2.262c.143.112.376.085.352.26H181.69c-.027-.175.044-.092.141-.119.354-.087.519,0,.427-.478a8.545,8.545,0,0,0-.364-.859,9.624,9.624,0,0,0-1.827-.046c-.126.328-.585,1.021-.16,1.274.17.1.519,0,.5.228H178.66Zm1.572-1.861h1.456a14.723,14.723,0,0,0-.67-1.628c-.1-.015-.112.078-.148.143C180.62,45.121,180.468,45.659,180.237,46.14Z" transform="translate(-128.395 -26.122)" fill="#040404"/>
    <path id="Path_6211" data-name="Path 6211" d="M283.3,48c.007-.2.257-.184.41-.318a1.759,1.759,0,0,0,.26-.381l2.06-4.675.15-.036,2.152,4.886a.8.8,0,0,0,.2.262c.143.112.376.085.352.26H286.33c-.027-.175.044-.092.141-.119.354-.087.519,0,.427-.478a8.527,8.527,0,0,0-.364-.859,9.624,9.624,0,0,0-1.827-.046c-.126.328-.585,1.021-.16,1.274.17.1.519,0,.5.228H283.3Zm1.572-1.861h1.456a14.72,14.72,0,0,0-.67-1.628c-.1-.015-.112.078-.148.143C285.26,45.121,285.108,45.659,284.877,46.14Z" transform="translate(-207.647 -26.122)" fill="#040404"/>
    <path id="Path_6212" data-name="Path 6212" d="M155.625,117.96c.007-.2.257-.184.41-.318a1.758,1.758,0,0,0,.26-.381l2.06-4.675.15-.036,2.152,4.886a.8.8,0,0,0,.2.262c.143.112.376.085.352.26H158.65c-.027-.175.044-.092.141-.119.354-.087.519,0,.427-.478a8.534,8.534,0,0,0-.364-.859,9.624,9.624,0,0,0-1.827-.046c-.126.328-.585,1.021-.16,1.274.17.1.519,0,.5.228H155.62ZM157.2,116.1h1.456a14.725,14.725,0,0,0-.67-1.628c-.1-.015-.112.078-.148.143C157.58,115.083,157.428,115.622,157.2,116.1Z" transform="translate(-110.945 -79.108)" fill="#040404"/>
    <path id="Path_6213" data-name="Path 6213" d="M206.025,82.98c.007-.2.257-.184.41-.318a1.759,1.759,0,0,0,.26-.381l2.06-4.675.15-.036,2.152,4.886a.8.8,0,0,0,.2.262c.143.112.376.085.352.26H209.05c-.027-.175.044-.092.141-.119.354-.087.519,0,.427-.478a8.541,8.541,0,0,0-.364-.859,9.624,9.624,0,0,0-1.827-.046c-.126.328-.585,1.021-.16,1.274.17.1.519,0,.5.228H206.02Zm1.572-1.858h1.456a14.727,14.727,0,0,0-.67-1.628c-.1-.015-.112.078-.148.143C207.98,80.1,207.828,80.642,207.6,81.122Z" transform="translate(-149.117 -52.615)" fill="#040404"/>
    <path id="Path_6214" data-name="Path 6214" d="M272.272,82.988c0-.214.325-.2.432-.354.907-1.616,1.521-3.387,2.334-5.054l.146.041,2.084,4.826a1.183,1.183,0,0,0,.272.308c.131.092.354.061.32.233H275.3c-.029-.18.049-.09.143-.116.405-.112.524-.019.4-.512-.024-.092-.3-.781-.337-.825-.053-.066-.1-.051-.172-.061a10.27,10.27,0,0,0-1.521,0c-.221.027-.354.42-.417.628-.2.66,0,.6.5.752.1.032.153-.024.126.133H272.27ZM275.3,81.13c-.2-.485-.383-1.1-.628-1.553-.022-.039-.09-.163-.129-.133l-.7,1.686Z" transform="translate(-199.293 -52.623)" fill="#040404"/>
    <path id="Path_6215" data-name="Path 6215" d="M309.677,43.09c.049.194-.221.1-.364.131-.281.066-.386.126-.446.427l.022,4.1c.141.451,1.383.313,1.735.155a1.523,1.523,0,0,0,.694-.818c.046-.1.206-.815.4-.621.068.068-.221,1.672-.175,1.919h-4.717c-.012-.15-.01-.1.087-.114.437-.075.624-.022.672-.551.116-1.291-.09-2.759-.007-4.069-.068-.427-.323-.381-.665-.442-.1-.017-.1.036-.087-.114h2.853Z" transform="translate(-225.46 -26.501)" fill="#040404"/>
    <path id="Path_6216" data-name="Path 6216" d="M181.757,113.05c.049.194-.221.1-.364.131-.281.066-.386.126-.446.427l.022,4.1c.141.451,1.383.313,1.735.155a1.523,1.523,0,0,0,.694-.818c.046-.1.206-.815.4-.621.068.068-.221,1.672-.175,1.919H178.9c-.012-.15-.01-.1.087-.114.437-.075.624-.022.672-.551.116-1.291-.09-2.759-.007-4.069-.068-.427-.323-.381-.665-.442-.1-.017-.1.036-.087-.114h2.853Z" transform="translate(-128.576 -79.487)" fill="#040404"/>
    <path id="Path_6217" data-name="Path 6217" d="M278,8.11c.049.194-.221.1-.364.131-.281.066-.386.126-.446.427l.022,4.1c.141.451,1.383.313,1.735.155a1.523,1.523,0,0,0,.694-.818c.046-.1.206-.815.4-.621.068.068-.221,1.672-.175,1.919h-4.717c-.012-.15-.01-.1.087-.114.437-.075.624-.022.672-.551.116-1.291-.09-2.759-.007-4.069-.068-.427-.323-.381-.665-.442-.1-.017-.1.036-.087-.114H278Z" transform="translate(-201.466 -0.008)" fill="#040404"/>
    <path id="Path_6218" data-name="Path 6218" d="M333.618,113.05c.046.187-.209.1-.354.141-.291.08-.361.25-.4.534a26.84,26.84,0,0,0-.01,3.775c.022.3.032.577.362.687.155.051.444-.029.4.155h-2.8c-.046-.2.221-.092.366-.129a.447.447,0,0,0,.4-.478c.121-1.325-.095-2.839-.007-4.185a.462.462,0,0,0-.388-.369c-.146-.036-.412.068-.366-.129h2.8Z" transform="translate(-243.636 -79.487)" fill="#040404"/>
    <path id="Path_6219" data-name="Path 6219" d="M366.979,113.05c.046.187-.209.1-.354.141-.291.08-.362.25-.4.534a26.845,26.845,0,0,0-.01,3.775c.022.3.032.577.362.687.155.051.444-.029.4.155h-2.8c-.046-.2.221-.092.366-.129a.447.447,0,0,0,.4-.478c.121-1.325-.095-2.839-.007-4.185a.462.462,0,0,0-.388-.369c-.146-.036-.412.068-.366-.129h2.8Z" transform="translate(-268.902 -79.487)" fill="#040404"/>
    <path id="Path_6220" data-name="Path 6220" d="M226.1,43.09c.044.184-.243.1-.4.155-.33.107-.34.381-.362.687a26.48,26.48,0,0,0,.01,3.775c.034.284.107.454.4.534.143.039.4-.046.354.141h-2.8c-.046-.2.221-.092.366-.129a.447.447,0,0,0,.4-.478c.121-1.325-.095-2.839-.007-4.185a.462.462,0,0,0-.388-.369c-.146-.036-.412.068-.366-.129h2.8Z" transform="translate(-162.203 -26.501)" fill="#040404"/>
    <path id="Path_6221" data-name="Path 6221" d="M292.255,104.882c.1.061.633,1.25.769,1.441-.541.092-.791-.512-1.242-.687-.439.206-.723.789-1.262.687.192-.245.592-1.262.781-1.4a2.7,2.7,0,0,1,.954-.041Z" transform="translate(-213.115 -73.281)" fill="#040404"/>
    <path id="Path_6222" data-name="Path 6222" d="M281.388,71.3a1.211,1.211,0,0,1-2.225.563c-.053-.092-.289-.563-.073-.568.291,0,.289.192.519.3a1.614,1.614,0,0,0,1.213-.017c.2-.1.257-.364.565-.277Z" transform="translate(-204.391 -47.849)" fill="#040404"/>
    <path id="Path_6223" data-name="Path 6223" d="M210.728,67.859c-.049-.25.08-.141.214-.221.247-.148.408-.262.369-.592-.924.359-.934-.985.015-.74.815.209.209,1.655-.6,1.555Z" transform="translate(-152.597 -44.061)" fill="#040404"/>
    <path id="Path_6224" data-name="Path 6224" d="M17.153,58.66l1.776,3.894,1.6-3.894h2.417s.007.223,0,.233c-.08.082-.752-.238-.818.493-.136,1.492.1,3.193.007,4.707.08.514.738.361.813.439.012.012-.007.126,0,.175H19.805c.007-.046-.012-.163,0-.175.032-.032.616,0,.762-.257a3.185,3.185,0,0,0,.112-.468V59.359l-2.3,5.35-.15-.036-2.266-5.2v4.564a1.184,1.184,0,0,0,.211.313c.245.192.711.024.662.357h-2.1c-.066-.274.226-.192.408-.262a.564.564,0,0,0,.41-.577c.138-1.446-.107-3.12-.007-4.593-.085-.548-.762-.33-.813-.381a.935.935,0,0,1,0-.233h2.417Z" transform="translate(-4.238 -38.293)" fill="#040404"/>
    <path id="Path_6225" data-name="Path 6225" d="M81.582,59.744c.085.007.095-.138.116-.2.032-.095.1-.471.124-.488.143-.116,1.291-.029,1.565-.124l-1.4,4.92c.238.716.81-.483,1.019-.5.359-.039.092.308-.007.461a3.042,3.042,0,0,1-.915.946c-.708.405-1.837.5-1.723-.616a5.67,5.67,0,0,0,.2-.907c-.5.655-1.206,1.829-2.154,1.808-1.038-.027-1.182-1.33-1.07-2.118a5.687,5.687,0,0,1,2.436-3.787c.767-.408,1.715-.456,1.808.611Zm-2.431,4c.434.408,1.133-.655,1.313-.956a5.589,5.589,0,0,0,.852-2.6c-.007-.422-.07-1.068-.67-.876-.667.214-1.553,2.708-1.621,3.382-.024.24-.051.888.124,1.053Z" transform="translate(-51.634 -38.448)" fill="#fefdfd"/>
    <path id="Path_6226" data-name="Path 6226" d="M104.01,64.556c-.075-.286.315-.184.526-.26.3-.1.328-.422.349-.7a31.694,31.694,0,0,0,0-4.129c-.053-.611-.1-.653-.67-.725-.315-.041-.264-.211.056-.238a17.4,17.4,0,0,1,4.241.189,1.568,1.568,0,0,1-.25,3.038c.6.66,1.046,1.621,1.633,2.266a1.4,1.4,0,0,0,.267.257c.165.092.422.022.371.3H108.64l-1.89-2.647c-.116-.136-.308-.078-.468-.085V63.77a.611.611,0,0,0,.347.526c.211.073.6-.027.526.26Zm2.271-3.081c.929.036,1.747-.022,1.808-1.131.034-.607-.112-1.216-.757-1.4-.155-.044-1.051-.177-1.051,0v2.528Z" transform="translate(-71.85 -38.143)" fill="#040404"/>
    <path id="Path_6227" data-name="Path 6227" d="M51.905,58.652l2.941,3.661V59.378a.819.819,0,0,0-.3-.4c-.182-.1-.427-.061-.522-.119-.114-.073-.01-.206.032-.206H56.01c.056.335-.085.2-.34.272a.523.523,0,0,0-.391.306c-.012.039-.085.362-.085.381v5.2c-.16.029-.226-.078-.32-.175L51,59.868v3.981a.679.679,0,0,0,.512.594c.216.075.49,0,.42.25H49.78c-.053-.3.235-.2.412-.257a.644.644,0,0,0,.456-.59c.177-1.3-.126-2.96.01-4.3a.835.835,0,0,0-.878-.665c.007-.041-.012-.233,0-.233h2.125Z" transform="translate(-30.779 -38.285)" fill="#040404"/>
    <path id="Path_6228" data-name="Path 6228" d="M84.459,65.007c-.175-.165-.148-.81-.124-1.053.068-.674.954-3.169,1.621-3.382.6-.192.662.454.67.876a5.571,5.571,0,0,1-.852,2.6c-.18.3-.878,1.364-1.313.956Z" transform="translate(-56.942 -39.715)" fill="#cb3231"/>
    <path id="Path_6229" data-name="Path 6229" d="M113.4,62.7V60.176c0-.18.9-.046,1.051,0,.645.184.791.793.757,1.4-.061,1.111-.878,1.167-1.808,1.131Z" transform="translate(-78.969 -39.372)" fill="#cb3231"/>
  </g>
</svg>
