<svg width="80" height="30" viewBox="0 0 80 30" fill="none" xmlns="http://www.w3.org/2000/svg">
<g clip-path="url(#clip0_2306_22)">
<path d="M0 0.0547449L6.44374 0.0330751L14.319 16.1302L22.1301 0.0638689L22.2448 0C22.2872 0 22.3181 0.0273725 22.3342 0.0273725H28.5361V17.9015L37.4922 0.0364964L41.8476 0.0239506L50.8278 17.9026V0.0273725H62.2562C66.5268 0.597628 68.8593 3.6177 69.0186 7.79995C69.0656 9.06022 68.9785 10.3319 69.0186 11.5933H63.956C63.9216 10.4619 64.003 9.31912 63.956 8.18887C64.0097 7.72994 63.9627 7.26488 63.8183 6.82578C63.6738 6.38668 63.4353 5.984 63.1193 5.64553C62.7766 5.3832 62.3879 5.18637 61.9731 5.06501H55.8893V22.1088H47.214L39.6493 7.00274L32.1144 22.1088H23.4666V8.99293L16.9896 22.1088L11.519 22.0951L5.16576 9.026L5.06146 8.93476C5.09585 9.0089 5.06146 9.0739 5.06146 9.12865V22.1065H0V0.0547449Z" fill="black"/>
<path d="M61.7597 12.2571L72.6815 26.9594L72.6299 27.1134L68.6849 29.9989L57.7344 15.3171L61.7597 12.2571Z" fill="black"/>
<path d="M79.9163 17.2924H72.2691C72.2163 17.2924 72.1545 17.3323 72.0742 17.2924C72.2106 17.7038 72.4352 18.0809 72.7327 18.3973C73.0301 18.7136 73.3931 18.9618 73.7966 19.1246C74.2001 19.2874 74.6344 19.3608 75.0693 19.3399C75.5042 19.3189 75.9292 19.204 76.315 19.0031C76.6266 18.8018 76.9266 18.5832 77.2136 18.3485L78.965 19.375C78.2061 20.3625 77.1086 21.0377 75.8816 21.2717C74.6546 21.5057 73.384 21.2822 72.3119 20.6438C71.2399 20.0054 70.4415 18.9968 70.0689 17.8102C69.6963 16.6236 69.7756 15.3421 70.2916 14.2099C70.8076 13.0778 71.7243 12.1742 72.8669 11.6714C74.0095 11.1686 75.2981 11.1019 76.487 11.4839C77.6759 11.8658 78.682 12.6698 79.3134 13.7426C79.9447 14.8153 80.1573 16.0817 79.9105 17.3004L79.9163 17.2924ZM77.7466 15.301C77.5475 14.7092 77.1665 14.1946 76.6574 13.83C76.1484 13.4654 75.5371 13.2693 74.9098 13.2693C74.2826 13.2693 73.6713 13.4654 73.1622 13.83C72.6532 14.1946 72.2722 14.7092 72.0731 15.301H77.7466Z" fill="black"/>
<path d="M0 24.5415L0.607468 24.5483L1.33643 26.867L2.17542 24.5483L2.78289 24.5415V27.3643H2.39319V25.1517L1.60922 27.3597L1.1645 27.3323L0.391988 25.1517V27.3643H0V24.5415Z" fill="black"/>
<path d="M15.4058 24.5416L15.9548 24.5484L16.7697 26.8648L17.5479 24.594L18.1336 24.5393V27.3621H17.7439V25.3981C17.7439 25.3616 17.8975 25.1118 17.7439 25.0936L16.9932 27.3085C16.9187 27.3997 16.5852 27.41 16.5279 27.2708L15.7404 25.0936V27.3632H15.4058V24.5393V24.5416Z" fill="black"/>
<path d="M40.7095 24.5415L41.2367 24.5974L42.6006 26.7564V24.5415H42.9892V27.3643L42.5009 27.3529L41.0992 25.1505V27.3631H40.7106L40.7095 24.5415Z" fill="black"/>
<path d="M22.0167 24.4446C24.3354 24.269 23.9778 28.0658 21.6809 27.4031C20.3547 27.0233 20.4923 24.5598 22.0167 24.4446ZM21.9582 24.8313C20.9794 24.9978 20.9358 26.7701 21.8046 27.0587C23.4792 27.6141 23.7199 24.5302 21.9536 24.8301L21.9582 24.8313Z" fill="black"/>
<path d="M30.5591 24.5358C30.7058 24.5743 30.8383 24.6537 30.941 24.7648C31.0437 24.8758 31.1124 25.0138 31.1388 25.1625C31.1652 25.3111 31.1482 25.4641 31.09 25.6035C31.0318 25.7428 30.9347 25.8627 30.8101 25.9489V26.031C31.2239 26.145 31.0394 26.7153 31.1001 27.0426C31.1288 27.1966 31.2365 27.2707 31.2537 27.4144L30.7815 27.3597C30.5809 27.1042 30.8961 26.1405 30.3368 26.1405H29.3052V27.3574H28.9155V24.5358C29.4164 24.5996 30.0858 24.4639 30.5591 24.5358ZM29.3087 25.8097H30.448C30.8124 25.8097 30.8766 24.8688 30.3918 24.8688H29.3075V25.8097H29.3087Z" fill="black"/>
<path d="M52.5826 24.545C52.7305 24.5815 52.8646 24.6599 52.9687 24.7707C53.0727 24.8816 53.1422 25.0201 53.1686 25.1695C53.1951 25.3189 53.1774 25.4727 53.1177 25.6123C53.058 25.7518 52.9589 25.8712 52.8324 25.9558V26.0379C53.3597 26.2192 52.9253 26.9743 53.2772 27.3655H52.7808C52.7075 27.0461 52.8404 26.152 52.3602 26.152H51.3287V27.3689H50.939V24.5461C51.4364 24.6043 52.1058 24.4686 52.5791 24.5461L52.5826 24.545ZM51.3298 25.8189H52.4691C52.8634 25.8189 52.8634 24.878 52.4691 24.878H51.3298V25.8189Z" fill="black"/>
<path d="M8.6203 25.3717L8.28333 25.3478C8.24894 24.6407 6.94346 24.6259 6.95836 25.2896C6.97326 25.885 8.52402 25.5634 8.70855 26.364C9.03292 27.7748 6.43342 27.8717 6.50792 26.478H6.89418C6.79217 27.403 8.59738 27.3072 8.31771 26.478C8.15725 25.9956 6.71308 26.2294 6.61566 25.5143C6.50104 24.6692 7.12456 24.4023 7.86956 24.4878C7.97914 24.4916 8.08671 24.5182 8.18533 24.5659C8.28395 24.6136 8.37144 24.6813 8.44217 24.7647C8.51289 24.8481 8.56528 24.9453 8.59596 25.05C8.62664 25.1548 8.63493 25.2648 8.6203 25.3729V25.3717Z" fill="black"/>
<path d="M11.5683 24.5415V24.8734H9.89946V25.7607H11.456V26.0926H9.89946V27.0324H11.6187V27.3643H9.50977V24.5415H11.5683Z" fill="black"/>
<path d="M34.0365 24.5415V24.8734H32.3677V25.7607H33.9242V26.0926H32.3677V27.0324H34.087V27.3643H31.978V24.5415H34.0365Z" fill="black"/>
<path d="M39.9862 24.5415V24.8734H38.3461C38.2791 25.0114 38.2443 25.1627 38.2443 25.3159C38.2443 25.4692 38.2791 25.6204 38.3461 25.7584H39.8751V26.0903H38.2613V27.0312H40.0401V27.3631H37.9277V24.5415H39.9862Z" fill="black"/>
<path d="M37.1518 25.3718C36.6463 25.4733 36.7999 25.2281 36.5787 25.0034C36.4277 24.8889 36.2463 24.8209 36.0569 24.8077C35.8675 24.7946 35.6784 24.8368 35.5128 24.9293C34.7804 25.4015 34.887 27.4179 36.2658 27.062C36.7163 26.948 36.7243 26.364 36.8561 26.3207L37.1552 26.3139C37.1395 26.5946 37.0266 26.8612 36.8359 27.0685C36.6451 27.2759 36.3881 27.4112 36.1084 27.4515C35.8288 27.4917 35.5438 27.4345 35.3018 27.2896C35.0597 27.1446 34.8755 26.9207 34.7804 26.656C34.6802 26.3729 34.6447 26.0713 34.6762 25.7728C34.7077 25.4743 34.8055 25.1866 34.9626 24.9304C35.5185 24.1571 37.0555 24.3134 37.1552 25.3695L37.1518 25.3718Z" fill="black"/>
<path d="M50.3292 27.3643H49.8903L49.6072 26.5659H48.4874L48.2065 27.3528L47.8271 27.362L48.8335 24.5449L49.3561 24.594L50.3281 27.362L50.3292 27.3643ZM49.496 26.2032L49.0788 25.041L48.6616 26.2032H49.496Z" fill="black"/>
<path d="M3.94846 24.5416V26.4497C3.99725 26.6315 4.07796 26.8033 4.18686 26.9572C4.27666 27.0218 4.37876 27.0675 4.48692 27.0916C4.59508 27.1156 4.70702 27.1174 4.81591 27.0969C4.9248 27.0764 5.02835 27.034 5.12022 26.9724C5.21209 26.9107 5.29035 26.831 5.35022 26.7382C5.36626 26.704 5.44879 26.412 5.44879 26.396V24.5393H5.83848V26.3926C5.80761 26.5716 5.76121 26.7475 5.6998 26.9184C5.58913 27.0921 5.43472 27.234 5.25191 27.33C5.06909 27.426 4.86422 27.4728 4.65763 27.4656C4.45105 27.4585 4.24994 27.3977 4.07426 27.2893C3.89859 27.1809 3.75446 27.0287 3.65619 26.8477C3.63785 26.8009 3.55762 26.5227 3.55762 26.5055V24.5393H3.94731L3.94846 24.5416Z" fill="black"/>
<path d="M12.7372 24.5415V26.4496C12.7858 26.6427 12.8762 26.8229 13.0019 26.9776C13.135 27.0474 13.2816 27.0878 13.4318 27.0958C13.5819 27.1039 13.7321 27.0795 13.8719 27.0244C13.9745 26.9513 14.0603 26.8574 14.1237 26.7489C14.1872 26.6404 14.2267 26.5197 14.2398 26.3948V24.5415H14.6295V26.3948C14.5986 26.5738 14.5522 26.7497 14.4908 26.9206C14.3799 27.094 14.2255 27.2357 14.0427 27.3315C13.8599 27.4272 13.6551 27.4739 13.4487 27.4667C13.2422 27.4596 13.0412 27.3989 12.8656 27.2907C12.6899 27.1825 12.5457 27.0306 12.4472 26.8499C12.4289 26.8009 12.3486 26.5271 12.3486 26.5077V24.5415H12.7372Z" fill="black"/>
<path d="M26.2506 24.5415V24.8734H24.6368V25.7607H26.0282L26.0832 26.0926H24.6368V27.3643H24.2471V24.5415H26.2506Z" fill="black"/>
<path d="M45.8821 24.5415V24.8734H44.9365V27.3643H44.5468V24.8734H43.5439V24.5415H45.8821Z" fill="black"/>
<path d="M56.0017 24.5415V24.8734H55.0011V27.2263C55.0011 27.2411 55.047 27.2593 55.0447 27.2822L54.9679 27.3586L54.6126 27.3654V24.8745H53.667V24.5427H56.0017V24.5415Z" fill="black"/>
</g>
<defs>
<clipPath id="clip0_2306_22">
<rect width="80" height="30" fill="white"/>
</clipPath>
</defs>
</svg>
