<svg xmlns="http://www.w3.org/2000/svg" xmlns:xlink="http://www.w3.org/1999/xlink" width="81.333" height="22.683" viewBox="0 0 81.333 22.683">
  <defs>
    <linearGradient id="linear-gradient" x1="0.179" y1="0.883" x2="0.823" y2="0.118" gradientUnits="objectBoundingBox">
      <stop offset="0"/>
      <stop offset="0.25" stop-color="#010101"/>
      <stop offset="0.34" stop-color="#080808"/>
      <stop offset="0.4" stop-color="#131414"/>
      <stop offset="0.45" stop-color="#242425"/>
      <stop offset="0.5" stop-color="#39393b"/>
      <stop offset="0.53" stop-color="#525355"/>
      <stop offset="0.54" stop-color="#565759"/>
      <stop offset="0.84" stop-color="#c7c8c8"/>
      <stop offset="1" stop-color="#fff"/>
    </linearGradient>
    <linearGradient id="linear-gradient-2" x1="0.186" y1="0.878" x2="0.763" y2="0.159" gradientUnits="objectBoundingBox">
      <stop offset="0" stop-color="#fff"/>
      <stop offset="0.12" stop-color="#cbcbcc"/>
      <stop offset="0.23" stop-color="#a0a1a2"/>
      <stop offset="0.33" stop-color="#828384"/>
      <stop offset="0.42" stop-color="#6f7072"/>
      <stop offset="0.48" stop-color="#696a6c"/>
      <stop offset="0.5" stop-color="#636466"/>
      <stop offset="0.73" stop-color="#2e2e2f"/>
      <stop offset="0.91" stop-color="#0c0c0d"/>
      <stop offset="1"/>
    </linearGradient>
  </defs>
  <g id="Logo_Mobius" data-name="Logo Mobius" transform="translate(-15.908 -7.07)">
    <g id="Group_780" data-name="Group 780" transform="translate(15.908 7.584)">
      <path id="Path_6476" data-name="Path 6476" d="M29.489,26.132h2.337V9.76H29.231l-5.379,7.724L18.525,9.76H15.91V26.13h2.337V13.465l5.631,8.164,5.609-8.172V26.132Z" transform="translate(-15.91 -9.736)"/>
      <path id="Path_6477" data-name="Path 6477" d="M196.132,26.036h8.914c.05-.006.146-.024.284-.05.2-.038.358-.07.478-.1a4.061,4.061,0,0,0,1.516-.69,4.771,4.771,0,0,0,1.078-1.116,4.634,4.634,0,0,0,.622-1.312,4.844,4.844,0,0,0,.2-1.33,5.621,5.621,0,0,0-.248-1.564,3.294,3.294,0,0,0-.752-1.348c-.026-.024-.076-.08-.132-.146a.936.936,0,0,0-.068-.076l-.428-.43.408-.448a4.347,4.347,0,0,0,.93-1.554,5.139,5.139,0,0,0,.29-1.6c0-.034-.008-.158-.022-.364a3.337,3.337,0,0,0-.058-.478l-.012-.07a3.068,3.068,0,0,0-.21-.8,4.849,4.849,0,0,0-.466-.888,4.254,4.254,0,0,0-.678-.79,4.115,4.115,0,0,0-.868-.61l-.374-.186c-.086-.042-.158-.078-.22-.1s-.128-.04-.214-.07c-.106-.038-.232-.08-.37-.128s-.246-.076-.364-.1a1.077,1.077,0,0,0-.178-.032H196.13V26.034Zm8.658-2.307a.728.728,0,0,1-.114-.008h-6.209v-4.6h6.277a1.223,1.223,0,0,1,.4.092c.136.046.246.086.334.122l.058.026.026.01a.961.961,0,0,1,.28.148,1.682,1.682,0,0,1,.46.382,2.268,2.268,0,0,1,.33.516,2.829,2.829,0,0,1,.184.512,2,2,0,0,1,.068.492,2.576,2.576,0,0,1-.352,1.218,1.917,1.917,0,0,1-1.16.958c-.074.02-.148.04-.238.068a1.187,1.187,0,0,1-.346.06Zm-.044-7.18h-6.277v-4.6h6.349a1.085,1.085,0,0,1,.4.092.962.962,0,0,0,.132.046,1.72,1.72,0,0,1,.774.418,2.263,2.263,0,0,1,.45.584,2.872,2.872,0,0,1,.232.588,2.226,2.226,0,0,1,.082.556,1.943,1.943,0,0,1-.068.488,2.8,2.8,0,0,1-.184.51,2.6,2.6,0,0,1-.3.492,1.664,1.664,0,0,1-.464.41,1.932,1.932,0,0,1-.194.112,1.849,1.849,0,0,1-.208.088c-.084.032-.18.07-.294.11a1.25,1.25,0,0,1-.43.1Z" transform="translate(-160.078 -9.64)"/>
      <path id="Path_6478" data-name="Path 6478" d="M271.04,26.132h2.337V9.76H271.04V26.13Z" transform="translate(-220.003 -9.736)"/>
      <path id="Path_6479" data-name="Path 6479" d="M299.081,25.978c.228.042.492.078.782.11a7.521,7.521,0,0,0,.76.044,7.031,7.031,0,0,0,1.308-.122,6.314,6.314,0,0,0,1.23-.358c.112-.05.238-.112.362-.176q.21-.111.408-.21a6.457,6.457,0,0,0,1.238-.888,5.5,5.5,0,0,0,1.042-1.2,8.172,8.172,0,0,0,.712-1.408,6.875,6.875,0,0,0,.372-1.452c.016-.1.03-.208.046-.338.012-.1.018-.172.02-.206V9.76h-2.339v9.954a1.967,1.967,0,0,1-.076.45,3.237,3.237,0,0,1-.126.448,4.5,4.5,0,0,1-1.748,2.433,4.149,4.149,0,0,1-1.24.59,4.408,4.408,0,0,1-3.525-.466,4.452,4.452,0,0,1-1.822-2.2,4.668,4.668,0,0,1-.162-.508,3.528,3.528,0,0,1-.1-.494.832.832,0,0,1-.03-.23V9.76H293.86V19.834h0s0,.032.008.08c.008.074.018.166.034.278s.032.224.054.338c.024.132.046.248.062.346.01.046.028.114.052.194s.052.16.078.226l.02.054a7.362,7.362,0,0,0,.242.7,5.83,5.83,0,0,0,.686,1.24,6.955,6.955,0,0,0,1.04,1.16,5.873,5.873,0,0,0,1.462,1,8.017,8.017,0,0,0,1.482.528Z" transform="translate(-238.258 -9.736)"/>
      <path id="Path_6480" data-name="Path 6480" d="M370.39,23.719a4.419,4.419,0,0,0,.836,1.062,5.649,5.649,0,0,0,1.064.774,5.726,5.726,0,0,0,1.128.484,6.877,6.877,0,0,0,1.082.242l.04.006a1.71,1.71,0,0,0,.22.026l.338.022a7.161,7.161,0,0,0,.96-.01c.2-.014.408-.034.606-.058a4.011,4.011,0,0,0,.516-.092c.174-.044.324-.086.454-.13a5.809,5.809,0,0,0,1.384-.74,3.929,3.929,0,0,0,.876-.884,3.141,3.141,0,0,0,.458-.982,4.607,4.607,0,0,0,.146-1.164,5.827,5.827,0,0,0-.1-1.044,4.107,4.107,0,0,0-.322-.992,3.436,3.436,0,0,0-.626-.9,4.908,4.908,0,0,0-1.078-.82c-.126-.078-.262-.154-.42-.232s-.314-.154-.45-.214l-.068-.034a2.673,2.673,0,0,0-.244-.126c-.126-.058-.234-.114-.328-.168-.332-.158-.668-.326-1-.5l-1-.526c-.07-.034-.154-.082-.236-.132-.042-.026-.09-.052-.136-.076a2.447,2.447,0,0,1-1.064-1,2.348,2.348,0,0,1-.314-1.1,2.227,2.227,0,0,1,.28-1.15,1.929,1.929,0,0,1,.726-.72,2.685,2.685,0,0,1,.878-.3,4.482,4.482,0,0,1,1.7.028,3.606,3.606,0,0,1,.958.348,4.064,4.064,0,0,1,.852.61,2.853,2.853,0,0,1,.358.4l1.944-.972-.006-.014a4.531,4.531,0,0,0-.828-1.024,6.156,6.156,0,0,0-1.072-.79,5.445,5.445,0,0,0-1.122-.492,6.959,6.959,0,0,0-1.044-.236c-.084,0-.186-.006-.306-.014l-.374-.024c-.116-.008-.258-.02-.426-.034a7.48,7.48,0,0,0-1.03.078,5.336,5.336,0,0,0-1.026.246,4.016,4.016,0,0,0-.656.292,5.611,5.611,0,0,0-.7.452,5.534,5.534,0,0,0-.642.566,2.674,2.674,0,0,0-.444.608,3.372,3.372,0,0,0-.16.318c-.052.118-.094.216-.122.29a.653.653,0,0,0-.036.13c-.018.1-.036.176-.054.238a5.062,5.062,0,0,0-.056.514c-.014.208-.022.332-.022.372a5.812,5.812,0,0,0,.1,1.038,3.862,3.862,0,0,0,.328.982,3.82,3.82,0,0,0,.648.922,4.163,4.163,0,0,0,1.058.8c.142.072.308.156.478.244.154.082.3.158.432.232a3.143,3.143,0,0,1,.334.146l.26.13c.164.082.354.18.572.292s.426.224.62.328l.528.288c.106.058.178.1.222.116l.072.03a2.66,2.66,0,0,1,1.758,2.313,2.156,2.156,0,0,1-.286,1.146,1.994,1.994,0,0,1-.72.7,2.67,2.67,0,0,1-.878.3,4.531,4.531,0,0,1-1.716-.03,3.912,3.912,0,0,1-.93-.328,3.724,3.724,0,0,1-.864-.6,2.949,2.949,0,0,1-.376-.424l-1.928.972Z" transform="translate(-299.478 -9.952)"/>
    </g>
    <g id="Group_781" data-name="Group 781" transform="translate(33.189 7.07)">
      <path id="Path_6481" data-name="Path 6481" d="M119.938,15.778a8.449,8.449,0,0,1-.678,3.381,8.612,8.612,0,0,1-1.846,2.735,8.829,8.829,0,0,1-2.735,1.842,8.673,8.673,0,0,1-6.734,0,8.872,8.872,0,0,1-2.747-1.854,8.694,8.694,0,0,1-1.86-2.747,8.736,8.736,0,0,1,0-6.75,8.759,8.759,0,0,1,4.607-4.635,8.662,8.662,0,0,1,6.758.012,8.792,8.792,0,0,1,2.735,1.878,8.7,8.7,0,0,1,1.836,2.771,8.607,8.607,0,0,1,.666,3.369Zm-9.806-5.047a5.181,5.181,0,0,0-1.168.446,5.484,5.484,0,0,0-1.108.774,4.891,4.891,0,0,0-.922,1.126,4.818,4.818,0,0,0-.63,1.62c-.032.172-.058.344-.082.516a4.1,4.1,0,0,0-.036.564,4.908,4.908,0,0,0,.4,1.96,5.2,5.2,0,0,0,1.1,1.632,5.266,5.266,0,0,0,1.634,1.114,5.016,5.016,0,0,0,3.945.012A5.171,5.171,0,0,0,116,17.786a4.923,4.923,0,0,0,.408-2.006,5.67,5.67,0,0,0-.186-1.408,4.856,4.856,0,0,0-.606-1.384,5.421,5.421,0,0,0-1.074-1.21,5.3,5.3,0,0,0-1.588-.9,2.04,2.04,0,0,0-.444-.106,4.171,4.171,0,0,1-.444-.082,3.6,3.6,0,0,0-.49-.07l-1.448.116Z" transform="translate(-102.587 -7.07)" fill="url(#linear-gradient)"/>
      <path id="Path_6482" data-name="Path 6482" d="M113.06,41.63" transform="translate(-110.906 -34.716)"/>
      <path id="Path_6483" data-name="Path 6483" d="M115.631,23.6s1.284-5.131-2.875-6.7c-4.539-1.708-7.262,2.363-7.144,5.747.112,3.177,2.287,6.343,6.974,6.3a7.541,7.541,0,0,0,6.441-4.353,7.988,7.988,0,0,1-4.4,4.751,8.606,8.606,0,0,1-5.767.514c-7.876-1.752-8.956-13.653-1.628-15.453,7.5-1.84,10.386,5.479,8.4,9.184Z" transform="translate(-102.295 -12.71)" fill="url(#linear-gradient-2)"/>
    </g>
    <g id="Group_782" data-name="Group 782" transform="translate(15.908 26.136)">
      <path id="Path_6484" data-name="Path 6484" d="M17.456,102.406l-.1.022-.1.024a2,2,0,0,0-.416.176,1.871,1.871,0,0,0-.44.342,1.842,1.842,0,0,0-.352.52,1.733,1.733,0,0,0-.148.714,1.624,1.624,0,0,0,.064.474,1.786,1.786,0,0,0,.216.482,1.964,1.964,0,0,0,.38.43,1.781,1.781,0,0,0,.552.312,1,1,0,0,0,.172.052l.182.032.06.01c.014,0,.026,0,.032,0H18.5v-2.052h-.962v.51h.448v1.034h-.4a.427.427,0,0,1-.1-.014l-.1-.026c-.034-.01-.066-.018-.094-.028l-.062-.02a1.277,1.277,0,0,1-.38-.23,1.247,1.247,0,0,1-.248-.3,1.28,1.28,0,0,1-.138-.34,1.357,1.357,0,0,1-.044-.34,1.1,1.1,0,0,1,.028-.268c.018-.066.046-.154.086-.264l.006-.014c.006-.012.01-.022.014-.032a.3.3,0,0,1,.028-.05,1,1,0,0,1,.142-.21,1.416,1.416,0,0,1,.2-.184,1.359,1.359,0,0,1,.22-.14,1.027,1.027,0,0,1,.232-.086l.024,0,.024-.008a.78.78,0,0,1,.17-.032H18.5v-.51h-.9l-.056.008c-.038,0-.07.008-.092.012Z" transform="translate(-15.908 -102.388)"/>
      <path id="Path_6485" data-name="Path 6485" d="M82.329,106.747h.57l-1.606-3.427-1.612,3.427h.564l.284-.6h1.514l.284.6Zm-.522-1.11H80.77l.524-1.1.514,1.1Z" transform="translate(-66.923 -103.132)"/>
      <path id="Path_6486" data-name="Path 6486" d="M146.87,106h2.473v-.51h-1.958v-3.1h-.514v3.6Z" transform="translate(-120.672 -102.388)"/>
      <path id="Path_6487" data-name="Path 6487" d="M212.2,106h2.473v-.51h-1.958v-3.1H212.2v3.6Z" transform="translate(-172.933 -102.388)"/>
      <path id="Path_6488" data-name="Path 6488" d="M277.53,106H280v-.51h-1.958v-1.038h.974v-.51h-.974V102.9H280v-.51H277.53v3.6Z" transform="translate(-225.194 -102.388)"/>
      <path id="Path_6489" data-name="Path 6489" d="M344.884,105.995h.56l-.7-1.584.1-.066a1.057,1.057,0,0,0,.386-.426,1.153,1.153,0,0,0,.112-.474,1.106,1.106,0,0,0-.022-.212,1.019,1.019,0,0,0-.264-.508.882.882,0,0,0-.194-.164,1.752,1.752,0,0,0-.22-.112.438.438,0,0,0-.056-.016l-.1-.026c-.032-.008-.064-.014-.094-.02l-.06-.006H343.05v3.611h.514v-1.484h.648l.67,1.49Zm-.578-2h-.74v-1.106h.74a.319.319,0,0,1,.078.01.487.487,0,0,1,.09.024.526.526,0,0,1,.276.24.622.622,0,0,1,.07.278.628.628,0,0,1-.07.278.492.492,0,0,1-.276.234.5.5,0,0,1-.082.026.369.369,0,0,1-.086.014Z" transform="translate(-277.607 -102.38)"/>
      <path id="Path_6490" data-name="Path 6490" d="M407.6,106h.514v-1.3l1.362-2.3h-.6l-1.028,1.718-1.022-1.718h-.6L407.6,104.7v1.3Z" transform="translate(-328.148 -102.388)"/>
    </g>
  </g>
</svg>
