<svg xmlns="http://www.w3.org/2000/svg" width="47.395" height="54" viewBox="0 0 47.395 54">
  <g id="logo-muzeul-taranului-roman" transform="translate(-31.315)">
    <path id="Path_6141" data-name="Path 6141" d="M59.2,0c.756.57,1.432.349,2.265.424.992.089,1.625.7,2.58.9.733.157,1.711.114,2.415.327a33.915,33.915,0,0,1,3.048,1.8c.527.238,1.14.235,1.771.549,1.706.848,4.738,5.071,5.48,6.859.518,1.249.9,2.559,1.346,3.822a7.131,7.131,0,0,1,.6,2.246,13.786,13.786,0,0,1-.309,1.576c-.122,1.339.143,2.9,0,4.218a59.885,59.885,0,0,1-1.156,6.542A25.875,25.875,0,0,1,75.4,33.957c-.468,1.168-.675,2.438-1.195,3.55-.49,1.047-1.239,1.93-1.813,2.932s-.984,2.174-1.639,3.107c-.128.182-2.292,2.256-2.527,2.429-.717.529-1.338.946-2.016,1.512-2.366,1.976-7.166,4.056-10.111,5.133a24.075,24.075,0,0,1-6.435,1.158,9.969,9.969,0,0,0-1.53.21c-.341-.025-.721.036-1.055,0A11.961,11.961,0,0,1,41.83,51.8a27.744,27.744,0,0,1-3.19-2.087,27,27,0,0,1-2.58-2.584,22.59,22.59,0,0,1-1.9-2.533A12.6,12.6,0,0,1,33.156,41.8,26.755,26.755,0,0,1,31.582,36c-.526-3.621-.111-7.523-.107-11.178a16.409,16.409,0,0,1,.3-4.111A31.172,31.172,0,0,1,39.583,5.533c.684-.731,1.484-1.438,2.111-2.1,1.04-1.1,6.871-2.618,8.49-2.777.158-.016.373.1.62.081C51.29.691,51.875.349,52.5.312c1.177-.07,1.95.548,3.064.426A12.71,12.71,0,0,0,57.831,0H59.2ZM77.871,17.873c.064-.579-.046-1.254,0-1.846-.768-.088-1.516.549-2.293.818a6.254,6.254,0,0,1-2.167.424c-.915-.208-.684-1.562.135-1.929.283-.127.612-.107.84-.215.459-.218.736-1.172,1.573-.667l-.034.518a6.4,6.4,0,0,0-2.349,1.206c-.054.676,1.712.291,2.036-.045.136-.141.123-.366.219-.436.312-.227,1.306.053,1.543-.437.272-.562-.257-1.286-.455-1.817a20.41,20.41,0,0,0-4-6.861,12.935,12.935,0,0,0-.948-1.372c-.771-.724-1.918-.745-2.838-1.17-.868-.4-1.759-1.352-2.546-1.672a20.39,20.39,0,0,0-3.112-.586.7.7,0,0,0-.735.317,3.7,3.7,0,0,0-2.02-1.045c-.5-.024-.851.458-1.4.306-.008-.286-.033-.68-.377-.737-1.085-.019-2.49.687-3.482.744a12.286,12.286,0,0,1-1.786-.322,10.443,10.443,0,0,0-2,.2,7.131,7.131,0,0,0-1.267-.09c-.281.053-.47.358-.662.4s-.447-.112-.709-.09a8.191,8.191,0,0,0-2.178.468c-.182.878-.4,3.195,1.062,2.01.207-.167.8-1.261.954-.519.092.432-.154.326-.3.535-.066.092-.069.244-.151.325-.932.926-2.1.962-2.276-.56a11.24,11.24,0,0,0-.026-1.344c-.148-.447-1.435.1-1.653.416.091.448.014.9.1,1.352.1.565.671,1.565.045,2.069-1.3,1.047-2.221-.74-2.045-1.886l.617-.121c-.173.39.516,2.307,1.007,1.587.367-.537-.54-2.165-.375-2.853a1.268,1.268,0,0,0-.765.214A8.291,8.291,0,0,0,41.068,4.8c-.682.628-1.439,1.024-1.8,2,.135.124.791-.18.876-.257.1-.092.078-.254.133-.31.24-.237.644-.732.977-.525.484.3-.846,1.075-1.025,1.422-.12.233-.248.866.04.987.354.109.227-.289.525-.323.865-.1-.157.972,0,1.274.878-.129.7-1.227,1.528-1.16-.1.616-.521,1.757-1.228,1.868-.05.007-.914-.085-.961-.1a5.247,5.247,0,0,1-.577-.633c-.1-.229-.095-.514-.18-.769-.065-.193-.272-.363-.307-.546-.047-.245.264-.691-.066-.659-.613.727-1.264,1.416-1.808,2.2a29.741,29.741,0,0,0-2.443,4.623,16.906,16.906,0,0,0-1.921,5.091l1.583-.527C33.938,17,33.959,16.41,35.609,17a2.372,2.372,0,0,1,1.023.662c-.44.707-1.652-.735-1.695.21-.034.753.683.656.748,1.317-.589.412-1.84-.543-2.088.288-.231.776.928,1.265,1.562,1.348l-.013.359c-1.177.228-1.734-.647-2.467-1.356-.369,0-.562,1.516-.584,1.837-.172,2.476.2,5.084-.1,7.5A27.423,27.423,0,0,0,32.112,36a13.477,13.477,0,0,0,1.12,4.469c.349.789.439,1.935.791,2.794a16.743,16.743,0,0,0,3.874,5.2c.162.121.66.442.848.322a7.174,7.174,0,0,0,.686-1.219c.13-.521.028-1.11.642-1.466.5-.291,1.092.061,1.62.1.219.253-.717,2.106-1.367,1.79.36.438.835.827.737,1.474-.218.236-1.01-1.161-1.623-1.062-.157.274-.435.76-.339,1.066.117.372,1.644,1.055,2.091,1.367.542.378,1.1.72,1.692,1.08a9.412,9.412,0,0,0,4.676,1.653c5.581.013,10.208-2.064,14.992-4.6.552-.293,1.192-.446,1.746-.786,1.154-.708,2.232-1.74,3.295-2.506.366-.263.445-.687.6-.929.036-.057.944-.435,1.19-.656A13.721,13.721,0,0,0,71.123,41.2a30.9,30.9,0,0,0,2.34-3.8c.476-1.123.727-2.673,1.192-3.765a24.44,24.44,0,0,0,1.824-3.976l.288-2.034-1.8.6-.262-.384a5.113,5.113,0,0,1,2.111-.579,3.928,3.928,0,0,0,.414-1.282c.111-.657.2-1.438.3-2.12a17.145,17.145,0,0,0,.025-4.879c-.577,0-3.114.472-3.167,1.107-.025.306.333.814-.05,1.106-.534-.592-1.253-1.42-.234-1.918a29.281,29.281,0,0,1,2.874-.824c.257,0,.4.16.626.215.108-.021.25-.649.266-.791ZM41.062,46.713a.624.624,0,0,0-.737.736C40.582,47.537,41.105,46.746,41.062,46.713Z" transform="translate(0)"/>
    <path id="Path_6142" data-name="Path 6142" d="M225.925,251.764c-.03.05-.54.168-.194.39.293.189,1.279-.163,1.536.366.233.479-.4.836-.582,1.213.265.154.609.169.522.574l-1.605.741c-.84.786-2.01,1.344-2.918,2.065-.182.146-.253.4-.454.5-.284.131-1.062.023-1.218.309-.121.221.143.759-.342.978-.412.186-.734-.159-1.234.032-.116.044-1.979,1.3-2.065,1.388-.169.174-.2.622-.507.891-.636.556-1.7.545-2.154.9-.187.147-.293.508-.471.689-.29.294-.765.535-1.059.838-.382.394-1.735,2.2-2,2.33a.394.394,0,0,1-.414-.114c-.541-.439.207-.948.1-1.525-.447.394-.505.814-1.25.617a4.27,4.27,0,0,1-.32-2.557c.07-.459.309-.887.386-1.3.427-2.291.645-4.542,1.208-6.806.158-.635.371-.825,1.033-.709-.031-.355.047-.756-.005-1.1-.036-.234-.43-.616-.105-.856.182-.135,1.211.386,1.639.385a15.169,15.169,0,0,0,1.586-.326,27.186,27.186,0,0,1,6.006-.1c.732.071,1.522.454,2.268.528l-.054.315L221.2,252.1c-.047.232.116.238.259.32a5.025,5.025,0,0,0,2.166.206c-.377-.842,1.139-.724,1.677-.961l.025-.39c.351-.307.79.17.6.491ZM225,253.153c-.593-.242-1.264.351-1.648.391-1.54.158-2.615-.861-3.945-1.286-1.749-.558-.76.612-.99.9l-.589.206c-.033-1.673-2.039-.832-3.06-.632v.313c.229-.029,1.95.649,1.687.844a13.889,13.889,0,0,1-2.914-.728c-.987-.09-.907.625-1.729.908-.05.958-.293,1.887-.424,2.832a1.99,1.99,0,0,1-.182.862,34.663,34.663,0,0,0-.925,3.4,11.988,11.988,0,0,0-.259,2.429c.419.047.6-.408.9-.632,1.677-1.286,3.105-2.391,4.853-3.585.435-.3,1.26-1.434,1.756-.541h.118a5.834,5.834,0,0,0,1.481-.85c1.734-1.2,3.383-2.722,5.038-4.031.17-.135,1.075-.555.835-.8Zm-14.027,11.07,2.326-1.734.051-.378c-.533-.389-.818.42-1.118.681-.117.1-.308.131-.408.225A2.907,2.907,0,0,0,210.969,264.223Z" transform="translate(-159.148 -224.682)"/>
    <path id="Path_6143" data-name="Path 6143" d="M96.8,83.731l.323-.064c.158-.779.812-.966,1.024-.089-.528.252-.312.509-.447.9-.093.265-.4.545-.532.838a16.932,16.932,0,0,0-.814,3.4c-.043.2-.263.416-.274.568s.239.3.2.609c-.032.235-.447.523-.512.876s.107.595.064.793a10.156,10.156,0,0,0-.506,1.818,4.5,4.5,0,0,0,.2,1.374,10.207,10.207,0,0,1,.091,1.237c-.044.369-.346.3-.563.495-.654.575.006,1.242-.413,1.6-.182.114-.962-.012-1.007-.172-.02-.382.358-.374.548-.715a1.642,1.642,0,0,0,.189-.812l-1.686.423c.155.266.638.153.526.631l-1.089.005c-.382-.963-.631-.294-1.28-.213a5.724,5.724,0,0,1-1.788-.115c-.323-.113-.4-.358-.691-.469a7,7,0,0,0-3.908-.317c-1.342.324-1.269.953-3,.789-.2-.019-.348-.185-.542-.2-.264-.027-1.15.351-1.2.05-.051-.281.515-.883.84-.9l-.191-.485c.15-.623.879-.344,1.25-.51a17.473,17.473,0,0,0,1.862-1.619c.2-.151.505-.18.726-.329.6-.4,1.948-2.107,2.45-2.2.27-.05.5.175.763.04a16.828,16.828,0,0,1,1.761-1.415c.207-.018.356.329.345.506a4.218,4.218,0,0,0-1.049.694c-.949.827-1.952,1.891-2.8,2.791-.648.689-.777,1.337-1.947,1.06a.689.689,0,0,0,.5.5c.847.2,3.06-.587,4.1-.7a16.734,16.734,0,0,1,4.282.12c.637.15,1.2.605,1.874.6a19.84,19.84,0,0,1,.479-3.161c.314-1.8.5-3.66.818-5.509.182-1.056.78-1.827.6-2.931-.217-.224-1.91,1.349-2.164,1.579-.447.405-1.227,1.5-1.816,1.57-.224.026-.292-.143-.413-.166-.516-.091-.487.368-.686.636-.278.374-.937,1.176-1.424,1.215-.439.035-.059-.71.077-.875s1.458-1.421,1.628-1.536c.194-.131.679-.236.765-.343s.057-.327.19-.5c.213-.27.857-.436,1.072-.669.113-.122.119-.345.291-.5.218-.2.662-.22.768-.341.5-.57.981-1.081,1.561-1.654.243-.239.341-.527.643-.728a2.666,2.666,0,0,1,1.761-.421l.181.25c-.329,1.158-2.466,1.189-2.01,2.686ZM93.494,95.575a4.74,4.74,0,0,0-2.333-.671c-.691-.028-2.083-.04-2.745,0-.562.037-1.273.336-1.848.424l.131.236c.973.085,2.4,1.018,3.3,1.037a13.282,13.282,0,0,0,2.168-.267,9.121,9.121,0,0,1,1.47-.482A.877.877,0,0,0,93.494,95.575Zm-8.93.283c-.809-.208-2.129-.581-2.214.631L83.4,96.33Z" transform="translate(-43.29 -72.237)"/>
    <path id="Path_6144" data-name="Path 6144" d="M254.04,85.036l.1-1.324.322-.047a12.12,12.12,0,0,0,.393,2.086,8.438,8.438,0,0,0,1.187,2.082,19.45,19.45,0,0,0,2.423,2.113c.242.2,1.273.949.932,1.187-.488.341-.7-.272-1.041-.551-.129-.105-.846-.57-.94-.483.437.74.124,1.326,1.266,1.266l-.206.478c-.419.289-1.6-.41-2.167-.381-.624.032-1.435.636-2.161.428l-.121-.722-1.355-.119.923,1.214-.549.37c-.421-.83-.569-1.469-1.588-1.583-1.568-.176-3.248.174-4.828.1-.238.446-.274.207-.648.209a29.52,29.52,0,0,0-3.642.108c-.2-.753.268-1.445.208-2.213h.528c.108.4-.589,1.374.055,1.483.454.076.537-.354.73-.384.484-.076,1.838.3,2.542.277a38.869,38.869,0,0,1,5.056-.32c1.135.1,2.23.217,3.375.316.446.039,1.095.408,1.421.04.074-.249-.66-1.271-.837-1.542-.686-1.049-1.763-2.355-2.411-3.417-.144-.237-.174-.584-.346-.813-.211-.282-.8-.452-.882-.595s-.034-.354-.11-.523c-.187-.418-.845-.5-.879-.545-.046-.057,0-.3-.039-.432-.178-.591-.418-.489-.713-.873-.238-.31-.38-.759-.684-1.107-.474-.54-1.286-.687-1.209-1.469a1.569,1.569,0,0,1,1.048-.006,5.29,5.29,0,0,0-2.245-2.446c-.14-.082-.352-.055-.49-.142-.214-.136-.493-.875-.883-.775-.554.142-.837,2.267-.915,2.785-.217,1.443-.252,2.657-.606,4.142-.061.258.238.76-.344.656a7.434,7.434,0,0,0,0-1.207,4.743,4.743,0,0,0-.1-1.067c-.118-.777.287-.815.37-1.2.048-.221-.3-.435-.035-1.092a11.8,11.8,0,0,0,.534-2.206c.114-.485.427-1.055.487-1.517.04-.307-.084-1.235.108-1.369a2.978,2.978,0,0,1,1-.037c.882.128,1.022.84,1.539,1.413.159.177.522.315.638.522.145.254.075.5.179.77.792,2.009,2.989,3.677,3.777,5.713l1.837,2.75Z" transform="translate(-188.721 -66.056)"/>
    <path id="Path_6145" data-name="Path 6145" d="M78.4,248.513c.054.325-.416.283-.423.575,0,.174.4.708.505.978a41.434,41.434,0,0,0,1.876,3.924c.151.307.344,1.2.38,1.255s.275.046.412.2c.181.2.51,1.011.73,1.35a17.027,17.027,0,0,0,1.426,1.946c.5.014-.189-.982-.212-1.05a27.039,27.039,0,0,0-1.34-3.4c-.123-.249-.428-.384-.486-.682-.062-.316.124-.548.089-.809a16.443,16.443,0,0,0-.764-1.725c-.088-.09-.284-.051-.4-.2-.211-.265-.475-1.42-.649-1.59-.082-.081-1.282-.281-1.03-.549a6.812,6.812,0,0,1,1.207-.215c.29.039.7.589.982.714,1.228.537,2.759.279,3.985.341a10.512,10.512,0,0,0,2-.1c.477-.038,1.32-.086,1.777-.07.072,0,.268.047.282.128l-.272.68a1.027,1.027,0,0,0,.741.423c.248.007.117-.021.156-.163.139-.5.136-.579-.311-.842.276-.538,2.2-.628,2.423-.21l-1.034.651c-.552,2-1.287,3.918-1.916,5.887,1.046.24.274,1.536.135,2.243a30.235,30.235,0,0,1-1.064,5.051c-.083.212-.108,1-.537.652-.138-.111-.1-.837-.071-1.047.121-.837,1.166-2.134.054-2.49l.006-.929c.072-.363.369-.322.409-.382s-.119-1.06-.1-1.31a8.5,8.5,0,0,1,.482-1.946c.347-1.05.961-2.221,1.287-3.247a3.651,3.651,0,0,0,.226-1.273c-.712-.36-1.376-.309-1.637-1.179l-5.784-.1-1.423-.316,1.494,3.091c.537,1.091.94,2.73,1.525,3.749.19.33.482.452.613.649a28.756,28.756,0,0,0,2.274,3.213c.365.418.7.424.738,1.212-.681.5-1.744-2.23-2.53-2-.008.713.571,1.109.889,1.588.118.177.11.445.223.62.273.422,1.162.455,1,1.059l-.842-.21c-.078,1.115.918,1.844,1.223,2.841l-.336.315-1.542-2.557c-.412-2.5-2.377-3.96-3.716-5.881-.211-.3-.387-.773-.651-1.142-.11-.153-.37-.328-.422-.432-.1-.2.158-.275.123-.426a10.715,10.715,0,0,0-.715-.976c-.942-1.633-1.574-3.436-2.6-4.994-.09-.137-.1-.366-.175-.458-.234-.287-1.044.1-1.317-.263.849-1.023,1.646-.388,2.635-.157Z" transform="translate(-39.766 -221.941)"/>
    <path id="Path_6146" data-name="Path 6146" d="M173.926,451.289c.742-.035.954-.823,1.78-.41.177.422-.156,1-.154,1.306,0,.236.355.709-.041.953-.521.323-.567-.926-.637-1.216-.374-.01-.423.447-.425.734a3.46,3.46,0,0,1-1.03-.121c-.063-.057-.086-.688-.388-.613l-.487.937-.832.012c-.047-.51.42-.838.57-1.169.3-.664.358-1.875,1.441-1.632Z" transform="translate(-125.586 -402.573)"/>
    <path id="Path_6147" data-name="Path 6147" d="M358.406,51.806a.588.588,0,0,1-.308.064c-.59-.229-.892-1.912-.843-2.48-.875-.216-1.484,1.423-1.9,1.641-.2.105-.426-.078-.632-.06-.025-.736.663-.956,1.045-1.327.447-.436.657-1.056,1.343-1.4.353-.177,1.387-.139,1.565.2.455.861-.466,1.072-.559,1.762-.046.347.484,1.286.288,1.6Z" transform="translate(-289.299 -43.065)"/>
    <path id="Path_6148" data-name="Path 6148" d="M278.61,426.91c.179.174-.679,2.581-.844,2.952-.791-.147-1.04-.98-1.168-1.678-.95-.127-.639.492-.756,1.072-.136.674-.172,1.5-1.029,1.4-.445-.565-.176-.989.315-1.378-.824-.549-.1-.981.025-1.716.273-.282,1.543-.072,1.826.183.235.213.244.624.631.738l.682-1.507Z" transform="translate(-217.614 -381.884)"/>
    <path id="Path_6149" data-name="Path 6149" d="M318.86,27.284a2.121,2.121,0,0,0,.369-.414c.315-.579.582-1.135.843-1.689.152-.322.458-.52.34-.98-.233-.248-1.369.9-1.374,1.212,0,.034.352.088.214.367l-.421.109v-.317c-.889-.031-.928,1.273-1.887,1.042l-.224-.618c.458.016.624-.406.853-.573.379-.277.821-.48,1.2-.8.589-.5.942-1.383,1.95-.784.448.266.18.657.119.95-.217,1.024-.633,1.095-1.016,1.942-.231.512-.216,1.531-.892,1.115A.529.529,0,0,1,318.86,27.284Z" transform="translate(-255.303 -21.142)"/>
    <path id="Path_6150" data-name="Path 6150" d="M393.335,65.96c.1.392-.247.7-.31,1.007-.055.265.083.84-.181,1-.131.081-.422.062-.515.2-.219.326.269,1.287-.759,1.462-1.255.214.5-1.776.289-1.984-.4,0-.678.4-.98.548-.238.118-1.044.47-1.008.05.056-.641,1.026-.887,1.454-1.185C391.945,66.629,392.436,65.9,393.335,65.96Z" transform="translate(-320.737 -59)"/>
    <path id="Path_6151" data-name="Path 6151" d="M84.87,96.217c.08.467-.178,1.04.275,1.357.123,0,.319-1.024.534-1.257.15-.162.5-.338.568-.049a7.822,7.822,0,0,1-.759,2.124,4.016,4.016,0,0,1-.749.212c-.838-.08-.3-1.262-.385-1.345-.655-.416-1.214,1.47-1.638.846-.339-.5.9-1.085,1.113-1.318C84.163,96.419,84.087,95.916,84.87,96.217Z" transform="translate(-45.928 -85.977)"/>
    <path id="Path_6152" data-name="Path 6152" d="M228.934,449.036c.362.207.517,1.067.878,1.388.276.247.8.141.849.731-.487.426-.909.034-1.269-.31-.214-.206-.273-.6-.67-.469-.2.07-.7,2.031-1.276,2.1-.518-.629.042-.939.239-1.341.1-.2.08-.5.187-.657.078-.116.3-.138.353-.286.1-.3-.277-.677-.186-1.015.113-.415.609-.306.9-.141Z" transform="translate(-175.253 -401.546)"/>
    <path id="Path_6153" data-name="Path 6153" d="M67.956,131.95c-.107-.114-.132-.338-.291-.5-.263-.269-1-.64-.887-1.081s.752-.2.921-.3c.134-.081.044-.782,1-.491.454.138.773,1.827.664,2.2-.176.595-1.038.567-1.4.177Zm.706-1.761c-.254,0-.611-.072-.636.264-.036.475.693,1.344.742.948Z" transform="translate(-31.712 -115.848)"/>
    <path id="Path_6154" data-name="Path 6154" d="M416.792,99.9c-.08.322.3.8.312,1,.009.249-.406.595-.262.793.445.328.894-.038,1.276-.1.875-.147.433.413-.145.595-.456.143-1.753.388-2.072.027-.554-.624.475-.946.475-1.208s-.311-.212-.33-.331c-.046-.29.4-.87.747-.777Z" transform="translate(-343.878 -89.351)"/>
    <path id="Path_6155" data-name="Path 6155" d="M140.8,453.687c.321-.111,1.165-.023,1.33.323a1.339,1.339,0,0,1-1.246,1.833,1.531,1.531,0,0,1-.742-1.176A3.366,3.366,0,0,1,140.8,453.687Zm.426.632c-.919.277-.023,1.8.619.306l-.167-.27a.585.585,0,0,0-.454-.037Z" transform="translate(-97.348 -405.797)"/>
    <path id="Path_6156" data-name="Path 6156" d="M445.53,211.96c.262.879-1.457.9-1.569,1.227a.6.6,0,0,0,.084.523c.237.309,1.38.186,1.017.681-1.228.457-1.978-.255-1.909-1.483l2.376-.948Z" transform="translate(-368.398 -189.605)"/>
    <path id="Path_6157" data-name="Path 6157" d="M298.521,19.106c.124-.136.335-.207.49-.406.185-.236.288-.764.581-.8.414-.046.428.293.288.612s-1.338,1.886-1.653,1.817C297.681,19.9,298.172,19.487,298.521,19.106Z" transform="translate(-238.542 -16.012)"/>
    <path id="Path_6158" data-name="Path 6158" d="M248.219,184.98a.616.616,0,0,1,.266.373,8.957,8.957,0,0,1-.228,1.772c-.085.173-.347.4-.46.593-.15-.1-.151-.2-.167-.365-.033-.333.3-2.367.587-2.373Z" transform="translate(-193.499 -165.47)"/>
    <path id="Path_6159" data-name="Path 6159" d="M398.7,108.872a1.758,1.758,0,0,1-.631,1c-.2.2-1.126,1.03-1.372.789a.992.992,0,0,1,.047-.426,5.418,5.418,0,0,1,1.274-1.049C398.107,109.129,398.616,108.789,398.7,108.872Z" transform="translate(-326.842 -97.378)"/>
    <path id="Path_6160" data-name="Path 6160" d="M66,239.642c.263.452-.88,1.458-1.155,1.261C64.392,240.579,65.457,239.384,66,239.642Z" transform="translate(-29.896 -214.335)"/>
    <path id="Path_6161" data-name="Path 6161" d="M252.331,174.228a.549.549,0,0,1,.362.252l-.256.563-.446-.476A.931.931,0,0,1,252.331,174.228Z" transform="translate(-197.4 -155.852)"/>
    <path id="Path_6162" data-name="Path 6162" d="M280.44,278.8c-.316.194-1.715-.092-1.684-.475.024-.3,1.32-.012,1.528.157.112.092.189.158.156.316Z" transform="translate(-221.343 -248.85)"/>
    <path id="Path_6163" data-name="Path 6163" d="M297.592,281.4c-.368.057-.6.218-.842-.157C297.114,280.881,297.427,280.878,297.592,281.4Z" transform="translate(-237.44 -251.353)"/>
  </g>
</svg>
