<svg width="109" height="30" viewBox="0 0 109 30" fill="none" xmlns="http://www.w3.org/2000/svg">
<g clip-path="url(#clip0_2306_315)">
<path d="M22.8476 25.9687H24.5424C24.4596 26.3094 24.461 26.6652 24.5465 27.0052C24.632 27.3453 24.7989 27.6592 25.0329 27.9199C25.2668 28.1805 25.5606 28.38 25.8889 28.5009C26.2171 28.6219 26.5698 28.6606 26.9164 28.6139C27.5397 28.6263 28.1424 28.39 28.592 27.957C29.0416 27.524 29.3014 26.9296 29.3142 26.3046C29.2802 25.7625 29.0561 25.2499 28.6814 24.8575C28.3068 24.4652 27.8059 24.2184 27.2672 24.1607L25.6437 23.7732C24.8549 23.6141 24.1451 23.1867 23.6344 22.5632C23.1237 21.9398 22.8434 21.1585 22.841 20.3517C22.8549 19.8416 22.9719 19.3396 23.1848 18.8761C23.3976 18.4125 23.702 17.9971 24.0794 17.6548C24.4569 17.3125 24.8996 17.0505 25.3809 16.8846C25.8621 16.7187 26.3719 16.6523 26.8795 16.6895C27.4021 16.6456 27.9281 16.7153 28.4214 16.8937C28.9148 17.0722 29.364 17.3552 29.7384 17.7235C30.1128 18.0918 30.4037 18.5367 30.5911 19.0279C30.7785 19.5191 30.858 20.0451 30.8243 20.5699H29.1335C29.1905 20.2444 29.1738 19.9102 29.0848 19.5919C28.9958 19.2737 28.8368 18.9795 28.6193 18.7311C28.4018 18.4827 28.1316 18.2864 27.8284 18.1567C27.5252 18.027 27.1969 17.9672 26.8676 17.9817C26.2423 17.9601 25.6338 18.187 25.1744 18.613C24.715 19.039 24.4419 19.6297 24.4144 20.2565C24.4144 21.1267 24.8945 21.8647 26.2609 22.1967L27.8845 22.5842C28.8133 22.77 29.6371 23.3025 30.1893 24.0741C30.7415 24.8457 30.9809 25.7987 30.8591 26.7406C30.7373 27.6824 30.2634 28.5427 29.5332 29.1475C28.803 29.7524 27.871 30.0565 26.9256 29.9986C24.2509 29.9986 22.5178 28.2991 22.8528 25.9674L22.8476 25.9687Z" fill="#191918"/>
<path d="M40.3785 24.8233H42.0733C42.0733 28.4102 40.7465 29.9999 38.11 29.9999C35.4735 29.9999 33.7773 28.2435 33.7773 23.346C33.7773 18.4485 35.36 16.6921 38.11 16.6921C40.8599 16.6921 42.0364 18.2792 42.0364 21.0923H40.3416C40.3416 19.2235 39.8456 17.9869 38.11 17.9869C36.2635 17.9869 35.4721 19.373 35.4721 23.3487C35.4721 27.3243 36.2635 28.6165 38.11 28.6165C39.8417 28.6165 40.3785 27.4711 40.3785 24.826V24.8233Z" fill="#191918"/>
<path d="M47.6073 16.872H50.261L53.6901 29.8148H51.9017L51.4401 27.7807L51.1618 26.2094H46.7171L46.4388 27.7807L45.9772 29.8148H44.2837L47.6021 16.872H47.6073ZM48.2153 12.8977H49.7638L51.8832 15.765H50.0368L49.0779 13.7309H48.8933L47.9344 15.765H46.088L48.2074 12.8977H48.2153ZM50.8875 24.9133L50.4074 23.3421L49.2085 18.1655H48.6559L47.4755 23.3421L46.9954 24.9133H50.8875Z" fill="#191918"/>
<path d="M56.0854 16.8735H58.9448L62.2421 28.5201H62.7947L62.3516 21.8279V16.8735H64.0121V29.8163H61.1527L57.8554 18.1697H57.3028L57.746 24.8619V29.8163H56.0854V16.8735Z" fill="#191918"/>
<path d="M70.2807 20.1282L70.3901 18.188V18.1695H66.8687V16.876H75.3492V18.1681H71.8277V18.1853L71.9372 20.1255V29.8121H70.2767V20.1282H70.2807Z" fill="#191918"/>
<path d="M78.3022 16.8735H86.1366V18.1657H79.8507L79.9601 19.9221V20.754L79.8507 22.5104H84.848V23.8025H79.8507L79.9601 25.5589V26.7611L79.8507 28.4262H86.1366V29.8123H78.3022V16.8735Z" fill="#191918"/>
<path d="M89.5488 28.4289H92.5177L92.4082 26.5601V20.1258L92.5177 18.1855V18.167H89.5488V16.8735H96.9242V18.1657H93.9566V18.1842L94.0661 20.1244V26.5601L93.9566 28.4289H96.9242V29.815H89.5488V28.4289Z" fill="#191918"/>
<path d="M102.913 16.8735H105.57L108.999 29.8163H107.21L106.749 27.7821L106.47 26.2109H102.026L101.747 27.7821L101.286 29.8163H99.5923L102.911 16.8735H102.913ZM106.193 24.9148L105.712 23.3436L104.513 18.167H103.961L102.78 23.3436L102.299 24.9148H106.191H106.193Z" fill="#191918"/>
<path d="M3.32102 0.00268555H5.9773L9.40647 12.9454H7.6233L7.16168 10.9113L6.87943 9.33875H2.43471L2.15642 10.91L1.6882 12.9454H0L3.31838 0.00268555H3.32102ZM6.60114 8.04395L6.12106 6.47273L4.92217 1.29484H4.36955L3.19044 6.47273L2.70904 8.04395H6.60114Z" fill="#191918"/>
<path d="M14.9355 3.25881L15.0436 1.31594V1.29875H11.5234V0.0065918H20.004V1.29875H16.4825V1.31594L16.592 3.25616V12.9427H14.9315V3.25881H14.9355Z" fill="#191918"/>
<path d="M22.9531 0.00268555H30.7874V1.29617H24.5015L24.611 3.05519V3.88709L24.5015 5.64347H29.4989V6.93563H24.5015L24.611 8.69201V9.89423L24.5015 11.5594H30.7874V12.9454H22.9531V0.00268555Z" fill="#191918"/>
<path d="M34.0146 0.00264512H35.6752V9.61513L35.5657 11.5554H40.1384L40.1014 10.7235V9.98413H41.7619V12.9414H34.0146V0V0.00264512Z" fill="#191918"/>
<path d="M45.2612 11.558H48.2301L48.1233 9.68923V3.2549L48.2327 1.31468V1.29484H45.2612V0.00268555H52.6366V1.29484H49.6677V1.31336L49.7772 3.25358V9.68923L49.6677 11.558H52.6366V12.9441H45.2612V11.558Z" fill="#191918"/>
<path d="M56.1382 0.00268555H63.9725V1.29617H57.6866L57.7961 3.05519V3.88709L57.6866 5.64347H62.6839V6.93563H57.6866L57.7961 8.69201V9.89423L57.6866 11.5594H63.9725V12.9454H56.1382V0.00268555Z" fill="#191918"/>
<path d="M70.3689 7.86143H68.7454L68.8548 9.80165V12.9441H67.1943V0.00268555H70.8279C73.6491 0.00268555 74.9759 1.58978 74.9759 3.69929C75.024 4.10917 74.9843 4.52463 74.8594 4.91786C74.7344 5.3111 74.5272 5.67303 74.2514 5.97945C73.9757 6.28586 73.6379 6.52967 73.2606 6.69458C72.8833 6.85948 72.4753 6.94166 72.0638 6.93563V7.48979C72.4258 7.50308 72.7756 7.62466 73.0683 7.83889C73.3609 8.05313 73.5829 8.35024 73.7058 8.69201L75.6842 12.9428H73.8377L72.3275 9.08085C72.1617 8.70434 71.8867 8.38658 71.5383 8.16888C71.19 7.95117 70.7844 7.84359 70.3742 7.86011L70.3689 7.86143ZM70.3689 6.56928C70.7557 6.59861 71.1443 6.54541 71.509 6.41318C71.8738 6.28094 72.2065 6.07269 72.4852 5.80213C72.7638 5.53158 72.9821 5.20487 73.1257 4.84354C73.2692 4.48222 73.3348 4.09448 73.318 3.7059C73.318 2.24445 72.4687 1.32526 70.3689 1.32526H68.7454L68.8548 3.26548V4.99541L68.7454 6.56663H70.3689V6.56928Z" fill="#191918"/>
<path d="M78.2588 0.00268555H86.0931V1.29617H79.8072L79.9167 3.05519V3.88709L79.8072 5.64347H84.8045V6.93563H79.8072L79.9167 8.69201V9.89423L79.8072 11.5594H86.0931V12.9454H78.2588V0.00268555Z" fill="#191918"/>
<path d="M89.3205 0.00264512H90.981V9.61513L90.8716 11.5554H95.4442L95.4007 10.7261V9.98413H97.0612V12.9414H89.3179V0L89.3205 0.00264512Z" fill="#191918"/>
<path d="M100.382 0.00268555H108.217V1.29617H101.925L102.04 3.05519V3.88709L101.925 5.63951H106.923V6.93166H101.925L102.035 8.68804V9.89027L101.925 11.5554H108.211V12.9415H100.377V0.00268555H100.382Z" fill="#191918"/>
</g>
<defs>
<clipPath id="clip0_2306_315">
<rect width="109" height="30" fill="white"/>
</clipPath>
</defs>
</svg>
