<svg xmlns="http://www.w3.org/2000/svg" width="105" height="32.727" viewBox="0 0 105 32.727">
  <g id="TTTT_CC_AMZEI_NEGRU" transform="translate(-2 -1.909)">
    <rect id="Rectangle_288" data-name="Rectangle 288" width="15.509" height="4.603" transform="translate(2 1.919)"/>
    <rect id="Rectangle_289" data-name="Rectangle 289" width="3.124" height="15.454" transform="translate(31.703 19.182)"/>
    <rect id="Rectangle_290" data-name="Rectangle 290" width="3.124" height="15.454" transform="translate(25.51 19.182)"/>
    <rect id="Rectangle_291" data-name="Rectangle 291" width="3.124" height="15.454" transform="translate(19.317 19.182)"/>
    <rect id="Rectangle_292" data-name="Rectangle 292" width="4.549" height="9.974" transform="translate(7.48 7.399)"/>
    <path id="Path_6230" data-name="Path 6230" d="M17.857,317.09v.932H9.665c-8.422.59-8.517,12.871-.11,13.59h8.3v.932H9.5c-9.578-.8-9.476-14.789.11-15.454h8.247Z" transform="translate(-0.348 -297.908)"/>
    <path id="Path_6231" data-name="Path 6231" d="M650,317.09v.932H641.8c-8.447.6-8.492,12.925-.055,13.59H650v.932h-8.3c-9.609-.746-9.552-14.775.055-15.454H650Z" transform="translate(-597.852 -297.908)"/>
    <path id="Path_6232" data-name="Path 6232" d="M965.509,333.132h-.932l0-8.25c-.7-8.355-13.008-8.312-13.647.057v8.192H950v-8.3c.769-9.424,14.615-9.521,15.508-.11v8.412Z" transform="translate(-896.048 -298.497)"/>
    <path id="Path_6233" data-name="Path 6233" d="M48.71,350.052v.932l-7.976,0c-6.414.373-6.33,9.567-.11,9.978l8.085,0v.932H40.517c-7.344-.528-7.4-11.414.162-11.839Z" transform="translate(-31.201 -329.062)"/>
    <path id="Path_6234" data-name="Path 6234" d="M680.859,350.052v.932l-7.976,0c-6.407.384-6.32,9.557-.11,9.978l8.085,0v.932l-8.14,0c-7.365-.478-7.474-11.4.11-11.842Z" transform="translate(-628.715 -329.062)"/>
    <path id="Path_6235" data-name="Path 6235" d="M1024.275,395.366h-.932V387.5c0-2.775-3.625-4.005-5.5-2.1a3.688,3.688,0,0,0-.855,1.666v8.3H1016l.055-8.3c.6-4.558,7.31-4.733,8.141-.2.017.094.079.412.079.469Z" transform="translate(-958.431 -360.73)"/>
    <path id="Path_6236" data-name="Path 6236" d="M712.32,383.09v.932h-7.974c-2.611,0-3.877,3.437-2.163,5.342a3.506,3.506,0,0,0,2.053,1.015h8.083v.932h-8.138a5.664,5.664,0,0,1-.686-.136c-4.378-1.076-4-7.746.905-8.083h7.918Z" transform="translate(-660.177 -360.291)"/>
    <path id="Path_6237" data-name="Path 6237" d="M80.179,383.09v.932H72.206c-2.634,0-3.91,3.473-2.138,5.371a3.507,3.507,0,0,0,2.028.986h8.083v.932H72.041a5.663,5.663,0,0,1-.686-.136c-4.389-1.078-4.007-7.745.905-8.083h7.918Z" transform="translate(-62.671 -360.291)"/>
    <rect id="Rectangle_293" data-name="Rectangle 293" width="15.509" height="1.589" transform="translate(19.317 1.919)"/>
    <rect id="Rectangle_294" data-name="Rectangle 294" width="15.509" height="1.534" transform="translate(19.317 4.988)"/>
    <rect id="Rectangle_295" data-name="Rectangle 295" width="1.534" height="9.974" transform="translate(24.798 7.399)"/>
    <rect id="Rectangle_296" data-name="Rectangle 296" width="1.534" height="9.974" transform="translate(27.812 7.399)"/>
    <rect id="Rectangle_297" data-name="Rectangle 297" width="15.509" height="0.986" transform="translate(36.635 1.919)"/>
    <rect id="Rectangle_298" data-name="Rectangle 298" width="15.509" height="0.932" transform="translate(36.635 3.782)"/>
    <rect id="Rectangle_299" data-name="Rectangle 299" width="15.509" height="0.932" transform="translate(36.635 5.591)"/>
    <path id="Path_6238" data-name="Path 6238" d="M1382.959,516.09l1.479,3.508,1.4-3.508h.986v4.548h-.712v-3.233l-1.342,3.179-.691.02-1.31-3.145v3.178H1382V516.09Z" transform="translate(-1304.374 -486.003)"/>
    <rect id="Rectangle_300" data-name="Rectangle 300" width="15.509" height="0.712" transform="translate(53.952 1.919)"/>
    <rect id="Rectangle_301" data-name="Rectangle 301" width="15.509" height="0.712" transform="translate(53.952 5.81)"/>
    <rect id="Rectangle_302" data-name="Rectangle 302" width="15.509" height="0.658" transform="translate(53.952 3.234)"/>
    <rect id="Rectangle_303" data-name="Rectangle 303" width="15.509" height="0.658" transform="translate(53.952 4.55)"/>
    <path id="Path_6239" data-name="Path 6239" d="M1333.9,105.269V102.09h.712v4.549l-.7-.012-2.2-3.166v3.178H1331V102.09l.739.055Z" transform="translate(-1256.169 -94.691)"/>
    <rect id="Rectangle_304" data-name="Rectangle 304" width="0.932" height="9.974" transform="translate(43.923 7.399)"/>
    <rect id="Rectangle_305" data-name="Rectangle 305" width="0.932" height="9.974" transform="translate(42.115 7.399)"/>
    <rect id="Rectangle_306" data-name="Rectangle 306" width="0.932" height="9.974" transform="translate(45.732 7.399)"/>
    <path id="Path_6240" data-name="Path 6240" d="M1386.936,415.755a3.78,3.78,0,0,1,.574.139,1.433,1.433,0,0,1,.052,2.634l.881,1.83-.8-.05-.845-1.594h-1.041v1.644c-.243-.034-.577.086-.767-.082v-4.439l.082-.082c.6.044,1.275-.059,1.863,0ZM1385.758,418h1.288c.323,0,.587-.494.58-.795-.007-.28-.283-.74-.58-.74h-1.288Z" transform="translate(-1307.2 -391.148)"/>
    <path id="Path_6241" data-name="Path 6241" d="M1467.11,316.618a1.428,1.428,0,0,1,.411,2.741l.932,1.807h-.794l-.932-1.644h-.959v1.644H1465v-4.548C1465.658,316.682,1466.472,316.532,1467.11,316.618Zm-1.343,2.247H1467a2.461,2.461,0,0,0,.266-.118.789.789,0,0,0-.089-1.374c-.041-.017-.323-.1-.341-.1h-1.069Z" transform="translate(-1382.825 -297.436)"/>
    <path id="Path_6242" data-name="Path 6242" d="M1712.11,316.618a1.442,1.442,0,0,1,.411,2.767l.931,1.782h-.795l-.932-1.644h-.959v1.644H1710v-4.548C1710.658,316.682,1711.472,316.532,1712.11,316.618Zm-1.343,2.247H1712c.349,0,.65-.516.633-.848a.832.832,0,0,0-.742-.741h-1.124Z" transform="translate(-1614.399 -297.436)"/>
    <path id="Path_6243" data-name="Path 6243" d="M1351.767,1.919V3.837h2.083V2c.19-.168.524-.048.767-.082v4.6c-.243-.034-.578.085-.767-.082V4.55h-2.083V6.523H1351v-4.6Z" transform="translate(-1275.073 0)"/>
    <path id="Path_6244" data-name="Path 6244" d="M1414.7,102.45l-.771-.024a.975.975,0,0,0-1.169-.737c-.731.081-.972.876-.227,1.148.7.257,1.956.161,2.184,1.1.468,1.935-2.747,2.353-3.387.756-.345-.863.058-.523.684-.547-.1,1.129,2.216,1.184,1.959.041-.106-.468-1.432-.545-1.863-.712a1.227,1.227,0,0,1,.148-2.346,1.747,1.747,0,0,1,2.442,1.318Z" transform="translate(-1331.979 -93.68)"/>
    <path id="Path_6245" data-name="Path 6245" d="M1296.443,520.572l-.378-1.062-1.919-.028-.387,1.065-.769.025,1.671-4.494.88-.058,1.723,4.552h-.822Zm-.658-1.808c-.187-.549-.36-1.207-.6-1.728-.025-.054-.033-.129-.111-.135l-.658,1.863Z" transform="translate(-1220.241 -485.937)"/>
    <path id="Path_6246" data-name="Path 6246" d="M1464.959,416.09v.712h-2.192v1.206h1.808v.712h-1.808v1.26h2.3c-.031.227.082.538-.082.712H1462v-4.6Z" transform="translate(-1379.99 -391.483)"/>
    <path id="Path_6247" data-name="Path 6247" d="M1437.959,2.09V2.8h-2.192V4.008h1.808V4.72h-1.808v1.26h2.219a.691.691,0,0,1,0,.712H1435V2.09Z" transform="translate(-1354.469 -0.171)"/>
    <path id="Path_6248" data-name="Path 6248" d="M1528.462,420.523l-.437-1.125-1.858-.02-.412,1.094-.745.049,1.649-4.516c.128-.179.63-.045.847-.09l1.779,4.607h-.822Zm-.658-1.809-.685-1.919-.685,1.919Z" transform="translate(-1439.546 -391.313)"/>
    <path id="Path_6249" data-name="Path 6249" d="M1380.284,321.44h-.822l-.377-1.064-1.833-.024-.473,1.061-.768.026,1.7-4.523c.209-.018.811-.1.929.062l1.649,4.461Zm-1.425-1.754-.74-1.919-.685,1.919Z" transform="translate(-1298.712 -297.709)"/>
    <path id="Path_6250" data-name="Path 6250" d="M1819.014,102.09v.658h-2.192v1.26h1.809v.658h-1.809v1.315h2.3v.658H1816V102.09Z" transform="translate(-1714.59 -94.691)"/>
    <path id="Path_6251" data-name="Path 6251" d="M1565.014,516.09v.658h-2.247v1.26h1.864v.658h-1.864v1.26h2.3v.712H1562V516.09Z" transform="translate(-1474.509 -486.003)"/>
    <path id="Path_6252" data-name="Path 6252" d="M1641.767,317.8v1.206h1.808v.658h-1.808v1.315h2.3v.658H1641V317.09h2.932a.689.689,0,0,1,0,.712Z" transform="translate(-1549.18 -297.908)"/>
    <path id="Path_6253" data-name="Path 6253" d="M1300.112,319.422a2.055,2.055,0,0,1-3,1.38,2.525,2.525,0,0,1-.813-3.465c.929-1.507,3.61-1.235,3.81.659l-.769-.025a1.284,1.284,0,0,0-2.218-.469,2.047,2.047,0,0,0,.142,2.544,1.244,1.244,0,0,0,2.023-.626h.822Z" transform="translate(-1223.034 -297.226)"/>
    <path id="Path_6254" data-name="Path 6254" d="M1486.562,516.09l-.03.6-2.491,3.29h2.631v.658H1483l.03-.6,2.491-3.29h-2.466v-.658Z" transform="translate(-1399.839 -486.003)"/>
    <path id="Path_6255" data-name="Path 6255" d="M1300.055,417.366h-.822a1.237,1.237,0,0,0-2.137-.52,2.17,2.17,0,0,0-.314,1.9,1.3,1.3,0,0,0,2.5.069l.768-.026a1.906,1.906,0,0,1-2.222,1.591c-1.674-.122-2.295-1.875-1.766-3.306.68-1.841,3.7-1.765,3.988.289Z" transform="translate(-1222.976 -391.17)"/>
    <path id="Path_6256" data-name="Path 6256" d="M1786.758,317.09v3.1a2.1,2.1,0,0,0,.173.43,1.091,1.091,0,0,0,1.681,0,2.12,2.12,0,0,0,.228-.758V317.09l.677.008.09.129c-.135,1.3.521,3.817-1.122,4.358a1.871,1.871,0,0,1-2.285-.731,5.461,5.461,0,0,1-.209-.613V317.09h.767Z" transform="translate(-1686.224 -297.908)"/>
    <path id="Path_6257" data-name="Path 6257" d="M1662.758,102.081v3.1a1.146,1.146,0,0,0,.465.686,1.038,1.038,0,0,0,1.55-.644c.017-.09.067-.471.067-.535v-2.6h.767V104.9a2.592,2.592,0,0,1-.41,1.179,1.943,1.943,0,0,1-2.979-.2,4.6,4.6,0,0,1-.229-.648V102.08h.767Z" transform="translate(-1569.02 -94.681)"/>
    <rect id="Rectangle_307" data-name="Rectangle 307" width="0.712" height="9.974" transform="translate(62.008 7.399)"/>
    <path id="Path_6258" data-name="Path 6258" d="M1701.1,419.548l1.211-3.53c.124-.173.558-.053.763-.087l-1.588,4.576-.906-.027-1.561-4.549.8.054,1.286,3.563Z" transform="translate(-1604.02 -391.324)"/>
    <rect id="Rectangle_308" data-name="Rectangle 308" width="0.658" height="9.974" transform="translate(59.432 7.399)"/>
    <rect id="Rectangle_309" data-name="Rectangle 309" width="0.658" height="9.974" transform="translate(63.323 7.399)"/>
    <rect id="Rectangle_310" data-name="Rectangle 310" width="0.658" height="9.974" transform="translate(60.747 7.399)"/>
    <path id="Path_6259" data-name="Path 6259" d="M1588.562,102.09v.658h-1.37v3.891h-.822v-3.891H1585v-.658Z" transform="translate(-1496.249 -94.691)"/>
    <path id="Path_6260" data-name="Path 6260" d="M1277.562,2.09V2.8h-1.425V6.693c-.161-.032-.7.083-.759-.09l-.008-3.8H1274V2.09Z" transform="translate(-1202.292 -0.171)"/>
    <path id="Path_6261" data-name="Path 6261" d="M1600.562,416.09v.712h-1.37l-.008,3.8c-.056.173-.6.058-.76.09V416.8H1597v-.712Z" transform="translate(-1507.591 -391.483)"/>
    <path id="Path_6262" data-name="Path 6262" d="M1534.029,317.8v3.836h-.767V317.8h-1.343c-.165-.174-.051-.485-.082-.712h3.535a.691.691,0,0,1,0,.712Z" transform="translate(-1445.99 -297.908)"/>
    <path id="Path_6263" data-name="Path 6263" d="M1742.617,102.09v.658h-1.425v3.891h-.767v-3.891H1739v-.658Z" transform="translate(-1641.809 -94.691)"/>
    <path id="Path_6264" data-name="Path 6264" d="M1484.617,102.09v.658h-1.425v3.891h-.767v-3.891H1481v-.658Z" transform="translate(-1397.948 -94.691)"/>
    <path id="Path_6265" data-name="Path 6265" d="M1868.767,316.919v3.891h1.973v.658H1868V317C1868.19,316.834,1868.524,316.953,1868.767,316.919Z" transform="translate(-1763.74 -297.737)"/>
    <path id="Path_6266" data-name="Path 6266" d="M1674.9,415.948v4.6l-.743-.052-.017-4.462C1674.2,415.865,1674.739,415.979,1674.9,415.948Z" transform="translate(-1580.504 -391.341)"/>
    <rect id="Rectangle_311" data-name="Rectangle 311" width="0.767" height="4.549" transform="translate(87.326 7.399)"/>
    <rect id="Rectangle_312" data-name="Rectangle 312" width="0.767" height="4.549" transform="translate(73.078 7.399)"/>
    <rect id="Rectangle_313" data-name="Rectangle 313" width="0.767" height="4.549" transform="translate(91.327 30.087)"/>
    <path id="Path_6267" data-name="Path 6267" d="M1610.767,321.468H1610v-4.549c.243.034.577-.086.767.082Z" transform="translate(-1519.879 -297.737)"/>
  </g>
</svg>
