<svg xmlns="http://www.w3.org/2000/svg" xmlns:xlink="http://www.w3.org/1999/xlink" width="340.664" height="345.697" viewBox="0 0 340.664 345.697">
  <defs>
    <clipPath id="clip-path">
      <rect id="Rectangle_104" data-name="Rectangle 104" width="340.664" height="345.697" fill="#00ca72"/>
    </clipPath>
  </defs>
  <g id="Group_473" data-name="Group 473" style="mix-blend-mode: multiply;isolation: isolate">
    <g id="Group_140" data-name="Group 140" clip-path="url(#clip-path)">
      <path id="Path_5102" data-name="Path 5102" d="M178.43,13.3l-.038-.007a.22.22,0,0,0,.093.022.482.482,0,0,1-.055-.016" transform="translate(-28.137 -2.986)" fill="#00ca72"/>
      <path id="Path_5103" data-name="Path 5103" d="M273.875,10.816l-2.037-.106-.3-.016a.815.815,0,0,0-.56.207c-.011.009-.024.012-.035.02l-.379.307a.725.725,0,0,0-.174.847.834.834,0,0,0,.77.477l2.372-.162.342-.023a.937.937,0,0,0,.6-.227.756.756,0,0,0,.247-.548.829.829,0,0,0-.842-.775" transform="translate(-42.637 -2.402)" fill="#00ca72"/>
      <path id="Path_5104" data-name="Path 5104" d="M339.047,238.2l.006,0h0a.838.838,0,0,0,.17-.121l.131-.157.085-.185v0a.752.752,0,0,0,.03-.2c0-.127,0-.254,0-.381a19.1,19.1,0,0,0,.359-3.332.749.749,0,0,0,.615-.726l-.392-3.843-.056-.554a.83.83,0,0,0-.842-.775c-.43.018-.877.342-.842.775q.075.964.151,1.928c.013.106.025.213.039.319a.792.792,0,0,0-.69.744q-.016,1.879-.032,3.76a.413.413,0,0,0,.011.047c-.012.393-.009.787-.007,1.181l-.016.008a1.021,1.021,0,0,0-.093.047.891.891,0,0,0-.161.1.791.791,0,0,0-.1.1V224.707a.979.979,0,0,0,.2.015.905.905,0,0,0,.136-.013c.014,0,.029,0,.043,0a1.814,1.814,0,0,0-.017.262l0,.026c.008.074.019.154.033.228a.132.132,0,0,0,.005.017.894.894,0,0,0,.045.1.98.98,0,0,0,.045.1.825.825,0,0,0,.307.284.9.9,0,0,0,.431.109.932.932,0,0,0,.232-.029.751.751,0,0,0,.208-.083.858.858,0,0,0,.173-.122l.131-.157a.635.635,0,0,0,.041-.091v0a.71.71,0,0,0,.072-.3c-.006-.142-.013-.284-.019-.426a.719.719,0,0,0,.115-.39c.013-.1.024-.207.034-.311.005-.051.01-.1.01-.156v-.025c0-.008-.029-.2-.03-.209v0s-.041-.092-.067-.146c-.048-.7-.112-1.39-.179-2.084,0-.158,0-.317-.008-.476a.952.952,0,0,0,.919-.738,3.561,3.561,0,0,0,.089-.471.673.673,0,0,0,.3-.592c-.041-2.625-.229-5.241-.444-7.858-.057-1.291-.14-2.582-.276-3.868a.823.823,0,0,0-.377-.628.776.776,0,0,0-.084-.057c.03-.883.056-1.767.1-2.65q.111-.991.179-1.986a5.732,5.732,0,0,0-.01-1.663c0-.012-.014-.021-.017-.033a.665.665,0,0,0-.076-.142.722.722,0,0,0-.1-.135,1.014,1.014,0,0,0-.092-.074c0-.052,0-.1,0-.157q-.05-2.263-.1-4.526.046-1.611.167-3.218a29.685,29.685,0,0,0,.254-3.879c-.051-.892-.1-1.789-.208-2.676-.017-.133-.035-.261-.056-.388a.711.711,0,0,0,.466-.681q-.236-1.879-.474-3.758-.033-.266-.067-.533a.832.832,0,0,0-.842-.775c-.019,0-.036.01-.056.012a.794.794,0,0,0-.18-.1c.032-.306.061-.613.08-.921a.644.644,0,0,0-.338-.595c0-.018-.005-.036-.007-.054-.029-.269-.055-.539-.079-.808-.108-1.189-.187-2.38-.328-3.564a6.187,6.187,0,0,0-.274-1.538v-.924a.869.869,0,0,0,.934-.353,1.146,1.146,0,0,0,.14-.531.694.694,0,0,0,.73-.545c.013-.068.018-.137.03-.206v0c.313-1.778.28-3.581.538-5.371a.584.584,0,0,0-.313-.6c0-.093-.01-.186-.013-.28-.041-1.2-.035-2.4-.034-3.6,0-.854,0-1.71-.008-2.564a.908.908,0,0,0,.134-.081.709.709,0,0,0,.34-.6c0-.169,0-.347-.013-.524l-.08-3.355c0-.186-.009-.372-.013-.558a.8.8,0,0,0-.356-.615c.185-2.938.183-5.889.492-8.82a.588.588,0,0,0-.261-.582c0-.157,0-.313,0-.47,0-.5.04-1.017.025-1.52a1.442,1.442,0,0,0,.054-.279,4.916,4.916,0,0,0,.011-.5c0-.435-.017-.869-.032-1.3a.716.716,0,0,0-.14-.4q.023-.477.04-.954a.687.687,0,0,0,.115-.33c.006-.106-.008-.215-.007-.323a3.8,3.8,0,0,0-.014-.663q-.01-1.426-.02-2.852a.793.793,0,0,0-.419-.656.774.774,0,0,0-.423-.119c-.015,0-.029.008-.045.009,0-.145-.008-.29-.013-.435a.89.89,0,0,0,.905-.372,1.426,1.426,0,0,0,.146-.774c0-.617-.042-1.235-.086-1.851-.047-.658-.1-1.318-.182-1.974a5.556,5.556,0,0,0-.117-.741.861.861,0,0,0-.579-.6,1.191,1.191,0,0,0-.094-.471c.012-.038.024-.074.035-.112s.01-.05.016-.074a.744.744,0,0,0,.766-.739l0-.24c.008-.3.028-.77.01-1.266.014-2.411.045-4.816.132-7.228.1-2.834.1-5.663.022-8.5-.034-1.233-.025-2.462-.1-3.694-.018-.3-.061-.617-.1-.934a.754.754,0,0,0,.058-.319l-.23-9.285a2.593,2.593,0,0,0,.093-.933q0-1.275-.012-2.55c-.016-1.67-.046-3.34-.08-5.01-.053-2.628-.1-5.255-.133-7.883a.616.616,0,0,0,.139-.406c0-.009.006-.017.007-.026.118-2.28.2-4.563.22-6.845a51.108,51.108,0,0,0,0-7.925.666.666,0,0,0-.088-.373c-.029-1.839-.142-3.684-.145-5.519a20.017,20.017,0,0,1,.1-4.359,7.541,7.541,0,0,0,.273-.965c.054-.557-.02-1.15-.019-1.71,0-2.492.085-4.984.122-7.475.015-1.045.029-2.092,0-3.137-.009-.351-.021-.7-.055-1.054-.016-.162-.057-.327-.061-.488,0-.074.024-.2.007.029.011-.146.048-.295.07-.44a30,30,0,0,0-.088-9.256,27.314,27.314,0,0,0-4.405-10.755,29.612,29.612,0,0,0-3.277-4.109,19.984,19.984,0,0,0-2.021-2,1.3,1.3,0,0,0-.981-.3,30.844,30.844,0,0,0-16.45-7.132.662.662,0,0,0-.679.32c-3.45-.29-6.881-.374-10.352-.455q-3.864-.091-7.727-.147a.862.862,0,0,0-.223-.057C286.972.259,280.29.563,273.626.756c-3.191.092-6.388.166-9.581.087-2.6-.064-5.2,0-7.8-.09A.9.9,0,0,0,256,.708C254.542.7,253.09.6,251.636.519c-1.348-.112-2.693-.243-4.04-.36a18.311,18.311,0,0,0-2.63-.147,1.231,1.231,0,0,0-.94.4c-.694,0-1.382.109-1.589.654a11.784,11.784,0,0,1-2.281-.031,23.847,23.847,0,0,0-3.646-.1c-1.342.03-2.687.08-4.029.016A25.553,25.553,0,0,0,229.9.782c-3.612.309-7.27.212-10.891.39a21.007,21.007,0,0,0-3.661.309c-1.6-.039-3.19-.077-4.785-.076-.77,0-1.539.01-2.309.036a8.367,8.367,0,0,1-1.619.044,10.237,10.237,0,0,0-1.434-.431,11.251,11.251,0,0,0-1.44.136l-4.521.426a8.483,8.483,0,0,1-1.519.012l-.143-.012a.694.694,0,0,0-.8-.754c-5.125.29-10.257.4-15.381.713a.838.838,0,0,0-.586-.251c-3.58.027-7.1.3-10.679.093-2.81-.161-5.631-.178-8.446-.2-8.693-.081-17.388-.032-26.082-.095-4.913-.035-9.827-.1-14.738-.248a.748.748,0,0,0-.668.32c-1.064-.029-2.127-.1-3.19-.147-1.1-.053-2.214-.11-3.319-.091a6.641,6.641,0,0,0-1.379.106.736.736,0,0,0-.734-.413c-3.549.081-7.094.028-10.643-.016C99.531.611,98.128.6,96.725.637q-1.079.026-2.156.087c-.158.009-.317.022-.475.032,0-.005-.007-.013-.012-.019a1.419,1.419,0,0,0-1.2-.274.813.813,0,0,0-.6-.22,50.767,50.767,0,0,0-8.67.477,5.12,5.12,0,0,0-2.133.82,54.27,54.27,0,0,0-7.7-.05c-.045,0-.09.009-.136.014a.8.8,0,0,0-.633-.281c-3.712-.036-7.423-.094-11.135-.1-1.96,0-3.922,0-5.882.061a8.493,8.493,0,0,0-2.66.221A32.457,32.457,0,0,0,49.313,1.4c-1.769.059-3.538.031-5.309.019q-5.111-.034-10.219,0a.768.768,0,0,0-.7.385c-1.151.053-2.31.032-3.454.1a30.433,30.433,0,0,0-5.1.813,1.087,1.087,0,0,0-.34.012c-6.256,1.178-11.7,5.068-15.941,9.3a.827.827,0,0,0,.018,1.109c-.344.45-.771.882-1.048,1.242a34.812,34.812,0,0,0-2.83,4.171,20.033,20.033,0,0,0-2.868,9.633.714.714,0,0,0,.2.5c-.192,1.433-.4,2.865-.6,4.292-.171,1.251-.351,2.5-.5,3.753v.009a.732.732,0,0,0-.445.649,37.824,37.824,0,0,0-.126,4.487c.035.53.105,1.056.618,1.324a10.929,10.929,0,0,1,.115,1.211c.018.33.016.662.035.992a1.073,1.073,0,0,0-.57.671,11.68,11.68,0,0,0-.227,3.5c-.058,2.762.213,5.541.343,8.3A93.589,93.589,0,0,1,.426,69.646a.707.707,0,0,0,.6.71q.01.583,0,1.166c-.019,1.422-.078,2.843-.14,4.264C.764,78.719.6,81.653.634,84.589c.009.83.061,1.652.123,2.475A.853.853,0,0,0,.6,87.28a.7.7,0,0,0-.049.1c-.007.017-.02.033-.025.05a.6.6,0,0,0-.008.1.542.542,0,0,0-.022.1c.025.5.046,1.013.114,1.513a2.9,2.9,0,0,0,.083.477,12.052,12.052,0,0,0,.078,1.209c.088,2.482.146,4.964.232,7.446a57.573,57.573,0,0,0,.357,6.1c.006.041.015.085.024.13,0,.009-.007.014-.012.027-.035.092-.053.19-.08.285a6.27,6.27,0,0,0-.142.756,21.394,21.394,0,0,0-.2,2.162c-.2,3.938.019,7.9.146,11.834.066,2.017.141,4.036.131,6.054,0,.695-.009,1.393-.073,2.086a2.973,2.973,0,0,1-.076.536.643.643,0,0,1-.027.072.72.72,0,0,0-.265.554q.032,5.667.065,11.335a.724.724,0,0,0-.128.4c-.03,2.943-.032,5.89.141,8.83q.077,1.321.21,2.64c.041.407.164.934.2,1.433a.708.708,0,0,0-.3.567c-.15,6.5-.156,12.944.275,19.433a9.225,9.225,0,0,1,.138,2.3c-.105.462-.382.776-.38,1.262,0,.892.028,1.782.012,2.675-.061,3.374-.19,6.748-.262,10.122-.09,4.224-.118,8.452.016,12.676a.662.662,0,0,0-.136.431C.936,210.65.507,218.329.376,226a76.026,76.026,0,0,0,.171,8.718c.05.514.115,1.027.2,1.538.03.178.064.357.1.533.026.12.055.24.088.359.011.04.073.251.076.2.086.59.051,1.222.077,1.814l.288,6.3a.8.8,0,0,0,.862.747c-.005.133-.009.264-.015.4-.572.233-.708,1.27-.753,1.778-.258,2.922-.14,5.881-.194,8.81-.013.7-.026,1.394-.067,2.09-.013.238-.046.476-.058.714.008-.149-.015-.023-.013.031a.7.7,0,0,0-.131.4C1.044,278.737.57,297.041.6,315.347a35.377,35.377,0,0,0,.66,6.348.673.673,0,0,0,.772.547c.066.285.134.568.211.85a.739.739,0,0,0-.259.735,15.3,15.3,0,0,0,3.105,6.344l.017.02a.754.754,0,0,0-.013.776A17.272,17.272,0,0,0,8.221,334.9a.8.8,0,0,0,.448.223,41.448,41.448,0,0,0,4.43,3.384c1.174.8,2.379,1.523,3.594,2.262.44.267,1.343.743,1.575.932a13.385,13.385,0,0,0,4.534,1.967,33.218,33.218,0,0,0,8.976,1.453.783.783,0,0,0,.763-.537c.036,0,.072,0,.107,0a4.982,4.982,0,0,0,2.028-.171c1.943.129,3.9.145,5.84.182,3.937.075,7.875.088,11.813.09,6.2,0,12.4-.074,18.6.043,2.737.052,5.511-.21,8.254-.25,3.556-.052,7.114-.035,10.671-.015a.744.744,0,0,0,.772-.518c.583-.016,1.167-.022,1.749-.02a1.454,1.454,0,0,0,.7.391,20.645,20.645,0,0,0,4.216.292,104.5,104.5,0,0,1,11.529.462c.153.022.307.04.453.056a.673.673,0,0,0,.6-.233l.139-.007c1.418-.05,2.838-.06,4.256-.08,1.511-.02,3.023-.036,4.533-.081a6.819,6.819,0,0,0,2.672-.264.947.947,0,0,0,.114-.084c.01,0,.024,0,.034,0a1.586,1.586,0,0,0,.565.367,12.1,12.1,0,0,0,3.6.138q2.579-.062,5.159-.072c7.542-.04,15.083.14,22.624.223q3.311.036,6.622.046,1.778,0,3.556,0c.634,0,2.051.265,2.5-.258a1.048,1.048,0,0,0,.176-.295c.053,0,.108-.008.159-.007.107,0,.215.021.322.028.606.037,1.213.1,1.818.156l4.867.419a13.05,13.05,0,0,0,3.212-.143,23.974,23.974,0,0,1,5.832-.092.7.7,0,0,0,.659-.316c.076,0,.152,0,.228,0q1.008.022,2.016.04,2.224.042,4.448.071,4.472.058,8.946.074c5.877.025,11.753.007,17.629-.019,11.97-.054,23.941-.143,35.91,0,6.712.081,13.423.24,20.13.518a.734.734,0,0,0,.66-.292c.359,0,.718-.007,1.077-.009,1.354.042,2.713,0,4.067-.026a.918.918,0,0,0,.638-.288l5.408.223a27.9,27.9,0,0,0,3.263-.066c2.095-.151,4.207-.129,6.31-.125a.772.772,0,0,0,.174.376.764.764,0,0,0,.644.3l3.923.144.565.02a.817.817,0,0,0,.842-.775.739.739,0,0,0-.036-.147,4.8,4.8,0,0,0,1.267-.2.824.824,0,0,0,.565-.94h.9l-.01.011a.757.757,0,0,0-.089.095c-.011.016-.029.024-.039.041a.77.77,0,0,0-.027.078.634.634,0,0,0-.058.107.536.536,0,0,0,0,.074.726.726,0,0,0-.005.121.807.807,0,0,0,.007.135.719.719,0,0,0,.068.207.843.843,0,0,0,.038.078.93.93,0,0,0,.268.25c.006,0,.008.009.014.011l.767.366c.1.045.19.094.288.136a1.233,1.233,0,0,0,.74.064l1.556-.263c0,.02,0,.039,0,.06a.711.711,0,0,0,.232.445.874.874,0,0,0,.6.227c.6-.04,1.2-.088,1.8-.174a2.156,2.156,0,0,0,.759-.214.806.806,0,0,0,.414-.926.866.866,0,0,0-.451-.51,1.976,1.976,0,0,0-.693-.165.924.924,0,0,0-.122-.006c-.035,0-.063.015-.1.019-.255.009-.51.02-.765.047l-.076.008a.788.788,0,0,0-.256-.337c10.144-.206,19.66-5.109,25.08-13.038a26.029,26.029,0,0,0,1.809-3.108.735.735,0,0,0,.532.452.873.873,0,0,0,1.036-.541,26.374,26.374,0,0,0,1.289-4.516.791.791,0,0,0-.588-.954,1.007,1.007,0,0,0-.247-.009,27.464,27.464,0,0,0,.723-4.962.829.829,0,0,0,1.5-.4c.16-3.24-.093-6.529-.165-9.772-.064-2.908-.132-5.821-.028-8.729a.683.683,0,0,0-.554-.709c0-.164,0-.327-.008-.491a1.459,1.459,0,0,0-.1-.536.772.772,0,0,0-.111-.137.821.821,0,0,0-.1-.129.8.8,0,0,0-.171-.1.95.95,0,0,0-.175-.073c-.01,0-.018-.01-.029-.012v-22.38q.039.612.079,1.223a.815.815,0,0,0,.828.738c.008.162.017.325.026.487a.791.791,0,0,0,.152.414.768.768,0,0,0-.371.185l-.131.157a.649.649,0,0,0-.034.074.436.436,0,0,0-.02.045.721.721,0,0,0-.062.272c-.009.157-.017.315-.025.471a.644.644,0,0,0-.149.091.772.772,0,0,0-.247.548c.008.659.018,1.319.034,1.978.012.5.027,1,.049,1.493.014.336.032.671.059,1.006a6.006,6.006,0,0,0,.094.746.55.55,0,0,0,.016.064l.008.022a1.118,1.118,0,0,0,.093.2,1.8,1.8,0,0,0,.135.16,1.218,1.218,0,0,0,.174.125l.035.016c.008.214.013.429.019.643q.021.9.037,1.8a.751.751,0,0,0,.078.305,1.836,1.836,0,0,0,.043.247.858.858,0,0,0,.813.569h0a.842.842,0,0,0,.813-.569,3.512,3.512,0,0,0,0-1.89c.014-.73,0-1.463.007-2.193a.615.615,0,0,0-.017-.074c0-.025-.011-.047-.016-.072a.726.726,0,0,0-.069-.2.764.764,0,0,0-.072-.105.812.812,0,0,0-.246-.543c-.005,0-.014-.007-.019-.012.01-.264.02-.527.026-.791q.016-.777.019-1.553,0-.977,0-1.955,0-.265-.006-.532a.758.758,0,0,0-.152-.416.73.73,0,0,0,.586-.526c.011-.068.013-.138.022-.207h.008c0-.016,0-.033,0-.05.077-.591.1-1.188.131-1.781.013-.281.025-.562.04-.844a.644.644,0,0,0,.1-.352c-.019-.643-.038-1.288-.076-1.931a5.266,5.266,0,0,0-.113-1.029.847.847,0,0,0-.525-.582.931.931,0,0,0-.092-.016c-.017-.363-.06-.725-.112-1.089a1.411,1.411,0,0,0-.058-.254c-.008-.02-.013-.04-.023-.06a.664.664,0,0,0-.166-.233.892.892,0,0,0-.353-.182l-.015-.278q-.03-.536-.059-1.073a.865.865,0,0,0-1.3-.635v-9.185a.843.843,0,0,0,.284.389.76.76,0,0,0,.5.171,1,1,0,0,0,.595-.232.648.648,0,0,0,.248-.544c-.066-.838-.116-1.677-.174-2.516q-.032-.447-.067-.894a.755.755,0,0,0,.133.023.83.83,0,0,0,.842-.775c.052-.9.085-1.8.137-2.693.024-.395.048-.79.089-1.183.007-.06.014-.121.021-.181,0-.016.005-.031.008-.046.008-.044.027-.091.032-.134,0,0,0,0,0,0a.58.58,0,0,0,.058-.344.732.732,0,0,0-.007-.074.8.8,0,0,0-.058-.161.676.676,0,0,0-.036-.1c-.015-.024-.035-.04-.051-.062s-.018-.022-.028-.034a.822.822,0,0,0-.43-.272l-.072-1.427-.028-.548a.807.807,0,0,0-.163-.421q-.1-1.906-.193-3.812c-.011-.208-.021-.416-.032-.625l.017-.913Zm-1.264,11.97v-.009c.049.188.007.073,0,.009m-.06-41.873c0,.088,0,.175.005.264q-.062,2.312-.089,4.625-.011,1.072-.017,2.145c0,.16-.006.324-.01.488a.942.942,0,0,0-.2-.014v-7.731a.8.8,0,0,0,.309.223M269.353,10h0m-7.292.079c-.007,0-.014,0-.007,0l0-.005h.005m-22.749-.249v0c.025.005.056,0,.084.007.074.019.126.043-.085,0M329.674,161.3l.053.008c-.04.116-.128.073-.053-.008M232.379,8.736a1.389,1.389,0,0,0,.558.127.666.666,0,0,0,.592.674c1.894.316,3.813.258,5.722.5a.929.929,0,0,0,.744-.229c.163-.02.323-.042.45-.046,1.287-.037,2.577-.031,3.864-.03.885,0,1.77,0,2.657-.007a.771.771,0,0,0,.093.13.807.807,0,0,0,.645.306c.18,0,.37,0,.558-.012l3.573-.074.595-.012a.912.912,0,0,0,.668-.327c3.124.17,6.265.168,9.381.452a.68.68,0,0,0,.634-.24c.149,0,.3,0,.447,0,.549,0,1.123.048,1.677.033a2.083,2.083,0,0,0,.28.041c.176.015.355.012.531.01.463,0,.926-.016,1.389-.029a.883.883,0,0,0,.432-.128q.5.021,1,.036a.839.839,0,0,0,.358.105c.114.006.23-.006.345-.006a4.889,4.889,0,0,0,.7-.013l3.037-.018A.891.891,0,0,0,274,9.617a.645.645,0,0,0,.154-.421c0-.016-.008-.028-.01-.043l.431-.011a.77.77,0,0,0,.4.833,1.767,1.767,0,0,0,.832.134c.657,0,1.316-.039,1.971-.079.7-.043,1.4-.092,2.1-.167a6.67,6.67,0,0,0,.793-.108.88.88,0,0,0,.649-.533,1.876,1.876,0,0,0,.487-.084c.06.016.12.026.18.037a.75.75,0,0,0,.8.713l.294,0c.306.007.746.021,1.22.009,2.654.015,5.3.047,7.956.127,2.963.09,5.92.084,8.882.015,1.313-.031,2.623-.022,3.935-.089.318-.016.649-.054.982-.087a.964.964,0,0,0,.352.052,27.272,27.272,0,0,1,8.685,1.15,3.908,3.908,0,0,0,.9.422c.886.361,1.756.758,2.6,1.2A22.261,22.261,0,0,1,323.18,15.9a20.4,20.4,0,0,1,3.55,4.186.757.757,0,0,0,.014.1c0,.022.01.044.014.067a.716.716,0,0,0,.058.183c.008.021.009.043.019.063a27.242,27.242,0,0,1,1.986,5.573c.139,1.4.269,2.8.323,4.2.038.992.06,1.979.152,2.969a.638.638,0,0,0,.156.464c0,.239,0,.478.009.718.037,1.4.062,2.8.067,4.2a20.967,20.967,0,0,1-.1,4.669c-.512,2.159-.265,4.511-.312,6.733-.048,2.323-.183,4.669-.034,6.99.011.17.024.34.043.509.006.05.019.207.031.3-.017.091-.036.226-.042.261-.042.226-.068.456-.1.684-.111.894-.164,1.794-.206,2.693-.112,2.45-.109,4.906-.1,7.357.018,3.073.073,6.147.108,9.22.014,1.317.025,2.635.02,3.952,0,.593-.037,1.19-.019,1.783a.99.99,0,0,0,.425.829c-.014,4.978.124,9.956.267,14.933a.779.779,0,0,0,.418.642c.231,5.306-.076,10.633-.211,15.949a.745.745,0,0,0-.078.256,149.677,149.677,0,0,0,.024,17.953c.1,2.841.18,5.684.1,8.526-.064,2.418,0,4.838-.1,7.256a.73.73,0,0,0-.05.23c-.007,1.315-.119,2.625-.206,3.938-.121,1.216-.264,2.43-.39,3.646a13.854,13.854,0,0,0-.159,2.374,1.057,1.057,0,0,0,.446.864c-.008.616.106,1.241.7,1.432a9.03,9.03,0,0,1-.035,2.063,18.057,18.057,0,0,0-.1,3.256c.033,1.244.092,2.491.014,3.734a17.755,17.755,0,0,0-.186,2.259c.333,3.246.23,6.534.421,9.788a16.013,16.013,0,0,0,.337,3.338c-.042,1.443-.084,2.887-.083,4.33,0,.726.012,1.451.042,2.176a5.2,5.2,0,0,1,.032,1.379c-.111.446-.433.807-.456,1.272a8.593,8.593,0,0,0,.153,1.348q.226,2,.455,4a6.662,6.662,0,0,1,.014,1.42c0,.03-.007.061-.009.091a.7.7,0,0,0-.821.737c.315,4.623.437,9.251.773,13.871a.716.716,0,0,0-.272.54c.029,3.24.321,6.426.1,9.662-.174,2.537-.192,5.084-.221,7.625-.088,7.835-.035,15.67-.1,23.5-.038,4.438-.1,8.877-.27,13.313a.659.659,0,0,0,.343.613c-.007.174-.008.347-.018.52-.048.965-.117,1.93-.168,2.9-.047.883-.1,1.772-.062,2.656a4.773,4.773,0,0,0,.117,1.02.671.671,0,0,0-.457.68c.088,3.2.029,6.4-.019,9.607-.019,1.245-.028,2.49.008,3.736q.027.989.093,1.976c.011.157.025.313.038.47a1.227,1.227,0,0,0-.3,1.057.694.694,0,0,0-.255.567,38.222,38.222,0,0,0,.519,7.831,4.226,4.226,0,0,0,.889,1.927c-.121,1.63-.219,3.263-.178,4.9.018.723.079,1.441.147,2.159a.716.716,0,0,0-.312.576c-.01.265-.032.529-.051.792-.017.2-.033.412-.046.621a20.821,20.821,0,0,1-2.635,8.492,30.6,30.6,0,0,1-2.462,3.566,6.818,6.818,0,0,0-1.017,1.355,29.7,29.7,0,0,1-6.539,4.461,25.89,25.89,0,0,1-9.1,2.151.811.811,0,0,0-.683.394c-.668.047-1.342.049-2.016.04-2.01-.029-4.015-.108-6.025-.094a.8.8,0,0,0-.276-.06c-5.922-.2-11.831-.052-17.753-.285a.753.753,0,0,0-.8.641c-.391.011-.8,0-1.091,0-1.511-.013-3.022-.1-4.531-.18-3.666-.19-7.34-.4-11.013-.254a.882.882,0,0,0-.528.191c-1.5-.093-3-.278-4.473-.451-1.332-.156-2.664-.323-4-.464l-.029,0a.805.805,0,0,0-.707-.412,44.533,44.533,0,0,0-4.835-.114,1.57,1.57,0,0,0-1.368.571l-.019,0c-.407.053-.814.079-1.225.1-.324.015-.75-.036-1.087.011a1.144,1.144,0,0,0-.729-.5,15.16,15.16,0,0,0-3.73-.206c-2.937-.051-5.893.2-8.826.316a115.247,115.247,0,0,1-12.539.06.742.742,0,0,0-.772.555q-.625.009-1.25,0c-1.434-.016-2.869-.067-4.3-.12-3.122-.116-6.247-.267-9.373-.246q-1.428.009-2.855.1a.94.94,0,0,0-.221-.129.763.763,0,0,0-.107-.046c-.019-.006-.035-.019-.053-.024a.79.79,0,0,0-.115-.007.657.657,0,0,0-.109-.02c-.537.023-1.078.043-1.613.1a3.319,3.319,0,0,0-.543.082c-.008,0-.015.007-.024.009-.454-.019-.946.048-1.39.062-2.69.081-5.38.134-8.07.217a49.346,49.346,0,0,0-6.309.333c-.029,0-.042.009-.063.013a.317.317,0,0,0-.068-.04,1.573,1.573,0,0,0-.324-.072c-.313-.064-.633-.1-.951-.14-.71-.084-1.424-.129-2.139-.158-4.176-.173-8.373.022-12.547.14-2.152.06-4.307.129-6.459.119-.73,0-1.461-.013-2.189-.067a3.355,3.355,0,0,1-.542-.066l-.075-.013a.835.835,0,0,0-.612-.26l-12.062.06a.893.893,0,0,0-.441-.118c-3.137-.028-6.278-.029-9.412.129q-1.388.071-2.774.191c-.436.037-1.007.153-1.546.191a.819.819,0,0,0-.617-.274c-6.9-.137-13.75-.145-20.644.25a10.5,10.5,0,0,1-2.569.1,5.231,5.231,0,0,0-1.283-.324c-.976,0-1.951.026-2.928.009-3.584-.057-7.167-.175-10.752-.241-4.478-.081-8.961-.106-13.438.016a.805.805,0,0,0-.469-.125c-8.149.268-16.3-.123-24.449-.247-3.12-.047-6.27-.108-9.381.157-.531.046-1.063.1-1.59.18-.241.036-.482.074-.72.123a2.965,2.965,0,0,0-.445.125c-.654.09-1.364.05-2.021.077l-6.65.263a.787.787,0,0,0-.81.771c-.113-.007-.226-.016-.338-.024-.242-.661-1.736-.82-2.32-.926a28.224,28.224,0,0,1-6.256-1.792,22.973,22.973,0,0,1-2.508-1.279,9.673,9.673,0,0,1-.842-.536c-.289-.216-.274-.351-.242-.1a.855.855,0,0,0-.378-.519c-5.244-3.451-8.936-9.284-9.279-15.261-.189-3.267-.031-6.553,0-9.822q.075-7.007.15-14.014.075-7.829.1-15.659a.745.745,0,0,0-.6-.712c0-.239,0-.478,0-.718a.807.807,0,0,0,.473-.633,25.7,25.7,0,0,0-.14-6.267.915.915,0,0,0,.4-.457,4.492,4.492,0,0,0,.036-1.581q-.018-1.468-.035-2.935a.706.706,0,0,0-.2-.492c-.117-1.157-.245-2.313-.3-3.474-.061-1.315-.074-2.633-.063-3.948.005-.669.022-1.344.092-2.01a4.921,4.921,0,0,0,.086-.548,2.663,2.663,0,0,0,.145-.3,1.668,1.668,0,0,0,.056-.338,1.91,1.91,0,0,0,0-.24c.024-.128.056-.346.062-.407a6.12,6.12,0,0,0,.008-.714c0-.448-.021-.9-.025-1.344-.01-1.354.018-2.711.026-4.065q.013-2.154.027-4.308a.686.686,0,0,0-.615-.721l-.008-.369a3.286,3.286,0,0,0-.184-1.452c.142-1.762.159-3.541.2-5.3.082-3.552.1-7.1.1-10.656.005-5.6-.078-11.193.047-16.788.054-2.413-.223-4.859-.268-7.277-.061-3.27-.041-6.541-.019-9.81a.7.7,0,0,0-.563-.71c-.018-.519-.024-1.039-.021-1.558a1.305,1.305,0,0,0,.426-.65,15.623,15.623,0,0,0,.314-3.784c.109-3.45-.067-7.008.505-10.43.023-.135.04-.27.058-.4a.573.573,0,0,0-.25-.556c-.015-.325-.029-.649-.039-.974-.035-1.273-.051-2.547-.072-3.82-.02-1.246-.037-2.493-.093-3.738-.026-.569.073-1.548-.355-2.041v-.009a1.416,1.416,0,0,0,.4-.542,9.688,9.688,0,0,0,.142-3.259q-.068-2.374-.078-4.749c-.04-6.759.153-13.518.243-20.277q.04-3.045.051-6.091,0-1.539,0-3.078c0-.544.275-1.9-.281-2.3a1.232,1.232,0,0,0-.322-.162c0-.042-.008-.086-.007-.127,0-.1.024-.2.032-.3.04-.534.11-1.069.166-1.6q.231-2.228.462-4.456a9.9,9.9,0,0,0-.172-2.932,17.755,17.755,0,0,1-.088-5.2.621.621,0,0,0-.346-.609c.009-.635.032-1.272.046-1.907q.048-2.074.079-4.147.063-3.981.081-7.961c.028-5.415.008-10.831-.022-16.246-.058-10.761-.153-21.523.006-32.284.045-3,.1-6,.2-9a38.345,38.345,0,0,1,.61-7.3c.119-.383.2-.785.295-1.1a.646.646,0,0,0-.168-.679c.089-.28.178-.552.247-.806.092-.264.2-.525.3-.788q.138-.341.27-.683l.163-.428c.029-.076.056-.151.086-.226l0,0,0-.005L11.749,22l.03-.061.061-.12c.013-.028.029-.052.041-.081.075-.149.15-.3.221-.448a.583.583,0,0,0,.03-.7c.346-.544.709-1.079,1.108-1.6a22.58,22.58,0,0,1,2.208-2.446c.617-.6,1.118-1.246,1.743-1.832a18.789,18.789,0,0,1,4.022-2.827.965.965,0,0,0,.154.15c.012.008.022.016.035.024a.744.744,0,0,0,.706.125l.19-.074.012,0,.007,0q.428-.167.856-.336l.2-.079.154-.06.174-.067.2-.074c.177-.064.361-.11.542-.163l1.439-.42a.781.781,0,0,0,.588-.954.791.791,0,0,0-.057-.1,7.466,7.466,0,0,0,.987-.48.76.76,0,0,0,.309-1c.242-.047.485-.088.729-.129-.011.014-.014.03-.024.044a.671.671,0,0,0-.081.15c0,.012-.015.022-.018.034s0,.05,0,.077a.547.547,0,0,0-.026.129.574.574,0,0,0,.016.063.657.657,0,0,0,.037.147.549.549,0,0,0,.124.23.788.788,0,0,0,.419.3c.008,0,.013.009.022.012l.729.258c.1.034.194.078.293.1a1.09,1.09,0,0,0,.536-.02l1.3-.307a.707.707,0,0,0,.228.434.894.894,0,0,0,.6.227c.483-.01.968-.023,1.448-.076a5.158,5.158,0,0,0,.565-.081,1.327,1.327,0,0,0,.36-.135.814.814,0,0,0,.414-.925.83.83,0,0,0-.234-.366,1.021,1.021,0,0,0-.206-.146,1.592,1.592,0,0,0-.446-.151,1.975,1.975,0,0,0-.331-.038c-.024,0-.047.011-.072.013-.239,0-.478,0-.717.016a.819.819,0,0,0-.233-.354H65.288a.747.747,0,0,0-.211.61.814.814,0,0,0,.828.673l4.168-.285.6-.04a.828.828,0,0,0,.842-.775.822.822,0,0,0-.045-.183h5.024a.79.79,0,0,0,.563,1.368c6.55-.074,13.12-.419,19.67-.212a.727.727,0,0,0,.77-.511c.169,0,.339,0,.507-.006a1.839,1.839,0,0,0,.579-.1.824.824,0,0,0,.152-.1.834.834,0,0,0,.136-.093.674.674,0,0,0,.115-.159.736.736,0,0,0,.078-.16c0-.009.011-.017.013-.026H122.9l-1.3.073a.806.806,0,0,0-.8.763l-.5.023a.962.962,0,0,0-.428.129.672.672,0,0,0-.2-.33l-.17-.121a.784.784,0,0,0-.081-.031l-.049-.019a.9.9,0,0,0-.3-.057l-.489-.023a.617.617,0,0,0-.1-.137.916.916,0,0,0-.6-.227q-1.052.01-2.107.031c-.531.012-1.06.025-1.59.045-.358.014-.716.029-1.072.054a7.668,7.668,0,0,0-.8.086c-.023,0-.045.009-.068.015l-.023.008a1.251,1.251,0,0,0-.216.085,1.608,1.608,0,0,0-.175.125,1.133,1.133,0,0,0-.135.16.271.271,0,0,0-.017.033c-.224.006-.447.012-.67.017q-.959.019-1.918.034a.883.883,0,0,0-.273.055,1.655,1.655,0,0,0-.321.057.764.764,0,0,0-.371,1.3c.36.4,1.866.4,2.372.238.028-.009.053-.022.08-.033.758.012,1.518,0,2.274.005.027,0,.051-.013.078-.016a.806.806,0,0,0,.084-.016.888.888,0,0,0,.21-.062.9.9,0,0,0,.119-.07.946.946,0,0,0,.577-.223c.005,0,.008-.012.013-.017.276.009.553.019.83.023q.828.015,1.654.018,1.041,0,2.081,0l.567-.005a.909.909,0,0,0,.432-.128.724.724,0,0,0,.566.528c.075.011.151.012.225.021v.007l.052,0c.629.071,1.266.095,1.9.119.3.012.594.023.89.036a.8.8,0,0,0,.383.095c.686-.017,1.371-.034,2.056-.07a6.519,6.519,0,0,0,1.1-.1.888.888,0,0,0,.63-.484.636.636,0,0,0,.019-.086c.375-.019.749-.056,1.121-.1h.024c.008,0,.016,0,.024,0l.2-.023a.7.7,0,0,0,.35-.186c.007-.005.016-.008.022-.013s.008-.013.013-.018a.855.855,0,0,0,.119-.14c.009-.015.011-.036.019-.053a.726.726,0,0,0,.046-.116l.28-.013,1.144-.054a.786.786,0,0,0,.69-1.193H141.1a.8.8,0,0,0-.328.175.756.756,0,0,0-.247.548.844.844,0,0,0,.252.547.755.755,0,0,0,.59.228c.893-.06,1.786-.106,2.679-.16.312-.019.624-.04.936-.06a.533.533,0,0,0-.024.122.829.829,0,0,0,.842.775c.945.047,1.891.077,2.837.124.423.022.847.044,1.269.082l.21.021.021,0c.038.006.076.014.114.022a.8.8,0,0,1-.157-.1l.018,0a.9.9,0,0,0,.2.094l.007,0a.89.89,0,0,0,.263.056c.029,0,.056.005.085.006a.849.849,0,0,0,.152-.021.762.762,0,0,0,.194-.06c.013-.006.028-.005.04-.012a.781.781,0,0,0,.4-.47l1.506-.066.584-.026a.982.982,0,0,0,.457-.15l4.051-.178.665-.029.973.015.562.009,0,.006h0v0a.833.833,0,0,0,.131.156l.171.121.2.078h0a.917.917,0,0,0,.222.028h.4a23.352,23.352,0,0,0,3.529.33.8.8,0,0,0,.8.567l4.094-.36.589-.052a.829.829,0,0,0,.842-.775.82.82,0,0,0-.842-.775l-2.054.139-.324.034a.819.819,0,0,0-.807-.633L163.2,8.215c-.018,0-.034.009-.051.01-.414-.01-.827-.009-1.242-.006L161.9,8.2c-.013-.03-.033-.057-.05-.086a.828.828,0,0,0-.1-.147.769.769,0,0,0-.109-.095h12.988a.719.719,0,0,0-.018.185.823.823,0,0,0,.015.136c0,.01,0,.02,0,.029a2.015,2.015,0,0,0-.264-.014l-.028,0c-.041,0-.085.01-.124.015s-.083.009-.123.016a.8.8,0,0,0-.232.088.788.788,0,0,0-.426.681.735.735,0,0,0,.031.213.626.626,0,0,0,.09.192c.035.048.076.093.132.158l.171.121a.838.838,0,0,0,.1.039h0a.9.9,0,0,0,.323.067l.446-.018a.888.888,0,0,0,.424.1c.11.012.22.022.33.031.056,0,.111.009.167.009A.948.948,0,0,0,175.9,9.9h0l.16-.062c.738-.045,1.474-.1,2.21-.165.164,0,.328,0,.491-.007a.922.922,0,0,0,.8.846,4.338,4.338,0,0,0,.493.081.778.778,0,0,0,.643.274c2.8-.038,5.583-.211,8.37-.409,1.375-.053,2.75-.129,4.12-.254a.933.933,0,0,0,.681-.347.559.559,0,0,0,.062-.078c.937.028,1.873.05,2.809.088q1.055.1,2.116.164a7.013,7.013,0,0,0,1.776-.009c.013,0,.022-.012.035-.016a.832.832,0,0,0,.158-.071.791.791,0,0,0,.142-.091.815.815,0,0,0,.082-.085l.155,0,4.821-.093q1.716.043,3.428.154a36.711,36.711,0,0,0,4.131.233c.95-.047,1.905-.087,2.851-.192q.2-.022.4-.049a.781.781,0,0,0,.739.426l4-.436.569-.062c.435-.048.864-.323.842-.775,0-.019-.012-.037-.014-.056a.7.7,0,0,0,.1-.16c.322.029.643.055.967.072a.73.73,0,0,0,.648-.312l.043,0c.287-.027.574-.05.862-.073,1.265-.1,2.534-.172,3.8-.3a7.688,7.688,0,0,0,1.644-.252H232a.744.744,0,0,0,.383.86M19.493,333.4l-.009.02c0-.019.006-.039.006-.058,0,.013,0,.022,0,.038m228.6,3.549a.206.206,0,0,1,.033-.334c-.019.048-.082.278-.033.334m-3.769-.234c0,.005-.005.012-.009.018l-.058,0a1.824,1.824,0,0,1,.148-.122.542.542,0,0,0-.081.109M10.2,268.749c.042.1-.006.155,0,0l0,0M9.837,122.11c.008-.076.027-.059,0,0M34.939,9.189l-.02.044a.617.617,0,0,0,.042-.195c-.008.05-.014.1-.022.15m-.085.185-.078.094a.926.926,0,0,0,.1-.135c-.007.013-.013.027-.019.041m-.3.275-.037.015a.814.814,0,0,0,.119-.072l-.082.057m-.2.077-.063.008c.028-.005.055-.008.083-.016l-.019.008m.5-1.13h0a.817.817,0,0,0-.1-.116c.033.038.065.078.1.116m91.039,1.631h0l.026,0h.005l-.058-.007.024,0m85.756-2.35a.964.964,0,0,0,.157.265l-3.225-.014h-.189a.85.85,0,0,0-.367-.05l-2,.037c-1.271-.028-2.542-.029-3.814-.029,0-.012,0-.022-.006-.034a.72.72,0,0,0-.087-.174h2.064a1.015,1.015,0,0,0,.649.192q.473,0,.945-.009c.515-.008,1.031-.019,1.546-.042a7.388,7.388,0,0,0,1.022-.085.837.837,0,0,0,.135-.055Zm-19.55.285-.267,0q-2.462-.056-4.926-.082-1.143-.01-2.286-.016c-.166,0-.334,0-.5-.009a.736.736,0,0,0,.015-.182h8.21a.753.753,0,0,0-.242.285m31.916.436c.008,0,.021,0,.03,0a.1.1,0,0,1-.089.018c.017,0,.041-.016.059-.014m-76.589-.36v0a.507.507,0,0,1,.088-.018l.018,0c-.056.013-.089.02-.1.022m.521.17-.581.026c.008-.022.019-.044.025-.067.185.019.371.032.556.042M337.943,250.3c.022-.178.035-.356.046-.534l.028.558c-.024-.009-.049-.018-.074-.024m-.3-51.465c-.013,0-.024,0-.037.005a.844.844,0,0,0-.19.08v-1.961a.841.841,0,0,0,.208-.6q0-.444-.01-.888c-.008-.484-.021-.968-.046-1.451a5.963,5.963,0,0,0-.093-.955.7.7,0,0,0-.06-.126v-3a1.1,1.1,0,0,0,.288-.145q-.008,1.52-.015,3.04c0,.062,0,.123,0,.185a.7.7,0,0,0-.055.337q.021.941.041,1.881c-.03,1.2-.033,2.4-.031,3.6M.619,42.98c.007-.019.012-.023,0,0m.59.33c0,.021-.035.016-.087,0a.233.233,0,0,0,.087,0M309.145,345.219l-.015.006-.048.005a.6.6,0,0,0,.063-.012m.251-.12-.071.05-.033.012a.74.74,0,0,0,.1-.063m.245-.261-.017.036-.069.083a.93.93,0,0,0,.086-.119m.088-.281c-.007.044-.013.088-.019.133l-.019.039a.632.632,0,0,0,.038-.172m-.043-.327.024.05c.008.056.016.111.024.167a.889.889,0,0,0-.048-.217m-.187-.284.126.15c.01.022.02.043.029.064a.613.613,0,0,0-.155-.214M339.54,164.012l-.007-.033c.017.012.024.023.007.033m.262-21.386,0-.007c0,.007,0,.013,0,.009l-.005,0m-.121-.21c.027.07.013.084,0,0M243.876.777c0,.009,0,.019,0,.029-.163-.036-.1-.141,0-.029M.614,43l0,.016,0-.016m1.014,85.089a.955.955,0,0,0-.216.044.75.75,0,0,1,.216-.044m.2,119.646c-.021-.077.025-.15,0,0m-.683,12.319c.005.019-.031.067-.021.078-.029-.033-.018-.057.021-.078m32.719,84.355c.089.038.1.07,0,0m86.841.018a.2.2,0,0,1-.184-.036c.13.01.255.018.184.036m44.413.464c.291.044.2.169,0,0" transform="translate(0 0)" fill="#00ca72"/>
      <path id="Path_5105" data-name="Path 5105" d="M402.951,221.056a.788.788,0,0,0-.247-.548.892.892,0,0,0-.6-.227.828.828,0,0,0-.842.775q-.058.957-.115,1.914c-.006.092-.012.185-.017.278a.688.688,0,0,0,.226.517c.008.01.012.021.021.031l.334.357a.892.892,0,0,0,.92.16.77.77,0,0,0,.518-.709q-.088-1.114-.176-2.228l-.025-.321" transform="translate(-63.269 -49.488)" fill="#00ca72"/>
    </g>
  </g>
</svg>
