<svg width="70" height="36" viewBox="0 0 70 36" fill="none" xmlns="http://www.w3.org/2000/svg">
<g clip-path="url(#clip0_2306_2)">
<path d="M10.0538 31.848C9.96777 31.914 9.88177 32.025 9.80377 32.089C9.08913 32.6082 8.22685 32.8847 7.34351 32.8779C6.46017 32.871 5.60229 32.5812 4.89577 32.051C4.46396 31.6717 4.12719 31.1963 3.91258 30.6632C3.69797 30.13 3.61151 29.5539 3.66015 28.9813C3.70878 28.4086 3.89117 27.8554 4.19262 27.366C4.49407 26.8767 4.90618 26.465 5.39577 26.1639C6.00775 25.8217 6.7036 25.6583 7.40395 25.6924C8.10431 25.7265 8.78097 25.9568 9.35677 26.357C9.5022 26.471 9.63617 26.5989 9.75677 26.739C9.76128 26.7668 9.76002 26.7953 9.75307 26.8226C9.74613 26.8499 9.73364 26.8756 9.71639 26.8979C9.69914 26.9202 9.6775 26.9387 9.65279 26.9523C9.62809 26.9659 9.60085 26.9743 9.57277 26.977C9.47277 26.977 9.27277 26.718 9.17977 26.648C8.83201 26.3836 8.4342 26.1927 8.01045 26.0867C7.5867 25.9807 7.14583 25.9619 6.71459 26.0314C6.28335 26.1009 5.8707 26.2572 5.50168 26.4909C5.13265 26.7246 4.81493 27.0308 4.56777 27.391C4.30368 27.7864 4.12644 28.2333 4.04771 28.7023C3.96899 29.1712 3.99057 29.6516 4.11105 30.1116C4.23153 30.5715 4.44817 31.0008 4.74666 31.3709C5.04516 31.7411 5.41875 32.0437 5.84277 32.259C6.4142 32.5002 7.03533 32.6002 7.65361 32.5506C8.27188 32.501 8.86911 32.3032 9.39477 31.9739C9.54077 31.8689 9.71777 31.744 9.73377 31.561C9.76914 31.0693 9.76914 30.5757 9.73377 30.084C9.73425 30.0653 9.73076 30.0467 9.72352 30.0295C9.71628 30.0122 9.70545 29.9967 9.69177 29.984L7.48377 29.9309L7.44777 29.716L7.48677 29.6679H10.0518V31.85L10.0538 31.848Z" fill="black"/>
<path d="M48.3098 29.434H45.0787C45.0697 29.434 45.0348 29.472 45.0058 29.463V32.457L45.0498 32.5H48.8178C48.8512 32.5408 48.8694 32.5918 48.8694 32.6445C48.8694 32.6972 48.8512 32.7483 48.8178 32.789H44.6738C44.5298 32.621 44.6298 32.382 44.6328 32.197C44.6648 30.231 44.5928 28.266 44.6328 26.297C44.6075 26.1382 44.6123 25.9761 44.6468 25.819C44.8378 25.735 45.0338 25.806 45.2268 25.761C46.2828 25.842 47.4937 25.661 48.5267 25.761C48.8477 25.794 48.6938 26.079 48.6428 26.079H45.0498L45.0058 26.122V29.07L45.0498 29.113H48.2668C48.3568 29.113 48.3498 29.365 48.3108 29.431L48.3098 29.434Z" fill="black"/>
<path d="M63.9878 25.6189L66.7978 32.7409C66.7738 32.8199 66.4918 32.7939 66.4278 32.7519L65.6208 30.7389L62.2208 30.7489L61.4068 32.7409C61.3418 32.8239 61.1938 32.7809 61.0948 32.7829C61.0318 32.7429 61.1508 32.4639 61.1768 32.3959C61.9358 30.4049 62.7708 28.4339 63.5688 26.4569C63.6569 26.1733 63.7679 25.8974 63.9008 25.6319C63.9281 25.6185 63.9579 25.614 63.9878 25.6189ZM62.4378 30.4189H65.4278C65.4348 30.4189 65.5008 30.3599 65.4878 30.3299L65.1098 29.3199C64.7098 28.4399 64.4028 27.5129 64.0098 26.6329C63.9991 26.5959 63.9941 26.5574 63.9949 26.5189H63.8948C63.4655 27.5855 63.0395 28.6552 62.6168 29.7279C62.5098 29.933 62.427 30.1497 62.3699 30.3739C62.3699 30.3909 62.4308 30.4199 62.4438 30.4219L62.4378 30.4189Z" fill="black"/>
<path d="M32.4388 27.5169C33.1018 29.1659 33.8558 30.8609 34.4438 32.5539C34.4628 32.6079 34.5587 32.6809 34.5017 32.7609C34.4717 32.8029 34.2017 32.8149 34.1687 32.7419C34.0387 32.5199 33.4468 30.8039 33.3478 30.7559C33.3088 30.7398 33.2668 30.7323 33.2247 30.7339C32.2017 30.8009 31.0738 30.6489 30.0628 30.7339C30.0138 30.7339 29.9328 30.7339 29.9028 30.7839L29.1248 32.7459C29.0608 32.8189 28.9008 32.7839 28.8088 32.7839C28.788 32.7504 28.7809 32.7104 28.7888 32.6719C28.8536 32.5009 28.9284 32.334 29.0128 32.1719C29.7341 30.3272 30.4624 28.4812 31.1978 26.6339C31.3168 26.3339 31.4457 26.0339 31.5787 25.7409C31.5872 25.711 31.5899 25.6798 31.5867 25.6489C31.6537 25.6429 31.7137 25.6429 31.7387 25.7149C31.9767 26.3149 32.1998 26.9199 32.4388 27.5149V27.5169ZM30.0818 30.3859C30.1318 30.4046 30.1844 30.4154 30.2377 30.4179C31.1557 30.4849 32.1538 30.3639 33.0808 30.4179L33.2068 30.3389L31.6578 26.5149C31.5578 26.4959 31.5108 26.7859 31.4898 26.8379C31.1588 27.6559 30.8168 28.4649 30.4898 29.2839C30.3748 29.5759 30.1627 30.0129 30.0827 30.2949C30.073 30.3244 30.072 30.3563 30.0818 30.3859Z" fill="black"/>
<path d="M17.5538 30.77C17.4338 30.648 14.5268 30.786 14.1308 30.739C14.0808 30.756 13.9658 31.051 13.9368 31.123C13.7568 31.575 13.6008 32.1229 13.3998 32.5519C13.3078 32.7519 13.2538 32.8469 13.0078 32.7679L13.0198 32.5479C13.6948 30.8749 14.3598 29.239 15.0198 27.58L15.8048 25.6169C15.8878 25.6169 16.0798 26.127 16.1208 26.226C16.9998 28.36 17.7988 30.5259 18.6838 32.6609L18.6768 32.761C18.618 32.7962 18.5479 32.8078 18.4809 32.7933C18.4138 32.7788 18.3548 32.7394 18.3158 32.683L17.5518 30.7719L17.5538 30.77ZM14.3298 30.417H17.3148C17.3798 30.368 17.3658 30.2779 17.3508 30.2069C16.7958 29.0759 16.4678 27.7549 15.9238 26.6299C15.8838 26.5479 15.8028 26.4389 15.7518 26.5729C15.3058 27.7239 14.8278 28.8659 14.3948 30.0179C14.3798 30.0579 14.3378 30.08 14.3238 30.118C14.2978 30.191 14.2378 30.3889 14.3308 30.4179L14.3298 30.417Z" fill="black"/>
<path d="M57.7108 26.5898C57.7928 26.6648 58.1108 26.9098 58.0418 27.0288C57.9997 27.0599 57.956 27.0886 57.9108 27.1148C57.7168 27.1718 57.6618 26.9778 57.5518 26.8778C57.0427 26.3964 56.3904 26.0941 55.694 26.017C54.9975 25.9399 54.295 26.0922 53.6929 26.4507C53.0909 26.8092 52.6222 27.3543 52.3582 28.0034C52.0941 28.6524 52.049 29.3699 52.2297 30.0468C52.3718 30.6438 52.6785 31.1888 53.1151 31.62C53.5517 32.0511 54.1006 32.3511 54.6993 32.4856C55.298 32.6201 55.9224 32.5839 56.5015 32.3809C57.0806 32.178 57.591 31.8166 57.9747 31.3378C58.0437 31.2428 58.2318 31.4128 58.2448 31.4728C58.2668 31.5728 58.1738 31.5988 58.1448 31.6458C57.5452 32.3466 56.6961 32.786 55.7778 32.8708C55.153 32.9439 54.52 32.8519 53.9418 32.6042C53.3636 32.3564 52.8605 31.9615 52.4824 31.4587C52.1044 30.9559 51.8647 30.3629 51.7872 29.7386C51.7097 29.1144 51.7971 28.4808 52.0408 27.9008C52.2555 27.3714 52.5945 26.9014 53.0292 26.5306C53.4638 26.1598 53.9813 25.8991 54.538 25.7704C55.0946 25.6417 55.674 25.6489 56.2273 25.7914C56.7806 25.9338 57.2914 26.2074 57.7167 26.5888L57.7108 26.5898Z" fill="black"/>
<path d="M38.688 26.1109C38.6363 26.0962 38.5834 26.0861 38.53 26.0809C37.91 26.0329 37.1629 26.1559 36.5599 26.0809C36.5251 26.0768 36.4913 26.0667 36.46 26.0509L36.468 25.8219C37.0074 25.7574 37.5513 25.7383 38.0939 25.7649H39.5939C40.0689 25.7649 40.6419 25.7269 41.1039 25.7649C41.3719 25.7869 41.335 26.0559 41.189 26.0829L39.089 26.0979L39.037 26.1619L39.0049 32.7489C38.9309 32.8289 38.683 32.8039 38.683 32.6879V26.1129L38.688 26.1109Z" fill="black"/>
<path d="M25.9366 32.4948C25.9737 32.5876 25.9737 32.6911 25.9366 32.7838H22.2566L22.2266 32.6258C22.1986 30.4678 22.2686 28.3068 22.2266 26.1498C22.2266 26.0438 22.1436 25.8908 22.2566 25.8058C22.3236 25.7558 22.4876 25.7308 22.5306 25.8188L22.5586 32.4098L22.6176 32.4958H25.9356L25.9366 32.4948Z" fill="black"/>
<path d="M0.0780001 35.2319C0.0527823 35.2137 0.0308089 35.1914 0.0130005 35.1659L0 0.127889C0.026 0.0528888 0.294 0.0448889 0.371 0.0408889C2.908 -0.0901111 5.571 0.140889 8.107 0.0408889C27.743 0.0678889 47.453 0.0168889 67.107 0.0408889C67.957 0.0408889 68.969 -0.0261111 69.798 0.0408889C69.8536 0.039094 69.9088 0.051848 69.958 0.0778895L70.007 35.1199C70.014 35.1549 69.942 35.2319 69.928 35.2319H0.0780001ZM0.357 0.401889V1.66389C7.521 8.89889 14.705 16.0569 21.907 23.2419C21.9355 23.2641 21.9709 23.2758 22.007 23.2749C22.3675 23.3005 22.7295 23.3005 23.09 23.2749C23.1107 23.2731 23.1307 23.2662 23.1481 23.2549C23.1655 23.2435 23.1799 23.2281 23.19 23.2099C23.2184 22.8336 23.2241 22.4559 23.207 22.0789C23.2056 22.0178 23.1818 21.9594 23.14 21.9149L1.594 0.394889C1.18262 0.352241 0.767796 0.354924 0.357 0.402889V0.401889ZM23.203 21.4019V18.9639L13.138 8.90589C11.26 7.02789 9.36 5.12389 7.515 3.22389L4.615 0.39189L2.246 0.37289L2.19 0.449889L23.202 21.4059L23.203 21.4019ZM23.203 18.3879V15.9499C23.203 15.8689 23.06 15.7289 22.985 15.6929L7.716 0.434889C7.64816 0.390808 7.56891 0.36752 7.488 0.367889C6.77756 0.317378 6.06444 0.317378 5.354 0.367889C5.33412 0.367811 5.31431 0.370161 5.295 0.374889L5.239 0.451889L23.203 18.3899V18.3879ZM23.203 15.3079V12.8729L10.778 0.41989C10.7275 0.381148 10.6645 0.362289 10.601 0.366889C9.901 0.301889 9.11 0.419889 8.401 0.366889L8.342 0.373889L8.286 0.45089L23.203 15.3079ZM23.203 12.2609V9.82289C20.426 6.99289 17.611 4.20489 14.794 1.42289C14.631 1.26189 14.486 1.07189 14.322 0.91289C14.1547 0.740707 13.9785 0.577479 13.794 0.423889C13.7419 0.388395 13.68 0.370201 13.617 0.371889C12.8956 0.321038 12.1714 0.321038 11.45 0.371889C11.4301 0.37181 11.4103 0.374161 11.391 0.378889L11.335 0.455889L23.203 12.2639V12.2609ZM23.203 9.21389V6.77289C21.096 4.62689 18.96 2.52689 16.823 0.403889C16.773 0.377443 16.7162 0.366643 16.66 0.37289C15.9494 0.328101 15.2366 0.328101 14.526 0.37289C14.49 0.37289 14.346 0.39089 14.346 0.42489C14.363 0.55789 14.483 0.589889 14.561 0.668889C17.254 3.36889 19.92 6.11689 22.651 8.78389C22.739 8.86989 23.004 9.14189 23.081 9.18989C23.0978 9.20357 23.1177 9.21306 23.1389 9.21758C23.1601 9.2221 23.1821 9.22152 23.203 9.21589V9.21389ZM23.203 6.16689V3.72789C22.1063 2.60189 20.989 1.49056 19.851 0.39389C19.8079 0.374965 19.761 0.366075 19.714 0.367889C18.9929 0.326812 18.2701 0.326812 17.549 0.367889C17.518 0.367889 17.4 0.388889 17.401 0.416889L23.201 6.16689H23.203ZM23.203 3.11989V0.45089C23.1845 0.425937 23.1622 0.404008 23.137 0.385889C22.324 0.395889 21.437 0.314889 20.628 0.367889C20.577 0.367889 20.435 0.372889 20.448 0.451889L23.086 3.09089L23.202 3.12189L23.203 3.11989ZM23.531 1.93989C23.563 1.92889 23.602 1.97289 23.613 1.97289H46.36L46.409 1.92389V0.451889C46.3905 0.426936 46.3682 0.405008 46.343 0.38689H23.627L23.527 0.453889V1.94489L23.531 1.93989ZM46.771 3.28289C46.829 3.29389 46.852 3.25289 46.886 3.21789C47.152 2.94389 47.404 2.56089 47.672 2.26689C48.285 1.59852 48.96 0.989799 49.688 0.448889L49.543 0.36589C48.701 0.41989 47.784 0.30089 46.95 0.36589C46.8898 0.372047 46.8302 0.383423 46.772 0.399889L46.771 3.28289ZM46.771 4.01989V7.87289C46.826 7.88289 46.84 7.86089 46.861 7.81589C46.952 7.62589 47.024 7.33289 47.116 7.11589C48.2612 4.40981 50.361 2.21895 53.016 0.959889C53.397 0.778889 53.806 0.659889 54.183 0.486889C54.221 0.468889 54.294 0.481889 54.274 0.415889C54.263 0.381889 54.074 0.367889 54.03 0.364889C52.895 0.297889 51.695 0.418889 50.553 0.364889C50.258 0.471576 49.9863 0.63422 49.753 0.843889C48.5832 1.72312 47.5735 2.79713 46.768 4.01889L46.771 4.01989ZM65.76 2.91289C64.2506 1.64658 62.451 0.773924 60.522 0.37289C59.028 0.48089 57.337 0.23189 55.867 0.37289C55.5163 0.440087 55.171 0.533005 54.834 0.650889C53.0639 1.18385 51.4446 2.12711 50.1078 3.40394C48.7711 4.68076 47.7546 6.2551 47.141 7.99889C46.9677 8.45096 46.8433 8.9203 46.77 9.39889C46.652 10.9719 46.861 12.6929 46.77 14.2819C47.2442 16.4994 48.3534 18.5311 49.9623 20.1291C51.5712 21.7272 53.6103 22.8226 55.831 23.2819C57.365 23.1699 59.107 23.4279 60.617 23.2819C60.9043 23.2333 61.1882 23.1665 61.467 23.0819C64.4957 22.1702 67.0415 20.0989 68.55 17.3189C69.081 16.3415 69.4523 15.2855 69.65 14.1909C69.757 12.6529 69.568 10.9909 69.65 9.43989C69.1316 6.8861 67.7598 4.58367 65.76 2.91289ZM69.648 7.83989V3.98989C68.8279 2.78927 67.8271 1.72268 66.681 0.82789C66.4479 0.629847 66.1818 0.474162 65.895 0.367889C64.742 0.422889 63.531 0.300889 62.385 0.367889C62.342 0.367889 62.151 0.384889 62.141 0.418889C62.121 0.484889 62.193 0.472889 62.232 0.489889C63.0154 0.792141 63.7772 1.14764 64.512 1.55389C66.8302 2.98252 68.5991 5.15095 69.533 7.70889C69.5467 7.75111 69.5522 7.7956 69.549 7.83989H69.648ZM69.648 0.401889C69.5898 0.385192 69.5302 0.373812 69.47 0.367889C68.637 0.302889 67.719 0.421889 66.877 0.367889L66.732 0.45089C67.4443 0.986249 68.1079 1.58358 68.715 2.23589C68.986 2.53589 69.274 2.98089 69.549 3.23589C69.581 3.26589 69.596 3.29589 69.649 3.28389L69.648 0.401889ZM0.360001 2.27289V4.71389L9.44 13.8219L18.892 23.2729H21.317L21.366 23.1919L12.092 13.9189C8.57 10.3959 5.061 6.84889 1.525 3.33089C1.19305 2.96927 0.841871 2.62577 0.473001 2.30189C0.457461 2.28904 0.439275 2.27977 0.419742 2.27476C0.400208 2.26975 0.379809 2.26911 0.360001 2.27289ZM46.412 4.09189V2.35189L46.299 2.30189H23.71C23.636 2.30689 23.542 2.32989 23.53 2.41689C23.567 2.89989 23.481 3.45189 23.53 3.92589C23.559 4.21989 23.751 4.10289 23.94 4.10189C31.39 4.07589 38.842 4.08822 46.296 4.13889C46.333 4.14289 46.398 4.12389 46.409 4.08789L46.412 4.09189ZM23.53 6.23489C23.562 6.22389 23.601 6.26789 23.612 6.26789H46.36L46.409 6.21889V4.51889L46.36 4.46989H23.613C23.5827 4.49412 23.5552 4.52162 23.531 4.55189V6.23889L23.53 6.23489ZM0.360001 5.33289V7.75789L11.7 19.1579L15.848 23.2679H18.322L18.291 23.1519C13.7577 18.6186 9.22433 14.0852 4.691 9.55189L0.431 5.29089L0.366 5.32389L0.360001 5.33289ZM23.53 8.39689C23.562 8.38589 23.601 8.42989 23.612 8.42989H46.36L46.409 8.38089V6.64389L46.36 6.59489H23.613C23.5827 6.61912 23.5552 6.64662 23.531 6.67689L23.53 8.39689ZM0.360001 8.33089V10.8379C4.51 14.9766 8.65533 19.1216 12.796 23.2729H15.221L15.255 23.1729L0.360001 8.33089ZM46.412 8.75689H23.612C23.57 8.75689 23.535 8.85689 23.529 8.90289C23.492 9.41689 23.492 9.93289 23.529 10.4469C23.5275 10.4747 23.5337 10.5024 23.547 10.5269C23.5766 10.5539 23.6103 10.5758 23.647 10.5919H46.36L46.409 10.5429V8.75789L46.412 8.75689ZM23.53 10.9529V12.6399L46.409 12.6729V10.9729L46.36 10.9239H23.613C23.602 10.9239 23.563 10.9669 23.531 10.9569L23.53 10.9529ZM0.360001 11.3789V13.8529C3.236 16.7469 6.102 19.6629 8.998 22.5179C9.2403 22.7893 9.50307 23.0417 9.784 23.2729H12.177L12.211 23.1729C10.8 21.7329 9.343 20.3379 7.92 18.9099C6.497 17.4819 5.08 16.0459 3.655 14.6219C2.619 13.5859 1.582 12.4409 0.514 11.4549C0.491 11.4339 0.382 11.3549 0.362 11.3779L0.360001 11.3789ZM23.616 13.0789C23.601 13.1009 23.534 13.1499 23.534 13.1609V14.8319L23.583 14.8809H46.36L46.409 14.8319V13.1319L46.36 13.0829L23.616 13.0789ZM0.360001 14.4249V16.8989L6.732 23.2729H9.125L9.159 23.1729C8.478 22.4879 7.79 21.8119 7.109 21.1269C4.951 18.9559 2.809 16.7839 0.619 14.6399C0.54 14.5619 0.5 14.4249 0.358 14.4259L0.360001 14.4249ZM46.412 15.2109H23.58L23.531 15.2599V16.9599C23.5495 16.9848 23.5718 17.0068 23.597 17.0249L46.342 17.0609L46.409 17.0249V15.2129L46.412 15.2109ZM46.773 15.8009V19.6839C47.7461 21.0837 48.9607 22.299 50.36 23.2729H54.244C54.2226 23.2255 54.184 23.1879 54.136 23.1679C53.836 23.0089 53.39 22.8979 53.056 22.7399C50.6069 21.5396 48.6134 19.5769 47.375 17.1469C47.175 16.7469 47.048 16.2409 46.86 15.8599C46.838 15.8149 46.826 15.7929 46.77 15.8029L46.773 15.8009ZM69.652 15.8009C69.595 15.7899 69.586 15.8149 69.561 15.8579C69.478 15.9989 69.386 16.3719 69.308 16.5579C68.0105 19.5296 65.5933 21.8696 62.581 23.0699C62.4624 23.1193 62.3386 23.1551 62.212 23.1769V23.2769H66.03C67.4591 22.3147 68.689 21.0855 69.652 19.6569V15.8009ZM46.409 17.3729H23.58L23.531 17.4219V19.1579L23.58 19.2069H46.36L46.409 19.1579V17.3729ZM3.684 23.2729H6.16L0.408 17.4729C0.34 17.4549 0.345 17.5479 0.344 17.5879C0.316 18.3759 0.374 19.2009 0.383 19.9879L3.684 23.2729ZM46.41 19.5729H23.53V21.2929L23.579 21.3419H46.36L46.409 21.2929L46.41 19.5729ZM46.771 20.3589V23.2419C46.803 23.2309 46.842 23.2749 46.853 23.2749H49.653L49.622 23.1589C48.9456 22.6456 48.3131 22.077 47.731 21.4589C47.444 21.1459 47.169 20.7139 46.884 20.4209C46.85 20.3849 46.827 20.3449 46.769 20.3559L46.771 20.3589ZM69.65 23.2419V20.4059L69.585 20.3729C68.7994 21.3708 67.9034 22.2766 66.914 23.0729C66.836 23.1369 66.599 23.2129 66.847 23.2729C67.7 23.2179 68.629 23.3399 69.472 23.2729C69.5322 23.2667 69.5918 23.2554 69.65 23.2389V23.2419ZM0.406 23.2729H3.06L3.094 23.1729L0.373 20.5199C0.309 20.5199 0.358 20.7539 0.358 20.7969C0.358 21.5839 0.368 22.3729 0.338 23.1589C0.344503 23.2039 0.368596 23.2446 0.405001 23.2719L0.406 23.2729ZM23.613 21.6999C23.588 21.7153 23.5673 21.7368 23.5528 21.7623C23.5383 21.7878 23.5305 21.8165 23.53 21.8459C23.5126 22.2996 23.5186 22.7538 23.548 23.2069C23.566 23.2323 23.5879 23.2545 23.613 23.2729H46.36L46.409 23.2239V21.7489L46.36 21.6999H23.613ZM0.360001 34.8729L0.538 34.9069L69.529 34.8989C69.56 34.8989 69.651 34.8399 69.651 34.8239V23.6489L69.602 23.5999H0.406L0.357 23.6489L0.360001 34.8729Z" fill="black"/>
<path d="M64.916 4.54392C66.2686 5.78725 67.2486 7.38245 67.7463 9.15104C68.244 10.9196 68.2396 12.7918 67.7338 14.5581C67.2281 16.3243 66.2407 17.915 64.8823 19.1521C63.524 20.3892 61.8482 21.2239 60.0424 21.5628C58.2367 21.9016 56.3723 21.7314 54.6578 21.0709C52.9433 20.4105 51.4464 19.286 50.3347 17.8233C49.2229 16.3606 48.5401 14.6174 48.3627 12.7887C48.1853 10.9601 48.5201 9.11808 49.33 7.46892C50.0032 6.08176 50.9922 4.8717 52.2176 3.93583C53.443 2.99996 54.8707 2.36432 56.3861 2.07992C57.9016 1.79552 59.4625 1.87028 60.9439 2.29818C62.4252 2.72609 63.7856 3.49524 64.916 4.54392ZM64.776 4.91292C63.4775 3.68054 61.8588 2.83802 60.1045 2.48151C58.3502 2.12499 56.531 2.26885 54.8546 2.89666C53.1781 3.52446 51.7119 4.61093 50.6233 6.03206C49.5346 7.45319 48.8675 9.15174 48.698 10.9339C48.5284 12.716 48.8632 14.5099 49.6643 16.1108C50.4653 17.7117 51.7004 19.0552 53.2284 19.9879C54.7563 20.9206 56.5157 21.405 58.3058 21.3857C60.0959 21.3664 61.8445 20.8443 63.352 19.8789C64.5704 19.0966 65.5952 18.0477 66.3488 16.8113C67.1025 15.575 67.5654 14.1836 67.7025 12.7421C67.8397 11.3007 67.6475 9.84692 67.1405 8.49063C66.6335 7.13433 65.825 5.91097 64.776 4.91292Z" fill="black"/>
<path d="M63.2707 5.98599C64.3163 6.89417 65.0989 8.06632 65.5369 9.3801C65.9748 10.6939 66.0521 12.1011 65.7607 13.455C65.4693 14.8089 64.8199 16.0597 63.8802 17.077C62.9405 18.0942 61.745 18.8406 60.4185 19.2383C59.0919 19.6359 57.6829 19.6702 56.3386 19.3375C54.9943 19.0049 53.7639 18.3175 52.7758 17.3472C51.7877 16.3768 51.0782 15.1591 50.7213 13.821C50.3644 12.4829 50.3732 11.0735 50.7468 9.74C51.0989 8.48383 51.763 7.33709 52.6772 6.40639C53.5914 5.47568 54.7261 4.79122 55.9758 4.41664C57.2254 4.04206 58.5495 3.98951 59.8249 4.26389C61.1004 4.53827 62.2857 5.13066 63.2707 5.98599ZM63.5708 16.904C64.4067 16.021 65.0114 14.9452 65.3314 13.7722C65.6513 12.5991 65.6765 11.3652 65.4048 10.1801C65.133 8.995 64.5727 7.89537 63.7736 6.97896C62.9745 6.06256 61.9614 5.35775 60.8243 4.92718C59.6872 4.49661 58.4613 4.35361 57.2557 4.5109C56.05 4.66819 54.9019 5.12088 53.9133 5.82876C52.9248 6.53663 52.1264 7.47776 51.5891 8.5685C51.0519 9.65925 50.7924 10.8658 50.8338 12.081C50.8854 13.5348 51.3652 14.9409 52.2129 16.1231C53.0607 17.3052 54.2387 18.2107 55.5991 18.7259C56.9595 19.2412 58.4418 19.3432 59.8599 19.0193C61.2781 18.6953 62.569 17.9588 63.5708 16.904Z" fill="black"/>
<path d="M62.4258 15.4629C61.7765 16.2155 60.9377 16.7808 59.9964 17.1002C59.0551 17.4196 58.0455 17.4815 57.0722 17.2794C56.0989 17.0773 55.1974 16.6187 54.4611 15.951C53.7247 15.2832 53.1803 14.4308 52.8843 13.4818C52.5882 12.5329 52.5513 11.5221 52.7774 10.5541C53.0035 9.58616 53.4843 8.69625 54.17 7.97662C54.8557 7.25699 55.7214 6.73382 56.6773 6.46133C57.6333 6.18884 58.6447 6.17694 59.6068 6.42686C60.5212 6.66859 61.3592 7.1384 62.0425 7.79231C62.7259 8.44623 63.2321 9.26286 63.5137 10.1657C63.7954 11.0686 63.8434 12.0282 63.6531 12.9546C63.4628 13.8811 63.0405 14.7441 62.4258 15.4629ZM54.2258 15.1919C54.8411 15.9214 55.645 16.4681 56.5496 16.7723C57.4543 17.0764 58.4251 17.1265 59.3562 16.9169C60.2873 16.7073 61.1431 16.2462 61.8302 15.5838C62.5173 14.9213 63.0094 14.083 63.2529 13.1602C63.4963 12.2373 63.4818 11.2653 63.2109 10.3502C62.94 9.43501 62.4231 8.61175 61.7165 7.97013C61.0099 7.32851 60.1408 6.89314 59.2038 6.71147C58.2668 6.5298 57.2979 6.6088 56.4028 6.93986C55.619 7.23187 54.9169 7.70793 54.3555 8.32797C53.7942 8.948 53.3901 9.69385 53.1772 10.5027C52.9643 11.3115 52.9488 12.1597 53.1322 12.9757C53.3156 13.7918 53.6923 14.5518 54.2308 15.1919H54.2258Z" fill="black"/>
<path d="M60.7219 9.522C61.1491 9.99015 61.437 10.5684 61.5531 11.1915C61.6691 11.8146 61.6087 12.4578 61.3786 13.0483C61.1485 13.6389 60.7579 14.1534 60.2509 14.5338C59.7439 14.9142 59.1407 15.1452 58.5093 15.2009C57.878 15.2566 57.2436 15.1347 56.6778 14.849C56.1121 14.5632 55.6374 14.125 55.3075 13.5839C54.9776 13.0427 54.8055 12.4201 54.8107 11.7863C54.8158 11.1525 54.9981 10.5327 55.3368 9.99701C55.6164 9.55491 55.9942 9.18326 56.4408 8.91099C56.8874 8.63872 57.3908 8.47317 57.9118 8.42721C58.4328 8.38125 58.9575 8.45613 59.4449 8.64601C59.9323 8.83589 60.3692 9.13566 60.7219 9.522ZM60.3288 9.62201C59.9999 9.30813 59.605 9.07171 59.173 8.93001C58.741 8.7883 58.2829 8.7449 57.832 8.80298C57.381 8.86106 56.9488 9.01914 56.5668 9.26568C56.1848 9.51223 55.8627 9.841 55.6241 10.228C55.3854 10.615 55.2362 11.0504 55.1874 11.5024C55.1386 11.9544 55.1914 12.4116 55.342 12.8406C55.4925 13.2696 55.737 13.6595 56.0576 13.9819C56.3782 14.3043 56.7667 14.551 57.1948 14.704C57.855 14.9507 58.5803 14.9606 59.2469 14.732C59.9135 14.5034 60.4801 14.0506 60.85 13.4508C61.2199 12.8509 61.3702 12.1413 61.2751 11.443C61.1801 10.7448 60.8456 10.1011 60.3288 9.62201Z" fill="black"/>
<path d="M57.3458 10.974C57.5757 10.7556 57.8816 10.6354 58.1986 10.6387C58.5157 10.6421 58.819 10.7687 59.0443 10.9918C59.2695 11.2148 59.3991 11.5169 59.4056 11.8339C59.412 12.1509 59.2948 12.4579 59.0788 12.69C58.9675 12.8095 58.8333 12.9056 58.6841 12.9723C58.535 13.039 58.374 13.0751 58.2106 13.0784C58.0473 13.0817 57.8849 13.0522 57.7332 12.9916C57.5815 12.931 57.4435 12.8405 57.3274 12.7256C57.2113 12.6106 57.1195 12.4735 57.0574 12.3224C56.9953 12.1713 56.9642 12.0093 56.9659 11.8459C56.9676 11.6825 57.0021 11.5212 57.0674 11.3714C57.1326 11.2216 57.2273 11.0865 57.3458 10.974ZM58.0048 10.961C57.81 11.0088 57.6372 11.1214 57.5147 11.2802C57.3922 11.439 57.3272 11.6347 57.3303 11.8352C57.3335 12.0358 57.4046 12.2293 57.532 12.3842C57.6594 12.5391 57.8356 12.6462 58.0318 12.688C58.162 12.7152 58.2966 12.7129 58.4257 12.681C58.5548 12.6492 58.6751 12.5886 58.7776 12.504C58.8801 12.4193 58.9623 12.3126 59.018 12.1919C59.0737 12.0711 59.1015 11.9394 59.0994 11.8064C59.0972 11.6735 59.0651 11.5427 59.0056 11.4238C58.946 11.3049 58.8604 11.201 58.7552 11.1197C58.65 11.0384 58.5278 10.9818 58.3977 10.9542C58.2676 10.9265 58.133 10.9285 58.0038 10.96L58.0048 10.961Z" fill="black"/>
</g>
<defs>
<clipPath id="clip0_2306_2">
<rect width="70.006" height="35.233" fill="white"/>
</clipPath>
</defs>
</svg>
