<svg width="109" height="38" viewBox="0 0 109 38" fill="none" xmlns="http://www.w3.org/2000/svg">
<g clip-path="url(#clip0_2306_63)">
<path d="M17.8561 0.0947364C21.1143 -0.074327 24.3602 0.610986 27.2745 2.08327C30.1889 3.55554 32.6713 5.76408 34.4776 8.49162C36.2839 11.2192 37.3518 14.3718 37.5763 17.6393C37.8009 20.9069 37.1743 24.1769 35.7582 27.1276C34.3421 30.0783 32.1854 32.6081 29.5 34.4682C26.8147 36.3284 23.6932 37.4547 20.4428 37.7364C17.1923 38.0181 13.9248 37.4455 10.9616 36.075C7.99846 34.7044 5.44169 32.5831 3.54282 29.9197C1.59003 27.1641 0.409575 23.9329 0.124611 20.5632C-0.160354 17.1935 0.460613 13.8088 1.92273 10.7621C3.38484 7.71548 5.63454 5.11852 8.43711 3.24219C11.2397 1.36587 14.4924 0.278916 17.8561 0.0947364ZM4.6347 15.0903H1.67401C1.67401 15.0903 1.66543 15.3646 1.67401 15.3769C1.73406 15.4397 2.56246 15.1715 2.6703 15.8456C2.54776 17.6578 2.84922 19.7136 2.67888 21.4962C2.6882 21.6543 2.64348 21.8108 2.55211 21.9399C2.46074 22.069 2.32821 22.1629 2.17645 22.206C1.95341 22.2922 1.59681 22.1913 1.67646 22.5284H4.24991C4.30995 22.1199 3.74134 22.3254 3.43866 22.0892C3.33089 21.9768 3.2434 21.8465 3.18009 21.7041V16.0905L5.95696 22.4878L6.14077 22.5321L8.9593 15.9502V21.4211C8.92842 21.6163 8.88253 21.8088 8.82205 21.9969C8.64314 22.3106 7.92748 22.2749 7.88826 22.3131C7.87356 22.3278 7.89684 22.4681 7.88826 22.5284H11.7411C11.7325 22.4718 11.7558 22.3278 11.7411 22.3131C11.6516 22.2171 10.8465 22.4029 10.7448 21.773C10.8673 19.9104 10.5695 17.8177 10.7362 15.9822C10.8171 15.0866 11.643 15.4803 11.7386 15.3757C11.7505 15.2805 11.7505 15.1842 11.7386 15.089H8.77304L6.81232 19.8796L4.63592 15.089L4.6347 15.0903ZM14.6956 15.0903H12.0903C12.0903 15.0903 12.0989 15.3265 12.0903 15.3769C12.3377 15.3606 12.5826 15.4343 12.7803 15.5846C12.9779 15.7348 13.1149 15.9516 13.1663 16.195C13.0033 17.846 13.3746 19.8858 13.154 21.4851C13.1474 21.6493 13.09 21.8074 12.9899 21.9375C12.8898 22.0675 12.7518 22.1631 12.5952 22.211C12.3808 22.2762 12.0242 22.1544 12.0903 22.5271H14.7299C14.8157 22.2233 14.4775 22.3118 14.2153 22.2196C14.0482 22.1779 13.8982 22.0852 13.7858 21.9543C13.6735 21.8234 13.6043 21.6608 13.5878 21.4888V16.5887L18.3401 22.4546C18.4627 22.5776 18.5362 22.7006 18.7323 22.6698V16.2738C18.7323 16.2504 18.818 15.853 18.8364 15.805C18.879 15.7074 18.945 15.6218 19.0287 15.5561C19.1123 15.4904 19.2109 15.4466 19.3156 15.4286C19.6244 15.3363 19.7972 15.5061 19.7322 15.094H17.3365C17.2862 15.094 17.1576 15.2576 17.2973 15.3474C17.4137 15.4187 17.7139 15.3683 17.9369 15.4938C18.1082 15.6147 18.2369 15.787 18.3046 15.9859V19.5955L14.7005 15.0915L14.6956 15.0903ZM28.2172 22.5284H32.0651C32.157 22.1765 31.6791 22.302 31.4206 22.2085C31.2975 22.1499 31.1929 22.0587 31.1179 21.9446C31.043 21.8305 31.0005 21.698 30.9953 21.5614V19.1649C31.1914 19.1735 31.4267 19.1021 31.5688 19.2694L33.8849 22.5259H36.2035C36.266 22.1851 35.951 22.2725 35.7488 22.1568C35.6263 22.0665 35.5163 21.9601 35.4216 21.8407C34.7048 21.0496 34.1545 19.8649 33.4205 19.0529C33.8457 18.9851 34.2359 18.7759 34.5286 18.459C34.8213 18.142 34.9996 17.7356 35.035 17.3049C35.0703 16.8741 34.9605 16.4439 34.7234 16.0832C34.4862 15.7225 34.1353 15.4521 33.7268 15.3154C32.0104 15.0252 30.2651 14.9471 28.5297 15.0829C28.1339 15.1161 28.0751 15.3289 28.4611 15.3757C29.1572 15.468 29.216 15.5159 29.2821 16.2676C29.3921 17.9591 29.3921 19.6559 29.2821 21.3473C29.2552 21.6881 29.2197 22.0781 28.8545 22.2085C28.5959 22.2983 28.1192 22.1753 28.2099 22.5284H28.2172ZM25.5053 16.2332C25.3926 14.9193 24.2296 14.9795 23.2897 15.4815C22.5011 16.0124 21.8292 16.6998 21.3152 17.5012C20.8011 18.3027 20.4559 19.2013 20.3008 20.1417C20.1636 21.1123 20.34 22.7178 21.6121 22.7474C22.775 22.7769 23.6365 21.3301 24.2517 20.5231C24.2031 20.9016 24.121 21.275 24.0066 21.6389C23.8669 23.018 25.2492 22.895 26.118 22.3967C26.5726 22.0964 26.9555 21.699 27.2393 21.2329C27.3619 21.0422 27.6878 20.6178 27.2479 20.6658C26.9918 20.6928 26.2908 22.1667 25.9992 21.2809L27.7148 15.2281C27.3815 15.3449 25.9722 15.2367 25.797 15.3806C25.7737 15.4015 25.6867 15.8641 25.645 15.981C25.6181 16.0622 25.6058 16.2406 25.5029 16.227L25.5053 16.2332Z" fill="#CB3231"/>
<path d="M81.8071 37.8339C81.8157 37.5878 82.1221 37.6075 82.3096 37.4427C82.4374 37.3024 82.5447 37.1446 82.6282 36.9739C83.5473 35.3561 84.2899 33.1798 85.1048 31.4378C85.1906 31.2496 85.084 31.113 85.3671 31.1807L88.0545 37.3172C88.1595 37.4677 88.3088 37.5816 88.4814 37.6429C88.654 37.7043 88.8414 37.71 89.0174 37.6594C89.1935 37.6087 89.3494 37.5042 89.4634 37.3604C89.5775 37.2166 89.644 37.0406 89.6537 36.857C89.8142 35.4152 89.5373 33.6842 89.6537 32.2129C89.576 31.9814 89.4298 31.7792 89.2346 31.6334C89.0324 31.4956 88.7052 31.5473 88.7321 31.3172H91.0875C92.0384 32.6607 93.1094 33.9647 94.1511 35.254V32.144C94.0949 31.9756 94.0122 31.8173 93.906 31.6752C93.7514 31.5704 93.5756 31.5011 93.3913 31.4722C93.2786 31.4329 93.1891 31.535 93.2246 31.3197H95.3655C95.3263 31.6715 94.8961 31.4329 94.6903 31.7527C94.5869 32.0388 94.5258 32.3384 94.5089 32.6422C94.3778 34.3646 94.6045 36.2333 94.5089 37.9704L94.2638 37.8954C92.8729 36.317 91.7222 34.4777 90.2971 32.9289C90.2162 32.8427 90.1549 32.7259 90.0152 32.7468V36.8595C90.0721 37.0627 90.151 37.2591 90.2505 37.4451C90.4225 37.5742 90.6254 37.6557 90.8387 37.6813C90.9551 37.7145 91.0495 37.6038 91.0139 37.824H85.519C85.4859 37.6087 85.573 37.7108 85.6918 37.6776C86.2028 37.5546 86.3523 37.6444 86.182 36.9764C86.0605 36.6362 85.9104 36.3069 85.7335 35.9922C84.9999 35.9274 84.2624 35.9196 83.5276 35.9688C83.3879 36.3772 82.8083 37.2224 83.3316 37.5361C83.5399 37.6592 83.9676 37.5362 83.9443 37.8166H81.8071V37.8339ZM83.7335 35.5481H85.5178L84.8879 33.9278L84.6256 33.4739L83.7335 35.5481Z" fill="#040404"/>
<path d="M46.3417 1.00455e-05L48.0573 4.14842L49.8746 1.00455e-05H52.4787C52.5118 0.217765 52.4248 0.113193 52.3059 0.146409C51.9935 0.223915 51.7435 0.169784 51.6405 0.554852C51.4696 2.11793 51.4396 3.69331 51.5511 5.26179C51.605 6.08852 51.5327 6.17218 52.3096 6.36902C52.4322 6.39855 52.5179 6.29767 52.4824 6.51542H49.1284C49.0928 6.29397 49.1884 6.40224 49.3036 6.37271C49.4849 6.32473 49.9849 6.23861 49.9849 5.97903V0.788601L47.6296 6.5105L47.3845 6.43545L44.9912 0.93131V5.82894C45.0453 5.94318 45.1101 6.05194 45.1849 6.15373C45.3581 6.25977 45.5512 6.32887 45.7522 6.35672C45.8748 6.3924 45.952 6.30013 45.9189 6.50927H43.6334C43.5979 6.29397 43.6898 6.39609 43.8001 6.35672C44.2069 6.21893 44.4814 6.1894 44.555 5.67885C44.4839 4.1152 44.6714 2.44083 44.5636 0.890712C44.5341 0.445361 44.5243 0.2965 44.0636 0.174705C43.8883 0.126725 43.5734 0.225146 43.6322 -0.0012207H46.3441L46.3417 1.00455e-05Z" fill="#040404"/>
<path d="M75.598 31.3259L77.3137 35.4743L79.1334 31.3259H81.7375C81.7706 31.5437 81.6836 31.4391 81.5647 31.4723C81.2523 31.5498 81.0023 31.4957 80.8993 31.8808C80.7284 33.4438 80.6984 35.0192 80.8099 36.5877C80.8638 37.4144 80.7915 37.4981 81.5684 37.6949C81.691 37.7245 81.7768 37.6236 81.7412 37.8413H78.3872C78.3516 37.6199 78.446 37.7282 78.5624 37.6986C78.7437 37.6506 79.2437 37.5645 79.2437 37.3049V32.1207L76.8884 37.8426L76.6434 37.7675L74.25 32.2634V37.161C74.3041 37.2752 74.3689 37.384 74.4437 37.4858C74.6169 37.5918 74.8101 37.6609 75.0111 37.6888C75.1336 37.7245 75.2108 37.6322 75.1777 37.8413H72.8898C72.8543 37.626 72.9462 37.7282 73.0565 37.6888C73.4633 37.551 73.7378 37.5215 73.8113 37.0109C73.7403 35.4473 73.9278 33.7729 73.8199 32.2228C73.7905 31.7787 73.7807 31.6286 73.3199 31.5068C73.1447 31.4588 72.8297 31.5572 72.8886 31.3308H75.6005L75.598 31.3259Z" fill="#040404"/>
<path d="M62.7183 31.3272C63.2361 31.3734 63.7252 31.5861 64.1129 31.9338C64.4162 32.2663 64.5844 32.7008 64.5844 33.1517C64.5844 33.6026 64.4162 34.0371 64.1129 34.3697C63.934 34.5431 63.2416 34.8027 63.2551 34.9306C63.8114 35.4793 64.5455 37.1008 65.1496 37.4674C65.3604 37.5905 65.679 37.5277 65.6018 37.8365H63.461L61.5002 34.9774C61.3777 34.8544 61.1939 34.9122 61.037 34.906V37.0159C61.0332 37.113 61.0508 37.2097 61.0886 37.2992C61.1263 37.3886 61.1833 37.4686 61.2554 37.5333C61.3276 37.5981 61.4131 37.6461 61.5058 37.6738C61.5985 37.7015 61.6962 37.7084 61.7919 37.6938C61.9144 37.7233 62.0002 37.6224 61.9647 37.8402H58.6106C58.5775 37.6224 58.6646 37.727 58.7834 37.6938C59.4317 37.5326 59.488 37.5351 59.542 36.8043C59.6479 35.2579 59.6438 33.7059 59.5297 32.1601C59.455 31.5536 59.2846 31.5991 58.7834 31.4736C58.6609 31.4441 58.5751 31.545 58.6106 31.3272C59.9243 31.4257 61.4206 31.1956 62.7134 31.3272H62.7183ZM61.0419 34.5444C62.309 34.6096 63.0725 34.3475 62.972 32.9327C62.8862 31.7332 62.0676 31.6311 61.0419 31.6852V34.5444Z" fill="#040404"/>
<path d="M69.5687 20.8861C70.0865 20.9322 70.5756 21.1449 70.9632 21.4926C71.2668 21.825 71.4352 22.2596 71.4352 22.7105C71.4352 23.1615 71.2668 23.5961 70.9632 23.9285C70.7843 24.102 70.092 24.3615 70.1054 24.4895C70.6618 25.0382 71.3958 26.6596 72 27.0263C72.2107 27.1493 72.5294 27.0865 72.4522 27.3953H70.3113L68.3506 24.5362C68.228 24.4132 68.0442 24.471 67.8861 24.4649V26.5748C67.8823 26.6718 67.9 26.7685 67.9377 26.858C67.9755 26.9474 68.0324 27.0274 68.1046 27.0922C68.1767 27.1569 68.2622 27.2049 68.3549 27.2326C68.4477 27.2604 68.5453 27.2672 68.641 27.2526C68.7636 27.2822 68.8493 27.1813 68.8138 27.399H65.4598C65.4267 27.1813 65.5137 27.2858 65.6325 27.2526C66.2808 27.0915 66.3372 27.0939 66.3911 26.3631C66.4971 24.8168 66.493 23.2648 66.3788 21.719C66.3041 21.1124 66.1337 21.158 65.6325 21.0325C65.51 21.0029 65.4242 21.1038 65.4598 20.8861C66.7734 20.9845 68.2697 20.7544 69.5626 20.8861H69.5687ZM67.8923 24.1032C69.1594 24.1684 69.9228 23.9063 69.8224 22.4916C69.7366 21.2921 68.918 21.1899 67.8923 21.2441V24.1032Z" fill="#040404"/>
<path d="M43.6307 27.3916C43.5744 27.1455 43.8415 27.2845 44.0057 27.2329C44.2312 27.1615 44.4579 27.0422 44.4812 26.7789C44.3746 25.1218 44.6393 23.2628 44.4898 21.6303C44.442 21.0988 44.2447 21.1468 43.806 21.0275C43.6896 20.9943 43.5952 21.105 43.6307 20.8848H47.3769C47.6435 20.9396 47.9066 21.0102 48.1649 21.0964C48.7139 21.3481 49.1847 21.7445 49.5273 22.2434C49.8699 22.7423 50.0715 23.325 50.1106 23.9297C50.1496 24.5344 50.0248 25.1384 49.7493 25.6775C49.4738 26.2167 49.058 26.6708 48.546 26.9917C48.1703 27.1641 47.7788 27.2993 47.3769 27.3953H43.6307V27.3916ZM46.0571 21.2403V26.5685C46.0571 27.2366 46.997 27.0606 47.3916 26.8343C48.6734 26.1059 48.5901 22.8581 47.7335 21.8111C47.5173 21.5909 47.2527 21.4247 46.961 21.3258C46.6692 21.2268 46.3583 21.198 46.0534 21.2415L46.0571 21.2403Z" fill="#040404"/>
<path d="M70.1581 10.3193C72.7316 9.96991 74.6322 11.4351 74.3835 14.1245C73.9877 18.3836 67.1264 18.0969 67.5357 13.2633C67.6038 12.5553 67.8947 11.8876 68.3662 11.3567C68.8377 10.8258 69.4653 10.4595 70.1581 10.3107V10.3193ZM70.8003 10.6773C69.2488 10.868 69.228 13.3223 69.3162 14.4911C69.3873 15.4581 69.8273 16.7449 70.9963 16.7474C72.875 16.7474 72.8075 13.3445 72.4951 12.0946C72.2867 11.2592 71.7365 10.5666 70.8003 10.6822V10.6773Z" fill="#040404"/>
<path d="M68.3027 31.2004C70.8761 30.851 72.7768 32.3162 72.528 35.0056C72.1322 39.2647 65.2709 38.9781 65.6802 34.1444C65.7483 33.4364 66.0392 32.7687 66.5107 32.2378C66.9822 31.7069 67.6099 31.3406 68.3027 31.1918V31.2004ZM68.9448 31.5584C67.3934 31.7491 67.3725 34.2034 67.4608 35.3722C67.5319 36.3392 67.9718 37.626 69.1409 37.6285C71.0195 37.6285 70.9521 34.2256 70.6396 32.9757C70.4313 32.1403 69.881 31.4477 68.9448 31.5633V31.5584Z" fill="#040404"/>
<path d="M65.3236 0.00248929L61.613 6.08239H63.3617C63.8269 6.06761 64.2757 5.90627 64.6445 5.62122C65.0134 5.33618 65.2835 4.94187 65.4168 4.49414C65.5001 4.26162 65.3726 4.09061 65.679 4.1509L65.4572 6.51052H59.6118L63.2514 0.430617H61.7882C61.5257 0.471369 61.2752 0.569651 61.0548 0.718485C60.8343 0.867318 60.6492 1.06305 60.5125 1.29179C60.3704 1.55999 60.3753 2.05578 60.0395 1.99919L60.254 -0.00366211H65.3199L65.3236 0.00248929Z" fill="#040404"/>
<path d="M104.714 31.3259V33.2574C104.416 33.3435 104.468 32.9326 104.346 32.6607C104.277 32.4699 104.164 32.2988 104.014 32.1624C103.864 32.026 103.684 31.9284 103.488 31.8783C103.417 31.8574 102.998 31.7553 102.965 31.7553H101.787V34.34C102.045 34.3745 102.307 34.3164 102.526 34.1759C102.745 34.0354 102.908 33.8217 102.986 33.5724C103.046 33.4174 103.117 32.8625 103.146 32.8342C103.176 32.8059 103.301 32.8428 103.361 32.8342V36.1953C103.046 36.2851 103.116 35.8496 103.019 35.5801C102.933 35.2556 102.723 34.9781 102.435 34.8075C102.329 34.7657 101.793 34.6378 101.793 34.8075V36.9531C101.793 37.7921 103.393 37.476 103.884 37.2607C104.287 37.0608 104.612 36.7306 104.805 36.3232C104.85 36.2395 104.995 35.5617 105.222 35.7745C105.299 35.8459 104.88 37.5682 104.937 37.8487H99.2995C99.2848 37.6642 99.2873 37.7257 99.4061 37.7085C99.7456 37.6482 100.152 37.6814 100.221 37.2373C100.114 35.5801 100.379 33.7212 100.23 32.0887C100.194 31.6852 100.107 31.6286 99.7296 31.5154C99.5507 31.4613 99.2395 31.572 99.2983 31.3395H104.721L104.714 31.3259Z" fill="#040404"/>
<path d="M71.3175 0.00244141V1.93394C71.0198 2.02005 71.0725 1.60915 70.9499 1.33726C70.8815 1.14641 70.7675 0.975296 70.618 0.838894C70.4684 0.702492 70.2879 0.604958 70.0921 0.554825C70.021 0.53391 69.6019 0.431799 69.5688 0.431799H68.3875V3.00795C68.6454 3.04244 68.9071 2.98431 69.1264 2.84383C69.3457 2.70336 69.5085 2.48958 69.586 2.24027C69.646 2.08526 69.7171 1.53041 69.7465 1.50212C69.7759 1.47382 69.9009 1.51073 69.961 1.50212V4.86316C69.646 4.95297 69.7159 4.51746 69.6191 4.24804C69.5333 3.92354 69.3238 3.64599 69.0358 3.47544C68.9291 3.43361 68.3936 3.30567 68.3936 3.47544V5.621C68.3936 6.46003 69.9928 6.14386 70.4842 5.92856C70.8875 5.72868 71.212 5.39851 71.4058 4.99111C71.4499 4.90745 71.5957 4.22958 71.8224 4.44242C71.8996 4.51377 71.4805 6.23612 71.5369 6.51662H65.8998C65.8435 6.2841 66.1523 6.3936 66.3312 6.3407C66.7086 6.22751 66.792 6.17092 66.8312 5.7674C66.9795 4.13732 66.7184 2.27472 66.8226 0.618798C66.754 0.173447 66.3434 0.206663 66.0077 0.147611C65.8851 0.126697 65.8851 0.191901 65.9011 0.00736323H71.3286L71.3175 0.00244141Z" fill="#040404"/>
<path d="M55.9052 20.8848V22.8163C55.6074 22.9024 55.6601 22.4915 55.5375 22.2196C55.4691 22.0287 55.3552 21.8576 55.2056 21.7212C55.0561 21.5848 54.8755 21.4873 54.6797 21.4371C54.6087 21.4162 54.1896 21.3141 54.1565 21.3141H52.9788V23.8903C53.2367 23.9248 53.4984 23.8666 53.7177 23.7262C53.937 23.5857 54.0998 23.3719 54.1773 23.1226C54.2373 22.9676 54.3084 22.4127 54.3378 22.3844C54.3673 22.3561 54.4922 22.3931 54.5523 22.3844V25.7455C54.2373 25.8353 54.3072 25.3998 54.2104 25.1304C54.1247 24.8059 53.9151 24.5283 53.6271 24.3578C53.5205 24.3159 52.9849 24.188 52.9849 24.3578V26.5033C52.9849 27.3424 54.5841 27.0262 55.0755 26.8109C55.4788 26.611 55.8033 26.2808 55.9971 25.8734C56.0412 25.7898 56.187 25.1119 56.4138 25.3247C56.491 25.3961 56.0719 27.1184 56.1282 27.3989H50.4911C50.4348 27.1664 50.7436 27.2759 50.9225 27.223C51.3 27.1098 51.3833 27.0532 51.4225 26.6497C51.5708 25.0196 51.3098 23.157 51.4139 21.5011C51.3453 21.0558 50.9348 21.089 50.599 21.0299C50.4764 21.009 50.4765 21.0742 50.4924 20.8897H55.915L55.9052 20.8848Z" fill="#040404"/>
<path d="M45.9852 10.4436C46.9361 11.7871 48.0072 13.0911 49.0488 14.3804V11.2679C48.9926 11.0995 48.9098 10.9412 48.8037 10.7992C48.6491 10.6944 48.4733 10.6251 48.289 10.5962C48.1763 10.5568 48.0868 10.6589 48.1223 10.4436H50.2632C50.224 10.7955 49.7939 10.5568 49.588 10.8767C49.4846 11.1627 49.4235 11.4624 49.4066 11.7662C49.2755 13.4885 49.5022 15.3573 49.4066 17.0944L49.1615 17.0193C47.7706 15.4409 46.62 13.6017 45.1948 12.0528C45.1139 11.9667 45.0526 11.8498 44.9129 11.8707V15.9835C44.9698 16.1867 45.0487 16.3831 45.1482 16.5691C45.3203 16.6982 45.5231 16.7796 45.7364 16.8053C45.8528 16.8385 45.9472 16.7278 45.9116 16.948H43.6311C43.598 16.7474 43.6703 16.8249 43.7892 16.7868C44.2475 16.6256 44.473 16.649 44.5539 16.0487C44.6682 14.5266 44.6711 12.9983 44.5624 11.4758C44.5424 11.3157 44.4862 11.1622 44.3981 11.0273C44.3099 10.8923 44.1922 10.7793 44.0539 10.6971C43.8995 10.6109 43.5808 10.6737 43.6311 10.4399H45.9864L45.9852 10.4436Z" fill="#040404"/>
<path d="M77.0965 10.4436C78.0474 11.7871 79.1185 13.0911 80.1601 14.3804V11.2679C80.1039 11.0995 80.0212 10.9412 79.915 10.7992C79.7604 10.6944 79.5847 10.6251 79.4003 10.5962C79.2876 10.5568 79.1982 10.6589 79.2337 10.4436H81.3745C81.3353 10.7955 80.9052 10.5568 80.6993 10.8767C80.5959 11.1627 80.5349 11.4624 80.518 11.7662C80.3868 13.4885 80.6136 15.3573 80.518 17.0944L80.2729 17.0193C78.882 15.4409 77.7313 13.6017 76.3061 12.0528C76.2264 11.9667 76.1639 11.8498 76.0242 11.8707V15.9835C76.0811 16.1867 76.16 16.3831 76.2595 16.5691C76.4316 16.6982 76.6344 16.7796 76.8477 16.8053C76.9641 16.8385 77.0585 16.7278 77.023 16.948H74.7424C74.7093 16.7474 74.7816 16.8249 74.9005 16.7868C75.3588 16.6256 75.5843 16.649 75.6652 16.0487C75.7796 14.5266 75.7825 12.9983 75.6738 11.4758C75.6538 11.3157 75.5975 11.1622 75.5094 11.0273C75.4213 10.8923 75.3035 10.7793 75.1652 10.6971C75.0108 10.6109 74.6922 10.6737 74.7424 10.4399H77.0977L77.0965 10.4436Z" fill="#040404"/>
<path d="M75.5982 0.00245028C75.6129 0.186988 75.6104 0.125476 75.4915 0.142699C75.1313 0.207903 74.7563 0.134088 74.6766 0.613886C74.7722 2.03114 74.5308 3.64891 74.6766 5.04279C74.8494 6.74669 77.3469 6.61874 77.5282 4.61343C77.6231 3.30968 77.6182 2.00054 77.5135 0.697543C77.4278 0.214054 77.1385 0.264494 76.7697 0.153771C76.6471 0.118094 76.57 0.210363 76.603 0.0012207H78.886C78.9216 0.216515 78.8297 0.114403 78.7194 0.153771C78.027 0.386289 78.0123 0.490861 77.9547 1.25239C77.8089 3.26754 78.7807 6.45143 75.8555 6.65811C72.0652 6.92384 73.2955 3.59848 73.1081 1.10968C73.0578 0.429348 73.0688 0.321086 72.4243 0.148851C72.3078 0.115634 72.2159 0.223896 72.249 0.00614135H75.6031L75.5982 0.00245028Z" fill="#040404"/>
<path d="M56.1182 0.00245028C56.1329 0.186988 56.1304 0.125476 56.0116 0.142699C55.6513 0.207903 55.2763 0.134088 55.1966 0.613886C55.2922 2.03114 55.0508 3.64891 55.1966 5.04279C55.3694 6.74669 57.8669 6.61874 58.0483 4.61343C58.1431 3.30968 58.1382 2.00054 58.0336 0.697543C57.9478 0.214054 57.6586 0.264494 57.2897 0.153771C57.1672 0.118094 57.09 0.210363 57.1231 0.0012207H59.4061C59.4416 0.216515 59.3497 0.114403 59.2394 0.153771C58.547 0.386289 58.5323 0.490861 58.4747 1.25239C58.3289 3.26754 59.3007 6.45143 56.3755 6.65811C52.5852 6.92384 53.8156 3.59848 53.6281 1.10968C53.5778 0.429348 53.5889 0.321086 52.9443 0.148851C52.8279 0.115634 52.7359 0.223896 52.769 0.00614135H56.1231L56.1182 0.00245028Z" fill="#040404"/>
<path d="M63.3976 10.4436V12.2312C63.1035 12.2915 63.204 12.1266 63.1158 11.9064C62.7347 10.9665 62.258 10.7992 61.258 10.8705V16.1987C61.2716 16.3334 61.3258 16.4607 61.4134 16.5636C61.501 16.6665 61.6178 16.7401 61.7482 16.7745C61.9234 16.8225 62.2384 16.7179 62.182 16.948H58.7569C58.7005 16.7019 59.0277 16.8311 59.2054 16.7893C59.3451 16.756 59.6845 16.5592 59.6845 16.4128V10.8705C59.2358 10.8228 58.7827 10.9011 58.3758 11.0969C57.9089 11.3983 57.8758 12.1869 57.8292 12.2287C57.8145 12.2435 57.6748 12.2201 57.6147 12.2287V10.4412H63.3952L63.3976 10.4436Z" fill="#040404"/>
<path d="M77.9584 20.8848V22.6723C77.6643 22.7326 77.7648 22.5678 77.6766 22.3476C77.2955 21.4076 76.8188 21.2403 75.8188 21.3117V26.6399C75.8323 26.7746 75.8865 26.9019 75.9742 27.0048C76.0618 27.1077 76.1786 27.1813 76.309 27.2157C76.4842 27.2636 76.7992 27.1591 76.7428 27.3891H73.3875C73.3311 27.1431 73.5983 27.2821 73.7625 27.2304C73.9022 27.1861 74.2441 27.009 74.2441 26.854V21.3117C73.45 21.2969 72.8618 21.3117 72.5162 22.1212C72.3937 22.3955 72.4598 22.7572 72.1743 22.6699V20.8823H77.9584V20.8848Z" fill="#040404"/>
<path d="M50.4099 16.9503C50.4185 16.7043 50.7249 16.724 50.9124 16.5591C51.0386 16.4176 51.1457 16.26 51.231 16.0904L53.7554 10.339L53.9392 10.2947L56.5764 16.3057C56.6349 16.429 56.7184 16.5388 56.8215 16.628C56.9967 16.7658 57.2822 16.7326 57.2528 16.9479H54.1169C54.0838 16.7326 54.1708 16.8347 54.2897 16.8015C54.7235 16.6944 54.9257 16.8015 54.813 16.2134C54.6836 15.8533 54.5346 15.5005 54.3669 15.1566C53.6241 15.0665 52.8744 15.0476 52.128 15.1C51.9736 15.5036 51.4111 16.3561 51.9319 16.6674C52.1403 16.7904 52.5679 16.6674 52.5447 16.9479H50.4038L50.4099 16.9503ZM52.3363 14.6608H54.1206C53.8869 13.9774 53.6128 13.3086 53.2995 12.658C53.177 12.6395 53.1623 12.7539 53.1182 12.8339C52.8057 13.4084 52.6194 14.0691 52.3363 14.6608Z" fill="#040404"/>
<path d="M81.5156 16.9503C81.5242 16.7043 81.8306 16.724 82.0181 16.5591C82.1443 16.4176 82.2514 16.26 82.3367 16.0904L84.8611 10.339L85.0449 10.2947L87.6821 16.3057C87.7406 16.429 87.8241 16.5388 87.9272 16.628C88.1024 16.7658 88.388 16.7326 88.3585 16.9479H85.2287C85.1956 16.7326 85.2827 16.8347 85.4015 16.8015C85.8354 16.6944 86.0376 16.8015 85.9248 16.2134C85.7955 15.8532 85.6465 15.5005 85.4787 15.1566C84.7359 15.0665 83.9862 15.0476 83.2398 15.1C83.0854 15.5036 82.523 16.3561 83.0438 16.6674C83.2521 16.7904 83.6798 16.6674 83.6565 16.9479H81.5156V16.9503ZM83.4421 14.6608H85.2263C84.9927 13.9774 84.7185 13.3086 84.4052 12.658C84.2827 12.6395 84.268 12.7539 84.2239 12.8339C83.9175 13.4084 83.7313 14.0703 83.4482 14.6621L83.4421 14.6608Z" fill="#040404"/>
<path d="M43.5598 37.8327C43.5684 37.5866 43.8748 37.6063 44.0623 37.4414C44.1885 37.2999 44.2957 37.1423 44.3809 36.9727L46.9053 31.2213L47.0891 31.177L49.7263 37.188C49.7848 37.3114 49.8683 37.4211 49.9714 37.5103C50.1466 37.6481 50.4322 37.6149 50.4028 37.8302H47.2668C47.2337 37.6149 47.3207 37.717 47.4396 37.6838C47.8734 37.5768 48.0756 37.6838 47.9629 37.0957C47.8335 36.7356 47.6846 36.3828 47.5168 36.0389C46.774 35.9488 46.0243 35.9299 45.2779 35.9824C45.1235 36.3859 44.561 37.2384 45.0819 37.5497C45.2902 37.6727 45.7179 37.5497 45.6946 37.8302H43.5537L43.5598 37.8327ZM45.4899 35.5444H47.2742C47.0405 34.8609 46.7663 34.1921 46.4531 33.5415C46.3306 33.5231 46.3159 33.6375 46.2718 33.7175C45.9556 34.2932 45.7693 34.9563 45.4899 35.5444Z" fill="#040404"/>
<path d="M58.5447 27.3915C58.5533 27.1455 58.8596 27.1651 59.0471 27.0003C59.1734 26.8588 59.2805 26.7012 59.3658 26.5316L61.8902 20.7801L62.074 20.7358L64.7112 26.7468C64.7697 26.8702 64.8532 26.98 64.9562 27.0692C65.1315 27.207 65.417 27.1737 65.3876 27.389H62.2517C62.2186 27.1737 62.3056 27.2759 62.4245 27.2426C62.8583 27.1356 63.0605 27.2426 62.9477 26.6546C62.8183 26.2944 62.6694 25.9416 62.5017 25.5978C61.7588 25.5077 61.0092 25.4887 60.2628 25.5412C60.1084 25.9447 59.5459 26.7973 60.0667 27.1085C60.275 27.2316 60.7027 27.1085 60.6794 27.389H58.5386L58.5447 27.3915ZM60.4711 25.1057H62.2553C62.0217 24.4222 61.7475 23.7534 61.4343 23.1028C61.3118 23.0844 61.2971 23.1988 61.2529 23.2788C60.9404 23.8484 60.7542 24.5152 60.4748 25.1057H60.4711Z" fill="#040404"/>
<path d="M78.2388 27.3915C78.2388 27.1282 78.6371 27.1454 78.7682 26.956C79.8797 24.9679 80.6321 22.7891 81.6284 20.7383L81.8073 20.7887L84.3611 26.7259C84.4494 26.8708 84.5622 26.999 84.6945 27.1048C84.855 27.218 85.1282 27.1799 85.0866 27.3915H81.9494C81.9139 27.17 82.0095 27.2808 82.1247 27.2488C82.621 27.111 82.7668 27.2254 82.6149 26.6189C82.5854 26.5057 82.2473 25.6581 82.2019 25.6039C82.137 25.5227 82.0794 25.5412 81.9911 25.5289C81.3707 25.4826 80.7476 25.4826 80.1272 25.5289C79.8564 25.5621 79.6934 26.0456 79.6162 26.3015C79.3711 27.1134 79.6162 27.0396 80.2289 27.2266C80.3515 27.266 80.4164 27.1971 80.3833 27.3902H78.2363L78.2388 27.3915ZM81.9494 25.1057C81.7043 24.509 81.4801 23.7524 81.1799 23.1951C81.1529 23.1471 81.0696 22.9946 81.0218 23.0315L80.164 25.1057H81.9494Z" fill="#040404"/>
<path d="M92.0104 10.4436C92.0704 10.6823 91.7395 10.5666 91.5643 10.6048C91.2199 10.686 91.0913 10.7598 91.0178 11.1301L91.0447 16.1741C91.2175 16.729 92.7395 16.5592 93.1709 16.3648C93.5665 16.144 93.8688 15.7863 94.0213 15.3585C94.0777 15.2354 94.2738 14.3558 94.5115 14.5945C94.5948 14.6781 94.2407 16.6515 94.2971 16.9553H88.5166C88.5019 16.7708 88.5044 16.8323 88.6232 16.8151C89.1587 16.7228 89.3879 16.788 89.4467 16.1372C89.5889 14.5489 89.3364 12.7429 89.4382 11.1313C89.3548 10.606 89.0423 10.6626 88.6232 10.5875C88.5007 10.5666 88.5007 10.6318 88.5166 10.4473H92.0128L92.0104 10.4436Z" fill="#040404"/>
<path d="M53.9772 31.3259C54.0372 31.5646 53.7064 31.4489 53.5311 31.4871C53.1868 31.5683 53.0581 31.6421 52.9846 32.0124L53.0115 37.0564C53.1843 37.6113 54.7063 37.4415 55.1377 37.2471C55.5334 37.0263 55.8356 36.6687 55.9881 36.2408C56.0445 36.1178 56.2406 35.2381 56.4783 35.4768C56.5617 35.5605 56.2075 37.5338 56.2639 37.8376H50.4761C50.4614 37.6531 50.4638 37.7146 50.5827 37.6974C51.1182 37.6051 51.3474 37.6703 51.4062 37.0195C51.5483 35.4313 51.2959 33.6253 51.3976 32.0136C51.3143 31.4883 51.0018 31.5449 50.5827 31.4699C50.4601 31.4489 50.4601 31.5142 50.4761 31.3296H53.9723L53.9772 31.3259Z" fill="#040404"/>
<path d="M82.5953 0.00244141C82.6554 0.24111 82.3245 0.125467 82.1493 0.163605C81.8049 0.244802 81.6762 0.318617 81.6027 0.688922L81.6297 5.73295C81.8025 6.28779 83.3245 6.11802 83.7558 5.92364C84.1515 5.70284 84.4537 5.34519 84.6063 4.91729C84.6627 4.79427 84.8587 3.91464 85.0965 4.15331C85.1798 4.23697 84.8256 6.21029 84.882 6.51416H79.1016C79.0869 6.32962 79.0893 6.39114 79.2082 6.37391C79.7437 6.28164 79.9729 6.34685 80.0317 5.69604C80.1738 4.10779 79.9214 2.30178 80.0231 0.690152C79.9398 0.164835 79.6273 0.221427 79.2082 0.146382C79.0856 0.125467 79.0856 0.19067 79.1016 0.00613248H82.5953V0.00244141Z" fill="#040404"/>
<path d="M99.0749 31.3259C99.1313 31.556 98.8188 31.449 98.6411 31.4994C98.2845 31.5978 98.1987 31.807 98.1509 32.1563C98.0383 33.7022 98.0342 35.2541 98.1387 36.8005C98.1656 37.1696 98.1779 37.5104 98.5823 37.6457C98.7722 37.7085 99.1264 37.6101 99.0725 37.8364H95.6412C95.5848 37.5904 95.912 37.7232 96.0897 37.6777C96.2316 37.6631 96.3622 37.5934 96.4537 37.4836C96.5453 37.3738 96.5905 37.2324 96.5799 37.0897C96.7282 35.4596 96.4635 33.597 96.5713 31.9411C96.5488 31.8252 96.491 31.7192 96.4058 31.6379C96.3206 31.5565 96.2123 31.5038 96.0959 31.4871C95.9169 31.4428 95.591 31.5707 95.6473 31.3284H99.0786L99.0749 31.3259Z" fill="#040404"/>
<path d="M108.995 31.3259C109.052 31.556 108.739 31.449 108.562 31.4994C108.205 31.5978 108.118 31.807 108.071 32.1563C107.959 33.7022 107.955 35.2541 108.059 36.8005C108.086 37.1696 108.098 37.5104 108.503 37.6457C108.693 37.7085 109.047 37.6101 108.993 37.8364H105.562C105.505 37.5904 105.832 37.7232 106.01 37.6777C106.152 37.6631 106.283 37.5934 106.374 37.4836C106.466 37.3738 106.511 37.2324 106.5 37.0897C106.649 35.4596 106.384 33.597 106.492 31.9411C106.469 31.8252 106.411 31.7192 106.326 31.6379C106.241 31.5565 106.133 31.5038 106.016 31.4871C105.837 31.4428 105.511 31.5707 105.568 31.3284H108.999L108.995 31.3259Z" fill="#040404"/>
<path d="M67.1091 10.4436C67.163 10.67 66.8113 10.5666 66.6189 10.6343C66.2145 10.7659 66.2022 11.103 66.1753 11.4795C66.0693 13.0259 66.0734 14.5779 66.1875 16.1237C66.2292 16.4731 66.3187 16.6822 66.6777 16.7806C66.853 16.8286 67.1679 16.724 67.1115 16.9541H63.6803C63.6239 16.708 63.9511 16.8409 64.1288 16.7954C64.2707 16.7807 64.4013 16.7111 64.4928 16.6013C64.5844 16.4915 64.6296 16.3501 64.619 16.2073C64.7672 14.5772 64.5026 12.7146 64.6104 11.0587C64.5879 10.9429 64.53 10.8369 64.4448 10.7555C64.3596 10.6742 64.2513 10.6215 64.1349 10.6048C63.956 10.5605 63.63 10.6884 63.6864 10.4461H67.1176L67.1091 10.4436Z" fill="#040404"/>
<path d="M85.7888 28.9122C85.9113 28.9873 86.5645 30.45 86.7311 30.685C86.0682 30.7982 85.7618 30.0551 85.2091 29.8398C84.6712 30.0933 84.3231 30.8105 83.6626 30.685C83.8979 30.3836 84.3881 29.1324 84.6197 28.9627C85.0033 28.8762 85.3992 28.8592 85.7888 28.9122Z" fill="#040404"/>
<path d="M83.1626 18.8856C83.1386 19.1965 83.0181 19.492 82.8179 19.7305C82.6178 19.9689 82.3482 20.1384 82.047 20.2148C81.7459 20.2913 81.4285 20.2711 81.1395 20.1568C80.8504 20.0426 80.6044 19.8402 80.436 19.5782C80.371 19.465 80.0818 18.8855 80.3465 18.8794C80.7031 18.8794 80.7007 19.1156 80.9825 19.2485C81.4619 19.4358 81.9951 19.4283 82.469 19.2276C82.7141 19.1045 82.7839 18.7798 83.1614 18.8868L83.1626 18.8856Z" fill="#040404"/>
<path d="M60.0433 19.3125C59.9833 19.005 60.1414 19.1391 60.3056 19.0407C60.6083 18.8586 60.8056 18.7183 60.7578 18.3124C59.6255 18.754 59.6132 17.1006 60.7762 17.402C61.7749 17.6591 61.0323 19.438 60.0409 19.315L60.0433 19.3125Z" fill="#040404"/>
<path d="M4.63326 15.0916L6.80965 19.8822L8.77037 15.0916H11.7323C11.7323 15.0916 11.7409 15.3659 11.7323 15.3782C11.6342 15.4791 10.8107 15.0854 10.7299 15.9847C10.5632 17.8203 10.8524 19.9129 10.7384 21.7755C10.8365 22.4079 11.6428 22.2196 11.7347 22.3156C11.7494 22.3303 11.7262 22.4706 11.7347 22.5309H7.88315C7.89173 22.4743 7.86844 22.3303 7.88315 22.3156C7.92236 22.2762 8.63802 22.3156 8.81694 21.9994C8.87709 21.8112 8.92297 21.6188 8.95419 21.4237V15.9515L6.13566 22.5333L5.95184 22.489L3.17497 16.0917V21.7066C3.2401 21.848 3.32739 21.978 3.43354 22.0917C3.73378 22.3279 4.30484 22.1212 4.24479 22.5309H1.67135C1.59047 22.1938 1.9483 22.2947 2.17133 22.2086C2.32321 22.1656 2.45588 22.0717 2.54728 21.9426C2.63868 21.8135 2.68332 21.6568 2.67376 21.4987C2.84288 19.7198 2.54264 17.6603 2.66519 15.8482C2.56102 15.174 1.73139 15.4422 1.6689 15.3794C1.65699 15.2843 1.65699 15.188 1.6689 15.0928H4.6308L4.63326 15.0916Z" fill="#040404"/>
<path d="M25.5067 16.2345C25.6109 16.2431 25.6231 16.0647 25.6489 15.9885C25.6881 15.8716 25.7714 15.409 25.8008 15.3881C25.9761 15.2454 27.3829 15.3524 27.7187 15.2355L26.003 21.2884C26.2947 22.1692 26.9956 20.6942 27.2518 20.6733C27.6917 20.6253 27.3645 21.0522 27.2432 21.2404C26.9585 21.7058 26.5758 22.1031 26.1219 22.4042C25.2543 22.9025 23.8707 23.0193 24.0104 21.6464C24.1224 21.2818 24.2044 20.9086 24.2555 20.5306C23.6428 21.3364 22.7776 22.7807 21.6159 22.7548C20.3439 22.7216 20.1674 21.1186 20.3047 20.1492C20.4601 19.2095 20.8051 18.3116 21.3184 17.5105C21.8317 16.7093 22.5026 16.0219 23.2899 15.4902C24.2298 14.9883 25.3915 14.9292 25.5055 16.2419L25.5067 16.2345ZM22.5277 21.1555C23.0595 21.6575 23.9161 20.3497 24.1367 19.9794C24.7433 19.0165 25.1021 17.9173 25.1808 16.7807C25.1722 16.2616 25.095 15.4668 24.3597 15.703C23.5423 15.9663 22.4566 19.0346 22.3733 19.8638C22.3438 20.159 22.3108 20.9562 22.5252 21.1592L22.5277 21.1555Z" fill="#FEFDFD"/>
<path d="M28.2171 22.5297C28.1252 22.1778 28.6032 22.3033 28.8617 22.2098C29.2294 22.0868 29.2637 21.6907 29.2894 21.3487C29.3994 19.6572 29.3994 17.9604 29.2894 16.2689C29.2245 15.5173 29.1669 15.4656 28.4683 15.377C28.0823 15.3266 28.1448 15.1174 28.537 15.0842C30.2723 14.9485 32.0177 15.0266 33.7341 15.3167C34.1434 15.4525 34.4954 15.7226 34.7334 16.0835C34.9713 16.4444 35.0815 16.8752 35.0462 17.3065C35.0108 17.7379 34.832 18.1448 34.5384 18.4618C34.2449 18.7787 33.8537 18.9874 33.4277 19.0542C34.163 19.8662 34.7096 21.0485 35.4289 21.842C35.5235 21.9615 35.6336 22.0678 35.7561 22.1582C35.9583 22.2713 36.2732 22.1852 36.2107 22.5272H33.891L31.5749 19.2708C31.4327 19.1034 31.1974 19.1748 31.0014 19.1662V21.5627C31.007 21.6992 31.0495 21.8315 31.1245 21.9455C31.1994 22.0596 31.3038 22.1509 31.4266 22.2098C31.6852 22.2996 32.1619 22.1766 32.0712 22.5297H28.2171ZM31.0001 18.7393C32.1386 18.7836 33.141 18.7122 33.2157 17.3479C33.2574 16.6011 33.0785 15.8519 32.2881 15.6255C32.0981 15.5714 31.0001 15.4078 31.0001 15.6255V18.7356V18.7393Z" fill="#040404"/>
<path d="M14.6954 15.0916L18.2995 19.5955V15.9848C18.231 15.7863 18.1025 15.6142 17.9318 15.4927C17.7088 15.3696 17.4086 15.4176 17.2922 15.3463C17.1525 15.2564 17.2799 15.0928 17.3314 15.0928H19.7259C19.7945 15.505 19.6217 15.3389 19.3092 15.4275C19.2046 15.4454 19.106 15.4892 19.0223 15.555C18.9387 15.6207 18.8726 15.7062 18.8301 15.8039C18.8154 15.8519 18.7259 16.2493 18.7259 16.2726V22.6699C18.5299 22.7056 18.449 22.574 18.3338 22.4546L13.5864 16.5876V21.4852C13.6029 21.6572 13.672 21.8198 13.7844 21.9507C13.8968 22.0816 14.0468 22.1743 14.2138 22.216C14.4785 22.3082 14.8143 22.216 14.7285 22.5235H12.0913C12.0264 22.1545 12.3793 22.2775 12.5962 22.2074C12.7529 22.1595 12.8908 22.064 12.9909 21.9339C13.0911 21.8038 13.1484 21.6458 13.155 21.4815C13.3719 19.8822 13.0006 17.84 13.1673 16.1914C13.1174 15.9472 12.9807 15.7296 12.7827 15.579C12.5848 15.4285 12.339 15.3554 12.0913 15.3733C12.0999 15.3229 12.0766 15.0867 12.0913 15.0867H14.6954V15.0916Z" fill="#040404"/>
<path d="M22.5274 21.1506C22.313 20.9476 22.3461 20.1541 22.3755 19.8551C22.4588 19.0259 23.5446 15.9565 24.3619 15.6944C25.0972 15.4582 25.1732 16.253 25.183 16.7721C25.1052 17.9089 24.7464 19.0083 24.1389 19.9708C23.9183 20.3398 23.063 21.6488 22.5299 21.1469L22.5274 21.1506Z" fill="#CB3231"/>
<path d="M31 18.7342V15.6291C31 15.4076 32.1029 15.5725 32.2879 15.6291C33.0784 15.8555 33.2573 16.6047 33.2156 17.3514C33.1409 18.7183 32.1397 18.7871 31 18.7429V18.7342Z" fill="#CB3231"/>
</g>
<defs>
<clipPath id="clip0_2306_63">
<rect width="109" height="38" fill="white"/>
</clipPath>
</defs>
</svg>
