<svg id="Logo" xmlns="http://www.w3.org/2000/svg" width="82.644" height="22.683" viewBox="0 0 82.644 22.683">
  <path id="Path_5565" data-name="Path 5565" d="M73.827,61.027h1.285a1.629,1.629,0,0,0,1.8,2,1.783,1.783,0,0,0,1.818-1.746,1.74,1.74,0,0,0-1.552-1.621l-1.231-.293a2.647,2.647,0,0,1-2.125-2.587,2.855,2.855,0,0,1,3.062-2.769,2.766,2.766,0,0,1,2.991,2.934H78.593a1.67,1.67,0,0,0-1.718-1.957,1.8,1.8,0,0,0-1.86,1.72c0,.658.364,1.216,1.4,1.467l1.231.293a2.833,2.833,0,0,1-.727,5.606c-2.028,0-3.342-1.285-3.088-3.048Z" transform="translate(-56.504 -41.392)" fill="#191918"/>
  <path id="Path_5566" data-name="Path 5566" d="M113.945,60.168h1.285c0,2.712-1.006,3.914-3.005,3.914s-3.285-1.328-3.285-5.031,1.2-5.031,3.285-5.031,2.977,1.2,2.977,3.327h-1.285c0-1.413-.376-2.348-1.692-2.348-1.4,0-2,1.048-2,4.054s.6,3.983,2,3.983c1.313,0,1.72-.866,1.72-2.866Z" transform="translate(-83.33 -41.399)" fill="#191918"/>
  <path id="Path_5567" data-name="Path 5567" d="M145.12,44.905h2.012l2.6,9.786h-1.356l-.35-1.538-.211-1.188h-3.37l-.211,1.188-.35,1.538H142.6l2.516-9.786Zm.461-3.005h1.174l1.607,2.168h-1.4l-.727-1.538h-.14l-.727,1.538h-1.4l1.607-2.168Zm2.026,9.085-.364-1.188-.909-3.914h-.419l-.895,3.914-.364,1.188h2.951Z" transform="translate(-109.024 -32.148)" fill="#191918"/>
  <path id="Path_5568" data-name="Path 5568" d="M180.41,54.6h2.168l2.5,8.806h.419l-.336-5.06V54.6h1.259v9.786h-2.168l-2.5-8.806h-.419l.336,5.06v3.746H180.41Z" transform="translate(-137.886 -41.842)" fill="#191918"/>
  <path id="Path_5569" data-name="Path 5569" d="M217.547,57.069l.083-1.467v-.014H214.96V54.61h6.43v.977H218.72V55.6l.083,1.467v7.324h-1.259V57.069Z" transform="translate(-164.26 -41.85)" fill="#191918"/>
  <path id="Path_5570" data-name="Path 5570" d="M251.59,54.592h5.94v.977h-4.766l.083,1.328v.629l-.083,1.328h3.789v.977h-3.789l.083,1.328v.909l-.083,1.259h4.766v1.048h-5.94V54.592Z" transform="translate(-192.221 -41.834)" fill="#191918"/>
  <path id="Path_5571" data-name="Path 5571" d="M287.62,63.337h2.251l-.083-1.413V57.059l.083-1.467v-.014H287.62V54.6h5.592v.977h-2.25v.014l.083,1.467v4.866l-.083,1.413h2.25v1.048H287.62Z" transform="translate(-219.724 -41.842)" fill="#191918"/>
  <path id="Path_5572" data-name="Path 5572" d="M322.318,54.6h2.014l2.6,9.786h-1.356l-.35-1.538-.211-1.188h-3.37l-.211,1.188-.35,1.538H319.8l2.516-9.786Zm2.487,6.08-.365-1.188-.909-3.914h-.419l-.895,3.914-.365,1.188h2.951Z" transform="translate(-244.289 -41.842)" fill="#191918"/>
  <path id="Path_5573" data-name="Path 5573" d="M3.238.7H5.252l2.6,9.786H6.5l-.35-1.538L5.936,7.759H2.566L2.355,8.947,2,10.486H.72L3.236.7ZM5.725,6.78,5.361,5.592,4.452,1.677H4.033L3.139,5.592,2.774,6.78H5.725Z" transform="translate(-0.72 -0.698)" fill="#191918"/>
  <path id="Path_5574" data-name="Path 5574" d="M40.227,3.169,40.309,1.7V1.687H37.64V.71h6.43v.977H41.4V1.7l.083,1.467v7.324H40.224V3.169Z" transform="translate(-28.903 -0.705)" fill="#191918"/>
  <path id="Path_5575" data-name="Path 5575" d="M74.26.692H80.2V1.67H75.434L75.517,3v.629l-.083,1.328h3.789v.977H75.434l.083,1.328v.909l-.083,1.259H80.2v1.048H74.26V.692Z" transform="translate(-56.857 -0.69)" fill="#191918"/>
  <path id="Path_5576" data-name="Path 5576" d="M109.7.692h1.259V7.96l-.083,1.467h3.467l-.028-.629V8.239h1.259v2.236H109.7V.69Z" transform="translate(-83.91 -0.69)" fill="#191918"/>
  <path id="Path_5577" data-name="Path 5577" d="M145.73,9.437h2.251L147.9,8.024V3.159l.083-1.467V1.677H145.73V.7h5.592v.977h-2.251v.014l.083,1.467V8.024l-.083,1.413h2.251v1.048H145.73Z" transform="translate(-111.413 -0.698)" fill="#191918"/>
  <path id="Path_5578" data-name="Path 5578" d="M180.58.692h5.94V1.67h-4.766L181.837,3v.629l-.083,1.328h3.789v.977h-3.789l.083,1.328v.909l-.083,1.259h4.766v1.048h-5.94V.692Z" transform="translate(-138.016 -0.69)" fill="#191918"/>
  <path id="Path_5579" data-name="Path 5579" d="M218.407,6.642h-1.231l.083,1.467v2.376H216V.7h2.755c2.139,0,3.145,1.2,3.145,2.795a2.191,2.191,0,0,1-2.208,2.447v.419a1.377,1.377,0,0,1,1.245.909l1.5,3.214h-1.4l-1.145-2.92a1.551,1.551,0,0,0-1.481-.923Zm0-.977A2.081,2.081,0,0,0,220.643,3.5c0-1.105-.644-1.8-2.236-1.8h-1.231l.083,1.467V4.475l-.083,1.188h1.231Z" transform="translate(-165.053 -0.698)" fill="#191918"/>
  <path id="Path_5580" data-name="Path 5580" d="M251.45.692h5.94V1.67h-4.766L252.707,3v.629l-.083,1.328h3.789v.977h-3.789l.083,1.328v.909l-.083,1.259h4.766v1.048h-5.94V.692Z" transform="translate(-192.114 -0.69)" fill="#191918"/>
  <path id="Path_5581" data-name="Path 5581" d="M286.89.692h1.259V7.96l-.083,1.467h3.467L291.5,8.8V8.239h1.259v2.236h-5.871V.69Z" transform="translate(-219.167 -0.69)" fill="#191918"/>
  <path id="Path_5582" data-name="Path 5582" d="M322.33.692h5.94V1.67H323.5L323.587,3v.629L323.5,4.954h3.789v.977H323.5l.083,1.328v.909L323.5,9.427h4.766v1.048h-5.94V.692Z" transform="translate(-246.22 -0.69)" fill="#191918"/>
</svg>
