<svg xmlns="http://www.w3.org/2000/svg" width="205" height="24.695" viewBox="0 0 205 24.695">
  <g id="logo-mmb" transform="translate(0 -0.12)">
    <path id="Path_6164" data-name="Path 6164" d="M0,.12,12.369,4.252,24.737.12V24.815H22.75V2.906L12.369,6.368,2.03,2.906V22.789H19.367V7.634L12.242,9.895,5.37,7.634V19.455h8.184c.7-.076,1.758-.143,1.9-1.011.263-1.57-2.44-1.45-3.406-1.48v-1.9c.659-.016,1.968.007,2.386-.594a.669.669,0,0,0-.315-1.073,3.334,3.334,0,0,0-.655-.148H10.358v3.714H8.328v-5.74c1.92.116,4.089-.233,5.962.19s2.831,1.693,2.209,3.642a5.866,5.866,0,0,0-.291.729c.032.2.472.43.634.594a2.874,2.874,0,0,1,.7,2.423c-.236,2.135-2.007,2.588-3.867,2.683H3.341V4.932L12.249,7.79,21.4,4.974V24.815H0Z"/>
    <path id="Path_6165" data-name="Path 6165" d="M1157.589,69.773v7.514h-1.269V69.837c.037-.06.085-.058.146-.065C1156.812,69.731,1157.235,69.805,1157.589,69.773Z" transform="translate(-952.589 -57.37)"/>
    <path id="Path_6166" data-name="Path 6166" d="M435.319,69.84v7.514H434.05V72.837l-2.121,4.51-1.158.011-2.345-4.648v4.644H427.2V69.84h1.247l2.875,5.783,2.749-5.783Z" transform="translate(-351.932 -57.436)"/>
    <path id="Path_6167" data-name="Path 6167" d="M159.887,68.88l2.9,5.827,2.727-5.827h1.247v7.514H165.49V71.877l-2.121,4.51-1.158.011-2.345-4.648v4.644H158.64V68.88Z" transform="translate(-130.689 -56.645)"/>
    <path id="Path_6168" data-name="Path 6168" d="M529.432,75.159V69.84h1.226v7.514h-1.247l-3.742-5.277v5.277H524.4V69.9l.063-.063h1.184Z" transform="translate(-432.006 -57.436)"/>
    <path id="Path_6169" data-name="Path 6169" d="M860.872,69.783c1.364.1,3.545-.363,4.546.8a1.914,1.914,0,0,1-.262,2.736,2.36,2.36,0,0,0-.479.261,1.745,1.745,0,0,1,.966,2.757c-.9,1.369-3.378.856-4.771.957V69.782Zm1.226,3.124h1.543a1.823,1.823,0,0,0,.634-.254.871.871,0,0,0-.092-1.429,2.255,2.255,0,0,0-.458-.176H862.1v1.857Zm0,3.124h1.67a1.57,1.57,0,0,0,.678-.294.874.874,0,0,0,.041-1.225,1.9,1.9,0,0,0-.761-.338H862.1Z" transform="translate(-709.194 -57.379)"/>
    <path id="Path_6170" data-name="Path 6170" d="M1028.292,77.354h-1.459l-1.988-3.124h-.7v3.124h-1.269V73.027l.063-.063h1.121l-1.184-1.878V69.9l.063-.063h2.622a4,4,0,0,1,1.386.43,2.081,2.081,0,0,1,.89,2.35,2.22,2.22,0,0,1-1.579,1.5l2.03,3.23Zm-3.89-6.248a18.312,18.312,0,0,0,1.205,1.859,2.239,2.239,0,0,0,.529-.15.836.836,0,0,0-.042-1.561,2.962,2.962,0,0,0-.486-.148Z" transform="translate(-842.659 -57.436)"/>
    <path id="Path_6171" data-name="Path 6171" d="M1065.112,71.107h-3.763v1.857h3.066l.063.063v1.14l-.063.063h-3.066v1.857h3.763v1.267h-5.032V69.9l.063-.063h4.905l.063.063Z" transform="translate(-873.305 -57.436)"/>
    <path id="Path_6172" data-name="Path 6172" d="M296.392,70.147h-3.763v1.9h3.129v1.225h-3.129v1.857h3.7l.063.063v1.2H291.36V68.88h4.969l.063.063Z" transform="translate(-240.025 -56.645)"/>
    <path id="Path_6173" data-name="Path 6173" d="M257.327,68.88l-3.806,6.248h3.806v1.267H251.28l3.806-6.248h-3.51V68.88Z" transform="translate(-207.007 -56.645)"/>
    <path id="Path_6174" data-name="Path 6174" d="M986.992,69.84v5.467a2.886,2.886,0,0,1-.174.627c-.793,1.982-4.234,2.017-5.187.167a3.4,3.4,0,0,1-.261-.795V69.84h1.205l.063.063V75.18a2.6,2.6,0,0,0,.21.423,1.628,1.628,0,0,0,2.875-.381V69.9l.063-.063Z" transform="translate(-808.463 -57.436)"/>
    <path id="Path_6175" data-name="Path 6175" d="M215.58,68.88v5.3a1.719,1.719,0,0,0,.21.465c.671,1.027,2.919.677,2.919-.592V68.88h1.226v5.552a3.615,3.615,0,0,1-.18.581c-.839,2.056-4.555,1.968-5.3-.139a4.162,4.162,0,0,1-.15-.611V68.88h1.269Z" transform="translate(-176.551 -56.645)"/>
    <path id="Path_6176" data-name="Path 6176" d="M328.389,68.88v5.256a2.425,2.425,0,0,0,.16.432,1.792,1.792,0,0,0,2.793.026,2.254,2.254,0,0,0,.176-.458V68.88h1.226v5.594c0,.028-.113.393-.136.455-.911,2.474-5.488,1.854-5.488-.708V68.943l.063-.063Z" transform="translate(-269.485 -56.645)"/>
    <path id="Path_6177" data-name="Path 6177" d="M773.828,69.84V75.1a2.145,2.145,0,0,0,.176.456c.625,1.089,2.953.721,2.953-.5V69.84h1.226v5.552a3.759,3.759,0,0,1-.148.527c-.922,2.421-5.476,1.822-5.476-.738V69.9l.063-.063Z" transform="translate(-636.443 -57.436)"/>
    <path id="Path_6178" data-name="Path 6178" d="M703.029,69.84V75.1a2.257,2.257,0,0,0,.176.458,1.8,1.8,0,0,0,2.777,0,2.253,2.253,0,0,0,.176-.458V69.84h1.226v5.594a3.047,3.047,0,0,1-.148.485c-.948,2.433-5.476,1.824-5.476-.781V69.9l.063-.063Z" transform="translate(-578.117 -57.436)"/>
    <path id="Path_6179" data-name="Path 6179" d="M898.826,69.832v5.129c0,1.306,2.148,1.621,2.893.692a1.786,1.786,0,0,0,.236-.481v-5.34h1.269v5.383c0,2.5-4.421,3.09-5.432.736a2.935,2.935,0,0,1-.192-.611V69.83h1.226Z" transform="translate(-739.452 -57.428)"/>
    <path id="Path_6180" data-name="Path 6180" d="M649.269,74.116v3.124H648V72.849h1.142L648,71.013V69.725c1.9-.019,5.279-.384,4.984,2.507a2.3,2.3,0,0,1-2.257,1.883h-1.459Zm1.417-3.124c-.363-.041-.793.03-1.163,0l1.163,1.862C652.081,72.72,652.139,71.156,650.685,70.992Z" transform="translate(-533.829 -57.321)"/>
    <path id="Path_6181" data-name="Path 6181" d="M1099,71.448h-1.226c-.011-.728-.742-1.013-1.369-.881a.984.984,0,0,0-.035,1.926,5.787,5.787,0,0,0,.7.058,2.194,2.194,0,0,1,1.972,2.421c-.2,2.784-4.718,2.638-4.694-.146h1.268c.093,1.332,2.349,1.182,2.153-.229a1.149,1.149,0,0,0-.967-.849,4.1,4.1,0,0,1-1.2-.236,2.2,2.2,0,0,1,.042-4A2.285,2.285,0,0,1,1099,71.45Z" transform="translate(-901.531 -56.975)"/>
    <path id="Path_6182" data-name="Path 6182" d="M588.525,69.347a3.764,3.764,0,0,1,3.092,1.069l-.863.9a2.476,2.476,0,0,0-4.251,1.54,2.514,2.514,0,0,0,4.251,2.216l.867.867a3.759,3.759,0,0,1-6.235-1.5c-.663-2.333.574-4.866,3.141-5.1Z" transform="translate(-482.101 -57.015)"/>
    <path id="Path_6183" data-name="Path 6183" d="M940.863,69.327A3.691,3.691,0,0,1,944,70.4l-.863.9a2.476,2.476,0,0,0-4.082.823c-.943,2.7,1.883,4.808,4.082,2.934l.869.867c0,.12-.74.6-.888.677a3.774,3.774,0,0,1-5.3-2.058c-.742-2.313.479-4.967,3.048-5.213Z" transform="translate(-772.406 -56.995)"/>
    <path id="Path_6184" data-name="Path 6184" d="M484.149,69.84v3.018a2.347,2.347,0,0,0,.219.5,1.8,1.8,0,0,0,2.749-.113,1.48,1.48,0,0,0,.162-.43V69.84H488.5v3.314a3.608,3.608,0,0,1-.261.752c-1.136,2.142-5.363,1.462-5.363-.964v-3.1Z" transform="translate(-397.802 -57.436)"/>
    <path id="Path_6185" data-name="Path 6185" d="M1129.758,69.84v1.14h-1.564v6.375h-1.269V70.98h-1.565V69.84Z" transform="translate(-927.083 -57.436)"/>
    <path id="Path_6186" data-name="Path 6186" d="M369.909,68.88v6.248H372.7v1.267H368.64V68.943l.063-.063Z" transform="translate(-303.69 -56.645)"/>
    <path id="Path_6187" data-name="Path 6187" d="M744.746,69.84v6.248h2.791v1.267H743.52V69.84Z" transform="translate(-612.52 -57.436)"/>
    <rect id="Rectangle_286" data-name="Rectangle 286" width="1.269" height="7.514" transform="translate(120.683 12.404)"/>
    <rect id="Rectangle_287" data-name="Rectangle 287" width="1.269" height="7.514" transform="translate(143.475 12.404)"/>
    <path id="Path_6188" data-name="Path 6188" d="M630.309,69.84v7.514H629.04V69.9l.063-.063Z" transform="translate(-518.21 -57.436)"/>
    <path id="Path_6189" data-name="Path 6189" d="M571.029,69.84v7.514H569.76V69.9l.063-.063Z" transform="translate(-469.374 -57.436)"/>
    <path id="Path_6190" data-name="Path 6190" d="M488.575,105.06v1.267h-5.391l-.063-.063v-1.2Z" transform="translate(-397.999 -86.451)"/>
  </g>
</svg>
