<svg xmlns="http://www.w3.org/2000/svg" width="70.006" height="35.233" viewBox="0 0 70.006 35.233">
  <g id="Logo_Galateca" data-name="Logo Galateca" transform="translate(-13.74 -12.227)">
    <g id="mWd3Aw" transform="translate(17.389 37.845)">
      <g id="Group_778" data-name="Group 778">
        <path id="Path_6442" data-name="Path 6442" d="M74.334,399.928c-.086.066-.172.177-.25.241a4.131,4.131,0,0,1-4.908-.038,3.672,3.672,0,0,1,.5-5.887,3.741,3.741,0,0,1,3.961.193,2.844,2.844,0,0,1,.4.382.206.206,0,0,1-.184.238c-.1,0-.3-.259-.393-.329a3.226,3.226,0,0,0-4.612.743,3.364,3.364,0,0,0,1.275,4.868,3.862,3.862,0,0,0,3.552-.285c.146-.105.323-.23.339-.413a10.293,10.293,0,0,0,0-1.477.132.132,0,0,0-.042-.1l-2.208-.053-.036-.215.039-.048h2.565v2.182Z" transform="translate(-67.929 -393.698)"/>
        <path id="Path_6443" data-name="Path 6443" d="M679.792,398.077h-3.231c-.009,0-.044.038-.073.029V401.1l.044.043H680.3a.228.228,0,0,1,0,.289h-4.144c-.144-.168-.044-.407-.041-.592.032-1.966-.04-3.931,0-5.9a1.286,1.286,0,0,1,.014-.478c.191-.084.387-.013.58-.058,1.056.081,2.267-.1,3.3,0,.321.033.167.318.116.318h-3.593l-.044.043v2.948l.044.043h3.217c.09,0,.083.252.044.318Z" transform="translate(-635.131 -394.261)"/>
        <path id="Path_6444" data-name="Path 6444" d="M923.76,392.716l2.81,7.122c-.024.079-.306.053-.37.011l-.807-2.013-3.4.01-.814,1.992c-.065.083-.213.04-.312.042-.063-.04.056-.319.082-.387.759-1.991,1.594-3.962,2.392-5.939a5.469,5.469,0,0,1,.332-.825.146.146,0,0,1,.088-.013Zm-1.55,4.8H925.2c.007,0,.073-.059.06-.089l-.378-1.01c-.4-.88-.707-1.807-1.1-2.687a.381.381,0,0,1-.015-.114l-.1,0q-.644,1.6-1.278,3.209a3,3,0,0,0-.247.646c0,.017.061.046.074.048Z" transform="translate(-863.421 -392.715)"/>
        <path id="Path_6445" data-name="Path 6445" d="M444.915,394.986c.663,1.649,1.417,3.344,2.005,5.037.019.054.115.127.058.207-.03.042-.3.054-.333-.019-.13-.222-.722-1.938-.821-1.986a.293.293,0,0,0-.123-.022c-1.023.067-2.151-.085-3.162,0-.049,0-.13,0-.16.05l-.778,1.962c-.064.073-.224.038-.316.038a.154.154,0,0,1-.02-.112,4.657,4.657,0,0,1,.224-.5q1.082-2.767,2.185-5.538c.119-.3.248-.6.381-.893a.247.247,0,0,0,.008-.092c.067-.006.127-.006.152.066.238.6.461,1.205.7,1.8Zm-2.357,2.869a.513.513,0,0,0,.156.032c.918.067,1.916-.054,2.843,0l.126-.079-1.549-3.824c-.1-.019-.147.271-.168.323-.331.818-.673,1.627-1,2.446-.115.292-.327.729-.407,1.011a.145.145,0,0,0,0,.091Z" transform="translate(-416.125 -393.087)"/>
        <path id="Path_6446" data-name="Path 6446" d="M211.476,397.881c-.12-.122-3.027.016-3.423-.031-.05.017-.165.312-.194.384-.18.452-.336,1-.537,1.429-.092.2-.146.295-.392.216l.012-.22c.675-1.673,1.34-3.309,2-4.968l.785-1.963c.083,0,.275.51.316.609.879,2.134,1.678,4.3,2.563,6.435l-.007.1a.27.27,0,0,1-.361-.078l-.764-1.911Zm-3.224-.353h2.985c.065-.049.051-.139.036-.21-.555-1.131-.883-2.452-1.427-3.577-.04-.082-.121-.191-.172-.057-.446,1.151-.924,2.293-1.357,3.445-.015.04-.057.062-.071.1-.026.073-.086.271.007.3Z" transform="translate(-197.571 -392.729)"/>
        <path id="Path_6447" data-name="Path 6447" d="M788.63,394.592c.082.075.4.32.331.439a1.419,1.419,0,0,1-.131.086c-.194.057-.249-.137-.359-.237a3.219,3.219,0,0,0-5.322,3.169,3.277,3.277,0,0,0,5.745,1.291c.069-.095.257.075.27.135.022.1-.071.126-.1.173a3.544,3.544,0,0,1-2.367,1.225,3.6,3.6,0,0,1-3.737-4.97,3.56,3.56,0,0,1,5.676-1.312Z" transform="translate(-734.568 -393.62)"/>
        <path id="Path_6448" data-name="Path 6448" d="M557.478,394.972a.888.888,0,0,0-.158-.03c-.62-.048-1.367.075-1.97,0a.3.3,0,0,1-.1-.03l.008-.229a9.691,9.691,0,0,1,1.626-.057h1.5c.475,0,1.048-.038,1.51,0,.268.022.231.291.085.318l-2.1.015-.052.064-.032,6.587c-.074.08-.322.055-.322-.061v-6.575Z" transform="translate(-522.439 -394.479)"/>
        <path id="Path_6449" data-name="Path 6449" d="M347.169,401.6a.39.39,0,0,1,0,.289h-3.68l-.03-.158c-.028-2.158.042-4.319,0-6.476,0-.106-.083-.259.03-.344.067-.05.231-.075.274.013l.028,6.591.059.086h3.318Z" transform="translate(-324.881 -394.723)"/>
      </g>
    </g>
    <g id="ab1C8z" transform="translate(13.74 12.227)">
      <g id="Group_779" data-name="Group 779">
        <path id="Path_6450" data-name="Path 6450" d="M13.818,47.459a.277.277,0,0,1-.065-.066L13.74,12.355c.026-.075.294-.083.371-.087,2.537-.131,5.2.1,7.736,0,19.636.027,39.346-.024,59,0,.85,0,1.862-.067,2.691,0a.32.32,0,0,1,.16.037l.049,35.042c.007.035-.065.112-.079.112H13.818Zm.279-34.83v1.262c7.164,7.235,14.348,14.393,21.55,21.578a.156.156,0,0,0,.1.033,7.639,7.639,0,0,0,1.083,0,.127.127,0,0,0,.1-.065,9.387,9.387,0,0,0,.017-1.131.248.248,0,0,0-.067-.164L15.334,12.622a5.646,5.646,0,0,0-1.237.008Zm22.846,21V31.191L26.878,21.133C25,19.255,23.1,17.351,21.255,15.451l-2.9-2.832L15.986,12.6l-.056.077L36.942,33.633Zm0-3.014V28.177c0-.081-.143-.221-.218-.257L21.456,12.662a.415.415,0,0,0-.228-.067,15.045,15.045,0,0,0-2.134,0,.244.244,0,0,0-.059.007l-.056.077L36.943,30.617Zm0-3.08V25.1L24.518,12.647a.26.26,0,0,0-.177-.053c-.7-.065-1.491.053-2.2,0l-.059.007-.056.077Zm0-3.047V22.05c-2.777-2.83-5.592-5.618-8.409-8.4-.163-.161-.308-.351-.472-.51a6.817,6.817,0,0,0-.528-.489.3.3,0,0,0-.177-.052,15.41,15.41,0,0,0-2.167,0,.244.244,0,0,0-.059.007l-.056.077L36.943,24.491Zm0-3.047V19c-2.107-2.146-4.243-4.246-6.38-6.369A.282.282,0,0,0,30.4,12.6a16.963,16.963,0,0,0-2.134,0c-.036,0-.18.018-.18.052.017.133.137.165.215.244,2.693,2.7,5.359,5.448,8.09,8.115.088.086.353.358.43.406A.137.137,0,0,0,36.943,21.443Zm0-3.047V15.955q-1.645-1.689-3.352-3.334a.311.311,0,0,0-.137-.026,19.033,19.033,0,0,0-2.165,0c-.031,0-.149.021-.148.049l5.8,5.75Zm0-3.047V12.678a.3.3,0,0,0-.066-.065c-.813.01-1.7-.071-2.509-.018-.051,0-.193.005-.18.084l2.638,2.639.116.031Zm.328-1.18c.032-.011.071.033.082.033H60.1l.049-.049V12.679a.3.3,0,0,0-.066-.065l-22.716,0-.1.067v1.491Zm23.24,1.343c.058.011.081-.03.115-.065.266-.274.518-.657.786-.951a14.345,14.345,0,0,1,2.016-1.818l-.145-.083c-.842.054-1.759-.065-2.593,0a1.045,1.045,0,0,0-.178.034v2.883Zm0,.737V20.1c.055.01.069-.012.09-.057.091-.19.163-.483.255-.7a11.981,11.981,0,0,1,5.9-6.156c.381-.181.79-.3,1.167-.473.038-.018.111-.005.091-.071-.011-.034-.2-.048-.244-.051-1.135-.067-2.335.054-3.477,0a2.437,2.437,0,0,0-.8.479,12.753,12.753,0,0,0-2.985,3.175ZM79.5,15.14A11.927,11.927,0,0,0,74.262,12.6c-1.494.108-3.185-.141-4.655,0a7.277,7.277,0,0,0-1.033.278,11.745,11.745,0,0,0-7.693,7.348,6.774,6.774,0,0,0-.371,1.4c-.118,1.573.091,3.294,0,4.883a11.686,11.686,0,0,0,9.061,9c1.534-.112,3.276.146,4.786,0a6.866,6.866,0,0,0,.85-.2,11.991,11.991,0,0,0,7.083-5.763,10.438,10.438,0,0,0,1.1-3.128c.107-1.538-.082-3.2,0-4.751A11.48,11.48,0,0,0,79.5,15.141Zm3.888,4.927v-3.85a14.106,14.106,0,0,0-2.967-3.162,2.62,2.62,0,0,0-.786-.46c-1.153.055-2.364-.067-3.51,0-.043,0-.234.017-.244.051-.02.066.052.054.091.071a18.408,18.408,0,0,1,2.28,1.064,12.107,12.107,0,0,1,5.021,6.155.344.344,0,0,1,.016.131h.1Zm0-7.438a1,1,0,0,0-.178-.034c-.833-.065-1.751.054-2.593,0l-.145.083a15.109,15.109,0,0,1,1.983,1.785c.271.3.559.745.834,1,.032.03.047.06.1.048V12.629ZM14.1,14.5v2.441l9.08,9.108L32.632,35.5h2.425l.049-.081-9.274-9.273c-3.522-3.523-7.031-7.07-10.567-10.588a13.683,13.683,0,0,0-1.052-1.029A.137.137,0,0,0,14.1,14.5Zm46.052,1.819V14.579l-.113-.05H37.45c-.074.005-.168.028-.18.115.037.483-.049,1.035,0,1.509.029.294.221.177.41.176q11.175-.039,22.356.037C60.073,16.37,60.138,16.351,60.149,16.315ZM37.27,18.462c.032-.011.071.033.082.033H60.1l.049-.049v-1.7l-.049-.049H37.353a.526.526,0,0,0-.082.082v1.687ZM14.1,17.56v2.425l11.34,11.4,4.148,4.11h2.474l-.031-.116q-6.8-6.8-13.6-13.6l-4.26-4.261-.065.033ZM37.27,20.624c.032-.011.071.033.082.033H60.1l.049-.049V18.871l-.049-.049H37.353a.526.526,0,0,0-.082.082v1.72ZM14.1,20.558v2.507Q20.325,29.273,26.536,35.5h2.425l.034-.1Zm46.052.426h-22.8c-.042,0-.077.1-.083.146a10.741,10.741,0,0,0,0,1.544.151.151,0,0,0,.018.08.367.367,0,0,0,.1.065H60.1l.049-.049V20.985ZM37.27,23.18v1.687l22.879.033V23.2l-.049-.049H37.353c-.011,0-.05.043-.082.033ZM14.1,23.606v2.474c2.876,2.894,5.742,5.81,8.638,8.665a7.112,7.112,0,0,0,.786.755h2.393l.034-.1c-1.411-1.44-2.868-2.835-4.291-4.263s-2.84-2.864-4.265-4.288c-1.036-1.036-2.073-2.181-3.141-3.167-.023-.021-.132-.1-.152-.077Zm23.256,1.7c-.015.022-.082.071-.082.082v1.671l.049.049H60.1l.049-.049v-1.7l-.049-.049ZM14.1,26.652v2.474L20.472,35.5h2.393l.034-.1c-.681-.685-1.369-1.361-2.05-2.046-2.158-2.171-4.3-4.343-6.49-6.487-.079-.078-.119-.215-.261-.214Zm46.052.786H37.32l-.049.049v1.7a.3.3,0,0,0,.066.065l22.745.036.067-.036V27.44Zm.361.59v3.883A14.357,14.357,0,0,0,64.1,35.5h3.884a.205.205,0,0,0-.108-.105c-.3-.159-.746-.27-1.08-.428a12.6,12.6,0,0,1-5.681-5.593c-.2-.4-.327-.906-.515-1.287-.022-.045-.034-.067-.09-.057Zm22.879,0c-.057-.011-.066.014-.091.057-.083.141-.175.514-.253.7a12.314,12.314,0,0,1-6.727,6.512,1.716,1.716,0,0,1-.369.107v.1h3.818a13.38,13.38,0,0,0,3.622-3.62ZM60.149,29.6H37.32l-.049.049v1.736l.049.049H60.1l.049-.049V29.6ZM17.424,35.5H19.9l-5.752-5.8c-.068-.018-.063.075-.064.115-.028.788.03,1.613.039,2.4l3.3,3.285Zm42.726-3.7H37.27v1.72l.049.049H60.1l.049-.049Zm.361.786v2.883c.032-.011.071.033.082.033h2.8l-.031-.116a15.314,15.314,0,0,1-1.891-1.7c-.287-.313-.562-.745-.847-1.038-.034-.036-.057-.076-.115-.065Zm22.879,2.883V32.633l-.065-.033a16.826,16.826,0,0,1-2.671,2.7c-.078.064-.315.14-.067.2.853-.055,1.782.067,2.625,0a1.045,1.045,0,0,0,.178-.034ZM14.146,35.5H16.8l.034-.1-2.721-2.653c-.064,0-.015.234-.015.277,0,.787.01,1.576-.02,2.362a.172.172,0,0,0,.067.113Zm23.207-1.573a.175.175,0,0,0-.083.146,13.2,13.2,0,0,0,.018,1.361.288.288,0,0,0,.065.066H60.1l.049-.049V33.976l-.049-.049ZM14.1,47.1l.178.034,68.991-.008c.031,0,.122-.059.122-.075V35.876l-.049-.049H14.146l-.049.049Z" transform="translate(-13.74 -12.227)"/>
        <path id="Path_6451" data-name="Path 6451" d="M747.709,43.638a9.9,9.9,0,1,1-15.586,2.925,9.866,9.866,0,0,1,15.586-2.925Zm-.14.369a9.548,9.548,0,1,0-1.424,14.966,9.557,9.557,0,0,0,1.424-14.966Z" transform="translate(-682.793 -39.094)"/>
        <path id="Path_6452" data-name="Path 6452" d="M776.1,75.131a7.737,7.737,0,1,1-12.524,3.754A7.738,7.738,0,0,1,776.1,75.131Zm.3,10.918a7.381,7.381,0,1,0-12.737-4.823A7.386,7.386,0,0,0,776.4,86.05Z" transform="translate(-712.829 -69.145)"/>
        <path id="Path_6453" data-name="Path 6453" d="M805.211,114.227a5.574,5.574,0,1,1-2.819-9.036,5.589,5.589,0,0,1,2.819,9.036Zm-8.2-.271a5.214,5.214,0,1,0,2.177-8.252A5.22,5.22,0,0,0,797.016,113.956Z" transform="translate(-742.785 -98.764)"/>
        <path id="Path_6454" data-name="Path 6454" d="M833.877,138.573a3.4,3.4,0,1,1-5.385.475A3.4,3.4,0,0,1,833.877,138.573Zm-.393.1a3.052,3.052,0,1,0-3.134,5.082,3.043,3.043,0,0,0,3.134-5.082Z" transform="translate(-773.155 -129.051)"/>
        <path id="Path_6455" data-name="Path 6455" d="M860.118,169.944a1.22,1.22,0,0,1,1.733,1.716A1.22,1.22,0,1,1,860.118,169.944Zm.659-.013a.886.886,0,0,0,.027,1.727A.886.886,0,1,0,860.776,169.93Z" transform="translate(-802.772 -158.97)"/>
      </g>
    </g>
  </g>
</svg>
