<svg width="147" height="38" viewBox="0 0 147 38" fill="none" xmlns="http://www.w3.org/2000/svg">
<g clip-path="url(#clip0_2306_135)">
<path d="M17.168 28.3199C17.0712 28.5902 16.8138 29.0109 16.903 29.1065C18.0497 30.3279 17.3694 31.7404 17.4955 33.2371L16.2214 33.158L15.5984 32.3625L15.2735 31.1285C15.9704 31.0074 16.1335 30.7115 15.5844 30.1812L15.2455 27.9681V26.5478H14.969C14.9317 26.8139 14.8943 27.0799 14.8569 27.3459H14.3217C14.3217 26.717 14.3217 26.0876 14.3217 25.4579C14.8314 24.5094 14.7766 24.387 13.751 24.1894L13.6618 23.5519L13.407 22.2477C13.407 21.9826 13.4032 21.7174 13.3955 21.4522C13.4974 21.4359 13.5964 21.4055 13.6898 21.3617L13.7026 21.3745L14.0084 21.6842C14.7078 21.6664 15.5232 21.8423 15.578 20.7446L16.215 20.1659L18.1045 19.1816C18.9098 19.6559 19.4907 20.5725 20.6004 20.4399C20.6221 20.7956 20.645 21.1514 20.6641 21.4739L21.8694 22.0029C21.97 22.7271 21.6528 23.0343 20.9355 22.9425L19.4168 21.7148L15.6405 23.2676C15.5933 24.0937 15.6978 24.9186 16.8445 25.1455L16.2304 26.1539L17.7758 26.7811L17.1706 28.3237L17.168 28.3199ZM18.6536 20.9346C18.5391 20.8918 18.4189 20.866 18.2969 20.8581C18.2562 20.8581 18.2255 21.0111 18.1898 21.0927C18.2973 21.1467 18.41 21.1894 18.5262 21.2202C18.5794 21.1301 18.6222 21.0343 18.6536 20.9346Z" fill="#383738"/>
<path d="M9.94056 34.3028C9.02068 35.7982 7.98998 34.6164 6.93505 34.48L6.57446 32.6862L7.60012 33.6551V32.0769H6.56299L6.7885 30.176C6.75792 29.7502 6.72736 29.3257 6.68659 28.7533L8.14924 28.1031L8.94169 25.1084C8.68687 24.522 7.83324 23.8336 8.66139 22.9411L9.74564 23.2599L10.0004 22.9373L9.27677 21.9901C9.28187 21.7819 9.28656 21.5741 9.29081 21.3667L10.2247 21.6701L10.8413 22.3139L11.1726 22.9399L11.4886 23.571C11.2796 23.7928 10.9598 23.984 10.8872 24.244C10.8244 24.6446 10.8128 25.0516 10.8528 25.4552L9.93931 25.9332L10.8566 26.4037L11.1841 25.4577H12.4276L13.0646 26.3973C13.2532 27.5651 12.2339 27.8265 11.472 28.2918L12.4365 28.9215C12.4365 29.0248 12.4365 29.1281 12.4365 29.2314L10.6005 28.8706L10.7993 27.713L9.90743 27.6632L9.42075 26.623L9.05511 26.7212L9.89472 31.7747C9.91 32.6161 9.92487 33.4579 9.93931 34.3002L9.94056 34.3028Z" fill="#484749"/>
<path d="M12.4413 28.923L11.4769 28.2932C12.2413 27.8279 13.2606 27.5665 13.0695 26.3987C13.7791 26.4179 13.681 25.8965 13.7065 25.4541H14.3282C14.3282 26.083 14.3282 26.7123 14.3282 27.3421C13.7791 28.4449 14.3282 29.4291 14.6761 30.4312C14.6926 30.4796 14.8672 30.4732 14.9678 30.4923L15.2762 31.1298L15.6011 32.3639C15.2481 32.7604 14.6951 33.1097 14.5817 33.5648C14.335 34.3791 13.9157 35.1304 13.3523 35.7677L12.1215 35.8264L10.7812 35.5714L10.1837 34.2966C11.0513 33.4615 10.3111 32.5997 10.2257 31.7468L9.90723 27.6672L10.799 27.7169L10.6003 28.8746L12.4362 29.2354L12.054 31.1935L12.6159 31.8998C12.8287 31.4767 13.0073 31.0371 13.1497 30.5854C13.3115 29.888 13.3485 29.1831 12.4362 28.9281L12.4413 28.923Z" fill="#4D4D4F"/>
<path d="M10.2334 21.6675L9.29945 21.3641L5.06952 20.3837L3.98146 21.6854C3.92925 21.342 3.9173 20.9938 3.94581 20.6477C4.00124 20.4694 4.02067 20.2818 4.00304 20.096C3.98541 19.9101 3.93104 19.7296 3.84308 19.565C3.75512 19.4003 3.63532 19.2548 3.49066 19.1369C3.346 19.0189 3.17937 18.931 3.00044 18.8781C2.97279 18.6342 2.89676 18.3981 2.77679 18.184C2.65682 17.9698 2.49535 17.7818 2.30181 17.6309C2.10828 17.48 1.88655 17.3692 1.64969 17.3052C1.41283 17.2411 1.16557 17.225 0.922409 17.2578L0.495605 16.0161C0.620192 16.032 0.746745 16.0193 0.86572 15.979C0.984695 15.9388 1.09297 15.872 1.18233 15.7836C1.27169 15.6953 1.33981 15.5878 1.38152 15.4693C1.42324 15.3507 1.43747 15.2242 1.42313 15.0994C1.51996 15.0994 1.61806 15.0994 1.71489 15.0994H1.72889L2.04617 15.4028L3.36227 16.3118L4.26432 16.9607C4.33949 17.2475 4.34586 17.7359 4.50002 17.7894C5.50527 18.1298 6.53854 18.3771 7.57564 18.6359C7.63024 18.5078 7.67745 18.3767 7.71705 18.2432L9.567 18.4702L9.44724 20H10.9608L10.5786 16.3131C11.6603 16.4316 10.8921 17.7447 11.6896 18.0367L12.4375 17.9092L12.7114 18.4638C12.6265 19.1667 12.5415 19.8695 12.4566 20.5724L12.0846 20.6897L11.4577 21.0327L10.2372 21.6701L10.2334 21.6675Z" fill="#4D4D4F"/>
<path d="M16.8408 25.1429C15.6942 24.916 15.5897 24.0924 15.6368 23.265L19.4132 21.7122L20.9319 22.9399L22.1907 27.3458C22.2926 28.6028 22.3946 29.8599 22.4965 31.1169C21.1956 31.4254 20.695 31.2533 20.3917 30.3137C20.3193 29.9577 20.2881 29.5945 20.2987 29.2313C20.4784 29.1485 20.8083 29.0822 20.8083 28.9764C21.0339 27.8538 21.0047 26.695 20.7229 25.5852H20.3127C20.3059 26.3799 20.2991 27.175 20.2924 27.9705L19.5954 27.6557C19.5662 27.5722 19.542 27.487 19.5228 27.4007C19.5246 27.3533 19.535 27.3066 19.5534 27.2629C19.9649 26.1398 19.1622 25.4208 18.8551 24.7132L16.8408 25.1429Z" fill="#353334"/>
<path d="M8.66268 22.9387C7.83453 23.8375 8.69067 24.5208 8.94294 25.106L8.15049 28.0994L6.68784 28.7495C6.72862 29.3232 6.75921 29.7478 6.78979 30.1736C6.03761 29.7526 5.3931 29.163 4.90679 28.451C4.42049 27.739 4.10559 26.924 3.98682 26.0698C5.13348 25.7931 5.3883 24.6241 6.08522 23.9025C6.84966 23.1159 7.44719 22.1725 8.64865 22.0017C8.64865 22.3128 8.65121 22.6242 8.6563 22.9362L8.66268 22.9387Z" fill="#68696B"/>
<path d="M18.5149 8.42423C19.3812 9.57161 20.3381 10.6706 21.0898 11.8932C21.8415 13.1158 22.3728 14.4429 23.0009 15.728L22.1906 15.6961L21.8644 15.3837L21.5536 15.7037L20.9344 16.0071H20.3152C19.8654 15.5622 19.5673 14.8598 18.7353 15.0548C18.7353 14.3307 18.7396 13.6083 18.7481 12.8876H20.2132L20.3878 12.4668C20.1126 12.1902 19.7762 11.6407 19.5724 11.6866C19.3129 11.7745 19.0309 11.769 18.775 11.671C18.5191 11.573 18.3055 11.3887 18.1709 11.1499C18.0282 10.9574 17.5033 11.0479 17.1517 11.0084L16.5146 10.028V7.86072L16.8472 7.85181L17.4218 8.79648L17.5772 9.53717L17.7785 9.51426V8.80415L18.5174 8.43824L18.5149 8.42423ZM20.5534 14.1943L20.398 13.9074C20.2895 13.9646 20.1882 14.0343 20.096 14.1152C20.0769 14.1356 20.1839 14.3358 20.2132 14.3307C20.3319 14.2996 20.4462 14.2538 20.5534 14.1943Z" fill="#5C5D5F"/>
<path d="M8.65474 22.0041C7.45202 22.1762 6.85576 23.1197 6.09132 23.905C5.39185 24.6253 5.14086 25.793 3.99292 26.0722C3.99292 24.6103 3.98909 23.1485 3.98145 21.6866L5.06951 20.385L9.29944 21.3654C9.29434 21.5737 9.28965 21.7814 9.2854 21.9888L8.65474 22.0041Z" fill="#383738"/>
<path d="M25.6303 29.5463L25.3641 33.0024L25.0022 33.5901L24.6506 33.868L23.1484 33.3338L22.8134 33.3198L22.4961 32.6939C22.4961 32.5881 22.4961 32.4835 22.4961 32.3777C23.4389 32.2285 23.2121 31.3744 23.4478 30.7982L23.9753 30.5687L23.4478 30.1862C23.3981 29.9083 23.2058 29.4901 23.3205 29.3754C23.647 28.9598 23.8826 28.4801 24.0119 27.9675C24.1411 27.4548 24.1612 26.9208 24.0709 26.3999C24.062 25.7063 24.5512 25.7624 25.0073 25.7802C25.0073 26.753 25.02 27.727 25.0073 28.6997C25.0073 29.1472 25.0506 29.5322 25.624 29.5449L25.6303 29.5463Z" fill="#515153"/>
<path d="M25.0102 25.7804C24.554 25.769 24.0635 25.7065 24.0737 26.4L22.1919 27.346L20.9331 22.9401C21.6517 23.0331 21.969 22.7259 21.867 22.0005H22.1842L22.7945 22.3345L23.6036 23.705L23.7782 22.9401L24.9757 23.2562C24.9927 23.4653 25.0097 23.674 25.0267 23.8822C24.2164 24.5082 25.0853 25.1507 25.0088 25.7843L25.0102 25.7804Z" fill="#454546"/>
<path d="M10.7812 35.575L12.1216 35.83C12.272 36.182 12.525 36.4806 12.8475 36.6866C13.17 36.8927 13.547 36.9966 13.9295 36.985C14.0811 36.3476 14.0569 35.8963 13.3523 35.7714C13.9156 35.134 14.335 34.3826 14.5819 33.5684C14.6914 33.1133 15.2444 32.764 15.6011 32.3662L16.2241 33.1617C15.1182 33.562 14.8583 34.0376 15.0061 35.2385C15.0966 35.983 15.117 36.7352 15.1628 37.3904C12.7319 38.6322 11.3036 37.9718 10.7851 35.5725L10.7812 35.575Z" fill="#646567"/>
<path d="M7.14399 2.8084L8.88818 1.14087L10.282 1.65083C10.1927 1.91848 10.2016 2.2092 10.3072 2.47087C10.4127 2.73253 10.6079 2.94802 10.8579 3.07867L9.51631 3.60009L11.7956 4.98716L11.8173 5.30969C11.8173 5.52302 11.8139 5.7355 11.8071 5.94713L10.6935 5.95732L10.2451 5.6386L8.97099 5.32244C8.87256 5.31632 8.77385 5.31632 8.67542 5.32244H8.35433L8.21035 4.55753L9.12644 4.01187L7.14014 2.81478L7.14399 2.8084Z" fill="#646567"/>
<path d="M1.0281 12.5076C2.59266 10.6335 4.80828 10.3071 7.02516 9.97949C7.04725 10.209 7.06933 10.438 7.09142 10.6666L6.74234 13.1986L4.89111 13.1845L4.27192 12.57L5.19434 12.5458L6.07217 12.1837C5.23383 11.6738 4.71783 11.0976 4.24898 12.2207C4.1445 12.2207 4.04003 12.2297 3.93555 12.2309C3.45268 12.3138 2.74937 11.9645 2.68057 12.8684H2.06266L1.02686 12.5037L1.0281 12.5076Z" fill="#87888B"/>
<path d="M16.8395 25.143L18.8602 24.7083C19.1673 25.4209 19.9699 26.1399 19.5584 27.258C19.3494 27.2491 19.0972 27.1598 18.9392 27.244C18.3315 27.5703 17.7543 27.9528 17.1644 28.3148L17.7696 26.7722L16.2241 26.145L16.8382 25.1366L16.8395 25.143Z" fill="#3E3D3E"/>
<path d="M15.4966 2.78808L15.6775 3.64098L15.2596 5.00765C14.4417 5.01657 14.2786 5.55455 14.2812 6.22513L13.3893 6.25192L12.7522 6.26975C12.7522 5.95444 12.7544 5.63913 12.7586 5.32382L13.8327 5.01274L12.7548 3.74807C12.7548 3.63843 12.7548 3.5288 12.7548 3.41916L12.7446 3.38346C13.4759 3.46378 14.1181 3.38346 14.3117 2.50635L15.4966 2.78808Z" fill="#666669"/>
<path d="M10.283 1.65211L8.88916 1.14217C10.8372 -0.285684 12.1215 -0.362192 13.7549 0.851483L12.7636 0.935636C12.5814 1.09372 12.2221 1.29005 12.2464 1.40223C12.3788 1.88462 12.5461 2.35672 12.7471 2.81479C12.7471 3.00432 12.7437 3.19385 12.7369 3.38338L12.7471 3.41908L12.147 3.11565C11.9737 2.05623 11.4959 1.38566 10.283 1.65211Z" fill="#939497"/>
<path d="M22.4961 32.3778C22.4961 32.4832 22.4961 32.5886 22.4961 32.694L21.8731 33.0089C21.5943 32.6034 21.2852 32.2198 20.9481 31.8615C20.808 31.734 20.4742 31.8041 20.2295 31.785L19.604 27.6621L20.3009 27.9769V29.2352C20.29 29.5984 20.3212 29.9616 20.3939 30.3176C20.6972 31.2584 21.1966 31.4293 22.4987 31.1208C22.4987 31.5406 22.4987 31.9605 22.4987 32.3804L22.4961 32.3778Z" fill="#3E3D3E"/>
<path d="M17.4229 8.78256L16.8469 7.83788C16.7195 7.07296 16.6508 7.01433 16.1883 7.22469C15.8573 7.03167 15.5968 6.73762 15.445 6.38568C15.2932 6.03374 15.2582 5.64241 15.3449 5.26904L16.8279 5.63748L18.5173 8.42307L17.7783 8.78894L17.4216 8.78127L17.4229 8.78256Z" fill="#606163"/>
<path d="M25.3157 35.482C23.9477 35.7504 22.5311 35.6149 21.2387 35.092L20.71 33.6335H22.184H22.5026L23.1052 33.9612L23.4619 34.5744L22.7421 34.6075L22.7141 34.8217L25.317 35.4757L25.3157 35.482Z" fill="#4D4D4F"/>
<path d="M7.09164 10.6681L7.02539 9.98091C7.05218 9.89438 7.09545 9.81386 7.15281 9.74377L8.04467 9.10634L9.00023 8.81567C9.00023 9.42506 9.00023 10.034 9.00023 10.6425L8.94288 11.744L8.05105 11.6064L7.08402 10.6757L7.09164 10.6681Z" fill="#373537"/>
<path d="M23.2569 16.6243L23.4544 17.8991L23.1308 18.8527L21.2566 18.5519C21.2566 18.2306 21.2524 17.9093 21.2439 17.588L21.4656 17.3496L21.2325 17.2719L21.2439 17.2833L20.9165 16.9519L21.2082 16.6459H21.6045L23.2569 16.6243Z" fill="#424142"/>
<path d="M25.0099 25.7817C25.0863 25.1443 24.2174 24.5069 25.0278 23.8796C25.6348 25.703 25.8408 27.636 25.6317 29.5464C25.0571 29.5336 25.0111 29.1486 25.0137 28.7012C25.0264 27.7272 25.0124 26.7481 25.0099 25.7817Z" fill="#424142"/>
<path d="M12.7637 0.934476L13.7549 0.850342C14.5589 1.29527 15.3615 1.74276 15.4978 2.78815L14.304 2.50513L13.3828 2.49748L12.7637 0.934476Z" fill="#515153"/>
<path d="M8.0447 9.10009L7.15283 9.74386L7.94784 5.36216L8.35812 5.32007H8.67917C8.67407 5.63199 8.66942 5.94392 8.66517 6.25583C8.11492 7.09491 7.89394 8.10789 8.0447 9.10009Z" fill="#666669"/>
<path d="M8.35924 5.32138L7.949 5.36346C7.52842 5.10862 7.2149 4.70934 7.06697 4.24015C6.91903 3.77096 6.94677 3.26393 7.14504 2.81372L9.13135 4.01082L8.2153 4.55645C8.26499 4.8229 8.3121 5.07406 8.35924 5.32138Z" fill="#515153"/>
<path d="M1.02811 12.5077L2.06391 12.8723C1.35425 13.5199 1.58997 14.318 1.71483 15.0969C1.618 15.0969 1.5199 15.0969 1.42307 15.0969L1.11983 14.7552C1.13363 14.6263 1.11818 14.4958 1.07457 14.3736C1.03096 14.2514 0.960342 14.1407 0.867992 14.0497C0.775641 13.9586 0.663919 13.8896 0.541192 13.8477C0.418464 13.8059 0.28788 13.7923 0.15918 13.808L1.02939 12.5051L1.02811 12.5077Z" fill="#727375"/>
<path d="M23.573 19.4837L24.6674 21.9978H23.7666C23.6817 21.9927 23.5968 21.9842 23.5118 21.9723L23.1079 20.1416L23.1398 19.7986L23.4456 19.5232L23.573 19.4761V19.4837Z" fill="#454546"/>
<path d="M22.1819 33.6374H20.7141L20.2363 31.7863C20.4822 31.8054 20.8161 31.7315 20.9549 31.8628C21.2921 32.2211 21.6013 32.6047 21.8799 33.0102L22.1882 33.6349L22.1819 33.6374Z" fill="#424142"/>
<path d="M25.3158 35.4822L22.7129 34.8282L22.7409 34.6139L23.4607 34.5808L24.0634 34.5923C24.6138 34.9875 25.1349 35.2616 25.3375 34.2748V33.9561L25.9745 33.9485C26.4243 34.7466 25.9961 35.1685 25.317 35.4783L25.3158 35.4822Z" fill="#5C5D5F"/>
<path d="M16.8281 5.63881L15.345 5.27038C15.3145 5.18538 15.2882 5.09785 15.2661 5.00776L15.6789 3.64111L16.8281 5.63881Z" fill="#87888B"/>
<path d="M0.921254 17.258C1.16442 17.2252 1.41167 17.2413 1.64853 17.3054C1.88539 17.3694 2.10712 17.4802 2.30066 17.6311C2.49419 17.782 2.65567 17.9701 2.77563 18.1843C2.8956 18.3984 2.97164 18.6344 2.99928 18.8783L0.842285 17.5232C0.850233 17.4303 0.877093 17.34 0.921254 17.258Z" fill="#5C5D5F"/>
<path d="M1.11866 14.7565L1.4219 15.0982C1.43624 15.223 1.42202 15.3495 1.3803 15.468C1.33858 15.5865 1.27043 15.694 1.18107 15.7824C1.09171 15.8707 0.983469 15.9375 0.864494 15.9777C0.745519 16.018 0.618927 16.0307 0.494341 16.0148L0 15.6323L0.063727 14.3867L1.11866 14.7501V14.7565Z" fill="#424142"/>
<path d="M10.2272 31.7429C10.31 32.5945 11.0527 33.4563 10.1851 34.2927L10.0641 34.3246L9.93665 34.3029C9.92136 33.4614 9.90653 32.6196 9.89209 31.7773L10.2272 31.7429Z" fill="#68696B"/>
<path d="M6.56396 32.0757H7.60105V33.6553L6.57543 32.6864C6.57119 32.4824 6.56736 32.2788 6.56396 32.0757Z" fill="#353334"/>
<path d="M23.7651 21.9952H24.6659L24.9755 23.2522L23.7779 22.9361C23.7736 22.6216 23.7694 22.3071 23.7651 21.9927V21.9952Z" fill="#424142"/>
<path d="M23.2581 16.623L21.6018 16.6486C21.5878 16.5364 21.575 16.4254 21.5623 16.3145C21.5496 16.2036 21.5623 16.1245 21.5623 16.0302C21.5623 15.9359 21.5623 15.8122 21.5623 15.7026L21.8732 15.3826L22.1993 15.6949L23.0173 15.9984L23.2619 16.6243L23.2581 16.623Z" fill="#49494B"/>
<path d="M0 15.6387L0.494341 16.0211L0.921183 17.2628C0.877089 17.3449 0.850195 17.4352 0.842176 17.528L0 15.6387Z" fill="#87888B"/>
<path d="M23.5768 19.4825L23.5692 19.4736L23.1348 18.854L23.4597 17.9004L23.5781 19.4812L23.5768 19.4825Z" fill="#49494B"/>
<path d="M25.9719 33.9471L25.3348 33.9547L25.001 33.5914L25.3628 33.0037L25.9706 33.9483L25.9719 33.9471Z" fill="#7E7F82"/>
<path d="M1.1189 14.758L0.0639648 14.3946L0.158214 13.812C0.286796 13.7963 0.417291 13.8098 0.539915 13.8516C0.662538 13.8934 0.774156 13.9623 0.866482 14.0532C0.958807 14.1441 1.02944 14.2547 1.07314 14.3767C1.11684 14.4987 1.1325 14.6291 1.1189 14.758Z" fill="#59595B"/>
<path d="M23.0099 15.9982L22.1919 15.6948L23.0023 15.7266C23.0182 15.8163 23.0208 15.9078 23.0099 15.9982Z" fill="#424142"/>
<path d="M12.4517 20.5751C12.5366 19.8723 12.6216 19.1694 12.7065 18.4665L12.7752 17.9246L13.0696 17.2745L12.8249 16.9609L12.7906 16.9035L13.0721 16.3336L12.7664 15.0728C14.1385 15.1926 14.6622 15.6873 14.9437 17.1738C15.0253 17.6034 14.8036 18.1796 15.5451 18.2217L15.6037 18.8426C15.3629 19.0991 15.2273 19.4367 15.2238 19.7886C15.2202 20.1405 15.349 20.4808 15.5846 20.7421C15.5298 21.8398 14.7144 21.6639 14.0149 21.6817L13.7092 21.3732L13.6964 21.3604C13.7079 21.0519 13.778 20.6708 13.2683 21.0226L12.9039 21.0353L12.4542 20.5764L12.4517 20.5751Z" fill="#353334"/>
<path d="M10.2335 21.6714L11.4541 21.0339L12.0796 21.4011L12.853 21.6866L13.1078 22.2386C12.5485 23.2432 12.6147 23.3988 13.6696 23.5492L13.7576 24.1866C13.7406 24.6116 13.7237 25.0328 13.7067 25.4501C13.685 25.8924 13.7844 26.4151 13.0696 26.3947L12.4326 25.4551L13.0237 24.7999C12.4058 24.448 12.4988 23.3478 11.4948 23.5671L11.1789 22.936C11.3509 22.5778 11.4655 22.2501 10.8476 22.31L10.231 21.6662L10.2335 21.6714Z" fill="#606163"/>
<path d="M18.1035 19.1802L18.8909 18.5173L20.6198 19.1688V20.4194L20.6006 20.4385C19.4909 20.566 18.9075 19.6545 18.1035 19.1802Z" fill="#515153"/>
<path d="M14.9639 30.4974C14.8633 30.4783 14.6887 30.4847 14.6722 30.4362C14.3269 29.4342 13.7803 28.45 14.3243 27.3459H14.8594L14.9869 27.9681C14.9818 28.8129 14.9762 29.6573 14.9703 30.5012L14.9639 30.4974Z" fill="#3E3D3E"/>
<path d="M15.5998 18.8438L16.2139 20.1645L15.5768 20.7433C15.3418 20.4815 15.2136 20.141 15.2179 19.7891C15.2221 19.4372 15.3585 19.0997 15.5998 18.8438Z" fill="#3F3D3F"/>
<path d="M14.9639 30.4961C14.9699 29.6512 14.9754 28.8069 14.9805 27.9629L15.108 27.9731L15.2353 27.9655L15.5742 30.1786L15.2634 31.1259L14.9551 30.4884L14.9639 30.4961Z" fill="#78797C"/>
<path d="M22.1844 21.9979H21.8672L20.6619 21.4689C20.6415 21.1463 20.6198 20.7906 20.5981 20.4349L20.6173 20.4158L22.1831 21.9954L22.1844 21.9979Z" fill="#515153"/>
<path d="M13.7026 25.4528C13.7196 25.0278 13.7367 24.6068 13.7536 24.1895C14.7793 24.3871 14.8353 24.5094 14.3244 25.4579H13.7026V25.4528Z" fill="#3E3D3E"/>
<path d="M13.663 23.5518C12.6081 23.4014 12.5418 23.2458 13.1011 22.2412L13.254 22.268L13.4069 22.2476L13.6617 23.5518H13.663Z" fill="#7E7F82"/>
<path d="M13.4136 22.2451L13.2607 22.2655L13.1078 22.2388L12.853 21.6868C12.8692 21.4692 12.8853 21.2516 12.9014 21.034L13.2658 21.0212L13.3932 21.4496C13.4 21.7165 13.4068 21.9817 13.4136 22.2451Z" fill="#4A4A4C"/>
<path d="M15.247 27.9655L15.1196 27.9731L14.9921 27.9629L14.8647 27.3408C14.9021 27.0748 14.9395 26.8087 14.9769 26.5427H15.2533V27.9591L15.247 27.9655Z" fill="#939497"/>
<path d="M15.2749 31.1259L15.5858 30.1787C16.1349 30.7091 15.9718 31.0061 15.2749 31.1259Z" fill="#4D4D4F"/>
<path d="M18.6536 20.9346C18.6222 21.0344 18.5794 21.1302 18.5263 21.2202C18.41 21.1895 18.2973 21.1468 18.1899 21.0927C18.2256 21.0098 18.2562 20.8607 18.2969 20.8582C18.419 20.8659 18.5392 20.8916 18.6536 20.9346Z" fill="#49494B"/>
<path d="M13.398 21.4496L13.2705 21.0212C13.7801 20.6694 13.7101 21.0506 13.6987 21.3591C13.6032 21.4034 13.502 21.4338 13.398 21.4496Z" fill="#606163"/>
<path d="M11.4974 23.5684C12.5026 23.3492 12.4083 24.4494 13.0262 24.8012L12.4351 25.4578H10.8692C10.8293 25.0542 10.8413 24.6472 10.9049 24.2467C10.9686 23.9815 11.2884 23.7903 11.4974 23.5684Z" fill="#4A4A4C"/>
<path d="M10.227 31.7443L9.89584 31.7787L9.05615 26.7252L9.42187 26.627L9.90852 27.6673L10.227 31.7443Z" fill="#7E7F82"/>
<path d="M12.4413 28.923C13.3548 29.178 13.3166 29.8868 13.1548 30.5803C13.0122 31.032 12.8338 31.4715 12.621 31.8947L12.0591 31.1885L12.4413 29.2303C12.4413 29.1266 12.4413 29.0232 12.4413 28.9204V28.923Z" fill="#59595B"/>
<path d="M8.65479 22.0053L9.28412 21.9888L10.0078 22.936L9.75304 23.2586L8.66878 22.9399C8.66878 22.6288 8.66579 22.3173 8.65984 22.0053H8.65479Z" fill="#4A4A4C"/>
<path d="M10.8655 26.4025L9.94824 25.9322L10.8605 25.4541L10.8655 26.4025Z" fill="#4A4A4C"/>
<path d="M10.8501 22.3128C11.468 22.2529 11.3597 22.5792 11.1814 22.9387L10.8501 22.3128Z" fill="#727375"/>
<path d="M10.864 26.4025V25.4565H11.1902L10.864 26.4025Z" fill="#5C5D5F"/>
<path d="M13.3523 35.7664C14.0607 35.8938 14.0811 36.345 13.9295 36.9799C13.547 36.9917 13.1699 36.8878 12.8473 36.6817C12.5248 36.4757 12.2719 36.177 12.1216 35.8249L13.3523 35.7664Z" fill="#87888B"/>
<path d="M9.56592 18.4703L7.71597 18.2434L4.58301 16.9596H5.33342L4.89134 16.0137C4.89134 15.802 4.89134 15.5895 4.89134 15.3762L5.46978 15.4399L7.08018 16.3655L8.11218 17.8954L8.35173 16.9418L9.26778 17.0476L9.56592 18.4615V18.4703Z" fill="#8E9093"/>
<path d="M9.56475 18.4701L9.2666 17.0563C9.27849 16.3925 9.29033 15.7287 9.30222 15.0649L10.2693 15.0751L10.5712 16.3106L10.9534 19.9974H9.44491C9.48696 19.462 9.52652 18.966 9.56475 18.4676V18.4701Z" fill="#3F3E40"/>
<path d="M10.571 16.3119L10.269 15.0766L10.8258 14.7566C11.4399 15.0664 11.3354 16.303 12.4235 15.9996L12.4617 16.345L12.7879 16.9047L12.8223 16.9621L13.0669 17.2757L12.7726 17.9259L12.4299 17.9119L11.682 18.0394C10.8844 17.7474 11.6527 16.4343 10.571 16.3158V16.3119Z" fill="#666669"/>
<path d="M1.71367 15.097C1.58626 14.318 1.35309 13.5199 2.06274 12.8723H2.68065L3.62093 13.2101C3.45194 13.2368 3.29086 13.3001 3.14898 13.3958C3.0071 13.4914 2.88788 13.6169 2.79971 13.7636C2.71153 13.9103 2.65654 14.0745 2.63862 14.2448C2.6207 14.415 2.64028 14.5871 2.69597 14.7489C2.11499 15.3506 2.65264 15.3315 3.05143 15.3863L3.65024 15.6324L3.35976 16.3106L2.0449 15.4017L1.72766 15.0995H1.71367V15.097Z" fill="#939497"/>
<path d="M4.58148 16.9583L7.71445 18.2421C7.67461 18.3755 7.6274 18.5065 7.57303 18.6347C6.54103 18.3797 5.50266 18.1248 4.49742 17.7882C4.34326 17.7359 4.33689 17.2476 4.26172 16.9595L4.58148 16.9583Z" fill="#3F3E40"/>
<path d="M4.58266 16.9583H4.26285L3.36084 16.3094L3.65132 15.6311L4.89099 16.0136L5.33311 16.9596H4.58266V16.9583Z" fill="#9B9DA0"/>
<path d="M12.9014 21.034C12.8853 21.2515 12.8691 21.4691 12.8529 21.6866L12.0796 21.4011C12.0796 21.1648 12.0796 20.9286 12.0796 20.6923L12.4516 20.575L12.9014 21.034Z" fill="#9B9DA0"/>
<path d="M12.0782 20.6925C12.0782 20.9288 12.0782 21.165 12.0782 21.4013L11.4526 21.0342L12.0795 20.6912L12.0782 20.6925Z" fill="#7E7F82"/>
<path d="M12.4297 17.9119L12.7724 17.9259C12.7495 18.1061 12.7265 18.2866 12.7036 18.4677L12.4297 17.9119Z" fill="#7E7F82"/>
<path d="M22.4986 32.3777C22.4986 31.9578 22.4986 31.538 22.4986 31.1182C22.3967 29.8611 22.2948 28.6041 22.1929 27.3471L24.0747 26.4011C24.165 26.922 24.1449 27.4561 24.0156 27.9687C23.8864 28.4813 23.6508 28.961 23.3242 29.3766C23.2109 29.4914 23.4019 29.9096 23.4516 30.1862V30.7994C23.2146 31.3744 23.4415 32.2298 22.4986 32.3777Z" fill="#49494B"/>
<path d="M20.2998 29.2315V27.9732C20.3066 27.1785 20.3135 26.3834 20.3203 25.5879H20.7305C21.0122 26.6976 21.0414 27.8566 20.8158 28.9791C20.8044 29.0798 20.4807 29.1461 20.3062 29.2341L20.2998 29.2315Z" fill="#3F3E40"/>
<path d="M18.4131 16.9621L17.8041 15.4884C17.1505 15.2959 16.4854 14.786 15.5413 15.4884V18.2217C14.8011 18.1809 15.0215 17.6034 14.9399 17.1738C14.6584 15.6873 14.1347 15.1926 12.7626 15.0728L12.5077 15.0601C12.478 14.9564 12.4483 14.8522 12.4186 14.7477L12.1523 12.8507C12.1648 12.762 12.1721 12.6726 12.174 12.583C13.2888 11.9239 12.7995 10.9537 12.4759 10.1977C12.0567 9.21986 11.9141 8.16685 11.4771 7.20687L13.7207 7.55617L13.8137 7.8787L14.0201 9.40856C13.4225 10.0753 13.9284 10.5355 14.3208 11.0162C14.3335 11.6982 14.8368 11.6064 15.2725 11.6204L15.828 12.8953C16.8001 12.3063 16.1898 11.7977 15.898 11.2941L15.5885 10.6656L14.7247 9.05413L14.0009 7.84046C14.0246 7.74027 14.0246 7.63597 14.0009 7.53579C14.0009 7.21537 14.0009 6.89495 14.0009 6.57454L14.2915 6.22139C14.2915 5.55081 14.452 5.01411 15.27 5.00391C15.2916 5.09279 15.318 5.18045 15.349 5.26652C15.2623 5.63989 15.2974 6.03122 15.4492 6.38316C15.601 6.7351 15.8614 7.02914 16.1924 7.22216L16.5185 7.84431V10.0116L17.1619 10.992C17.6792 11.6294 17.5773 12.7933 18.7545 12.8711C18.7545 13.5952 18.7503 14.3176 18.7418 15.0384L18.7316 15.0588L18.0526 14.8803L18.4169 15.6886L19.5126 16.8053L18.4156 16.9456L18.4131 16.9621ZM13.699 14.4443C13.7971 14.5527 13.7474 14.4991 13.699 14.4443C13.8047 14.5386 13.7499 14.4902 13.699 14.4443L13.6047 13.9981L13.4136 14.0963L13.7003 14.4443H13.699Z" fill="#3F3D3F"/>
<path d="M18.4128 16.9596L19.5099 16.8194L18.4141 15.7026L18.7288 15.0715L18.739 15.0511C19.5722 14.8599 19.8691 15.5611 20.3188 16.0035L19.7468 16.9532H20.9125L21.24 17.2847L21.2286 17.2732C21.2286 17.3777 21.2362 17.4836 21.2388 17.5881C21.2388 17.9094 21.243 18.2306 21.2515 18.5519L20.6145 19.1664L18.8855 18.5149L18.4077 16.9596H18.4128Z" fill="#373537"/>
<path d="M18.7508 12.8799C17.5736 12.8021 17.6755 11.6394 17.1582 11.0007C17.5086 11.039 18.0335 10.9485 18.1774 11.1423C18.3122 11.3809 18.5259 11.5651 18.7817 11.663C19.0375 11.761 19.3195 11.7666 19.579 11.679C19.7828 11.6344 20.1191 12.1889 20.3943 12.4592L20.2198 12.8799H18.7546H18.7508Z" fill="#424142"/>
<path d="M20.9129 16.9569H19.7471L20.3192 16.0059H20.9371L21.5614 16.0301C21.5614 16.1252 21.5614 16.22 21.5614 16.3144L21.2047 16.6497L20.9129 16.9569Z" fill="#4A4A4C"/>
<path d="M16.5147 7.852L16.1885 7.22986C16.651 7.01823 16.7198 7.08196 16.8472 7.84305L16.5147 7.852Z" fill="#78797C"/>
<path d="M20.5599 14.1931C20.4532 14.2528 20.3393 14.2987 20.221 14.3295C20.1917 14.3295 20.0847 14.1345 20.1038 14.1141C20.1961 14.0333 20.2974 13.9635 20.4058 13.9062L20.5599 14.1931Z" fill="#646567"/>
<path d="M17.4232 8.78247L17.7787 8.79014V9.50021L17.5773 9.52316L17.4219 8.78247H17.4232Z" fill="#78797C"/>
<path d="M21.5623 16.0301L20.938 16.0059L21.5572 15.7024C21.5572 15.8112 21.5572 15.9204 21.5572 16.0301H21.5623Z" fill="#646567"/>
<path d="M24.0619 34.5922L23.4593 34.5807L23.1025 33.9675L23.1484 33.3301L24.6506 33.8643L24.7041 34.2798L24.067 34.5858L24.0619 34.5922Z" fill="#87888B"/>
<path d="M22.1819 33.6349L21.8735 33.0101L22.4966 32.6953L22.8138 33.3212L22.5004 33.6399L22.1819 33.6349Z" fill="#49494B"/>
<path d="M23.4507 30.7994V30.1863L23.9782 30.5687L23.4507 30.7994Z" fill="#68696B"/>
<path d="M22.5 33.6385L22.8134 33.3198L23.1485 33.3338L23.1027 33.9713L22.5 33.6385Z" fill="#5C5D5F"/>
<path d="M24.7054 34.2851C24.6875 34.1461 24.6697 34.0072 24.6519 33.8695L25.0035 33.5916L25.3373 33.9549V34.2736L24.7003 34.2851H24.7054Z" fill="#8E9093"/>
<path d="M20.6182 19.1689L21.2552 18.5544L23.1294 18.8553L23.5638 19.4749L23.4364 19.522L23.1306 19.7974L23.0988 20.1403C22.486 20.1199 22.4618 20.5394 22.5357 20.9601C22.607 21.4025 22.7434 21.8359 22.8529 22.2732L22.7943 22.3331L22.184 21.9991L20.6182 20.4195V19.1689ZM21.7534 19.239C21.7534 19.2888 21.7534 19.3397 21.7534 19.3894H22.5726C22.5726 19.3397 22.5726 19.2888 22.5726 19.239H21.7534Z" fill="#646567"/>
<path d="M23.7651 21.9952C23.7693 22.3096 23.7736 22.6242 23.7778 22.9386L23.602 23.7035L22.793 22.333L22.8515 22.2731L23.5026 21.9697C23.5893 21.9812 23.6758 21.9901 23.7574 21.9952H23.7651Z" fill="#646567"/>
<path d="M13.9971 6.57707C13.9971 6.89748 13.9971 7.2179 13.9971 7.53831C13.9511 7.52146 13.9021 7.51435 13.8532 7.51742C13.8042 7.52049 13.7565 7.53369 13.7129 7.55617L11.4693 7.20687C11.3725 7.20687 11.2757 7.20687 11.1789 7.20687L10.8616 6.57707C10.7726 6.56172 10.6817 6.56172 10.5928 6.57707L10.6896 5.96259L11.8032 5.95239L12.1204 6.26601L12.4452 6.27368C12.5574 6.99015 12.8606 7.12143 13.3842 6.58216H13.992L13.9971 6.57707Z" fill="#515153"/>
<path d="M11.7969 4.99245L9.51758 3.6054L10.8591 3.08398L11.8121 3.11713C11.8376 3.4452 11.8631 3.77327 11.8886 4.10133C11.8572 4.3954 11.8266 4.69244 11.7969 4.99245Z" fill="#87888B"/>
<path d="M11.8119 3.11318L10.8589 3.08003C10.6088 2.94957 10.4134 2.73411 10.3078 2.47238C10.2022 2.21065 10.1934 1.91982 10.283 1.65218C11.4959 1.38446 11.9737 2.05632 12.1482 3.11446H11.8131L11.8119 3.11318Z" fill="#49494B"/>
<path d="M11.7967 4.98855C11.8272 4.69108 11.8578 4.39363 11.8884 4.09616L12.7522 3.74683L13.8301 5.0115L12.756 5.32255L11.817 5.31108L11.7967 4.98855Z" fill="#4D4D4F"/>
<path d="M8.97314 5.32642L10.2472 5.64257L9.90063 6.28L9.28785 5.95109L8.9782 5.33151L8.97314 5.32642Z" fill="#7E7F82"/>
<path d="M11.817 5.31104L12.756 5.32251C12.756 5.63783 12.7539 5.95315 12.7497 6.26847H12.4503L12.1254 6.26081L11.8081 5.94719C11.8107 5.73641 11.8137 5.52436 11.817 5.31104Z" fill="#59595B"/>
<path d="M9.89683 6.27489L10.2433 5.63745L10.6918 5.95617L10.595 6.57065L9.92607 6.55917C9.92012 6.46228 9.90995 6.36583 9.89551 6.26979L9.89683 6.27489Z" fill="#9B9DA0"/>
<path d="M8.9746 5.32376L9.28417 5.94338C9.28417 6.05429 9.29307 6.16648 9.29817 6.27867L8.66113 6.257C8.66538 5.94508 8.67011 5.63315 8.67521 5.32123C8.77364 5.31512 8.87235 5.31512 8.97079 5.32123L8.9746 5.32376Z" fill="#8E9093"/>
<path d="M7.09167 10.668L8.05869 11.5986L7.59367 13.757H6.74512C6.74512 13.5708 6.74512 13.3847 6.74512 13.1986C6.85978 12.3555 6.9753 11.5119 7.09167 10.668Z" fill="#727375"/>
<path d="M3.6224 13.2077L2.68213 12.8699C2.75093 11.9672 3.45292 12.3178 3.93707 12.2324L4.27344 12.5702L4.89263 13.1847C4.89263 13.2918 4.89263 13.3989 4.89263 13.506L4.54098 14.0657L3.94983 14.03L3.6224 13.2077Z" fill="#9B9DA0"/>
<path d="M4.89014 13.5046C4.89014 13.3975 4.89014 13.2904 4.89014 13.1833L6.74137 13.1974C6.74137 13.3835 6.74137 13.5696 6.74137 13.7558C6.0419 13.4307 5.50298 13.9406 4.8978 14.1114C4.8961 13.9109 4.89353 13.7086 4.89014 13.5046Z" fill="#939497"/>
<path d="M4.24902 12.2234C4.71788 11.1002 5.23261 11.6803 6.07222 12.1864L5.19439 12.5485L4.25031 12.2247L4.24902 12.2234Z" fill="#9B9DA0"/>
<path d="M4.25416 12.2234L5.19825 12.5472L4.27582 12.5702L3.93945 12.2323C4.0401 12.2323 4.14459 12.2285 4.25416 12.2234Z" fill="#B4B5B7"/>
<path d="M13.3827 2.49731L14.3039 2.50496C14.1102 3.38462 13.4681 3.46239 12.7368 3.38207C12.7368 3.19254 12.7402 3.00301 12.747 2.81348L13.384 2.49731H13.3827Z" fill="#87888B"/>
<path d="M12.7522 3.7467L11.8885 4.09602C11.863 3.76795 11.8375 3.43988 11.812 3.11182H12.1471L12.7472 3.41524C12.7485 3.52743 12.751 3.63706 12.7522 3.7467Z" fill="#646567"/>
<path d="M12.4492 6.26981H12.7486L13.3856 6.25195C13.3856 6.36159 13.3856 6.47122 13.3856 6.57958C12.8645 7.11757 12.5639 6.98629 12.4492 6.26981Z" fill="#3F3E40"/>
<path d="M13.3892 6.57831C13.3892 6.46867 13.3892 6.35943 13.3892 6.25064L14.281 6.22388L13.9905 6.57703L13.3892 6.57831Z" fill="#4D4D4F"/>
<path d="M13.3831 2.49731L12.746 2.81348C12.5451 2.35541 12.3777 1.88331 12.2453 1.40092C12.2211 1.28874 12.5804 1.09241 12.7626 0.934326L13.3817 2.49731H13.3831Z" fill="#666669"/>
<path d="M4.90151 14.114C5.50542 13.9444 6.04816 13.4332 6.74508 13.7583H7.59363L8.05866 11.5999L8.95052 11.7376L9.00784 10.6361C9.22923 10.3834 9.35132 10.0588 9.35132 9.72269C9.35132 9.38661 9.22923 9.06199 9.00784 8.80926L8.05228 9.09992C7.90249 8.10897 8.12343 7.09757 8.67275 6.25952L9.30979 6.28119C9.43947 6.61187 9.54049 6.95308 9.61174 7.30107C9.83598 9.11393 10.0322 10.9306 10.2412 12.783L11.1254 12.8544C11.1254 13.2794 11.1254 13.7005 11.1254 14.1178L10.8349 14.7552L10.2781 15.0752L9.31107 15.065C9.28177 14.3842 8.79252 14.3983 8.32748 14.4518C7.62808 14.5134 6.9343 14.6277 6.25202 14.7935C5.95644 14.8751 5.73347 15.218 5.47738 15.4424L4.89898 15.3786L3.95361 14.0311L4.54477 14.0668L4.90788 14.114H4.90151Z" fill="#4D4D4F"/>
<path d="M9 8.80933C9.22139 9.06206 9.34348 9.38668 9.34348 9.72276C9.34348 10.0588 9.22139 10.3835 9 10.6362C9.00085 10.0268 9.00085 9.41786 9 8.80933Z" fill="#68696B"/>
<path d="M21.2441 17.5905C21.2441 17.4851 21.2407 17.3802 21.2339 17.2756L21.467 17.3534L21.2453 17.5918L21.2441 17.5905Z" fill="#87888B"/>
<path d="M21.2046 16.6497L21.5613 16.3145C21.574 16.4254 21.5881 16.5375 21.6008 16.6484H21.2046V16.6497Z" fill="#5C5D5F"/>
<path d="M23.5053 21.9698L22.8542 22.2732C22.7459 21.8359 22.6096 21.4038 22.5369 20.9601C22.4694 20.5394 22.4885 20.12 23.1001 20.1404L23.5053 21.9698Z" fill="#8E9093"/>
<path d="M24.7054 34.2864L25.3424 34.2749C25.1348 35.2629 24.6137 34.9876 24.0684 34.5924L24.7054 34.2864Z" fill="#7E7F82"/>
<path d="M12.5038 15.0601L12.7586 15.0728L13.0644 16.3337L12.4566 16.3439L12.4185 15.9984C12.4482 15.6856 12.4766 15.3728 12.5038 15.0601Z" fill="#4D4D4F"/>
<path d="M12.4619 16.3452L13.0696 16.335L12.7881 16.9048L12.4619 16.3452Z" fill="#3F3E40"/>
<path d="M5.46951 15.4424C5.72432 15.218 5.94856 14.8751 6.24414 14.7935C6.92637 14.6274 7.62017 14.5132 8.31961 14.4518C8.78337 14.3983 9.27389 14.383 9.3032 15.065C9.2913 15.7288 9.27943 16.3926 9.26754 17.0564L8.35149 16.9506L7.07742 16.3693L5.46826 15.4437L5.46951 15.4424Z" fill="#353334"/>
<path d="M3.94713 14.0312L4.8925 15.3787C4.8925 15.5903 4.8925 15.8028 4.8925 16.0162L3.65284 15.6337L3.05402 15.3876L2.69853 14.7502C2.64283 14.5883 2.62329 14.4163 2.64121 14.2461C2.65914 14.0758 2.71409 13.9116 2.80226 13.7649C2.89043 13.6182 3.00965 13.4927 3.15153 13.397C3.29342 13.3014 3.45454 13.238 3.62352 13.2114L3.94713 14.035V14.0312Z" fill="#78797C"/>
<path d="M7.08008 16.3679L8.35415 16.9493L8.11464 17.9028L7.08264 16.373L7.08008 16.3679Z" fill="#78797C"/>
<path d="M12.5036 15.0612C12.4773 15.374 12.4505 15.6868 12.4233 15.9995C11.334 16.303 11.4398 15.0664 10.8257 14.7566L11.1161 14.1191L12.4144 14.7566C12.445 14.8535 12.4743 14.9567 12.5036 15.0612Z" fill="#939497"/>
<path d="M2.697 14.7463L3.05249 15.3838C2.65244 15.329 2.11602 15.3481 2.697 14.7463Z" fill="#B4B5B7"/>
<path d="M11.115 12.8506L10.2308 12.7792C10.0206 10.9281 9.82561 9.11145 9.60138 7.29731C9.5296 6.9493 9.42818 6.6081 9.29818 6.27743C9.29818 6.16652 9.28928 6.05433 9.28418 5.94214L9.89695 6.27105C9.91139 6.36709 9.92165 6.46354 9.92759 6.56043L10.5404 7.19787C10.5671 7.44646 10.5952 7.69506 10.6499 8.19736L11.1825 7.19534C11.2794 7.19534 11.3762 7.19534 11.473 7.19534C11.91 8.15531 12.0527 9.20833 12.4706 10.1861C12.7942 10.9421 13.2834 11.9123 12.1699 12.5714C11.6361 12.0079 11.3035 12.0793 11.2042 12.88L11.115 12.8379V12.8506ZM11.4322 9.2109C11.4037 9.11029 11.3639 9.01318 11.3137 8.92147C11.1954 8.94943 11.0802 8.98917 10.9698 9.04006C11.0029 9.12293 11.0309 9.27334 11.0716 9.27844C11.1945 9.2744 11.316 9.25209 11.4322 9.21218V9.2109Z" fill="#666669"/>
<path d="M14.7233 9.05664L15.5872 10.668L14.3131 11.0161C13.9194 10.5355 13.4149 10.0753 14.0124 9.40851L14.7233 9.05664Z" fill="#87888B"/>
<path d="M12.4145 14.749L11.1162 14.1115C11.1162 13.6866 11.1162 13.2655 11.1162 12.8481L11.2054 12.8902L12.1495 12.8494C12.2344 13.4818 12.3231 14.1141 12.4157 14.7464L12.4145 14.749Z" fill="#B4B5B7"/>
<path d="M14.3193 11.016L15.5934 10.668L15.903 11.2965L15.2774 11.6216C14.8416 11.6076 14.3385 11.6994 14.3257 11.0173L14.3193 11.016Z" fill="#666669"/>
<path d="M15.271 11.6205L15.8966 11.2954C16.1884 11.7977 16.7987 12.3064 15.8265 12.8966L15.271 11.6205Z" fill="#484749"/>
<path d="M12.1496 12.852L11.2056 12.8928C11.3049 12.0922 11.6362 12.0208 12.1713 12.5843C12.1692 12.6739 12.162 12.7633 12.1496 12.852Z" fill="#87888B"/>
<path d="M18.7288 15.074L18.4142 15.7038L18.0498 14.8955L18.7288 15.074Z" fill="#424142"/>
<path d="M13.6963 14.4443L13.4097 14.0962L13.6008 13.998L13.6963 14.4443Z" fill="#454546"/>
<path d="M13.6963 14.4429C13.8046 14.541 13.7511 14.4913 13.6963 14.4429C13.7918 14.5487 13.7422 14.4939 13.6963 14.4429Z" fill="#454546"/>
<path d="M14.0006 7.84295L13.9114 7.89267L13.8108 7.87991L13.7178 7.55738C13.7613 7.53483 13.8091 7.52159 13.858 7.51852C13.9069 7.51544 13.9559 7.5226 14.0019 7.53953C14.0256 7.63971 14.0256 7.74405 14.0019 7.84424L14.0006 7.84295Z" fill="#B4B5B7"/>
<path d="M21.7535 19.239H22.5702C22.5702 19.2887 22.5702 19.3398 22.5702 19.3895H21.751C21.751 19.3398 21.751 19.2887 21.751 19.239H21.7535Z" fill="#87888B"/>
<path d="M11.1837 7.20546L10.6512 8.20752L10.5415 7.20799L10.8664 6.57056L11.1837 7.20037V7.20546Z" fill="#7E7F82"/>
<path d="M10.8653 6.5796L10.5404 7.21704L9.92627 6.5796L10.5951 6.59108C10.6841 6.57576 10.775 6.57576 10.8639 6.59108L10.8653 6.5796Z" fill="#727375"/>
<path d="M4.90019 14.1141L4.53711 14.067L4.88872 13.5073C4.89254 13.7088 4.89636 13.9114 4.90019 14.1141Z" fill="#78797C"/>
<path d="M11.4323 9.21083C11.316 9.25074 11.1945 9.27309 11.0717 9.27713C11.0296 9.27713 11.0029 9.12285 10.9697 9.03871C11.0801 8.98769 11.1954 8.94799 11.3138 8.92017C11.3638 9.01198 11.4035 9.10902 11.4323 9.20955V9.21083Z" fill="#727375"/>
<path d="M32.8518 21.7084H33.9195L34.4648 15.0192H33.3728V14.0847H35.7936L37.9889 19.304C38.0662 19.5063 38.1308 19.7132 38.1825 19.9236H38.2068C38.2583 19.7132 38.323 19.5063 38.4004 19.304L40.5957 14.0847H43.0164V15.0192H41.9245L42.471 21.7084H43.5387V22.6556H40.2389V21.7084H41.2709L40.8887 16.586C40.8864 16.3509 40.8983 16.1159 40.9243 15.8822H40.8887C40.8366 16.1042 40.7719 16.323 40.695 16.5376L38.7292 21.0416H37.6615L35.6955 16.5376C35.6183 16.3231 35.5537 16.1042 35.5018 15.8822H35.4662C35.4922 16.1159 35.504 16.3509 35.5018 16.586L35.1197 21.7084H36.1504V22.6556H32.8506L32.8518 21.7084Z" fill="#404041"/>
<path d="M44.4984 17.4237H43.4663V16.5134H45.6743V20.2042C45.6743 21.0545 45.8451 21.7341 46.821 21.7341C47.1088 21.7081 47.3885 21.6256 47.6444 21.4913C47.9002 21.357 48.127 21.1735 48.3119 20.9513C48.4968 20.7292 48.6361 20.4727 48.7217 20.1966C48.8074 19.9205 48.8376 19.6302 48.811 19.3424V17.4301H47.7803V16.5198H49.9883V21.4918C49.9845 21.5278 49.9887 21.5641 50.0008 21.5981C50.0128 21.6322 50.0323 21.6631 50.0578 21.6886C50.0834 21.7142 50.1143 21.7337 50.1483 21.7457C50.1824 21.7578 50.2187 21.7621 50.2546 21.7583H50.8916V22.6507H49.6175C49.0837 22.6507 48.8416 22.4072 48.8416 21.9711V21.7047C48.8414 21.5828 48.8495 21.4609 48.8659 21.3401H48.8416C48.6359 21.7851 48.3046 22.1602 47.8885 22.4191C47.4725 22.678 46.9897 22.8095 46.4999 22.7973C45.1774 22.7973 44.4856 22.0693 44.4856 20.4426V17.4199L44.4984 17.4237Z" fill="#404041"/>
<path d="M54.6934 17.7741C54.7969 17.648 54.9102 17.5303 55.0323 17.4222V17.398C55.0323 17.398 54.7775 17.4222 54.5354 17.4222H52.4V18.4051H51.3694V16.512H56.4529V17.2884L53.0918 21.3922C52.9901 21.5164 52.8762 21.63 52.7517 21.7313V21.7555C52.7517 21.7555 52.995 21.7428 53.2371 21.7428H55.5062V20.7599H56.5383V22.6543H51.3145V21.8779L54.6934 17.7741Z" fill="#404041"/>
<path d="M60.1118 16.3668C60.4822 16.3575 60.8502 16.4274 61.1915 16.5718C61.5327 16.7162 61.8393 16.9317 62.0907 17.204C62.3421 17.4763 62.5325 17.7991 62.6494 18.1509C62.7662 18.5027 62.8067 18.8755 62.7682 19.2442C62.7682 19.4023 62.7313 19.6929 62.7313 19.6929H58.2427C58.2398 19.971 58.293 20.2467 58.3991 20.5037C58.5053 20.7607 58.6621 20.9937 58.8603 21.1886C59.0584 21.3836 59.2939 21.5365 59.5525 21.6383C59.8111 21.7401 60.0875 21.7887 60.3653 21.7812C61.0377 21.7696 61.6852 21.5249 62.1974 21.0889L62.6828 21.9507C62.0083 22.502 61.1636 22.8021 60.2927 22.7998C59.8642 22.8171 59.4368 22.7461 59.037 22.591C58.6371 22.436 58.2733 22.2003 57.9683 21.8986C57.6634 21.5969 57.4238 21.2357 57.2643 20.8374C57.1048 20.4391 57.0288 20.0122 57.0412 19.5833C57.0126 19.1658 57.0712 18.747 57.2134 18.3535C57.3556 17.96 57.5783 17.6004 57.8671 17.2978C58.1559 16.9952 58.5045 16.7561 58.8908 16.5958C59.277 16.4355 59.6937 16.3575 60.1118 16.3668ZM61.5552 18.9408C61.5748 18.735 61.5515 18.5273 61.487 18.3309C61.4224 18.1345 61.3178 17.9536 61.18 17.7996C61.0421 17.6456 60.8739 17.5218 60.6858 17.4361C60.4978 17.3503 60.2941 17.3044 60.0875 17.3013C59.638 17.3016 59.2048 17.4699 58.8727 17.7732C58.5407 18.0764 58.3337 18.4928 58.2924 18.9408H61.5552Z" fill="#404041"/>
<path d="M63.9814 17.4237H62.9507V16.5134H65.1587V20.2042C65.1587 21.0545 65.3295 21.7341 66.3054 21.7341C66.5931 21.7081 66.8729 21.6256 67.1287 21.4913C67.3846 21.357 67.6114 21.1735 67.7963 20.9513C67.9811 20.7292 68.1204 20.4727 68.2061 20.1966C68.2917 19.9205 68.3221 19.6302 68.2955 19.3424V17.4301H67.2634V16.5198H69.4714V21.4918C69.4676 21.5278 69.4719 21.5641 69.4839 21.5981C69.4959 21.6322 69.5154 21.6631 69.541 21.6886C69.5665 21.7142 69.5974 21.7337 69.6315 21.7457C69.6655 21.7578 69.7018 21.7621 69.7377 21.7583H70.3747V22.6507H69.1007C68.5668 22.6507 68.3247 22.4072 68.3247 21.9711V21.7047C68.3245 21.5828 68.3326 21.4609 68.349 21.3401H68.3247C68.1191 21.7851 67.7878 22.1602 67.3717 22.4191C66.9556 22.678 66.4728 22.8095 65.983 22.7973C64.6605 22.7973 63.9688 22.0693 63.9688 20.4426V17.4199L63.9814 17.4237Z" fill="#404041"/>
<path d="M71.1531 14.995H70.1338V14.0847H72.3292V20.8338C72.3292 21.3552 72.4565 21.7084 72.984 21.7084C73.1776 21.7084 73.3115 21.6956 73.3115 21.6956L73.2988 22.6671C73.2988 22.6671 73.0555 22.6913 72.7765 22.6913C71.9025 22.6913 71.1506 22.3394 71.1506 20.9065V14.995H71.1531Z" fill="#404041"/>
<path d="M76.2114 21.7084H77.279V15.0192H76.2114V14.0847H78.4806L82.6847 20.227C82.7961 20.4266 82.8936 20.6336 82.9765 20.8466H83.0123C82.9797 20.6171 82.9599 20.386 82.9526 20.1543V15.0192H81.8605V14.0847H85.2456V15.0192H84.1666V22.6544H82.9778L78.7736 16.5121C78.6566 16.3154 78.5589 16.1079 78.4818 15.8924H78.4448C78.4777 16.1217 78.494 16.3531 78.4933 16.5847V21.7072H79.5979V22.6544H76.2139V21.7072L76.2114 21.7084Z" fill="#404041"/>
<path d="M88.901 18.8796H89.2895V18.6489C89.3135 18.4709 89.2962 18.2898 89.2388 18.1197C89.1814 17.9497 89.0854 17.7952 88.9586 17.6682C88.8317 17.5413 88.6772 17.4453 88.5072 17.3879C88.3372 17.3304 88.1566 17.313 87.9787 17.337C87.347 17.3609 86.7357 17.5678 86.2191 17.9324L85.7463 17.0948C86.4268 16.612 87.2426 16.3571 88.0767 16.3668C88.3986 16.3235 88.7262 16.3548 89.0342 16.4581C89.3421 16.5614 89.6221 16.7341 89.8528 16.9628C90.0836 17.1915 90.2589 17.4701 90.3651 17.7772C90.4714 18.0843 90.5057 18.4117 90.4656 18.7342V21.4778C90.4608 21.5139 90.4642 21.5506 90.4759 21.5852C90.4876 21.6197 90.507 21.6511 90.5328 21.6768C90.5586 21.7026 90.5901 21.7221 90.6246 21.7338C90.6591 21.7455 90.6958 21.7491 90.7319 21.7442H91.3499V22.6545H90.1253C89.58 22.6545 89.3611 22.388 89.3611 21.9865V21.8998C89.3592 21.7648 89.3753 21.6301 89.4093 21.4994H89.3853C89.2071 21.8871 88.9213 22.2155 88.5623 22.4457C88.2033 22.6759 87.7859 22.7984 87.3594 22.7986C87.1012 22.8223 86.8408 22.7919 86.5949 22.7094C86.349 22.6269 86.1229 22.494 85.9311 22.3193C85.7393 22.1445 85.5861 21.9317 85.481 21.6944C85.3759 21.4571 85.3213 21.2006 85.3208 20.941C85.3208 19.0109 87.8805 18.877 88.8998 18.877L88.901 18.8796ZM87.6154 21.8908C88.0985 21.8395 88.5433 21.6041 88.8575 21.2332C89.1716 20.8624 89.3309 20.3847 89.3023 19.8995V19.6445H88.9978C88.441 19.6445 86.5109 19.6688 86.5109 20.8467C86.5095 20.9895 86.5378 21.131 86.5936 21.2623C86.6495 21.3937 86.7316 21.512 86.8353 21.6101C86.939 21.7081 87.0619 21.7837 87.1961 21.832C87.3304 21.8803 87.4731 21.9003 87.6154 21.8908Z" fill="#404041"/>
<path d="M92.2518 17.4236H91.2197V16.5133H92.2761V14.8254H93.4226V16.5133H94.8905V17.4236H93.4226V20.301C93.4226 21.5516 94.2725 21.7033 94.7337 21.7033C94.8269 21.7038 94.92 21.6996 95.0127 21.6906V22.6735C94.872 22.6907 94.7302 22.6988 94.5884 22.6977C94.2765 22.7332 93.9606 22.6986 93.6637 22.5965C93.3668 22.4944 93.0963 22.3275 92.872 22.1077C92.6478 21.8879 92.4754 21.6208 92.3672 21.3259C92.259 21.031 92.2176 20.7158 92.2465 20.403L92.2518 17.4236ZM94.2419 23.3594C94.3007 23.5523 94.3294 23.7531 94.3271 23.9548C94.3212 24.2557 94.2319 24.549 94.069 24.8021C93.9061 25.0551 93.6762 25.2578 93.4049 25.3877L92.8951 24.9747C93.0331 24.8572 93.1454 24.7123 93.2248 24.5493C93.3041 24.3863 93.3489 24.2086 93.3563 24.0275C93.3497 23.7977 93.3005 23.5711 93.2111 23.3594H94.2419Z" fill="#404041"/>
<path d="M95.3799 21.7441H96.3391V17.4223H95.3198V16.5069H97.5152V21.7339H98.486V22.6442H95.3799V21.7339V21.7441ZM96.3136 14.0847H97.5507V15.2869H96.3136V14.0847Z" fill="#404041"/>
<path d="M102.039 16.3667C102.671 16.3857 103.284 16.5909 103.8 16.9564C104.316 17.3219 104.713 17.8316 104.941 18.4217C105.169 19.0118 105.219 19.6562 105.083 20.2742C104.947 20.8922 104.632 21.4564 104.177 21.8962C103.723 22.3361 103.149 22.632 102.527 22.7471C101.905 22.8621 101.263 22.7912 100.682 22.5431C100.1 22.2951 99.604 21.8809 99.2563 21.3524C98.9086 20.8239 98.7244 20.2045 98.7266 19.5717C98.7262 19.1414 98.8124 18.7154 98.9801 18.3191C99.1478 17.9229 99.3935 17.5644 99.7027 17.2653C100.012 16.9662 100.378 16.7325 100.78 16.5781C101.181 16.4237 101.609 16.3518 102.039 16.3667ZM102.039 21.781C102.477 21.7983 102.909 21.6844 103.282 21.4539C103.654 21.2235 103.949 20.887 104.129 20.4876C104.309 20.0882 104.366 19.6441 104.292 19.2122C104.218 18.7804 104.017 18.3805 103.714 18.0638C103.411 17.7471 103.021 17.5281 102.594 17.4349C102.166 17.3416 101.72 17.3784 101.313 17.5404C100.906 17.7024 100.557 17.9823 100.31 18.3443C100.063 18.7062 99.9302 19.1336 99.9279 19.5717C99.9171 19.8566 99.9637 20.1407 100.065 20.4073C100.166 20.6738 100.319 20.9173 100.516 21.1234C100.713 21.3294 100.949 21.4939 101.211 21.6068C101.473 21.7198 101.754 21.779 102.039 21.781Z" fill="#404041"/>
<path d="M105.8 21.7453H106.758V17.6899C106.763 17.6538 106.759 17.6171 106.748 17.5826C106.736 17.548 106.717 17.5167 106.691 17.4909C106.665 17.4651 106.634 17.4456 106.599 17.4339C106.565 17.4223 106.528 17.4187 106.492 17.4235H105.74V16.5133H107.123C107.656 16.5133 107.898 16.744 107.898 17.1928V17.5089C107.898 17.6271 107.887 17.745 107.863 17.8608H107.887C108.098 17.407 108.436 17.0243 108.861 16.7592C109.285 16.4942 109.777 16.3583 110.277 16.3679C111.679 16.3679 112.316 17.157 112.316 18.7226V21.7453H113.286V22.6556H111.14V18.9891C111.14 18.1273 110.969 17.4477 109.993 17.4477C109.703 17.4658 109.42 17.5413 109.16 17.6698C108.899 17.7983 108.667 17.9773 108.476 18.1963C108.286 18.4154 108.14 18.6702 108.049 18.9459C107.957 19.2216 107.921 19.5128 107.943 19.8024V21.7453H108.913V22.6556H105.806L105.8 21.7453Z" fill="#404041"/>
<path d="M116.987 18.8795H117.369V18.6488C117.393 18.4709 117.375 18.2898 117.318 18.1197C117.26 17.9496 117.165 17.7951 117.038 17.6682C116.911 17.5412 116.757 17.4453 116.587 17.3878C116.417 17.3304 116.236 17.313 116.058 17.3369C115.426 17.3608 114.815 17.5676 114.298 17.9323L113.826 17.0948C114.506 16.6118 115.321 16.3568 116.155 16.3668C116.476 16.3236 116.804 16.3548 117.112 16.4581C117.42 16.5614 117.7 16.7341 117.931 16.9627C118.162 17.1914 118.338 17.47 118.444 17.7771C118.55 18.0842 118.585 18.4116 118.545 18.7342V21.4778C118.54 21.5139 118.544 21.5506 118.555 21.5851C118.567 21.6197 118.586 21.651 118.612 21.6768C118.638 21.7026 118.669 21.7221 118.704 21.7338C118.738 21.7454 118.775 21.749 118.811 21.7442H119.429V22.6544H118.203C117.658 22.6544 117.439 22.388 117.439 21.9864V21.8997C117.437 21.7647 117.453 21.63 117.487 21.4994H117.463C117.285 21.887 116.999 22.2154 116.64 22.4457C116.281 22.6759 115.864 22.7984 115.437 22.7985C115.179 22.8223 114.919 22.7919 114.673 22.7094C114.427 22.6268 114.201 22.494 114.009 22.3192C113.817 22.1445 113.664 21.9317 113.559 21.6944C113.454 21.4571 113.399 21.2005 113.399 20.941C113.399 19.0109 115.958 18.877 116.978 18.877L116.987 18.8795ZM115.701 21.8908C116.184 21.8389 116.628 21.6032 116.942 21.2325C117.256 20.8618 117.415 20.3844 117.387 19.8994V19.6445H117.083C116.525 19.6445 114.596 19.6687 114.596 20.8467C114.595 20.9894 114.623 21.1309 114.679 21.2623C114.735 21.3937 114.817 21.512 114.921 21.61C115.025 21.7081 115.147 21.7837 115.282 21.832C115.416 21.8803 115.559 21.9003 115.701 21.8908Z" fill="#404041"/>
<path d="M120.13 14.995H119.11V14.0847H121.305V20.8338C121.305 21.3552 121.427 21.7084 121.961 21.7084C122.154 21.7084 122.288 21.6956 122.288 21.6956L122.275 22.6671C122.275 22.6671 122.033 22.6913 121.754 22.6913C120.88 22.6913 120.128 22.3394 120.128 20.9065L120.13 14.995Z" fill="#404041"/>
<path d="M35.6918 28.8258C36.0713 28.8078 36.4485 28.8945 36.7822 29.0764C37.1158 29.2583 37.3931 29.5284 37.5838 29.8572H37.608C37.5829 29.7047 37.5706 29.5503 37.5712 29.3957V27.4528H36.5519V26.5425H38.7484V33.9368C38.7435 33.9729 38.7471 34.0096 38.7588 34.0442C38.7704 34.0787 38.7899 34.11 38.8157 34.1358C38.8415 34.1616 38.8728 34.1811 38.9073 34.1928C38.9418 34.2045 38.9785 34.208 39.0146 34.2032H39.6325V35.1134H38.4068C37.8615 35.1134 37.6424 34.847 37.6424 34.4454V34.36C37.6399 34.2497 37.652 34.1395 37.6782 34.0323H37.6539C37.4657 34.4172 37.169 34.7385 36.8004 34.9564C36.4318 35.1744 36.0073 35.2795 35.5797 35.2588C35.1874 35.2384 34.8036 35.137 34.4524 34.961C34.1012 34.785 33.7901 34.5382 33.5388 34.2361C33.2875 33.934 33.1014 33.5832 32.9922 33.2057C32.8829 32.8281 32.853 32.432 32.9041 32.0423C32.858 31.6443 32.8952 31.241 33.0135 30.8582C33.1317 30.4753 33.3283 30.1213 33.5908 29.8187C33.8533 29.5161 34.1759 29.2716 34.5381 29.1006C34.9003 28.9297 35.2941 28.836 35.6944 28.8258H35.6918ZM35.8371 34.2402C36.7467 34.2402 37.608 33.5849 37.608 32.0551C37.608 30.9268 37.0373 29.8584 35.8728 29.8584C34.8905 29.8584 34.1018 30.6476 34.1018 32.0435C34.1018 33.4395 34.8178 34.2402 35.8371 34.2402Z" fill="#404041"/>
<path d="M43.0192 28.826C43.3895 28.8167 43.7576 28.8866 44.0988 29.031C44.4401 29.1753 44.7467 29.3909 44.9981 29.6632C45.2495 29.9355 45.4399 30.2583 45.5567 30.6102C45.6736 30.962 45.7141 31.3346 45.6755 31.7033C45.6755 31.8614 45.6399 32.1521 45.6399 32.1521H41.1475C41.1447 32.4301 41.1979 32.7059 41.304 32.9629C41.4101 33.2199 41.567 33.4528 41.7651 33.6478C41.9633 33.8427 42.1988 33.9957 42.4574 34.0975C42.716 34.1993 42.9924 34.2479 43.2702 34.2403C43.9425 34.2287 44.5901 33.9841 45.1023 33.5481L45.5877 34.4099C44.9134 34.9616 44.0686 35.2622 43.1975 35.2603C42.7691 35.2776 42.3415 35.2065 41.9417 35.0514C41.5418 34.8964 41.1782 34.6607 40.8732 34.3591C40.5682 34.0574 40.3286 33.6962 40.1691 33.2979C40.0096 32.8995 39.9337 32.4727 39.9461 32.0438C39.9173 31.6263 39.9759 31.2073 40.118 30.8137C40.2601 30.4201 40.4827 30.0605 40.7715 29.7578C41.0603 29.4551 41.4089 29.216 41.7953 29.0558C42.1817 28.8956 42.5971 28.8178 43.0153 28.8273L43.0192 28.826ZM44.4628 31.3999C44.4821 31.1942 44.4587 30.9867 44.394 30.7904C44.3293 30.5942 44.2247 30.4135 44.0868 30.2596C43.949 30.1058 43.781 29.9821 43.593 29.8964C43.4051 29.8107 43.2014 29.7648 42.9949 29.7617C42.5455 29.762 42.1124 29.9301 41.7804 30.2331C41.4484 30.5361 41.2414 30.9522 41.1998 31.3999H44.4628Z" fill="#404041"/>
<path d="M48.7207 34.1676H49.7884V27.4784H48.7207V26.5439H52.0818V27.4784H51.0013V34.1676H52.0818V35.1149H48.7207V34.1676Z" fill="#404041"/>
<path d="M52.5794 33.1352H53.6102V33.5355C53.6102 34.0569 54.3377 34.3004 55.0117 34.3004C55.6857 34.3004 56.2488 34.0212 56.2488 33.5113C56.2488 32.893 55.5697 32.6979 54.7199 32.3945C53.8102 32.0541 52.8088 31.641 52.8088 30.5255C52.8088 29.3118 54.0103 28.8262 55.0779 28.8262C55.9392 28.8262 57.2006 29.1652 57.2006 30.064V30.8047H56.1685V30.4044C56.1685 30.022 55.6831 29.767 55.0881 29.767C54.4931 29.767 53.9963 30.0105 53.9963 30.5077C53.9963 31.0903 54.6754 31.3326 55.4156 31.5888C56.3622 31.905 57.4413 32.3052 57.4413 33.4462C57.4413 34.5873 56.3737 35.2553 54.9786 35.2553C53.8625 35.2553 52.5757 34.7581 52.5757 33.7867V33.1313L52.5794 33.1352Z" fill="#404041"/>
<path d="M58.6086 29.8816H57.5767V28.9713H58.6316V27.2847H59.7781V28.9713H61.246V29.8816H59.7781V32.759C59.7781 34.0096 60.628 34.1613 61.088 34.1613C61.1811 34.1617 61.2743 34.1574 61.367 34.1485V35.1314C61.2262 35.1486 61.0845 35.1567 60.9427 35.1557C60.6308 35.1912 60.3149 35.1566 60.018 35.0545C59.7211 34.9524 59.4506 34.7854 59.2263 34.5656C59.002 34.3458 58.8295 34.0788 58.7213 33.7839C58.6131 33.489 58.5721 33.1737 58.601 32.8609L58.6086 29.8816Z" fill="#404041"/>
<path d="M64.9534 28.8261C65.5854 28.8452 66.1979 29.0503 66.7141 29.4158C67.2303 29.7813 67.6273 30.291 67.8555 30.8812C68.0837 31.4713 68.133 32.1156 67.9972 32.7336C67.8613 33.3516 67.5463 33.9158 67.0917 34.3557C66.6371 34.7955 66.0631 35.0915 65.4412 35.2066C64.8194 35.3216 64.1775 35.2507 63.5958 35.0026C63.014 34.7545 62.5182 34.3403 62.1705 33.8118C61.8228 33.2833 61.6384 32.6639 61.6406 32.0311C61.6402 31.6008 61.7264 31.1748 61.8942 30.7785C62.0619 30.3823 62.3077 30.0239 62.6169 29.7248C62.9261 29.4257 63.2922 29.1919 63.6936 29.0375C64.095 28.8831 64.5236 28.8112 64.9534 28.8261ZM64.9534 34.2404C65.3909 34.2577 65.8235 34.1439 66.1959 33.9134C66.5683 33.6829 66.8635 33.3464 67.0435 32.947C67.2235 32.5476 67.2801 32.1035 67.2062 31.6716C67.1322 31.2398 66.931 30.8399 66.6284 30.5232C66.3258 30.2065 65.9356 29.9875 65.5078 29.8943C65.08 29.801 64.634 29.8378 64.2272 29.9998C63.8204 30.1618 63.4711 30.4417 63.2244 30.8036C62.9776 31.1656 62.8445 31.593 62.8421 32.0311C62.8313 32.316 62.8779 32.6001 62.979 32.8667C63.08 33.1332 63.2335 33.3768 63.4304 33.5829C63.6273 33.7889 63.8636 33.9533 64.1252 34.0662C64.3868 34.1792 64.6685 34.2384 64.9534 34.2404Z" fill="#404041"/>
<path d="M68.7375 34.2034H69.6597V30.1494C69.6646 30.1132 69.6611 30.0764 69.6495 30.0419C69.6378 30.0074 69.6183 29.976 69.5925 29.9502C69.5668 29.9245 69.5353 29.905 69.5008 29.8933C69.4663 29.8816 69.4296 29.878 69.3935 29.8829H68.6289V28.9726H70.0115C70.5454 28.9726 70.8001 29.1919 70.8001 29.6891V30.0715C70.8005 30.2134 70.7924 30.3552 70.7758 30.4961H70.8001C70.907 30.055 71.1538 29.6605 71.5037 29.3716C71.8535 29.0827 72.2873 28.9149 72.7404 28.8936C72.8424 28.8941 72.9442 28.9022 73.0449 28.9178V30.0831C72.9333 30.0582 72.8194 30.0458 72.7049 30.0461C71.3939 30.0461 70.8371 31.3694 70.8371 32.5716V34.1983H71.7466V35.1085H68.7375V34.1983V34.2034Z" fill="#404041"/>
<path d="M73.2756 34.2033H74.2337V29.8815H73.2144V28.9713H75.4098V34.1982H76.3806V35.1085H73.2744V34.1982L73.2756 34.2033ZM74.2094 26.5439H75.448V27.7461H74.2094V26.5439Z" fill="#404041"/>
<path d="M79.7189 28.826C80.0892 28.8167 80.4573 28.8866 80.7985 29.031C81.1398 29.1753 81.4464 29.3909 81.6978 29.6632C81.9492 29.9355 82.1396 30.2583 82.2564 30.6102C82.3733 30.962 82.4138 31.3346 82.3753 31.7033C82.3753 31.8614 82.3382 32.1521 82.3382 32.1521H77.8498C77.8469 32.4301 77.9001 32.7059 78.0062 32.9629C78.1123 33.2199 78.269 33.4528 78.4672 33.6478C78.6654 33.8427 78.901 33.9957 79.1596 34.0975C79.4182 34.1993 79.6946 34.2479 79.9724 34.2403C80.6448 34.2288 81.2923 33.9842 81.8045 33.5481L82.2897 34.4099C81.6155 34.9617 80.7707 35.2623 79.8996 35.2603C79.4711 35.2776 79.0437 35.2065 78.6439 35.0514C78.244 34.8964 77.8804 34.6607 77.5754 34.3591C77.2705 34.0574 77.0307 33.6962 76.8712 33.2979C76.7117 32.8995 76.6357 32.4727 76.6482 32.0438C76.6195 31.6263 76.6783 31.2075 76.8205 30.8139C76.9627 30.4204 77.1852 30.0609 77.474 29.7583C77.7628 29.4556 78.1114 29.2166 78.4977 29.0563C78.884 28.896 79.2996 28.8179 79.7176 28.8273L79.7189 28.826ZM81.1622 31.3999C81.1817 31.1942 81.1586 30.9865 81.094 30.7902C81.0294 30.5939 80.9249 30.4131 80.787 30.2592C80.6491 30.1053 80.4808 29.9816 80.2928 29.896C80.1048 29.8104 79.9012 29.7646 79.6946 29.7617C79.2452 29.762 78.812 29.9301 78.4799 30.2331C78.1479 30.5361 77.9411 30.9522 77.8995 31.3999H81.1622Z" fill="#404041"/>
<path d="M88.7559 31.3387H89.1382V31.1079C89.1621 30.9302 89.1445 30.7492 89.0871 30.5792C89.0298 30.4092 88.9342 30.2548 88.8075 30.1279C88.6808 30.001 88.5266 29.905 88.3568 29.8475C88.187 29.7899 88.006 29.7724 87.8283 29.7961C87.1966 29.82 86.5856 30.0268 86.069 30.3915L85.5962 29.5539C86.2761 29.0709 87.0913 28.816 87.9251 28.826C88.247 28.7825 88.575 28.8135 88.8831 28.9168C89.1912 29.02 89.4715 29.1926 89.7024 29.4213C89.9333 29.65 90.1084 29.9288 90.2147 30.236C90.321 30.5432 90.3554 30.8708 90.3152 31.1934V33.9369C90.3104 33.973 90.3141 34.0097 90.3258 34.0443C90.3374 34.0788 90.3569 34.1102 90.3827 34.136C90.4084 34.1618 90.4396 34.1812 90.4741 34.1929C90.5086 34.2046 90.5456 34.2081 90.5818 34.2033H91.2008V35.1135H89.9752C89.4299 35.1135 89.2106 34.8471 89.2106 34.4455V34.3601C89.2086 34.2251 89.225 34.0905 89.2592 33.9598H89.2349C89.0564 34.3476 88.7708 34.6759 88.4115 34.9062C88.0523 35.1364 87.6344 35.2588 87.2078 35.2589C86.9495 35.2826 86.6891 35.2522 86.4432 35.1697C86.1973 35.0872 85.9715 34.9544 85.7797 34.7797C85.5879 34.6049 85.4344 34.3921 85.3293 34.1548C85.2243 33.9175 85.1699 33.661 85.1694 33.4015C85.1694 31.4713 87.7288 31.3374 88.7481 31.3374L88.7559 31.3387ZM87.4703 34.3487C87.9532 34.2971 88.3975 34.0615 88.7114 33.6907C89.0253 33.3199 89.1845 32.8424 89.1559 32.3573V32.1023H88.8526C88.2946 32.1023 86.3657 32.1266 86.3657 33.3046C86.3644 33.4473 86.3923 33.5888 86.4482 33.7202C86.504 33.8515 86.5865 33.9699 86.6902 34.0679C86.7939 34.1659 86.9167 34.2415 87.051 34.2898C87.1852 34.3381 87.3279 34.3581 87.4703 34.3487Z" fill="#404041"/>
<path d="M94.0459 34.1677H95.1134V27.4785H94.0459V26.5441H97.7574C98.2895 26.5189 98.822 26.5805 99.3344 26.7264C99.7959 26.8761 100.194 27.1764 100.464 27.5793C100.735 27.9823 100.862 28.4644 100.827 28.9484C100.861 29.4936 100.702 30.0335 100.378 30.4732C100.054 30.913 99.586 31.2244 99.0554 31.3528V31.3771C99.2102 31.4754 99.3359 31.6137 99.4187 31.7774L100.632 33.8898C100.759 34.1206 100.923 34.1691 101.227 34.1691H101.481V35.1163H100.754C100.025 35.1163 99.8621 34.9888 99.5652 34.4788L98.2426 32.1356C98.1674 31.969 98.0389 31.8322 97.8774 31.7466C97.716 31.6609 97.5309 31.6315 97.3508 31.6627H96.3315V34.1677H97.3866V35.115H94.0509V34.1677H94.0459ZM98.0492 30.6593C98.2615 30.6715 98.4739 30.6376 98.6719 30.5599C98.8699 30.4823 99.0488 30.3627 99.1963 30.2094C99.3438 30.0561 99.4563 29.8727 99.5263 29.6718C99.5964 29.4709 99.6224 29.2572 99.6022 29.0453C99.631 28.7645 99.5687 28.482 99.4246 28.2393C99.2806 27.9967 99.0621 27.8068 98.8019 27.6978C98.4626 27.582 98.1054 27.5285 97.7471 27.5397H96.3278V30.6593H98.0492Z" fill="#404041"/>
<path d="M105 28.8261C105.632 28.8452 106.245 29.0503 106.761 29.4158C107.277 29.7813 107.674 30.291 107.902 30.8812C108.131 31.4713 108.18 32.1156 108.044 32.7336C107.908 33.3516 107.593 33.9158 107.138 34.3557C106.684 34.7955 106.11 35.0915 105.488 35.2066C104.866 35.3216 104.224 35.2507 103.642 35.0026C103.061 34.7545 102.565 34.3403 102.217 33.8118C101.87 33.2833 101.685 32.6639 101.688 32.0311C101.687 31.6008 101.773 31.1748 101.941 30.7785C102.109 30.3823 102.354 30.0239 102.664 29.7248C102.973 29.4257 103.339 29.1919 103.74 29.0375C104.142 28.8831 104.57 28.8112 105 28.8261ZM105 34.2404C105.437 34.2577 105.87 34.1439 106.243 33.9134C106.615 33.6829 106.91 33.3464 107.09 32.947C107.27 32.5476 107.327 32.1035 107.253 31.6716C107.179 31.2398 106.978 30.8399 106.675 30.5232C106.373 30.2065 105.982 29.9875 105.555 29.8943C105.127 29.801 104.681 29.8378 104.274 29.9998C103.867 30.1618 103.518 30.4417 103.271 30.8036C103.024 31.1656 102.891 31.593 102.889 32.0311C102.878 32.316 102.925 32.6001 103.026 32.8667C103.127 33.1332 103.28 33.3768 103.477 33.5829C103.674 33.7889 103.91 33.9533 104.172 34.0662C104.433 34.1792 104.715 34.2384 105 34.2404Z" fill="#404041"/>
<path d="M108.765 34.2047H109.723V30.1379C109.727 30.1025 109.722 30.0667 109.71 30.0333C109.698 29.9999 109.678 29.9697 109.652 29.9451C109.627 29.9205 109.595 29.9021 109.561 29.8913C109.528 29.8805 109.492 29.8777 109.457 29.8829H108.704V28.9727H110.087C110.608 28.9727 110.863 29.2034 110.863 29.6522V29.9683C110.863 30.0865 110.851 30.2044 110.827 30.3202H110.852C111.043 29.8943 111.348 29.5295 111.734 29.2661C112.119 29.0027 112.57 28.8508 113.036 28.8273C113.465 28.7815 113.895 28.9078 114.231 29.1786C114.568 29.4493 114.783 29.8423 114.831 30.2717H114.855C115.049 29.8491 115.357 29.4896 115.745 29.2341C116.133 28.9787 116.586 28.8377 117.05 28.8273C118.41 28.8273 119.052 29.6164 119.052 31.182V34.2047H120.021V35.115H117.873V31.437C117.873 30.5752 117.715 29.8957 116.794 29.8957C115.647 29.8957 114.986 31.0736 114.986 32.2873V34.1996H115.944V35.1099H113.809V31.4319C113.809 30.63 113.681 29.8905 112.741 29.8905C111.577 29.8905 110.898 31.1284 110.898 32.3306V34.1996H111.867V35.1099H108.765V34.1996V34.2047Z" fill="#404041"/>
<path d="M123.72 31.3387H124.102V31.108C124.126 30.9302 124.108 30.7493 124.051 30.5793C123.993 30.4094 123.898 30.2551 123.771 30.1283C123.644 30.0015 123.489 29.9056 123.319 29.8482C123.149 29.7908 122.969 29.7735 122.791 29.7974C122.159 29.8214 121.548 30.0282 121.032 30.3927L120.559 29.5552C121.239 29.0724 122.055 28.8176 122.889 28.8273C123.211 28.784 123.539 28.8153 123.847 28.9186C124.155 29.0219 124.435 29.1946 124.666 29.4232C124.896 29.6519 125.072 29.9304 125.178 30.2375C125.285 30.5446 125.319 30.8721 125.279 31.1947V33.9382C125.274 33.9743 125.278 34.0111 125.29 34.0456C125.302 34.0802 125.321 34.1115 125.347 34.1373C125.373 34.1631 125.404 34.1825 125.438 34.1942C125.473 34.2058 125.509 34.2094 125.546 34.2046H126.164V35.1149H124.939C124.394 35.1149 124.175 34.8484 124.175 34.4468V34.3615C124.173 34.2264 124.189 34.0917 124.223 33.9611H124.199C124.021 34.3487 123.735 34.6772 123.376 34.9074C123.017 35.1376 122.6 35.26 122.173 35.2602C121.915 35.2839 121.654 35.2535 121.409 35.171C121.163 35.0885 120.937 34.9557 120.745 34.7809C120.553 34.6062 120.4 34.3934 120.295 34.1561C120.19 33.9188 120.135 33.6623 120.135 33.4027C120.141 31.4726 122.701 31.3387 123.72 31.3387ZM122.289 26.5439H123.563L124.631 28.0852H123.576L122.939 27.1138H122.915L122.278 28.0852H121.223L122.289 26.5439ZM122.434 34.3499C122.917 34.2984 123.362 34.0628 123.675 33.692C123.989 33.3212 124.149 32.8437 124.12 32.3586V32.1037H123.817C123.259 32.1037 121.33 32.1279 121.33 33.3059C121.328 33.4486 121.356 33.5901 121.412 33.7215C121.468 33.8528 121.551 33.9712 121.654 34.0692C121.758 34.1672 121.881 34.2428 122.015 34.2911C122.149 34.3394 122.292 34.3594 122.434 34.3499Z" fill="#404041"/>
<path d="M126.486 34.2035H127.444V30.1482C127.449 30.1121 127.445 30.0752 127.434 30.0407C127.422 30.0062 127.403 29.9748 127.377 29.9491C127.351 29.9233 127.32 29.9038 127.285 29.8921C127.251 29.8804 127.214 29.8768 127.178 29.8817H126.426V28.9664H127.809C128.342 28.9664 128.585 29.1971 128.585 29.6458V29.9621C128.585 30.0802 128.573 30.1981 128.549 30.3138H128.573C128.784 29.8601 129.122 29.4776 129.547 29.2126C129.971 28.9476 130.463 28.8115 130.963 28.821C132.365 28.821 133.002 29.6101 133.002 31.1757V34.1984H133.973V35.1087H131.826V31.4421C131.826 30.5803 131.655 29.9008 130.679 29.9008C130.39 29.9189 130.106 29.9944 129.846 30.1229C129.585 30.2514 129.353 30.4304 129.162 30.6494C128.972 30.8685 128.826 31.1232 128.735 31.3989C128.643 31.6746 128.607 31.9658 128.629 32.2555V34.1984H129.599V35.1087H126.494V34.1984L126.486 34.2035Z" fill="#404041"/>
<path d="M134.275 34.2033H135.234V29.8815H134.215V28.9713H136.411V34.1982H137.381V35.1085H134.276L134.275 34.2033ZM135.208 26.5439H136.446V27.7461H135.208V26.5439Z" fill="#404041"/>
<path d="M140.716 28.826C141.086 28.8169 141.454 28.8869 141.795 29.0313C142.137 29.1758 142.443 29.3914 142.694 29.6636C142.946 29.9359 143.136 30.2586 143.253 30.6103C143.37 30.962 143.411 31.3346 143.372 31.7033C143.372 31.8614 143.335 32.152 143.335 32.152H138.844C138.842 32.4301 138.895 32.7058 139.001 32.9628C139.107 33.2198 139.264 33.4528 139.462 33.6477C139.66 33.8427 139.896 33.9957 140.154 34.0975C140.413 34.1993 140.689 34.2478 140.967 34.2403C141.639 34.2288 142.287 33.9841 142.799 33.5481L143.284 34.4098C142.61 34.9615 141.765 35.2621 140.894 35.2602C140.466 35.2775 140.038 35.2064 139.639 35.0514C139.239 34.8964 138.875 34.6607 138.57 34.359C138.265 34.0573 138.025 33.6961 137.866 33.2978C137.706 32.8995 137.63 32.4726 137.643 32.0437C137.614 31.6262 137.673 31.2073 137.815 30.8137C137.957 30.4201 138.18 30.0605 138.468 29.7578C138.757 29.4551 139.106 29.216 139.492 29.0558C139.878 28.8955 140.294 28.8177 140.712 28.8272L140.716 28.826ZM142.16 31.3999C142.179 31.1942 142.156 30.9867 142.091 30.7904C142.026 30.5942 141.922 30.4134 141.784 30.2596C141.646 30.1057 141.478 29.982 141.29 29.8964C141.102 29.8107 140.898 29.7648 140.692 29.7617C140.242 29.762 139.809 29.93 139.477 30.233C139.145 30.536 138.938 30.9522 138.897 31.3999H142.16Z" fill="#404041"/>
<path d="M143.896 34.2033H144.854V29.8815H143.835V28.9713H146.031V34.1982H147.001V35.1085H143.896V34.1982V34.2033ZM144.831 26.5439H146.068V27.7461H144.831V26.5439Z" fill="#404041"/>
</g>
<defs>
<clipPath id="clip0_2306_135">
<rect width="147" height="38" fill="white"/>
</clipPath>
</defs>
</svg>
