<svg width="97" height="27" viewBox="0 0 97 27" fill="none" xmlns="http://www.w3.org/2000/svg">
<g clip-path="url(#clip0_2306_44)">
<path d="M16.1947 20.1283H18.9819V0.640381H15.887L9.47185 9.8344L3.11872 0.640381H0V20.1259H2.78717V5.05051L9.50286 14.7683L16.1923 5.04099V20.1283H16.1947Z" fill="black"/>
<path d="M42.999 20.1283H53.6301C53.6897 20.1211 53.8042 20.0997 53.9688 20.0688C54.2073 20.0235 54.3957 19.9854 54.5388 19.9497C55.1919 19.8036 55.8075 19.5239 56.3469 19.1284C56.8452 18.7586 57.2794 18.3099 57.6325 17.8C57.9605 17.3216 58.2108 16.7946 58.3743 16.2383C58.5272 15.7242 58.6075 15.1914 58.6128 14.6552C58.6028 14.0238 58.5032 13.3971 58.3171 12.7935C58.1497 12.1953 57.8423 11.6454 57.4202 11.189C57.3892 11.1604 57.3296 11.0938 57.2628 11.0152C57.2374 10.9836 57.2104 10.9534 57.1817 10.9247L56.6712 10.4129L57.1578 9.87964C57.6536 9.34761 58.0315 8.71734 58.267 8.02988C58.4828 7.41739 58.5996 6.7745 58.6128 6.12537C58.6128 6.0849 58.6033 5.9373 58.5866 5.69209C58.5773 5.50102 58.5542 5.31087 58.5174 5.12312L58.5031 5.0398C58.4631 4.71255 58.3788 4.39223 58.2527 4.08755C58.1045 3.71699 57.9183 3.36276 57.6969 3.03054C57.467 2.68523 57.1954 2.36942 56.8883 2.09019C56.5761 1.80459 56.2281 1.56053 55.8531 1.3641L55.4071 1.1427C55.3045 1.0927 55.2186 1.04985 55.1447 1.02366C55.0707 0.997477 54.992 0.976052 54.8895 0.940343C54.763 0.89511 54.6128 0.845117 54.4482 0.787981C54.2836 0.730846 54.1548 0.697517 54.0141 0.668949C53.9445 0.650334 53.8735 0.637593 53.8018 0.630859H42.9966V20.1259L42.999 20.1283ZM53.3247 17.3822C53.2792 17.3826 53.2338 17.3794 53.1888 17.3727H45.7837V11.8972H53.2699C53.4339 11.9066 53.5952 11.9437 53.7469 12.0067C53.9091 12.0615 54.0403 12.1091 54.1453 12.152L54.2144 12.1829L54.2454 12.1948C54.3657 12.2347 54.4786 12.2942 54.5794 12.371C54.788 12.4886 54.9738 12.6426 55.128 12.8257C55.2864 13.0117 55.4188 13.2183 55.5216 13.4399C55.6142 13.6355 55.6876 13.8396 55.741 14.0493C55.7923 14.2404 55.8196 14.4371 55.8221 14.635C55.8054 15.1456 55.6611 15.644 55.4023 16.0848C55.2607 16.3581 55.0651 16.6001 54.8273 16.796C54.5896 16.992 54.3146 17.138 54.0188 17.2251C53.9306 17.2489 53.8423 17.2727 53.735 17.306C53.6018 17.3501 53.4627 17.3742 53.3223 17.3775L53.3247 17.3822ZM53.2723 8.83573H45.7861V3.36026H53.3581C53.5227 3.36614 53.6846 3.40331 53.8352 3.46977C53.8863 3.49181 53.9389 3.51011 53.9926 3.52452C54.3383 3.60771 54.6564 3.77917 54.9157 4.02208C55.1315 4.22295 55.3128 4.45779 55.4524 4.71722C55.5701 4.93965 55.6629 5.17438 55.7291 5.41713C55.7896 5.63273 55.8224 5.8551 55.8269 6.07895C55.8246 6.27522 55.7974 6.47042 55.7458 6.65982C55.6925 6.86879 55.619 7.07209 55.5263 7.26689C55.4292 7.47473 55.3092 7.67114 55.1685 7.85252C55.0163 8.04832 54.8286 8.21386 54.6151 8.34055C54.5407 8.38942 54.4634 8.43394 54.3838 8.47387C54.3033 8.5138 54.2205 8.54878 54.1357 8.57862C54.0355 8.61671 53.921 8.66194 53.7851 8.70955C53.6226 8.77928 53.4489 8.81959 53.2723 8.82858V8.83573Z" fill="black"/>
<path d="M60.8682 20.1283H63.6553V0.640381H60.8682V20.1259V20.1283Z" fill="black"/>
<path d="M72.5392 19.945C72.8111 19.995 73.126 20.0378 73.4719 20.0759C73.7729 20.1086 74.0754 20.1261 74.3782 20.1283C74.9016 20.1286 75.4239 20.0799 75.9382 19.9831C76.4404 19.891 76.9319 19.7482 77.4052 19.5569C77.5387 19.4974 77.689 19.4236 77.8369 19.3474C78.0039 19.2593 78.166 19.176 78.3235 19.0975C78.8557 18.8045 79.3513 18.4497 79.8 18.0405C80.2813 17.6269 80.6999 17.1457 81.0427 16.6121C81.3792 16.0821 81.6636 15.5208 81.8918 14.9361C82.1024 14.3779 82.2512 13.7983 82.3355 13.2078C82.3546 13.0887 82.3713 12.9602 82.3903 12.8054C82.4046 12.6864 82.4118 12.6007 82.4142 12.5602V0.640381H79.6246V12.4888C79.6153 12.6703 79.5849 12.85 79.534 13.0245C79.4968 13.2056 79.4466 13.3838 79.3837 13.5577C79.0406 14.7324 78.3049 15.7544 77.299 16.4538C76.8485 16.7682 76.3488 17.0056 75.8201 17.1561C75.1192 17.36 74.3834 17.416 73.6596 17.3205C72.9358 17.225 72.2399 16.9801 71.6161 16.6014C70.6233 15.9904 69.8596 15.0701 69.4431 13.9827C69.3673 13.7849 69.3028 13.5831 69.25 13.378C69.1962 13.1851 69.1563 12.9886 69.1307 12.79C69.106 12.7008 69.094 12.6087 69.0949 12.5162V0.640381H66.3125V12.6317C66.3125 12.6317 66.3125 12.6697 66.3221 12.7269C66.3316 12.815 66.3435 12.9245 66.3626 13.0578C66.3817 13.1911 66.4008 13.3244 66.427 13.4601C66.4556 13.6172 66.4819 13.7553 66.501 13.872C66.5129 13.9267 66.5344 14.0077 66.563 14.1029C66.5916 14.1981 66.625 14.2933 66.656 14.3719L66.6798 14.4362C66.762 14.7186 66.8583 14.9967 66.9685 15.2694C67.18 15.7928 67.4548 16.2884 67.7866 16.7454C68.1469 17.2506 68.563 17.7137 69.0269 18.1262C69.5445 18.6086 70.1324 19.01 70.7706 19.3165C71.3376 19.5833 71.9296 19.7938 72.538 19.945H72.5392Z" fill="black"/>
<path d="M84.5718 16.999C84.8372 17.4689 85.1735 17.8953 85.5688 18.2631C85.9544 18.6185 86.3803 18.9277 86.8378 19.1844C87.2642 19.424 87.7152 19.6172 88.183 19.7606C88.6047 19.8911 89.0363 19.9874 89.4735 20.0486L89.5212 20.0558C89.6079 20.0717 89.6955 20.0821 89.7836 20.0867L90.1866 20.1129C90.5681 20.1345 90.9506 20.1305 91.3316 20.101C91.5701 20.0843 91.8182 20.0605 92.0543 20.0319C92.2616 20.0089 92.4672 19.9723 92.6697 19.9224C92.8772 19.8701 93.0561 19.8201 93.2112 19.7677C93.7987 19.55 94.354 19.2536 94.8618 18.8869C95.2638 18.5937 95.6165 18.2385 95.9065 17.8346C96.1551 17.4795 96.3399 17.084 96.4527 16.6657C96.5697 16.2132 96.6282 15.7476 96.6268 15.2802C96.6246 14.8632 96.5847 14.4473 96.5076 14.0375C96.4304 13.6292 96.3013 13.2324 96.1235 12.8567C95.9337 12.462 95.6817 12.1003 95.377 11.7854C94.9957 11.4023 94.563 11.0738 94.0913 10.8094C93.9411 10.7165 93.7788 10.626 93.5904 10.5332C93.402 10.4404 93.2159 10.3499 93.0537 10.2785L92.9726 10.238C92.8783 10.1831 92.7811 10.133 92.6816 10.088C92.5314 10.019 92.4026 9.95233 92.2904 9.88805C91.8945 9.69998 91.4938 9.50001 91.0978 9.29289L89.9052 8.66678C89.8217 8.62631 89.7215 8.56918 89.6237 8.50966C89.5736 8.47871 89.5164 8.44777 89.4615 8.4192C88.927 8.16056 88.4843 7.7453 88.1926 7.22888C87.9615 6.82992 87.8329 6.38012 87.8181 5.91953C87.8037 5.44153 87.919 4.96853 88.152 4.55066C88.3581 4.19245 88.6573 3.89638 89.0179 3.69363C89.3435 3.51486 89.6978 3.39402 90.065 3.33654C90.7368 3.21844 91.425 3.22975 92.0925 3.36987C92.4911 3.45326 92.8757 3.59273 93.235 3.7841C93.6037 3.98135 93.9452 4.22541 94.2511 4.51019C94.4081 4.65515 94.5511 4.81457 94.6781 4.98632L96.9966 3.82933L96.9894 3.81266C96.7215 3.36054 96.3888 2.94991 96.0019 2.59378C95.6111 2.23511 95.1824 1.91981 94.7234 1.65343C94.3009 1.40859 93.852 1.21214 93.3853 1.06779C92.9781 0.942387 92.5618 0.848471 92.1402 0.786874C92.04 0.786874 91.9183 0.779732 91.7752 0.77021L91.3292 0.741642C91.1908 0.732119 91.0215 0.717836 90.8211 0.701172C90.41 0.703831 89.9996 0.734853 89.5927 0.794016C89.1762 0.851037 88.7663 0.949123 88.3691 1.08683C88.0984 1.17914 87.8366 1.29547 87.5867 1.43441C87.2955 1.59285 87.0164 1.77269 86.7519 1.97243C86.4796 2.17694 86.2236 2.40219 85.9862 2.64615C85.7764 2.86126 85.5981 3.10491 85.4567 3.36987C85.3864 3.4926 85.3227 3.61895 85.2659 3.74839C85.2038 3.88884 85.1538 4.0055 85.1204 4.09358C85.1008 4.14354 85.0863 4.1954 85.0774 4.24832C85.056 4.36735 85.0345 4.45782 85.013 4.53162C84.9804 4.73429 84.9581 4.9385 84.9463 5.14344C84.9296 5.39103 84.92 5.53863 84.92 5.58624C84.9226 6.00082 84.9625 6.41434 85.0393 6.82179C85.1165 7.22718 85.2481 7.62034 85.4304 7.99068C85.6323 8.39263 85.8927 8.76248 86.2033 9.08816C86.5702 9.47084 86.9962 9.79234 87.4651 10.0404C87.6344 10.1261 87.8324 10.2261 88.0352 10.3309C88.2188 10.4285 88.393 10.5189 88.5504 10.607C88.6864 10.6572 88.8194 10.7152 88.9487 10.7808L89.2588 10.9355C89.4544 11.0331 89.681 11.1498 89.941 11.2831C90.201 11.4164 90.449 11.5497 90.6804 11.6735L91.3101 12.0163C91.4365 12.0854 91.5224 12.1354 91.5749 12.1544L91.6608 12.1901C92.2401 12.3967 92.7467 12.767 93.1189 13.2558C93.4912 13.7446 93.713 14.3309 93.7574 14.9433C93.7731 15.4209 93.655 15.8933 93.4163 16.3074C93.206 16.6537 92.9104 16.9406 92.5576 17.1407C92.2321 17.3198 91.8777 17.4406 91.5105 17.4978C90.8322 17.6161 90.1376 17.604 89.4639 17.462C89.0792 17.3791 88.7065 17.2479 88.3548 17.0716C87.9792 16.8834 87.6322 16.643 87.3243 16.3574C87.159 16.204 87.0088 16.0349 86.8759 15.8527L84.5765 17.0097L84.5718 16.999Z" fill="black"/>
<path d="M41.3033 10.3654C41.3139 11.7481 41.0386 13.1181 40.4947 14.3898C39.978 15.6065 39.2304 16.712 38.2931 17.6454C37.3535 18.5742 36.2469 19.318 35.0313 19.8379C33.7602 20.3723 32.3949 20.6476 31.0157 20.6476C29.6365 20.6476 28.2712 20.3723 27.0001 19.8379C25.7789 19.3142 24.6675 18.5655 23.724 17.6311C22.7811 16.6933 22.028 15.5832 21.5057 14.3613C20.9717 13.089 20.6968 11.7233 20.6968 10.3439C20.6968 8.96454 20.9717 7.59892 21.5057 6.32661C22.5555 3.84899 24.5241 1.87222 27.0001 0.809487C28.276 0.272678 29.6469 -0.00268167 31.0315 -0.000227884C32.416 0.0022259 33.786 0.282443 35.0599 0.823771C36.2795 1.35556 37.3865 2.1142 38.3218 3.05919C39.2573 4.00797 40.0007 5.12786 40.5114 6.35756C41.0434 7.62747 41.3135 8.99134 41.3057 10.3677L41.3033 10.3654ZM29.6084 4.35783C29.1243 4.47802 28.6566 4.65628 28.2154 4.88871C27.7386 5.14026 27.2947 5.44971 26.894 5.81002C26.4625 6.19955 26.0919 6.65132 25.7944 7.15031C25.4289 7.74231 25.1743 8.39571 25.043 9.07863C25.0049 9.28337 24.9739 9.4881 24.9452 9.69284C24.9155 9.91536 24.9011 10.1397 24.9023 10.3642C24.8992 11.1663 25.0615 11.9605 25.3793 12.6972C25.6888 13.4222 26.134 14.0815 26.6912 14.6398C27.2511 15.2007 27.9123 15.6506 28.64 15.9658C29.3825 16.2855 30.1823 16.4515 30.991 16.454C31.7996 16.4564 32.6004 16.2952 33.3449 15.9801C34.8075 15.3643 35.9758 14.2093 36.6067 12.7555C36.9348 12.0024 37.1006 11.1889 37.0933 10.3677C37.0901 9.80202 37.0155 9.23895 36.8715 8.69178C36.7182 8.10837 36.4743 7.55251 36.1488 7.04438C35.7964 6.50304 35.3646 6.01754 34.8679 5.60409C34.3034 5.14037 33.6626 4.7779 32.974 4.5328C32.8028 4.47111 32.6252 4.42878 32.4445 4.40663C32.2663 4.38366 32.0896 4.35108 31.915 4.30902C31.7223 4.2679 31.527 4.24006 31.3306 4.2257L29.6036 4.36378L29.6084 4.35783Z" fill="url(#paint0_linear_2306_44)"/>
<path d="M36.5148 12.9627C36.5148 12.9627 38.0462 6.85519 33.086 4.98758C27.6727 2.95452 24.4252 7.80031 24.5659 11.8283C24.6995 15.61 27.2934 19.3785 32.8833 19.3274C34.5144 19.2413 36.0913 18.7136 37.4447 17.8007C38.798 16.8879 39.8767 15.6244 40.565 14.1459C40.1343 15.4019 39.4449 16.554 38.5411 17.528C37.6373 18.502 36.5392 19.2763 35.3174 19.8011C33.1644 20.7917 30.7342 21.0079 28.4396 20.4129C19.0464 18.3275 17.7584 4.1615 26.498 2.01893C35.4427 -0.171257 38.8846 8.54069 36.516 12.9508L36.5148 12.9627Z" fill="url(#paint1_linear_2306_44)"/>
<path d="M1.84614 22.7161L1.72688 22.7423L1.60762 22.7709C1.43484 22.8218 1.2684 22.8921 1.11148 22.9804C0.917185 23.0892 0.740304 23.2264 0.586727 23.3875C0.412328 23.5683 0.270331 23.7777 0.166923 24.0064C0.0483613 24.274 -0.0118076 24.5637 -0.00958682 24.8563C-0.0121846 25.0471 0.0135371 25.2373 0.0667415 25.4205C0.123646 25.6235 0.210465 25.8168 0.32435 25.9943C0.449493 26.1861 0.602188 26.3586 0.777547 26.5061C0.972967 26.6682 1.19594 26.794 1.43588 26.8775C1.50226 26.9042 1.57091 26.9249 1.64101 26.9394L1.85807 26.9775L1.92963 26.9894C1.94632 26.9894 1.96064 26.9894 1.96779 26.9894H3.09125V24.5468H1.94394V25.1539H2.47824V26.3847H2.00118C1.96091 26.3839 1.92088 26.3783 1.88192 26.368L1.76266 26.3371C1.72211 26.3252 1.68395 26.3157 1.65055 26.3037L1.57661 26.2799C1.41068 26.2158 1.25729 26.1231 1.12341 26.0062C1.0067 25.9033 0.906892 25.7828 0.827638 25.6491C0.753587 25.5228 0.698158 25.3865 0.663057 25.2444C0.628492 25.1122 0.610859 24.9762 0.61058 24.8397C0.608571 24.7324 0.619786 24.6252 0.643974 24.5206C0.665441 24.4421 0.698835 24.3373 0.74654 24.2064L0.753697 24.1897C0.760852 24.1755 0.765623 24.1636 0.770393 24.1517C0.779596 24.1308 0.790778 24.1109 0.803787 24.0921C0.849385 24.002 0.906293 23.918 0.97314 23.8422C1.04543 23.7617 1.1253 23.6884 1.21166 23.6232C1.29357 23.5593 1.38143 23.5035 1.47404 23.4565C1.5618 23.4114 1.65471 23.377 1.75073 23.3541H1.77936L1.80798 23.3446C1.87394 23.3245 1.94194 23.3117 2.01073 23.3065H3.09125V22.6995H2.01788L1.95109 22.709C1.90577 22.709 1.86761 22.7185 1.84137 22.7233L1.84614 22.7161Z" fill="black"/>
<path d="M18.3734 26.9977H19.0532L17.1378 22.9185L15.2153 26.9977H15.888L16.2267 26.2835H18.0323L18.371 26.9977H18.3734ZM17.7509 25.6764H16.5141L17.139 24.3671L17.7509 25.6764Z" fill="black"/>
<path d="M31.2446 26.9941H34.194V26.387H31.8588V22.697H31.2458V26.9822L31.2446 26.9941Z" fill="black"/>
<path d="M46.8311 26.9941H49.7804V26.387H47.4453V22.697H46.8311V26.9822V26.9941Z" fill="black"/>
<path d="M62.4175 26.9941H65.3633V26.387H63.0281V25.1515H64.1897V24.5444H63.0281V23.3041H65.3633V22.697H62.4175V26.9822V26.9941Z" fill="black"/>
<path d="M80.2366 26.9976H80.9045L80.0696 25.1122L80.1889 25.0336C80.3863 24.9103 80.5457 24.7347 80.6493 24.5265C80.7335 24.3501 80.7791 24.1577 80.7828 23.9623C80.7823 23.8775 80.7735 23.793 80.7566 23.71C80.7117 23.4825 80.6024 23.2727 80.4417 23.1053C80.3745 23.0294 80.2965 22.9636 80.2104 22.9101C80.1262 22.8595 80.0385 22.815 79.948 22.7767C79.9262 22.7689 79.9039 22.7626 79.8812 22.7577L79.7619 22.7268C79.7238 22.7172 79.6856 22.7101 79.6498 22.7029L79.5783 22.6958H78.0493V26.994H78.6623V25.2276H79.4352L80.2342 27.0012L80.2366 26.9976ZM79.5473 24.617H78.6647V23.3005H79.5473C79.5787 23.3006 79.6099 23.3046 79.6403 23.3124C79.6769 23.3185 79.7128 23.328 79.7476 23.341C79.8881 23.3938 80.0048 23.4952 80.0768 23.6266C80.1301 23.7289 80.1587 23.8423 80.1603 23.9575C80.1584 24.0728 80.1298 24.186 80.0768 24.2885C80.0065 24.4197 79.8888 24.5192 79.7476 24.567C79.716 24.5801 79.6833 24.5904 79.6498 24.5979C79.6164 24.6075 79.582 24.6131 79.5473 24.6146V24.617Z" fill="black"/>
<path d="M94.7568 26.9941H95.3698V25.4467L96.9942 22.709H96.2786L95.0526 24.7539L93.8337 22.709H93.1182L94.7568 25.4467V26.9941Z" fill="black"/>
</g>
<defs>
<linearGradient id="paint0_linear_2306_44" x1="24.3858" y1="18.2318" x2="37.6873" y2="2.46084" gradientUnits="userSpaceOnUse">
<stop/>
<stop offset="0.25" stop-color="#010101"/>
<stop offset="0.34" stop-color="#080808"/>
<stop offset="0.4" stop-color="#131414"/>
<stop offset="0.45" stop-color="#242425"/>
<stop offset="0.5" stop-color="#39393B"/>
<stop offset="0.53" stop-color="#525355"/>
<stop offset="0.54" stop-color="#565759"/>
<stop offset="0.84" stop-color="#C7C8C8"/>
<stop offset="1" stop-color="white"/>
</linearGradient>
<linearGradient id="paint1_linear_2306_44" x1="24.3259" y1="18.4155" x2="35.2122" y2="4.22458" gradientUnits="userSpaceOnUse">
<stop stop-color="white"/>
<stop offset="0.12" stop-color="#CBCBCC"/>
<stop offset="0.23" stop-color="#A0A1A2"/>
<stop offset="0.33" stop-color="#828384"/>
<stop offset="0.42" stop-color="#6F7072"/>
<stop offset="0.48" stop-color="#696A6C"/>
<stop offset="0.5" stop-color="#636466"/>
<stop offset="0.73" stop-color="#2E2E2F"/>
<stop offset="0.91" stop-color="#0C0C0D"/>
<stop offset="1"/>
</linearGradient>
<clipPath id="clip0_2306_44">
<rect width="97" height="27" fill="white"/>
</clipPath>
</defs>
</svg>
