<svg width="36" height="41" viewBox="0 0 36 41" fill="none" xmlns="http://www.w3.org/2000/svg">
<g clip-path="url(#clip0_2306_334)">
<path d="M21.1811 0C21.7554 0.432778 22.2688 0.264981 22.9016 0.321926C23.6551 0.3895 24.1359 0.853407 24.8613 1.00526C25.418 1.12446 26.1609 1.09181 26.6956 1.25354C27.4906 1.6685 28.2634 2.12467 29.0108 2.6202C29.4111 2.80091 29.8767 2.79863 30.356 3.03704C31.6518 3.68089 33.9549 6.88724 34.5185 8.2448C34.9119 9.19311 35.2021 10.1877 35.5409 11.1467C35.7851 11.6864 35.939 12.2625 35.9966 12.852C35.9417 13.2551 35.8633 13.6546 35.7619 14.0486C35.6692 15.0652 35.8705 16.2504 35.7619 17.2511C35.5614 18.9218 35.2682 20.58 34.8838 22.2182C34.5351 23.4488 34.067 24.6425 33.4862 25.7822C33.1307 26.669 32.9735 27.6332 32.5785 28.4775C32.2063 29.2725 31.6374 29.9429 31.2014 30.7037C30.7654 31.4645 30.454 32.3543 29.9565 33.0627C29.8592 33.2009 28.2155 34.7756 28.037 34.9069C27.4924 35.3086 27.0207 35.6252 26.5057 36.0549C24.7086 37.5552 21.0626 39.1345 18.8257 39.9522C17.244 40.4661 15.5995 40.7619 13.9378 40.8314C13.5469 40.8545 13.1584 40.9078 12.7757 40.9909C12.5167 40.9719 12.228 41.0182 11.9743 40.9909C10.531 40.7656 9.16339 40.1957 7.98733 39.3296C7.14426 38.8576 6.33466 38.3282 5.56428 37.7451C4.86751 37.136 4.21278 36.4806 3.60459 35.7831C3.07911 35.1766 2.59686 34.5339 2.16139 33.8599C1.82433 33.1848 1.56835 32.4723 1.39878 31.737C0.836069 30.3187 0.435018 28.8415 0.203214 27.3333C-0.196322 24.5841 0.118901 21.6214 0.121939 18.8463C0.066342 17.8005 0.142903 16.7517 0.349811 15.725C1.21561 11.4069 3.26953 7.41596 6.28056 4.20098C6.80011 3.64596 7.40777 3.10917 7.88402 2.60654C8.67398 1.77135 13.1031 0.618796 14.3328 0.498074C14.4528 0.485926 14.6161 0.574 14.8037 0.559574C15.1729 0.524648 15.6172 0.264981 16.092 0.236889C16.986 0.183741 17.5731 0.652963 18.4193 0.560333C19.0096 0.427898 19.5861 0.240295 20.1413 0L21.1811 0ZM35.3631 13.5702C35.4117 13.1306 35.3282 12.6181 35.3631 12.1686C34.7798 12.1018 34.2116 12.5855 33.6214 12.7897C33.0962 12.9938 32.5389 13.1028 31.9754 13.1116C31.2804 12.9537 31.4559 11.9257 32.078 11.647C32.2929 11.5506 32.5428 11.5658 32.716 11.4838C33.0647 11.3183 33.2751 10.5939 33.9108 10.9774L33.885 11.3707C33.233 11.5486 32.6254 11.8605 32.1008 12.2863C32.0597 12.7996 33.4011 12.5073 33.6472 12.2522C33.7505 12.1451 33.7407 11.9743 33.8136 11.9211C34.0506 11.7488 34.8056 11.9614 34.9856 11.5893C35.1922 11.1626 34.7904 10.6129 34.64 10.2098C33.9782 8.29122 32.9459 6.5213 31.6017 5.00048C31.3844 4.63813 31.1438 4.29017 30.8816 3.95878C30.296 3.40907 29.4248 3.39313 28.726 3.07044C28.0667 2.76674 27.3899 2.04393 26.7921 1.80096C26.0169 1.59163 25.2266 1.44287 24.4283 1.35604C24.3218 1.33429 24.2112 1.34571 24.1113 1.38874C24.0115 1.43178 23.9273 1.50437 23.87 1.59672C23.4546 1.17779 22.9178 0.900195 22.3357 0.803296C21.9559 0.785074 21.6893 1.15104 21.2723 1.03563C21.2662 0.818481 21.2472 0.519333 20.9859 0.476056C20.1618 0.46163 19.0946 0.997667 18.3411 1.04094C17.8835 0.992992 17.43 0.911275 16.9845 0.796463C16.4744 0.798137 15.9656 0.84899 15.4653 0.948315C15.1472 0.896967 14.8251 0.874099 14.5029 0.879982C14.2895 0.920222 14.1459 1.1518 14.0001 1.18369C13.8543 1.21557 13.6606 1.09865 13.4616 1.11535C12.8965 1.15794 12.3399 1.27749 11.8072 1.47069C11.669 2.13731 11.5034 3.89652 12.6139 2.9968C12.7711 2.87 13.2215 2.03937 13.3385 2.60274C13.4084 2.93074 13.2215 2.85026 13.1107 3.00894C13.0605 3.0788 13.0582 3.1942 12.996 3.2557C12.288 3.95878 11.4008 3.98611 11.2672 2.83052C11.281 2.49028 11.2744 2.14952 11.2474 1.81007C11.135 1.47069 10.1574 1.886 9.99184 2.12593C10.061 2.46607 10.0025 2.80926 10.0678 3.15244C10.1438 3.58143 10.5775 4.34069 10.102 4.72335C9.11453 5.5183 8.41497 4.1615 8.54865 3.29139L9.01731 3.19952C8.8859 3.49563 9.40925 4.95113 9.7822 4.40446C10.061 3.99674 9.37203 2.76067 9.49736 2.2383C9.29126 2.22885 9.08757 2.2858 8.91628 2.40078C8.352 2.73436 7.84329 3.15397 7.40853 3.64444C6.8905 4.12126 6.3155 4.42193 6.0413 5.16296C6.14384 5.25711 6.64212 5.0263 6.70668 4.96783C6.78264 4.89798 6.76593 4.77498 6.80771 4.73246C6.99 4.55252 7.29687 4.17669 7.54981 4.33385C7.91745 4.56163 6.90721 5.15006 6.77125 5.41352C6.6801 5.59043 6.58287 6.07104 6.80163 6.16291C7.07052 6.24567 6.97405 5.94348 7.20041 5.91767C7.85744 5.84174 7.08115 6.65567 7.20041 6.88496C7.86731 6.78702 7.73211 5.95335 8.36103 6.00422C8.28508 6.47193 7.9653 7.33824 7.42828 7.42252C7.3903 7.42783 6.73403 7.35798 6.69833 7.34659C6.53938 7.1986 6.3928 7.03786 6.26005 6.86598C6.1841 6.69211 6.18789 6.47572 6.12333 6.28211C6.07396 6.13557 5.91673 6.0065 5.89014 5.86756C5.85444 5.68154 6.09067 5.34291 5.84001 5.3672C5.37439 5.91919 4.87991 6.44232 4.4667 7.03757C3.74626 8.15087 3.12531 9.32542 2.61106 10.5476C1.91907 11.7489 1.42631 13.0543 1.15192 14.413L2.35433 14.0129C1.99277 12.9074 2.00872 12.4594 3.26202 12.9074C3.5604 13.0045 3.82825 13.1777 4.03906 13.41C3.70485 13.9468 2.78425 12.852 2.75158 13.5695C2.72576 14.1412 3.27037 14.0676 3.31975 14.5694C2.87236 14.8822 1.92213 14.1571 1.73375 14.7881C1.55829 15.3773 2.43864 15.7486 2.92021 15.8116L2.91033 16.0841C2.01632 16.2573 1.59323 15.5929 1.03647 15.0546C0.756184 15.0546 0.609586 16.2056 0.592876 16.4494C0.462229 18.3293 0.74479 20.3094 0.516918 22.1438C0.329884 23.8706 0.359738 25.614 0.605787 27.3333C0.692418 28.5048 0.980195 29.6526 1.45651 30.7265C1.7216 31.3255 1.78996 32.1956 2.05733 32.8478C2.77143 34.343 3.77104 35.6842 4.99992 36.796C5.12297 36.8879 5.50124 37.1316 5.64404 37.0405C5.84747 36.7497 6.02199 36.4397 6.16511 36.1149C6.26385 35.7194 6.18638 35.2721 6.65276 35.0019C7.03254 34.7809 7.48221 35.0482 7.88326 35.0778C8.04961 35.2699 7.33865 36.6768 6.84493 36.4369C7.11837 36.7694 7.47917 37.0648 7.40473 37.556C7.23914 37.7352 6.63756 36.6745 6.17194 36.7497C6.05269 36.9577 5.84153 37.3267 5.91445 37.559C6.00332 37.8415 7.16319 38.3601 7.50272 38.5969C7.91441 38.8839 8.33825 39.1436 8.78791 39.4169C9.83829 40.1452 11.0648 40.5786 12.3397 40.672C16.5789 40.6819 20.0934 39.1049 23.7272 37.1794C24.1465 36.9569 24.6326 36.8408 25.0534 36.5826C25.93 36.0451 26.7488 35.2615 27.5562 34.6799C27.8342 34.4802 27.8942 34.1583 28.012 33.9746C28.0393 33.9313 28.729 33.6443 28.9159 33.4765C29.4451 32.802 29.889 32.0647 30.2375 31.2815C30.8988 30.3638 31.4928 29.3996 32.0149 28.3963C32.3765 27.5437 32.5671 26.3668 32.9203 25.5377C33.4715 24.5748 33.9352 23.5645 34.3058 22.5189L34.5246 20.9745L33.1573 21.4301L32.9583 21.1385C33.4548 20.878 34.0018 20.728 34.5618 20.6989C34.7219 20.395 34.8283 20.0657 34.8762 19.7256C34.9606 19.2267 35.0281 18.6337 35.1041 18.1159C35.2871 16.8883 35.2935 15.6409 35.1231 14.4115C34.6848 14.4115 32.7578 14.7699 32.7175 15.252C32.6985 15.4843 32.9705 15.87 32.6795 16.0917C32.2739 15.6423 31.7278 15.0136 32.5018 14.6355C33.2183 14.3899 33.947 14.1811 34.6848 14.0099C34.88 14.0099 34.9886 14.1313 35.1603 14.1731C35.2423 14.1571 35.3502 13.6803 35.3624 13.5725L35.3631 13.5702ZM7.40397 35.4673C7.32718 35.4515 7.24767 35.455 7.17257 35.4775C7.09747 35.5 7.02912 35.5407 6.97365 35.5961C6.91817 35.6515 6.87731 35.7198 6.85471 35.7948C6.83211 35.8698 6.82849 35.9493 6.84417 36.0261C7.03938 36.0929 7.43663 35.4923 7.40397 35.4673Z" fill="black"/>
<path d="M26.936 20.5623C26.9132 20.6003 26.5258 20.6899 26.7886 20.8584C27.0112 21.0019 27.7601 20.7347 27.9553 21.1363C28.1323 21.5 27.6515 21.7711 27.5133 22.0573C27.7146 22.1742 27.9759 22.1856 27.9098 22.4931L26.6907 23.0557C26.0526 23.6525 25.1639 24.0762 24.4742 24.6236C24.336 24.7344 24.282 24.9273 24.1294 25.0032C23.9137 25.1027 23.3227 25.0207 23.2042 25.2378C23.1123 25.4056 23.3128 25.8141 22.9444 25.9804C22.6315 26.1216 22.3869 25.8597 22.0071 26.0047C21.919 26.0381 20.5039 26.9917 20.4386 27.0585C20.3102 27.1907 20.2867 27.5308 20.0535 27.735C19.5704 28.1572 18.7622 28.1488 18.4174 28.4184C18.2753 28.53 18.1948 28.8041 18.0596 28.9415C17.8393 29.1647 17.4785 29.3477 17.2552 29.5778C16.9651 29.8769 15.9374 31.2481 15.7361 31.3468C15.6809 31.3643 15.6218 31.3655 15.566 31.3501C15.5102 31.3348 15.4601 31.3036 15.4216 31.2603C15.0107 30.927 15.5789 30.5405 15.4976 30.1024C15.158 30.4016 15.114 30.7205 14.5481 30.5709C14.269 29.9642 14.1841 29.2862 14.3051 28.6294C14.3582 28.2809 14.5398 27.956 14.5983 27.6424C14.9226 25.9029 15.0882 24.1939 15.5158 22.4749C15.6358 21.9928 15.7976 21.8485 16.3005 21.9366C16.2769 21.667 16.3361 21.3626 16.2967 21.1014C16.2693 20.9237 15.97 20.6337 16.2169 20.4515C16.3551 20.349 17.1367 20.7445 17.4618 20.7438C17.8675 20.6828 18.2697 20.6001 18.6665 20.4963C20.1797 20.3026 21.7097 20.2771 23.2285 20.4203C23.7845 20.4742 24.3846 20.765 24.9512 20.8212L24.9102 21.0604L23.347 20.8174C23.3113 20.9936 23.4351 20.9981 23.5437 21.0604C24.0741 21.232 24.6357 21.2854 25.189 21.2168C24.9026 20.5775 26.0541 20.6671 26.4628 20.4871L26.4818 20.191C26.7484 19.9579 27.0818 20.3201 26.9375 20.5638L26.936 20.5623ZM26.2334 21.6169C25.783 21.4332 25.2733 21.8834 24.9816 21.9138C23.8119 22.0338 22.9953 21.2601 21.9851 20.9374C20.6566 20.5137 21.4078 21.4021 21.2331 21.6207L20.7857 21.7771C20.7607 20.5069 19.237 21.1454 18.4614 21.2973V21.5349C18.6354 21.5129 19.9426 22.0277 19.7428 22.1757C18.9872 22.072 18.2451 21.8867 17.5294 21.623C16.7797 21.5547 16.8405 22.0975 16.2161 22.3124C16.1782 23.0398 15.9936 23.7451 15.8941 24.4626C15.8975 24.6884 15.8503 24.912 15.7558 25.1171C15.478 25.9651 15.2435 26.8267 15.0532 27.6986C14.925 28.305 14.8591 28.923 14.8565 29.5428C15.1748 29.5785 15.3122 29.233 15.5401 29.063C16.8139 28.0866 17.8986 27.2476 19.2263 26.341C19.5567 26.1133 20.1834 25.2523 20.5601 25.9303H20.6498C21.0544 25.7715 21.4334 25.554 21.7747 25.2849C23.0918 24.3738 24.3443 23.2182 25.6014 22.2243C25.7306 22.1218 26.418 21.8029 26.2357 21.6169H26.2334ZM15.5789 30.0219L17.3456 28.7054L17.3844 28.4184C16.9795 28.123 16.763 28.7373 16.5352 28.9354C16.4463 29.0113 16.3012 29.0349 16.2253 29.1063C15.9335 29.3504 15.7097 29.6659 15.5758 30.0219H15.5789Z" fill="black"/>
<path d="M16.8587 8.72683L17.1041 8.67823C17.2241 8.08677 17.7208 7.94479 17.8819 8.61066C17.4808 8.80199 17.6449 8.99712 17.5423 9.29399C17.4717 9.49519 17.2385 9.70779 17.1383 9.93025C16.8436 10.7671 16.6364 11.6322 16.52 12.5117C16.4873 12.6636 16.3202 12.8276 16.3118 12.943C16.3035 13.0584 16.4934 13.1708 16.4638 13.4054C16.4394 13.5838 16.1242 13.8025 16.0748 14.0705C16.0255 14.3385 16.1561 14.5222 16.1235 14.6726C15.9528 15.1198 15.8241 15.5819 15.7391 16.0529C15.7355 16.4064 15.7867 16.7583 15.891 17.0961C15.9331 17.4075 15.9562 17.7212 15.9602 18.0353C15.9267 18.3155 15.6973 18.2631 15.5325 18.4112C15.0358 18.8477 15.5371 19.3542 15.2188 19.626C15.0806 19.7125 14.4881 19.6169 14.4539 19.4954C14.4387 19.2054 14.7258 19.2114 14.8702 18.9525C14.9703 18.7628 15.0197 18.5504 15.0137 18.336L13.7331 18.6572C13.8508 18.8591 14.2177 18.7733 14.1326 19.1363L13.3054 19.1401C13.0153 18.4089 12.8262 18.9168 12.3332 18.9783C11.8787 19.0207 11.4204 18.9912 10.9751 18.891C10.7297 18.8052 10.6712 18.6192 10.4502 18.5349C9.50387 18.1737 8.474 18.0902 7.48179 18.2942C6.46245 18.5402 6.51789 19.0178 5.20307 18.8933C5.05116 18.8789 4.93874 18.7528 4.79138 18.7415C4.59086 18.721 3.91787 19.008 3.87989 18.7794C3.84115 18.5661 4.27107 18.109 4.51794 18.0961L4.37286 17.7278C4.48679 17.2548 5.04052 17.4667 5.32232 17.3406C5.82216 16.9647 6.29478 16.5539 6.73665 16.1114C6.88856 15.9967 7.12023 15.9747 7.2881 15.8616C7.74384 15.5579 8.76775 14.2618 9.14906 14.1912C9.35414 14.1533 9.52884 14.3241 9.72861 14.2216C10.1499 13.8339 10.5968 13.475 11.0662 13.1472C11.2235 13.1336 11.3366 13.397 11.3283 13.5314C11.0378 13.6663 10.7692 13.8439 10.5315 14.0583C9.81065 14.6862 9.04879 15.4941 8.40467 16.1774C7.91247 16.7006 7.81448 17.1926 6.92578 16.9822C6.94887 17.0739 6.99637 17.1576 7.06324 17.2245C7.13012 17.2913 7.21386 17.3388 7.30557 17.3619C7.94893 17.5137 9.62987 16.9162 10.4198 16.8304C11.5034 16.7214 12.5965 16.752 13.6723 16.9215C14.1562 17.0354 14.5838 17.3809 15.0958 17.3771C15.1522 16.5686 15.2739 15.766 15.4596 14.977C15.6981 13.6104 15.8394 12.1982 16.0809 10.7943C16.2192 9.99251 16.6734 9.40712 16.5367 8.5689C16.3718 8.39883 15.0859 9.59314 14.893 9.76777C14.5534 10.0753 13.961 10.9067 13.5136 10.9598C13.3434 10.9795 13.2918 10.8512 13.1999 10.8338C12.8079 10.7647 12.8299 11.1132 12.6788 11.3167C12.4676 11.6006 11.9671 12.2095 11.5972 12.2392C11.2637 12.2657 11.5523 11.7001 11.6556 11.5748C11.759 11.4495 12.7631 10.4959 12.8922 10.4086C13.0396 10.3091 13.408 10.2294 13.4733 10.1482C13.5386 10.0669 13.5166 9.89988 13.6176 9.76852C13.7794 9.56352 14.2686 9.43749 14.4319 9.26058C14.5177 9.16795 14.5223 8.99864 14.6529 8.88095C14.8185 8.7291 15.1558 8.71392 15.2363 8.62205C15.6161 8.18927 15.9814 7.80129 16.422 7.36623C16.6066 7.18477 16.681 6.9661 16.9104 6.81349C17.3053 6.55422 17.7785 6.44115 18.248 6.49384L18.3855 6.68366C18.1356 7.56288 16.5124 7.58641 16.8587 8.72303V8.72683ZM14.3476 17.7195C13.8111 17.3988 13.2004 17.2232 12.5755 17.21C12.0506 17.1888 10.9933 17.1797 10.4905 17.21C10.0636 17.2381 9.52353 17.4651 9.08677 17.532L9.18627 17.7111C9.92534 17.7757 11.0093 18.4841 11.6929 18.4985C12.2464 18.4762 12.7972 18.4084 13.3396 18.2958C13.7008 18.1424 14.0743 18.02 14.4562 17.9298C14.4328 17.8538 14.3961 17.7825 14.3476 17.7195ZM7.56459 17.9344C6.95009 17.7764 5.94745 17.4932 5.88289 18.4135L6.68044 18.2927L7.56459 17.9344Z" fill="black"/>
<path d="M25.8288 14.4106L25.9048 13.4054L26.1494 13.3697C26.2024 13.9053 26.3022 14.4353 26.4479 14.9535C26.6717 15.5206 26.9753 16.0529 27.3495 16.5343C27.9176 17.1189 28.5332 17.6555 29.19 18.1386C29.3738 18.2904 30.1569 18.8591 29.8979 19.0398C29.5272 19.2987 29.3662 18.8333 29.1072 18.6215C29.0092 18.5418 28.4646 18.1887 28.3932 18.2547C28.7251 18.8166 28.4874 19.2615 29.3548 19.216L29.1983 19.5789C28.8801 19.7983 27.983 19.2676 27.5523 19.2896C27.0783 19.3139 26.4623 19.7725 25.9109 19.6146L25.819 19.0664L24.7897 18.976L25.4908 19.8978L25.0738 20.1787C24.754 19.5485 24.6416 19.0634 23.8676 18.9768C22.6766 18.8432 21.4005 19.1089 20.2004 19.0527C20.0196 19.3914 19.9923 19.2099 19.7082 19.2114C18.7853 19.1818 17.8614 19.2092 16.9418 19.2934C16.7899 18.7217 17.1454 18.1963 17.0998 17.6132H17.5009C17.5829 17.9169 17.0535 18.6564 17.5426 18.7392C17.8875 18.7969 17.9505 18.4704 18.0971 18.4476C18.4648 18.3899 19.4932 18.6754 20.028 18.6579C21.3015 18.4935 22.5843 18.4124 23.8684 18.415C24.7305 18.4909 25.5622 18.5797 26.4319 18.6549C26.7707 18.6845 27.2637 18.9647 27.5113 18.6853C27.5675 18.4962 27.01 17.7202 26.8755 17.5145C26.3545 16.718 25.5364 15.7264 25.0442 14.9201C24.9348 14.7401 24.912 14.4767 24.7814 14.3028C24.6211 14.0887 24.1737 13.9596 24.1114 13.851C24.0492 13.7425 24.0856 13.5823 24.0279 13.454C23.8859 13.1366 23.386 13.0743 23.3602 13.0402C23.3253 12.9969 23.3602 12.8124 23.3306 12.7122C23.1954 12.2634 23.0131 12.3409 22.789 12.0493C22.6082 11.814 22.5004 11.473 22.2695 11.2088C21.9094 10.7988 21.2927 10.6872 21.3512 10.0935C21.6081 10.0008 21.8892 9.99919 22.1472 10.0889C21.7929 9.30299 21.195 8.65186 20.4419 8.23177C20.3356 8.16951 20.1746 8.19001 20.0697 8.12395C19.9072 8.02069 19.6953 7.4596 19.399 7.53553C18.9782 7.64334 18.7633 9.25677 18.704 9.65006C18.5392 10.7457 18.5126 11.6674 18.2437 12.7949C18.1974 12.9908 18.4245 13.372 17.9824 13.293C18.0073 12.988 18.0073 12.6815 17.9824 12.3766C17.9878 12.1045 17.9623 11.8327 17.9065 11.5664C17.8169 10.9765 18.1245 10.9476 18.1875 10.6553C18.224 10.4875 17.9597 10.325 18.1609 9.82621C18.3497 9.28223 18.4855 8.72133 18.5666 8.15129C18.6532 7.78305 18.8909 7.35027 18.9365 6.99949C18.9669 6.7664 18.8727 6.0618 19.0185 5.96006C19.2683 5.90794 19.5251 5.89845 19.7781 5.93197C20.448 6.02916 20.5544 6.56975 20.9471 7.0048C21.0678 7.13919 21.3436 7.24397 21.4317 7.40114C21.5418 7.59399 21.4886 7.78077 21.5676 7.98577C22.1692 9.51112 23.838 10.7776 24.4365 12.3234L25.8319 14.4114L25.8288 14.4106Z" fill="black"/>
<path d="M5.55936 20.1751C5.60038 20.4219 5.24338 20.39 5.23806 20.6117C5.23806 20.7438 5.54189 21.1492 5.62165 21.3542C6.04413 22.3716 6.51977 23.3661 7.04661 24.3336C7.16131 24.5667 7.3079 25.2447 7.33525 25.2864C7.36259 25.3282 7.54413 25.3214 7.64819 25.4383C7.78567 25.5902 8.03557 26.2059 8.20268 26.4633C8.52832 26.9808 8.89029 27.4745 9.28583 27.9408C9.66562 27.9514 9.14227 27.1952 9.1248 27.1436C8.84416 26.2611 8.5041 25.3987 8.10697 24.5621C8.01354 24.3731 7.78187 24.2705 7.73782 24.0443C7.69073 23.8044 7.83201 23.6282 7.80542 23.4301C7.63722 22.9827 7.44347 22.5454 7.22511 22.1203C7.15827 22.052 7.00939 22.0816 6.92128 21.9685C6.76101 21.7673 6.56048 20.8903 6.42831 20.7613C6.36603 20.6998 5.45454 20.5479 5.64595 20.3444C5.94603 20.2626 6.25287 20.2079 6.56276 20.1812C6.78304 20.2108 7.09446 20.6284 7.30866 20.7233C8.24142 21.131 9.40433 20.9351 10.3356 20.9822C10.8432 21.0053 11.3519 20.9798 11.8547 20.9063C12.217 20.8774 12.8573 20.841 13.2045 20.8531C13.2592 20.8531 13.408 20.8888 13.4187 20.9503L13.2121 21.4666C13.2774 21.5573 13.3614 21.633 13.4585 21.6884C13.5557 21.7438 13.6636 21.7777 13.7749 21.7878C13.9633 21.7931 13.8638 21.7718 13.8934 21.664C13.999 21.2844 13.9967 21.2244 13.6572 21.0247C13.8668 20.6162 15.3282 20.5479 15.4976 20.8653L14.7122 21.3596C14.2929 22.8781 13.7347 24.3343 13.2569 25.8293C14.0514 26.0115 13.465 26.9955 13.3594 27.5323C13.1999 28.8314 12.9295 30.1144 12.5512 31.3673C12.4882 31.5283 12.4692 32.1266 12.1433 31.8624C12.0385 31.7781 12.0674 31.2269 12.0894 31.0674C12.1813 30.4319 12.9751 29.4472 12.1304 29.1769L12.135 28.4715C12.1897 28.1959 12.4153 28.2271 12.4457 28.1815C12.476 28.136 12.3553 27.3767 12.3697 27.1869C12.433 26.6816 12.5559 26.1857 12.7358 25.7094C12.9994 24.9121 13.4658 24.023 13.7134 23.244C13.8277 22.9346 13.8858 22.6073 13.8851 22.2775C13.3442 22.0042 12.8399 22.0429 12.6416 21.3823L8.24826 21.3064L7.16738 21.0665L8.30219 23.4133C8.71008 24.2417 9.01619 25.4861 9.46054 26.2598C9.60486 26.5104 9.82665 26.603 9.92615 26.7526C10.4455 27.6042 11.0226 28.4193 11.6534 29.1921C11.9307 29.5094 12.1851 29.514 12.214 30.1123C11.6967 30.4919 10.8893 28.4192 10.2923 28.5938C10.2862 29.1351 10.726 29.4358 10.9675 29.7995C11.0572 29.9339 11.0511 30.1373 11.1369 30.2702C11.3443 30.5906 12.0195 30.6157 11.8965 31.0743L11.2569 30.9148C11.1977 31.7614 11.9542 32.3149 12.1859 33.0719L11.9307 33.3111L10.7594 31.3696C10.4465 29.4715 8.9539 28.363 7.93683 26.9044C7.77656 26.6767 7.64287 26.3175 7.44234 26.0374C7.35879 25.9212 7.1613 25.7883 7.12181 25.7094C7.04585 25.5575 7.24182 25.5006 7.21524 25.3859C7.04831 25.1289 6.86699 24.8815 6.67214 24.6449C5.95662 23.405 5.47657 22.0361 4.69725 20.8531C4.62888 20.7491 4.62129 20.5752 4.56432 20.5054C4.38658 20.2875 3.77133 20.5813 3.56396 20.3057C4.20884 19.529 4.81422 20.0111 5.56544 20.1865L5.55936 20.1751Z" fill="black"/>
<path d="M12.9318 36.988C13.4954 36.9614 13.6564 36.3631 14.2838 36.6767C14.4182 36.9971 14.1653 37.4359 14.1668 37.6683C14.1668 37.8474 14.4365 38.2066 14.1357 38.3918C13.74 38.6371 13.705 37.6888 13.6518 37.4686C13.3678 37.461 13.3305 37.808 13.329 38.0259C13.0651 38.0347 12.8014 38.0037 12.5467 37.934C12.4988 37.8907 12.4813 37.4116 12.2519 37.4686L11.882 38.18L11.2501 38.1891C11.2144 37.8019 11.5691 37.5528 11.683 37.3015C11.9109 36.7974 11.955 35.8779 12.7776 36.0624L12.9318 36.988Z" fill="black"/>
<path d="M28.7062 6.63666C28.6341 6.6738 28.5532 6.69059 28.4723 6.68525C28.0241 6.51138 27.7947 5.23355 27.832 4.80229C27.1673 4.63829 26.7048 5.88272 26.3888 6.04823C26.2369 6.12796 26.0652 5.98901 25.9087 6.00268C25.8897 5.44387 26.4123 5.27683 26.7025 4.99514C27.042 4.66411 27.2015 4.19336 27.7226 3.93218C27.9907 3.79779 28.7761 3.82664 28.9113 4.08403C29.2569 4.73775 28.5574 4.89796 28.4867 5.42185C28.4518 5.68531 28.8543 6.39825 28.7055 6.63666H28.7062Z" fill="black"/>
<path d="M22.545 34.1865C22.681 34.3186 22.0293 36.1462 21.9039 36.4279C21.3031 36.3162 21.114 35.6838 21.0168 35.1538C20.2952 35.0574 20.5314 35.5274 20.4425 35.9678C20.3392 36.4795 20.3119 37.1066 19.6609 37.0307C19.3229 36.6017 19.5272 36.2798 19.9002 35.9845C19.2743 35.5676 19.8242 35.2396 19.9192 34.6816C20.1266 34.4675 21.0912 34.6269 21.3062 34.8205C21.4847 34.9822 21.4915 35.2943 21.7854 35.3808L22.3035 34.2366L22.545 34.1865Z" fill="black"/>
<path d="M24.4902 4.66327C24.597 4.57121 24.6913 4.46553 24.7705 4.34894C25.0098 3.90933 25.2126 3.48718 25.4108 3.06655C25.5263 2.82207 25.7587 2.67173 25.6691 2.32247C25.4921 2.13418 24.6292 3.00581 24.6254 3.2427C24.6254 3.26851 24.8928 3.30951 24.788 3.52135L24.4682 3.6041V3.36342C23.7929 3.33988 23.7633 4.32996 23.0349 4.15457L22.8647 3.68534C23.2126 3.69749 23.3387 3.37709 23.5127 3.25029C23.8005 3.03997 24.1363 2.88584 24.4242 2.64288C24.8715 2.26325 25.1397 1.59283 25.9053 2.04762C26.2456 2.24959 26.0421 2.54646 25.9957 2.76892C25.8309 3.5464 25.5149 3.60031 25.224 4.2434C25.0485 4.63214 25.0599 5.40583 24.5464 5.08998C24.4975 5.03151 24.4663 4.96034 24.4563 4.88478C24.4464 4.80923 24.4581 4.7324 24.4902 4.66327Z" fill="black"/>
<path d="M31.3576 5.28438C31.4336 5.58201 31.17 5.81587 31.1222 6.04896C31.0804 6.25016 31.1852 6.68674 30.9847 6.80822C30.8852 6.86972 30.6642 6.85529 30.5935 6.96007C30.4272 7.20759 30.7978 7.93723 30.017 8.07011C29.0637 8.23259 30.3968 6.72166 30.2365 6.56373C29.9327 6.56373 29.7215 6.86744 29.4921 6.97981C29.3113 7.0694 28.6991 7.33666 28.7265 7.01777C28.769 6.53109 29.5058 6.34431 29.8309 6.11805C30.3018 5.79233 30.6748 5.23883 31.3576 5.28438Z" fill="black"/>
<path d="M5.79374 7.77477C5.85451 8.12935 5.65853 8.5644 6.00262 8.80508C6.09605 8.80508 6.24493 8.02761 6.40823 7.8507C6.52217 7.7277 6.78802 7.59407 6.83967 7.81349C6.72645 8.37607 6.53226 8.91927 6.26315 9.42616C6.07918 9.4981 5.88864 9.55201 5.69423 9.58712C5.05771 9.52638 5.46636 8.62894 5.4018 8.56592C4.90428 8.25007 4.47968 9.68203 4.15762 9.20826C3.90012 8.82863 4.84124 8.38446 5.00302 8.20755C5.25672 7.92814 5.19899 7.54624 5.79374 7.77477Z" fill="black"/>
<path d="M16.9886 36.0573C17.2636 36.2145 17.3813 36.8674 17.6555 37.1111C17.8652 37.2987 18.2632 37.2182 18.3004 37.6662C17.9305 37.9896 17.61 37.692 17.3365 37.4308C17.174 37.2744 17.1292 36.9752 16.8276 37.0747C16.6757 37.1279 16.2959 38.6168 15.8584 38.6692C15.4649 38.1916 15.8903 37.9562 16.0399 37.651C16.1159 37.4991 16.1007 37.2713 16.182 37.1521C16.2412 37.0641 16.4098 37.0474 16.4501 36.935C16.5261 36.7072 16.2397 36.421 16.3088 36.1643C16.3946 35.8493 16.7714 35.932 16.9924 36.0573H16.9886Z" fill="black"/>
<path d="M3.74399 12.2257C3.66272 12.1391 3.64373 11.9691 3.52295 11.8461C3.32319 11.6418 2.76338 11.3601 2.84921 11.0253C2.93504 10.6905 3.42041 10.8735 3.54878 10.7975C3.65056 10.736 3.5822 10.2038 4.30835 10.4247C4.6532 10.5295 4.8955 11.8119 4.81271 12.0951C4.67902 12.5469 4.02427 12.5256 3.7493 12.2295L3.74399 12.2257ZM4.28025 10.8886C4.08732 10.8886 3.81615 10.834 3.79716 11.0891C3.76982 11.4497 4.32354 12.1095 4.36076 11.8089L4.28025 10.8886Z" fill="black"/>
<path d="M31.5976 8.00931C31.5368 8.2538 31.8255 8.61672 31.8346 8.76857C31.8414 8.95763 31.5262 9.22033 31.6356 9.37067C31.9736 9.6197 32.3146 9.34182 32.6048 9.29474C33.2694 9.18313 32.9337 9.60832 32.4946 9.7465C32.1483 9.85508 31.1631 10.0411 30.9208 9.767C30.5 9.29322 31.2816 9.04874 31.2816 8.84982C31.2816 8.65089 31.0454 8.68885 31.0309 8.5985C30.996 8.37832 31.3348 7.93794 31.5983 8.00856L31.5976 8.00931Z" fill="black"/>
<path d="M9.21904 36.361C9.46286 36.2767 10.1039 36.3435 10.2293 36.6062C10.2905 36.7605 10.3131 36.9275 10.2949 37.0925C10.2768 37.2575 10.2185 37.4155 10.1251 37.5528C10.0317 37.6901 9.90615 37.8025 9.75933 37.8801C9.61251 37.9577 9.44892 37.9981 9.28285 37.9979C9.12506 37.9041 8.99175 37.7743 8.89379 37.6191C8.79583 37.464 8.73601 37.2878 8.71924 37.1051C8.84069 36.8295 9.0099 36.5777 9.21904 36.361ZM9.54262 36.8408C8.84457 37.0512 9.52515 38.2075 10.0128 37.0732L9.88594 36.8682C9.83326 36.8407 9.7756 36.824 9.71636 36.8192C9.65713 36.8144 9.59754 36.8215 9.5411 36.8401L9.54262 36.8408Z" fill="black"/>
<path d="M34.8015 16.9731C35.0005 17.6405 33.6948 17.6565 33.6097 17.9047C33.5893 17.9714 33.5844 18.0419 33.5954 18.1107C33.6065 18.1796 33.6332 18.245 33.6735 18.3018C33.8536 18.5365 34.7218 18.4431 34.446 18.8189C33.5133 19.1659 32.9436 18.6253 32.996 17.6929L34.8007 16.9731H34.8015Z" fill="black"/>
<path d="M21.7726 2.34904C21.8668 2.24578 22.0271 2.19188 22.1448 2.04078C22.2853 1.8616 22.3636 1.46071 22.5861 1.43337C22.9006 1.39845 22.9112 1.65584 22.8049 1.89804C22.6985 2.14024 21.7886 3.33 21.5493 3.27762C21.1346 2.95189 21.5075 2.63832 21.7726 2.34904Z" fill="black"/>
<path d="M17.7782 14.8132C17.8795 14.8782 17.9518 14.9796 17.9803 15.0964C17.9675 15.5496 17.9095 16.0003 17.8071 16.4418C17.7425 16.5732 17.5435 16.7456 17.4577 16.8921C17.3437 16.8162 17.343 16.7402 17.3308 16.615C17.3058 16.3621 17.5587 14.8178 17.7767 14.8132H17.7782Z" fill="black"/>
<path d="M30.7958 8.7269C30.7286 9.02771 30.5592 9.29598 30.3165 9.48616C30.1646 9.63801 29.4613 10.2682 29.2744 10.0852C29.2626 9.97609 29.2748 9.86569 29.3101 9.76177C29.5901 9.44844 29.9164 9.17984 30.2778 8.9653C30.3454 8.92202 30.732 8.66388 30.7958 8.7269Z" fill="black"/>
<path d="M3.63769 19.2145C3.83746 19.5577 2.96927 20.3215 2.76038 20.1719C2.4163 19.9259 3.22524 19.0186 3.63769 19.2145Z" fill="black"/>
<path d="M17.9384 13.9521C17.995 13.9633 18.0487 13.9861 18.096 14.019C18.1433 14.0519 18.1833 14.0943 18.2134 14.1435L18.0189 14.5709L17.6802 14.2095C17.7423 14.1027 17.8313 14.0139 17.9384 13.9521Z" fill="black"/>
<path d="M21.1027 22.7398C20.8627 22.8871 19.8001 22.67 19.8236 22.3792C19.8419 22.1514 20.8263 22.37 20.9842 22.4984C21.0693 22.5682 21.1278 22.6183 21.1027 22.7383V22.7398Z" fill="black"/>
<path d="M21.9042 22.8135C21.6247 22.8567 21.4485 22.979 21.2646 22.6943C21.5411 22.4194 21.7789 22.4171 21.9042 22.8135Z" fill="black"/>
</g>
<defs>
<clipPath id="clip0_2306_334">
<rect width="36" height="41" fill="white"/>
</clipPath>
</defs>
</svg>
