<svg viewBox="0 0 83.7778 23.3652" xmlns="http://www.w3.org/2000/svg" xmlns:xlink="http://www.w3.org/1999/xlink" width="83.777832" height="23.365234" fill="none" customFrame="#000000">
	<defs>
		<linearGradient id="paint_linear_0" x1="21.0529041" x2="32.5168266" y1="15.7747421" y2="2.11191559" gradientUnits="userSpaceOnUse">
			<stop stop-color="rgb(0,0,0)" offset="0" stop-opacity="1" />
			<stop stop-color="rgb(1,1,1)" offset="0.25" stop-opacity="1" />
			<stop stop-color="rgb(8,8,8)" offset="0.340000004" stop-opacity="1" />
			<stop stop-color="rgb(19,20,20)" offset="0.400000006" stop-opacity="1" />
			<stop stop-color="rgb(36,36,37)" offset="0.449999988" stop-opacity="1" />
			<stop stop-color="rgb(57,57,59)" offset="0.5" stop-opacity="1" />
			<stop stop-color="rgb(82,83,85)" offset="0.529999971" stop-opacity="1" />
			<stop stop-color="rgb(86,87,89)" offset="0.540000021" stop-opacity="1" />
			<stop stop-color="rgb(199,200,200)" offset="0.839999974" stop-opacity="1" />
			<stop stop-color="rgb(255,255,255)" offset="1" stop-opacity="1" />
		</linearGradient>
		<linearGradient id="paint_linear_1" x1="21.0052643" x2="30.9458065" y1="15.9275398" y2="4.08146381" gradientUnits="userSpaceOnUse">
			<stop stop-color="rgb(255,255,255)" offset="0" stop-opacity="1" />
			<stop stop-color="rgb(203,203,204)" offset="0.119999997" stop-opacity="1" />
			<stop stop-color="rgb(160,161,162)" offset="0.230000004" stop-opacity="1" />
			<stop stop-color="rgb(130,131,132)" offset="0.330000013" stop-opacity="1" />
			<stop stop-color="rgb(111,112,114)" offset="0.419999987" stop-opacity="1" />
			<stop stop-color="rgb(105,106,108)" offset="0.479999989" stop-opacity="1" />
			<stop stop-color="rgb(99,100,102)" offset="0.5" stop-opacity="1" />
			<stop stop-color="rgb(46,46,47)" offset="0.730000019" stop-opacity="1" />
			<stop stop-color="rgb(12,12,13)" offset="0.910000026" stop-opacity="1" />
			<stop stop-color="rgb(0,0,0)" offset="1" stop-opacity="1" />
		</linearGradient>
	</defs>
	<g id="logo MOBIUS alb-negru">
		<g id="Group 555">
			<g style="mix-blend-mode:normal">
				<path id="Path 5596" d="M13.9868 17.4187L16.3938 17.4187L16.3938 0.556641L13.7221 0.556641L8.18211 8.51264L2.69418 0.556641L0 0.556641L0 17.4178L2.40708 17.4178L2.40708 4.37136L8.20723 12.7804L13.9859 4.36239L13.9868 17.4187Z" fill="rgb(0,0,0)" fill-rule="nonzero" />
				<path id="Path 5596" d="M16.3938 17.4187L16.3938 0.556641L13.7221 0.556641L8.18211 8.51264L2.69418 0.556641L0 0.556641L0 17.4178L2.40708 17.4178L2.40708 4.37136L8.20723 12.7804L13.9859 4.36239L13.9868 17.4187L16.3938 17.4187Z" fill-rule="nonzero" stroke="rgb(112,112,112)" stroke-opacity="0" stroke-width="1" />
			</g>
			<g style="mix-blend-mode:normal">
				<path id="Path 5597" d="M37.1372 17.4195L46.3187 17.4195C46.3708 17.4123 46.4686 17.3953 46.6112 17.3693C46.8167 17.3307 46.9808 17.2966 47.1037 17.267C47.7076 17.1234 48.2315 16.8839 48.6658 16.5556C49.1161 16.2146 49.4903 15.8271 49.7764 15.4054C50.0653 14.9801 50.2806 14.5244 50.416 14.0534C50.5542 13.5734 50.6251 13.1123 50.6251 12.6834C50.6251 12.1909 50.539 11.649 50.3685 11.0712C50.2079 10.5249 49.954 10.07 49.5933 9.68153C49.5665 9.65551 49.5154 9.59899 49.4579 9.53081L48.9474 9.00956L49.3682 8.54841C49.8132 8.06126 50.1353 7.52207 50.3264 6.94789C50.5247 6.35307 50.6251 5.79773 50.6251 5.29622C50.6241 5.26213 50.6162 5.13293 50.6017 4.92031C50.5839 4.65655 50.5596 4.50762 50.5417 4.42777C50.5148 4.17656 50.4304 3.82578 50.3129 3.52971C50.19 3.22019 50.0285 2.91247 49.8329 2.61551C49.6409 2.32483 49.4059 2.0512 49.1349 1.80089C48.8658 1.55417 48.5652 1.34334 48.2405 1.17288L47.8557 0.980885C47.7677 0.936928 47.6923 0.901936 47.6295 0.875021C47.5676 0.857975 47.4976 0.83465 47.4097 0.803249C47.2993 0.763773 47.1719 0.719812 47.0284 0.672266C46.9001 0.630096 46.7745 0.59421 46.6534 0.565502C46.5215 0.535 46.4731 0.533203 46.4713 0.533203L37.1381 0.533203L37.1372 17.4195ZM46.0558 15.0447C46.0155 15.0447 45.977 15.042 45.9384 15.0367L39.5435 15.0367L39.5435 10.3033L46.0101 10.3033C46.1276 10.3033 46.2227 10.3311 46.4264 10.3984C46.5663 10.445 46.6795 10.4863 46.7709 10.5231C46.8787 10.559 47.0607 10.646 47.1451 10.7106C47.3235 10.812 47.4824 10.9438 47.6187 11.1035C47.7542 11.2623 47.8682 11.4418 47.9587 11.6346C48.0422 11.8141 48.1058 11.9917 48.1489 12.1631C48.1957 12.3506 48.2181 12.5156 48.2181 12.6691C48.2181 13.0593 48.0961 13.4819 47.8557 13.9242C47.5847 14.4221 47.1711 14.7639 46.6605 14.9102C46.5852 14.9299 46.509 14.9514 46.4147 14.981C46.2784 15.0232 46.1626 15.0447 46.0558 15.0447ZM46.011 7.64857L39.5443 7.64857L39.5443 2.91516L46.0845 2.91516C46.2057 2.91516 46.3295 2.94387 46.4982 3.01026C46.551 3.03179 46.595 3.04704 46.6345 3.05691C46.9432 3.13407 47.2105 3.27851 47.4321 3.48665C47.6251 3.66877 47.7803 3.87064 47.895 4.08865C48 4.28961 48.0798 4.49327 48.1337 4.69513C48.1902 4.91044 48.2171 5.09705 48.2171 5.26841C48.2171 5.42182 48.1947 5.5869 48.1481 5.77172C48.105 5.94397 48.0413 6.1216 47.9579 6.29745C47.8708 6.48137 47.7668 6.65183 47.6465 6.80524C47.5083 6.98019 47.3487 7.12284 47.1693 7.2287C47.102 7.27266 47.0356 7.31034 46.9692 7.34354C46.8974 7.37942 46.8265 7.40903 46.7557 7.43415C46.6696 7.46824 46.569 7.50592 46.4533 7.54719C46.2515 7.61986 46.1304 7.64857 46.011 7.64857Z" fill="rgb(0,0,0)" fill-rule="nonzero" />
				<path id="Path 5597" d="M46.3187 17.4195C46.3708 17.4123 46.4686 17.3953 46.6112 17.3693C46.8167 17.3307 46.9808 17.2966 47.1037 17.267C47.7076 17.1234 48.2315 16.8839 48.6658 16.5556C49.1161 16.2146 49.4903 15.8271 49.7764 15.4054C50.0653 14.9801 50.2806 14.5244 50.416 14.0534C50.5542 13.5734 50.6251 13.1123 50.6251 12.6834C50.6251 12.1909 50.539 11.649 50.3685 11.0712C50.2079 10.5249 49.954 10.07 49.5933 9.68153C49.5665 9.65551 49.5154 9.59899 49.4579 9.53081L48.9474 9.00956L49.3682 8.54841C49.8132 8.06126 50.1353 7.52207 50.3264 6.94789C50.5247 6.35307 50.6251 5.79773 50.6251 5.29622C50.6241 5.26213 50.6162 5.13293 50.6017 4.92031C50.5839 4.65655 50.5596 4.50762 50.5417 4.42777C50.5148 4.17656 50.4304 3.82578 50.3129 3.52971C50.19 3.22019 50.0285 2.91247 49.8329 2.61551C49.6409 2.32483 49.4059 2.0512 49.1349 1.80089C48.8658 1.55417 48.5652 1.34334 48.2405 1.17288L47.8557 0.980885C47.7677 0.936928 47.6923 0.901936 47.6295 0.875021C47.5676 0.857975 47.4976 0.83465 47.4097 0.803249C47.2993 0.763773 47.1719 0.719812 47.0284 0.672266C46.9001 0.630096 46.7745 0.59421 46.6534 0.565502C46.5215 0.535 46.4731 0.533203 46.4713 0.533203L37.1381 0.533203L37.1372 17.4195L46.3187 17.4195ZM45.9384 15.0367L39.5435 15.0367L39.5435 10.3033L46.0101 10.3033C46.1276 10.3033 46.2227 10.3311 46.4264 10.3984C46.5663 10.445 46.6795 10.4863 46.7709 10.5231C46.8787 10.559 47.0607 10.646 47.1451 10.7106C47.3235 10.812 47.4824 10.9438 47.6187 11.1035C47.7542 11.2623 47.8682 11.4418 47.9587 11.6346C48.0422 11.8141 48.1058 11.9917 48.1489 12.1631C48.1957 12.3506 48.2181 12.5156 48.2181 12.6691C48.2181 13.0593 48.0961 13.4819 47.8557 13.9242C47.5847 14.4221 47.1711 14.7639 46.6605 14.9102C46.5852 14.9299 46.509 14.9514 46.4147 14.981C46.2784 15.0232 46.1626 15.0447 46.0558 15.0447C46.0155 15.0447 45.977 15.042 45.9384 15.0367ZM39.5443 7.64857L39.5443 2.91516L46.0845 2.91516C46.2057 2.91516 46.3295 2.94387 46.4982 3.01026C46.551 3.03179 46.595 3.04704 46.6345 3.05691C46.9432 3.13407 47.2105 3.27851 47.4321 3.48665C47.6251 3.66877 47.7803 3.87064 47.895 4.08865C48 4.28961 48.0798 4.49327 48.1337 4.69513C48.1902 4.91044 48.2171 5.09705 48.2171 5.26841C48.2171 5.42182 48.1947 5.5869 48.1481 5.77172C48.105 5.94397 48.0413 6.1216 47.9579 6.29745C47.8708 6.48137 47.7668 6.65183 47.6465 6.80524C47.5083 6.98019 47.3487 7.12284 47.1693 7.2287C47.102 7.27266 47.0356 7.31034 46.9692 7.34354C46.8974 7.37942 46.8265 7.40903 46.7557 7.43415C46.6696 7.46824 46.569 7.50592 46.4533 7.54719C46.2515 7.61986 46.1304 7.64857 46.011 7.64857L39.5443 7.64857Z" fill-rule="nonzero" stroke="rgb(112,112,112)" stroke-opacity="0" stroke-width="1" />
			</g>
			<g style="mix-blend-mode:normal">
				<path id="Path 5598" d="M52.5702 17.4187L54.9773 17.4187L54.9773 0.556641L52.5702 0.556641L52.5702 17.4187Z" fill="rgb(0,0,0)" fill-rule="nonzero" />
				<path id="Path 5598" d="M54.9773 17.4187L54.9773 0.556641L52.5702 0.556641L52.5702 17.4187L54.9773 17.4187Z" fill-rule="nonzero" stroke="rgb(112,112,112)" stroke-opacity="0" stroke-width="1" />
			</g>
			<g style="mix-blend-mode:normal">
				<path id="Path 5599" d="M62.6515 17.2599C62.8873 17.3039 63.1583 17.3416 63.457 17.373C63.7548 17.4035 64.0188 17.4187 64.2404 17.4187C64.6898 17.4187 65.1428 17.3774 65.5878 17.294C66.0274 17.2124 66.4537 17.0886 66.8538 16.9253C66.9685 16.8741 67.0995 16.8104 67.2271 16.7432C67.3715 16.6669 67.5112 16.5942 67.6477 16.5269C68.0318 16.3278 68.4642 16.0183 68.9234 15.6127C69.3747 15.2144 69.7355 14.799 69.9974 14.3792C70.3024 13.8911 70.5491 13.4039 70.7312 12.9276C70.9106 12.4565 71.039 11.9532 71.1144 11.4311C71.1314 11.3279 71.1458 11.2158 71.1611 11.0821C71.1727 10.9762 71.1798 10.9045 71.1826 10.8695L71.1826 0.556641L68.7746 0.556641L68.7746 10.8094C68.7746 10.8946 68.7636 10.978 68.6974 11.2741C68.6516 11.476 68.6103 11.624 68.5682 11.7361C68.3986 12.2906 68.1555 12.7822 67.8433 13.1976C67.5321 13.613 67.1695 13.9647 66.7684 14.2419C66.3676 14.5191 65.9367 14.7246 65.4909 14.8502C64.2564 15.2018 63.0426 15.0475 61.8602 14.3693C61.0643 13.9135 60.4327 13.1501 59.9832 12.1013C59.9152 11.9218 59.863 11.755 59.8162 11.5782C59.768 11.3925 59.7347 11.2265 59.7149 11.0704C59.6944 10.9978 59.6844 10.9188 59.6844 10.8336L59.6844 0.556641L57.2775 0.556641L57.2775 10.9332C57.2855 11.0094 57.3052 11.1862 57.3205 11.3001C57.3358 11.4149 57.3546 11.5298 57.377 11.6491C57.402 11.7855 57.4236 11.9039 57.4407 12.0053C57.4496 12.0528 57.4694 12.1237 57.4944 12.2044C57.5215 12.2915 57.5484 12.3695 57.5752 12.4368C57.666 12.7401 57.769 13.0406 57.8435 13.2164C58.0095 13.6381 58.2455 14.0634 58.5505 14.494C58.8564 14.9264 59.2171 15.3283 59.6226 15.6881C60.1179 16.1376 60.6229 16.4812 61.1281 16.7162C61.6475 16.9567 62.1581 17.1388 62.6515 17.2599Z" fill="rgb(0,0,0)" fill-rule="nonzero" />
				<path id="Path 5599" d="M63.457 17.373C63.7548 17.4035 64.0188 17.4187 64.2404 17.4187C64.6898 17.4187 65.1428 17.3774 65.5878 17.294C66.0274 17.2124 66.4537 17.0886 66.8538 16.9253C66.9685 16.8741 67.0995 16.8104 67.2271 16.7432C67.3715 16.6669 67.5112 16.5942 67.6477 16.5269C68.0318 16.3278 68.4642 16.0183 68.9234 15.6127C69.3747 15.2144 69.7355 14.799 69.9974 14.3792C70.3024 13.8911 70.5491 13.4039 70.7312 12.9276C70.9106 12.4565 71.039 11.9532 71.1144 11.4311C71.1314 11.3279 71.1458 11.2158 71.1611 11.0821C71.1727 10.9762 71.1798 10.9045 71.1826 10.8695L71.1826 0.556641L68.7746 0.556641L68.7746 10.8094C68.7746 10.8946 68.7636 10.978 68.6974 11.2741C68.6516 11.476 68.6103 11.624 68.5682 11.7361C68.3986 12.2906 68.1555 12.7822 67.8433 13.1976C67.5321 13.613 67.1695 13.9647 66.7684 14.2419C66.3676 14.5191 65.9367 14.7246 65.4909 14.8502C64.2564 15.2018 63.0426 15.0475 61.8602 14.3693C61.0643 13.9135 60.4327 13.1501 59.9832 12.1013C59.9152 11.9218 59.863 11.755 59.8162 11.5782C59.768 11.3925 59.7347 11.2265 59.7149 11.0704C59.6944 10.9978 59.6844 10.9188 59.6844 10.8336L59.6844 0.556641L57.2775 0.556641L57.2775 10.9332C57.2855 11.0094 57.3052 11.1862 57.3205 11.3001C57.3358 11.4149 57.3546 11.5298 57.377 11.6491C57.402 11.7855 57.4236 11.9039 57.4407 12.0053C57.4496 12.0528 57.4694 12.1237 57.4944 12.2044C57.5215 12.2915 57.5484 12.3695 57.5752 12.4368C57.666 12.7401 57.769 13.0406 57.8435 13.2164C58.0095 13.6381 58.2455 14.0634 58.5505 14.494C58.8564 14.9264 59.2171 15.3283 59.6226 15.6881C60.1179 16.1376 60.6229 16.4812 61.1281 16.7162C61.6475 16.9567 62.1581 17.1388 62.6515 17.2599C62.8873 17.3039 63.1583 17.3416 63.457 17.373Z" fill-rule="nonzero" stroke="rgb(112,112,112)" stroke-opacity="0" stroke-width="1" />
			</g>
			<g style="mix-blend-mode:normal">
				<path id="Path 5600" d="M73.0415 14.7116C73.29 15.1441 73.5771 15.5074 73.9038 15.8062C74.25 16.1229 74.6189 16.3911 74.9993 16.6038C75.3832 16.8182 75.7743 16.9859 76.1619 17.1026C76.562 17.2237 76.937 17.3071 77.2761 17.3511C77.3362 17.3627 77.4529 17.378 77.5436 17.3843L77.8907 17.4076C78.1339 17.4229 78.4325 17.4291 78.8804 17.3968C79.0912 17.3816 79.3002 17.3618 79.5046 17.3376C79.6906 17.3161 79.869 17.2838 80.0367 17.2425C80.2152 17.1977 80.3713 17.1537 80.505 17.1088C81.0577 16.8953 81.5466 16.636 81.9315 16.3454C82.3102 16.0592 82.6133 15.7532 82.8341 15.4357C83.0521 15.1234 83.2101 14.7825 83.3052 14.4228C83.4048 14.0442 83.4559 13.6413 83.4559 13.2242C83.4559 12.8716 83.4227 12.5091 83.3562 12.1485C83.2926 11.8031 83.1813 11.4594 83.0251 11.1257C82.8754 10.8063 82.6582 10.4959 82.3811 10.2034C82.0975 9.90647 81.7233 9.62117 81.2703 9.3583C81.1393 9.27755 81.0002 9.2004 80.8379 9.11875C80.6692 9.03443 80.5132 8.96086 80.3733 8.89806C80.306 8.85769 80.1523 8.77963 80.053 8.73208C79.9237 8.67197 79.8114 8.61455 79.7156 8.55803C79.3738 8.39475 79.0265 8.2216 78.6855 8.04217L77.6512 7.50029C77.5786 7.4644 77.4933 7.41685 77.4089 7.36302C77.366 7.3361 77.3175 7.3083 77.2682 7.28407C76.7639 7.02121 76.3987 6.67759 76.1726 6.25862C75.9573 5.86028 75.8479 5.47809 75.8479 5.12282C75.8479 4.65988 75.9449 4.26154 76.1367 3.93857C76.3269 3.61829 76.579 3.36797 76.886 3.19572C77.1569 3.0441 77.4611 2.94003 77.7903 2.8871C78.3662 2.79469 78.891 2.78303 79.5405 2.91671C79.8798 2.98668 80.2115 3.1078 80.5283 3.27467C80.8397 3.44065 81.1349 3.65148 81.4059 3.90269C81.5394 4.02649 81.6624 4.16465 81.7747 4.31448L83.7778 3.31325C83.5374 2.91222 83.245 2.54259 82.9193 2.24474C82.5693 1.92535 82.198 1.65082 81.8159 1.43011C81.4354 1.2112 81.0469 1.04074 80.6603 0.923216C80.2764 0.807482 79.9148 0.725843 79.5854 0.680986C79.4993 0.680086 79.3944 0.675606 79.2697 0.667528L78.8849 0.642406C78.7664 0.634333 78.6191 0.622671 78.4451 0.607422C78.1088 0.608313 77.7517 0.635233 77.3829 0.687263C77.017 0.738403 76.6608 0.823633 76.3252 0.940262C76.108 1.01294 75.8829 1.11342 75.6487 1.24081C75.4056 1.37359 75.1633 1.5297 74.9274 1.70643C74.6942 1.88139 74.4717 2.07786 74.2662 2.29049C74.0806 2.48248 73.9261 2.69331 73.8079 2.91671C73.744 3.02886 73.693 3.13202 73.6437 3.24327C73.5897 3.36529 73.5475 3.46576 73.517 3.54202C73.5001 3.58419 73.4874 3.62815 73.4794 3.6748C73.4614 3.77438 73.4426 3.85513 73.4238 3.91973C73.3978 4.06866 73.3789 4.24719 73.3654 4.44995C73.3511 4.66347 73.343 4.79087 73.342 4.83303C73.342 5.17934 73.3754 5.54089 73.4417 5.90156C73.5045 6.24337 73.6184 6.58429 73.78 6.91354C73.9397 7.24011 74.1641 7.5595 74.4465 7.86363C74.7255 8.16418 75.0925 8.43961 75.5375 8.68364C75.6836 8.7572 75.855 8.84423 76.031 8.93574C76.1907 9.02007 76.3387 9.09902 76.4768 9.17528C76.588 9.21565 76.7039 9.26589 76.8214 9.32511L77.0896 9.45878C77.2583 9.54401 77.4539 9.64359 77.6781 9.75933C77.9042 9.87686 78.1168 9.989 78.317 10.0976L78.8615 10.3945C78.97 10.4546 79.0454 10.495 79.0894 10.5129C80.2917 11.1239 80.9752 11.9565 80.9752 12.9263C80.9752 13.3928 80.8765 13.7903 80.6809 14.107C80.4907 14.4156 80.2413 14.6578 79.938 14.8274C79.6654 14.9799 79.3612 15.084 79.0327 15.1369C78.4767 15.2266 77.9158 15.2446 77.2655 15.1064C76.9415 15.0382 76.6187 14.9243 76.3073 14.7682C75.9913 14.6103 75.6909 14.4003 75.4163 14.1446C75.2755 14.0137 75.1464 13.8683 75.0288 13.7077L73.0415 14.7116Z" fill="rgb(0,0,0)" fill-rule="nonzero" />
				<path id="Path 5600" d="M73.9038 15.8062C74.25 16.1229 74.6189 16.3911 74.9993 16.6038C75.3832 16.8182 75.7743 16.9859 76.1619 17.1026C76.562 17.2237 76.937 17.3071 77.2761 17.3511C77.3362 17.3627 77.4529 17.378 77.5436 17.3843L77.8907 17.4076C78.1339 17.4229 78.4325 17.4291 78.8804 17.3968C79.0912 17.3816 79.3002 17.3618 79.5046 17.3376C79.6906 17.3161 79.869 17.2838 80.0367 17.2425C80.2152 17.1977 80.3713 17.1537 80.505 17.1088C81.0577 16.8953 81.5466 16.636 81.9315 16.3454C82.3102 16.0592 82.6133 15.7532 82.8341 15.4357C83.0521 15.1234 83.2101 14.7825 83.3052 14.4228C83.4048 14.0442 83.4559 13.6413 83.4559 13.2242C83.4559 12.8716 83.4227 12.5091 83.3562 12.1485C83.2926 11.8031 83.1813 11.4594 83.0251 11.1257C82.8754 10.8063 82.6582 10.4959 82.3811 10.2034C82.0975 9.90647 81.7233 9.62117 81.2703 9.3583C81.1393 9.27755 81.0002 9.2004 80.8379 9.11875C80.6692 9.03443 80.5132 8.96086 80.3733 8.89806C80.306 8.85769 80.1523 8.77963 80.053 8.73208C79.9237 8.67197 79.8114 8.61455 79.7156 8.55803C79.3738 8.39475 79.0265 8.2216 78.6855 8.04217L77.6512 7.50029C77.5786 7.4644 77.4933 7.41685 77.4089 7.36302C77.366 7.3361 77.3175 7.3083 77.2682 7.28407C76.7639 7.02121 76.3987 6.67759 76.1726 6.25862C75.9573 5.86028 75.8479 5.47809 75.8479 5.12282C75.8479 4.65988 75.9449 4.26154 76.1367 3.93857C76.3269 3.61829 76.579 3.36797 76.886 3.19572C77.1569 3.0441 77.4611 2.94003 77.7903 2.8871C78.3662 2.79469 78.891 2.78303 79.5405 2.91671C79.8798 2.98668 80.2115 3.1078 80.5283 3.27467C80.8397 3.44065 81.1349 3.65148 81.4059 3.90269C81.5394 4.02649 81.6624 4.16465 81.7747 4.31448L83.7778 3.31325C83.5374 2.91222 83.245 2.54259 82.9193 2.24474C82.5693 1.92535 82.198 1.65082 81.8159 1.43011C81.4354 1.2112 81.0469 1.04074 80.6603 0.923216C80.2764 0.807482 79.9148 0.725843 79.5854 0.680986C79.4993 0.680086 79.3944 0.675606 79.2697 0.667528L78.8849 0.642406C78.7664 0.634333 78.6191 0.622671 78.4451 0.607422C78.1088 0.608313 77.7517 0.635233 77.3829 0.687263C77.017 0.738403 76.6608 0.823633 76.3252 0.940262C76.108 1.01294 75.8829 1.11342 75.6487 1.24081C75.4056 1.37359 75.1633 1.5297 74.9274 1.70643C74.6942 1.88139 74.4717 2.07786 74.2662 2.29049C74.0806 2.48248 73.9261 2.69331 73.8079 2.91671C73.744 3.02886 73.693 3.13202 73.6437 3.24327C73.5897 3.36529 73.5475 3.46576 73.517 3.54202C73.5001 3.58419 73.4874 3.62815 73.4794 3.6748C73.4614 3.77438 73.4426 3.85513 73.4238 3.91973C73.3978 4.06866 73.3789 4.24719 73.3654 4.44995C73.3511 4.66347 73.343 4.79087 73.342 4.83303C73.342 5.17934 73.3754 5.54089 73.4417 5.90156C73.5045 6.24337 73.6184 6.58429 73.78 6.91354C73.9397 7.24011 74.1641 7.5595 74.4465 7.86363C74.7255 8.16418 75.0925 8.43961 75.5375 8.68364C75.6836 8.7572 75.855 8.84423 76.031 8.93574C76.1907 9.02007 76.3387 9.09902 76.4768 9.17528C76.588 9.21565 76.7039 9.26589 76.8214 9.32511L77.0896 9.45878C77.2583 9.54401 77.4539 9.64359 77.6781 9.75933C77.9042 9.87686 78.1168 9.989 78.317 10.0976L78.8615 10.3945C78.97 10.4546 79.0454 10.495 79.0894 10.5129C80.2917 11.1239 80.9752 11.9565 80.9752 12.9263C80.9752 13.3928 80.8765 13.7903 80.6809 14.107C80.4907 14.4156 80.2413 14.6578 79.938 14.8274C79.6654 14.9799 79.3612 15.084 79.0327 15.1369C78.4767 15.2266 77.9158 15.2446 77.2655 15.1064C76.9415 15.0382 76.6187 14.9243 76.3073 14.7682C75.9913 14.6103 75.6909 14.4003 75.4163 14.1446C75.2755 14.0137 75.1464 13.8683 75.0288 13.7077L73.0415 14.7116C73.29 15.1441 73.5771 15.5074 73.9038 15.8062Z" fill-rule="nonzero" stroke="rgb(112,112,112)" stroke-opacity="0" stroke-width="1" />
			</g>
		</g>
		<g id="Group 556">
			<g style="mix-blend-mode:normal">
				<path id="Path 5601" d="M35.6722 8.97159C35.6722 10.2133 35.4398 11.3733 34.9733 12.4526C34.5085 13.5336 33.8733 14.4712 33.0704 15.2696C32.2683 16.0681 31.3281 16.7006 30.2533 17.168C29.1776 17.6354 28.0211 17.8696 26.7858 17.8696C25.5504 17.8696 24.393 17.6354 23.3173 17.168C22.2425 16.6997 21.2987 16.0636 20.4877 15.258C19.6757 14.4514 19.0388 13.5094 18.5723 12.4283C18.1066 11.3491 17.8743 10.189 17.8743 8.94736C17.8743 7.7057 18.1066 6.5654 18.5723 5.47716C19.0388 4.3898 19.6757 3.43881 20.4877 2.62419C21.2978 1.81047 22.2416 1.17079 23.3173 0.701578C24.3939 0.235057 25.5494 0 26.7858 0C28.022 0 29.2018 0.237747 30.2784 0.712344C31.3541 1.18874 32.2925 1.83379 33.0955 2.64751C33.8984 3.46124 34.5292 4.41312 34.9867 5.50048C35.4442 6.58873 35.6722 7.74697 35.6722 8.97159ZM25.571 3.77255C25.17 3.86945 24.7689 4.02286 24.3688 4.2328C23.9677 4.44363 23.5874 4.70829 23.2267 5.03037C22.8661 5.35335 22.5493 5.74002 22.2766 6.19129C21.9402 6.75471 21.7239 7.31185 21.628 7.86001C21.5948 8.03675 21.5679 8.21439 21.5436 8.39202C21.5194 8.56876 21.5068 8.76254 21.5068 8.97248C21.5068 9.68214 21.6441 10.3541 21.916 10.9911C22.1869 11.6281 22.5646 12.1879 23.0455 12.6715C23.5264 13.155 24.088 13.5372 24.7295 13.8198C25.37 14.1015 26.0518 14.2424 26.7741 14.2424C27.4963 14.2424 28.153 14.106 28.7927 13.8315C29.4351 13.5579 29.9967 13.1829 30.4775 12.7083C30.9584 12.2328 31.3398 11.6774 31.6205 11.0395C31.9005 10.4035 32.0413 9.71443 32.0413 8.97248C32.0413 8.50506 31.9776 8.0215 31.8493 7.52178C31.7201 7.02206 31.512 6.54657 31.224 6.0953C30.9351 5.64403 30.5655 5.22864 30.1169 4.84914C29.6684 4.47054 29.1229 4.16012 28.4814 3.91879C28.3531 3.86945 28.1996 3.83446 28.0247 3.80934C27.8471 3.78511 27.6964 3.7573 27.5672 3.72501C27.4236 3.69271 27.2549 3.66848 27.0621 3.65233L25.571 3.77255Z" fill="url(#paint_linear_0)" fill-rule="nonzero" />
				<path id="Path 5601" d="M34.9733 12.4526C34.5085 13.5336 33.8733 14.4712 33.0704 15.2696C32.2683 16.0681 31.3281 16.7006 30.2533 17.168C29.1776 17.6354 28.0211 17.8696 26.7858 17.8696C25.5504 17.8696 24.393 17.6354 23.3173 17.168C22.2425 16.6997 21.2987 16.0636 20.4877 15.258C19.6757 14.4514 19.0388 13.5094 18.5723 12.4283C18.1066 11.3491 17.8743 10.189 17.8743 8.94736C17.8743 7.7057 18.1066 6.5654 18.5723 5.47716C19.0388 4.3898 19.6757 3.43881 20.4877 2.62419C21.2978 1.81047 22.2416 1.17079 23.3173 0.701578C24.3939 0.235057 25.5494 0 26.7858 0C28.022 0 29.2018 0.237747 30.2784 0.712344C31.3541 1.18874 32.2925 1.83379 33.0955 2.64751C33.8984 3.46124 34.5292 4.41312 34.9867 5.50048C35.4442 6.58873 35.6722 7.74697 35.6722 8.97159C35.6722 10.2133 35.4398 11.3733 34.9733 12.4526ZM24.3688 4.2328C23.9677 4.44363 23.5874 4.70829 23.2267 5.03037C22.8661 5.35335 22.5493 5.74002 22.2766 6.19129C21.9402 6.75471 21.7239 7.31185 21.628 7.86001C21.5948 8.03675 21.5679 8.21439 21.5436 8.39202C21.5194 8.56876 21.5068 8.76254 21.5068 8.97248C21.5068 9.68214 21.6441 10.3541 21.916 10.9911C22.1869 11.6281 22.5646 12.1879 23.0455 12.6715C23.5264 13.155 24.088 13.5372 24.7295 13.8198C25.37 14.1015 26.0518 14.2424 26.7741 14.2424C27.4963 14.2424 28.153 14.106 28.7927 13.8315C29.4351 13.5579 29.9967 13.1829 30.4775 12.7083C30.9584 12.2328 31.3398 11.6774 31.6205 11.0395C31.9005 10.4035 32.0413 9.71443 32.0413 8.97248C32.0413 8.50506 31.9776 8.0215 31.8493 7.52178C31.7201 7.02206 31.512 6.54657 31.224 6.0953C30.9351 5.64403 30.5655 5.22864 30.1169 4.84914C29.6684 4.47054 29.1229 4.16012 28.4814 3.91879C28.3531 3.86945 28.1996 3.83446 28.0247 3.80934C27.8471 3.78511 27.6964 3.7573 27.5672 3.72501C27.4236 3.69271 27.2549 3.66848 27.0621 3.65233L25.571 3.77255C25.17 3.86945 24.7689 4.02286 24.3688 4.2328Z" fill-rule="nonzero" stroke="rgb(112,112,112)" stroke-opacity="0" stroke-width="1" />
			</g>
			<g style="mix-blend-mode:normal">
				<path id="Path 5602" d="" stroke="rgb(112,112,112)" stroke-opacity="0" stroke-width="1" />
			</g>
			<g style="mix-blend-mode:normal">
				<path id="Path 5603" d="M31.5361 11.2175C31.5361 11.2175 32.8586 5.9323 28.5755 4.3219C23.8995 2.56347 21.0968 6.7559 21.2179 10.2431C21.3328 13.5151 23.5729 16.7763 28.3997 16.7368C30.4802 16.7197 33.7575 15.2744 35.0351 12.2537C34.7973 12.8162 33.8464 15.7544 30.4972 17.1486C29.269 17.6591 27.533 18.3373 24.5562 17.677C16.4441 15.8728 15.3307 3.61315 22.8803 1.75961C30.6004 -0.136082 33.5799 7.40275 31.5361 11.2175Z" fill="url(#paint_linear_1)" fill-rule="nonzero" />
				<path id="Path 5603" d="M28.5755 4.3219C23.8995 2.56347 21.0968 6.7559 21.2179 10.2431C21.3328 13.5151 23.5729 16.7763 28.3997 16.7368C30.4802 16.7197 33.7575 15.2744 35.0351 12.2537C34.7973 12.8162 33.8464 15.7544 30.4972 17.1486C29.269 17.6591 27.533 18.3373 24.5562 17.677C16.4441 15.8728 15.3307 3.61315 22.8803 1.75961C30.6004 -0.136082 33.5799 7.40275 31.5361 11.2175C31.5361 11.2175 32.8586 5.9323 28.5755 4.3219Z" fill-rule="nonzero" stroke="rgb(112,112,112)" stroke-opacity="0" stroke-width="1" />
			</g>
		</g>
		<g id="Group 557">
			<g style="mix-blend-mode:normal">
				<path id="Path 5604" d="M1.596 19.6586C1.55832 19.6676 1.42734 19.6981 1.39863 19.7052C1.27481 19.7375 1.13037 19.7994 0.969784 19.8873C0.810986 19.9744 0.658466 20.0928 0.515821 20.239C0.374065 20.3835 0.25205 20.5638 0.152464 20.7747C0.0555744 20.981 0.00444031 21.2277 0.00084877 21.5094C-0.00273895 21.6628 0.0205879 21.8261 0.0663414 21.9984C0.112991 22.1697 0.188353 22.3366 0.289736 22.4954C0.392012 22.6551 0.523895 22.804 0.681795 22.9386C0.837896 23.0714 1.029 23.179 1.25059 23.2598C1.31788 23.2867 1.3762 23.3038 1.42734 23.3127C1.48834 23.3235 1.55114 23.3342 1.61574 23.345L2.67349 23.3585L2.67349 21.2447L1.68213 21.2447L1.68213 21.7696L2.14327 21.7696L2.14327 22.8336L1.73327 22.8336C1.70276 22.8336 1.66778 22.8291 1.62651 22.8193C1.5942 22.8112 1.56101 22.8031 1.52603 22.7933L1.36543 22.743C1.21202 22.682 1.08103 22.6022 0.974268 22.5071C0.869303 22.4119 0.783173 22.307 0.718575 22.1957C0.653982 22.0854 0.605532 21.9678 0.575932 21.8458C0.545425 21.7265 0.531073 21.609 0.531073 21.496C0.531073 21.3829 0.540939 21.2941 0.55978 21.2188C0.577723 21.1506 0.607328 21.059 0.648598 20.9478C0.686279 20.8734 0.786762 20.7011 0.84687 20.6338C0.908779 20.5638 0.976061 20.501 1.04783 20.4454C1.11961 20.3898 1.19497 20.3413 1.27392 20.3009C1.35466 20.2597 1.43541 20.2301 1.51167 20.213C1.55383 20.1987 1.6597 20.1744 1.73775 20.1664L2.6726 20.1664L2.6726 19.6406L1.74852 19.6406C1.74852 19.6406 1.6283 19.6541 1.596 19.6586Z" fill="rgb(0,0,0)" fill-rule="nonzero" />
				<path id="Path 5604" d="M1.39863 19.7052C1.27481 19.7375 1.13037 19.7994 0.969784 19.8873C0.810986 19.9744 0.658466 20.0928 0.515821 20.239C0.374065 20.3835 0.25205 20.5638 0.152464 20.7747C0.0555744 20.981 0.00444031 21.2277 0.00084877 21.5094C-0.00273895 21.6628 0.0205879 21.8261 0.0663414 21.9984C0.112991 22.1697 0.188353 22.3366 0.289736 22.4954C0.392012 22.6551 0.523895 22.804 0.681795 22.9386C0.837896 23.0714 1.029 23.179 1.25059 23.2598C1.31788 23.2867 1.3762 23.3038 1.42734 23.3127C1.48834 23.3235 1.55114 23.3342 1.61574 23.345L2.67349 23.3585L2.67349 21.2447L1.68213 21.2447L1.68213 21.7696L2.14327 21.7696L2.14327 22.8336L1.73327 22.8336C1.70276 22.8336 1.66778 22.8291 1.62651 22.8193C1.5942 22.8112 1.56101 22.8031 1.52603 22.7933L1.36543 22.743C1.21202 22.682 1.08103 22.6022 0.974268 22.5071C0.869303 22.4119 0.783173 22.307 0.718575 22.1957C0.653982 22.0854 0.605532 21.9678 0.575932 21.8458C0.545425 21.7265 0.531073 21.609 0.531073 21.496C0.531073 21.3829 0.540939 21.2941 0.55978 21.2188C0.577723 21.1506 0.607328 21.059 0.648598 20.9478C0.686279 20.8734 0.786762 20.7011 0.84687 20.6338C0.908779 20.5638 0.976061 20.501 1.04783 20.4454C1.11961 20.3898 1.19497 20.3413 1.27392 20.3009C1.35466 20.2597 1.43541 20.2301 1.51167 20.213C1.55383 20.1987 1.6597 20.1744 1.73775 20.1664L2.6726 20.1664L2.6726 19.6406L1.74852 19.6406C1.74852 19.6406 1.6283 19.6541 1.596 19.6586C1.55832 19.6676 1.42734 19.6981 1.39863 19.7052Z" fill-rule="nonzero" stroke="rgb(112,112,112)" stroke-opacity="0" stroke-width="1" />
			</g>
			<g style="mix-blend-mode:normal">
				<path id="Path 5605" d="M15.868 23.3634L16.4557 23.3634L14.8004 19.834L13.1406 23.3634L13.722 23.3634L14.0145 22.7462L15.5746 22.7462L15.868 23.3634ZM15.3306 22.2204L14.263 22.2204L14.8022 21.0873L15.3306 22.2204Z" fill="rgb(0,0,0)" fill-rule="nonzero" />
				<path id="Path 5605" d="M16.4557 23.3634L14.8004 19.834L13.1406 23.3634L13.722 23.3634L14.0145 22.7462L15.5746 22.7462L15.868 23.3634L16.4557 23.3634ZM14.263 22.2204L14.8022 21.0873L15.3306 22.2204L14.263 22.2204Z" fill-rule="nonzero" stroke="rgb(112,112,112)" stroke-opacity="0" stroke-width="1" />
			</g>
			<g style="mix-blend-mode:normal">
				<path id="Path 5606" d="M26.9857 23.3597L29.5336 23.3597L29.5336 22.8349L27.5159 22.8349L27.5159 19.6455L26.9857 19.6455L26.9857 23.3597Z" fill="rgb(0,0,0)" fill-rule="nonzero" />
				<path id="Path 5606" d="M29.5336 23.3597L29.5336 22.8349L27.5159 22.8349L27.5159 19.6455L26.9857 19.6455L26.9857 23.3597L29.5336 23.3597Z" fill-rule="nonzero" stroke="rgb(112,112,112)" stroke-opacity="0" stroke-width="1" />
			</g>
			<g style="mix-blend-mode:normal">
				<path id="Path 5607" d="M40.4468 23.3597L42.9948 23.3597L42.9948 22.8349L40.9771 22.8349L40.9771 19.6455L40.4478 19.6455L40.4468 23.3597Z" fill="rgb(0,0,0)" fill-rule="nonzero" />
				<path id="Path 5607" d="M42.9948 23.3597L42.9948 22.8349L40.9771 22.8349L40.9771 19.6455L40.4478 19.6455L40.4468 23.3597L42.9948 23.3597Z" fill-rule="nonzero" stroke="rgb(112,112,112)" stroke-opacity="0" stroke-width="1" />
			</g>
			<g style="mix-blend-mode:normal">
				<path id="Path 5608" d="M53.9077 23.3597L56.4568 23.3597L56.4568 22.8349L54.439 22.8349L54.439 21.7646L55.4427 21.7646L55.4427 21.2398L54.439 21.2398L54.439 20.1704L56.4568 20.1704L56.4568 19.6455L53.9077 19.6455L53.9077 23.3597Z" fill="rgb(0,0,0)" fill-rule="nonzero" />
				<path id="Path 5608" d="M56.4568 23.3597L56.4568 22.8349L54.439 22.8349L54.439 21.7646L55.4427 21.7646L55.4427 21.2398L54.439 21.2398L54.439 20.1704L56.4568 20.1704L56.4568 19.6455L53.9077 19.6455L53.9077 23.3597L56.4568 23.3597Z" fill-rule="nonzero" stroke="rgb(112,112,112)" stroke-opacity="0" stroke-width="1" />
			</g>
			<g style="mix-blend-mode:normal">
				<path id="Path 5609" d="M69.2992 23.3638L69.8752 23.3638L69.1504 21.7319C69.3407 21.6036 69.5748 21.3883 69.6483 21.225C69.7244 21.0563 69.7631 20.893 69.7631 20.737C69.7631 20.6652 69.7552 20.5916 69.7398 20.5189C69.7228 20.431 69.6932 20.3422 69.65 20.2525C69.6079 20.1646 69.5468 20.0775 69.4688 19.995C69.4014 19.9223 69.3342 19.8649 69.2679 19.8254C69.1951 19.7814 69.12 19.7429 69.0419 19.7097C69.0103 19.7007 68.9207 19.6756 68.8839 19.6666C68.8489 19.6612 68.7332 19.6406 68.726 19.6406L67.4108 19.6406L67.4108 23.3602L67.941 23.3602L67.941 21.8306L68.6085 21.8306L69.2992 23.3638ZM68.7035 21.304L67.941 21.304L67.941 20.1646L68.7035 20.1646C68.7394 20.1717 68.8488 20.1906 68.8757 20.2013C69.013 20.2596 69.1072 20.3431 69.1603 20.4489C69.2086 20.5441 69.2329 20.64 69.2329 20.7351C69.2329 20.8302 69.2086 20.9253 69.1603 21.0204C69.1055 21.1281 69.0104 21.2097 68.8749 21.2627C68.8516 21.2725 68.7349 21.2959 68.7035 21.304Z" fill="rgb(0,0,0)" fill-rule="nonzero" />
				<path id="Path 5609" d="M69.8752 23.3638L69.1504 21.7319C69.3407 21.6036 69.5748 21.3883 69.6483 21.225C69.7244 21.0563 69.7631 20.893 69.7631 20.737C69.7631 20.6652 69.7552 20.5916 69.7398 20.5189C69.7228 20.431 69.6932 20.3422 69.65 20.2525C69.6079 20.1646 69.5468 20.0775 69.4688 19.995C69.4014 19.9223 69.3342 19.8649 69.2679 19.8254C69.1951 19.7814 69.12 19.7429 69.0419 19.7097C69.0103 19.7007 68.9207 19.6756 68.8839 19.6666C68.8489 19.6612 68.7332 19.6406 68.726 19.6406L67.4108 19.6406L67.4108 23.3602L67.941 23.3602L67.941 21.8306L68.6085 21.8306L69.2992 23.3638L69.8752 23.3638ZM67.941 21.304L67.941 20.1646L68.7035 20.1646C68.7394 20.1717 68.8488 20.1906 68.8757 20.2013C69.013 20.2596 69.1072 20.3431 69.1603 20.4489C69.2086 20.5441 69.2329 20.64 69.2329 20.7351C69.2329 20.8302 69.2086 20.9253 69.1603 21.0204C69.1055 21.1281 69.0104 21.2097 68.8749 21.2627C68.8516 21.2725 68.7349 21.2959 68.7035 21.304L67.941 21.304Z" fill-rule="nonzero" stroke="rgb(112,112,112)" stroke-opacity="0" stroke-width="1" />
			</g>
			<g style="mix-blend-mode:normal">
				<path id="Path 5610" d="M81.8418 23.3598L82.3719 23.3598L82.3719 22.0168L83.7761 19.6465L83.157 19.6465L82.0984 21.4166L81.0451 19.6465L80.4314 19.6465L81.8409 22.023L81.8418 23.3598Z" fill="rgb(0,0,0)" fill-rule="nonzero" />
				<path id="Path 5610" d="M82.3719 23.3598L82.3719 22.0168L83.7761 19.6465L83.157 19.6465L82.0984 21.4166L81.0451 19.6465L80.4314 19.6465L81.8409 22.023L81.8418 23.3598L82.3719 23.3598Z" fill-rule="nonzero" stroke="rgb(112,112,112)" stroke-opacity="0" stroke-width="1" />
			</g>
		</g>
	</g>
</svg>
