<svg width="117" height="46" viewBox="0 0 117 46" fill="none" xmlns="http://www.w3.org/2000/svg">
<path d="M1.27667 1.33868H45.5887V44.8507H1.27667V1.33868ZM46.4787 1.25068H115.57V44.9417H46.4787V1.25068ZM0.388672 45.7407H116.457V0.450684H0.388672V45.7407Z" fill="black"/>
<mask id="mask0_2259_4303" style="mask-type:luminance" maskUnits="userSpaceOnUse" x="0" y="0" width="117" height="46">
<path d="M116.457 0.450684H0.388672V45.7407H116.457V0.450684Z" fill="white"/>
</mask>
<g mask="url(#mask0_2259_4303)">
<path d="M51.3623 40.5907L56.7313 4.97572L56.9973 4.88572L63.0763 4.89972L66.9043 30.5547L71.7883 30.1097L71.8793 32.5507C72.0793 34.0677 72.6233 36.6087 74.7023 36.0877C76.2903 35.6877 76.4503 32.9187 76.2933 31.6007C76.028 30.3703 75.5498 29.1956 74.8803 28.1297C72.5253 23.9997 69.1873 20.6097 67.8583 15.8817C66.2583 10.1817 68.9583 3.54472 75.8043 4.64972C80.4593 5.40172 81.4353 9.98072 81.4703 14.0367L76.3183 14.4807C76.4583 13.3257 76.1343 9.66172 74.6703 9.42472C73.2883 9.19972 72.7973 10.2907 72.6133 11.4417C72.2133 13.9327 73.1193 15.6007 74.3633 17.6357C76.6933 21.4507 79.7743 24.9287 81.0893 29.2927L81.5583 31.7087L85.5423 4.92972H91.8593L97.0043 38.7297V4.89072C101.214 4.98172 106.048 4.15672 109.078 7.77972C111.893 11.1447 112.037 18.1127 110.078 21.9137C109.307 23.3038 108.169 24.4555 106.788 25.2433C105.407 26.0312 103.836 26.4249 102.247 26.3817V40.5907H92.1233L91.2363 33.3077L86.2563 33.3477L85.2863 40.5907H80.2243L80.6243 37.0377C80.0649 38.4728 78.9881 39.6463 77.6063 40.3267C75.1883 41.4377 71.2563 41.2137 69.2113 39.3937L68.0593 38.0157L68.4123 40.5907H63.3513L62.3613 33.3217L57.4013 33.3087L56.5133 40.5917L51.3623 40.5907ZM102.247 20.9647C103.677 21.0017 105.103 20.7647 105.69 19.2997C106.21 17.0877 106.252 14.79 105.811 12.5607C105.342 10.7737 103.975 10.2767 102.247 10.3087V20.9647ZM58.2003 27.8027H61.6643L60.0643 15.6957L59.8443 15.6347L58.2003 27.8027ZM86.9733 27.8027H90.4373L88.7933 15.6347L88.5733 15.6977L88.4073 16.6707L86.9733 27.8027Z" fill="black"/>
<path d="M24.3657 3.20459V4.89159C28.9343 5.08755 33.2617 6.99613 36.4871 10.2376C39.7125 13.4792 41.5995 17.8161 41.7727 22.3856H43.5487V23.8066H41.7727C41.5958 28.3749 39.7077 32.7097 36.483 35.9505C33.2584 39.1912 28.9331 41.101 24.3657 41.3006L24.3267 42.9006L23.0267 42.9446L22.9437 41.2956C18.8912 41.1385 15.0058 39.639 11.8985 37.0328C8.79112 34.4267 6.63802 30.8618 5.77767 26.8986C5.58337 25.8777 5.44317 24.8473 5.35767 23.8116C5.24567 23.7026 3.95767 23.9746 3.76367 23.6746V22.3856H5.36367C5.57156 17.7977 7.49325 13.4549 10.7488 10.2156C14.0044 6.97633 18.3568 5.07645 22.9457 4.89159V3.20459H24.3657ZM22.9457 6.21859C18.7151 6.39574 14.7055 8.15603 11.7118 11.1505C8.71807 14.145 6.95878 18.155 6.78267 22.3856H9.26967C9.457 18.8277 10.9606 15.4667 13.4882 12.9557C16.0157 10.4448 19.3867 8.96342 22.9457 8.79959V6.21859ZM40.4397 22.3856C40.2542 18.1733 38.5038 14.1818 35.531 11.1918C32.5582 8.20175 28.5768 6.4284 24.3657 6.21859V8.79959C27.9064 8.99263 31.2512 10.4859 33.7588 12.9931C36.2663 15.5003 37.7601 18.8449 37.9537 22.3856H40.4397ZM22.9457 10.1306C20.007 10.2822 17.2065 11.4256 15.0014 13.374C12.7963 15.3225 11.3169 17.9609 10.8047 20.8586C10.7187 21.3646 10.7317 21.8906 10.6047 22.3856H12.9137C13.0968 19.7851 14.2124 17.3381 16.0555 15.4945C17.8986 13.6508 20.3452 12.5345 22.9457 12.3506V10.1306ZM36.5327 22.3856C36.3688 19.2034 35.0368 16.1935 32.7918 13.9323C30.5468 11.671 27.5466 10.3174 24.3657 10.1306V12.3056C24.5387 12.5296 24.8497 12.4106 25.1107 12.4496C27.5454 12.8129 29.7836 13.9952 31.4561 15.8015C33.1286 17.6078 34.1355 19.9301 34.3107 22.3856H36.5327ZM22.9457 13.7716C20.7046 13.9284 18.5941 14.884 16.9977 16.4646C15.4012 18.0453 14.4248 20.1462 14.2457 22.3856H16.6457C16.8056 20.8 17.5039 19.3169 18.6241 18.1834C19.7444 17.0499 21.219 16.3342 22.8027 16.1556L22.9507 16.0366L22.9457 13.7716ZM32.9797 22.3856C32.8587 21.8496 32.8177 21.3056 32.6887 20.7686C32.2015 18.8812 31.138 17.1927 29.6462 15.9381C28.1544 14.6834 26.3086 13.9251 24.3657 13.7686V16.1686C25.9576 16.3347 27.4441 17.0429 28.576 18.1746C29.7078 19.3063 30.4163 20.7927 30.5827 22.3846L32.9797 22.3856ZM22.9457 17.5016C21.6921 17.6477 20.5228 18.2071 19.6223 19.0915C18.7218 19.9758 18.1414 21.1348 17.9727 22.3856H21.0807C21.2163 21.9414 21.4564 21.5361 21.7809 21.2038C22.1054 20.8714 22.5048 20.6217 22.9457 20.4756V17.5016ZM29.1617 22.3856C29.0297 21.1494 28.4837 19.9942 27.6123 19.1076C26.7409 18.2209 25.5953 17.655 24.3617 17.5016V20.6096C24.7893 20.7302 25.1799 20.9559 25.4979 21.2661C25.816 21.5763 26.0514 21.9612 26.1827 22.3856H29.1617ZM9.26967 23.8066H6.78267C6.96339 28.0353 8.72429 32.0422 11.7172 35.0351C14.71 38.028 18.717 39.7889 22.9457 39.9696V37.3946C19.3874 37.2276 16.0179 35.745 13.491 33.2343C10.964 30.7235 9.45961 27.3637 9.26967 23.8066ZM12.9107 23.8066H10.6017C10.7327 24.3066 10.7187 24.8276 10.8017 25.3356C11.3195 28.2311 12.801 30.8664 15.0056 32.8136C17.2102 34.7608 20.0084 35.9054 22.9457 36.0616V33.8866C22.5095 33.741 22.0551 33.6575 21.5957 33.6386C19.2662 33.1879 17.1512 31.9792 15.5802 30.201C14.0093 28.4228 13.0707 26.1749 12.9107 23.8076M16.6397 23.8076H14.2397C14.4218 26.0459 15.3992 28.1451 16.995 29.7252C18.5909 31.3052 20.6996 32.2617 22.9397 32.4216V30.0186C21.3294 29.8784 19.8185 29.1808 18.6674 28.0461C17.5163 26.9114 16.797 25.4107 16.6337 23.8026M21.0747 23.8026H17.9727C18.1442 25.0524 18.7254 26.2099 19.6254 27.0939C20.5253 27.9779 21.693 28.5384 22.9457 28.6876V25.5826C22.4976 25.4956 22.0839 25.2821 21.7534 24.9674C21.4229 24.6527 21.1894 24.2498 21.0807 23.8066M29.1617 23.8066H26.1867C26.0497 24.228 25.8124 24.6098 25.4952 24.9192C25.178 25.2285 24.7904 25.4562 24.3657 25.5826V28.6916C25.5973 28.5327 26.74 27.9649 27.6104 27.0791C28.4807 26.1933 29.0285 25.0408 29.1657 23.8066M32.9837 23.8066H30.5837C30.4127 25.3965 29.7024 26.88 28.5712 28.0101C27.4399 29.1403 25.9558 29.8491 24.3657 30.0186V32.4186C26.5871 32.23 28.6702 31.2619 30.2466 29.6855C31.823 28.1091 32.7911 26.026 32.9797 23.8046M36.5317 23.8046H34.3167C34.1368 26.3833 33.031 28.8102 31.2031 30.6381C29.3753 32.4659 26.9484 33.5717 24.3697 33.7516V36.0596C27.5484 35.8684 30.5454 34.5135 32.7888 32.2535C35.0322 29.9935 36.3649 26.9866 36.5327 23.8066M40.4407 23.8066H37.9537C37.7565 27.3462 36.2616 30.689 33.7548 33.1957C31.248 35.7025 27.9053 37.1974 24.3657 37.3946V39.9696C25.3438 39.8808 26.3167 39.7419 27.2807 39.5536C30.8991 38.7385 34.1485 36.7547 36.5269 33.9085C38.9053 31.0624 40.2813 27.5123 40.4407 23.8066Z" fill="black"/>
<path d="M102.248 20.9647V10.3087C103.976 10.2777 105.348 10.7737 105.811 12.5617C106.252 14.791 106.21 17.0888 105.689 19.3007C105.103 20.7657 103.678 20.9997 102.248 20.9647Z" fill="white"/>
<path d="M86.9736 27.8023L88.4036 16.6703L88.5696 15.6973L88.7896 15.6343L90.4336 27.8013L86.9736 27.8023Z" fill="white"/>
<path d="M58.2012 27.8023L59.8442 15.6353L60.0662 15.6963L61.6662 27.8033L58.2012 27.8023Z" fill="white"/>
</g>
</svg>
