<svg width="2573" height="735" viewBox="0 0 2573 735" fill="none" xmlns="http://www.w3.org/2000/svg">
<g clip-path="url(#clip0_2280_5221)">
<g opacity="0.42">
<mask id="mask0_2280_5221" style="mask-type:luminance" maskUnits="userSpaceOnUse" x="0" y="0" width="2573" height="3666">
<path d="M2572.63 0H0V3665.76H2572.63V0Z" fill="white"/>
</mask>
<g mask="url(#mask0_2280_5221)">
<path d="M1.65097 8.08898H0.146973V0.147217H8.08885V1.65122H1.65097V8.08898Z" fill="#00E55D"/>
<path d="M415.041 1.65121H404.638V0.147217H415.041V1.65121ZM392.692 1.65121H380.746V0.147217H392.692V1.65121ZM368.8 1.65121H356.855V0.147217H368.8V1.65121ZM344.909 1.65121H332.963V0.147217H344.909V1.65121ZM321.017 1.65121H309.071V0.147217H321.017V1.65121ZM297.125 1.65121H285.179V0.147217H297.125V1.65121ZM273.233 1.65121H261.287V0.147217H273.233V1.65121ZM249.341 1.65121H237.395V0.147217H249.341V1.65121ZM225.449 1.65121H213.503V0.147217H225.449V1.65121ZM201.557 1.65121H189.611V0.147217H201.557V1.65121ZM177.665 1.65121H165.719V0.147217H177.665V1.65121ZM153.773 1.65121H141.828V0.147217H153.773V1.65121ZM129.882 1.65121H117.936V0.147217H129.882V1.65121ZM105.99 1.65121H94.0434V0.147217H105.99V1.65121ZM82.0974 1.65121H70.1515V0.147217H82.0974V1.65121ZM58.2055 1.65121H46.2596V0.147217H58.2055V1.65121ZM34.3136 1.65121H22.3677V0.147217H34.3136V1.65121Z" fill="#00E55D"/>
<path d="M430.122 8.08898H428.618V1.65122H422.18V0.147217H430.122V8.08898Z" fill="#00E55D"/>
</g>
<path d="M430.122 353.065H428.618V352.008H430.122V353.065ZM430.122 340.228H428.618V328.448H430.122V340.228ZM430.122 316.669H428.618V304.889H430.122V316.669ZM430.122 293.109H428.618V281.329H430.122V293.109ZM430.122 269.549H428.618V257.769H430.122V269.549ZM430.122 245.989H428.618V234.209H430.122V245.989ZM430.122 222.429H428.618V210.649H430.122V222.429ZM430.122 198.869H428.618V187.089H430.122V198.869ZM430.122 175.309H428.618V163.529H430.122V175.309ZM430.122 151.749H428.618V139.969H430.122V151.749ZM430.122 128.189H428.618V116.409H430.122V128.189ZM430.122 104.629H428.618V92.8492H430.122V104.629ZM430.122 81.0693H428.618V69.2893H430.122V81.0693ZM430.122 57.5094H428.618V45.7294H430.122V57.5094ZM430.122 33.9495H428.618V22.1696H430.122V33.9495Z" fill="#00E55D"/>
<path d="M430.122 368.048H422.18V366.544H428.618V360.106H430.122V368.048Z" fill="#00E55D"/>
<path d="M407.901 368.047H395.955V366.543H407.901V368.047ZM384.009 368.047H372.063V366.543H384.009V368.047ZM360.117 368.047H348.171V366.543H360.117V368.047ZM336.225 368.047H324.279V366.543H336.225V368.047ZM312.333 368.047H300.387V366.543H312.333V368.047ZM288.441 368.047H276.496V366.543H288.441V368.047ZM264.55 368.047H252.604V366.543H264.55V368.047ZM240.658 368.047H228.712V366.543H240.658V368.047ZM216.766 368.047H204.82V366.543H216.766V368.047ZM192.874 368.047H180.928V366.543H192.874V368.047ZM168.982 368.047H157.036V366.543H168.982V368.047ZM145.09 368.047H133.144V366.543H145.09V368.047ZM121.198 368.047H109.252V366.543H121.198V368.047ZM97.3065 368.047H85.3605V366.543H97.3065V368.047ZM73.4146 368.047H61.4686V366.543H73.4146V368.047ZM49.5227 368.047H37.5767V366.543H49.5227V368.047ZM25.6308 368.047H15.2275V366.543H25.6308V368.047Z" fill="#00E55D"/>
<mask id="mask1_2280_5221" style="mask-type:luminance" maskUnits="userSpaceOnUse" x="0" y="0" width="2573" height="3666">
<path d="M2572.63 0H0V3665.76H2572.63V0Z" fill="white"/>
</mask>
<g mask="url(#mask1_2280_5221)">
<path d="M8.08837 368.048H0.146484V360.106H1.65048V366.544H8.08837V368.048Z" fill="#00E55D"/>
<path d="M1.65048 346.025H0.146484V334.246H1.65048V346.025ZM1.65048 322.466H0.146484V310.686H1.65048V322.466ZM1.65048 298.906H0.146484V287.126H1.65048V298.906ZM1.65048 275.346H0.146484V263.566H1.65048V275.346ZM1.65048 251.786H0.146484V240.006H1.65048V251.786ZM1.65048 228.226H0.146484V216.446H1.65048V228.226ZM1.65048 204.666H0.146484V192.886H1.65048V204.666ZM1.65048 181.106H0.146484V169.326H1.65048V181.106ZM1.65048 157.546H0.146484V145.766H1.65048V157.546ZM1.65048 133.986H0.146484V122.207H1.65048V133.986ZM1.65048 110.427H0.146484V98.6467H1.65048V110.427ZM1.65048 86.8668H0.146484V75.0868H1.65048V86.8668ZM1.65048 63.3069H0.146484V51.5269H1.65048V63.3069ZM1.65048 39.747H0.146484V27.967H1.65048V39.747ZM1.65048 16.1871H0.146484V15.1299H1.65048V16.1871Z" fill="#00E55D"/>
<path d="M430.122 8.08898H428.618V0.147217H436.56V1.65122H430.122V8.08898Z" fill="#00E55D"/>
<path d="M843.512 1.65121H833.109V0.147217H843.512V1.65121ZM821.163 1.65121H809.217V0.147217H821.163V1.65121ZM797.271 1.65121H785.325V0.147217H797.271V1.65121ZM773.379 1.65121H761.433V0.147217H773.379V1.65121ZM749.488 1.65121H737.542V0.147217H749.488V1.65121ZM725.596 1.65121H713.65V0.147217H725.596V1.65121ZM701.704 1.65121H689.758V0.147217H701.704V1.65121ZM677.812 1.65121H665.866V0.147217H677.812V1.65121ZM653.92 1.65121H641.974V0.147217H653.92V1.65121ZM630.028 1.65121H618.082V0.147217H630.028V1.65121ZM606.136 1.65121H594.19V0.147217H606.136V1.65121ZM582.244 1.65121H570.298V0.147217H582.244V1.65121ZM558.352 1.65121H546.406V0.147217H558.352V1.65121ZM534.46 1.65121H522.515V0.147217H534.46V1.65121ZM510.569 1.65121H498.623V0.147217H510.569V1.65121ZM486.677 1.65121H474.731V0.147217H486.677V1.65121ZM462.785 1.65121H450.839V0.147217H462.785V1.65121Z" fill="#00E55D"/>
<path d="M858.594 8.08898H857.09V1.65122H850.652V0.147217H858.594V8.08898Z" fill="#00E55D"/>
</g>
<path d="M858.593 353.065H857.089V352.008H858.593V353.065ZM858.593 340.229H857.089V328.449H858.593V340.229ZM858.593 316.669H857.089V304.889H858.593V316.669ZM858.593 293.109H857.089V281.329H858.593V293.109ZM858.593 269.549H857.089V257.769H858.593V269.549ZM858.593 245.989H857.089V234.209H858.593V245.989ZM858.593 222.429H857.089V210.649H858.593V222.429ZM858.593 198.869H857.089V187.089H858.593V198.869ZM858.593 175.309H857.089V163.529H858.593V175.309ZM858.593 151.749H857.089V139.969H858.593V151.749ZM858.593 128.189H857.089V116.41H858.593V128.189ZM858.593 104.63H857.089V92.8494H858.593V104.63ZM858.593 81.0694H857.089V69.2895H858.593V81.0694ZM858.593 57.5095H857.089V45.7296H858.593V57.5095ZM858.593 33.9496H857.089V22.1697H858.593V33.9496Z" fill="#00E55D"/>
<path d="M858.593 368.048H850.652V366.544H857.089V360.106H858.593V368.048Z" fill="#00E55D"/>
<path d="M836.373 368.047H824.428V366.543H836.373V368.047ZM812.482 368.047H800.536V366.543H812.482V368.047ZM788.59 368.047H776.644V366.543H788.59V368.047ZM764.698 368.047H752.752V366.543H764.698V368.047ZM740.806 368.047H728.86V366.543H740.806V368.047ZM716.914 368.047H704.968V366.543H716.914V368.047ZM693.022 368.047H681.076V366.543H693.022V368.047ZM669.13 368.047H657.184V366.543H669.13V368.047ZM645.238 368.047H633.292V366.543H645.238V368.047ZM621.346 368.047H609.4V366.543H621.346V368.047ZM597.455 368.047H585.509V366.543H597.455V368.047ZM573.563 368.047H561.617V366.543H573.563V368.047ZM549.671 368.047H537.725V366.543H549.671V368.047ZM525.779 368.047H513.833V366.543H525.779V368.047ZM501.887 368.047H489.941V366.543H501.887V368.047ZM477.995 368.047H466.049V366.543H477.995V368.047ZM454.103 368.047H443.699V366.543H454.103V368.047Z" fill="#00E55D"/>
<path d="M436.56 368.048H428.618V360.106H430.122V366.544H436.56V368.048Z" fill="#00E55D"/>
<path d="M430.122 346.025H428.618V334.246H430.122V346.025ZM430.122 322.466H428.618V310.686H430.122V322.466ZM430.122 298.906H428.618V287.126H430.122V298.906ZM430.122 275.346H428.618V263.566H430.122V275.346ZM430.122 251.786H428.618V240.006H430.122V251.786ZM430.122 228.226H428.618V216.446H430.122V228.226ZM430.122 204.666H428.618V192.886H430.122V204.666ZM430.122 181.106H428.618V169.326H430.122V181.106ZM430.122 157.546H428.618V145.766H430.122V157.546ZM430.122 133.986H428.618V122.207H430.122V133.986ZM430.122 110.427H428.618V98.6467H430.122V110.427ZM430.122 86.8668H428.618V75.0868H430.122V86.8668ZM430.122 63.3069H428.618V51.5269H430.122V63.3069ZM430.122 39.747H428.618V27.967H430.122V39.747ZM430.122 16.1871H428.618V15.1299H430.122V16.1871Z" fill="#00E55D"/>
<mask id="mask2_2280_5221" style="mask-type:luminance" maskUnits="userSpaceOnUse" x="0" y="0" width="2573" height="3666">
<path d="M2572.63 0H0V3665.76H2572.63V0Z" fill="white"/>
</mask>
<g mask="url(#mask2_2280_5221)">
<path d="M858.593 8.08898H857.089V0.147217H865.031V1.65122H858.593V8.08898Z" fill="#00E55D"/>
<path d="M1271.98 1.65121H1261.58V0.147217H1271.98V1.65121ZM1249.63 1.65121H1237.68V0.147217H1249.63V1.65121ZM1225.74 1.65121H1213.79V0.147217H1225.74V1.65121ZM1201.85 1.65121H1189.9V0.147217H1201.85V1.65121ZM1177.95 1.65121H1166.01V0.147217H1177.95V1.65121ZM1154.06 1.65121H1142.12V0.147217H1154.06V1.65121ZM1130.17 1.65121H1118.22V0.147217H1130.17V1.65121ZM1106.28 1.65121H1094.33V0.147217H1106.28V1.65121ZM1082.39 1.65121H1070.44V0.147217H1082.39V1.65121ZM1058.49 1.65121H1046.55V0.147217H1058.49V1.65121ZM1034.6 1.65121H1022.66V0.147217H1034.6V1.65121ZM1010.71 1.65121H998.769V0.147217H1010.71V1.65121ZM986.823 1.65121H974.877V0.147217H986.823V1.65121ZM962.931 1.65121H950.985V0.147217H962.931V1.65121ZM939.039 1.65121H927.093V0.147217H939.039V1.65121ZM915.147 1.65121H903.201V0.147217H915.147V1.65121ZM891.256 1.65121H879.31V0.147217H891.256V1.65121Z" fill="#00E55D"/>
<path d="M1287.06 8.08898H1285.56V1.65122H1279.12V0.147217H1287.06V8.08898Z" fill="#00E55D"/>
</g>
<path d="M1287.06 353.065H1285.56V352.008H1287.06V353.065ZM1287.06 340.228H1285.56V328.448H1287.06V340.228ZM1287.06 316.669H1285.56V304.889H1287.06V316.669ZM1287.06 293.109H1285.56V281.329H1287.06V293.109ZM1287.06 269.549H1285.56V257.769H1287.06V269.549ZM1287.06 245.989H1285.56V234.209H1287.06V245.989ZM1287.06 222.429H1285.56V210.649H1287.06V222.429ZM1287.06 198.869H1285.56V187.089H1287.06V198.869ZM1287.06 175.309H1285.56V163.529H1287.06V175.309ZM1287.06 151.749H1285.56V139.969H1287.06V151.749ZM1287.06 128.189H1285.56V116.409H1287.06V128.189ZM1287.06 104.629H1285.56V92.8492H1287.06V104.629ZM1287.06 81.0693H1285.56V69.2893H1287.06V81.0693ZM1287.06 57.5094H1285.56V45.7294H1287.06V57.5094ZM1287.06 33.9495H1285.56V22.1696H1287.06V33.9495Z" fill="#00E55D"/>
<path d="M1287.06 368.048H1279.12V366.544H1285.56V360.106H1287.06V368.048Z" fill="#00E55D"/>
<path d="M1264.84 368.047H1252.89V366.543H1264.84V368.047ZM1240.95 368.047H1229V366.543H1240.95V368.047ZM1217.06 368.047H1205.11V366.543H1217.06V368.047ZM1193.16 368.047H1181.22V366.543H1193.16V368.047ZM1169.27 368.047H1157.33V366.543H1169.27V368.047ZM1145.38 368.047H1133.43V366.543H1145.38V368.047ZM1121.49 368.047H1109.54V366.543H1121.49V368.047ZM1097.6 368.047H1085.65V366.543H1097.6V368.047ZM1073.7 368.047H1061.77V366.543H1073.7V368.047ZM1049.82 368.047H1037.88V366.543H1049.82V368.047ZM1025.93 368.047H1013.98V366.543H1025.93V368.047ZM1002.04 368.047H990.087V366.543H1002.04V368.047ZM978.141 368.047H966.195V366.543H978.141V368.047ZM954.25 368.047H942.304V366.543H954.25V368.047ZM930.358 368.047H918.412V366.543H930.358V368.047ZM906.466 368.047H894.52V366.543H906.466V368.047ZM882.574 368.047H872.171V366.543H882.574V368.047Z" fill="#00E55D"/>
<path d="M865.031 368.048H857.089V360.106H858.593V366.544H865.031V368.048Z" fill="#00E55D"/>
<path d="M858.593 346.025H857.089V334.246H858.593V346.025ZM858.593 322.466H857.089V310.686H858.593V322.466ZM858.593 298.906H857.089V287.126H858.593V298.906ZM858.593 275.346H857.089V263.566H858.593V275.346ZM858.593 251.786H857.089V240.006H858.593V251.786ZM858.593 228.226H857.089V216.446H858.593V228.226ZM858.593 204.666H857.089V192.886H858.593V204.666ZM858.593 181.106H857.089V169.326H858.593V181.106ZM858.593 157.546H857.089V145.766H858.593V157.546ZM858.593 133.986H857.089V122.207H858.593V133.986ZM858.593 110.427H857.089V98.6467H858.593V110.427ZM858.593 86.8668H857.089V75.0868H858.593V86.8668ZM858.593 63.3069H857.089V51.5269H858.593V63.3069ZM858.593 39.747H857.089V27.967H858.593V39.747ZM858.593 16.1871H857.089V15.1299H858.593V16.1871Z" fill="#00E55D"/>
<mask id="mask3_2280_5221" style="mask-type:luminance" maskUnits="userSpaceOnUse" x="0" y="0" width="2573" height="3666">
<path d="M2572.63 0H0V3665.76H2572.63V0Z" fill="white"/>
</mask>
<g mask="url(#mask3_2280_5221)">
<path d="M1287.06 8.08898H1285.56V0.147217H1293.5V1.65122H1287.06V8.08898Z" fill="#00E55D"/>
<path d="M1700.45 1.65121H1690.05V0.147217H1700.45V1.65121ZM1678.1 1.65121H1666.16V0.147217H1678.1V1.65121ZM1654.21 1.65121H1642.27V0.147217H1654.21V1.65121ZM1630.32 1.65121H1618.37V0.147217H1630.32V1.65121ZM1606.43 1.65121H1594.48V0.147217H1606.43V1.65121ZM1582.54 1.65121H1570.59V0.147217H1582.54V1.65121ZM1558.64 1.65121H1546.7V0.147217H1558.64V1.65121ZM1534.75 1.65121H1522.81V0.147217H1534.75V1.65121ZM1510.86 1.65121H1498.91V0.147217H1510.86V1.65121ZM1486.97 1.65121H1475.02V0.147217H1486.97V1.65121ZM1463.08 1.65121H1451.13V0.147217H1463.08V1.65121ZM1439.18 1.65121H1427.24V0.147217H1439.18V1.65121ZM1415.29 1.65121H1403.35V0.147217H1415.29V1.65121ZM1391.4 1.65121H1379.45V0.147217H1391.4V1.65121ZM1367.51 1.65121H1355.56V0.147217H1367.51V1.65121ZM1343.62 1.65121H1331.67V0.147217H1343.62V1.65121ZM1319.72 1.65121H1307.78V0.147217H1319.72V1.65121Z" fill="#00E55D"/>
<path d="M1715.53 8.08898H1714.03V1.65122H1707.59V0.147217H1715.53V8.08898Z" fill="#00E55D"/>
</g>
<path d="M1715.53 353.065H1714.03V352.008H1715.53V353.065ZM1715.53 340.228H1714.03V328.448H1715.53V340.228ZM1715.53 316.669H1714.03V304.889H1715.53V316.669ZM1715.53 293.109H1714.03V281.329H1715.53V293.109ZM1715.53 269.549H1714.03V257.769H1715.53V269.549ZM1715.53 245.989H1714.03V234.209H1715.53V245.989ZM1715.53 222.429H1714.03V210.649H1715.53V222.429ZM1715.53 198.869H1714.03V187.089H1715.53V198.869ZM1715.53 175.309H1714.03V163.529H1715.53V175.309ZM1715.53 151.749H1714.03V139.969H1715.53V151.749ZM1715.53 128.189H1714.03V116.409H1715.53V128.189ZM1715.53 104.629H1714.03V92.8492H1715.53V104.629ZM1715.53 81.0693H1714.03V69.2893H1715.53V81.0693ZM1715.53 57.5094H1714.03V45.7294H1715.53V57.5094ZM1715.53 33.9495H1714.03V22.1696H1715.53V33.9495Z" fill="#00E55D"/>
<path d="M1715.53 368.048H1707.59V366.544H1714.03V360.106H1715.53V368.048Z" fill="#00E55D"/>
<path d="M1693.31 368.047H1681.37V366.543H1693.31V368.047ZM1669.42 368.047H1657.48V366.543H1669.42V368.047ZM1645.53 368.047H1633.58V366.543H1645.53V368.047ZM1621.64 368.047H1609.69V366.543H1621.64V368.047ZM1597.75 368.047H1585.8V366.543H1597.75V368.047ZM1573.85 368.047H1561.91V366.543H1573.85V368.047ZM1549.96 368.047H1538.02V366.543H1549.96V368.047ZM1526.07 368.047H1514.12V366.543H1526.07V368.047ZM1502.18 368.047H1490.23V366.543H1502.18V368.047ZM1478.29 368.047H1466.34V366.543H1478.29V368.047ZM1454.39 368.047H1442.45V366.543H1454.39V368.047ZM1430.5 368.047H1418.56V366.543H1430.5V368.047ZM1406.61 368.047H1394.66V366.543H1406.61V368.047ZM1382.72 368.047H1370.77V366.543H1382.72V368.047ZM1358.83 368.047H1346.88V366.543H1358.83V368.047ZM1334.93 368.047H1322.99V366.543H1334.93V368.047ZM1311.04 368.047H1300.64V366.543H1311.04V368.047Z" fill="#00E55D"/>
<path d="M1293.5 368.048H1285.56V360.106H1287.06V366.544H1293.5V368.048Z" fill="#00E55D"/>
<path d="M1287.06 346.025H1285.56V334.246H1287.06V346.025ZM1287.06 322.466H1285.56V310.686H1287.06V322.466ZM1287.06 298.906H1285.56V287.126H1287.06V298.906ZM1287.06 275.346H1285.56V263.566H1287.06V275.346ZM1287.06 251.786H1285.56V240.006H1287.06V251.786ZM1287.06 228.226H1285.56V216.446H1287.06V228.226ZM1287.06 204.666H1285.56V192.886H1287.06V204.666ZM1287.06 181.106H1285.56V169.326H1287.06V181.106ZM1287.06 157.546H1285.56V145.766H1287.06V157.546ZM1287.06 133.986H1285.56V122.207H1287.06V133.986ZM1287.06 110.427H1285.56V98.6467H1287.06V110.427ZM1287.06 86.8668H1285.56V75.0868H1287.06V86.8668ZM1287.06 63.3069H1285.56V51.5269H1287.06V63.3069ZM1287.06 39.747H1285.56V27.967H1287.06V39.747ZM1287.06 16.1871H1285.56V15.1299H1287.06V16.1871Z" fill="#00E55D"/>
<mask id="mask4_2280_5221" style="mask-type:luminance" maskUnits="userSpaceOnUse" x="0" y="0" width="2573" height="3666">
<path d="M2572.63 0H0V3665.76H2572.63V0Z" fill="white"/>
</mask>
<g mask="url(#mask4_2280_5221)">
<path d="M1715.53 8.08898H1714.03V0.147217H1721.97V1.65122H1715.53V8.08898Z" fill="#00E55D"/>
<path d="M2128.93 1.65121H2118.52V0.147217H2128.93V1.65121ZM2106.58 1.65121H2094.63V0.147217H2106.58V1.65121ZM2082.69 1.65121H2070.74V0.147217H2082.69V1.65121ZM2058.79 1.65121H2046.85V0.147217H2058.79V1.65121ZM2034.9 1.65121H2022.95V0.147217H2034.9V1.65121ZM2011.01 1.65121H1999.06V0.147217H2011.01V1.65121ZM1987.12 1.65121H1975.17V0.147217H1987.12V1.65121ZM1963.22 1.65121H1951.28V0.147217H1963.22V1.65121ZM1939.33 1.65121H1927.39V0.147217H1939.33V1.65121ZM1915.44 1.65121H1903.5V0.147217H1915.44V1.65121ZM1891.55 1.65121H1879.6V0.147217H1891.55V1.65121ZM1867.66 1.65121H1855.71V0.147217H1867.66V1.65121ZM1843.77 1.65121H1831.82V0.147217H1843.77V1.65121ZM1819.87 1.65121H1807.93V0.147217H1819.87V1.65121ZM1795.98 1.65121H1784.04V0.147217H1795.98V1.65121ZM1772.09 1.65121H1760.14V0.147217H1772.09V1.65121ZM1748.2 1.65121H1736.25V0.147217H1748.2V1.65121Z" fill="#00E55D"/>
<path d="M2144.01 8.08898H2142.5V1.65122H2136.07V0.147217H2144.01V8.08898Z" fill="#00E55D"/>
</g>
<path d="M2144.01 353.065H2142.5V352.008H2144.01V353.065ZM2144.01 340.228H2142.5V328.448H2144.01V340.228ZM2144.01 316.669H2142.5V304.889H2144.01V316.669ZM2144.01 293.109H2142.5V281.329H2144.01V293.109ZM2144.01 269.549H2142.5V257.769H2144.01V269.549ZM2144.01 245.989H2142.5V234.209H2144.01V245.989ZM2144.01 222.429H2142.5V210.649H2144.01V222.429ZM2144.01 198.869H2142.5V187.089H2144.01V198.869ZM2144.01 175.309H2142.5V163.529H2144.01V175.309ZM2144.01 151.749H2142.5V139.969H2144.01V151.749ZM2144.01 128.189H2142.5V116.409H2144.01V128.189ZM2144.01 104.629H2142.5V92.8492H2144.01V104.629ZM2144.01 81.0693H2142.5V69.2893H2144.01V81.0693ZM2144.01 57.5094H2142.5V45.7294H2144.01V57.5094ZM2144.01 33.9495H2142.5V22.1696H2144.01V33.9495Z" fill="#00E55D"/>
<path d="M2144.01 368.048H2136.07V366.544H2142.5V360.106H2144.01V368.048Z" fill="#00E55D"/>
<path d="M2121.79 368.047H2109.84V366.543H2121.79V368.047ZM2097.89 368.047H2085.95V366.543H2097.89V368.047ZM2074 368.047H2062.06V366.543H2074V368.047ZM2050.11 368.047H2038.16V366.543H2050.11V368.047ZM2026.22 368.047H2014.27V366.543H2026.22V368.047ZM2002.33 368.047H1990.38V366.543H2002.33V368.047ZM1978.43 368.047H1966.49V366.543H1978.43V368.047ZM1954.54 368.047H1942.6V366.543H1954.54V368.047ZM1930.65 368.047H1918.7V366.543H1930.65V368.047ZM1906.76 368.047H1894.81V366.543H1906.76V368.047ZM1882.87 368.047H1870.92V366.543H1882.87V368.047ZM1858.97 368.047H1847.03V366.543H1858.97V368.047ZM1835.08 368.047H1823.14V366.543H1835.08V368.047ZM1811.19 368.047H1799.24V366.543H1811.19V368.047ZM1787.3 368.047H1775.35V366.543H1787.3V368.047ZM1763.41 368.047H1751.46V366.543H1763.41V368.047ZM1739.51 368.047H1729.11V366.543H1739.51V368.047Z" fill="#00E55D"/>
<path d="M1721.97 368.048H1714.03V360.106H1715.53V366.544H1721.97V368.048Z" fill="#00E55D"/>
<path d="M1715.53 346.025H1714.03V334.246H1715.53V346.025ZM1715.53 322.466H1714.03V310.686H1715.53V322.466ZM1715.53 298.906H1714.03V287.126H1715.53V298.906ZM1715.53 275.346H1714.03V263.566H1715.53V275.346ZM1715.53 251.786H1714.03V240.006H1715.53V251.786ZM1715.53 228.226H1714.03V216.446H1715.53V228.226ZM1715.53 204.666H1714.03V192.886H1715.53V204.666ZM1715.53 181.106H1714.03V169.326H1715.53V181.106ZM1715.53 157.546H1714.03V145.766H1715.53V157.546ZM1715.53 133.986H1714.03V122.207H1715.53V133.986ZM1715.53 110.427H1714.03V98.6467H1715.53V110.427ZM1715.53 86.8668H1714.03V75.0868H1715.53V86.8668ZM1715.53 63.3069H1714.03V51.5269H1715.53V63.3069ZM1715.53 39.747H1714.03V27.967H1715.53V39.747ZM1715.53 16.1871H1714.03V15.1299H1715.53V16.1871Z" fill="#00E55D"/>
<mask id="mask5_2280_5221" style="mask-type:luminance" maskUnits="userSpaceOnUse" x="0" y="0" width="2573" height="3666">
<path d="M2572.63 0H0V3665.76H2572.63V0Z" fill="white"/>
</mask>
<g mask="url(#mask5_2280_5221)">
<path d="M2144.01 8.08898H2142.5V0.147217H2150.45V1.65122H2144.01V8.08898Z" fill="#00E55D"/>
<path d="M2557.4 1.65121H2547V0.147217H2557.4V1.65121ZM2535.05 1.65121H2523.1V0.147217H2535.05V1.65121ZM2511.16 1.65121H2499.21V0.147217H2511.16V1.65121ZM2487.27 1.65121H2475.32V0.147217H2487.27V1.65121ZM2463.37 1.65121H2451.43V0.147217H2463.37V1.65121ZM2439.48 1.65121H2427.54V0.147217H2439.48V1.65121ZM2415.59 1.65121H2403.64V0.147217H2415.59V1.65121ZM2391.7 1.65121H2379.75V0.147217H2391.7V1.65121ZM2367.81 1.65121H2355.86V0.147217H2367.81V1.65121ZM2343.91 1.65121H2331.97V0.147217H2343.91V1.65121ZM2320.02 1.65121H2308.08V0.147217H2320.02V1.65121ZM2296.13 1.65121H2284.18V0.147217H2296.13V1.65121ZM2272.24 1.65121H2260.29V0.147217H2272.24V1.65121ZM2248.35 1.65121H2236.4V0.147217H2248.35V1.65121ZM2224.45 1.65121H2212.51V0.147217H2224.45V1.65121ZM2200.56 1.65121H2188.62V0.147217H2200.56V1.65121ZM2176.67 1.65121H2164.72V0.147217H2176.67V1.65121Z" fill="#00E55D"/>
<path d="M2572.48 8.08898H2570.98V1.65122H2564.54V0.147217H2572.48V8.08898Z" fill="#00E55D"/>
<path d="M2572.48 353.065H2570.98V352.008H2572.48V353.065ZM2572.48 340.229H2570.98V328.449H2572.48V340.229ZM2572.48 316.669H2570.98V304.889H2572.48V316.669ZM2572.48 293.109H2570.98V281.329H2572.48V293.109ZM2572.48 269.549H2570.98V257.769H2572.48V269.549ZM2572.48 245.989H2570.98V234.209H2572.48V245.989ZM2572.48 222.429H2570.98V210.649H2572.48V222.429ZM2572.48 198.869H2570.98V187.089H2572.48V198.869ZM2572.48 175.309H2570.98V163.529H2572.48V175.309ZM2572.48 151.749H2570.98V139.969H2572.48V151.749ZM2572.48 128.189H2570.98V116.41H2572.48V128.189ZM2572.48 104.63H2570.98V92.8494H2572.48V104.63ZM2572.48 81.0694H2570.98V69.2895H2572.48V81.0694ZM2572.48 57.5095H2570.98V45.7296H2572.48V57.5095ZM2572.48 33.9496H2570.98V22.1697H2572.48V33.9496Z" fill="#00E55D"/>
<path d="M2572.48 368.048H2564.54V366.544H2570.98V360.106H2572.48V368.048Z" fill="#00E55D"/>
</g>
<path d="M2550.26 368.047H2538.31V366.543H2550.26V368.047ZM2526.37 368.047H2514.42V366.543H2526.37V368.047ZM2502.48 368.047H2490.53V366.543H2502.48V368.047ZM2478.58 368.047H2466.64V366.543H2478.58V368.047ZM2454.69 368.047H2442.75V366.543H2454.69V368.047ZM2430.8 368.047H2418.85V366.543H2430.8V368.047ZM2406.91 368.047H2394.96V366.543H2406.91V368.047ZM2383.02 368.047H2371.07V366.543H2383.02V368.047ZM2359.12 368.047H2347.18V366.543H2359.12V368.047ZM2335.23 368.047H2323.29V366.543H2335.23V368.047ZM2311.34 368.047H2299.39V366.543H2311.34V368.047ZM2287.45 368.047H2275.5V366.543H2287.45V368.047ZM2263.56 368.047H2251.61V366.543H2263.56V368.047ZM2239.66 368.047H2227.72V366.543H2239.66V368.047ZM2215.77 368.047H2203.83V366.543H2215.77V368.047ZM2191.88 368.047H2179.93V366.543H2191.88V368.047ZM2167.99 368.047H2157.58V366.543H2167.99V368.047Z" fill="#00E55D"/>
<path d="M2150.45 368.048H2142.5V360.106H2144.01V366.544H2150.45V368.048Z" fill="#00E55D"/>
<path d="M2144.01 346.025H2142.5V334.246H2144.01V346.025ZM2144.01 322.466H2142.5V310.686H2144.01V322.466ZM2144.01 298.906H2142.5V287.126H2144.01V298.906ZM2144.01 275.346H2142.5V263.566H2144.01V275.346ZM2144.01 251.786H2142.5V240.006H2144.01V251.786ZM2144.01 228.226H2142.5V216.446H2144.01V228.226ZM2144.01 204.666H2142.5V192.886H2144.01V204.666ZM2144.01 181.106H2142.5V169.326H2144.01V181.106ZM2144.01 157.546H2142.5V145.766H2144.01V157.546ZM2144.01 133.986H2142.5V122.207H2144.01V133.986ZM2144.01 110.427H2142.5V98.6467H2144.01V110.427ZM2144.01 86.8668H2142.5V75.0868H2144.01V86.8668ZM2144.01 63.3069H2142.5V51.5269H2144.01V63.3069ZM2144.01 39.747H2142.5V27.967H2144.01V39.747ZM2144.01 16.1871H2142.5V15.1299H2144.01V16.1871Z" fill="#00E55D"/>
<mask id="mask6_2280_5221" style="mask-type:luminance" maskUnits="userSpaceOnUse" x="0" y="0" width="2573" height="3666">
<path d="M2572.63 0H0V3665.76H2572.63V0Z" fill="white"/>
</mask>
<g mask="url(#mask6_2280_5221)">
<path d="M1.65097 374.485H0.146973V366.544H8.08885V368.048H1.65097V374.485Z" fill="#00E55D"/>
</g>
<path d="M415.041 368.047H404.637V366.543H415.041V368.047ZM392.692 368.047H380.745V366.543H392.692V368.047ZM368.8 368.047H356.853V366.543H368.8V368.047ZM344.908 368.047H332.962V366.543H344.908V368.047ZM321.016 368.047H309.07V366.543H321.016V368.047ZM297.124 368.047H285.178V366.543H297.124V368.047ZM273.232 368.047H261.286V366.543H273.232V368.047ZM249.34 368.047H237.394V366.543H249.34V368.047ZM225.448 368.047H213.502V366.543H225.448V368.047ZM201.556 368.047H189.61V366.543H201.556V368.047ZM177.664 368.047H165.718V366.543H177.664V368.047ZM153.772 368.047H141.826V366.543H153.772V368.047ZM129.881 368.047H117.934V366.543H129.881V368.047ZM105.988 368.047H94.0429V366.543H105.988V368.047ZM82.0969 368.047H70.151V366.543H82.0969V368.047ZM58.205 368.047H46.2591V366.543H58.205V368.047ZM34.3131 368.047H22.3672V366.543H34.3131V368.047Z" fill="#00E55D"/>
<path d="M430.122 374.485H428.618V368.047H422.18V366.543H430.122V374.485Z" fill="#00E55D"/>
<path d="M430.122 719.462H428.618V718.405H430.122V719.462ZM430.122 706.625H428.618V694.845H430.122V706.625ZM430.122 683.065H428.618V671.285H430.122V683.065ZM430.122 659.505H428.618V647.725H430.122V659.505ZM430.122 635.945H428.618V624.165H430.122V635.945ZM430.122 612.385H428.618V600.605H430.122V612.385ZM430.122 588.825H428.618V577.045H430.122V588.825ZM430.122 565.265H428.618V553.485H430.122V565.265ZM430.122 541.705H428.618V529.926H430.122V541.705ZM430.122 518.146H428.618V506.366H430.122V518.146ZM430.122 494.586H428.618V482.806H430.122V494.586ZM430.122 471.026H428.618V459.246H430.122V471.026ZM430.122 447.466H428.618V435.686H430.122V447.466ZM430.122 423.906H428.618V412.126H430.122V423.906ZM430.122 400.346H428.618V388.566H430.122V400.346Z" fill="#00E55D"/>
<path d="M430.122 734.445H422.18V732.941H428.618V726.503H430.122V734.445Z" fill="#00E55D"/>
<path d="M407.901 734.445H395.955V732.941H407.901V734.445ZM384.009 734.445H372.063V732.941H384.009V734.445ZM360.117 734.445H348.171V732.941H360.117V734.445ZM336.225 734.445H324.279V732.941H336.225V734.445ZM312.333 734.445H300.387V732.941H312.333V734.445ZM288.441 734.445H276.496V732.941H288.441V734.445ZM264.55 734.445H252.604V732.941H264.55V734.445ZM240.658 734.445H228.712V732.941H240.658V734.445ZM216.766 734.445H204.82V732.941H216.766V734.445ZM192.874 734.445H180.928V732.941H192.874V734.445ZM168.982 734.445H157.036V732.941H168.982V734.445ZM145.09 734.445H133.144V732.941H145.09V734.445ZM121.198 734.445H109.252V732.941H121.198V734.445ZM97.3065 734.445H85.3605V732.941H97.3065V734.445ZM73.4146 734.445H61.4686V732.941H73.4146V734.445ZM49.5227 734.445H37.5767V732.941H49.5227V734.445ZM25.6308 734.445H15.2275V732.941H25.6308V734.445Z" fill="#00E55D"/>
<mask id="mask7_2280_5221" style="mask-type:luminance" maskUnits="userSpaceOnUse" x="0" y="0" width="2573" height="3666">
<path d="M2572.63 0H0V3665.76H2572.63V0Z" fill="white"/>
</mask>
<g mask="url(#mask7_2280_5221)">
<path d="M8.08837 734.445H0.146484V726.503H1.65048V732.941H8.08837V734.445Z" fill="#00E55D"/>
<path d="M1.65097 712.422H0.146973V700.642H1.65097V712.422ZM1.65097 688.862H0.146973V677.082H1.65097V688.862ZM1.65097 665.302H0.146973V653.522H1.65097V665.302ZM1.65097 641.742H0.146973V629.962H1.65097V641.742ZM1.65097 618.182H0.146973V606.402H1.65097V618.182ZM1.65097 594.622H0.146973V582.842H1.65097V594.622ZM1.65097 571.062H0.146973V559.282H1.65097V571.062ZM1.65097 547.502H0.146973V535.723H1.65097V547.502ZM1.65097 523.943H0.146973V512.163H1.65097V523.943ZM1.65097 500.383H0.146973V488.603H1.65097V500.383ZM1.65097 476.823H0.146973V465.043H1.65097V476.823ZM1.65097 453.263H0.146973V441.483H1.65097V453.263ZM1.65097 429.703H0.146973V417.923H1.65097V429.703ZM1.65097 406.143H0.146973V394.363H1.65097V406.143ZM1.65097 382.583H0.146973V381.526H1.65097V382.583Z" fill="#00E55D"/>
</g>
<path d="M430.122 374.485H428.618V366.543H436.56V368.047H430.122V374.485Z" fill="#00E55D"/>
<path d="M843.512 368.047H833.109V366.543H843.512V368.047ZM821.163 368.047H809.217V366.543H821.163V368.047ZM797.271 368.047H785.325V366.543H797.271V368.047ZM773.379 368.047H761.433V366.543H773.379V368.047ZM749.488 368.047H737.542V366.543H749.488V368.047ZM725.596 368.047H713.65V366.543H725.596V368.047ZM701.704 368.047H689.758V366.543H701.704V368.047ZM677.812 368.047H665.866V366.543H677.812V368.047ZM653.92 368.047H641.974V366.543H653.92V368.047ZM630.028 368.047H618.082V366.543H630.028V368.047ZM606.136 368.047H594.19V366.543H606.136V368.047ZM582.244 368.047H570.298V366.543H582.244V368.047ZM558.352 368.047H546.406V366.543H558.352V368.047ZM534.46 368.047H522.515V366.543H534.46V368.047ZM510.569 368.047H498.623V366.543H510.569V368.047ZM486.677 368.047H474.731V366.543H486.677V368.047ZM462.785 368.047H450.839V366.543H462.785V368.047Z" fill="#00E55D"/>
<path d="M858.594 374.485H857.09V368.047H850.652V366.543H858.594V374.485Z" fill="#00E55D"/>
<path d="M858.593 719.462H857.089V718.405H858.593V719.462ZM858.593 706.625H857.089V694.845H858.593V706.625ZM858.593 683.065H857.089V671.285H858.593V683.065ZM858.593 659.505H857.089V647.725H858.593V659.505ZM858.593 635.945H857.089V624.165H858.593V635.945ZM858.593 612.385H857.089V600.605H858.593V612.385ZM858.593 588.825H857.089V577.045H858.593V588.825ZM858.593 565.265H857.089V553.485H858.593V565.265ZM858.593 541.705H857.089V529.926H858.593V541.705ZM858.593 518.146H857.089V506.366H858.593V518.146ZM858.593 494.586H857.089V482.806H858.593V494.586ZM858.593 471.026H857.089V459.246H858.593V471.026ZM858.593 447.466H857.089V435.686H858.593V447.466ZM858.593 423.906H857.089V412.126H858.593V423.906ZM858.593 400.346H857.089V388.566H858.593V400.346Z" fill="#00E55D"/>
<path d="M858.593 734.445H850.652V732.941H857.089V726.503H858.593V734.445Z" fill="#00E55D"/>
<path d="M836.373 734.445H824.428V732.941H836.373V734.445ZM812.482 734.445H800.536V732.941H812.482V734.445ZM788.59 734.445H776.644V732.941H788.59V734.445ZM764.698 734.445H752.752V732.941H764.698V734.445ZM740.806 734.445H728.86V732.941H740.806V734.445ZM716.914 734.445H704.968V732.941H716.914V734.445ZM693.022 734.445H681.076V732.941H693.022V734.445ZM669.13 734.445H657.184V732.941H669.13V734.445ZM645.238 734.445H633.292V732.941H645.238V734.445ZM621.346 734.445H609.4V732.941H621.346V734.445ZM597.455 734.445H585.509V732.941H597.455V734.445ZM573.563 734.445H561.617V732.941H573.563V734.445ZM549.671 734.445H537.725V732.941H549.671V734.445ZM525.779 734.445H513.833V732.941H525.779V734.445ZM501.887 734.445H489.941V732.941H501.887V734.445ZM477.995 734.445H466.049V732.941H477.995V734.445ZM454.103 734.445H443.699V732.941H454.103V734.445Z" fill="#00E55D"/>
<path d="M436.56 734.445H428.618V726.503H430.122V732.941H436.56V734.445Z" fill="#00E55D"/>
<path d="M430.122 712.422H428.618V700.642H430.122V712.422ZM430.122 688.862H428.618V677.082H430.122V688.862ZM430.122 665.302H428.618V653.522H430.122V665.302ZM430.122 641.742H428.618V629.962H430.122V641.742ZM430.122 618.182H428.618V606.402H430.122V618.182ZM430.122 594.622H428.618V582.842H430.122V594.622ZM430.122 571.062H428.618V559.282H430.122V571.062ZM430.122 547.502H428.618V535.723H430.122V547.502ZM430.122 523.943H428.618V512.163H430.122V523.943ZM430.122 500.383H428.618V488.603H430.122V500.383ZM430.122 476.823H428.618V465.043H430.122V476.823ZM430.122 453.263H428.618V441.483H430.122V453.263ZM430.122 429.703H428.618V417.923H430.122V429.703ZM430.122 406.143H428.618V394.363H430.122V406.143ZM430.122 382.583H428.618V381.526H430.122V382.583Z" fill="#00E55D"/>
<path d="M858.593 374.485H857.089V366.543H865.031V368.047H858.593V374.485Z" fill="#00E55D"/>
<path d="M1271.98 368.047H1261.58V366.543H1271.98V368.047ZM1249.63 368.047H1237.68V366.543H1249.63V368.047ZM1225.74 368.047H1213.79V366.543H1225.74V368.047ZM1201.85 368.047H1189.9V366.543H1201.85V368.047ZM1177.95 368.047H1166.01V366.543H1177.95V368.047ZM1154.06 368.047H1142.12V366.543H1154.06V368.047ZM1130.17 368.047H1118.22V366.543H1130.17V368.047ZM1106.29 368.047H1094.34V366.543H1106.29V368.047ZM1082.4 368.047H1070.45V366.543H1082.4V368.047ZM1058.5 368.047H1046.56V366.543H1058.5V368.047ZM1034.61 368.047H1022.67V366.543H1034.61V368.047ZM1010.72 368.047H998.769V366.543H1010.72V368.047ZM986.824 368.047H974.878V366.543H986.824V368.047ZM962.932 368.047H950.986V366.543H962.932V368.047ZM939.04 368.047H927.094V366.543H939.04V368.047ZM915.148 368.047H903.202V366.543H915.148V368.047ZM891.256 368.047H879.31V366.543H891.256V368.047Z" fill="#00E55D"/>
<path d="M1287.06 374.485H1285.56V368.047H1279.12V366.543H1287.06V374.485Z" fill="#00E55D"/>
<path d="M1287.06 719.462H1285.56V718.405H1287.06V719.462ZM1287.06 706.625H1285.56V694.845H1287.06V706.625ZM1287.06 683.065H1285.56V671.285H1287.06V683.065ZM1287.06 659.505H1285.56V647.725H1287.06V659.505ZM1287.06 635.945H1285.56V624.165H1287.06V635.945ZM1287.06 612.385H1285.56V600.605H1287.06V612.385ZM1287.06 588.825H1285.56V577.045H1287.06V588.825ZM1287.06 565.265H1285.56V553.485H1287.06V565.265ZM1287.06 541.705H1285.56V529.926H1287.06V541.705ZM1287.06 518.146H1285.56V506.366H1287.06V518.146ZM1287.06 494.586H1285.56V482.806H1287.06V494.586ZM1287.06 471.026H1285.56V459.246H1287.06V471.026ZM1287.06 447.466H1285.56V435.686H1287.06V447.466ZM1287.06 423.906H1285.56V412.126H1287.06V423.906ZM1287.06 400.346H1285.56V388.566H1287.06V400.346Z" fill="#00E55D"/>
<path d="M1287.06 734.445H1279.12V732.941H1285.56V726.503H1287.06V734.445Z" fill="#00E55D"/>
<path d="M1264.84 734.445H1252.89V732.941H1264.84V734.445ZM1240.95 734.445H1229V732.941H1240.95V734.445ZM1217.06 734.445H1205.11V732.941H1217.06V734.445ZM1193.16 734.445H1181.22V732.941H1193.16V734.445ZM1169.27 734.445H1157.33V732.941H1169.27V734.445ZM1145.38 734.445H1133.43V732.941H1145.38V734.445ZM1121.49 734.445H1109.54V732.941H1121.49V734.445ZM1097.6 734.445H1085.65V732.941H1097.6V734.445ZM1073.7 734.445H1061.77V732.941H1073.7V734.445ZM1049.82 734.445H1037.88V732.941H1049.82V734.445ZM1025.93 734.445H1013.98V732.941H1025.93V734.445ZM1002.04 734.445H990.087V732.941H1002.04V734.445ZM978.141 734.445H966.195V732.941H978.141V734.445ZM954.25 734.445H942.304V732.941H954.25V734.445ZM930.358 734.445H918.412V732.941H930.358V734.445ZM906.466 734.445H894.52V732.941H906.466V734.445ZM882.574 734.445H872.171V732.941H882.574V734.445Z" fill="#00E55D"/>
<path d="M865.031 734.445H857.089V726.503H858.593V732.941H865.031V734.445Z" fill="#00E55D"/>
<path d="M858.593 712.422H857.089V700.642H858.593V712.422ZM858.593 688.862H857.089V677.082H858.593V688.862ZM858.593 665.302H857.089V653.522H858.593V665.302ZM858.593 641.742H857.089V629.962H858.593V641.742ZM858.593 618.182H857.089V606.402H858.593V618.182ZM858.593 594.622H857.089V582.842H858.593V594.622ZM858.593 571.062H857.089V559.283H858.593V571.062ZM858.593 547.503H857.089V535.723H858.593V547.503ZM858.593 523.943H857.089V512.163H858.593V523.943ZM858.593 500.383H857.089V488.603H858.593V500.383ZM858.593 476.823H857.089V465.043H858.593V476.823ZM858.593 453.263H857.089V441.483H858.593V453.263ZM858.593 429.703H857.089V417.923H858.593V429.703ZM858.593 406.143H857.089V394.363H858.593V406.143ZM858.593 382.583H857.089V381.526H858.593V382.583Z" fill="#00E55D"/>
<path d="M1287.06 374.485H1285.56V366.543H1293.5V368.047H1287.06V374.485Z" fill="#00E55D"/>
<path d="M1700.45 368.047H1690.05V366.543H1700.45V368.047ZM1678.1 368.047H1666.16V366.543H1678.1V368.047ZM1654.21 368.047H1642.27V366.543H1654.21V368.047ZM1630.32 368.047H1618.37V366.543H1630.32V368.047ZM1606.43 368.047H1594.48V366.543H1606.43V368.047ZM1582.54 368.047H1570.59V366.543H1582.54V368.047ZM1558.64 368.047H1546.7V366.543H1558.64V368.047ZM1534.75 368.047H1522.81V366.543H1534.75V368.047ZM1510.86 368.047H1498.91V366.543H1510.86V368.047ZM1486.97 368.047H1475.02V366.543H1486.97V368.047ZM1463.08 368.047H1451.13V366.543H1463.08V368.047ZM1439.18 368.047H1427.24V366.543H1439.18V368.047ZM1415.29 368.047H1403.35V366.543H1415.29V368.047ZM1391.4 368.047H1379.45V366.543H1391.4V368.047ZM1367.51 368.047H1355.56V366.543H1367.51V368.047ZM1343.62 368.047H1331.67V366.543H1343.62V368.047ZM1319.72 368.047H1307.78V366.543H1319.72V368.047Z" fill="#00E55D"/>
<path d="M1715.53 374.485H1714.03V368.047H1707.59V366.543H1715.53V374.485Z" fill="#00E55D"/>
<path d="M1715.53 719.462H1714.03V718.405H1715.53V719.462ZM1715.53 706.625H1714.03V694.845H1715.53V706.625ZM1715.53 683.065H1714.03V671.285H1715.53V683.065ZM1715.53 659.505H1714.03V647.725H1715.53V659.505ZM1715.53 635.945H1714.03V624.165H1715.53V635.945ZM1715.53 612.385H1714.03V600.605H1715.53V612.385ZM1715.53 588.825H1714.03V577.045H1715.53V588.825ZM1715.53 565.265H1714.03V553.485H1715.53V565.265ZM1715.53 541.705H1714.03V529.926H1715.53V541.705ZM1715.53 518.146H1714.03V506.366H1715.53V518.146ZM1715.53 494.586H1714.03V482.806H1715.53V494.586ZM1715.53 471.026H1714.03V459.246H1715.53V471.026ZM1715.53 447.466H1714.03V435.686H1715.53V447.466ZM1715.53 423.906H1714.03V412.126H1715.53V423.906ZM1715.53 400.346H1714.03V388.566H1715.53V400.346Z" fill="#00E55D"/>
<path d="M1715.53 734.445H1707.59V732.941H1714.03V726.503H1715.53V734.445Z" fill="#00E55D"/>
<path d="M1693.31 734.445H1681.37V732.941H1693.31V734.445ZM1669.42 734.445H1657.48V732.941H1669.42V734.445ZM1645.53 734.445H1633.58V732.941H1645.53V734.445ZM1621.64 734.445H1609.69V732.941H1621.64V734.445ZM1597.75 734.445H1585.8V732.941H1597.75V734.445ZM1573.85 734.445H1561.91V732.941H1573.85V734.445ZM1549.96 734.445H1538.02V732.941H1549.96V734.445ZM1526.07 734.445H1514.12V732.941H1526.07V734.445ZM1502.18 734.445H1490.23V732.941H1502.18V734.445ZM1478.29 734.445H1466.34V732.941H1478.29V734.445ZM1454.39 734.445H1442.45V732.941H1454.39V734.445ZM1430.5 734.445H1418.56V732.941H1430.5V734.445ZM1406.61 734.445H1394.66V732.941H1406.61V734.445ZM1382.72 734.445H1370.77V732.941H1382.72V734.445ZM1358.83 734.445H1346.88V732.941H1358.83V734.445ZM1334.93 734.445H1322.99V732.941H1334.93V734.445ZM1311.04 734.445H1300.64V732.941H1311.04V734.445Z" fill="#00E55D"/>
<path d="M1293.5 734.445H1285.56V726.503H1287.06V732.941H1293.5V734.445Z" fill="#00E55D"/>
<path d="M1287.06 712.422H1285.56V700.642H1287.06V712.422ZM1287.06 688.862H1285.56V677.082H1287.06V688.862ZM1287.06 665.302H1285.56V653.522H1287.06V665.302ZM1287.06 641.742H1285.56V629.962H1287.06V641.742ZM1287.06 618.182H1285.56V606.402H1287.06V618.182ZM1287.06 594.622H1285.56V582.842H1287.06V594.622ZM1287.06 571.062H1285.56V559.282H1287.06V571.062ZM1287.06 547.502H1285.56V535.723H1287.06V547.502ZM1287.06 523.943H1285.56V512.163H1287.06V523.943ZM1287.06 500.383H1285.56V488.603H1287.06V500.383ZM1287.06 476.823H1285.56V465.043H1287.06V476.823ZM1287.06 453.263H1285.56V441.483H1287.06V453.263ZM1287.06 429.703H1285.56V417.923H1287.06V429.703ZM1287.06 406.143H1285.56V394.363H1287.06V406.143ZM1287.06 382.583H1285.56V381.526H1287.06V382.583Z" fill="#00E55D"/>
<path d="M1715.53 374.485H1714.03V366.543H1721.97V368.047H1715.53V374.485Z" fill="#00E55D"/>
<path d="M2128.93 368.047H2118.52V366.543H2128.93V368.047ZM2106.58 368.047H2094.63V366.543H2106.58V368.047ZM2082.69 368.047H2070.74V366.543H2082.69V368.047ZM2058.79 368.047H2046.85V366.543H2058.79V368.047ZM2034.9 368.047H2022.95V366.543H2034.9V368.047ZM2011.01 368.047H1999.06V366.543H2011.01V368.047ZM1987.12 368.047H1975.17V366.543H1987.12V368.047ZM1963.22 368.047H1951.28V366.543H1963.22V368.047ZM1939.33 368.047H1927.39V366.543H1939.33V368.047ZM1915.44 368.047H1903.5V366.543H1915.44V368.047ZM1891.55 368.047H1879.6V366.543H1891.55V368.047ZM1867.66 368.047H1855.71V366.543H1867.66V368.047ZM1843.77 368.047H1831.82V366.543H1843.77V368.047ZM1819.87 368.047H1807.93V366.543H1819.87V368.047ZM1795.98 368.047H1784.04V366.543H1795.98V368.047ZM1772.09 368.047H1760.14V366.543H1772.09V368.047ZM1748.2 368.047H1736.25V366.543H1748.2V368.047Z" fill="#00E55D"/>
<path d="M2144.01 374.485H2142.5V368.047H2136.07V366.543H2144.01V374.485Z" fill="#00E55D"/>
<path d="M2144.01 719.462H2142.5V718.405H2144.01V719.462ZM2144.01 706.625H2142.5V694.845H2144.01V706.625ZM2144.01 683.065H2142.5V671.285H2144.01V683.065ZM2144.01 659.505H2142.5V647.725H2144.01V659.505ZM2144.01 635.945H2142.5V624.165H2144.01V635.945ZM2144.01 612.385H2142.5V600.605H2144.01V612.385ZM2144.01 588.825H2142.5V577.045H2144.01V588.825ZM2144.01 565.265H2142.5V553.485H2144.01V565.265ZM2144.01 541.705H2142.5V529.926H2144.01V541.705ZM2144.01 518.146H2142.5V506.366H2144.01V518.146ZM2144.01 494.586H2142.5V482.806H2144.01V494.586ZM2144.01 471.026H2142.5V459.246H2144.01V471.026ZM2144.01 447.466H2142.5V435.686H2144.01V447.466ZM2144.01 423.906H2142.5V412.126H2144.01V423.906ZM2144.01 400.346H2142.5V388.566H2144.01V400.346Z" fill="#00E55D"/>
<path d="M2144.01 734.445H2136.07V732.941H2142.5V726.503H2144.01V734.445Z" fill="#00E55D"/>
<path d="M2121.79 734.445H2109.84V732.941H2121.79V734.445ZM2097.89 734.445H2085.95V732.941H2097.89V734.445ZM2074 734.445H2062.06V732.941H2074V734.445ZM2050.11 734.445H2038.16V732.941H2050.11V734.445ZM2026.22 734.445H2014.27V732.941H2026.22V734.445ZM2002.33 734.445H1990.38V732.941H2002.33V734.445ZM1978.43 734.445H1966.49V732.941H1978.43V734.445ZM1954.54 734.445H1942.6V732.941H1954.54V734.445ZM1930.65 734.445H1918.7V732.941H1930.65V734.445ZM1906.76 734.445H1894.81V732.941H1906.76V734.445ZM1882.87 734.445H1870.92V732.941H1882.87V734.445ZM1858.97 734.445H1847.03V732.941H1858.97V734.445ZM1835.08 734.445H1823.14V732.941H1835.08V734.445ZM1811.19 734.445H1799.24V732.941H1811.19V734.445ZM1787.3 734.445H1775.35V732.941H1787.3V734.445ZM1763.41 734.445H1751.46V732.941H1763.41V734.445ZM1739.51 734.445H1729.11V732.941H1739.51V734.445Z" fill="#00E55D"/>
<path d="M1721.97 734.445H1714.03V726.503H1715.53V732.941H1721.97V734.445Z" fill="#00E55D"/>
<path d="M1715.53 712.422H1714.03V700.642H1715.53V712.422ZM1715.53 688.862H1714.03V677.082H1715.53V688.862ZM1715.53 665.302H1714.03V653.522H1715.53V665.302ZM1715.53 641.742H1714.03V629.962H1715.53V641.742ZM1715.53 618.182H1714.03V606.402H1715.53V618.182ZM1715.53 594.622H1714.03V582.842H1715.53V594.622ZM1715.53 571.062H1714.03V559.282H1715.53V571.062ZM1715.53 547.502H1714.03V535.723H1715.53V547.502ZM1715.53 523.943H1714.03V512.163H1715.53V523.943ZM1715.53 500.383H1714.03V488.603H1715.53V500.383ZM1715.53 476.823H1714.03V465.043H1715.53V476.823ZM1715.53 453.263H1714.03V441.483H1715.53V453.263ZM1715.53 429.703H1714.03V417.923H1715.53V429.703ZM1715.53 406.143H1714.03V394.363H1715.53V406.143ZM1715.53 382.583H1714.03V381.526H1715.53V382.583Z" fill="#00E55D"/>
<path d="M2144.01 374.485H2142.5V366.543H2150.45V368.047H2144.01V374.485Z" fill="#00E55D"/>
<path d="M2557.4 368.047H2547V366.543H2557.4V368.047ZM2535.05 368.047H2523.1V366.543H2535.05V368.047ZM2511.16 368.047H2499.21V366.543H2511.16V368.047ZM2487.27 368.047H2475.32V366.543H2487.27V368.047ZM2463.37 368.047H2451.43V366.543H2463.37V368.047ZM2439.48 368.047H2427.54V366.543H2439.48V368.047ZM2415.59 368.047H2403.64V366.543H2415.59V368.047ZM2391.7 368.047H2379.75V366.543H2391.7V368.047ZM2367.81 368.047H2355.86V366.543H2367.81V368.047ZM2343.91 368.047H2331.97V366.543H2343.91V368.047ZM2320.02 368.047H2308.08V366.543H2320.02V368.047ZM2296.13 368.047H2284.18V366.543H2296.13V368.047ZM2272.24 368.047H2260.29V366.543H2272.24V368.047ZM2248.35 368.047H2236.4V366.543H2248.35V368.047ZM2224.45 368.047H2212.51V366.543H2224.45V368.047ZM2200.56 368.047H2188.62V366.543H2200.56V368.047ZM2176.67 368.047H2164.72V366.543H2176.67V368.047Z" fill="#00E55D"/>
<mask id="mask8_2280_5221" style="mask-type:luminance" maskUnits="userSpaceOnUse" x="0" y="0" width="2573" height="3666">
<path d="M2572.63 0H0V3665.76H2572.63V0Z" fill="white"/>
</mask>
<g mask="url(#mask8_2280_5221)">
<path d="M2572.48 374.485H2570.98V368.048H2564.54V366.544H2572.48V374.485Z" fill="#00E55D"/>
<path d="M2572.48 719.462H2570.98V718.405H2572.48V719.462ZM2572.48 706.625H2570.98V694.845H2572.48V706.625ZM2572.48 683.065H2570.98V671.285H2572.48V683.065ZM2572.48 659.505H2570.98V647.725H2572.48V659.505ZM2572.48 635.945H2570.98V624.165H2572.48V635.945ZM2572.48 612.385H2570.98V600.605H2572.48V612.385ZM2572.48 588.826H2570.98V577.046H2572.48V588.826ZM2572.48 565.266H2570.98V553.486H2572.48V565.266ZM2572.48 541.706H2570.98V529.926H2572.48V541.706ZM2572.48 518.146H2570.98V506.366H2572.48V518.146ZM2572.48 494.586H2570.98V482.806H2572.48V494.586ZM2572.48 471.026H2570.98V459.246H2572.48V471.026ZM2572.48 447.466H2570.98V435.686H2572.48V447.466ZM2572.48 423.906H2570.98V412.126H2572.48V423.906ZM2572.48 400.346H2570.98V388.566H2572.48V400.346Z" fill="#00E55D"/>
<path d="M2572.48 734.445H2564.54V732.941H2570.98V726.503H2572.48V734.445Z" fill="#00E55D"/>
</g>
<path d="M2550.26 734.445H2538.31V732.941H2550.26V734.445ZM2526.37 734.445H2514.42V732.941H2526.37V734.445ZM2502.48 734.445H2490.53V732.941H2502.48V734.445ZM2478.58 734.445H2466.64V732.941H2478.58V734.445ZM2454.69 734.445H2442.75V732.941H2454.69V734.445ZM2430.8 734.445H2418.85V732.941H2430.8V734.445ZM2406.91 734.445H2394.96V732.941H2406.91V734.445ZM2383.02 734.445H2371.07V732.941H2383.02V734.445ZM2359.12 734.445H2347.18V732.941H2359.12V734.445ZM2335.23 734.445H2323.29V732.941H2335.23V734.445ZM2311.34 734.445H2299.39V732.941H2311.34V734.445ZM2287.45 734.445H2275.5V732.941H2287.45V734.445ZM2263.56 734.445H2251.61V732.941H2263.56V734.445ZM2239.66 734.445H2227.72V732.941H2239.66V734.445ZM2215.77 734.445H2203.83V732.941H2215.77V734.445ZM2191.88 734.445H2179.93V732.941H2191.88V734.445ZM2167.99 734.445H2157.58V732.941H2167.99V734.445Z" fill="#00E55D"/>
<path d="M2150.45 734.445H2142.5V726.503H2144.01V732.941H2150.45V734.445Z" fill="#00E55D"/>
<path d="M2144.01 712.422H2142.5V700.642H2144.01V712.422ZM2144.01 688.862H2142.5V677.082H2144.01V688.862ZM2144.01 665.302H2142.5V653.522H2144.01V665.302ZM2144.01 641.742H2142.5V629.962H2144.01V641.742ZM2144.01 618.182H2142.5V606.402H2144.01V618.182ZM2144.01 594.622H2142.5V582.842H2144.01V594.622ZM2144.01 571.062H2142.5V559.282H2144.01V571.062ZM2144.01 547.502H2142.5V535.723H2144.01V547.502ZM2144.01 523.943H2142.5V512.163H2144.01V523.943ZM2144.01 500.383H2142.5V488.603H2144.01V500.383ZM2144.01 476.823H2142.5V465.043H2144.01V476.823ZM2144.01 453.263H2142.5V441.483H2144.01V453.263ZM2144.01 429.703H2142.5V417.923H2144.01V429.703ZM2144.01 406.143H2142.5V394.363H2144.01V406.143ZM2144.01 382.583H2142.5V381.526H2144.01V382.583Z" fill="#00E55D"/>
<mask id="mask9_2280_5221" style="mask-type:luminance" maskUnits="userSpaceOnUse" x="0" y="0" width="2573" height="3666">
<path d="M2572.63 0H0V3665.76H2572.63V0Z" fill="white"/>
</mask>
<g mask="url(#mask9_2280_5221)">
<path d="M1.65097 740.882H0.146973V732.941H8.08885V734.445H1.65097V740.882Z" fill="#00E55D"/>
</g>
<path d="M415.041 734.445H404.637V732.941H415.041V734.445ZM392.692 734.445H380.745V732.941H392.692V734.445ZM368.8 734.445H356.853V732.941H368.8V734.445ZM344.908 734.445H332.962V732.941H344.908V734.445ZM321.016 734.445H309.07V732.941H321.016V734.445ZM297.124 734.445H285.178V732.941H297.124V734.445ZM273.232 734.445H261.286V732.941H273.232V734.445ZM249.34 734.445H237.394V732.941H249.34V734.445ZM225.448 734.445H213.502V732.941H225.448V734.445ZM201.556 734.445H189.61V732.941H201.556V734.445ZM177.664 734.445H165.718V732.941H177.664V734.445ZM153.772 734.445H141.826V732.941H153.772V734.445ZM129.881 734.445H117.934V732.941H129.881V734.445ZM105.988 734.445H94.0429V732.941H105.988V734.445ZM82.0969 734.445H70.151V732.941H82.0969V734.445ZM58.205 734.445H46.2591V732.941H58.205V734.445ZM34.3131 734.445H22.3672V732.941H34.3131V734.445Z" fill="#00E55D"/>
<path d="M430.122 740.883H428.618V734.445H422.18V732.941H430.122V740.883Z" fill="#00E55D"/>
<path d="M430.122 740.883H428.618V732.941H436.56V734.445H430.122V740.883Z" fill="#00E55D"/>
<path d="M843.512 734.445H833.109V732.941H843.512V734.445ZM821.163 734.445H809.217V732.941H821.163V734.445ZM797.271 734.445H785.325V732.941H797.271V734.445ZM773.379 734.445H761.433V732.941H773.379V734.445ZM749.488 734.445H737.542V732.941H749.488V734.445ZM725.596 734.445H713.65V732.941H725.596V734.445ZM701.704 734.445H689.758V732.941H701.704V734.445ZM677.812 734.445H665.866V732.941H677.812V734.445ZM653.92 734.445H641.974V732.941H653.92V734.445ZM630.028 734.445H618.082V732.941H630.028V734.445ZM606.136 734.445H594.19V732.941H606.136V734.445ZM582.244 734.445H570.298V732.941H582.244V734.445ZM558.352 734.445H546.406V732.941H558.352V734.445ZM534.46 734.445H522.515V732.941H534.46V734.445ZM510.569 734.445H498.623V732.941H510.569V734.445ZM486.677 734.445H474.731V732.941H486.677V734.445ZM462.785 734.445H450.839V732.941H462.785V734.445Z" fill="#00E55D"/>
<path d="M858.594 740.883H857.09V734.445H850.652V732.941H858.594V740.883Z" fill="#00E55D"/>
<path d="M858.593 740.883H857.089V732.941H865.031V734.445H858.593V740.883Z" fill="#00E55D"/>
<path d="M1271.98 734.445H1261.58V732.941H1271.98V734.445ZM1249.63 734.445H1237.68V732.941H1249.63V734.445ZM1225.74 734.445H1213.79V732.941H1225.74V734.445ZM1201.85 734.445H1189.9V732.941H1201.85V734.445ZM1177.95 734.445H1166.01V732.941H1177.95V734.445ZM1154.06 734.445H1142.12V732.941H1154.06V734.445ZM1130.17 734.445H1118.22V732.941H1130.17V734.445ZM1106.29 734.445H1094.34V732.941H1106.29V734.445ZM1082.4 734.445H1070.45V732.941H1082.4V734.445ZM1058.5 734.445H1046.56V732.941H1058.5V734.445ZM1034.61 734.445H1022.67V732.941H1034.61V734.445ZM1010.72 734.445H998.769V732.941H1010.72V734.445ZM986.824 734.445H974.878V732.941H986.824V734.445ZM962.932 734.445H950.986V732.941H962.932V734.445ZM939.04 734.445H927.094V732.941H939.04V734.445ZM915.148 734.445H903.202V732.941H915.148V734.445ZM891.256 734.445H879.31V732.941H891.256V734.445Z" fill="#00E55D"/>
<path d="M1287.06 740.883H1285.56V734.445H1279.12V732.941H1287.06V740.883Z" fill="#00E55D"/>
<path d="M1287.06 740.883H1285.56V732.941H1293.5V734.445H1287.06V740.883Z" fill="#00E55D"/>
<path d="M1700.45 734.445H1690.05V732.941H1700.45V734.445ZM1678.1 734.445H1666.16V732.941H1678.1V734.445ZM1654.21 734.445H1642.27V732.941H1654.21V734.445ZM1630.32 734.445H1618.37V732.941H1630.32V734.445ZM1606.43 734.445H1594.48V732.941H1606.43V734.445ZM1582.54 734.445H1570.59V732.941H1582.54V734.445ZM1558.64 734.445H1546.7V732.941H1558.64V734.445ZM1534.75 734.445H1522.81V732.941H1534.75V734.445ZM1510.86 734.445H1498.91V732.941H1510.86V734.445ZM1486.97 734.445H1475.02V732.941H1486.97V734.445ZM1463.08 734.445H1451.13V732.941H1463.08V734.445ZM1439.18 734.445H1427.24V732.941H1439.18V734.445ZM1415.29 734.445H1403.35V732.941H1415.29V734.445ZM1391.4 734.445H1379.45V732.941H1391.4V734.445ZM1367.51 734.445H1355.56V732.941H1367.51V734.445ZM1343.62 734.445H1331.67V732.941H1343.62V734.445ZM1319.72 734.445H1307.78V732.941H1319.72V734.445Z" fill="#00E55D"/>
<path d="M1715.53 740.883H1714.03V734.445H1707.59V732.941H1715.53V740.883Z" fill="#00E55D"/>
<path d="M1715.53 740.883H1714.03V732.941H1721.97V734.445H1715.53V740.883Z" fill="#00E55D"/>
<path d="M2128.93 734.445H2118.52V732.941H2128.93V734.445ZM2106.58 734.445H2094.63V732.941H2106.58V734.445ZM2082.69 734.445H2070.74V732.941H2082.69V734.445ZM2058.79 734.445H2046.85V732.941H2058.79V734.445ZM2034.9 734.445H2022.95V732.941H2034.9V734.445ZM2011.01 734.445H1999.06V732.941H2011.01V734.445ZM1987.12 734.445H1975.17V732.941H1987.12V734.445ZM1963.22 734.445H1951.28V732.941H1963.22V734.445ZM1939.33 734.445H1927.39V732.941H1939.33V734.445ZM1915.44 734.445H1903.5V732.941H1915.44V734.445ZM1891.55 734.445H1879.6V732.941H1891.55V734.445ZM1867.66 734.445H1855.71V732.941H1867.66V734.445ZM1843.77 734.445H1831.82V732.941H1843.77V734.445ZM1819.87 734.445H1807.93V732.941H1819.87V734.445ZM1795.98 734.445H1784.04V732.941H1795.98V734.445ZM1772.09 734.445H1760.14V732.941H1772.09V734.445ZM1748.2 734.445H1736.25V732.941H1748.2V734.445Z" fill="#00E55D"/>
<path d="M2144.01 740.883H2142.5V734.445H2136.07V732.941H2144.01V740.883Z" fill="#00E55D"/>
<path d="M2144.01 740.883H2142.5V732.941H2150.45V734.445H2144.01V740.883Z" fill="#00E55D"/>
<path d="M2557.4 734.445H2547V732.941H2557.4V734.445ZM2535.05 734.445H2523.1V732.941H2535.05V734.445ZM2511.16 734.445H2499.21V732.941H2511.16V734.445ZM2487.27 734.445H2475.32V732.941H2487.27V734.445ZM2463.37 734.445H2451.43V732.941H2463.37V734.445ZM2439.48 734.445H2427.54V732.941H2439.48V734.445ZM2415.59 734.445H2403.64V732.941H2415.59V734.445ZM2391.7 734.445H2379.75V732.941H2391.7V734.445ZM2367.81 734.445H2355.86V732.941H2367.81V734.445ZM2343.91 734.445H2331.97V732.941H2343.91V734.445ZM2320.02 734.445H2308.08V732.941H2320.02V734.445ZM2296.13 734.445H2284.18V732.941H2296.13V734.445ZM2272.24 734.445H2260.29V732.941H2272.24V734.445ZM2248.35 734.445H2236.4V732.941H2248.35V734.445ZM2224.45 734.445H2212.51V732.941H2224.45V734.445ZM2200.56 734.445H2188.62V732.941H2200.56V734.445ZM2176.67 734.445H2164.72V732.941H2176.67V734.445Z" fill="#00E55D"/>
<mask id="mask10_2280_5221" style="mask-type:luminance" maskUnits="userSpaceOnUse" x="0" y="0" width="2573" height="3666">
<path d="M2572.63 0H0V3665.76H2572.63V0Z" fill="white"/>
</mask>
<g mask="url(#mask10_2280_5221)">
<path d="M2572.48 740.882H2570.98V734.445H2564.54V732.941H2572.48V740.882Z" fill="#00E55D"/>
</g>
</g>
</g>
<defs>
<clipPath id="clip0_2280_5221">
<rect width="2573" height="734.44" fill="white"/>
</clipPath>
</defs>
</svg>
