<svg viewBox="0 0 353.053 280.924" xmlns="http://www.w3.org/2000/svg" xmlns:xlink="http://www.w3.org/1999/xlink" width="353.052856" height="280.924072" fill="none" customFrame="#000000">
	<mask id="mask_7" width="174.413986" height="152.923828" x="0.000000" y="0.000000" maskUnits="userSpaceOnUse">
		<g filter="url(#pixso_custom_mask_type_outline)">
			<g>
				<rect id="Rectangle 217" width="174.413986" height="152.923828" x="0.000000" y="0.000000" fill="rgb(255,255,255)" />
			</g>
		</g>
	</mask>
	<defs>
		<filter id="pixso_custom_mask_type_outline">
			<feColorMatrix type="matrix" values="0 0 0 0 1 0 0 0 0 1 0 0 0 0 1 0 0 0 1 0 " />
		</filter>
	</defs>
	<mask id="mask_6" width="225.814560" height="201.825378" x="127.238281" y="79.098633" maskUnits="userSpaceOnUse">
		<g filter="url(#pixso_custom_mask_type_outline)">
			<g>
				<rect id="Rectangle 216" width="225.814560" height="201.825378" x="127.238281" y="79.098633" fill="rgb(255,255,255)" />
			</g>
		</g>
	</mask>
	<rect id="Frame 3" width="353.052856" height="280.924072" x="0.000000" y="0.000000" />
	<g id="Group 485">
		<g id="Group 484" mask="url(#mask_6)">
			<g style="mix-blend-mode:normal">
				<path id="Path 5437" d="M280.26 212.623C280.574 212.357 280.981 212.201 281.318 211.979C281.727 211.721 282.022 211.254 282.27 211.217C282.558 211.17 282.58 211.396 282.519 211.785C282.488 212.002 282.458 212.221 282.474 212.439C282.488 212.699 282.603 212.982 282.526 213.187C282.308 213.509 281.932 213.783 281.661 214.049C281.455 214.224 281.353 214.348 281.243 214.215C281.031 213.887 280.8 213.556 280.436 213.383C280 213.165 279.882 212.941 280.26 212.623Z" fill="rgb(255,255,255)" fill-rule="nonzero" />
			</g>
			<g style="mix-blend-mode:normal">
				<path id="Path 5438" d="M280.077 212.571C280.211 212.8 280.198 213.108 280.536 213.14C281.576 213.244 281.365 213.44 280.766 214.068C280.546 214.301 280.645 214.746 280.455 214.93C280.012 214.99 279.196 213.106 279.316 212.652C279.396 212.394 279.907 212.371 280.077 212.571Z" fill="rgb(255,255,255)" fill-rule="nonzero" />
			</g>
			<g style="mix-blend-mode:normal">
				<path id="Path 5439" d="M281.242 212.136C281.247 212.003 281.254 211.779 281.3 211.648C282.057 209.967 278.764 210.092 281.102 208.005C281.161 207.934 281.202 207.861 281.241 207.781C281.337 207.506 281.634 207.177 281.382 206.748C281.183 206.383 280.778 206.016 280.549 205.687C280.088 204.886 279.944 203.898 280.076 202.92C280.268 201.028 278.4 202.705 278.338 203.787C278.136 204.95 278.182 206.266 277.861 207.34C277.734 207.813 277.537 208.312 277.469 208.788C277.247 209.785 277.831 210.439 277.317 211.313C276.755 212.28 276.568 213.488 276.191 214.624C275.999 215.205 275.561 215.628 275.454 216.132C275.32 217.063 275.745 217.793 275.552 218.859C275.413 219.68 275.175 220.476 275.078 221.305C274.948 222.955 273.948 224.216 273.725 225.816C273.58 226.467 273.258 226.982 273.286 227.531C273.289 227.992 273.332 228.468 273.242 228.918C273.142 229.375 272.925 229.605 272.791 229.927C272.635 230.311 272.685 230.644 272.684 231.033C272.639 231.594 272.19 232.019 271.891 232.472C271.592 232.789 271.503 233.34 271.37 233.73C270.771 234.724 270.859 235.978 270.814 237.134C270.79 238.534 270.079 239.651 269.611 240.923C268.924 241.742 268.095 242.481 268.242 243.638C268.219 244.351 267.945 245.057 268.332 245.719C268.431 246.033 268.791 246.418 268.424 246.653C268.355 246.681 268.195 246.746 268.122 246.767C267.106 246.845 267.443 248.01 267.446 248.785C267.439 249.524 267.372 250.249 267.562 250.974C267.901 252.357 267.964 253.781 267.539 255.128C267.455 255.662 267.53 256.111 267.374 256.614C267.214 257.192 266.921 257.631 266.664 258.342C266.058 259.61 266.065 261.261 264.98 262.262C263.501 263.638 260.519 263.127 260.332 260.903C260.132 259.767 260.545 258.624 260.745 257.509C260.845 256.552 260.923 255.708 260.973 254.669C261.072 253.094 261.023 251.246 261.09 249.689C261.114 248.769 261.182 248.128 261.348 247.409C261.473 246.877 261.444 246.247 261.44 245.638C261.476 244.735 261.548 243.816 261.603 242.9C261.658 241.774 262.194 240.748 262.188 239.659C262.213 238.951 262.031 238.15 262.11 237.41C262.154 236.865 262.198 236.297 262.156 235.756C261.969 234.548 262.303 233.75 262.477 232.326C262.529 231.611 262.417 230.862 262.532 230.266C262.654 229.576 263.02 229.135 263.346 228.704C263.457 228.575 263.525 228.451 263.522 228.291C263.528 227.999 263.088 227.5 263.15 226.737C263.179 225.929 263.714 224.873 264.014 224.014C264.234 223.167 264.902 222.167 265.164 221.653C265.832 220.583 265.259 219.727 265.18 218.551C264.948 216.834 265.957 215.379 266.415 213.782C266.975 212.479 266.043 211.307 266.373 210.015C266.491 209.575 266.896 209.179 267.11 208.868C267.508 208.353 267.252 207.72 267.326 207.099C267.405 205.459 268.253 203.919 269.146 202.519C269.894 201.543 269.523 200.302 269.233 199.216C269.088 198.49 269.24 197.79 269.311 197.079C269.382 196.37 269.899 195.473 269.82 194.718C269.672 193.272 268.187 193.186 267.041 193.402C266.118 193.636 265.427 194.293 264.414 194.295C263.566 194.485 262.377 194.211 261.482 194.452C260.19 195.111 259.499 194.341 258.205 194.536C257.574 194.663 257.001 195.075 256.407 195.336C254.903 196.027 253.188 195.691 251.629 196.036C250.651 196.112 249.966 196.42 249.126 196.426C248.572 196.407 247.99 196.292 247.34 196.126C246.031 195.8 244.158 195.776 242.994 196.066C241.328 196.49 239.791 197.178 238.256 197.984C237.449 198.346 236.644 198.848 235.761 198.983C234.849 199.059 234.152 199.095 233.33 199.322C232.742 199.44 232.137 199.627 231.525 199.768C230.52 200.15 229.296 200.791 228.106 200.918C225.709 201.348 223.386 200.799 221.014 200.889C219.872 200.971 218.487 200.946 217.614 201.683C216.8 202.418 216.878 203.707 216.792 204.747C216.586 206.691 217.003 208.479 216.845 210.353C216.769 211.364 216.612 212.433 216.496 213.412C216.472 214.064 216.821 214.572 217.085 215.119C217.179 215.282 217.37 215.499 217.183 215.619C217.039 215.739 216.868 215.811 216.72 215.95C216.428 216.121 216.502 216.817 216.651 217.198C216.84 217.85 216.943 218.478 217.284 219.101C217.454 219.447 217.587 219.758 217.615 220.016C217.692 221.463 216.693 222.959 217.621 224.3C217.831 224.665 217.933 225.108 218 225.514C218.136 226.33 218.437 226.919 218.595 227.772C218.799 228.896 218.28 230.392 218.465 231.56C218.951 233.359 219.084 235.374 219.316 237.144C219.585 237.913 219.495 238.729 219.586 239.512C219.644 239.954 219.52 240.394 219.645 240.836C220.245 242.445 219.651 244.268 219.631 245.902C219.671 246.315 219.819 246.699 219.864 247.108C219.884 247.429 220.049 247.794 219.898 248.015C219.634 248.309 219.386 248.581 219.45 249.046C219.427 249.871 220.253 250.379 220.5 251.128C220.946 251.865 220.837 252.828 221.165 253.587C221.938 255.134 222.498 257.318 221.193 258.918C220.176 260.207 218.078 261.758 216.611 260.544C216.108 259.962 216.136 259.093 215.862 258.398C215.526 257.334 214.975 256.65 214.656 255.5C214.363 254.497 213.865 253.477 213.62 252.47C213.41 251.524 213.57 250.426 213.486 249.509C213.475 248.748 212.958 248.161 212.791 247.446C212.389 246.245 212.195 244.605 212.026 243.384C212.002 242.416 212.045 241.331 212.188 240.404C212.156 239.635 212.285 238.95 211.748 238.43C211.405 237.873 211.192 237.197 211 236.53C210.645 234.057 210.295 231.762 209.829 229.267C209.667 228.334 209.373 227.392 209.615 226.457C209.728 226.037 209.825 225.488 209.95 225.005C210.051 224.379 210.339 223.892 210.243 223.317C210.052 222.754 209.912 222.226 209.737 221.674C209.709 221.478 209.561 221.353 209.391 221.272C209.182 221.173 208.844 220.915 208.86 220.718C208.929 220.355 209.245 220.032 209.361 219.676C209.639 219.168 209.352 218.705 209.232 218.203C209.029 217.364 209.152 216.403 209.114 215.472C209.15 214.706 209.045 213.862 209.232 213.097C209.555 211.949 209.991 210.975 210.293 209.873C210.463 209.042 210.458 208.171 210.446 207.323C210.252 206.387 210.089 205.654 209.738 204.607C209.274 203.649 209.206 202.338 208.861 201.408C208.692 200.992 208.602 200.78 208.403 200.729C207.665 200.625 206.843 200.92 206.043 200.883C204.696 200.893 203.511 201.1 202.121 201.136C201.02 201.19 199.81 201.062 198.691 201.162C197.326 201.299 196.156 201.15 194.845 201.208C193.781 201.248 192.22 201.885 191.215 202.258C190.717 202.45 190.255 202.719 189.74 202.825C188.926 202.944 188.101 202.787 187.279 202.909C185.713 202.966 184.859 204.234 184.721 205.727C184.621 206.323 184.359 206.882 184.26 207.466C184.056 208.223 185.504 208.786 185.312 209.679C185.121 210.513 184.227 210.711 184.513 211.519C184.594 211.892 184.721 212.299 184.67 212.685C184.625 213.295 184.073 213.969 184.047 214.533C184.039 214.771 184.21 215.128 184.319 215.563C184.664 216.515 183.773 217.527 183.484 218.405C183.368 218.776 183.405 219.204 183.562 219.569C183.67 219.883 183.82 220.254 183.625 220.563C183.308 221.045 182.664 221.173 182.464 221.65C182.304 222.283 182.493 222.977 182.343 223.667C182.153 224.848 181.926 225.977 181.588 227.106C181.438 227.647 181.219 228.202 181.076 228.761C181.007 229.136 180.778 229.763 180.555 229.835C180.353 229.933 180.13 229.855 179.883 230.064C179.822 230.121 179.77 230.204 179.723 230.313C179.421 231.075 179.334 232.138 179.04 232.862C178.747 234.298 177.076 236.434 178.282 237.774C178.475 238.033 178.658 238.261 178.61 238.591C178.533 239.016 178.083 239.382 177.81 239.711C177.419 240.159 177.314 240.546 177.123 241.055C176.891 241.679 177.031 242.403 176.75 243.012C176.559 243.435 176.301 243.821 176.063 244.169C175.818 244.512 175.508 244.879 175.521 245.307C175.528 245.512 175.577 245.723 175.614 245.935C175.752 246.617 175.746 247.474 175.485 248.36C175.357 248.795 175.206 249.241 174.912 249.572C174.432 250.071 173.858 250.301 173.464 250.939C173.052 251.483 173.182 252.242 173.076 252.876C172.836 254.383 171.45 255.425 170.886 256.754C170.628 257.351 170.596 257.921 170.685 258.552C170.775 259.278 170.631 260.126 170.202 260.897C169.91 261.438 169.448 261.934 169.256 262.509C168.951 263.075 169.522 263.777 169.427 264.332C169.096 265.483 167.616 264.653 166.994 265.595C166.6 265.971 166.437 266.203 166.083 266.456C165.636 266.629 165.258 266.631 164.678 266.678C163.202 266.823 162.409 265.073 162.239 263.825C162.027 262.704 162.865 261.541 162.835 260.444C162.964 259.621 162.785 258.753 163 257.937C163.367 256.886 164.381 256.135 163.842 255.038C163.695 254.66 164.143 254.316 164.308 253.98C165.041 252.474 166.45 251.11 166.773 249.397C166.93 248.738 166.942 247.888 167.259 247.215C167.668 246.44 167.964 245.546 168.5 244.902C168.951 244.373 170.234 243.398 169.778 242.651C168.281 241.372 169.037 241.188 169.668 239.679C170.167 238.569 170.056 237.28 170.217 236.11C170.441 234.963 170.78 233.825 171.263 232.785C171.575 231.884 171.596 230.818 171.789 229.854C172.273 228.337 172.503 226.658 172.393 225.035C172.363 224.002 172.464 223.406 172.398 222.551C172.648 221.148 172.719 219.497 172.729 218.071C172.789 217.657 172.893 217.243 172.762 216.832C172.4 215.812 171.755 214.64 171.583 213.574C171.468 212.758 171.394 212.395 170.618 212.047C169.878 211.401 169.167 210.221 168.83 209.299C168.519 208.628 168.545 207.9 168.07 207.283C167.429 206.308 166.868 205.344 166.457 204.299C166.109 203.74 165.518 203.582 165.05 203.155C164.04 202.204 163.424 200.613 162.916 199.322C162.52 198.199 162.317 196.985 161.758 195.915C161.189 194.697 161.241 193.575 160.367 192.688C160.204 192.438 160.328 192.217 160.432 191.836C160.639 191.228 160.507 190.799 160.033 190.449C159.343 189.917 159.201 188.998 159.291 188.14C159.338 187.169 159.252 186.275 159.084 185.445C158.942 184.555 158.679 183.775 158.686 182.867C158.621 182.043 158.693 181.169 158.478 180.371C158.228 179.467 157.727 178.836 157.149 178.173C156.749 177.526 156.147 176.945 155.947 176.147C155.775 174.733 156.502 172.942 156.041 171.591C155.75 170.46 155.124 169.475 154.849 168.39C154.619 167.494 154.79 166.314 154.612 165.561C154.248 164.276 152.411 165.762 151.901 166.382C151.152 167.207 150.747 168.408 150.935 169.512C151.696 171.667 150.976 172.976 150.13 174.928C149.797 176.091 149.37 177.072 149.06 178.105C148.83 178.638 148.439 179.073 148.476 179.652C148.485 180.085 148.51 180.39 148.624 180.715C148.842 181.743 147.876 182.638 147.91 183.689C147.863 184.224 148.058 184.676 148.207 185.159C148.294 185.499 148.473 185.882 148.303 186.304C148.221 186.531 148.089 186.746 147.983 186.962C147.606 187.666 147.747 188.654 147.605 189.379C147.651 190.514 146.489 191.104 146.295 192.162C146.066 193.505 145.833 194.934 145.913 196.323C145.966 197.563 145.66 198.604 145.688 199.776C145.624 200.607 146.205 201.34 146.246 202.162C146.259 203.438 145.41 205.867 143.835 205.592C142.297 204.808 142.76 202.66 142.403 201.182C142.199 199.348 141.644 197.386 141.895 195.564C142.246 192.633 142.594 189.714 142.624 186.715C142.804 185.838 143.016 184.94 143.126 184.137C143.208 183.78 143.274 183.573 143.266 183.24C143.396 182.506 143.518 181.606 143.825 180.857C144.306 180.1 144.892 179.507 145.085 178.667C145.499 177.744 145.513 176.41 146.042 175.498C146.34 174.97 146.821 174.72 147.102 174.274C147.261 174.043 147.192 173.792 147.158 173.511C147.088 173.096 146.983 172.511 147.016 171.882C147.054 170.162 147.371 168.424 147.742 166.752C147.919 165.775 147.682 165.665 147.304 166.458C146.762 167.701 146.605 169.099 145.992 170.354C145.332 171.666 144.827 172.691 144.71 174.02C144.27 175.429 143.476 176.862 143.127 178.354C142.46 180.344 141.839 182.143 141.362 184.165C141.215 185.224 141.545 186.362 141.366 187.406C141.252 188.05 140.856 188.6 140.757 189.205C140.618 190.529 140.752 191.827 140.512 193.129C140.596 194.666 140.734 196.74 140.635 198.335C140.533 199.245 140.808 199.931 140.526 200.788C139.708 202.112 140.416 203.85 139.616 205.256C137.348 209.252 134.147 208.351 133.573 203.942C133.469 203.512 133.685 203.184 133.629 202.574C133.616 202.204 133.636 201.831 133.675 201.458C133.8 200.556 133.543 199.663 133.513 198.89C133.495 197.102 133.471 195.179 134.081 193.482C134.446 192.693 135.236 192.303 135.495 191.507C135.689 190.796 135.237 190.027 135.29 189.288C135.248 188.085 135.942 186.785 136.138 185.56C136.232 184.709 136.028 183.448 136.086 182.756C136.144 181.903 136.889 181.437 137.274 180.677C137.6 180.109 137.902 179.476 138.227 178.902C138.752 177.886 138.87 176.815 139.118 175.728C139.348 174.616 139.998 173.816 140.178 172.762C140.205 172.498 140.158 172.201 140.145 171.931C140.118 171.455 140.254 171.178 140.272 170.783C140.273 170.337 140.665 170.056 140.918 169.765C141.381 168.909 141.531 167.56 141.833 166.59C142.178 165.505 142.767 164.864 143.34 163.979C143.79 163.302 144.104 162.626 144.54 161.987C144.979 161.247 145.605 160.823 146.174 160.213C146.622 159.739 147.03 159.163 147.204 158.641C147.361 158.098 147.464 157.51 147.816 157.06C147.861 156.993 147.905 156.919 147.95 156.852C148.044 156.557 148.52 156.263 148.367 155.947C148.309 155.86 148.218 155.826 148.097 155.814C147.753 155.782 147.158 156.053 146.635 156.374C145.902 156.827 145.399 157.559 144.778 158.185C143.674 159.301 142.896 160.703 142.05 161.993C141.064 163.465 140.58 165.113 140.435 166.842C140.193 168.481 139.606 170.206 138.553 171.53C138.081 172.267 138.006 172.9 137.643 173.8C136.878 175.363 135.711 176.631 135.081 178.287C134.006 180.067 133.525 181.865 133.106 183.897C132.736 184.923 132.483 185.974 132.205 187.009C131.846 188.17 131.748 189.451 131.581 190.629C131.525 191.564 131.457 192.453 131.01 193.265C130.742 193.806 130.582 194.319 130.496 194.894C130.45 195.866 130.466 196.914 130.184 197.843C129.643 199.359 128.162 199.538 127.472 197.677C127.091 196.549 127.226 195.563 127.522 194.346C127.775 193.413 128.08 192.208 128.118 191.143C128.207 189.363 127.76 187.935 127.706 186.257C127.772 184.954 128.153 183.895 128.399 182.67C128.477 181.906 128.61 181.171 128.808 180.527C129.085 179.873 129.192 179.146 129.329 178.456C130.048 176.202 131.219 173.886 132.535 171.906C133.232 171.022 133.845 170.593 134.447 169.911C134.579 169.764 134.631 169.58 134.666 169.38C134.774 168.369 135.359 167.12 135.77 166.058C136.195 165.043 136.767 163.873 137.359 163.007C137.689 162.538 137.732 162.1 138.153 161.814C138.978 160.792 139.727 159.449 140.57 158.362C141.964 156.574 143.567 155.16 145.234 153.606C146.272 152.705 147.796 152.629 149.076 152.423C149.807 152.404 149.937 153.317 150.722 152.964C151.994 152.427 152.947 152.111 154.151 151.309C155.12 150.616 156.361 150.621 157.504 150.557C159.173 150.519 160.313 149.239 161.577 148.31C162.718 147.492 163.591 147.257 164.704 146.807C165.492 146.529 166.419 146.135 167.272 146.03C167.938 145.943 168.626 146.052 169.279 145.888C169.94 145.714 170.6 145.458 171.279 145.245C172.148 144.985 173.003 145.238 173.873 144.992C175.134 144.597 176.71 144.285 178.108 144.373C178.8 144.384 179.366 144.617 180.009 144.714C181.494 144.911 182.701 144.202 184.299 144.154C184.931 144.151 185.48 144.315 186.076 144.41C187.238 144.623 188.826 144.367 190.14 144.05C191.458 143.759 192.831 142.905 194.197 143.452C195.013 143.7 195.321 144.117 196.065 143.954C197.251 143.594 198.637 142.773 199.91 143.155C200.473 143.278 200.898 143.389 201.396 143.374C202.376 143.33 203.181 142.924 204.239 142.844C205.561 142.712 206.844 142.63 208.19 142.561C210.235 142.558 212.013 142.465 213.96 141.982C215.224 141.734 216.583 141.714 217.86 141.982C220.305 142.454 222.173 142.06 224.504 142.373C227.011 142.325 228.705 141.781 230.853 143.519C231.334 143.857 231.844 144.127 232.44 144.111C232.994 144.077 233.619 143.919 234.179 143.777C236.028 143.3 238.269 144.133 240.011 144.483C240.587 144.573 241.132 144.494 241.693 144.375C242.557 144.126 243.366 144.456 244.23 144.789C244.526 144.869 244.773 144.955 245.055 144.887C245.6 144.73 245.764 144.304 246.375 144.326C247.548 144.312 249.009 145.138 250.228 144.866C250.796 144.692 251.759 144.175 252.479 143.942C254.232 143.318 255.382 142.037 256.988 141.244C257.942 140.663 257.992 139.633 258.993 139.191C259.687 138.823 260.505 138.546 260.919 137.95C261.051 137.12 260.136 136.194 259.507 135.499C258.863 134.771 258.215 134.026 257.484 133.4C256.485 132.518 254.979 131.68 255.191 130.133C255.479 128.672 257.466 128.006 258.66 128.767C259.201 129.107 259.644 129.684 260.101 130.158C260.969 130.983 261.806 131.961 262.446 132.986C262.58 133.207 262.694 133.406 262.777 133.635C262.974 134.137 262.831 134.636 262.82 134.925C262.736 135.496 263.202 135.272 263.605 135.195C264.618 134.818 265.767 134.114 266.34 133.211C266.703 132.658 266.968 132.066 267.274 131.468C267.584 130.875 268.032 130.273 267.746 129.616C267.407 128.757 266.625 128.215 266.013 127.472C265.039 126.328 263.911 125.222 263.529 123.706C263.097 122.322 264.845 120.831 266.026 120.957C267.212 121.082 267.769 122.322 268.329 123.207C268.795 123.848 269.314 124.43 269.594 125.296C270.021 126.164 269.705 128.289 271.235 127.916C273.183 127.118 274.557 125.665 276.139 124.229C277.524 123.003 278.997 121.98 280.01 120.546C280.384 119.907 281 119.395 281.287 118.734C282.409 116.95 280.283 115.389 279.629 113.887C278.895 112.349 278.671 110.071 277.72 108.63C277.324 108.046 276.95 107.452 276.534 106.882C275.847 105.905 275.264 104.556 275.785 103.42C276.046 102.9 276.599 102.48 277.206 102.749C277.666 102.946 278.054 103.443 278.337 103.879C278.769 104.525 279.194 105.094 279.399 105.798C279.595 106.469 279.694 107.128 279.847 107.838C280.065 109.132 280.94 110.159 281.622 111.243C282.138 112.038 282.539 112.662 282.858 113.333C283.199 114.139 283.557 114.862 284.471 114.794C285.264 114.692 286.414 114.163 286.562 113.297C286.644 111.806 286.084 110.085 285.288 108.829C284.518 107.817 283.371 107.069 283.106 105.756C282.947 104.709 282.821 103.379 283.536 102.52C284.016 102.024 284.643 102.038 285.1 102.509C285.712 103.038 286.02 103.858 286.484 104.485C287.118 105.13 288.03 106.027 288.284 107.039C288.72 108.986 288.419 109.393 290.048 110.587C291.068 111.444 291.889 109.266 292.035 108.527C292.134 107.726 291.379 107.233 290.9 106.666C289.786 105.471 289.647 103.494 289.341 102.063C289.065 100.578 287.989 99.2174 288.55 97.6747C288.793 96.7925 289.945 96.0821 290.669 96.9203C291.258 97.6118 291.478 98.5613 291.833 99.3839C292.475 101.264 293.417 103.145 294.14 105.01C294.684 106.67 296.11 105.12 296.683 104.307C297.043 103.84 297.449 103.41 297.588 102.933C297.739 102.16 297.574 101.46 297.291 100.667C296.528 99.0932 295.279 97.7215 294.08 96.4597C293.586 95.8555 292.951 95.2952 292.921 94.4762C292.953 93.4448 293.993 92.6896 294.951 92.6091C296.948 92.4769 297.105 95.3785 297.892 96.7054C298.477 97.6003 298.963 98.7393 299.249 99.6615C299.481 100.05 299.522 100.823 299.926 101.054C300.081 101.144 300.361 101.032 300.47 100.758C300.627 100.143 300.734 99.179 300.836 98.502C300.914 97.9395 301.04 97.4569 301.517 97.1072C301.936 96.7513 302.534 96.3859 302.521 95.7655C302.517 95.6873 302.508 95.631 302.481 95.5695C302.341 95.4567 301.912 95.6308 301.748 95.5795C301.657 95.5592 301.638 95.4303 301.703 95.205C301.773 94.9714 301.912 94.6383 302.105 94.2899C302.543 93.5882 303.225 92.9338 303.524 92.2352C303.955 91.001 303.927 89.6123 304.229 88.3815C304.508 87.3219 304.673 85.7751 305.054 84.5977C305.527 83.1319 305.957 81.4669 306.577 80.1314C306.839 79.653 307.113 79.4093 307.269 79.4831C307.422 79.5544 307.54 79.7243 307.658 79.8524C307.96 80.1846 308.328 80.6833 308.752 81.0111C309.672 81.7476 309.826 83.1422 309.875 84.1939C309.825 85.0419 309.896 86.0293 309.86 86.9326C309.891 87.8905 310.359 88.7432 310.427 89.6479C310.461 90.025 310.32 90.5014 310.506 91.1887C310.599 91.5604 310.707 91.9341 310.75 92.3195C310.798 93.0995 310.861 93.9873 311.088 94.6035C311.301 95.4642 312.108 96.4553 312.95 96.5191C313.504 96.4809 313.774 95.8218 313.977 95.3481C314.334 94.1917 314.419 93.0511 314.591 91.8623C314.701 89.7618 316.599 87.3526 316.669 85.1329C316.814 84.3721 316.466 83.4816 316.522 82.8804C316.57 82.5685 316.532 82.2355 316.595 81.9378C316.71 81.5714 317.05 81.2703 317.008 80.8596C316.575 78.4545 319.184 78.7848 320.421 80.2311C321.566 81.5638 321.759 84.2811 321.972 86.0287C322.037 89.5023 321.706 92.823 322.214 96.2595C322.217 97.3987 321.937 98.4296 321.492 99.4268C321.369 99.8604 320.871 100.614 321.205 100.954C321.523 101.276 323.057 101.347 323.753 101.766C324.809 102.434 325.775 103.303 326.764 104.072C327.633 104.792 327.851 105.672 328.567 106.395C329.524 107.337 331.236 107.532 332.048 108.703C333.205 109.936 335.193 110.189 336.353 111.428C337.025 111.997 337.557 112.837 338.164 113.457C338.566 113.889 339.132 114.116 339.526 114.526C339.918 114.86 339.427 115.499 339.775 115.849C340.479 116.366 341.441 116.618 342.045 117.285C342.657 118.044 342.779 119.063 343.377 119.834C344.368 121.161 346.327 122.393 347.43 123.682C347.832 124.324 347.977 124.948 348.413 125.525C348.824 126.171 349.303 126.603 349.857 127.329C350.962 129.152 351.968 131.039 352.419 133.066C352.658 134.591 352.629 136.254 352.984 137.741C353.533 140.602 350.671 142.507 348.716 144.089C347.483 145.06 345.981 146.352 344.247 146.273C342.486 146.203 340.688 145.393 339.261 144.34C338.435 143.754 337.982 142.868 337.328 142.146C336.287 141.03 334.924 140.286 333.707 139.373C332.76 138.737 332.491 137.607 331.576 136.908C330.097 135.969 328.482 135.498 326.875 134.671C325.301 133.977 323.373 133.698 321.628 133.619C320.026 133.465 318.407 133.811 316.953 133.135C316.691 133.037 316.45 132.927 316.187 132.827C315.906 132.738 315.638 132.609 315.338 132.638C314.961 132.63 314.415 132.869 313.996 132.817C313.397 132.694 312.832 132.219 312.196 132.286C311.289 132.469 310.839 133.469 310.365 134.191C309.699 135.587 308.863 136.444 308.283 137.652C308.191 137.856 308.157 138.076 308.15 138.298C308.128 139.052 307.875 139.604 307.935 140.405C307.952 140.769 307.97 142.418 307.486 142.416C307.194 142.384 306.858 141.876 306.703 142.063C306.385 142.507 306.665 142.936 307.008 143.387C307.497 144.108 308.027 144.306 307.065 144.846C306.389 145.293 305.417 145.639 305.178 146.255C305.077 146.568 305.278 146.922 305.32 147.31C305.402 147.841 305.127 148.387 305.021 148.91C304.805 149.769 305.409 150.704 304.53 151.235C303.904 151.648 302.782 151.742 302.427 152.474C302.36 152.664 302.423 152.871 302.546 153.107C303.382 154.304 303.256 154.654 302.44 155.858C301.768 157.064 301.034 158.464 299.667 159.059C299.062 159.418 298.549 160.072 298.113 160.622C297.949 160.847 297.884 160.946 298.083 161.087C300.819 162.356 299.529 163.717 297.987 165.519C297.672 165.933 297.472 166.423 297.219 166.878C296.555 168.112 295.543 169.311 295.705 170.769C295.848 171.365 295.427 172.203 294.736 172.07C294.119 171.787 293.438 171.667 293.026 172.326C292.318 173.36 294.252 172.801 293.529 174C293.241 174.585 292.095 174.569 291.804 174.701C291.659 174.777 291.655 174.884 291.673 175.098C291.722 175.612 291.82 176.235 291.706 176.773C291.534 177.71 291.229 178.39 291.385 178.955C291.506 179.397 291.746 179.837 291.512 180.288C290.444 181.897 289.329 183.221 288.659 185.115C288.23 186.444 288.26 187.983 287.476 189.095C286.314 191.002 285.464 192.675 282.901 192.012C282.47 191.913 282.74 192.373 282.928 192.479C283.438 192.885 284.431 193.055 284.708 193.774C285.059 194.413 284.985 195.03 285.126 195.893C285.352 197.096 285.903 198.286 286.045 199.516C286.465 201.212 285.761 202.812 286.402 204.396C286.741 205.08 287.034 205.864 287.267 206.548C287.35 206.875 287.351 207.149 287.433 207.485C288.049 210.094 288.711 212.757 289.831 215.229C290.369 216.419 290.924 217.586 291.539 218.767C292.227 220.213 293.401 221.55 293.819 223.148C294.145 224.235 294.612 225.119 294.975 226.146C295.367 227.424 295.672 228.718 296.073 229.933C296.31 230.562 296.361 231.291 296.799 231.929C297.252 232.549 297.714 233.179 297.977 233.905C298.219 234.722 298.541 235.704 299.079 236.482C299.763 237.734 299.498 239.218 300.126 240.515C300.447 241.263 300.827 241.994 300.943 242.805C301.029 243.468 301.055 244.117 301.24 244.759C301.677 246.155 302.582 247.701 302.85 249.237C303.081 249.86 303.171 250.426 303.481 250.99C303.85 251.437 304.127 251.886 304.455 252.394C304.947 253.047 305.104 253.992 305.508 254.736C305.707 255.141 305.855 255.433 305.796 255.805C305.732 256.485 305.108 256.865 304.495 257.241C303.783 257.579 303.03 257.922 302.225 257.939C301.097 257.957 299.798 257.272 299.168 256.252C298.615 255.285 297.844 254.072 297.306 253.277C297.012 252.77 296.632 252.233 296.406 251.707C296.06 250.648 295.684 249.568 295.318 248.499C294.68 246.659 294.029 245.038 293.571 243.146C293.502 242.421 293.497 241.82 293.183 241.269C293.017 240.797 292.415 240.513 292.359 240.061C292.461 239.585 292.567 239.483 292.178 238.856C292.048 238.629 291.844 238.373 291.674 238.145C291.33 237.705 291.263 237.268 291.129 236.827C290.725 235.654 290.133 234.374 289.932 233.075C289.631 231.36 288.804 230.209 288.38 228.671C288.249 227.917 287.828 227.267 287.443 226.641C287.329 226.391 287.184 226.135 286.959 225.985C286.418 225.623 285.94 225.205 285.46 224.648C284.805 223.98 284.517 222.962 284.118 222.112C283.646 221.154 283.235 220.088 282.922 219.032C282.805 218.523 282.619 217.841 282.834 217.443C282.953 217.115 283.539 217.115 283.516 216.706C283.492 216.27 283.284 215.346 282.721 215.152C282.566 215.094 282.459 215.112 282.308 215.131C282.077 215.156 281.431 215.445 281.441 215.057C281.374 214.32 282.46 213.495 282.48 212.687C282.587 212.01 281.658 212.168 281.242 212.136ZM321.355 112.162C320.952 111.952 320.372 112.65 320.084 113.141C319.513 113.938 319.264 114.966 319.058 115.792C318.917 116.388 318.278 116.977 318.133 117.441C318.078 117.768 318.399 117.964 318.628 118.144C319.022 118.405 319.297 118.827 319.535 119.223C319.839 119.751 320.56 119.533 321.094 119.601C321.668 119.623 322.319 119.917 322.931 119.75C323.303 119.642 323.54 119.366 323.795 119.106C324.06 118.837 324.373 118.595 324.56 118.36C324.922 118.036 325.281 117.77 325.502 117.315C326.296 116.338 326.447 115.031 325.432 114.11C324.91 113.651 324.449 113.134 323.81 112.943C323.519 112.865 323.189 112.921 322.874 112.929C322.312 112.999 321.835 112.394 321.355 112.162ZM295.13 120.587C294.88 120.885 295.534 121.336 295.813 121.424C296.725 121.753 296.875 120.425 297.125 119.685C297.326 119.042 297.168 118.633 296.728 118.709C296.272 118.773 295.777 119.145 295.901 119.66C295.973 120.01 296.32 120.349 296.221 120.493C296.08 120.683 295.309 120.447 295.13 120.587ZM271.405 138.033C271.149 137.749 270.689 137.769 270.326 137.813C269.22 137.982 268.807 139.039 268.233 140.066C268.176 140.297 266.591 142.103 267.521 141.58C268.515 140.954 269.202 139.967 269.924 139.143C270.271 138.779 270.883 138.662 271.263 138.34C271.391 138.236 271.44 138.121 271.405 138.033ZM217.05 148.118C217.599 147.867 217.583 146.901 217.118 146.646C216.565 146.402 216.006 146.957 215.496 147.124C214.909 147.374 214.189 147.085 213.674 147.125C213.256 147.139 212.91 147.342 212.525 147.468C212.161 147.587 211.597 147.615 211.123 147.863C210.882 147.988 210.19 148.41 210.542 148.652C210.733 148.749 211.2 148.784 211.654 148.94C212.245 149.132 212.811 149.456 213.444 149.406C214.045 149.383 214.543 148.96 215.032 148.681C215.686 148.307 216.408 148.443 217.05 148.118ZM234.099 147.167C234.01 147.094 233.958 147.093 233.885 147.089C233.587 147.105 233.135 147.489 232.72 147.578C232.387 147.699 231.944 147.577 231.654 147.776C231.491 147.927 231.671 148.293 231.623 148.663C231.611 148.912 231.439 149.13 231.305 149.314C231.63 149.416 232.724 149.13 233.037 148.676C233.147 148.562 233.261 148.447 233.402 148.394C233.675 148.275 234.045 148.459 234.212 148.308C234.482 148.024 234.323 147.44 234.099 147.167ZM202.634 149.25C201.887 148.804 200.954 149.198 200.1 149.146C198.749 149.244 197.968 149.494 199.452 150.344C199.885 150.608 199.92 150.841 200 151.057C200.032 151.152 200.049 151.249 200.044 151.353C199.991 151.756 199.757 152.218 200.066 152.579C200.23 152.764 200.394 152.641 200.631 152.514C200.912 152.358 201.245 152.171 201.511 151.969C201.917 151.671 202.074 151.375 202.237 151.124C202.535 150.749 202.686 150.261 202.788 149.792C202.838 149.571 202.839 149.398 202.634 149.25ZM275.365 153.244C275.053 152.993 274.527 152.866 274.186 153.123C273.887 153.36 274.013 153.75 273.802 154.107C273.734 154.228 273.628 154.343 273.539 154.441C273.456 154.534 273.4 154.628 273.518 154.715C273.907 154.917 274.736 155.076 274.824 154.454C274.944 153.811 275.074 154.094 275.474 154.24C276.098 154.365 275.628 153.425 275.365 153.244ZM258.855 163.771C258.832 163.716 258.761 163.708 258.704 163.719C258.312 163.826 258.085 164.271 257.875 164.602C257.322 165.401 256.536 166.207 256.118 167.129C256.078 167.23 256.071 167.308 256.109 167.354C256.367 167.513 256.881 167.239 257.174 167.129C257.801 166.877 258.053 166.471 258.168 165.766C258.269 165.317 258.408 164.845 258.629 164.441C258.729 164.234 258.89 163.957 258.855 163.771ZM217.402 165.849C217.338 165.775 217.203 165.788 217.103 165.81C216.524 165.941 216.269 166.335 215.87 166.792C215.679 167.068 215.272 167.356 215.22 167.669C215.322 167.81 215.652 167.713 215.824 167.696C216.637 167.552 216.987 167.235 217.294 166.477C217.359 166.295 217.469 166.027 217.402 165.849ZM277.563 168.127C277.596 168.094 277.515 167.953 277.382 167.754C277.141 167.442 276.937 166.965 276.524 166.875C276.11 166.851 275.288 167.107 275.08 167.488C274.951 167.893 275.476 168.163 275.567 168.556C275.624 168.688 275.619 168.909 275.685 169.017C275.841 168.981 275.971 168.661 276.117 168.48C276.276 168.249 276.47 167.931 276.733 167.887C277.034 167.822 277.464 168.168 277.563 168.127ZM254.302 169.039C254.016 168.649 253.651 168.238 253.311 167.873C253.019 167.492 252.556 167.196 252.235 167.71C252.005 168.061 252.038 168.63 251.96 169.014C251.883 169.608 251.359 169.965 250.999 170.403C250.441 171.065 250.491 173.088 251.385 172.206C252.128 171.535 252.872 170.2 253.778 169.83C254.342 169.652 254.735 169.533 254.302 169.039ZM276.686 180.889C277.162 179.44 273.877 179.544 274.225 180.814C274.334 181.15 274.686 181.116 274.971 180.946C275.223 180.832 275.524 180.447 275.78 180.509C275.976 180.575 275.906 181.178 276.03 181.562C276.29 182.422 276.573 181.204 276.686 180.889ZM289.191 180.244C288.918 180.044 288.518 180.194 288.135 180.443C287.405 180.907 287.089 181.732 286.353 182.198C285.901 182.536 285.419 183.271 285.441 183.58C285.456 183.858 285.757 183.994 285.971 184.127C286.39 184.299 287.027 184.704 287.461 184.569C288.137 184.207 287.432 183.463 287.456 182.884C287.525 182.171 288.22 181.699 288.69 181.219C288.95 180.948 289.429 180.558 289.191 180.244ZM262.428 184.688C262.218 184.518 262.025 184.758 261.998 184.973C261.859 185.608 262.568 186.22 262.473 186.755C262.45 187.049 261.311 187.456 261.715 187.691C262.297 187.804 263.144 187.466 263.669 187.164C264.023 186.898 263.742 186.62 263.748 186.252C263.735 186.065 263.788 185.881 263.782 185.702C263.75 185.403 263.28 185.401 262.939 185.138C262.759 185.02 262.586 184.821 262.428 184.688ZM258.569 186.926C258.159 186.715 257.846 187.474 257.573 187.696C257.246 188.063 256.576 188.221 256.654 188.505C256.75 188.757 257.034 188.889 257.261 189.034C257.522 189.164 257.866 189.401 258.108 189.405C258.114 189.281 258.066 189.006 258.118 188.86C258.205 188.521 258.875 188.498 259.071 188.302C259.253 188.12 259.068 187.874 258.995 187.671C258.888 187.443 258.737 187.077 258.569 186.926ZM185.945 195.302C185.884 195.232 185.754 195.213 185.575 195.23C185.165 195.277 184.682 195.423 184.331 195.66C183.654 196.1 184.274 197.243 184.748 197.644C185.06 197.893 185.445 197.747 185.756 197.566C186.375 197.171 187.079 197.021 187.387 196.519C187.401 196.329 187.076 196.29 186.671 196.392C186.34 196.479 185.92 196.746 185.65 196.9C184.766 197.419 186.227 195.534 185.945 195.302Z" fill="rgb(255,255,255)" fill-rule="nonzero" />
			</g>
			<g style="mix-blend-mode:normal">
				<path id="Path 5440" d="M252.01 267.227C252.563 267.421 252.941 267.615 253.602 267.649C253.937 267.638 254.283 267.609 254.614 267.655C255.493 267.905 256.29 267.856 257.162 268.026C258.585 268.222 258.859 269.65 257.996 270.667C257.313 271.288 256.334 271.25 255.453 271.525C254.649 271.754 253.944 271.968 253.043 271.956C251.51 271.899 249.948 272.332 248.582 272.805C247.664 273.104 246.739 273.376 245.873 273.826C244.453 274.468 243.318 274.6 241.919 275.074C241.275 275.353 240.645 275.659 239.961 275.806C239.557 275.901 239.143 275.902 238.738 275.88C237.975 275.838 237.775 276.025 237.109 276.277C236.351 276.554 235.267 276.512 234.521 276.199C234.101 276.005 233.907 275.594 233.717 275.284C233.6 275.093 233.448 274.925 233.207 274.936C232.464 275.041 231.615 275.773 230.971 275.768C230.258 275.843 229.798 275.281 229.29 274.868C228.534 274.327 227.582 273.851 226.648 274.039C224.886 274.457 223.009 274.242 221.217 274.545C220.661 274.66 220.108 274.843 219.559 275.003C218.516 275.304 217.61 275.75 216.636 275.23C215.97 274.865 215.139 273.926 214.994 273.134C214.834 272.112 215.484 272.088 216.2 272.098C216.774 272.099 217.425 271.771 218.203 271.611C218.938 271.455 219.729 271.647 220.468 271.686C222.027 271.899 223.261 271.032 224.812 270.977C225.826 270.872 226.845 271.129 227.847 271.143C229.266 271.072 230.385 271.115 231.891 271.286C232.783 271.335 233.503 271.342 234.211 271.602C234.702 271.779 235.19 271.997 235.72 271.996C236.6 271.971 237.398 271.689 238.436 271.784C238.913 271.812 239.43 271.976 239.887 271.972C240.461 271.963 240.693 271.543 241.431 271.198C242.485 270.786 244.048 270.331 245.225 270.729C245.607 270.821 245.741 270.666 246.119 270.411C246.513 270.168 246.798 269.768 247.169 269.519C248.102 269.177 248.477 268.142 249.19 267.49C249.903 266.93 251.167 266.879 252.01 267.227ZM239.409 272.692C239.314 272.574 238.824 272.375 238.582 272.256C238.172 272.079 237.741 271.854 237.291 271.868C236.753 271.887 236.523 272.442 236.152 272.934C235.945 273.303 235.453 273.625 235.48 274.065C235.579 274.358 235.898 274.558 236.194 274.63C236.589 274.717 236.907 274.524 237.179 274.338C237.644 273.967 238.048 273.805 237.78 273.364C237.678 273.13 237.34 272.742 237.661 272.56C238.142 272.323 239.15 272.726 239.409 272.692Z" fill="rgb(255,255,255)" fill-rule="nonzero" />
			</g>
			<g style="mix-blend-mode:normal">
				<path id="Path 5441" d="M296.9 258.984C297.486 259.192 299.356 259.158 299.072 260.092C298.854 260.676 298.28 261.425 297.624 261.593C297.213 261.701 296.832 261.724 296.399 261.802C295.294 261.866 294.324 262.674 293.412 263.156C292.362 263.727 291.25 263.774 290.116 264.18C288.737 264.731 287.307 265.01 285.939 265.01C284.312 265.062 282.193 265.127 280.844 266.318C279.967 266.999 278.805 267.422 277.756 267.712C276.654 268.125 275.581 268.628 274.386 268.992C272.502 269.564 267.239 270.419 267.014 267.558C267.029 266.369 268.033 265.856 268.891 265.454C269.129 265.289 269.262 264.993 269.453 264.787C269.894 264.33 270.68 264.196 271.3 264.313C272.115 264.496 272.498 265.228 273.076 265.449C273.716 265.679 274.426 265.357 275.035 265.14C276.895 264.458 278.125 263.262 280.055 262.784C281.94 262.309 283.33 261.21 285.056 260.531C285.863 260.253 286.89 260.454 287.648 260.372C288.428 260.312 289.197 260.182 289.946 259.978C290.621 259.857 291.109 259.536 291.747 259.535C292.349 259.534 293.175 259.815 293.82 259.766C294.23 259.731 294.507 259.42 294.816 259.185C295.493 258.549 296.1 258.744 296.9 258.984Z" fill="rgb(255,255,255)" fill-rule="nonzero" />
			</g>
			<g style="mix-blend-mode:normal">
				<path id="Path 5442" d="M300.536 264.679C300.845 264.738 301.146 264.829 301.451 264.902C302.053 265.061 302.715 265.018 303.123 265.171C303.552 265.345 303.714 265.747 303.93 266.097C304.141 266.509 304.66 266.355 305.02 266.222C305.499 266.054 305.982 266.007 306.44 265.788C307.094 265.463 307.652 265.343 308.446 265.109C308.915 264.954 309.406 264.846 309.902 264.884C311.016 264.867 312.23 265.614 311.99 266.828C311.718 267.873 310.74 268.42 309.798 269.124C309.459 269.36 309.102 269.585 308.729 269.758C307.078 270.523 305.317 269.654 303.59 270.231C301.391 270.867 300.388 270.999 298.59 269.457C297.448 268.425 295.927 269.196 294.605 269.333C294.062 269.394 293.532 269.429 292.995 269.509C292.259 269.625 291.44 269.847 290.91 269.511C290.369 269.208 290.385 268.558 290.688 268.014C290.893 267.612 291.252 267.393 291.652 267.269C292.373 267.038 293.117 266.666 293.811 266.285C294.833 265.812 295.81 265.68 296.868 265.168C297.972 264.656 299.358 264.443 300.536 264.679Z" fill="rgb(255,255,255)" fill-rule="nonzero" />
			</g>
			<g style="mix-blend-mode:normal">
				<path id="Path 5443" d="M218.443 262.924C218.785 262.919 219.045 262.896 219.227 262.973C219.607 263.148 219.573 263.731 219.298 263.993C218.994 264.273 218.502 264.566 218.436 264.931C218.284 265.367 218.526 265.879 218.546 266.31C218.401 266.854 217.868 267.14 217.208 266.992C216.34 266.854 215.278 266.529 214.486 267.052C213.983 267.445 213.631 267.71 212.917 268.04C212.005 268.466 210.636 268.24 209.832 268.594C209.359 268.757 208.941 269.086 208.481 269.308C207.799 269.579 207.106 269.799 206.448 269.96C205.754 270.084 205.603 270.489 205.095 270.786C204.787 270.997 204.23 271.274 203.778 271.366C202.907 271.583 201.903 271.988 200.961 271.989C199.525 271.92 197.067 271.719 196.404 270.251C196.242 269.81 196.257 269.232 196.637 268.916C197.377 268.418 198.465 268.25 199.338 268.209C200.113 268.266 200.488 268.866 201.173 268.682C201.409 268.592 201.687 268.244 201.926 268.148C202.419 268.042 202.778 268.197 203.412 268.227C203.844 268.29 204.266 268.184 204.683 268.074C205.405 267.902 205.972 267.931 206.542 267.596C208.301 266.796 206.086 264.914 208.035 264.684C208.965 264.707 210.07 264.753 210.936 264.714C211.296 264.68 211.914 264.802 212.056 264.402C212.143 262.916 212.315 263.04 213.688 262.849C214.185 262.754 214.659 262.538 215.179 262.56C216.288 262.619 217.359 263.022 218.443 262.924Z" fill="rgb(255,255,255)" fill-rule="nonzero" />
			</g>
			<g style="mix-blend-mode:normal">
				<path id="Path 5444" d="M151.764 266.236C152.234 266.167 152.697 266.133 153.163 266.253C153.855 266.475 154.538 267.07 154.871 267.588C155.001 268.314 154.105 269.113 153.513 269.513C152.826 269.982 151.896 270.087 151.106 270.509C150.68 270.728 150.282 271.024 149.854 271.226C149.407 271.427 149.042 271.509 148.643 271.57C148.034 271.591 147.438 271.558 146.883 271.878C145.758 272.406 144.421 272.383 143.226 272.749C142.222 273.051 141.171 273.435 140.123 273.431C139.438 273.409 138.894 273.528 138.589 273.078C138.224 272.303 137.913 271.057 138.303 270.169C139.391 268.757 141.698 269.011 143.18 268.558C143.743 268.42 144.307 268.664 144.863 268.817C145.083 268.878 145.33 268.975 145.512 268.842C145.825 268.611 146.127 268.045 146.493 267.758C147.059 267.427 147.667 267.275 148.276 266.988C148.59 266.877 148.884 266.715 149.182 266.57C149.912 266.232 150.944 266.402 151.764 266.236Z" fill="rgb(255,255,255)" fill-rule="nonzero" />
			</g>
			<g style="mix-blend-mode:normal">
				<path id="Path 5445" d="M248.742 256.657C249.031 257.27 248.407 258.097 248.547 258.794C248.582 258.938 248.588 259.123 248.75 259.129C248.847 259.117 248.945 259.057 249.043 259.03C249.305 258.938 249.558 259.015 249.448 259.296C249.173 259.982 248.212 260.444 247.436 260.712C246.595 261.142 245.577 261.449 244.718 261.658C244.297 261.795 244.102 262.167 243.705 262.327C243.139 262.555 242.331 262.237 242.017 262.861C241.94 262.997 241.867 263.125 241.738 263.233C240.957 263.752 239.764 263.68 238.813 263.775C237.582 263.824 236.927 264.374 236.307 264.364C235.961 264.317 235.657 264.141 235.276 264.041C234.648 263.989 234.024 264.523 233.369 264.341C231.875 264.006 233.461 261.772 234.217 261.33C235.045 260.765 235.883 260.802 236.88 260.285C237.536 259.942 238.215 259.495 238.942 259.36C239.634 259.164 240.303 259.172 240.979 258.961C241.734 258.701 242.675 257.959 243.555 257.659C244.283 257.403 245.045 257.415 245.695 257.294C246.569 257.197 247.426 256.644 248.309 256.563C248.529 256.548 248.669 256.577 248.742 256.657Z" fill="rgb(255,255,255)" fill-rule="nonzero" />
			</g>
			<g style="mix-blend-mode:normal">
				<path id="Path 5446" d="M193.755 259.233C194.161 259.441 194.475 259.703 194.908 259.71C195.503 259.682 196.263 259.434 196.796 259.715C197.357 259.901 198.304 260.537 198.08 261.251C197.577 262.062 196.5 262.619 195.67 263.007C194.814 263.464 194.076 263.694 193.043 264.099C192.397 264.374 191.66 264.574 190.985 264.377C190.627 264.324 190.188 264.041 189.843 264.102C189.692 264.162 189.598 264.434 189.491 264.696C189.383 265.246 188.763 265.722 188.153 265.893C187.43 266.164 186.643 266.359 185.914 266.019C184.971 265.623 184.427 265.674 183.687 266.139C183.159 266.423 182.486 266.585 182.054 266.358C181.696 266.051 181.723 265.52 181.951 265.089C182.315 264.435 182.764 263.825 183.492 263.234C185.27 261.685 187.897 262.354 189.795 261.015C191.05 260.385 192.21 258.281 193.755 259.233Z" fill="rgb(255,255,255)" fill-rule="nonzero" />
			</g>
			<g style="mix-blend-mode:normal">
				<path id="Path 5447" d="M269.914 108.572C270.767 108.74 271.262 109.56 271.862 110.172C272.065 110.398 272.194 110.678 272.31 110.956C272.504 111.417 272.785 111.792 272.993 112.232C273.597 113.179 274.427 113.726 274.984 114.813C275.899 116.64 276.809 118.194 277.746 119.97C277.978 120.527 278.281 121.658 277.793 122.035C277.388 122.309 276.797 122.187 276.39 121.94C275.84 121.68 275.407 121.672 275.106 121.184C274.928 120.877 274.722 120.659 274.573 120.254C274.45 119.895 274.355 119.509 274.184 119.163C273.835 118.413 273.228 117.764 273.831 117.079C273.943 116.891 273.749 116.885 273.579 116.895C273.034 116.908 272.428 117.19 271.96 117.497C271.617 117.708 271.223 117.878 270.856 117.667C270.458 117.456 270.378 116.754 270.22 116.328C270.112 115.897 269.773 115.811 269.412 115.589C268.943 115.322 268.378 114.69 268.048 113.908C267.599 112.911 267.586 111.964 267.864 110.897C267.952 109.824 268.698 108.391 269.914 108.572Z" fill="rgb(255,255,255)" fill-rule="nonzero" />
			</g>
			<g style="mix-blend-mode:normal">
				<path id="Path 5448" d="M325.194 254.252C325.636 254.975 325.195 255.979 325.106 256.731C325.041 257.096 325.07 257.452 324.914 257.789C324.47 258.457 323.602 258.39 322.914 258.73C322.28 259.172 321.762 259.796 321.102 260.221C320.68 260.598 320.166 260.056 319.732 260.223C319.3 260.377 318.95 260.665 318.483 260.75C318.082 260.834 317.627 260.702 317.234 260.828C316.515 261.136 316.111 261.905 315.244 261.74C314.211 261.602 313.598 262.271 312.522 262.39C311.767 262.5 310.818 262.17 310.569 261.498C310.342 260.954 310.769 260.403 311.088 260.035C311.452 259.601 311.855 259.402 312.409 259.08C313.009 258.673 313.852 258.768 314.518 258.69C315.093 258.61 315.342 258.233 315.795 257.995C316.193 257.732 316.875 257.58 317.371 257.374C318.64 256.63 320.068 256.055 321.381 255.539C322.332 255.085 324.138 253.568 325.194 254.252Z" fill="rgb(255,255,255)" fill-rule="nonzero" />
			</g>
			<g style="mix-blend-mode:normal">
				<path id="Path 5449" d="M156.704 273.917C157.755 275.505 154.204 276.297 153.215 276.675C152.271 277.043 151.403 277.707 150.417 277.874C149.522 278.008 148.629 277.973 147.783 278.304C147.363 278.448 146.906 278.581 146.463 278.445C145.64 278.217 145.085 277.434 144.272 277.261C143.572 277.095 142.939 277.808 142.645 277.253C142.328 276.498 142.249 274.217 143.347 273.974C143.789 273.939 144.168 274.259 144.607 274.318C145.182 274.441 145.849 274.2 146.446 274.178C147.294 274.071 147.954 274.502 148.803 274.281C149.456 274.089 150.141 273.78 150.808 274.041C152.091 274.732 153.094 274.378 154.293 273.751C155.062 273.319 156.052 273.12 156.704 273.917Z" fill="rgb(255,255,255)" fill-rule="nonzero" />
			</g>
			<g style="mix-blend-mode:normal">
				<path id="Path 5450" d="M166.732 276.48C170.047 277.785 169.005 278.331 166.455 279.64C164.118 281.283 162.792 281.075 160.081 280.52C159 280.355 157.924 280.298 156.948 279.871C155.425 278.99 156.045 278.013 157.376 277.372C158.575 276.688 159.775 276.401 161.1 276.334C162.16 276.136 162.702 276.148 163.915 276.227C164.863 276.318 165.885 276.168 166.732 276.48Z" fill="rgb(255,255,255)" fill-rule="nonzero" />
			</g>
			<g style="mix-blend-mode:normal">
				<path id="Path 5451" d="M254.325 169.069C254.755 169.563 254.345 169.651 253.778 169.83C253.035 170.105 252.339 171.2 251.76 171.808C251.548 172.043 251.38 172.245 251.152 172.384C251.048 172.442 250.953 172.459 250.861 172.393C250.562 172.187 250.527 170.979 250.999 170.403C251.358 169.965 251.882 169.608 251.959 169.014C252.038 168.63 252.005 168.061 252.234 167.71C252.555 167.198 253.019 167.49 253.31 167.873C253.651 168.238 254.039 168.679 254.325 169.069Z" fill="rgb(255,255,255)" fill-rule="nonzero" />
			</g>
			<g style="mix-blend-mode:normal">
				<path id="Path 5452" d="M202.662 149.27C202.868 149.418 202.838 149.571 202.787 149.791C202.685 150.261 202.535 150.748 202.237 151.124C202.074 151.375 201.917 151.671 201.511 151.969C201.245 152.17 200.912 152.359 200.631 152.514C200.388 152.647 200.211 152.768 200.05 152.56C199.764 152.2 199.992 151.749 200.044 151.353C200.049 151.249 200.031 151.152 200 151.056C199.92 150.842 199.884 150.608 199.451 150.344C197.97 149.495 198.745 149.243 200.1 149.146C200.953 149.197 201.916 148.823 202.662 149.27Z" fill="rgb(255,255,255)" fill-rule="nonzero" />
			</g>
			<g style="mix-blend-mode:normal">
				<path id="Path 5453" d="M289.21 180.262C289.508 180.693 288.527 181.294 288.25 181.636C287.893 182.001 287.488 182.369 287.455 182.884C287.432 183.463 288.137 184.207 287.461 184.569C287.05 184.711 286.334 184.281 285.939 184.11C285.737 183.982 285.453 183.845 285.441 183.579C285.434 183.306 285.765 182.718 286.197 182.335C286.77 181.918 287.21 181.399 287.637 180.848C287.996 180.491 288.782 179.948 289.21 180.262Z" fill="rgb(255,255,255)" fill-rule="nonzero" />
			</g>
			<g style="mix-blend-mode:normal">
				<path id="Path 5454" d="M217.01 148.14C216.367 148.465 215.686 148.306 215.032 148.68C214.485 149.003 213.905 149.476 213.218 149.407C212.674 149.385 212.174 149.106 211.654 148.94C211.132 148.738 210.68 148.806 210.452 148.57C210.386 148.282 210.872 148 211.123 147.863C211.596 147.614 212.16 147.587 212.525 147.468C212.91 147.342 213.256 147.139 213.673 147.125C214.188 147.085 214.909 147.374 215.496 147.123C216.006 146.956 216.565 146.401 217.117 146.646C217.582 146.901 217.559 147.889 217.01 148.14Z" fill="rgb(255,255,255)" fill-rule="nonzero" />
			</g>
			<g style="mix-blend-mode:normal">
				<path id="Path 5455" d="M185.959 195.322C186.106 195.692 185.431 196.515 185.37 196.864C185.269 197.243 185.981 196.668 186.174 196.6C186.453 196.402 187.302 196.204 187.384 196.466C187.408 196.573 187.299 196.663 187.217 196.737C186.897 197.007 186.28 197.263 185.756 197.565C185.445 197.747 185.06 197.893 184.748 197.644C184.304 197.258 183.912 196.512 184.077 195.944C184.203 195.567 185.519 195.052 185.959 195.322Z" fill="rgb(255,255,255)" fill-rule="nonzero" />
			</g>
			<g style="mix-blend-mode:normal">
				<path id="Path 5456" d="M271.415 138.053C271.449 138.14 271.391 138.236 271.263 138.34C270.856 138.677 270.179 138.81 269.86 139.21C269.178 140.019 268.48 140.972 267.52 141.58C267.366 141.673 267.264 141.706 267.232 141.669C267.201 141.635 267.231 141.54 267.314 141.399C267.581 140.961 267.977 140.527 268.233 140.065C268.756 139.139 269.136 138.173 270.035 137.885C270.455 137.755 271.101 137.72 271.415 138.053Z" fill="rgb(255,255,255)" fill-rule="nonzero" />
			</g>
			<g style="mix-blend-mode:normal">
				<path id="Path 5457" d="M234.125 147.192C234.35 147.465 234.481 148.024 234.212 148.308C234.045 148.459 233.675 148.275 233.401 148.394C233.261 148.447 233.146 148.562 233.037 148.676C232.725 149.129 231.667 149.481 231.344 149.378C231.479 149.195 231.61 148.912 231.622 148.663C231.671 148.293 231.49 147.928 231.654 147.776C231.993 147.562 232.494 147.71 232.867 147.532C233.353 147.402 233.738 146.94 234.125 147.192Z" fill="rgb(255,255,255)" fill-rule="nonzero" />
			</g>
			<g style="mix-blend-mode:normal">
				<path id="Path 5458" d="M262.452 184.705C262.61 184.838 262.758 185.02 262.939 185.138C263.281 185.401 263.749 185.403 263.782 185.701C263.788 185.881 263.735 186.065 263.748 186.252C263.742 186.619 264.023 186.898 263.669 187.164C263.145 187.466 262.297 187.804 261.715 187.691C261.309 187.458 262.452 187.046 262.472 186.754C262.567 186.221 261.859 185.607 261.998 184.972C262.025 184.758 262.241 184.534 262.452 184.705Z" fill="rgb(255,255,255)" fill-rule="nonzero" />
			</g>
			<g style="mix-blend-mode:normal">
				<path id="Path 5459" d="M295.155 120.572C295.391 120.426 296.065 120.688 296.22 120.494C296.319 120.349 295.972 120.01 295.9 119.66C295.776 119.146 296.272 118.773 296.727 118.709C297.168 118.633 297.326 119.043 297.125 119.685C296.874 120.425 296.725 121.753 295.812 121.424C295.534 121.337 294.905 120.868 295.155 120.572Z" fill="rgb(255,255,255)" fill-rule="nonzero" />
			</g>
			<g style="mix-blend-mode:normal">
				<path id="Path 5460" d="M258.862 163.791C258.897 163.977 258.729 164.233 258.629 164.441C258.408 164.846 258.269 165.317 258.167 165.766C258.053 166.47 257.8 166.878 257.174 167.129C256.881 167.24 256.366 167.513 256.108 167.353C256.029 167.22 256.171 167.018 256.251 166.867C256.678 166.049 257.376 165.328 257.875 164.602C258.088 164.268 258.323 163.8 258.731 163.715C258.751 163.709 258.85 163.74 258.862 163.791Z" fill="rgb(255,255,255)" fill-rule="nonzero" />
			</g>
			<g style="mix-blend-mode:normal">
				<path id="Path 5461" d="M276.673 180.93C276.456 181.67 276.164 182.5 275.957 181.172C275.926 180.855 275.914 180.56 275.78 180.509C275.523 180.448 275.223 180.832 274.97 180.946C274.685 181.122 274.32 181.143 274.225 180.814C273.877 179.544 277.15 179.482 276.673 180.93Z" fill="rgb(255,255,255)" fill-rule="nonzero" />
			</g>
			<g style="mix-blend-mode:normal">
				<path id="Path 5462" d="M258.597 186.947C258.839 187.212 259.012 187.699 259.14 188.046C259.195 188.331 258.955 188.386 258.662 188.491C258.403 188.581 258.187 188.644 258.118 188.859C258.066 189.005 258.152 189.23 258.145 189.354C257.903 189.351 257.522 189.163 257.261 189.034C257.033 188.889 256.75 188.757 256.654 188.505C256.576 188.221 257.246 188.063 257.573 187.697C257.846 187.473 258.186 186.737 258.597 186.947Z" fill="rgb(255,255,255)" fill-rule="nonzero" />
			</g>
			<g style="mix-blend-mode:normal">
				<path id="Path 5463" d="M275.406 153.279C275.676 153.468 276.092 154.357 275.474 154.24C275.317 154.207 275.151 154.033 274.999 154.049C274.816 154.086 274.894 154.708 274.561 154.84C274.246 154.952 273.797 154.865 273.518 154.715C273.309 154.537 273.668 154.359 273.747 154.194C274.02 153.857 273.857 153.405 274.185 153.123C274.527 152.866 275.094 153.028 275.406 153.279Z" fill="rgb(255,255,255)" fill-rule="nonzero" />
			</g>
			<g style="mix-blend-mode:normal">
				<path id="Path 5464" d="M277.552 168.134C277.453 168.175 277.034 167.822 276.733 167.887C276.469 167.931 276.276 168.249 276.117 168.481C275.907 168.775 275.78 169.03 275.685 169.017C275.595 168.743 275.571 168.401 275.347 168.16C275.196 167.942 274.981 167.747 275.08 167.488C275.227 167.159 276.059 166.848 276.523 166.875C276.936 166.964 277.141 167.442 277.382 167.754C277.515 167.953 277.585 168.101 277.552 168.134Z" fill="rgb(255,255,255)" fill-rule="nonzero" />
			</g>
			<g style="mix-blend-mode:normal">
				<path id="Path 5465" d="M217.419 165.875C217.486 166.053 217.359 166.295 217.294 166.477C216.986 167.234 216.637 167.551 215.824 167.695C215.652 167.713 215.321 167.81 215.22 167.669C215.272 167.356 215.678 167.068 215.87 166.792C216.298 166.306 216.503 165.957 217.103 165.81C217.202 165.787 217.356 165.801 217.419 165.875Z" fill="rgb(255,255,255)" fill-rule="nonzero" />
			</g>
			<g style="mix-blend-mode:normal">
				<path id="Path 5466" d="M239.405 272.697C239.146 272.73 238.142 272.323 237.661 272.56C237.34 272.743 237.678 273.13 237.78 273.364C238.049 273.805 237.644 273.967 237.179 274.338C236.907 274.524 236.589 274.717 236.194 274.63C235.898 274.558 235.579 274.358 235.48 274.065C235.454 273.624 235.944 273.304 236.152 272.934C236.523 272.442 236.753 271.888 237.291 271.868C237.912 271.863 238.556 272.264 239.099 272.501C239.305 272.602 239.415 272.674 239.405 272.697Z" fill="rgb(255,255,255)" fill-rule="nonzero" />
			</g>
		</g>
	</g>
	<g id="Group 487">
		<g id="Group 486" mask="url(#mask_7)">
			<g style="mix-blend-mode:normal">
				<path id="Path 5467" d="M34.5633 0.00677789C36.141 0.874883 35.7503 3.32429 36.0119 4.89848C36.1775 6.47756 35.5521 8.3729 35.6336 9.84597C35.9505 10.454 37.0478 11.0059 37.7519 11.3104C38.566 11.5551 38.6984 10.3971 39.2172 9.96287C39.6734 8.54848 47.7066 7.94529 46.9885 9.87731C45.595 11.005 43.4561 10.6703 41.8762 11.6693C40.7769 11.6502 39.104 12.1885 40.0077 13.596C40.8558 14.5981 42.3215 13.8558 43.3439 13.5215C44.2882 13.1264 45.3961 13.3882 46.2929 12.9915C47.4833 11.6197 50.6248 11.7077 50.6099 13.9147C50.0565 15.2764 48.4656 16.0785 47.177 16.6288C46.2445 16.9757 43.8482 16.7877 45.0361 18.3185C45.7248 19.228 46.8165 19.7241 47.4306 20.6695C47.9353 21.7421 48.3343 22.8775 49.3044 23.6343C50.3527 24.5426 51.1055 23.0318 52.1367 22.7035C53.9454 22.021 58.2388 20.7377 58.6182 23.5679C57.3322 26.0333 53.0364 24.5013 51.2328 25.6417C51.6965 26.2786 53.7729 28.1186 54.6141 27.4799C56.5177 24.5031 63.7501 26.5511 57.5705 28.4022C54.2741 29.0652 56.6179 29.6426 55.8714 31.1443C55.3409 31.2879 57.8663 32.4729 58.0648 32.1164C59.895 29.5217 58.6088 31.5057 61.6623 29.6519C63.0356 29.3572 64.5974 28.9314 65.9546 29.3963C67.3239 30.402 65.2839 31.3103 64.4031 31.4261C63.6779 31.5882 62.9825 32.0455 62.2426 31.9762C61.8417 32.0211 61.3154 31.7128 60.9825 31.9469C59.8921 32.6272 58.7629 33.2137 60.0679 34.5072C60.7102 35.7231 62.4847 36.7759 62.4604 38.0545C62.2706 38.5966 62.8883 38.9028 63.3985 38.8779C65.1925 38.7208 65.6833 36.1225 67.6619 36.3089C69.9596 37.3335 66.4891 39.6773 66.5325 41.1235C66.6836 41.9654 67.6304 42.5699 68.2082 43.1307C69.3048 44.2043 70.1311 45.3629 71.4929 46.0686C73.0724 46.9947 74.2165 48.6207 75.9803 49.2485C77.3349 49.4505 78.6211 49.6817 79.9472 50.0117C81.9768 50.0864 83.9806 50.1257 86.0217 50.1535C89.421 50.1237 92.7739 50.1877 96.1149 50.4162C96.4514 50.2949 96.7724 50.0755 97.1391 50.0424C99.0015 50.0413 100.876 49.7537 102.657 49.3436C105.35 48.888 108.249 49.5212 110.937 49.1738C112.646 48.4893 114.412 48.3075 116.262 48.7569C117.72 49.1743 118.981 48.4691 120.355 48.2448C122.714 48.1742 125.199 47.8741 127.601 48.0457C130.363 48.0039 132.928 46.7409 135.641 47.5905C136.769 48.0944 137.811 48.1244 138.92 47.6468C141.256 47.6585 143.969 48.6891 145.784 50.1591C147.776 53.8073 149.765 52.9694 152.756 54.7116C153.724 55.2521 154.39 56.4138 155.534 55.8771C157.903 56.4876 158.852 59.9578 160.304 61.7509C161.022 62.8504 160.797 64.1279 161.406 65.2127C163.946 68.4806 165.345 72.648 167.073 76.3814C167.805 78.3431 169.18 79.91 169.716 81.9007C170.278 83.74 171.462 85.1346 171.942 87.02C172.413 88.1328 172.361 89.4672 172.706 90.6275C173.339 92.3553 174.153 93.8466 174.285 95.6895C174.78 96.5962 173.768 99.9002 172.691 98.3916C172.348 97.2985 171.737 96.3873 170.947 95.5383C170.728 94.9463 170.423 94.019 169.781 93.6472C168.256 92.9618 172.564 101.649 172.589 102.651C172.989 104.902 170.269 103.323 169.441 102.668C168.699 102.154 168.47 101.139 168.152 100.336C167.758 99.5339 167.002 99.0608 166.733 98.1693C166.3 95.811 164.725 93.9857 163.652 91.8817C163.049 90.4171 162.804 88.8213 162.399 87.3838C161.757 85.3062 161.388 83.0922 160.573 81.0413C159.755 77.6177 159.335 73.8739 157.383 70.7989C154.794 66.4859 154.16 60.6099 150.689 56.9821C150.332 58.5965 151.701 59.6231 150.878 62.3654C150.441 65.5131 149.781 68.6504 148.523 71.5961C148.117 73.3348 147.965 75.1241 146.897 76.6698C145.752 78.1507 143.771 78.362 144.607 80.599C144.703 81.7518 144.158 82.849 144.202 84.0069C143.424 84.8344 143.57 85.8858 143.477 86.9933C143.041 89.577 143.566 92.0815 142.729 94.5796C142.571 97.4379 142.369 100.328 142.099 103.099C142.674 105.551 142.351 108.21 142.112 110.733C142.165 112.983 142.007 115.301 141.618 117.467C141.775 123.019 142.26 128.666 140.942 134.124C140.707 135.2 141.048 136.835 139.724 137.048C139.454 137.029 139.388 137.246 139.201 137.38C138.894 137.564 138.719 138.054 138.37 138.2C137.401 138.109 136.542 137.103 135.705 136.518C134.651 134.191 136.453 130.061 136.034 127.316C135.997 124.855 136.098 122.108 136.103 119.659C136.532 118.736 136.188 117.672 136.215 116.68C136.285 115.107 136.073 113.824 136.14 112.168C136.148 110.529 136.592 109.083 136.944 107.58C136.86 105.738 136.599 103.692 136.716 101.839C136.611 99.3346 137.298 96.8463 137.819 94.4575C138.082 91.1516 138.935 87.4274 139.073 84.1223C138.219 83.3611 136.984 85.0477 136.198 85.3764C134.901 86.427 132.825 86.6128 131.868 88.0821C131.367 89.1945 132.247 90.554 131.991 91.7061C131.248 93.3154 131.558 94.5551 131.419 96.3095C131.061 98.8463 130.995 101.336 130.78 103.891C130.149 106.974 130.749 110.19 130.324 113.22C129.898 114.922 129.855 116.82 128.462 118.094C128.31 118.321 128.388 118.407 128.505 118.697C129.063 119.645 128.316 120.847 128.14 121.731C128.139 122.877 128.344 124.285 127.049 124.86C126.96 126.298 128.255 128.04 127.371 129.504C126.943 130.337 125.945 130.95 126.662 131.804C127.244 133.635 126.299 136.052 125.684 137.893C125.627 139.819 124.193 141.299 123.628 143.074C122.406 144.847 115.642 144.038 114.819 142.16C114.337 141.218 114.617 139.994 115.826 139.97C123.252 141.078 119.083 140.831 121.632 132.642C121.839 130.605 122.332 128.653 122.733 126.676C122.435 124.101 123.245 121.567 123.511 119.006C123.969 116.754 124.403 114.771 124.498 112.425C124.651 110.293 126.19 108.473 125.871 106.333C125.863 104.596 125.825 102.755 126.165 101.031C126.567 99.8102 127.224 99.5119 127.111 98.1446C127.007 97.491 127.708 94.7102 126.41 95.9306C121.7 99.6286 125.882 98.226 122.4 101.997C122.18 102.226 122.163 102.499 122.218 102.779C122.755 104.659 120.686 104.829 120.56 106.405C119.877 108.573 117.953 110.339 117.179 112.447C116.036 114.926 114.802 117.503 112.949 119.495C111.9 121.927 110.303 124.161 108.897 126.399C107.346 129.144 105.905 131.865 103.941 134.371C101.963 136.573 97.45 136.54 96.7001 133.246C96.6766 132.022 98.1694 131.278 98.8315 130.273C100.296 128.075 102.022 126.518 103.206 124.267C104.025 122.154 105.567 120.306 107.19 118.852C107.82 117.838 107.853 116.627 108.536 115.556C110.201 113.192 112.264 111.24 113.061 108.426C114.999 105.043 116.999 101.664 118.623 98.0709C118.934 96.7165 120.268 96.4449 120.685 95.2654C120.594 94.109 121.5 93.4114 122.174 92.6511C122.769 91.8926 122.859 90.369 122.233 89.5674C120.782 88.4319 118.649 89.6527 116.956 89.3596C114.805 88.9733 112.567 90.4968 110.573 89.4176C109.855 89.2214 109.254 88.9698 108.473 88.9604C106.322 89.0902 104.241 90.0952 102.057 90.141C98.8175 90.0643 95.4869 90.6046 92.2507 90.732C90.7399 90.4237 89.439 90.2606 87.8826 90.4628C86.9356 90.5702 86.328 89.8452 85.5123 89.7192C84.4942 89.9641 83.5714 91.1622 82.3439 90.7747C81.5025 90.6811 80.4386 90.7878 79.562 90.8636C79.0669 90.816 78.6608 90.3099 78.2079 90.2146C77.3651 90.3204 76.5939 90.754 75.7185 90.4911C75.0157 90.4633 74.3952 90.9631 73.6756 90.7864C72.337 91.3229 70.8461 91.4896 69.4002 91.2423C68.1149 91.1007 64.4031 89.7996 66.0111 92.4442C67.9422 94.568 67.5399 98.0344 67.4279 100.74C67.4902 103.494 68.4789 106.42 68.7701 109.168C68.9345 113.68 70.4783 117.996 71.4664 122.363C71.7951 123.872 72.5961 125.446 71.9151 126.89C72.7297 129.158 73.0133 131.827 73.6469 134.18C73.8549 135.295 74.9315 136.545 74.1714 137.611C74.1349 137.64 74.0954 137.663 74.0529 137.679C73.6424 137.837 72.9981 137.365 72.5952 137.447C71.8609 137.656 71.5055 138.632 70.6965 138.718C67.9046 138.145 66.1429 131.402 65.9097 128.743C65.9233 126.368 65.6264 124.645 64.5636 122.443C63.5468 118.424 62.4893 114.313 62.6476 110.112C63.0087 107.084 61.4716 104.458 61.3783 101.477C61.3501 100.636 61.1983 99.7504 61.0431 98.8356C60.7891 97.4624 61.3412 94.9034 59.409 94.7149C58.7833 94.6724 58.2944 95.1554 57.7181 95.1932C56.2203 95.2794 51.8649 93.3661 52.0965 96.1079C52.1129 97.6139 52.8361 99.0036 53.0964 100.436C52.9204 101.796 53.7078 102.981 53.6436 104.287C53.548 104.781 53.1635 105.273 53.5725 105.726C54.1374 106.624 54.0494 107.804 53.9012 108.797C53.5633 110.126 54.3439 110.919 54.4599 112.316C54.6495 113.704 54.6824 115.035 54.8548 116.429C54.9897 119.602 55.3533 122.545 55.6223 125.736C56.3993 127.718 56.7695 129.151 56.3266 131.335C56.7191 133.25 57.5683 135.121 57.7076 137.127C58.2646 140.162 58.5128 143.108 54.3817 141.749C51.5631 139.201 51.5535 134.663 50.6019 131.162C49.6078 128.531 49.5046 126.842 50.0087 124.156C49.2102 121.538 48.8486 118.963 48.4485 116.266C47.644 113.882 48.0233 111.327 47.421 108.949C46.0271 101.389 46.9125 93.5772 45.2352 86.1259C44.5167 82.1358 43.129 78.3658 41.345 74.718C40.6409 70.9709 39.0647 67.5132 38.3002 63.7634C38.3199 61.3226 38.5262 60.4363 37.5892 58.0565C37.6788 55.2997 36.2028 52.9696 35.5692 50.4047C35.336 48.958 34.8666 47.4687 34.8851 46.015C35.2302 44.6142 34.9322 43.316 34.3108 42.0719C33.5676 39.9634 35.2211 37.92 34.5644 35.7844C34.2255 34.6983 33.5371 33.3544 32.2701 33.952C29.3137 35.6053 26.1447 37.1733 23.6308 39.4527C21.2466 42.095 18.1371 43.727 15.3585 45.8192C14.0201 46.8067 12.1708 46.8504 10.6317 47.074C9.39001 47.2676 8.25653 47.8926 6.97705 47.6925C3.06413 47.0429 -0.833898 42.7968 0.155777 38.6619C1.14723 34.4641 4.4014 31.0945 7.4471 28.1969C10.4599 23.9237 14.0457 20.0921 17.5739 16.2747C18.5047 15.0462 19.4586 13.7175 20.6036 12.6103C21.8037 11.6269 23.3004 10.7054 22.2467 9.10521C21.5204 7.329 22.0904 4.69512 21.7126 2.85534C20.5276 0.145017 23.1779 1.35827 23.8811 2.73689C25.4044 4.7189 24.9886 8.7365 27.9602 9.3608C31.1878 10.0264 29.8945 5.61812 31.0388 3.87814C32.0212 1.80255 31.6814 -0.0585633 34.5633 0.00677789ZM26.5487 20.9024C26.0242 20.1728 24.5992 19.5407 23.9655 20.4075C23.7437 20.7504 24.0018 21.2227 24.3263 21.5685C24.9492 22.1492 25.6135 23.3961 25.0928 24.2991C24.3594 25.3625 22.058 25.2721 21.1663 24.3755C21.0083 24.2219 20.9061 24.0937 20.7534 23.9319C20.664 23.8432 20.5342 23.7036 20.4249 23.7628C20.1082 24.0768 20.3962 25.2136 20.4529 25.7252C20.5174 26.111 20.6087 26.886 20.7723 27.0132C21.0639 27.2338 21.4095 27.0989 21.802 27.0907C22.5736 26.994 23.4115 27.171 24.2087 27.0465C24.827 26.9587 25.4379 26.7545 25.9785 26.4509C27.2544 25.7306 27.3651 24.5442 27.1828 22.8042C27.1126 22.1548 26.935 21.4238 26.5487 20.9024ZM38.137 39.7458C37.4198 39.3493 38.103 40.723 38.1793 41.0222C38.2759 41.7463 38.2662 42.351 38.6233 43.09C38.8029 43.4471 38.908 43.8921 39.014 44.2532C39.112 44.5679 39.114 44.878 39.3194 45.1373C39.643 45.4876 39.9288 45.8508 40.0784 46.2939C40.3526 46.7498 40.4691 47.3058 40.3742 47.8799C40.3677 48.0566 40.1957 48.3477 40.2253 48.4466C40.2431 48.4749 40.2984 48.4889 40.376 48.5011C41.3608 48.5475 41.203 49.4423 41.6586 49.9844C41.7724 50.0924 41.9057 50.1568 42.0646 50.1075C42.4031 49.9513 42.3342 49.5926 42.3142 49.0267C42.2169 48.2219 41.9666 47.475 42.0011 46.6384C42.0877 44.4477 41.4725 43.869 40.4544 42.1359C40.1173 41.5278 39.9821 40.8188 39.7488 40.1827C39.6352 39.8556 39.4336 39.8269 39.1487 39.8985C38.8527 39.948 38.4524 39.9207 38.137 39.7458ZM6.28118 42.6322C5.82002 42.6315 5.44797 41.9936 5.12949 41.6767C4.85523 41.3973 4.5083 41.1491 4.3365 41.524C4.18026 42.255 4.92013 42.8091 5.50465 43.0938C6.0616 43.3934 6.93949 43.2833 7.35065 42.8377C7.45088 42.7306 7.45377 42.611 7.37043 42.5439C7.07795 42.3508 6.63967 42.6348 6.28118 42.6322ZM41.7104 50.8763C40.6449 49.8068 41.0814 51.8255 41.0167 52.5242C41.0058 52.8472 40.9743 53.209 40.9774 53.5252C40.9329 54.2911 41.5468 54.763 41.9528 55.3115C42.2024 55.6613 42.2564 56.0871 42.3735 56.44C42.5405 56.8337 42.7414 57.1695 42.8696 57.5864C43.0376 58.2447 43.0736 58.9268 43.0123 59.6067C42.8274 61.1113 43.7528 61.9767 44.3707 63.2C44.7745 63.8832 44.8694 64.7622 44.9934 65.5516C45.173 66.6844 45.4355 67.4641 45.6808 68.4582C45.9924 69.403 45.8337 70.8391 46.1069 71.6526C46.2789 72.1775 46.6218 72.7025 46.7616 73.2265C46.9648 74.5387 46.6441 75.2525 47.9849 76.0369C48.4489 76.2884 48.3316 76.7918 48.3952 77.2152C48.4221 77.453 48.5338 77.6564 48.7041 77.8282C49.095 78.1749 49.6362 78.761 50.1949 78.9514C51.9536 79.3557 51.3191 77.1386 51.0126 76.1729C50.7706 75.4832 50.7659 74.7594 50.4885 74.1984C50.3458 73.8999 50.1538 73.5917 49.9018 73.3819C49.5998 73.1314 49.2173 72.9409 48.9799 72.62C48.5603 72.1217 48.5759 71.4372 48.4132 70.7689C48.0462 69.6599 48.0896 68.2721 47.4664 67.2909C47.3144 67.0949 47.1039 66.9447 46.915 66.8042C45.2001 65.7396 45.8104 64.2394 45.3977 62.5712C45.1874 61.7842 44.8816 60.9966 44.7652 60.1825C44.5571 58.8257 44.61 57.4868 44.2484 56.1698C43.9826 55.029 43.4688 53.9669 42.8903 52.9554C42.4747 52.1471 42.2784 51.4292 41.7104 50.8763ZM125.056 52.8545C124.227 52.6694 123.484 53.1414 122.672 53.2388C121.566 53.4163 120.284 53.467 119.51 54.35C119.272 54.6794 119.984 54.7196 120.216 54.8134C120.665 54.9312 121.198 55.1006 121.618 55.1352C122.353 55.1821 123.032 54.9999 123.679 54.7483C124.495 54.5412 124.412 55.712 125.145 55.7251C125.763 55.6748 126.009 55.0032 126.425 54.6563C126.806 54.404 127.395 54.448 127.207 53.8006C126.877 52.9716 125.81 52.9496 125.056 52.8545ZM135.715 52.959C135.309 52.9232 134.853 53.0161 134.388 53.0325C133.353 53.1034 131.728 52.4845 130.804 53.0881C130.422 53.407 130.316 54.1271 130.506 54.5845C130.647 54.9848 130.979 54.8719 131.3 54.8356C131.723 54.7927 132.312 55.179 132.886 55.1606C133.66 55.1001 134.589 54.9374 135.164 54.3514C135.485 54.0304 135.827 53.345 135.715 52.959ZM113.699 53.8204C113.22 53.6515 112.807 54.0242 112.329 54.1407C111.888 54.2849 111.361 54.1169 110.923 54.2691C110.37 54.4743 110.116 54.9761 110.454 55.3688C110.646 55.5957 110.963 55.6142 111.247 55.5793C111.646 55.5359 112.11 55.5404 112.622 55.5684C113.278 55.6315 114.109 55.8993 114.665 55.5804C114.973 55.4408 115.216 55.1952 115.497 55.0083C116.171 54.5758 117.003 54.7856 117.679 55.077C118.559 55.2359 118.429 54.0218 117.782 53.6261C117.315 53.307 116.731 53.5175 116.229 53.6413C115.625 53.7702 115.164 54.1531 114.699 54.2591C114.325 54.2958 114.042 53.9229 113.699 53.8204ZM141.452 53.9369C140.76 53.9293 140.687 54.4505 140.899 54.9254C141.128 55.5255 141.928 55.928 142.409 56.4427C142.84 56.883 143.325 57.345 143.553 57.9911C143.759 58.6948 143.95 59.604 143.907 60.299C143.881 60.5014 143.78 60.555 143.623 60.5454C143.412 60.5263 143.05 60.4754 142.941 60.5212C142.873 60.5561 142.88 60.6288 142.886 60.7077C142.922 61.0177 143.209 61.2717 143.346 61.5295C143.576 62.0492 143.569 62.4288 143.574 63.1031C143.586 63.7974 143.468 64.4621 143.193 65.1009C143.008 65.5834 143 66.5955 143.444 66.8018C144.143 66.9031 144.599 65.4482 144.852 64.8611C145.064 64.2028 145.197 63.6129 145.238 62.9833C145.254 62.5412 145.512 62.1265 145.655 61.69C145.847 61.0926 146.262 60.577 146.306 59.9734C146.453 58.5825 145.998 56.8754 144.926 55.8562C144.477 55.3813 143.936 55.051 143.377 54.7336C142.723 54.3713 142.109 53.9229 141.452 53.9369ZM106.305 54.3273C105.088 54.2711 101.946 54.2369 104.902 55.4468C105.664 55.742 106.233 56.5238 106.906 56.9372C107.779 57.3419 108.009 55.4726 109.306 55.8978C109.543 55.9713 109.773 56.1571 110.007 56.2089C110.219 56.2669 109.974 55.5259 109.89 55.3555C109.253 53.9415 107.518 54.4016 106.305 54.3273ZM54.3761 57.5984C53.949 57.7704 53.8712 58.8017 53.9114 59.1897C53.9523 59.4811 54.2088 59.7142 54.4619 59.7869C54.5284 59.7958 54.5419 59.8031 54.609 59.7713C54.7302 59.6893 54.7306 59.5106 54.8179 59.402C54.9853 59.201 55.4929 59.1353 55.6909 58.8919C56.205 58.1085 55.1297 57.3722 54.3761 57.5984ZM50.4923 59.9336C50.6085 59.8922 50.7372 59.7284 50.8448 59.5211C51.1564 58.9241 51.418 58.2725 50.9877 58.0756C50.8226 57.98 50.5305 57.9996 50.4559 58.1811C50.3847 58.3163 50.3856 58.495 50.3765 58.6512C50.3996 59.0577 50.0058 59.9009 50.4923 59.9336ZM135.927 60.0618C135.301 60.1361 134.758 60.4416 134.25 60.7941C133.603 61.1513 132.954 61.7187 132.318 62.1885C131.884 62.4161 131.189 62.6248 130.815 62.6486C130.666 62.6512 130.503 62.6768 130.384 62.7641C130.204 62.9015 130.058 63.1026 130.161 63.3349C130.293 63.6349 130.558 63.9776 130.861 64.1479C131.659 64.5777 132.478 64.0465 133.313 64.3481C133.932 64.6199 134.627 64.8731 135.29 64.5819C136.403 64.1296 136.491 62.7861 137.046 61.7589C137.201 61.4009 137.527 60.9924 137.354 60.6121C137.147 60.255 136.47 60.0036 135.927 60.0618ZM144.26 67.4863C143.837 67.6965 143.209 68.4246 142.819 68.7693C142.524 69.0311 142.154 69.1434 141.784 69.341C141.275 69.6505 140.642 70.135 140.288 70.6727C140.065 71.0607 139.866 71.3899 139.831 71.7152C139.861 72.4106 140.23 73.1139 140.683 73.651C141.857 74.8438 142.234 72.0637 142.615 71.3903C142.99 70.5755 143.323 69.8703 143.706 69.0049C144.036 68.3355 144.321 67.6425 144.26 67.4863ZM129.294 69.983C128.561 69.4043 127.691 70.1519 126.969 70.4109C126.466 70.6324 125.82 70.5117 125.412 70.9051C125.05 71.3294 124.735 72.1075 124.677 72.6989C124.783 73.0798 125.417 72.5069 125.639 72.4407C126.102 72.232 126.34 72.526 126.514 73.0163C126.736 73.4408 126.9 74.0637 127.395 73.829C127.982 73.4499 127.919 72.6058 128.022 72.0439C128.092 71.6037 128.344 71.337 128.761 71.1561C129.196 70.9658 129.748 70.43 129.294 69.983ZM124.738 82.7272C124.646 82.4841 124.064 82.4323 123.658 82.4923C122.897 82.6248 122.597 83.4046 122.016 83.8307C121.839 84.0012 121.635 84.1823 121.646 84.4374C121.664 84.6912 121.914 84.801 122.09 84.7408C122.217 84.6966 122.303 84.6079 122.419 84.5219C122.92 84.1094 123.849 83.9989 124.267 83.5533C124.554 83.2904 124.777 83.0362 124.738 82.7272ZM50.9888 83.2342C50.9255 83.218 50.9301 83.2929 50.975 83.5187C51.0515 83.8643 51.2666 84.3268 51.3758 84.6941C51.6262 85.5822 51.3702 86.2928 51.4106 87.102C51.4971 87.4216 51.5151 87.797 51.6047 88.1254C51.7325 88.5582 52.2083 88.9878 52.6303 89.302C53.2638 89.7199 54.2305 89.7452 54.8984 90.0459C55.9839 90.4022 56.2257 89.7661 55.5818 89.0329C55.3038 88.686 54.8735 88.7079 54.5272 88.503C54.0843 88.1719 53.9167 87.5256 53.5856 86.9373C53.3358 86.4517 52.8842 86.1152 52.6475 85.6182C52.4619 85.2233 52.4068 84.6757 52.2579 84.3697C52.0323 83.8767 51.3853 83.4611 50.9888 83.2342ZM80.5013 83.9336C80.1435 83.6853 79.9597 84.0563 79.8957 84.3641C79.795 84.9433 79.8899 85.6416 80.1328 86.1568C80.4424 86.5779 80.6284 85.6858 80.9504 85.8027C81.3136 85.9425 81.7368 86.4959 82.179 86.4101C82.3439 86.3534 82.336 86.1921 82.2882 86.0559C82.1859 85.7529 81.7605 85.416 81.4432 85.0235C81.1482 84.6772 80.868 84.1943 80.5013 83.9336ZM85.7895 84.287C85.493 84.0725 84.8358 84.1194 84.6764 84.5081C84.5149 85.0504 84.2037 85.802 84.5911 86.221C85.1016 86.7308 85.319 86.0107 85.5059 85.6202C85.6348 85.2662 85.9951 84.6097 85.7895 84.287ZM60.6222 89.1289C60.1548 88.2983 59.793 88.8997 59.3638 89.3211C59.0293 89.5574 58.5913 89.5681 58.2779 89.8692C58.1237 90.009 57.9763 90.1328 57.9434 90.325C57.9886 90.7424 58.7431 90.6517 59.2725 90.8315C59.6219 90.9133 60.0066 91.0931 60.3548 90.9362C60.8256 90.7049 60.9198 89.6405 60.6222 89.1289ZM168.754 89.7639C168.68 89.6581 168.359 89.7547 168.214 89.8068C167.736 89.9597 167.551 90.3715 167.736 90.8691C167.894 91.2876 168.145 91.9034 168.565 91.9804C168.838 92.0526 169.261 91.9281 169.192 91.5803C169.164 91.3914 168.987 91.1538 168.81 90.9351C168.658 90.7435 168.543 90.558 168.541 90.3955C168.538 90.1095 168.805 89.8803 168.754 89.7639Z" fill="rgb(255,255,255)" fill-rule="nonzero" />
			</g>
			<g style="mix-blend-mode:normal">
				<path id="Path 5468" d="M156.608 137.194C157.336 137.222 158.075 137.266 158.768 137.307C159.608 137.338 160.449 137.515 160.899 138.14C161.421 138.78 161.395 139.706 161.132 140.457C160.936 140.927 160.533 141.299 160.09 141.438C159.744 141.549 159.381 141.446 159.03 141.453C158.459 141.49 157.998 141.265 157.389 141.23C156.394 141.241 155.273 141.332 154.296 141.476C153.852 141.548 153.336 141.569 152.962 141.652C152.513 141.731 152.299 141.765 151.951 141.68C151.68 141.601 151.472 141.609 151.151 141.582C150.484 141.729 149.866 141.604 149.181 141.57C148.526 141.566 147.841 141.681 147.212 141.886C146.694 142.066 146.244 142.292 145.9 142.352C145.435 142.429 144.844 142.305 144.492 142.681C144.333 142.858 144.262 143.229 144.086 143.526C143.436 144.539 140.941 144.196 139.872 144.389C139.132 144.449 138.37 144.218 137.719 144.127C137.418 144.123 137.174 144.328 136.913 144.494C136.041 145.146 134.445 145.133 133.396 144.857C131.577 144.531 131.091 142.163 132.825 141.304C133.896 140.75 135.063 140.635 136.193 140.184C138.103 139.511 140.267 139.39 142.184 139.84C142.783 139.993 143.655 140.439 144.187 140.057C144.388 139.891 144.572 139.545 144.88 139.228C145.763 138.382 147.15 138.075 148.354 137.792C149.081 137.599 149.989 137.426 150.832 137.459C151.479 137.484 152.108 137.605 152.749 137.588C154.003 137.542 155.333 137.138 156.608 137.194Z" fill="rgb(255,255,255)" fill-rule="nonzero" />
			</g>
			<g style="mix-blend-mode:normal">
				<path id="Path 5469" d="M47.1472 139.975C47.4822 140.135 47.808 140.254 48.1638 140.327C48.5828 140.426 48.971 140.388 49.2064 140.541C49.5487 140.92 49.2108 141.48 48.8981 141.785C48.6494 142.054 48.326 142.197 48.0125 142.347C47.6869 142.481 47.4724 142.658 47.1108 142.788C45.7606 143.2 43.7655 143.085 42.3771 143.516C41.5017 143.765 40.7665 144.046 39.9015 144.109C39.3254 144.099 38.7384 143.912 38.1524 143.956C37.6854 143.984 36.9931 144.257 36.4275 144.396C35.072 144.683 33.3907 144.736 31.9845 144.754C30.1541 144.767 28.3541 144.791 26.6763 143.9C26.1847 143.662 25.6435 143.25 25.4589 142.803C25.4011 142.625 25.4753 142.48 25.5851 142.326C25.9651 141.839 26.4976 141.626 27.0001 141.238C27.572 140.76 28.177 140.368 28.9013 140.153C30.1285 139.732 31.8098 139.479 33.1024 139.444C33.7465 139.471 34.1883 139.727 34.7873 139.688C35.5879 139.631 36.5817 139.46 37.527 139.589C38.5546 139.619 39.5059 139.911 40.514 139.78C41.6799 139.606 43.1337 139.439 44.3494 139.455C45.2948 139.411 46.2985 139.434 47.1472 139.975Z" fill="rgb(255,255,255)" fill-rule="nonzero" />
			</g>
			<g style="mix-blend-mode:normal">
				<path id="Path 5470" d="M47.7092 146.093C48.5195 146.267 48.8271 147.132 49.5741 147.405C49.9861 147.542 50.651 147.38 51.0593 147.419C51.2169 147.427 51.3636 147.47 51.4376 147.617C51.797 148.708 49.8601 148.579 49.176 148.66C48.3559 148.764 47.9429 148.74 47.3302 148.991C46.921 149.175 46.4512 149.452 46.0558 149.615C45.888 149.672 45.7674 149.722 45.6334 149.667C45.3784 149.521 45.4967 148.816 45.2159 148.55C44.0756 147.604 44.2307 149.419 43.3024 149.25C42.9575 149.217 42.5894 149.005 42.2341 149.07C41.8873 149.185 41.6535 149.536 41.3557 149.723C41.0943 149.89 40.8581 149.998 40.3323 150.232C39.7564 150.503 39.1819 150.905 38.53 151.072C37.3686 151.387 36.0557 151.467 34.9794 151.578C34.2935 151.7 33.3907 151.425 32.8752 151.258C32.5146 151.164 31.9797 151.091 31.6892 151.018C31.4596 150.951 31.4359 150.695 31.6092 150.384C32.2709 149.538 32.8474 148.538 33.8039 147.983C34.4353 147.694 35.1136 147.398 35.8115 147.336C36.3387 147.249 36.9076 147.265 37.4046 147.092C37.9529 146.908 38.6103 146.341 39.3568 146.146C40.5854 145.773 41.922 146.234 43.2 146.075C44.7199 145.887 46.2341 145.679 47.7092 146.093Z" fill="rgb(255,255,255)" fill-rule="nonzero" />
			</g>
			<g style="mix-blend-mode:normal">
				<path id="Path 5471" d="M101.495 143.318C101.872 143.368 102.145 143.604 102.449 143.791C102.958 144.144 103.642 143.59 104.256 143.585C105.288 143.573 106.392 144.093 107.461 144.336C107.859 144.438 108.257 144.545 108.647 144.663C109.382 144.882 109.694 145.312 110.155 145.582C110.518 145.787 111.052 145.944 111.425 145.986C111.656 145.986 111.836 146.105 111.779 146.371C111.722 146.717 111.533 147.082 111.308 147.351C111.128 147.571 110.832 147.599 110.565 147.671C110.125 147.736 109.754 148.007 109.349 148.185C108.982 148.349 108.527 148.332 108.132 148.351C107.304 148.419 106.565 148.437 105.71 148.302C105.371 148.247 105.016 148.148 104.677 148.076C103.751 147.873 103.144 148.011 102.445 147.836C102.033 147.751 101.632 147.679 101.222 147.693C100.969 147.72 100.745 147.786 100.419 147.808C99.8497 147.85 98.9772 147.763 98.304 147.725C97.2105 147.616 96.2769 147.616 95.349 147.188C95.133 147.056 95.0718 146.835 94.9821 146.638C94.7524 146.135 94.9323 145.5 95.3063 145.109C95.8084 144.7 96.5416 144.581 97.0858 144.181C98.3025 143.302 100.104 143.282 101.495 143.318Z" fill="rgb(255,255,255)" fill-rule="nonzero" />
			</g>
			<g style="mix-blend-mode:normal">
				<path id="Path 5472" d="M145.581 147.14C145.826 147.252 146.044 147.292 146.3 147.26C146.826 147.224 147.242 147.455 147.84 147.428C148.433 147.414 149.068 147.202 149.66 147.378C150.374 147.566 150.846 148.021 151.674 148.36C152.312 148.636 153.4 148.845 153.488 149.649C153.312 151.085 149.989 151.019 148.876 151.014C148.044 150.943 147.25 150.899 146.456 150.926C145.402 150.968 144.239 150.756 143.226 150.81C142.831 150.828 142.415 150.934 142.05 150.816C141.885 150.773 141.723 150.605 141.565 150.583C141.476 150.57 141.357 150.602 141.19 150.668C140.698 150.885 140.106 151.157 139.518 150.995C138.927 150.795 138.387 150.412 138.054 149.921C137.6 149.173 137.221 148.057 137.717 147.272C137.878 147.043 138.199 147.019 138.468 147.017C138.797 147.021 139.075 147.026 139.455 146.993C141.343 146.545 143.862 146.032 145.581 147.14Z" fill="rgb(255,255,255)" fill-rule="nonzero" />
			</g>
			<g style="mix-blend-mode:normal">
				<path id="Path 5473" d="M95.6024 137.122C95.8922 137.226 96.1329 137.302 96.4291 137.321C97.1599 137.303 98.2614 137.071 99.1166 137.301C100.262 137.544 101.522 137.856 102.318 138.755C103.119 139.771 102.206 140.55 101.107 140.508C100.569 140.524 100.02 140.419 99.5326 140.483C98.4716 140.614 97.3279 140.792 96.2733 140.599C95.3974 140.416 94.7809 140.3 93.9246 140.352C93.2839 140.346 92.6011 140.256 91.96 140.326C91.2434 140.348 90.6755 140.474 90.0077 140.606C89.178 140.668 88.3199 140.886 87.5767 141.102C86.998 141.321 85.8026 141.553 85.4767 140.727C85.0822 139.867 85.662 138.855 86.1712 138.198C86.7039 137.528 87.4036 137.435 88.2617 137.282C88.9782 137.166 89.7347 137.051 90.4658 137.101C90.8907 137.137 91.2582 137.237 91.6601 137.192C92.7898 136.964 94.4273 136.541 95.6024 137.122Z" fill="rgb(255,255,255)" fill-rule="nonzero" />
			</g>
			<g style="mix-blend-mode:normal">
				<path id="Path 5474" d="M67.7907 146.447C68.1656 146.803 68.2885 146.917 68.7492 146.95C68.9484 146.962 69.1511 146.906 69.3502 146.886C69.7169 146.84 70.0743 147.004 70.1792 147.312C70.285 147.782 69.9334 148.21 69.5103 148.54C68.9264 148.901 68.2277 148.921 67.622 149.039C66.8401 149.259 65.8967 149.414 65.1495 149.604C64.661 149.675 64.2636 149.597 63.7253 149.641C62.9408 149.718 62.0865 150.215 61.3624 150.386C60.5451 150.595 59.7242 150.458 58.9163 150.745C58.1882 150.969 57.4139 151.387 56.6829 150.964C55.9457 150.494 55.7732 149.592 55.589 148.749C55.4065 147.916 55.6728 147.268 56.4902 147.247C56.8616 147.202 57.2461 147.19 57.6001 147.07C58.1195 146.907 58.5287 146.474 59.1712 146.3C60.0989 146.048 61.1121 146.439 62.0169 146.249C63.8244 145.925 66.2787 144.856 67.7907 146.447Z" fill="rgb(255,255,255)" fill-rule="nonzero" />
			</g>
			<g style="mix-blend-mode:normal">
				<path id="Path 5475" d="M76.3798 138.411C77.1748 137.91 78.032 138.191 78.5803 138.993C78.8505 139.402 79.0399 139.896 79.4102 140.215C80.0038 140.75 80.9552 140.635 81.628 140.92C82.6046 141.205 82.1571 141.664 81.4795 142.004C80.6183 142.349 79.7371 142.556 78.8758 142.739C78.1109 142.987 77.205 143.37 76.3987 143.644C75.8333 143.851 75.3799 143.518 74.8583 143.429C74.2788 143.408 73.6928 143.703 73.1963 143.187C72.6889 142.682 72.0339 141.919 72.149 141.14C72.2708 140.555 72.5177 140.188 72.357 139.686C72.2888 139.38 72.0946 139.004 72.2909 138.789C72.5442 138.544 72.9858 138.024 73.3539 138.302C74.3504 139.086 75.2468 139.068 76.3798 138.411Z" fill="rgb(255,255,255)" fill-rule="nonzero" />
			</g>
			<g style="mix-blend-mode:normal">
				<path id="Path 5476" d="M119.04 148.78C119.727 148.847 120.392 148.922 121.101 149.062C121.696 149.229 122.283 149.1 122.883 149.321C123.871 149.798 124.212 151.027 123.207 151.711C122.741 152.096 122.069 152.315 121.533 152.453C120.913 152.671 120.24 152.924 119.539 152.917C117.867 152.985 116.344 152.484 114.696 152.315C113.135 151.966 113.618 150.111 114.807 149.637C115.464 149.323 116.308 149.327 117.018 149.166C117.823 148.988 118.348 148.711 119.04 148.78Z" fill="rgb(255,255,255)" fill-rule="nonzero" />
			</g>
			<g style="mix-blend-mode:normal">
				<path id="Path 5477" d="M57.1978 18.5012C57.4541 18.5337 57.6359 18.3517 57.8531 18.2392C58.1204 18.0794 58.4482 18.2245 58.5574 18.5908C58.7254 19.1738 58.1709 20.0112 57.5528 20.2517C56.8718 20.4922 56.3558 20.0799 55.6528 20.2932C54.4109 20.5188 53.2092 20.8829 52.027 21.3527C50.9509 21.7799 48.6946 21.8059 48.2032 20.61C48.0085 19.9872 48.3223 19.3051 48.8488 18.864C49.254 18.5435 49.7561 18.3779 50.251 18.2401C51.6358 17.8576 53.1205 17.8854 54.5124 17.8807C55.2372 17.8249 55.8141 17.682 56.3411 18.0107C56.6747 18.1939 56.9831 18.4652 57.1978 18.5012Z" fill="rgb(255,255,255)" fill-rule="nonzero" />
			</g>
			<g style="mix-blend-mode:normal">
				<path id="Path 5478" d="M87.1234 143.18C88.0219 143.002 89.0058 143.876 89.6501 144.229C89.745 144.276 89.8199 144.226 89.8612 144.133C89.9866 143.923 90.0253 143.407 90.3729 143.571C90.6587 143.671 91.2727 144.009 91.6439 144.288C91.9408 144.493 92.1584 144.556 92.1855 144.817C92.2111 145.039 92.1098 145.27 92.1451 145.479C92.3006 145.991 92.4515 146.195 91.7613 146.313C91.2141 146.388 90.6698 145.987 90.1962 145.793C89.9517 145.692 89.7737 145.673 89.5835 145.768C89.2791 145.921 89.0438 146.28 88.8049 146.54C88.1499 147.229 87.2314 147.321 86.2635 147.196C85.7241 147.094 85.1507 147.06 84.6133 147.142C84.1661 147.171 83.6429 147.354 83.4118 146.885C83.1489 146.442 83.1902 145.389 83.4249 144.752C84.0136 143.326 85.8525 143.452 87.1234 143.18Z" fill="rgb(255,255,255)" fill-rule="nonzero" />
			</g>
			<g style="mix-blend-mode:normal">
				<path id="Path 5479" d="M75.656 41.129C76.2238 41.9805 76.5592 43.1088 75.85 44.0114C75.3875 44.6348 75.0583 45.4271 74.4692 45.9254C73.8784 46.4913 72.9463 46.3612 72.4222 45.7945C72.0844 45.3807 71.8987 44.7124 71.9324 44.1636C72.1224 42.5717 73.7942 39.1693 75.656 41.129Z" fill="rgb(255,255,255)" fill-rule="nonzero" />
			</g>
			<g style="mix-blend-mode:normal">
				<path id="Path 5480" d="M71.1461 38.4266C71.7577 38.5419 72.2102 39.1525 72.2871 39.7374C72.2106 40.3508 71.6823 40.7707 71.3036 41.4343C71.0205 41.8701 70.6591 42.2928 70.2275 42.5411C69.985 42.6616 69.7739 42.5849 69.4794 42.4475C67.5121 41.1331 68.8255 38.0276 71.1461 38.4266Z" fill="rgb(255,255,255)" fill-rule="nonzero" />
			</g>
			<g style="mix-blend-mode:normal">
				<path id="Path 5481" d="M67.5045 33.6479C67.8913 34.0388 67.6105 34.0688 67.2521 34.1075C67.052 34.1346 66.8496 34.2008 66.6973 34.3428C66.3391 34.6631 66.035 35.4667 65.5376 35.7468C65.112 35.9979 64.4479 36.2415 64.0486 35.8488C63.7908 35.5774 63.6441 35.0245 63.7912 34.5869C63.9823 33.9699 64.6664 33.7688 65.1378 33.4679C65.3012 33.3645 65.4487 33.2405 65.6374 33.1823C66.1197 33.0511 67.074 33.2305 67.5045 33.6479Z" fill="rgb(255,255,255)" fill-rule="nonzero" />
			</g>
			<g style="mix-blend-mode:normal">
				<path id="Path 5482" d="M38.1541 39.7547C38.4701 39.9303 38.8524 39.9494 39.1487 39.8987C39.55 39.7954 39.6723 39.9332 39.8039 40.3254C39.9905 40.9222 40.149 41.5727 40.4544 42.1359C40.7911 42.8324 41.3963 43.5218 41.6854 44.2837C41.9883 45.0338 42.0001 45.8437 42.0008 46.6386C41.9666 47.475 42.2168 48.2222 42.3142 49.0267C42.3344 49.5939 42.4024 49.9495 42.0646 50.1077C41.9066 50.1591 41.7719 50.0917 41.6585 49.9846C41.1998 49.4372 41.364 48.5513 40.3759 48.5013C40.2984 48.4891 40.243 48.4749 40.2253 48.4469C40.1966 48.4071 40.2426 48.3333 40.2959 48.1782C40.3432 48.0481 40.3855 47.8621 40.3964 47.7066C40.4824 46.992 40.169 46.4844 39.9028 45.8939C39.7485 45.5425 39.3316 45.2614 39.18 44.8913C39.0469 44.4266 38.9496 43.9641 38.7884 43.4836C38.505 42.8402 38.2368 42.1459 38.2366 41.5078C38.229 41.2458 38.1917 40.9813 38.0832 40.7393C37.9298 40.415 37.5536 39.4047 38.1541 39.7547Z" fill="rgb(255,255,255)" fill-rule="nonzero" />
			</g>
			<g style="mix-blend-mode:normal">
				<path id="Path 5483" d="M125.089 52.8593C125.795 52.9478 126.647 52.9611 127.103 53.5872C127.258 53.807 127.31 54.165 127.102 54.3348C126.899 54.5022 126.642 54.4875 126.426 54.6569C126.01 55.0036 125.763 55.6756 125.146 55.7254C124.412 55.7121 124.495 54.5426 123.679 54.7493C123.032 55.0002 122.352 55.1825 121.619 55.1356C121.198 55.1009 120.665 54.9315 120.216 54.814C119.975 54.7182 119.277 54.6813 119.51 54.3504C120.304 53.4465 121.592 53.4251 122.736 53.2347C123.528 53.1254 124.279 52.674 125.089 52.8593Z" fill="rgb(255,255,255)" fill-rule="nonzero" />
			</g>
			<g style="mix-blend-mode:normal">
				<path id="Path 5484" d="M50.9963 83.2363C51.3932 83.4641 52.0318 83.877 52.2578 84.3698C52.4064 84.6758 52.4616 85.2236 52.6474 85.6184C52.8867 86.1193 53.3315 86.4453 53.5855 86.9376C53.9169 87.5264 54.0836 88.1716 54.5272 88.5032C54.873 88.7078 55.3039 88.6863 55.5817 89.0332C56.2207 89.7596 55.99 90.405 54.8981 90.046C54.2296 89.7449 53.2641 89.7198 52.6303 89.3022C52.208 88.9879 51.7326 88.5583 51.6044 88.1258C51.5148 87.7973 51.4968 87.4217 51.4103 87.1021C51.3701 86.2933 51.6259 85.5821 51.3757 84.6945C51.2665 84.3273 51.0509 83.8635 50.9747 83.5188C50.9301 83.293 50.933 83.22 50.9963 83.2363Z" fill="rgb(255,255,255)" fill-rule="nonzero" />
			</g>
			<g style="mix-blend-mode:normal">
				<path id="Path 5485" d="M144.264 67.4972C144.324 67.6535 144.036 68.3353 143.706 69.0047C143.323 69.87 142.99 70.5756 142.614 71.3901C142.234 72.0642 141.857 74.8432 140.683 73.6508C140.23 73.1139 139.861 72.4105 139.831 71.7153C139.865 71.3901 140.065 71.0603 140.288 70.6727C140.642 70.1349 141.275 69.6506 141.784 69.341C142.154 69.1434 142.524 69.0309 142.818 68.7694C143.208 68.4255 143.844 67.7042 144.264 67.4972Z" fill="rgb(255,255,255)" fill-rule="nonzero" />
			</g>
			<g style="mix-blend-mode:normal">
				<path id="Path 5486" d="M113.721 53.8288C114.065 53.9313 114.326 54.296 114.699 54.2593C115.163 54.1535 115.626 53.7699 116.229 53.6415C116.731 53.5175 117.315 53.3072 117.782 53.6264C118.621 54.2069 118.425 55.5435 117.339 54.9483C116.76 54.711 116.05 54.6638 115.497 55.0083C115.212 55.199 114.947 55.4619 114.637 55.5935C114.082 55.8951 113.27 55.6288 112.622 55.5686C112.11 55.5406 111.646 55.5362 111.247 55.5795C110.963 55.6144 110.645 55.5959 110.454 55.369C110.116 54.9763 110.37 54.4745 110.923 54.2693C111.36 54.1171 111.889 54.2851 112.329 54.1409C112.807 54.0244 113.24 53.6604 113.721 53.8288Z" fill="rgb(255,255,255)" fill-rule="nonzero" />
			</g>
			<g style="mix-blend-mode:normal">
				<path id="Path 5487" d="M129.314 70.0022C129.77 70.4568 129.194 70.9626 128.761 71.1559C128.398 71.3268 128.142 71.5218 128.056 71.9094C127.891 72.5121 128.034 73.408 127.394 73.8289C126.9 74.0638 126.736 73.4402 126.514 73.0161C126.34 72.5259 126.101 72.232 125.639 72.4406C125.409 72.509 124.812 73.064 124.679 72.7116C124.734 72.1016 125.058 71.2499 125.492 70.8317C125.916 70.5321 126.495 70.6139 126.97 70.4103C127.677 70.1578 128.585 69.4217 129.314 70.0022Z" fill="rgb(255,255,255)" fill-rule="nonzero" />
			</g>
			<g style="mix-blend-mode:normal">
				<path id="Path 5488" d="M106.342 54.3276C107.441 54.4152 108.938 53.9762 109.709 55.0477C109.87 55.2124 110.266 56.2252 110.007 56.2105C109.839 56.1781 109.662 56.0554 109.496 55.9785C108.034 55.2839 107.822 57.3611 106.906 56.9373C106.233 56.5237 105.664 55.7422 104.902 55.4469C101.949 54.2381 105.121 54.2707 106.342 54.3276Z" fill="rgb(255,255,255)" fill-rule="nonzero" />
			</g>
			<g style="mix-blend-mode:normal">
				<path id="Path 5489" d="M60.6429 89.1681C60.9405 89.6794 60.8254 90.7051 60.3546 90.936C60.0066 91.0932 59.6217 90.9134 59.2723 90.8316C58.7516 90.6558 57.9348 90.7342 57.9462 90.3037C58.1646 89.6823 58.8914 89.6128 59.3639 89.3212C59.7971 88.9007 60.168 88.3342 60.6429 89.1681Z" fill="rgb(255,255,255)" fill-rule="nonzero" />
			</g>
			<g style="mix-blend-mode:normal">
				<path id="Path 5490" d="M80.5303 83.9525C80.8972 84.2136 81.1479 84.6777 81.4433 85.0242C81.7602 85.416 82.1852 85.7521 82.2876 86.055C82.3358 86.1919 82.3425 86.3521 82.1785 86.4097C81.7364 86.4963 81.3133 85.9427 80.9503 85.8029C80.6352 85.7149 80.5714 86.301 80.2587 86.2625C79.8069 86.0903 79.5904 83.4042 80.5303 83.9525Z" fill="rgb(255,255,255)" fill-rule="nonzero" />
			</g>
			<g style="mix-blend-mode:normal">
				<path id="Path 5491" d="M124.745 82.7477C124.784 83.0564 124.554 83.2908 124.267 83.5535C123.849 83.9992 122.92 84.1094 122.419 84.5219C122.303 84.6081 122.217 84.697 122.09 84.741C121.914 84.8012 121.664 84.6914 121.646 84.4376C121.635 84.1825 121.839 84.0013 122.016 83.8309C122.597 83.4046 122.897 82.6252 123.658 82.4925C124.065 82.4325 124.652 82.5048 124.745 82.7477Z" fill="rgb(255,255,255)" fill-rule="nonzero" />
			</g>
			<g style="mix-blend-mode:normal">
				<path id="Path 5492" d="M54.4005 57.5904C55.1528 57.3647 56.2058 58.1069 55.6911 58.8922C55.4933 59.1355 54.9854 59.2015 54.8181 59.4022C54.7307 59.5109 54.7303 59.6898 54.6091 59.7716C54.5332 59.8074 54.5134 59.7961 54.4405 59.7816C54.1958 59.6992 53.9515 59.476 53.9115 59.19C53.86 58.8139 53.9495 58.3294 54.0831 57.9511C54.1482 57.7801 54.2278 57.6508 54.4005 57.5904Z" fill="rgb(255,255,255)" fill-rule="nonzero" />
			</g>
			<g style="mix-blend-mode:normal">
				<path id="Path 5493" d="M85.8098 84.3095C86.0154 84.6329 85.6347 85.2659 85.5063 85.6204C85.3193 86.0106 85.1016 86.7313 84.5912 86.2213C84.2036 85.8028 84.5152 85.05 84.6766 84.5084C84.8357 84.1192 85.5133 84.0952 85.8098 84.3095Z" fill="rgb(255,255,255)" fill-rule="nonzero" />
			</g>
			<g style="mix-blend-mode:normal">
				<path id="Path 5494" d="M168.761 89.7776C168.811 89.8941 168.538 90.1095 168.541 90.3955C168.544 90.7638 169.159 91.235 169.193 91.5801C169.26 91.9734 168.773 92.0628 168.488 91.9581C168.181 91.8619 167.978 91.4425 167.828 91.1078C167.597 90.6387 167.573 90.0799 168.081 89.8627C168.248 89.7872 168.642 89.6532 168.761 89.7776Z" fill="rgb(255,255,255)" fill-rule="nonzero" />
			</g>
			<g style="mix-blend-mode:normal">
				<path id="Path 5495" d="M50.466 59.9417C49.9796 59.91 50.3996 59.0572 50.3763 58.6511C50.3854 58.4951 50.3847 58.3162 50.4558 58.1811C50.5307 58.0004 50.8223 57.9795 50.9877 58.0755C51.418 58.2724 51.1564 58.9243 50.8448 59.5212C50.7372 59.7286 50.5823 59.9001 50.466 59.9417Z" fill="rgb(255,255,255)" fill-rule="nonzero" />
			</g>
		</g>
	</g>
</svg>
