<svg id="Group_568" data-name="Group 568" xmlns="http://www.w3.org/2000/svg" xmlns:xlink="http://www.w3.org/1999/xlink" width="188.724" height="68.943" viewBox="0 0 188.724 68.943">
  <defs>
    <clipPath id="clip-path">
      <rect id="Rectangle_280" data-name="Rectangle 280" width="188.724" height="68.944" fill="none"/>
    </clipPath>
  </defs>
  <g id="Group_567" data-name="Group 567" transform="translate(0 0)" clip-path="url(#clip-path)">
    <path id="Path_5705" data-name="Path 5705" d="M167.668,35.992a1.7,1.7,0,1,0-.023,3.389,1.7,1.7,0,1,0,.023-3.389" transform="translate(5.062 1.099)"/>
    <path id="Path_5706" data-name="Path 5706" d="M129.915,42.572h-.089l-.111-1.994h-2.9c.044.931.089,1.971.089,3.567v7.267h3.368V45.917a3.973,3.973,0,0,1,.066-.753,2.165,2.165,0,0,1,2.3-1.706,3.363,3.363,0,0,1,.909.111v-3.19a3.474,3.474,0,0,0-.709-.044,3.182,3.182,0,0,0-2.925,2.237" transform="translate(3.87 1.231)"/>
    <path id="Path_5707" data-name="Path 5707" d="M145.219,40.571h-3.389v6.447a1.877,1.877,0,0,1-.111.731,1.814,1.814,0,0,1-1.683,1.175c-1.175,0-1.684-.953-1.684-2.526V40.571h-3.39v6.358c0,3.345,1.618,4.719,3.811,4.719a3.863,3.863,0,0,0,3.389-1.772h.067l.155,1.528h2.925c-.044-.908-.089-2.06-.089-3.478Z" transform="translate(4.118 1.238)"/>
    <rect id="Rectangle_276" data-name="Rectangle 276" width="3.368" height="15.729" transform="translate(152.039 36.913)"/>
    <path id="Path_5708" data-name="Path 5708" d="M163.663,40.571h-3.389v6.447a1.9,1.9,0,0,1-.11.731,1.815,1.815,0,0,1-1.685,1.175c-1.174,0-1.683-.953-1.683-2.526V40.571h-3.389v6.358c0,3.345,1.617,4.719,3.81,4.719a3.866,3.866,0,0,0,3.39-1.772h.066l.155,1.528h2.925c-.044-.908-.089-2.06-.089-3.478Z" transform="translate(4.681 1.238)"/>
    <path id="Path_5709" data-name="Path 5709" d="M180.541,37.11l-3.811,1.772.554,2.526,2.747-1.308h.044V51.51h3.256V37.11Z" transform="translate(5.393 1.133)"/>
    <rect id="Rectangle_277" data-name="Rectangle 277" width="3.368" height="10.833" transform="translate(171.047 41.809)"/>
    <path id="Path_5710" data-name="Path 5710" d="M102.43,42.927a4.606,4.606,0,0,1,1.883.332l.532-2.5a7.811,7.811,0,0,0-2.569-.42c-4.032,0-6.2,2.592-6.2,5.76,0,3.412,2.237,5.561,5.738,5.561a8.143,8.143,0,0,0,3.013-.509l-.4-2.5A4.74,4.74,0,0,1,102.5,49a3.037,3.037,0,0,1-.066-6.07" transform="translate(2.932 1.231)"/>
    <path id="Path_5711" data-name="Path 5711" d="M79.493,42.671c-1.927-.731-2.769-1.152-2.769-2.1,0-.775.709-1.441,2.171-1.441a7.109,7.109,0,0,1,3.123.709l.753-2.725a9.149,9.149,0,0,0-3.811-.753c-3.522,0-5.649,1.95-5.649,4.5,0,2.171,1.618,3.545,4.1,4.41,1.8.642,2.5,1.174,2.5,2.1,0,.975-.819,1.617-2.37,1.617a8.61,8.61,0,0,1-3.744-.931l-.686,2.792a9.747,9.747,0,0,0,4.231.931c4.1,0,6.025-2.15,6.025-4.653,0-2.1-1.241-3.478-3.877-4.453" transform="translate(2.231 1.11)"/>
    <path id="Path_5712" data-name="Path 5712" d="M90.193,40.334c-3.766,0-5.472,3.036-5.472,5.782,0,3.389,2.1,5.539,5.782,5.539a10.68,10.68,0,0,0,3.921-.687l-.443-2.282a9.552,9.552,0,0,1-2.991.443c-1.573,0-2.946-.665-3.058-2.06h6.979a7.992,7.992,0,0,0,.111-1.329c0-2.68-1.329-5.406-4.83-5.406m-2.282,4.431a2.21,2.21,0,0,1,2.083-2.193A1.955,1.955,0,0,1,91.9,44.765Z" transform="translate(2.585 1.231)"/>
    <path id="Path_5713" data-name="Path 5713" d="M119.675,40.334a5.408,5.408,0,0,0-5.782,5.738,5.307,5.307,0,0,0,5.6,5.582,5.435,5.435,0,0,0,5.715-5.782,5.267,5.267,0,0,0-5.538-5.538m-.089,8.906c-1.44,0-2.216-1.4-2.216-3.256,0-1.6.6-3.256,2.216-3.256,1.528,0,2.149,1.639,2.149,3.256,0,1.95-.842,3.256-2.149,3.256" transform="translate(3.475 1.231)"/>
    <path id="Path_5714" data-name="Path 5714" d="M110.508,37.712l-3.3.909v2.037h-1.441V43.14h1.441v4.43a4.49,4.49,0,0,0,.931,3.213,3.512,3.512,0,0,0,2.525.952,6.5,6.5,0,0,0,2.194-.31l-.023-2.547a4.227,4.227,0,0,1-1,.089c-1.019,0-1.329-.6-1.329-1.905V43.14h2.414V40.658h-2.414Z" transform="translate(3.228 1.151)"/>
    <path id="Path_5715" data-name="Path 5715" d="M139.592,17.981a1.7,1.7,0,1,0,.022-3.389,1.7,1.7,0,1,0-.022,3.389" transform="translate(4.206 0.445)"/>
    <path id="Path_5716" data-name="Path 5716" d="M95.695,17.981a1.7,1.7,0,1,0,.023-3.389,1.7,1.7,0,1,0-.023,3.389" transform="translate(2.867 0.445)"/>
    <path id="Path_5717" data-name="Path 5717" d="M122.842,17.953a2.9,2.9,0,0,0,3.1-3.146h-1.751a1.314,1.314,0,0,1-1.351,1.352c-.775,0-1.2-.576-1.307-1.352h-1.751a2.884,2.884,0,0,0,3.058,3.146" transform="translate(3.655 0.452)"/>
    <rect id="Rectangle_278" data-name="Rectangle 278" width="3.368" height="10.833" transform="translate(142.137 19.756)"/>
    <rect id="Rectangle_279" data-name="Rectangle 279" width="3.368" height="10.833" transform="translate(96.899 19.756)"/>
    <path id="Path_5718" data-name="Path 5718" d="M117.72,26.932a3.321,3.321,0,0,0,3.5,3.322,3.9,3.9,0,0,0,3.1-1.328h.066l.2,1.085h3.035a16.726,16.726,0,0,1-.155-2.636V23.608c0-2.547-1.152-4.674-4.763-4.674a8.934,8.934,0,0,0-4.21.953l.62,2.17a6.091,6.091,0,0,1,2.991-.819c1.661,0,1.971.819,1.971,1.4v.156c-3.832-.023-6.358,1.329-6.358,4.143m6.47-2.038v1.175a2.409,2.409,0,0,1-.067.575,1.838,1.838,0,0,1-1.75,1.241,1.209,1.209,0,0,1-1.329-1.285c0-1.307,1.374-1.728,3.146-1.706" transform="translate(3.592 0.578)"/>
    <path id="Path_5719" data-name="Path 5719" d="M106.458,30.011h3.279V23.675a2.823,2.823,0,0,1,.132-.865,1.65,1.65,0,0,1,1.551-1.174c1.086,0,1.6.908,1.6,2.481v5.892h3.279v-6.38c0-3.235-1.574-4.7-3.655-4.7a3.912,3.912,0,0,0-2.061.532,4.556,4.556,0,0,0-1.4,1.308h-.044a3.069,3.069,0,0,0-2.969-1.839,3.757,3.757,0,0,0-3.278,1.706h-.067l-.155-1.461H99.834c.044.952.089,2.1.089,3.455v7.377H103.2V23.7a2.223,2.223,0,0,1,.133-.842,1.714,1.714,0,0,1,1.573-1.218c1.063,0,1.551.931,1.551,2.3Z" transform="translate(3.046 0.578)"/>
    <path id="Path_5720" data-name="Path 5720" d="M82.8,16.283a7.165,7.165,0,0,0-4.564-1.2,27.628,27.628,0,0,0-4.563.31V30.129h3.345V24.79a8.512,8.512,0,0,0,1.152.066,6.926,6.926,0,0,0,4.852-1.573,4.772,4.772,0,0,0,1.373-3.545A4.363,4.363,0,0,0,82.8,16.283m-4.653,5.981a5.185,5.185,0,0,1-1.129-.089V17.767a5.775,5.775,0,0,1,1.4-.133c1.684,0,2.636.819,2.636,2.193,0,1.528-1.107,2.437-2.9,2.437" transform="translate(2.248 0.461)"/>
    <path id="Path_5721" data-name="Path 5721" d="M85.864,30.011h3.368V24.516a3.97,3.97,0,0,1,.066-.752,2.165,2.165,0,0,1,2.3-1.707,3.349,3.349,0,0,1,.908.111v-3.19a3.463,3.463,0,0,0-.708-.044,3.182,3.182,0,0,0-2.925,2.237h-.089l-.111-1.993h-2.9c.044.93.089,1.971.089,3.567Z" transform="translate(2.617 0.578)"/>
    <path id="Path_5722" data-name="Path 5722" d="M152.878,23.609c0-2.548-1.152-4.674-4.763-4.674a8.949,8.949,0,0,0-4.21.952l.62,2.171a6.091,6.091,0,0,1,2.991-.82c1.662,0,1.972.82,1.972,1.4v.155c-3.832-.022-6.358,1.329-6.358,4.143a3.321,3.321,0,0,0,3.5,3.323,3.9,3.9,0,0,0,3.1-1.329h.067l.2,1.085h3.035a16.853,16.853,0,0,1-.155-2.636ZM149.6,26.068a2.418,2.418,0,0,1-.066.576,1.841,1.841,0,0,1-1.751,1.241,1.209,1.209,0,0,1-1.328-1.285c0-1.307,1.373-1.728,3.145-1.707Z" transform="translate(4.368 0.578)"/>
    <path id="Path_5723" data-name="Path 5723" d="M136.407,22.169v-3.19a3.468,3.468,0,0,0-.709-.044,3.184,3.184,0,0,0-2.925,2.237h-.089l-.11-1.993h-2.9c.044.93.089,1.971.089,3.567v7.266h3.367V24.517a3.97,3.97,0,0,1,.067-.753,2.165,2.165,0,0,1,2.3-1.707,3.355,3.355,0,0,1,.908.111" transform="translate(3.957 0.578)"/>
    <path id="Path_5724" data-name="Path 5724" d="M65.954,26.111a33.648,33.648,0,0,0-34.5-24.343,3.584,3.584,0,0,0-.433.046c-.3.055-.4.169-.4.475a3.151,3.151,0,0,0,.01.369c.031.362.123.449.481.446.425,0,.849-.009,1.274-.027a31.031,31.031,0,0,1,7.468.575,32.018,32.018,0,0,1,16.529,8.8c.085.083.163.171.278.292a.992.992,0,0,1-.2-.086,8.419,8.419,0,0,0-1.479-.594,5.744,5.744,0,0,0-.871-.2,9.6,9.6,0,0,0-2.169-.111,6.989,6.989,0,0,0-1.517.205,9.081,9.081,0,0,0-2.616,1.16,8.651,8.651,0,0,0-2.24,2.08,8.121,8.121,0,0,0-1.207,2.225,8.309,8.309,0,0,0-.53,2.944c0,.23,0,.461,0,.765-.408-.286-.742-.551-1.1-.769a2.733,2.733,0,0,0-1.273-.371l-1.307-.068q-.311-1.246-.621-2.5-.791-3.164-1.584-6.328c-.1-.4-.1-.418.267-.643.436-.269.878-.528,1.313-.8.132-.081.265-.178.237-.369-.025-.175-.166-.221-.3-.274-.269-.105-.542-.205-.806-.324C37.623,8.227,36.6,7.761,35.573,7.3c-.5-.224-1-.431-1.5-.665a13.489,13.489,0,0,0-2.495-.948,5.36,5.36,0,0,0-1.75-.23,2.349,2.349,0,0,0-1.319.5,3.714,3.714,0,0,0-.623.831c-.374-.095-.748-.184-1.119-.285a3.132,3.132,0,0,0-1.2.078V4.009c.2-.061.393-.12.584-.174.546-.156,1.094-.306,1.641-.463.326-.093.4-.2.345-.535a.852.852,0,0,0-.083-.254.44.44,0,0,0-.524-.239c-.394.081-.785.168-1.178.25-.256.053-.512.123-.8.18V.532c0-.474-.066-.537-.545-.532-.033,0-.067,0-.1,0-.343.024-.448.134-.449.481,0,.738,0,1.476,0,2.214v.371c-.236.079-.447.149-.657.222-.579.2-1.16.392-1.736.6-.241.088-.311.208-.277.39.064.339.285.632.488.639a1.08,1.08,0,0,0,.2-.012,1.218,1.218,0,0,0,.128-.04c.48-.144.96-.29,1.442-.43.125-.037.254-.059.4-.092.006.119.014.207.014.295,0,.772-.006,1.543,0,2.314a1.1,1.1,0,0,1-.221.648,5.448,5.448,0,0,0-.373.7,3.533,3.533,0,0,0-.187,1.181A.347.347,0,0,0,24,9.875c.065.011.135,0,.2.016.155.037.266.115.251.3-.006.077,0,.157,0,.235,0,.727,0,1.452,0,2.179,0,.165.02.322.181.4a.83.83,0,0,0,.743-.01c.195-.09.171-.295.172-.474,0-.67,0-1.341,0-2.012,0-.1.018-.206.031-.372l3.347,1.885c-.587,2.663-1.17,5.3-1.754,7.959a4.308,4.308,0,0,0-3.793,1.12c0-.165,0-.252,0-.34a8.352,8.352,0,0,0-.125-1.664,8.846,8.846,0,0,0-.678-2.3,10.26,10.26,0,0,0-.934-1.578,8.784,8.784,0,0,0-1.418-1.5,7.737,7.737,0,0,0-1.667-1.106,7.782,7.782,0,0,0-2.8-.849,10.586,10.586,0,0,0-2.572.055,6.373,6.373,0,0,0-1.1.263c-.47.166-.92.386-1.38.583l-.038-.023c.069-.072.135-.145.2-.215a33.965,33.965,0,0,1,7.088-5.367c.561-.326,1.13-.634,1.69-.961.1-.057.228-.17.227-.256a.985.985,0,0,0-.409-.8.376.376,0,0,0-.283-.031,2.849,2.849,0,0,0-.529.2A33.654,33.654,0,0,0,.035,33.911,33.44,33.44,0,0,0,8.7,57.869,33.164,33.164,0,0,0,30.606,68.8a32.319,32.319,0,0,0,6.993-.1A33.672,33.672,0,0,0,65.954,26.111M59.049,16.7a1.99,1.99,0,0,1,.221.276,4.143,4.143,0,0,1,.25.546,7.38,7.38,0,0,1,.5,2.54q-.014,9.085-.005,18.171V51.7c-.428-.332-.788-.608-1.147-.888-1.073-.837-2.142-1.679-3.222-2.508a.6.6,0,0,1-.263-.53q.009-9.221,0-18.44a.483.483,0,0,1,.334-.507c.021-.008.041-.02.062-.026a2.3,2.3,0,0,0,1.61-2.023,1.805,1.805,0,0,0-.161-1.044,2.384,2.384,0,0,0-1.46-1.383c-.384-.127-.377-.153-.377-.562,0-1.274,0-2.547-.005-3.821a.525.525,0,0,1,.232-.471c1.054-.843,2.094-1.7,3.139-2.558.086-.07.173-.138.295-.235M53.327,28.117a.559.559,0,0,1,.122.608q-1.334,4.4-2.649,8.806-.3.994-.6,1.985a.327.327,0,0,1-.113.171c-.005-.094-.015-.187-.016-.28q0-7.559-.006-15.117a.682.682,0,0,1,.288-.595c.691-.545,1.375-1.1,2.057-1.658.7-.571,1.394-1.147,2.091-1.721.04-.033.085-.061.174-.127.01.155.023.261.024.366q0,1.643,0,3.285c0,.328-.055.335-.36.477a2.8,2.8,0,0,0-.844.507,2.072,2.072,0,0,0-.777,1.446,2.273,2.273,0,0,0,.613,1.847M50.567,44c.371-1.227.746-2.454,1.117-3.68q1.144-3.795,2.285-7.591.308-1.025.617-2.049a1.217,1.217,0,0,1,.09-.155V47.537c-.147-.1-.255-.172-.356-.249l-3.572-2.768c-.269-.208-.276-.208-.181-.524m3.22-17.379a1.279,1.279,0,0,1,1.265-1.251A1.2,1.2,0,0,1,56.26,26.6a1.246,1.246,0,0,1-1.229,1.23,1.333,1.333,0,0,1-1.243-1.214m-8.817-.529q0-2.9,0-5.8a7.509,7.509,0,0,1,.37-2.264,7.721,7.721,0,0,1,1.028-2.054,7.386,7.386,0,0,1,4.594-2.982,8.44,8.44,0,0,1,2.073-.146,6.954,6.954,0,0,1,1.5.266,9.525,9.525,0,0,1,.974.347c.053.021.278.12.33.14a4.638,4.638,0,0,1,1.5,1c.249.237.513.46.759.7a4.15,4.15,0,0,1,.319.395l-13.368,10.8-.075-.035Zm.225,1.748c1.263-1.01,2.517-2.031,3.773-3.048.1-.081.21-.155.384-.281v.413q0,8.545,0,17.09a4.675,4.675,0,0,1-.289,1.22c-.094-.059-.162-.093-.218-.138-1.235-.974-2.464-1.954-3.706-2.918a.463.463,0,0,1-.173-.433q0-4.407,0-8.813c0-.872.006-1.743,0-2.614a.54.54,0,0,1,.229-.477m-4.618-6.761a2.9,2.9,0,0,1,3.06,1.788c.064.158.1.326.164.522H38.063a1.911,1.911,0,0,1,.32-1.016,2.939,2.939,0,0,1,2.194-1.294M28.757,10.592Q27.3,9.811,25.849,9.027a1.427,1.427,0,0,0-.707-.157c-.252,0-.307-.079-.214-.307a1.384,1.384,0,0,1,.953-.856,2.476,2.476,0,0,1,2.267.556.887.887,0,0,1,.247.35c.13.317.227.649.353.969.138.351.295.7.442,1.042.021.048.039.1.058.145l-.054.05c-.146-.076-.294-.15-.439-.229m-.4,9.538q.368-1.663.732-3.327c.415-1.894.835-3.787,1.244-5.682a1.53,1.53,0,0,0-.155-1.1c-.144-.263-.255-.546-.372-.822a2.191,2.191,0,0,1-.126-.36,2.792,2.792,0,0,1,.466.089,10.613,10.613,0,0,0,1.941.212c.057,0,.112,0,.168,0a.251.251,0,0,0,.267-.243.28.28,0,0,0-.194-.344c-.7-.26-1.4-.515-2.1-.778-.353-.133-.7-.274-1.053-.42-.224-.094-.246-.238-.061-.4a1.319,1.319,0,0,1,1.315-.372c.695.2,1.4.377,2.088.589a7.4,7.4,0,0,1,.89.379c.913.415,1.822.838,2.736,1.25.376.169.763.313,1.14.477a3.991,3.991,0,0,1,.382.226c-.237.141-.428.25-.613.367-.482.3-.531.419-.4.958q.723,2.906,1.449,5.811c.3,1.221.607,2.443.917,3.688-.128.095-.26.193-.391.292a4.178,4.178,0,0,0-1.706,2.475c-.062.289-.1.313-.414.313q-2.917,0-5.834,0c-.314,0-.361-.012-.407-.312a3.972,3.972,0,0,0-.858-1.72,4.429,4.429,0,0,0-.869-.777c-.237-.188-.249-.182-.187-.465m-4.613,2.352A2.993,2.993,0,0,1,26.909,21.1a2.62,2.62,0,0,1,2.21,1.965,1.9,1.9,0,0,1,.05.281c-.266.072-5.226.093-5.734.024a2.492,2.492,0,0,1,.305-.886m-.364,2.129c.147-.016.265-.041.382-.042.593,0,1.184,0,1.777,0h17.8c.494,0,.494,0,.494.506,0,4.4.008,8.806-.006,13.208a9.371,9.371,0,0,1-.384,2.466,13.087,13.087,0,0,1-.877,2.271c-.117.24-.255.471-.391.7a.817.817,0,0,1-.154.146,8.816,8.816,0,0,0-5.691-6.509,1.415,1.415,0,0,1,.21-.18,4.95,4.95,0,0,0,.919-.654,7.443,7.443,0,0,0,1-1.2,5.005,5.005,0,0,0,.793-1.826,9.022,9.022,0,0,0,.146-1.156,5.064,5.064,0,0,0-.327-2.2,6.1,6.1,0,0,0-.634-1.248,6.039,6.039,0,0,0-1.647-1.683,5.165,5.165,0,0,0-1.746-.8,7.129,7.129,0,0,0-1.647-.236,6.692,6.692,0,0,0-1.768.316A5.07,5.07,0,0,0,29.4,27.845a4.823,4.823,0,0,0-1.158,1.536c-.15.37-.345.724-.471,1.1a4.757,4.757,0,0,0-.207,1.012,5.65,5.65,0,0,0,.366,2.688A5.94,5.94,0,0,0,28.7,35.62,5.565,5.565,0,0,0,30.443,37.2c.1.055.192.128.288.192l-.029.077A7.746,7.746,0,0,0,27.11,39.92,8,8,0,0,0,25.2,43.863c-.087-.067-.156-.095-.182-.144a17.662,17.662,0,0,1-1.211-2.738c-.057-.214-.112-.315-.174-.529a6.36,6.36,0,0,1-.23-1.738c-.034-.489-.027-.982-.027-1.474q0-6.084,0-12.168ZM37.186,41.255a5.459,5.459,0,0,0-.14-1.29,3.66,3.66,0,0,0-.457-.881c-.1-.176-.237-.334-.358-.5a5.756,5.756,0,0,1,1.943,1.036A9.9,9.9,0,0,1,39.6,41.064a4,4,0,0,1,.43.674,7.785,7.785,0,0,1,.9,2.537c.042.263.056.531.086.8a.445.445,0,0,1-.154.356,14.893,14.893,0,0,1-2.551,2.2c-.294.2-.588.4-.885.594a1.58,1.58,0,0,1-.217.095c-.006-.167-.015-.3-.015-.425,0-2.213.006-4.426-.006-6.639m-7.17,6.6v.492a3.814,3.814,0,0,1-.348-.192c-.562-.4-1.126-.8-1.676-1.22a11.457,11.457,0,0,1-1.7-1.6A.4.4,0,0,1,26.2,45.1a4.751,4.751,0,0,1,.189-1.484c.095-.331.2-.659.329-.979a7.01,7.01,0,0,1,1.551-2.357,6.428,6.428,0,0,1,2.024-1.447c.122-.054.231-.136.351-.194a2.26,2.26,0,0,1,.267-.092l.038.055a1.062,1.062,0,0,1-.139.2,2.4,2.4,0,0,0-.6,1.033,3.474,3.474,0,0,0-.2,1.145c.012,2.29.005,4.581.005,6.87m-1.4.868c-.212.244-4.927,3.154-5.405,3.335.731-2.017,1.44-3.974,2.166-5.977a22.417,22.417,0,0,0,3.239,2.642M30.75,40.62a1.733,1.733,0,0,1,.183-.769,2.958,2.958,0,0,1,1.532-1.518,2.759,2.759,0,0,1,1.6-.2A2.824,2.824,0,0,1,35.689,39a2.616,2.616,0,0,1,.785,1.8c.006,2.546,0,5.094.007,7.641a.424.424,0,0,1-.275.438q-1.142.556-2.274,1.138a.493.493,0,0,1-.475.008c-.817-.383-1.634-.767-2.456-1.141a.393.393,0,0,1-.251-.417c.008-1.341,0-2.68,0-4.021,0-1.274.005-2.547,0-3.821m.577-7.451a5.928,5.928,0,0,1,.238-.615,2.253,2.253,0,0,1,1.352-1.16,1.935,1.935,0,0,1,1.733.3,2.717,2.717,0,0,1,1.107,1.8,3.654,3.654,0,0,1,.037.533,3.13,3.13,0,0,1-.51,1.836,2.133,2.133,0,0,1-2.544.882,1.77,1.77,0,0,1-1-.8,3.114,3.114,0,0,1-.41-2.771m4.611,3.117c-.015-.015-.032-.031-.047-.047a1.272,1.272,0,0,1,.141-.339,4.836,4.836,0,0,0,.437-1.314,3.913,3.913,0,0,0-.02-1.092,3.809,3.809,0,0,0-.674-1.655,3.21,3.21,0,0,0-.746-.708,2.483,2.483,0,0,0-1.152-.493,2.782,2.782,0,0,0-1.523.235,2.986,2.986,0,0,0-1.4,1.388,3.661,3.661,0,0,0-.111,3.462,1.906,1.906,0,0,0,.135.246c.053.083.129.177.178.258-.107.134-.195.05-.265-.007a3.8,3.8,0,0,1-.716-.6,4.407,4.407,0,0,1-1.387-2.459,4.828,4.828,0,0,1,2.937-5.525,4.615,4.615,0,0,1,2.295-.29,5.216,5.216,0,0,1,1.662.46,4.3,4.3,0,0,1,1,.717,4.44,4.44,0,0,1,1.287,1.8,5.184,5.184,0,0,1,.309,1.968,5.431,5.431,0,0,1-.42,1.878,4.044,4.044,0,0,1-.581.932,5.844,5.844,0,0,1-1.121,1.043c-.069.053-.146.094-.219.14M31.3,50.531c.023-.048.055-.092.1-.164.25.124.488.239.725.359.144.072.111.2.091.32-.084.493-.175.985-.249,1.481-.112.758-.211,1.52-.319,2.279q-.215,1.5-.436,3-.281,1.915-.57,3.831c-.029.195-.064.389-.1.615-.123-.062-.223-.105-.314-.161q-1.489-.9-2.973-1.812c-.28-.172-.295-.238-.156-.54.41-.89.815-1.784,1.225-2.675.307-.668.624-1.33.927-2,.4-.893.8-1.792,1.2-2.686.279-.62.567-1.237.852-1.854m-.011,11.913c.154-1.057.294-2.117.443-3.175.145-1.025.3-2.049.444-3.073q.291-2.016.579-4.032c.052-.362.1-.723.161-1.179a1.192,1.192,0,0,0,1.4.04c.008-.005.022,0,.068,0,.066.454.133.912.2,1.372q.227,1.62.453,3.24.246,1.785.485,3.572c.142,1.047.277,2.1.436,3.142a.3.3,0,0,1-.149.356c-.649.435-1.3.869-1.939,1.316a.383.383,0,0,1-.486.011c-.639-.409-1.281-.814-1.93-1.207a.317.317,0,0,1-.165-.381M35.806,56q-.232-1.567-.46-3.136c-.093-.649-.179-1.3-.27-1.948-.016-.119-.006-.234.11-.292.236-.119.478-.223.744-.345.164.358.318.688.47,1.02q1.342,2.952,2.684,5.906.519,1.141,1.041,2.282c.161.351.148.4-.192.615q-1.354.864-2.711,1.723c-.149.095-.3.185-.486.3-.044-.237-.09-.44-.121-.645q-.408-2.741-.81-5.481m2.563-7.107a18.269,18.269,0,0,0,3-2.367,2.61,2.61,0,0,1,.189.3c.385.876.765,1.756,1.149,2.633.3.694.612,1.385.916,2.079.034.077.057.16.108.305l-5.369-2.858c0-.031,0-.062.007-.093m-29.4-33.5a8.068,8.068,0,0,1,2.113-1.67,7.328,7.328,0,0,1,1.224-.531,7.488,7.488,0,0,1,1.532-.312,9.12,9.12,0,0,1,2.523.13,7.3,7.3,0,0,1,1.352.471,8.985,8.985,0,0,1,.883.417,5.01,5.01,0,0,1,.9.641,10.475,10.475,0,0,1,1.3,1.386,4.525,4.525,0,0,1,.592.967,7.1,7.1,0,0,1,.784,2.607c.028.4.063.8.065,1.2.007,1.743,0,3.485,0,5.228v.356l-.071.035-13.4-10.6a1.578,1.578,0,0,1,.2-.324M22.24,28.041q0,5.95,0,11.9c0,.022-.005.044-.009.089l-4.262,3.338V24.506a1.39,1.39,0,0,1,.2.11c1.3,1.029,2.606,2.064,3.914,3.088a.379.379,0,0,1,.16.337m-7.181,7.316Q14.05,32.08,13.039,28.8c-.158-.511-.317-1.022-.473-1.534a1.016,1.016,0,0,1-.052-.293q0-3.285,0-6.571c0-.033.006-.066.018-.167.19.136.343.239.489.353,1.324,1.04,2.643,2.086,3.972,3.119a.664.664,0,0,1,.288.587q-.012,8.783-.006,17.566v.351l-.073.011c-.035-.085-.076-.167-.1-.255q-1.02-3.308-2.039-6.617m1.183,9.3L12.554,47.52v-14.7c.136.2,3.574,11.238,3.688,11.833M7.464,18.174a6.336,6.336,0,0,1,.4-1.058,4.174,4.174,0,0,1,.235-.428c.11.072.2.117.271.178,1.065.866,2.123,1.738,3.194,2.6a.711.711,0,0,1,.3.675c-.038.669-.013,1.341-.013,2.011V25.4a1.813,1.813,0,0,0-.2-.371c-.233-.325-.458-.657-.7-.975a1.491,1.491,0,0,0-.366-.363c-.205-.086-.331,0-.326.224a12.888,12.888,0,0,0,.15,1.349,14.467,14.467,0,0,0,.547,2.2c.267.874.543,1.746.8,2.622a2.119,2.119,0,0,1,.085.59q.008,8.514.009,17.029a.681.681,0,0,1-.3.611c-1.355,1.038-2.7,2.093-4.044,3.14-.094.073-.195.136-.356.247v-.48q0-15.538,0-31.074a9.5,9.5,0,0,1,.319-1.971M6.1,19.036a9.554,9.554,0,0,0-.087,1.2Q6,35.86,6.008,51.485v.409c-.648-.458-2.808-5.407-3.534-8.075a32.507,32.507,0,0,1,.144-17.506,29.963,29.963,0,0,1,3.666-8.046,6.8,6.8,0,0,0-.185.77m29.458,48.5A32.222,32.222,0,0,1,6.88,53.382c1.611-1.259,3.243-2.5,4.863-3.747s3.255-2.5,4.91-3.769c.146.454.282.865.41,1.277q.609,1.948,1.213,3.9c.069.224.133.448.206.67a.421.421,0,0,1-.115.429c-.223.264-.374.423-.671.789a4.421,4.421,0,0,0-.572,1.087c-.128.343.02.54.386.6.055.008.107.032.163.037.369.039.545-.076.621-.443a2.141,2.141,0,0,1,1.21-1.43,1.891,1.891,0,0,1,.918-.28,3.132,3.132,0,0,1,.394,0,.529.529,0,0,0,.685-.527,1.9,1.9,0,0,0,.019-.2c.006-.261-.053-.356-.308-.391a4.843,4.843,0,0,0-1.167-.057L18.019,44.81l4.569-3.6c.09.158.157.294.223.44.108.244.231.494.324.744a17.538,17.538,0,0,0,1.306,2.517.422.422,0,0,1,.039.4q-.519,1.374-1.019,2.758c-.255.7-.494,1.409-.743,2.112-.168.472-.343.942-.514,1.414s-.347.964-.525,1.445c-.083.224-.122.248-.345.154a1.692,1.692,0,0,0-1.08-.082,1.961,1.961,0,0,0-1.418,1.538,1.846,1.846,0,0,0,.792,1.805,1.682,1.682,0,0,0,1.615.262,1.981,1.981,0,0,0,1.3-1.73,2.1,2.1,0,0,0-.229-1.031l1.255-.783c.729-.453,1.456-.909,2.188-1.356.628-.383,1.261-.754,1.89-1.136.562-.342,1.138-.665,1.673-1.044a.644.644,0,0,1,.817-.016c.063.041.12.094.195.154-.18.406-.353.8-.532,1.2q-1.516,3.354-3.036,6.707c-.34.752-.684,1.5-1.023,2.255a1.557,1.557,0,0,0-.116.346.426.426,0,0,0,.205.484c.42.256.831.526,1.249.782q1.8,1.1,3.6,2.2c.867.53,1.73,1.062,2.6,1.59a.527.527,0,0,0,.622.012c.643-.424,1.3-.826,1.945-1.245q2.558-1.657,5.112-3.319a5.386,5.386,0,0,0,.461-.333c.208-.168.244-.265.138-.521-.232-.555-.48-1.1-.729-1.652q-1.462-3.232-2.928-6.462c-.3-.67-.606-1.34-.92-2.037a.34.34,0,0,1,.461-.048c.573.344,1.171.647,1.76.965.628.339,1.258.674,1.886,1.013q1.81.977,3.619,1.955c.308.165.324.189.122.47a1.144,1.144,0,0,0-.184.665,1.892,1.892,0,0,0,1.746,2.006,1.865,1.865,0,0,0,1.4-3.2,1.654,1.654,0,0,0-.746-.482,1.573,1.573,0,0,0-1.106.07c-.278.13-.333.114-.463-.169-.214-.466-.412-.939-.616-1.41q-.4-.934-.807-1.867-.439-1.012-.879-2.025c-.264-.6-.513-1.212-.8-1.8a.6.6,0,0,1,.092-.695c.31-.434.608-.879.876-1.34a12.073,12.073,0,0,0,1-2.181c.025-.073.024-.155.049-.228.033-.1.081-.189.135-.311.247.195.455.358.663.522,1.1.876,2.195,1.756,3.3,2.626a.389.389,0,0,1,.148.486q-1.012,3.381-2.011,6.765a5.1,5.1,0,0,0-.112.555.243.243,0,0,0,.125.286,4.891,4.891,0,0,0,.875.317c.337.07.452-.034.555-.376.182-.609.358-1.22.54-1.829q.711-2.37,1.426-4.738c.019-.062.046-.122.088-.231l10.2,7.828A32.108,32.108,0,0,1,35.557,67.533M64.675,44.1c-.718,2.589-2.748,7.166-3.52,7.926v-.423q0-15.793.006-31.584a5.98,5.98,0,0,0-.249-1.711.307.307,0,0,1,0-.168,30.971,30.971,0,0,1,4,9.263,32.28,32.28,0,0,1-.229,16.7" transform="translate(0 0)"/>
  </g>
</svg>
